<?xml version="1.0" standalone="no"?>
<!DOCTYPE svg PUBLIC "-//W3C//DTD SVG 1.1//EN" "http://www.w3.org/Graphics/SVG/1.1/DTD/svg11.dtd" >
<svg xmlns="http://www.w3.org/2000/svg">
<metadata>
This is a custom SVG webfont generated by Font Squirrel.
Copyright   : Digital typeface data Copyright c19931996 Weatherly Systems Inc All Rights Reserved Redistribution strictly prohibited
</metadata>
<defs>
<font id="MarlboroRegular" horiz-adv-x="860" >
<font-face units-per-em="2048" ascent="1638" descent="-410" />
<missing-glyph horiz-adv-x="409" />
<glyph unicode=" "  horiz-adv-x="409" />
<glyph unicode="&#x09;" horiz-adv-x="409" />
<glyph unicode="&#xa0;" horiz-adv-x="409" />
<glyph unicode="!" horiz-adv-x="587" d="M119 1219q0 90 48 144t126 54q76 0 125 -55t49 -143q0 -43 -4 -83t-6 -57l-113 -700h-104l-109 700q-12 66 -12 140zM152 158q0 70 40.5 121t100.5 51q59 0 101 -50.5t42 -121.5q0 -72 -42 -122t-101 -50t-100 49t-41 123z" />
<glyph unicode="&#x22;" horiz-adv-x="577" d="M55 1399h207l-53 -563h-100zM315 1399h205l-51 -563h-102z" />
<glyph unicode="#" horiz-adv-x="950" d="M49 354l23 148h149l68 393h-150l23 147h149l60 357h155l-59 -357h125l59 357h156l-62 -357h150l-23 -147h-149l-66 -393h150l-23 -148h-149l-62 -354h-155l61 354h-125l-59 -354h-156l60 354h-150zM377 502h125l65 393h-123z" />
<glyph unicode="$" d="M72 1049q0 311 309 362v35h74v-35q125 -16 204.5 -92t79.5 -176q0 -63 -40 -105.5t-99 -42.5q-55 0 -90 39t-35 103q0 37 15.5 62.5t52.5 45.5q-41 41 -88 53v-424q170 -98 254 -239q78 -129 77 -283q0 -141 -87 -240.5t-244 -136.5v-161h-74v161q-129 10 -209 91 t-80 200q0 76 41 126t105 50q59 0 97 -42t38 -109q0 -131 -131 -131q41 -49 139 -74v475q-164 113 -236.5 230t-72.5 258zM272 1139q0 -63 23.5 -107.5t85.5 -97.5v366q-109 -36 -109 -161zM455 92q119 57 118 184q0 59 -24.5 107.5t-93.5 122.5v-414z" />
<glyph unicode="%" horiz-adv-x="1193" d="M68 977q0 238 48 333t169 95q119 0 167 -95.5t48 -332.5q0 -238 -48.5 -333t-166.5 -95q-121 0 -169 95t-48 333zM246 0l559 1399h139l-559 -1399h-139zM246 707q0 -90 39 -91q35 0 34 64v580q0 55 -7 73.5t-27 18.5q-39 0 -39 -64v-581zM690 422q0 236 47 331t166 95 t168 -95.5t49 -330.5q0 -238 -48 -333t-169 -95q-119 0 -166 94t-47 334zM868 152q0 -55 6.5 -73t28.5 -18q37 0 37 62v582q0 55 -7 73.5t-30 18.5q-35 0 -35 -64v-581z" />
<glyph unicode="&#x26;" horiz-adv-x="925" d="M72 365q0 258 217 426q-51 113 -73.5 198.5t-22.5 165.5q0 111 62 183.5t157 72.5q94 0 155.5 -71.5t61.5 -186.5q0 -162 -131 -291l61 -168q76 -195 158 -352q20 59 32.5 116.5t12.5 102.5q0 37 -5 62.5t-14 48.5l-28 -6q-37 0 -63.5 39.5t-26.5 95.5q0 51 25.5 80.5 t68.5 29.5q66 0 102.5 -77.5t36.5 -217.5q0 -180 -96 -372l51 -123h61v-121h-239l-27 53q-53 -41 -101 -57t-114 -16q-139 0 -230 107.5t-91 277.5zM291 510q0 -125 67.5 -245t139.5 -120q20 0 57 21q-74 139 -124 254t-93 242q-47 -66 -47 -152zM393 1196q0 -63 68 -231 q80 70 80 184q0 133 -80 133q-27 0 -47.5 -25.5t-20.5 -60.5z" />
<glyph unicode="'" horiz-adv-x="292" d="M41 1399h205l-51 -563h-101z" />
<glyph unicode="(" horiz-adv-x="491" d="M125 545q0 209 51 415.5t158 430.5l112 -48q-96 -199 -137 -382t-41 -416q0 -240 39 -417t139 -382l-112 -45q-209 432 -209 844z" />
<glyph unicode=")" horiz-adv-x="491" d="M41 -254q96 197 137 382t41 417q0 240 -39 418t-139 380l113 48q209 -436 208 -846q0 -209 -51 -416t-157 -428z" />
<glyph unicode="*" horiz-adv-x="532" d="M92 1145q0 53 74 53q57 0 57 19q0 16 -55 16q-76 0 -76 55q0 23 14.5 37t34.5 14q27 0 57.5 -44t39.5 -44q10 10 10 15q0 4 -16.5 38.5t-16.5 57.5t14.5 37t36.5 14q49 0 49 -51q0 -20 -16 -55t-16 -41t6 -13q2 -2 4 -2q10 0 39.5 44t56.5 44q20 0 35.5 -15t15.5 -36 q0 -55 -75 -55q-57 0 -58 -16q0 -18 55 -19q78 0 78 -55q0 -23 -14 -37t-37 -14q-27 0 -65 59q-18 29 -31 29l-10 -13q0 -4 20 -55q12 -31 12 -43q0 -18 -15 -33.5t-34 -15.5q-23 0 -37 14.5t-14 34.5q0 25 10 48l23 50l-10 13q-10 0 -40 -44t-57 -44q-20 0 -34.5 16.5 t-14.5 36.5z" />
<glyph unicode="+" d="M111 623v153h235v244h164v-244h235v-153h-235v-246h-164v246h-235z" />
<glyph unicode="," horiz-adv-x="462" d="M68 147q0 70 38.5 117t96.5 47q72 0 114.5 -55t42.5 -150q0 -227 -188 -352l-51 103q41 33 63.5 60.5t55.5 84.5l-43 -4q-57 0 -93 41.5t-36 107.5z" />
<glyph unicode="-" horiz-adv-x="411" d="M20 391v225h373v-225h-373z" />
<glyph unicode="." horiz-adv-x="481" d="M98 158q0 70 41 121t99 51q61 0 102 -49.5t41 -122.5q0 -72 -42 -122t-101 -50q-57 0 -98.5 49t-41.5 123z" />
<glyph unicode="/" horiz-adv-x="929" d="M41 0l719 1399h123l-717 -1399h-125z" />
<glyph unicode="0" d="M74 715q0 401 102 565q84 133 254 133q174 0 254 -133q98 -164 98 -573q0 -424 -76.5 -572.5t-275.5 -148.5t-272 137q-84 156 -84 592zM356 201q0 -53 15.5 -84t58.5 -31q68 0 68 98v936q0 123 -11.5 162t-56.5 39q-49 0 -60.5 -38t-11.5 -163z" />
<glyph unicode="1" d="M233 1108l166 291h209v-1278h72v-121h-424v121h76v930l-51 -41z" />
<glyph unicode="2" d="M102 1090q0 137 84 229t211 92q139 0 235.5 -108.5t96.5 -268.5q0 -135 -63.5 -239.5t-200.5 -196.5l-88 -59q-70 -47 -107 -112t-37 -151h375v130h117v-406h-594v233q0 156 41 248q29 66 117 160l92 98q47 47 61.5 104.5t14.5 194.5q0 250 -125 250q-55 0 -93 -40 t-38 -99v-37q41 29 71 29q43 0 68 -35t25 -94q0 -70 -33 -112t-88 -42q-63 0 -102.5 64t-39.5 168z" />
<glyph unicode="3" d="M74 264q0 80 41 129t106 49q63 0 100 -36.5t37 -100.5q0 -49 -20.5 -79.5t-79.5 -61.5q47 -66 111 -66q117 0 116 267q0 205 -21.5 245.5t-133.5 40.5v123q90 0 111.5 49t21.5 252q0 123 -23.5 167t-89.5 44q-68 0 -110 -72q139 -23 139 -151q0 -61 -35 -102t-88 -41 q-72 0 -117 57t-45 149q0 117 93.5 202t220.5 85q156 0 248 -102.5t92 -276.5q0 -109 -38 -175t-145 -144q221 -80 221 -336q0 -172 -108.5 -282.5t-278.5 -110.5q-139 0 -232 78.5t-93 199.5z" />
<glyph unicode="4" d="M74 518l375 881h239v-867h80v-141h-80v-270h80v-121h-430v121h86v270h-307zM209 532h215v543z" />
<glyph unicode="5" d="M94 252q0 82 45 135t115 53q55 0 92 -41t37 -106q0 -109 -121 -137q31 -68 92 -68q70 0 99.5 76t29.5 250q0 201 -29.5 281.5t-103.5 80.5q-51 0 -75.5 -32.5t-53.5 -129.5l-104 13v772h571v-357h-121v68h-327v-274q106 78 202 77q139 0 231.5 -128t92.5 -324 q0 -211 -98.5 -342t-257.5 -131q-135 0 -225.5 75.5t-90.5 188.5z" />
<glyph unicode="6" d="M92 649q0 430 90 602q84 162 287 162q129 0 214 -74.5t85 -187.5q0 -68 -40 -112t-97 -44q-53 0 -90 41t-37 101q0 41 14 69.5t51 59.5q-45 37 -82 37q-72 0 -94 -55.5t-22 -235.5v-170q47 27 78.5 38t64.5 11q117 0 197 -121t80 -299q0 -223 -94.5 -354t-254.5 -131 q-182 0 -262 135q-88 151 -88 528zM371 262q0 -106 13 -141t56 -35q45 0 57.5 29.5t12.5 128.5v377q0 164 -70 163q-37 0 -53 -37.5t-16 -125.5v-359z" />
<glyph unicode="7" d="M129 989v410h598v-258q-127 -154 -165 -355.5t-38 -513.5q0 -86 1 -109.5t5 -41.5h72v-121h-399v121h45q0 362 100 612q76 188 242 377h-352v-121h-109z" />
<glyph unicode="8" d="M90 381q0 268 199 373q-94 47 -135 118.5t-41 194.5q0 170 81.5 258t239.5 88q147 0 231.5 -94t84.5 -256q0 -117 -37 -183.5t-135 -125.5q104 -68 147 -148t43 -209q0 -186 -90 -298.5t-240 -112.5q-154 0 -251 111.5t-97 283.5zM360 193q0 -96 70 -97q68 0 68 97v368 q0 78 -14.5 108.5t-53.5 30.5q-41 0 -55.5 -28.5t-14.5 -110.5v-368zM360 889q0 -39 15.5 -63.5t54.5 -24.5q37 0 52.5 23.5t15.5 64.5v270q0 92 -13.5 122t-54.5 30q-43 0 -56.5 -30t-13.5 -122v-270z" />
<glyph unicode="9" d="M70 934q0 225 86 352t239 127q211 0 297 -205q70 -168 70 -522q0 -383 -105 -549q-94 -152 -292 -151q-121 0 -204 72.5t-83 179.5q0 68 41 116.5t98 48.5q55 0 91 -39.5t36 -99.5q0 -82 -63 -133q29 -37 69 -37q72 0 98.5 62.5t26.5 238.5v150q-59 -47 -129 -47 q-127 0 -201.5 115.5t-74.5 320.5zM342 764q0 -154 66 -154q37 0 52 33t15 111v422q0 84 -12 113.5t-51 29.5q-41 0 -55.5 -32t-14.5 -124v-399z" />
<glyph unicode=":" horiz-adv-x="481" d="M98 158q0 70 41 121t99 51q61 0 102 -49.5t41 -122.5q0 -72 -42 -122t-101 -50q-57 0 -98.5 49t-41.5 123zM98 862q0 70 41 121t99 51q61 0 102 -49t41 -123q0 -72 -42 -122t-101 -50q-57 0 -98.5 49t-41.5 123z" />
<glyph unicode=";" horiz-adv-x="462" d="M68 147q0 70 38.5 117t96.5 47q72 0 114.5 -55t42.5 -150q0 -227 -188 -352l-51 103q41 33 63.5 60.5t55.5 84.5l-43 -4q-57 0 -93 41.5t-36 107.5zM72 862q0 72 42 122t99 50q61 0 102 -49t41 -123q0 -72 -42 -122t-101 -50q-57 0 -99 50t-42 122z" />
<glyph unicode="&#x3c;" horiz-adv-x="1040" d="M82 750v20l874 553v-127l-540 -344l540 -371v-329z" />
<glyph unicode="=" d="M111 455v145h634v-145h-634zM111 797v145h634v-145h-634z" />
<glyph unicode="&#x3e;" horiz-adv-x="1040" d="M82 152v122l541 349l-541 368v332l874 -602v-16z" />
<glyph unicode="?" horiz-adv-x="825" d="M61 1128q0 123 86 207t213 84q152 0 248.5 -96t96.5 -248t-93 -268l-174 -184q-96 -113 -96 -240h-119q0 182 107.5 370.5t107.5 297.5q0 113 -34.5 175t-98.5 62q-84 0 -106 -88q6 4 8 4q23 10 43 10q49 0 79.5 -36.5t30.5 -94.5q0 -70 -38.5 -112.5t-104.5 -42.5 q-72 0 -114 54t-42 146zM152 158q0 70 40.5 121t100.5 51q59 0 101 -50.5t42 -121.5q0 -72 -42 -122t-101 -50t-100 49t-41 123z" />
<glyph unicode="@" horiz-adv-x="911" d="M68 672q0 428 88 591.5t319 163.5q162 0 262.5 -106.5t100.5 -280.5v-761h-152v79q-59 -96 -129 -96q-84 0 -123 88t-39 285q0 219 41 320.5t129 101.5q39 0 65.5 -16.5t55.5 -61.5q0 182 -44 258t-161 76q-133 0 -179 -118t-46 -493q0 -383 47 -500.5t195 -117.5 q59 0 101 22.5t69 73.5l147 -37q-74 -174 -317 -174q-233 0 -328 142q-102 155 -102 561zM547 623q0 -129 14 -174.5t57 -45.5q39 0 53.5 57.5t14.5 217.5q0 133 -14.5 186.5t-50.5 53.5q-41 0 -57.5 -64.5t-16.5 -230.5z" />
<glyph unicode="A" horiz-adv-x="835" d="M14 0v121h58l149 1278h334l197 -1278h67v-121h-420v121h78l-47 299h-209l-35 -299h78v-121h-250zM238 539h172l-91 653z" />
<glyph unicode="B" horiz-adv-x="903" d="M51 0v121h70v1155h-70v123h314q236 0 340 -77t104 -278q0 -231 -178 -309q211 -74 211 -329q0 -231 -109.5 -318.5t-400.5 -87.5h-281zM393 121h23q76 0 106.5 63.5t30.5 223.5q0 145 -33 208.5t-108 63.5l-19 -2v-557zM393 784l13 -2q72 0 102.5 58.5t30.5 197.5 q0 238 -115 238h-31v-492z" />
<glyph unicode="C" horiz-adv-x="788" d="M57 705q0 367 86 539.5t269 172.5q57 0 95 -18.5t87 -69.5l35 70h94v-463h-176v145q0 131 -24.5 174t-78.5 43q-55 0 -74.5 -50t-19.5 -220v-594q0 -201 33 -270q25 -51 82 -51q82 0 120 87t38 296h100l2 -62q0 -209 -81 -330.5t-220 -121.5q-367 0 -367 723z" />
<glyph unicode="D" horiz-adv-x="917" d="M51 0v121h70v1155h-70v123h377q215 0 320.5 -156t105.5 -506q0 -408 -115 -581q-102 -156 -327 -156h-361zM393 121h37q88 0 110.5 102.5t22.5 511.5q0 295 -6 359q-18 182 -147 182h-17v-1155z" />
<glyph unicode="E" horiz-adv-x="796" d="M51 0v121h70v1155h-70v123h684v-385h-180v262h-162v-504h80v135h141v-393h-141v139h-80v-532h162v291h180v-412h-684z" />
<glyph unicode="F" horiz-adv-x="780" d="M51 0v121h70v1155h-70v123h682v-393h-180v270h-160v-508h90v129h129v-391h-129v135h-90v-522l70 2v-121h-412z" />
<glyph unicode="G" horiz-adv-x="911" d="M57 694q0 336 96.5 529.5t264.5 193.5q63 0 113.5 -22.5t113.5 -81.5l27 86h94v-428h-191v170q0 66 -22 106q-31 55 -90 56q-61 0 -87 -63.5t-26 -215.5v-678q0 -135 16.5 -180t67.5 -45q39 0 55.5 40t16.5 136v274h-78v115h422v-115h-84v-571h-82l-27 96 q-102 -113 -223 -112q-184 0 -280.5 181t-96.5 529z" />
<glyph unicode="H" horiz-adv-x="952" d="M51 0v121h70v1155h-70v123h400v-123h-58v-481h158v481h-53v123h395v-123h-68v-1155h68v-121h-395v121h53v553h-158v-553h58v-121h-400z" />
<glyph unicode="I" horiz-adv-x="520" d="M51 0v121h70v1155h-70v123h412v-123h-70v-1155h70v-121h-412z" />
<glyph unicode="J" horiz-adv-x="677" d="M20 250q0 84 35 134t95 50q53 0 83.5 -39t30.5 -108q0 -61 -30.5 -105.5t-73.5 -44.5h-15q14 -39 72 -39q66 0 88 82q16 57 17 180v916h-80v123h422v-123h-68v-860q0 -432 -303 -432q-117 0 -195 75.5t-78 190.5z" />
<glyph unicode="K" horiz-adv-x="933" d="M51 0v121h70v1155h-70v123h412v-123h-70v-440l269 440h-84v123h282v-123h-76l-204 -324l264 -831h63v-121h-401v121h41l-154 553v-553h58v-121h-400z" />
<glyph unicode="L" horiz-adv-x="753" d="M51 0v121h70v1155h-70v123h412v-123h-70v-1155h148v360h180v-481h-670z" />
<glyph unicode="M" horiz-adv-x="1132" d="M51 0v121h70v1155h-70v123h418l94 -676l101 676h409v-123h-67v-1155h67v-121h-409v121h67v876l-160 -997h-180l-149 1016v-895h71v-121h-262z" />
<glyph unicode="N" horiz-adv-x="878" d="M51 0v121h70v1155h-70v123h330l258 -899v776h-70v123h254v-123h-71v-1276h-240l-279 948v-827h66v-121h-248z" />
<glyph unicode="O" horiz-adv-x="849" d="M47 700q0 381 103 555q94 160 274 160q209 0 303 -235q72 -180 72 -480q0 -377 -103 -555q-92 -162 -272 -161q-377 -1 -377 716zM338 297q0 -113 18.5 -156t67.5 -43q47 0 65.5 43t18.5 156v803q0 119 -17.5 159.5t-66.5 40.5t-67.5 -43t-18.5 -157v-803z" />
<glyph unicode="P" horiz-adv-x="866" d="M51 0v121h70v1155h-70v123h408q170 0 260 -86q102 -98 102 -312q0 -213 -78 -305q-84 -100 -282 -100h-68v-475h88v-121h-430zM393 711q98 0 125 34.5t27 151.5v229q0 90 -30 120t-122 30v-565z" />
<glyph unicode="Q" horiz-adv-x="849" d="M47 700q0 371 103 549q94 166 274 166q211 0 303 -225q72 -176 72 -490q0 -295 -58.5 -458.5t-183.5 -227.5l74 -127l-117 -82l-96 179q-371 -1 -371 716zM338 297q0 -57 3 -89t7 -42l90 61l49 -88q8 14 11 29q10 47 10 129v803q0 119 -17.5 159.5t-66.5 40.5t-67.5 -43 t-18.5 -157v-803z" />
<glyph unicode="R" horiz-adv-x="911" d="M51 0v121h70v1155h-70v123h342q250 0 339 -79t89 -302q0 -135 -44 -204t-154 -105q121 -45 155.5 -104.5t34.5 -221.5v-262h66v-121h-340v446q0 117 -23.5 153t-101.5 36h-21v-514h78v-121h-420zM393 750q86 0 116 22.5t30 106.5v247q0 102 -23.5 126t-122.5 24v-526z " />
<glyph unicode="S" horiz-adv-x="778" d="M80 1061q0 152 79 253t199 101q53 0 97.5 -20.5t99.5 -71.5l29 76h96v-402h-172v99q0 199 -121 198q-35 0 -57.5 -26.5t-22.5 -69.5q0 -96 107 -235q197 -258 198 -263q109 -172 109 -335q0 -168 -88 -274.5t-227 -106.5q-55 0 -90 17t-74 62l-39 -63h-115v459h172v-82 q0 -276 139 -277q43 0 70 33t27 84q0 100 -104 239l-204 271q-108 172 -108 334z" />
<glyph unicode="T" horiz-adv-x="790" d="M20 911v488h746v-488h-152v365h-86v-1155h70v-121h-412v121h70v1155h-84v-365h-152z" />
<glyph unicode="U" horiz-adv-x="878" d="M39 1276v123h426v-123h-84v-862q0 -174 27.5 -230.5t113.5 -56.5q82 0 105.5 55.5t23.5 243.5v850h-86v123h273v-123h-68v-842q0 -250 -69.5 -350t-243.5 -100q-180 0 -264 104.5t-84 325.5v862h-70z" />
<glyph unicode="V" horiz-adv-x="817" d="M14 1276v123h420v-123h-65l135 -879l131 879h-68v123h234v-123h-49l-224 -1276h-219l-233 1276h-62z" />
<glyph unicode="W" horiz-adv-x="1249" d="M27 1276v123h403v-123h-51l90 -729l115 852h247l107 -869l102 746h-59v123h238v-123h-50l-188 -1276h-248l-102 766l-117 -766h-235l-187 1276h-65z" />
<glyph unicode="X" horiz-adv-x="856" d="M27 0v121h47l233 516l-215 639h-65v123h422v-123h-72l100 -311l135 311h-63v123h244v-123h-56l-205 -465l228 -690h65v-121h-413v121h65l-119 358l-145 -358h66v-121h-252z" />
<glyph unicode="Y" horiz-adv-x="815" d="M14 1276v123h422v-123h-65l123 -520l127 520h-70v123h248v-123h-64l-184 -729v-426h84v-121h-426v121h76v395l-211 760h-60z" />
<glyph unicode="Z" horiz-adv-x="839" d="M51 0l398 1276h-175v-307h-176v430h682l-409 -1278h219v319h176v-440h-715z" />
<glyph unicode="[" horiz-adv-x="706" d="M180 -322v1733h426v-74q-111 0 -145 -30q-45 -41 -45 -174v-1174q0 -131 38 -169t152 -38v-74h-426z" />
<glyph unicode="\" horiz-adv-x="929" d="M41 1399h125l876 -1706h-124z" />
<glyph unicode="]" horiz-adv-x="706" d="M98 -248q111 0 144 31q45 41 45 176v1174q0 127 -39 165.5t-150 38.5v74h424v-1733h-424v74z" />
<glyph unicode="^" horiz-adv-x="1024" d="M158 791l360 610h33l360 -610h-108l-268 350l-269 -350h-108z" />
<glyph unicode="_" horiz-adv-x="819" d="M0 -143h819v-144h-819v144z" />
<glyph unicode="`" horiz-adv-x="675" d="M123 1583h244l145 -223h-133z" />
<glyph unicode="a" horiz-adv-x="811" d="M47 274q0 297 270 297h99v232q0 72 -20.5 100.5t-71.5 28.5q-35 0 -64 -27q37 -31 51.5 -57.5t14.5 -59.5q0 -55 -37 -94t-90 -39q-55 0 -95.5 44t-40.5 108q0 104 85 166.5t227 62.5q287 0 287 -323v-549q0 -39 22 -39q23 0 53 43l39 -105q-78 -84 -172 -83 q-51 0 -81.5 16t-76.5 67q-35 -47 -68.5 -65t-90.5 -18q-111 0 -175.5 78.5t-64.5 215.5zM289 281q0 -164 69 -164q57 0 58 129v223h-23q-63 0 -83.5 -35.5t-20.5 -152.5z" />
<glyph unicode="b" horiz-adv-x="800" d="M39 0v111h63v1175h-63v113h315v-418q45 33 73 44t60 11q121 0 191 -138t70 -382q0 -537 -252 -536q-92 0 -156 88l-12 -68h-289zM354 334q0 -135 11.5 -175t48.5 -40q41 0 55 49t14 182v391q0 160 -69 160q-35 0 -47.5 -35t-12.5 -135v-397z" />
<glyph unicode="c" horiz-adv-x="706" d="M47 516q0 248 86 383t248 135q115 0 192.5 -77.5t77.5 -194.5q0 -78 -38 -124t-99 -46q-55 0 -94 39t-39 100q0 125 108 125q-18 68 -75 68q-61 0 -84 -94.5t-23 -352.5q0 -199 22.5 -272.5t86.5 -73.5q59 0 85.5 45t41.5 170l110 -20q-25 -180 -99.5 -263t-203.5 -83 q-147 0 -225 137t-78 399z" />
<glyph unicode="d" horiz-adv-x="806" d="M47 481q0 262 65.5 408.5t182.5 146.5q76 0 154 -63v313h-66v113h317v-1288h64v-111h-293l-10 51q-41 -41 -73 -56t-69 -15q-272 -1 -272 501zM307 526q0 -242 17.5 -322.5t58.5 -80.5t53.5 44t12.5 189v346q0 184 -64 185q-39 0 -58.5 -76t-19.5 -285z" />
<glyph unicode="e" horiz-adv-x="747" d="M47 514q0 254 82 388t236 134t237.5 -130t83.5 -369l-2 -58h-377l-2 -114q0 -137 26.5 -190.5t94.5 -53.5q123 0 158 211l110 -17q-16 -156 -101 -244.5t-216 -88.5q-154 0 -242 141t-88 391zM307 580h144v186q0 164 -66 164q-78 0 -78 -191v-159z" />
<glyph unicode="f" horiz-adv-x="491" d="M39 0v111h63v790h-63v111h63v84q0 301 211 301q70 0 117 -43t47 -105q0 -55 -33.5 -91t-85.5 -36q-84 0 -112 107q0 -119 47 -168t160 -49v-111h-99v-790h99v-111h-414z" />
<glyph unicode="g" horiz-adv-x="780" d="M47 -147q0 59 62 96q-53 55 -54 119q0 123 131 241q-63 53 -90.5 126t-27.5 186q0 190 84 301.5t227 111.5q102 0 196 -69q16 20 25 57q-92 16 -92 106q0 47 33.5 81t83.5 34q45 0 77.5 -34.5t32.5 -86.5q0 -100 -104 -221q37 -68 51 -126t14 -144q0 -188 -82 -297 t-227 -109q-74 0 -137 35q-27 -35 -27 -59q0 -63 96 -64q49 4 93.5 9.5t79.5 5.5q113 0 176 -57.5t63 -155.5q0 -262 -385 -263q-141 0 -220 46.5t-79 130.5zM168 -127q0 -86 213 -86q199 0 199 68q0 51 -138 51l-157 -4q-49 0 -68.5 3t-26.5 7q-8 -8 -10 -12 q-12 -17 -12 -27zM322 465q0 -80 11 -105.5t50 -25.5q37 0 50 21.5t13 80.5v361q0 78 -12 102.5t-51 24.5q-37 0 -49 -29t-12 -115v-315z" />
<glyph unicode="h" horiz-adv-x="827" d="M39 0v111h63v1175h-63v113h315v-453q102 90 185 90q72 0 125 -55q68 -70 67 -199v-671h64v-111h-316v721q0 96 -9 124.5t-40 28.5q-76 0 -76 -172v-591h62v-111h-377z" />
<glyph unicode="i" horiz-adv-x="458" d="M39 0v111h63v790h-63v111h315v-901h62v-111h-377zM59 1231q0 68 46.5 114t111.5 46q66 0 112 -46.5t46 -113.5q0 -66 -45 -113t-113 -47q-63 0 -110.5 47t-47.5 113z" />
<glyph unicode="j" horiz-adv-x="487" d="M-170 -160q0 61 37 100.5t94 39.5q53 0 90 -35t37 -90q0 -27 -14 -53l-29 -52q0 -18 21 -18q31 0 46 45t15 217v907h-64v111h322v-998q0 -195 -67.5 -280.5t-223.5 -85.5q-113 0 -188.5 55t-75.5 137zM72 1231q0 68 46 114t111 46q66 0 112 -46.5t46 -113.5 q0 -66 -45 -113t-113 -47q-63 0 -110 47t-47 113z" />
<glyph unicode="k" horiz-adv-x="815" d="M39 0v111h63v1175h-63v113h315v-781l201 283h-80v111h275v-111h-68l-141 -192l209 -598h41v-111h-275l-162 481v-370h58v-111h-373z" />
<glyph unicode="l" horiz-adv-x="471" d="M39 1286v113h328v-1288h63v-111h-379v111h64v1175h-76z" />
<glyph unicode="m" horiz-adv-x="1204" d="M39 0v111h63v790h-63v111h315v-60q100 82 174 82q55 0 96.5 -23.5t77.5 -78.5q72 59 116 80.5t91 21.5q90 0 140 -61q61 -78 61 -240v-622h61v-111h-315v725q0 84 -11 114.5t-44 30.5q-70 0 -70 -157v-602h64v-111h-316v725q0 84 -11 114.5t-44 30.5q-70 0 -70 -145v-614 h62v-111h-377z" />
<glyph unicode="n" horiz-adv-x="827" d="M39 0v111h63v790h-63v111h315v-66q53 49 92 68.5t82 19.5q106 0 154.5 -72.5t48.5 -201.5v-649h64v-111h-316v721q0 94 -9 122.5t-40 28.5q-43 0 -59.5 -37.5t-16.5 -132.5v-591h62v-111h-377z" />
<glyph unicode="o" horiz-adv-x="786" d="M47 508q0 258 87 392t255 134q342 0 342 -526q0 -528 -342 -528q-168 0 -255 134t-87 394zM315 242q0 -98 16.5 -132t57.5 -34q43 0 59.5 34.5t16.5 131.5v528q0 98 -16.5 132t-59.5 34q-74 0 -74 -145v-549z" />
<glyph unicode="p" horiz-adv-x="804" d="M39 -197h63v1098h-63v111h299l12 -60q53 82 133 82q270 0 271 -516q0 -246 -65.5 -392t-178.5 -146q-41 0 -74 12t-82 49v-238h68v-110h-383v110zM354 508q0 -258 13.5 -326.5t62.5 -68.5q47 0 64.5 85t17.5 353q0 197 -16.5 268.5t-63.5 71.5q-49 0 -63.5 -69.5 t-14.5 -313.5z" />
<glyph unicode="q" horiz-adv-x="804" d="M47 530q0 246 69.5 375t202.5 129q43 0 72 -18.5t60 -63.5l18 60h293v-111h-64v-1098h64v-110h-383v110h67v238q-84 -61 -145 -61q-123 0 -188.5 142t-65.5 408zM291 551q0 -266 16.5 -352t63.5 -86q76 0 75 235v402q0 70 -16 103.5t-57 33.5q-45 0 -63.5 -73t-18.5 -263 z" />
<glyph unicode="r" horiz-adv-x="667" d="M39 0v111h63v790h-63v111h305l8 -62q72 84 150 84q68 0 108.5 -49t40.5 -129t-34.5 -127t-94.5 -47q-51 0 -82.5 34t-31.5 93q0 53 28 113q-51 -47 -66.5 -91.5t-15.5 -136.5v-583h72v-111h-387z" />
<glyph unicode="s" horiz-adv-x="671" d="M66 741q0 127 70.5 210t176.5 83q61 0 150 -51l18 29h105v-301h-152v20q0 193 -94 193q-29 0 -51.5 -27t-22.5 -66q0 -74 92 -161q170 -162 174 -168q96 -117 97 -242q0 -117 -74 -198.5t-178 -81.5q-80 0 -166 59l-12 -39h-111v328h143q0 -135 22.5 -183.5t82.5 -48.5 q80 0 80 86q0 68 -90 154q-154 147 -168 166q-92 112 -92 239z" />
<glyph unicode="t" horiz-adv-x="489" d="M25 901v111h79v245h252v-245h97v-111h-97v-690q0 -53 33 -53q18 0 45 35l39 -82q-66 -121 -180 -121q-98 0 -143.5 67.5t-45.5 214.5v629h-79z" />
<glyph unicode="u" horiz-adv-x="827" d="M29 901v111h315v-762q0 -63 10.5 -86t38.5 -23q76 0 76 168v592h-61v111h313v-901h63v-111h-311l-4 82q-51 -59 -89 -80.5t-91 -21.5q-82 0 -133 55q-63 70 -64 215v651h-63z" />
<glyph unicode="v" horiz-adv-x="720" d="M14 901v111h377v-111h-51l84 -565l106 565h-53v111h228v-111h-58l-170 -901h-235l-166 901h-62z" />
<glyph unicode="w" horiz-adv-x="1079" d="M27 901v111h372v-111h-63l65 -487l113 598h191l98 -588l84 477h-64v111h226v-111h-45l-175 -901h-202l-95 545l-96 -545h-211l-153 901h-45z" />
<glyph unicode="x" horiz-adv-x="790" d="M27 0v111h65l187 338l-187 452h-65v111h405v-111h-67l81 -182l99 182h-43v111h221v-111h-43l-182 -315l202 -475h58v-111h-393v111h53l-84 200l-121 -200h55v-111h-241z" />
<glyph unicode="y" horiz-adv-x="720" d="M14 901v111h387v-111h-51l90 -385l88 385h-57v111h234v-111h-62l-227 -940q-35 -152 -84 -217.5t-129 -65.5q-63 0 -103.5 42t-40.5 108q0 70 35 115t90 45q94 0 95 -127l40 139l-245 901h-60z" />
<glyph unicode="z" horiz-adv-x="710" d="M39 0v70l336 831h-154v-239h-151v350h598v-84l-340 -817h180v286h160v-397h-629z" />
<glyph unicode="{" horiz-adv-x="581" d="M61 553v49q66 6 88.5 43t22.5 129v328q0 158 51 235q59 88 189 88h141v-79q-102 0 -139 -53.5t-37 -205.5v-231q0 -137 -25 -188q-31 -63 -129 -88q90 -23 121 -79.5t31 -178.5v-347q0 -121 39 -173t139 -52v-82h-125q-129 0 -182 49q-74 68 -74 265v385 q0 115 -19.5 150.5t-91.5 35.5z" />
<glyph unicode="|" horiz-adv-x="1040" d="M424 -350v1749h190v-1749h-190z" />
<glyph unicode="}" horiz-adv-x="581" d="M61 -250q100 0 139.5 53.5t39.5 171.5v347q0 121 30.5 177t120.5 74q-96 29 -124.5 88.5t-28.5 194.5v231q0 154 -35 206.5t-142 52.5v79h142q129 0 184 -82.5t55 -240.5v-328q0 -96 21.5 -131t89.5 -41v-49q-68 0 -89.5 -38t-21.5 -148v-385q0 -195 -73 -263 q-55 -51 -183 -51h-125v82z" />
<glyph unicode="~" horiz-adv-x="1089" d="M125 713q125 229 274 229q43 0 123 -24q186 -57 209 -58q49 0 90 22.5t82 73.5l45 -26q-55 -113 -125.5 -171.5t-148.5 -58.5q-45 0 -173 42t-169 42q-53 0 -92 -26q-25 -18 -72 -72z" />
<glyph unicode="&#xa1;" horiz-adv-x="587" d="M119 -63q0 43 4 82.5t6 56.5l113 700h104l109 -700q12 -66 12 -139q0 -90 -48 -144.5t-126 -54.5q-76 0 -125 55.5t-49 143.5zM150 997q0 72 41.5 122t101.5 50q59 0 100 -49t41 -123q0 -70 -41 -121t-100 -51t-101 50t-42 122z" />
<glyph unicode="&#xa2;" d="M127 676q0 442 268 510v127h74v-121q115 0 187.5 -77t72.5 -195q0 -76 -37 -123t-98 -47q-55 0 -94 40.5t-39 100.5q0 123 106 123q-14 70 -73 69q-63 0 -86 -89t-23 -357q0 -201 22.5 -273.5t88.5 -72.5q59 0 85.5 45t41.5 170l110 -23q-33 -176 -90 -250.5t-174 -91.5 v-141h-74v141q-268 46 -268 535z" />
<glyph unicode="&#xa3;" d="M68 1053q0 166 110.5 276.5t278.5 110.5q133 0 227 -80t94 -193q0 -66 -39 -106.5t-104 -40.5q-53 0 -92 39t-39 94q0 59 57 119q-43 68 -110 67q-63 0 -107.5 -54t-44.5 -134q0 -63 51 -137q127 -180 142 -266h184v-97h-152l8 -106q0 -68 -7 -117t-33 -135 q47 -27 83 -27q68 0 94.5 40t26.5 145h95v-80q0 -385 -224 -385q-51 0 -84.5 20.5t-85.5 81.5q-80 -102 -164 -102q-74 0 -116.5 59t-42.5 160q0 219 155 219q37 0 68 -14.5t100 -63.5q10 29 11 49q0 47 -34 109.5t-106 146.5h-159v97h69q-110 158 -110 305zM174 217 q0 -88 62 -88q20 0 51.5 19.5t44.5 37.5q-37 78 -54.5 99.5t-48.5 21.5q-55 0 -55 -90z" />
<glyph unicode="&#xa4;" horiz-adv-x="1386" d="M74 1237l98 98l201 -202q51 33 86 49q111 49 229 49q102 0 217 -49q37 -16 96 -52l207 207l99 -96l-209 -215q31 -51 45 -86q45 -109 45 -223q0 -123 -45 -228q-14 -35 -47 -81l207 -211l-99 -99l-203 205q-53 -33 -90 -49q-117 -51 -223 -51q-113 0 -223 49 q-37 16 -88 49l-203 -205l-98 99l203 202q-33 47 -50 82q-51 109 -51 226q0 111 47 231q14 41 49 100zM391 717q0 -125 86 -211t211 -86q123 0 209 86t86 211q0 123 -87 210t-208 87q-123 0 -210 -87t-87 -210z" />
<glyph unicode="&#xa5;" d="M74 1276v123h381v-123h-58l111 -522l110 522h-59v123h223v-123h-59l-105 -473h132v-96h-154l-21 -84h175v-97h-191v-405h74v-121h-383v121h69v405h-213v97h187l-21 84h-166v96h140l-117 473h-55z" />
<glyph unicode="&#xa6;" horiz-adv-x="1040" d="M424 322h190v-672h-190v672zM424 662v737h190v-737h-190z" />
<glyph unicode="&#xa7;" horiz-adv-x="937" d="M90 524q0 84 45 148.5t158 134.5q-90 86 -127 157.5t-37 159.5q0 123 92 205t234 82q150 0 236.5 -89t86.5 -247h-229q0 72 -25.5 115t-77.5 43q-37 0 -63.5 -26.5t-26.5 -65.5q0 -90 125 -180l234 -164q127 -109 127 -234q0 -84 -47 -148.5t-156 -131.5 q166 -152 166 -308q0 -127 -94.5 -215t-231.5 -88q-150 0 -233 78q-94 86 -94 258h225q0 -164 94 -164q39 0 63.5 33t24.5 88q0 84 -121 174l-225 162q-123 106 -123 223zM303 594q0 -53 43 -96t195 -144q90 74 90 142q0 45 -51.5 94t-202.5 145q-41 -41 -57.5 -74.5 t-16.5 -66.5z" />
<glyph unicode="&#xa8;" horiz-adv-x="675" d="M111 1483q0 39 27.5 66.5t68.5 27.5q39 0 66.5 -27.5t27.5 -66.5q0 -41 -27.5 -69t-66.5 -28q-41 0 -68.5 28t-27.5 69zM383 1483q0 39 27.5 66.5t68.5 27.5q39 0 66.5 -27.5t27.5 -66.5q0 -41 -27.5 -69t-66.5 -28q-41 0 -68.5 28t-27.5 69z" />
<glyph unicode="&#xa9;" horiz-adv-x="1671" d="M115 700q0 301 210 513t506 212q297 0 508 -213t211 -512q0 -303 -210 -515t-509 -212q-297 0 -506.5 212t-209.5 515zM197 700q0 -266 186 -454.5t448 -188.5q266 0 451.5 187.5t185.5 455.5q0 264 -186 452.5t-451 188.5q-264 0 -449 -187.5t-185 -453.5zM606 709 q0 207 52.5 306t160.5 99q55 0 101 -43l20 33h66v-273h-117v80q0 70 -10.5 96.5t-40.5 26.5q-31 0 -39 -29.5t-8 -148.5v-297q0 -104 11 -139t46 -35q43 0 64.5 50t21.5 165h72v-43q0 -123 -47.5 -191.5t-133.5 -68.5q-109 0 -164 104.5t-55 307.5z" />
<glyph unicode="&#xaa;" horiz-adv-x="557" d="M57 625v73h449v-73h-449zM78 989q0 80 39 123t112 43h50v115q0 63 -48 63q-12 0 -20 -8q31 -29 31 -63q0 -29 -22.5 -53.5t-53.5 -24.5q-33 0 -55.5 24.5t-22.5 61.5q0 59 46 95t128 36q164 0 164 -178v-293l8 -12q6 4 8 6q10 8 21 24l24 -71q-45 -51 -102 -52 q-27 0 -44 8.5t-40 32.5q-31 -41 -88 -41q-63 0 -99 44t-36 120zM221 993q0 -80 33 -80q25 0 25 62v110q-39 0 -48.5 -15.5t-9.5 -76.5z" />
<glyph unicode="&#xab;" horiz-adv-x="704" d="M61 500l218 372h137l-215 -372l215 -375h-137zM256 500l217 372h137l-217 -372l217 -375h-137z" />
<glyph unicode="&#xac;" horiz-adv-x="2457" d="M80 -170v1567h2300v-1567h-2300zM127 -88v-35h317v35h-34q-39 0 -52 4q-33 12 -32 80l2 328q35 0 71.5 -1t73.5 -1l10 51l-4 4h-151v74v51q0 66 17 102.5t73 36.5q35 0 59 -18l23 -111h59q55 164 117 319q45 117 133 318q18 -53 119 -315q76 -201 110 -322h62 q31 125 110 406q94 328 123 370q14 8 60 8v37h-244v-37q29 0 65.5 -5t36.5 -21q0 -51 -77 -316l-82 -266l-238 651h-29l-250 -645l-65 283q-33 145 -57 268q-8 12 -7 21q0 20 31 25t45 5h25v37h-293v-37q53 0 66.5 -13t25.5 -73q20 -88 45 -180q57 -215 66 -305 q-47 0 -120 -66.5t-95 -117.5q-8 -20 -11.5 -43t-3.5 -62v-61l-82 -41v-21l82 9l2 -314q0 -66 -17 -81t-85 -15zM440 150q0 -121 70 -203t188 -82q131 0 215 84t84 215q0 115 -73.5 186.5t-190.5 71.5q-125 0 -209 -73.5t-84 -198.5zM553 188q0 80 39 139.5t115 59.5 q98 0 145 -92q37 -72 37 -180q0 -84 -33 -142q-41 -70 -121 -69q-94 0 -143 100q-39 78 -39 184zM973 -88v-35h295l-2 35q-61 0 -81 17.5t-20 64.5q0 12 2 48t2 60v58q0 94 21 131q33 57 129 57q78 0 108 -47q25 -39 25 -127v-111v-24q0 -90 -8 -162h198v35q-59 0 -75.5 10 t-16.5 47q2 41 2 68v188q0 197 -190 197q-51 0 -102.5 -31t-88.5 -78l3 56q0 33 -11 53q-47 -20 -94 -32.5t-96 -12.5v-35q23 2 35 2q27 0 44 -7t17 -28v-352q0 -23 -10 -35t-43 -12q-29 2 -43 2zM1311 1090q0 -178 236.5 -201t236.5 -154q0 -86 -65.5 -131t-155.5 -45 q-53 0 -107 16q-72 23 -86 60l-2 98h-39v-67v-29q0 -41 -6 -82q104 -43 217 -43q55 0 105 12q10 -82 10 -147q-39 -23 -92 -39v-25h92v-321q0 -127 131 -127q16 0 36.5 4t37.5 8l55 70l-17 22q-27 -31 -65 -30q-39 0 -60.5 28.5t-21.5 108.5v26v222q16 0 52 2t52 2 q31 0 60 -6l12 55h-176q0 49 2 99t8 95q57 47 86 91q37 55 37 118q0 180 -235.5 200.5t-235.5 152.5q0 78 55.5 120.5t137.5 42.5q39 0 90 -15t78 -38q10 -23 10 -69v-41h37q0 61 3 87.5t15 75.5q-109 43 -227 43q-127 0 -209 -59q-92 -67 -92 -190zM1858 522h327v37h-33 q-43 0 -59 10.5t-16 55.5v512q0 20 -1 40.5t-1 39.5q0 49 19.5 64t90.5 15v37h-327v-37q76 0 92 -14t16 -76v-49v-528q0 -45 -19.5 -57.5t-60.5 -12.5h-28v-37zM1927 254q0 -109 159 -139.5t159 -104.5q0 -51 -37 -78.5t-90 -27.5q-86 0 -117 30.5t-31 114.5h-33 q0 -23 -4 -77t-4 -60q0 -20 46 -33.5t122 -13.5q96 0 162 45q78 53 78 145q0 102 -160 135t-160 103q0 43 32 68.5t77 25.5q33 0 63.5 -15.5t55.5 -43.5q6 -29 8 -35q2 -12 2 -37l33 -2q0 35 6 77t8 64q-86 27 -164 27q-90 0 -145 -37q-66 -45 -66 -131z" />
<glyph unicode="&#xad;" d="M111 623v153h634v-153h-634z" />
<glyph unicode="&#xae;" horiz-adv-x="1671" d="M115 700q0 301 210 513t506 212q297 0 508 -213t211 -512q0 -303 -210 -515t-509 -212q-297 0 -506.5 212t-209.5 515zM197 700q0 -266 186 -454.5t448 -188.5q266 0 451.5 187.5t185.5 455.5q0 264 -186 452.5t-451 188.5q-264 0 -449 -187.5t-185 -453.5zM586 307v82 h41v633h-41v82h207q147 0 199 -44t52 -173q0 -139 -100 -176q57 -20 76.5 -58.5t19.5 -122.5v-141h39v-82h-211v258q0 61 -12 80t-57 19v-275h43v-82h-256zM799 741q47 0 58 11.5t11 54.5v139q0 49 -11 62.5t-58 13.5v-281z" />
<glyph unicode="&#xaf;" horiz-adv-x="1040" d="M285 1165v133h469v-133h-469z" />
<glyph unicode="&#xb0;" d="M174 1137q0 106 76 184t180 78q102 0 178 -78t76 -186q0 -109 -73.5 -185t-184.5 -76q-104 0 -178 76t-74 187zM281 1133q0 -59 43 -104.5t104 -45.5q66 0 108 44t42 110q0 61 -43 106t-105 45q-63 0 -106 -44.5t-43 -110.5z" />
<glyph unicode="&#xb1;" d="M111 63v152h634v-152h-634zM111 623v153h235v244h164v-244h235v-153h-235v-246h-164v246h-235z" />
<glyph unicode="&#xb2;" horiz-adv-x="458" d="M51 1315q0 70 42 116t106 46q68 0 117 -55.5t49 -133.5q0 -129 -132 -219l-45 -29q-72 -49 -71 -131h188v64h57v-203h-296v117q0 59 13 103t66 102l45 49q23 20 31 51t8 98q0 125 -63 125q-29 0 -47.5 -20.5t-18.5 -48.5v-19q23 14 37 14q45 0 45 -65q0 -35 -16 -55.5 t-43 -20.5q-72 0 -72 115z" />
<glyph unicode="&#xb3;" horiz-adv-x="458" d="M37 903q0 39 20.5 63.5t53.5 24.5q70 0 69 -67q0 -45 -51 -72q25 -33 55 -33q59 0 60 133q0 102 -11.5 123t-66.5 21v61q45 0 55 23.5t10 128.5q0 61 -11 82.5t-44 21.5q-35 0 -55 -35q70 -12 69 -75q0 -31 -16 -51.5t-45 -20.5q-37 0 -59.5 28.5t-22.5 73.5 q0 59 46 101.5t112 42.5q78 0 124 -50.5t46 -138.5q0 -55 -18.5 -88t-73.5 -72q111 -41 110 -167q0 -86 -54 -142.5t-138 -56.5q-68 0 -116 41t-48 100z" />
<glyph unicode="&#xb4;" horiz-adv-x="675" d="M203 1368l145 223h244l-254 -223h-135z" />
<glyph unicode="&#xb5;" d="M66 901v111h315v-721q0 -92 9 -121t42 -29q74 0 74 168v592h-60v111h314v-901h61v-111h-311l-4 82q-49 -57 -88 -79.5t-92 -22.5q-27 0 -41.5 4t-26.5 8l18 -121q18 -129 19 -168q0 -51 -27.5 -83t-72.5 -32q-47 0 -77 34t-30 87q0 18 31 211q16 102 16 156l-6 194v631 h-63z" />
<glyph unicode="&#xb6;" horiz-adv-x="976" d="M51 1001q0 223 109 316q96 82 315 82h438v-123h-69v-1462h69v-121h-198v1583h-107v-1583h-217v121h88v782h-86q-180 0 -261 106t-81 299zM328 897q0 -115 25.5 -150.5t105.5 -35.5h20v565q-92 0 -121.5 -29.5t-29.5 -120.5v-229z" />
<glyph unicode="&#xb7;" horiz-adv-x="509" d="M121 508q0 49 34.5 86t86.5 37q51 0 87 -36t36 -87t-36 -87t-87 -36t-86 35t-35 88z" />
<glyph unicode="&#x2219;" horiz-adv-x="509" d="M121 508q0 49 34.5 86t86.5 37q51 0 87 -36t36 -87t-36 -87t-87 -36t-86 35t-35 88z" />
<glyph unicode="&#xb8;" horiz-adv-x="675" d="M180 -215h101q6 -53 47 -53q43 0 43 55q0 76 -76 76l-33 -2v139h86v-74q127 0 127 -121q0 -70 -41 -108.5t-112 -38.5q-142 0 -142 127z" />
<glyph unicode="&#xb9;" horiz-adv-x="368" d="M68 1350l84 145h104v-639h35v-61h-211v61h37v465l-25 -21z" />
<glyph unicode="&#xba;" horiz-adv-x="557" d="M51 625v73h449v-73h-449zM86 1112q0 289 193 289q190 0 190 -289q0 -285 -190 -285q-193 0 -193 285zM242 985q0 -59 6 -75.5t31 -16.5q20 0 26 15.5t6 76.5v258q0 66 -4 78q-6 14 -28 14q-25 0 -31 -14t-6 -76v-260z" />
<glyph unicode="&#xbb;" horiz-adv-x="704" d="M90 125l215 375l-215 372h137l217 -372l-217 -375h-137zM283 125l217 375l-217 372h139l215 -372l-215 -375h-139z" />
<glyph unicode="&#xbc;" horiz-adv-x="1138" d="M109 1350l84 145h104v-639h35v-61h-211v61h37v465l-25 -21zM215 -8l526 1343h129l-524 -1343h-131zM664 260l186 440h121v-436h39v-67h-39v-136h39v-63h-215v63h43v136h-154zM731 264h107v275z" />
<glyph unicode="&#xbd;" horiz-adv-x="1196" d="M109 1350l84 145h104v-639h35v-61h-211v61h37v465l-25 -21zM215 -8l526 1343h129l-524 -1343h-131zM739 545q0 70 42 116t106 46q68 0 117 -55.5t49 -133.5q0 -129 -131 -219l-45 -29q-72 -49 -72 -131h188v64h58v-203h-297v117q0 59 13 103t67 102l45 49q23 20 31 51 t8 98q0 125 -64 125q-29 0 -47.5 -20.5t-18.5 -49.5v-18q23 14 37 14q45 0 45 -65q0 -35 -16 -55.5t-43 -20.5q-72 0 -72 115z" />
<glyph unicode="&#xbe;" horiz-adv-x="1220" d="M37 903q0 39 20.5 63.5t53.5 24.5q70 0 69 -67q0 -45 -51 -72q25 -33 55 -33q59 0 60 133q0 102 -11.5 123t-66.5 21v61q45 0 55 23.5t10 128.5q0 61 -11 82.5t-44 21.5q-35 0 -55 -35q70 -12 69 -75q0 -31 -16 -51.5t-45 -20.5q-37 0 -59.5 28.5t-22.5 73.5 q0 59 46 101.5t112 42.5q78 0 124 -50.5t46 -138.5q0 -55 -18.5 -88t-73.5 -72q111 -41 110 -167q0 -86 -54 -142.5t-138 -56.5q-68 0 -116 41t-48 100zM215 -8l526 1343h129l-524 -1343h-131zM713 266l186 441h121v-437h39v-67h-39v-135h39v-64h-215v64h43v135h-154z M780 270h107v275z" />
<glyph unicode="&#xbf;" horiz-adv-x="825" d="M61 84q0 152 93 268l174 185q96 113 96 239h119q0 -182 -107.5 -370.5t-107.5 -296.5q0 -113 34.5 -175.5t98.5 -62.5q84 0 106 88q-6 -4 -8 -4q-23 -10 -43 -10q-49 0 -79.5 36.5t-30.5 94.5q0 70 38.5 112.5t104.5 42.5q72 0 114 -54t42 -146q0 -123 -86.5 -207 t-212.5 -84q-152 0 -248.5 96t-96.5 248zM330 1001q0 72 42 122.5t101 50.5t100 -49.5t41 -123.5q0 -70 -41 -121t-100 -51t-101 50t-42 122z" />
<glyph unicode="&#xc0;" horiz-adv-x="835" d="M14 0v121h58l149 1278h334l197 -1278h67v-121h-420v121h78l-47 299h-209l-35 -299h78v-121h-250zM238 539h172l-91 653zM123 1730h244l145 -223h-133z" />
<glyph unicode="&#xc1;" horiz-adv-x="835" d="M14 0v121h58l149 1278h334l197 -1278h67v-121h-420v121h78l-47 299h-209l-35 -299h78v-121h-250zM238 539h172l-91 653zM271 1511l145 223h244l-254 -223h-135z" />
<glyph unicode="&#xc2;" horiz-adv-x="835" d="M14 0v121h58l149 1278h334l197 -1278h67v-121h-420v121h78l-47 299h-209l-35 -299h78v-121h-250zM238 539h172l-91 653zM153 1508l158 225h174l137 -225h-153l-78 116l-78 -116h-160z" />
<glyph unicode="&#xc3;" horiz-adv-x="835" d="M14 0v121h58l149 1278h334l197 -1278h67v-121h-420v121h78l-47 299h-209l-35 -299h78v-121h-250zM238 539h172l-91 653zM150 1530q12 76 64.5 122t123.5 46q37 0 94 -13l121 -28q20 0 49 39h72q-10 -72 -62.5 -117t-123.5 -45q-27 0 -111 18.5t-98 18.5q-43 0 -55 -41 h-74z" />
<glyph unicode="&#xc4;" horiz-adv-x="835" d="M14 0v121h58l149 1278h334l197 -1278h67v-121h-420v121h78l-47 299h-209l-35 -299h78v-121h-250zM238 539h172l-91 653zM160 1616q0 39 27.5 66.5t68.5 27.5q39 0 66.5 -27.5t27.5 -66.5q0 -41 -27.5 -69t-66.5 -28q-41 0 -68.5 28t-27.5 69zM432 1616q0 39 27.5 66.5 t68.5 27.5q39 0 66.5 -27.5t27.5 -66.5q0 -41 -27.5 -69t-66.5 -28q-41 0 -68.5 28t-27.5 69z" />
<glyph unicode="&#xc5;" horiz-adv-x="835" d="M14 0v121h58l149 1278h334l197 -1278h67v-121h-420v121h78l-47 299h-209l-35 -299h78v-121h-250zM238 539h172l-91 653zM233 1636q0 66 45 113t113 47q61 0 106 -47t45 -111q0 -63 -44 -107t-107 -44q-68 0 -113 43t-45 106zM315 1640q0 -72 72 -71q74 0 74 67 q0 31 -24 54.5t-52 23.5q-31 0 -50.5 -21.5t-19.5 -52.5z" />
<glyph unicode="&#xc6;" horiz-adv-x="1159" d="M14 0v121h68l328 1155h-64v123h758v-385h-178v262h-162v-504h76v135h141v-393h-141v139h-76v-532h162v291h178v-412h-682v121h67v299h-208l-86 -299h67v-121h-248zM311 539h178v641z" />
<glyph unicode="&#xc7;" horiz-adv-x="788" d="M57 705q0 367 86 539.5t269 172.5q57 0 95 -18.5t87 -69.5l35 70h94v-463h-176v145q0 131 -24.5 174t-78.5 43q-55 0 -74.5 -50t-19.5 -220v-594q0 -201 33 -270q25 -51 82 -51q82 0 120 87t38 296h100l2 -62q0 -197 -73.5 -317.5t-200.5 -132.5v-58q127 0 127 -121 q0 -70 -41 -108.5t-113 -38.5q-141 0 -141 127h100q6 -53 47 -53q43 0 43 55q0 76 -76 76l-32 -2v127q-308 55 -308 717z" />
<glyph unicode="&#xc8;" horiz-adv-x="796" d="M51 0v121h70v1155h-70v123h684v-385h-180v262h-162v-504h80v135h141v-393h-141v139h-80v-532h162v291h180v-412h-684zM135 1743h244l145 -223h-133z" />
<glyph unicode="&#xc9;" horiz-adv-x="796" d="M51 0v121h70v1155h-70v123h684v-385h-180v262h-162v-504h80v135h141v-393h-141v139h-80v-532h162v291h180v-412h-684zM285 1524l145 223h244l-254 -223h-135z" />
<glyph unicode="&#xca;" horiz-adv-x="796" d="M51 0v121h70v1155h-70v123h684v-385h-180v262h-162v-504h80v135h141v-393h-141v139h-80v-532h162v291h180v-412h-684zM164 1520l158 225h174l137 -225h-153l-78 116l-78 -116h-160z" />
<glyph unicode="&#xcb;" horiz-adv-x="796" d="M51 0v121h70v1155h-70v123h684v-385h-180v262h-162v-504h80v135h141v-393h-141v139h-80v-532h162v291h180v-412h-684zM187 1633q0 39 27.5 66.5t68.5 27.5q39 0 66.5 -27.5t27.5 -66.5q0 -41 -27.5 -69t-66.5 -28q-41 0 -68.5 28t-27.5 69zM459 1633q0 39 27.5 66.5 t68.5 27.5q39 0 66.5 -27.5t27.5 -66.5q0 -41 -27.5 -69t-66.5 -28q-41 0 -68.5 28t-27.5 69z" />
<glyph unicode="&#xcc;" horiz-adv-x="520" d="M51 0v121h70v1155h-70v123h412v-123h-70v-1155h70v-121h-412zM-24 1745h244l145 -223h-133z" />
<glyph unicode="&#xcd;" horiz-adv-x="520" d="M51 0v121h70v1155h-70v123h412v-123h-70v-1155h70v-121h-412zM129 1530l145 223h244l-254 -223h-135z" />
<glyph unicode="&#xce;" horiz-adv-x="520" d="M35 1530l158 225h174l137 -225h-154l-78 117l-77 -117h-160zM55 0v121h70v1155h-70v123h412v-123h-70v-1155h70v-121h-412z" />
<glyph unicode="&#xcf;" horiz-adv-x="520" d="M35 1626q0 39 27.5 66.5t68.5 27.5q39 0 66.5 -27.5t27.5 -66.5q0 -41 -27.5 -68.5t-66.5 -27.5q-41 0 -68.5 27.5t-27.5 68.5zM63 0v121h70v1155h-70v123h412v-123h-69v-1155h69v-121h-412zM307 1626q0 39 27.5 66.5t68.5 27.5q39 0 67 -27.5t28 -66.5q0 -41 -28 -68.5 t-67 -27.5q-41 0 -68.5 27.5t-27.5 68.5z" />
<glyph unicode="&#xd0;" horiz-adv-x="917" d="M51 0v121h70v538h-70v113h70v504h-70v123h389q225 0 326 -180q90 -162 90 -482q0 -391 -103.5 -564t-334.5 -173h-367zM393 121q119 0 145.5 87t26.5 527q0 371 -25.5 456t-146.5 85v-504h84v-113h-84v-538z" />
<glyph unicode="&#xd1;" horiz-adv-x="878" d="M51 0v121h70v1155h-70v123h330l258 -899v776h-70v123h254v-123h-71v-1276h-240l-279 948v-827h66v-121h-248zM129 1550q12 76 64.5 122t123.5 46q37 0 94 -13l121 -28q20 0 49 39h72q-10 -72 -62.5 -117t-123.5 -45q-27 0 -111 18.5t-98 18.5q-43 0 -55 -41h-74z" />
<glyph unicode="&#xd2;" horiz-adv-x="849" d="M47 700q0 381 103 555q94 160 274 160q209 0 303 -235q72 -180 72 -480q0 -377 -103 -555q-92 -162 -272 -161q-377 -1 -377 716zM338 297q0 -113 18.5 -156t67.5 -43q47 0 65.5 43t18.5 156v803q0 119 -17.5 159.5t-66.5 40.5t-67.5 -43t-18.5 -157v-803zM121 1745h244 l145 -223h-133z" />
<glyph unicode="&#xd3;" horiz-adv-x="849" d="M47 700q0 381 103 555q94 160 274 160q209 0 303 -235q72 -180 72 -480q0 -377 -103 -555q-92 -162 -272 -161q-377 -1 -377 716zM338 297q0 -113 18.5 -156t67.5 -43q47 0 65.5 43t18.5 156v803q0 119 -17.5 159.5t-66.5 40.5t-67.5 -43t-18.5 -157v-803zM353 1536 l145 223h244l-254 -223h-135z" />
<glyph unicode="&#xd4;" horiz-adv-x="849" d="M47 700q0 381 103 555q94 160 274 160q209 0 303 -235q72 -180 72 -480q0 -377 -103 -555q-92 -162 -272 -161q-377 -1 -377 716zM338 297q0 -113 18.5 -156t67.5 -43q47 0 65.5 43t18.5 156v803q0 119 -17.5 159.5t-66.5 40.5t-67.5 -43t-18.5 -157v-803zM196 1520 l158 225h174l137 -225h-153l-78 116l-78 -116h-160z" />
<glyph unicode="&#xd5;" horiz-adv-x="849" d="M47 700q0 381 103 555q94 160 274 160q209 0 303 -235q72 -180 72 -480q0 -377 -103 -555q-92 -162 -272 -161q-377 -1 -377 716zM338 297q0 -113 18.5 -156t67.5 -43q47 0 65.5 43t18.5 156v803q0 119 -17.5 159.5t-66.5 40.5t-67.5 -43t-18.5 -157v-803zM176 1538 q12 76 64.5 122t123.5 46q37 0 94 -13l121 -28q20 0 49 39h72q-10 -72 -62.5 -117t-123.5 -45q-27 0 -111 18.5t-98 18.5q-43 0 -55 -41h-74z" />
<glyph unicode="&#xd6;" horiz-adv-x="849" d="M47 700q0 381 103 555q94 160 274 160q209 0 303 -235q72 -180 72 -480q0 -377 -103 -555q-92 -162 -272 -161q-377 -1 -377 716zM338 297q0 -113 18.5 -156t67.5 -43q47 0 65.5 43t18.5 156v803q0 119 -17.5 159.5t-66.5 40.5t-67.5 -43t-18.5 -157v-803zM197 1624 q0 39 27.5 66.5t68.5 27.5q39 0 66.5 -27.5t27.5 -66.5q0 -41 -27.5 -69t-66.5 -28q-41 0 -68.5 28t-27.5 69zM469 1624q0 39 27.5 66.5t68.5 27.5q39 0 66.5 -27.5t27.5 -66.5q0 -41 -27.5 -69t-66.5 -28q-41 0 -68.5 28t-27.5 69z" />
<glyph unicode="&#xd7;" horiz-adv-x="845" d="M127 868l109 111l188 -188l184 186l109 -111l-185 -184l187 -186l-109 -111l-186 188l-186 -186l-109 111l184 184z" />
<glyph unicode="&#xd8;" horiz-adv-x="849" d="M47 700q0 373 103 551q94 164 274 164q49 0 104 -16l13 53l77 -27l-14 -67q195 -145 195 -658q0 -371 -103 -550q-94 -166 -272 -166q-53 0 -107 18l-12 -57h-82l19 94q-195 149 -195 661zM338 498l158 743q-25 59 -72 59q-49 0 -67.5 -43t-18.5 -157v-602zM350 158 q25 -59 74 -60q47 0 65.5 43t18.5 156v604z" />
<glyph unicode="&#xd9;" horiz-adv-x="1011" d="M27 1276v123h426v-123h-84v-862q0 -174 27.5 -230.5t113.5 -56.5q82 0 105.5 55.5t23.5 243.5v850h-86v123h272v-123h-67v-842q0 -250 -70 -350t-244 -100q-180 0 -264 104.5t-84 325.5v862h-69zM178 1757h244l145 -223h-133z" />
<glyph unicode="&#xda;" horiz-adv-x="878" d="M39 1276v123h426v-123h-84v-862q0 -174 27.5 -230.5t113.5 -56.5q82 0 105.5 55.5t23.5 243.5v850h-86v123h273v-123h-68v-842q0 -250 -69.5 -350t-243.5 -100q-180 0 -264 104.5t-84 325.5v862h-70zM385 1520l145 223h244l-254 -223h-135z" />
<glyph unicode="&#xdb;" horiz-adv-x="878" d="M39 1276v123h426v-123h-84v-862q0 -174 27.5 -230.5t113.5 -56.5q82 0 105.5 55.5t23.5 243.5v850h-86v123h273v-123h-68v-842q0 -250 -69.5 -350t-243.5 -100q-180 0 -264 104.5t-84 325.5v862h-70zM258 1518l158 225h174l137 -225h-153l-78 116l-78 -116h-160z" />
<glyph unicode="&#xdc;" horiz-adv-x="878" d="M39 1276v123h426v-123h-84v-862q0 -174 27.5 -230.5t113.5 -56.5q82 0 105.5 55.5t23.5 243.5v850h-86v123h273v-123h-68v-842q0 -250 -69.5 -350t-243.5 -100q-180 0 -264 104.5t-84 325.5v862h-70zM228 1633q0 39 27.5 66.5t68.5 27.5q39 0 66.5 -27.5t27.5 -66.5 q0 -41 -27.5 -69t-66.5 -28q-41 0 -68.5 28t-27.5 69zM500 1633q0 39 27.5 66.5t68.5 27.5q39 0 66.5 -27.5t27.5 -66.5q0 -41 -27.5 -69t-66.5 -28q-41 0 -68.5 28t-27.5 69z" />
<glyph unicode="&#xdd;" horiz-adv-x="815" d="M14 1276v123h422v-123h-65l123 -520l127 520h-70v123h248v-123h-64l-184 -729v-426h84v-121h-426v121h76v395l-211 760h-60zM424 1528l145 223h244l-254 -223h-135z" />
<glyph unicode="&#xde;" horiz-adv-x="866" d="M51 0v121h70v1155h-70v123h412v-123h-70v-115h37q217 0 304 -87t87 -302q0 -223 -78.5 -318.5t-281.5 -95.5h-68v-237h88v-121h-430zM393 473q96 0 124 32t28 152v232q0 90 -30 119.5t-122 29.5v-565z" />
<glyph unicode="&#xdf;" horiz-adv-x="802" d="M39 0v111h63v776h-63v117h63q0 225 82 323q68 82 203 82q131 0 217 -78t86 -198q0 -66 -23.5 -106t-88.5 -87q88 -12 133 -145q39 -117 39 -295q0 -231 -60 -373q-68 -160 -194 -160q-29 0 -70 17q-12 4 -37 16v139q6 -12 10 -16q16 -18 37 -19q27 0 37 29t10 103v526 q0 86 -14 105.5t-80 19.5v114q47 0 60.5 16.5t13.5 82.5v104q0 100 -51 101q-39 0 -48.5 -27t-9.5 -135v-1143h-315z" />
<glyph unicode="&#xe0;" horiz-adv-x="811" d="M47 274q0 297 270 297h99v232q0 72 -20.5 100.5t-71.5 28.5q-35 0 -64 -27q37 -31 51.5 -57.5t14.5 -59.5q0 -55 -37 -94t-90 -39q-55 0 -95.5 44t-40.5 108q0 104 85 166.5t227 62.5q287 0 287 -323v-549q0 -39 22 -39q23 0 53 43l39 -105q-78 -84 -172 -83 q-51 0 -81.5 16t-76.5 67q-35 -47 -68.5 -65t-90.5 -18q-111 0 -175.5 78.5t-64.5 215.5zM289 281q0 -164 69 -164q57 0 58 129v223h-23q-63 0 -83.5 -35.5t-20.5 -152.5zM92 1333h244l145 -223h-133z" />
<glyph unicode="&#xe1;" horiz-adv-x="811" d="M47 274q0 297 270 297h99v232q0 72 -20.5 100.5t-71.5 28.5q-35 0 -64 -27q37 -31 51.5 -57.5t14.5 -59.5q0 -55 -37 -94t-90 -39q-55 0 -95.5 44t-40.5 108q0 104 85 166.5t227 62.5q287 0 287 -323v-549q0 -39 22 -39q23 0 53 43l39 -105q-78 -84 -172 -83 q-51 0 -81.5 16t-76.5 67q-35 -47 -68.5 -65t-90.5 -18q-111 0 -175.5 78.5t-64.5 215.5zM289 281q0 -164 69 -164q57 0 58 129v223h-23q-63 0 -83.5 -35.5t-20.5 -152.5zM264 1104l145 223h244l-254 -223h-135z" />
<glyph unicode="&#xe2;" horiz-adv-x="811" d="M47 274q0 297 270 297h99v232q0 72 -20.5 100.5t-71.5 28.5q-35 0 -64 -27q37 -31 51.5 -57.5t14.5 -59.5q0 -55 -37 -94t-90 -39q-55 0 -95.5 44t-40.5 108q0 104 85 166.5t227 62.5q287 0 287 -323v-549q0 -39 22 -39q23 0 53 43l39 -105q-78 -84 -172 -83 q-51 0 -81.5 16t-76.5 67q-35 -47 -68.5 -65t-90.5 -18q-111 0 -175.5 78.5t-64.5 215.5zM289 281q0 -164 69 -164q57 0 58 129v223h-23q-63 0 -83.5 -35.5t-20.5 -152.5zM172 1113l158 225h174l137 -225h-153l-78 116l-78 -116h-160z" />
<glyph unicode="&#xe3;" horiz-adv-x="811" d="M47 274q0 297 270 297h99v232q0 72 -20.5 100.5t-71.5 28.5q-35 0 -64 -27q37 -31 51.5 -57.5t14.5 -59.5q0 -55 -37 -94t-90 -39q-55 0 -95.5 44t-40.5 108q0 104 85 166.5t227 62.5q287 0 287 -323v-549q0 -39 22 -39q23 0 53 43l39 -105q-78 -84 -172 -83 q-51 0 -81.5 16t-76.5 67q-35 -47 -68.5 -65t-90.5 -18q-111 0 -175.5 78.5t-64.5 215.5zM289 281q0 -164 69 -164q57 0 58 129v223h-23q-63 0 -83.5 -35.5t-20.5 -152.5zM115 1120q12 76 64.5 122t123.5 46q37 0 94 -13l121 -28q20 0 49 39h72q-10 -72 -62.5 -117 t-123.5 -45q-27 0 -111 18.5t-98 18.5q-43 0 -55 -41h-74z" />
<glyph unicode="&#xe4;" horiz-adv-x="811" d="M47 274q0 297 270 297h99v232q0 72 -20.5 100.5t-71.5 28.5q-35 0 -64 -27q37 -31 51.5 -57.5t14.5 -59.5q0 -55 -37 -94t-90 -39q-55 0 -95.5 44t-40.5 108q0 104 85 166.5t227 62.5q287 0 287 -323v-549q0 -39 22 -39q23 0 53 43l39 -105q-78 -84 -172 -83 q-51 0 -81.5 16t-76.5 67q-35 -47 -68.5 -65t-90.5 -18q-111 0 -175.5 78.5t-64.5 215.5zM289 281q0 -164 69 -164q57 0 58 129v223h-23q-63 0 -83.5 -35.5t-20.5 -152.5zM125 1207q0 39 27.5 66.5t68.5 27.5q39 0 66.5 -27.5t27.5 -66.5q0 -41 -27.5 -69t-66.5 -28 q-41 0 -68.5 28t-27.5 69zM397 1207q0 39 27.5 66.5t68.5 27.5q39 0 66.5 -27.5t27.5 -66.5q0 -41 -27.5 -69t-66.5 -28q-41 0 -68.5 28t-27.5 69z" />
<glyph unicode="&#xe5;" horiz-adv-x="811" d="M47 274q0 297 270 297h99v232q0 72 -20.5 100.5t-71.5 28.5q-35 0 -64 -27q37 -31 51.5 -57.5t14.5 -59.5q0 -55 -37 -94t-90 -39q-55 0 -95.5 44t-40.5 108q0 104 85 166.5t227 62.5q287 0 287 -323v-549q0 -39 22 -39q23 0 53 43l39 -105q-78 -84 -172 -83 q-51 0 -81.5 16t-76.5 67q-35 -47 -68.5 -65t-90.5 -18q-111 0 -175.5 78.5t-64.5 215.5zM289 281q0 -164 69 -164q57 0 58 129v223h-23q-63 0 -83.5 -35.5t-20.5 -152.5zM205 1237q0 66 45 113t113 47q61 0 106 -47t45 -111q0 -63 -44 -107t-107 -44q-68 0 -113 43t-45 106 zM287 1241q0 -72 72 -71q74 0 74 67q0 31 -24 54.5t-52 23.5q-31 0 -50.5 -21.5t-19.5 -52.5z" />
<glyph unicode="&#xe6;" horiz-adv-x="1105" d="M47 276q0 295 270 295h99v232q0 72 -20.5 100.5t-71.5 28.5q-35 0 -64 -27q37 -33 51.5 -56.5t14.5 -57.5q0 -57 -37 -98.5t-90 -41.5q-55 0 -95.5 46t-40.5 110q0 104 85 166.5t227 62.5q104 0 180 -53q45 29 81 41t87 12q319 0 319 -499l-2 -58h-374l-4 -114 q0 -133 26.5 -188.5t93.5 -55.5q121 0 160 211l109 -17q-16 -154 -102.5 -243.5t-215.5 -89.5t-217 108l-94 -76q-53 -33 -135 -32q-111 0 -175.5 78.5t-64.5 215.5zM289 283q0 -164 69 -164q57 0 58 127v223h-23q-63 0 -83.5 -35.5t-20.5 -150.5zM666 580h141v186 q0 164 -66 164q-39 0 -57 -46t-18 -145v-159z" />
<glyph unicode="&#xe7;" horiz-adv-x="706" d="M47 516q0 248 86 383t248 135q115 0 192.5 -77.5t77.5 -194.5q0 -78 -38 -124t-99 -46q-55 0 -94 39t-39 100q0 125 108 125q-18 68 -75 68q-61 0 -84 -94.5t-23 -352.5q0 -199 22.5 -272.5t86.5 -73.5q59 0 85.5 45t41.5 170l110 -20q-23 -166 -90 -250t-178 -94v-56 q127 0 127 -121q0 -70 -41 -108.5t-113 -38.5q-141 0 -141 127h100q6 -53 48 -53q43 0 43 55q0 76 -76 76l-33 -2v123q-121 23 -186.5 159.5t-65.5 372.5z" />
<glyph unicode="&#xe8;" horiz-adv-x="747" d="M47 514q0 254 82 388t236 134t237.5 -130t83.5 -369l-2 -58h-377l-2 -114q0 -137 26.5 -190.5t94.5 -53.5q123 0 158 211l110 -17q-16 -156 -101 -244.5t-216 -88.5q-154 0 -242 141t-88 391zM307 580h144v186q0 164 -66 164q-78 0 -78 -191v-159zM90 1331h244l145 -223 h-133z" />
<glyph unicode="&#xe9;" horiz-adv-x="747" d="M47 514q0 254 82 388t236 134t237.5 -130t83.5 -369l-2 -58h-377l-2 -114q0 -137 26.5 -190.5t94.5 -53.5q123 0 158 211l110 -17q-16 -156 -101 -244.5t-216 -88.5q-154 0 -242 141t-88 391zM307 580h144v186q0 164 -66 164q-78 0 -78 -191v-159zM297 1098l145 223h244 l-254 -223h-135z" />
<glyph unicode="&#xea;" horiz-adv-x="747" d="M47 514q0 254 82 388t236 134t237.5 -130t83.5 -369l-2 -58h-377l-2 -114q0 -137 26.5 -190.5t94.5 -53.5q123 0 158 211l110 -17q-16 -156 -101 -244.5t-216 -88.5q-154 0 -242 141t-88 391zM307 580h144v186q0 164 -66 164q-78 0 -78 -191v-159zM133 1084l158 225h174 l137 -225h-153l-78 116l-78 -116h-160z" />
<glyph unicode="&#xeb;" horiz-adv-x="747" d="M47 514q0 254 82 388t236 134t237.5 -130t83.5 -369l-2 -58h-377l-2 -114q0 -137 26.5 -190.5t94.5 -53.5q123 0 158 211l110 -17q-16 -156 -101 -244.5t-216 -88.5q-154 0 -242 141t-88 391zM307 580h144v186q0 164 -66 164q-78 0 -78 -191v-159zM136 1207 q0 39 27.5 66.5t68.5 27.5q39 0 66.5 -27.5t27.5 -66.5q0 -41 -27.5 -69t-66.5 -28q-41 0 -68.5 28t-27.5 69zM408 1207q0 39 27.5 66.5t68.5 27.5q39 0 66.5 -27.5t27.5 -66.5q0 -41 -27.5 -69t-66.5 -28q-41 0 -68.5 28t-27.5 69z" />
<glyph unicode="&#xec;" horiz-adv-x="458" d="M-59 1325h243l146 -223h-133zM47 0v111h64v790h-64v111h315v-901h62v-111h-377z" />
<glyph unicode="&#xed;" horiz-adv-x="458" d="M41 0v111h63v790h-63v111h315v-901h62v-111h-377zM129 1096l145 223h244l-254 -223h-135z" />
<glyph unicode="&#xee;" horiz-adv-x="458" d="M29 1104l131 188h145l113 -188h-127l-66 98l-63 -98h-133zM43 0v111h63v790h-63v111h315v-901h62v-111h-377z" />
<glyph unicode="&#xef;" horiz-adv-x="458" d="M-12 1198q0 39 27.5 66.5t68.5 27.5q39 0 66.5 -27.5t27.5 -66.5q0 -41 -27.5 -68.5t-66.5 -27.5q-41 0 -68.5 27.5t-27.5 68.5zM41 0v111h63v790h-63v111h315v-901h62v-111h-377zM260 1198q0 39 27.5 66.5t68.5 27.5q39 0 67 -27.5t28 -66.5q0 -41 -28 -68.5t-67 -27.5 q-41 0 -68.5 27.5t-27.5 68.5z" />
<glyph unicode="&#xf0;" horiz-adv-x="786" d="M47 506q0 528 342 528q35 0 74 -10q6 0 16 -4q-18 63 -33.5 91t-62.5 71l-143 -109l-45 66l137 102q-41 29 -84 51.5t-101 40.5l48 80q133 -31 235 -98l148 110l47 -61l-138 -104q121 -117 182.5 -312.5t61.5 -439.5q0 -528 -342 -528q-168 0 -255 134t-87 392zM315 262 q0 -115 15.5 -150.5t58.5 -35.5t59.5 35.5t16.5 150.5v496q0 102 -16.5 140t-59.5 38t-58.5 -35t-15.5 -143v-496z" />
<glyph unicode="&#xf1;" horiz-adv-x="827" d="M39 0v111h63v790h-63v111h315v-66q53 49 92 68.5t82 19.5q106 0 154.5 -72.5t48.5 -201.5v-649h64v-111h-316v721q0 94 -9 122.5t-40 28.5q-43 0 -59.5 -37.5t-16.5 -132.5v-591h62v-111h-377zM156 1110q12 76 64.5 122t123.5 46q37 0 94 -13l121 -28q20 0 49 39h72 q-10 -72 -62.5 -117t-123.5 -45q-27 0 -111 18.5t-98 18.5q-43 0 -55 -41h-74z" />
<glyph unicode="&#xf2;" horiz-adv-x="786" d="M47 508q0 258 87 392t255 134q342 0 342 -526q0 -528 -342 -528q-168 0 -255 134t-87 394zM315 242q0 -98 16.5 -132t57.5 -34q43 0 59.5 34.5t16.5 131.5v528q0 98 -16.5 132t-59.5 34q-74 0 -74 -145v-549zM111 1341h244l145 -223h-133z" />
<glyph unicode="&#xf3;" horiz-adv-x="786" d="M47 508q0 258 87 392t255 134q342 0 342 -526q0 -528 -342 -528q-168 0 -255 134t-87 394zM315 242q0 -98 16.5 -132t57.5 -34q43 0 59.5 34.5t16.5 131.5v528q0 98 -16.5 132t-59.5 34q-74 0 -74 -145v-549zM332 1110l145 223h244l-254 -223h-135z" />
<glyph unicode="&#xf4;" horiz-adv-x="786" d="M47 508q0 258 87 392t255 134q342 0 342 -526q0 -528 -342 -528q-168 0 -255 134t-87 394zM315 242q0 -98 16.5 -132t57.5 -34q43 0 59.5 34.5t16.5 131.5v528q0 98 -16.5 132t-59.5 34q-74 0 -74 -145v-549zM151 1098l158 225h174l137 -225h-153l-78 116l-78 -116h-160z " />
<glyph unicode="&#xf5;" horiz-adv-x="786" d="M47 508q0 258 87 392t255 134q342 0 342 -526q0 -528 -342 -528q-168 0 -255 134t-87 394zM315 242q0 -98 16.5 -132t57.5 -34q43 0 59.5 34.5t16.5 131.5v528q0 98 -16.5 132t-59.5 34q-74 0 -74 -145v-549zM135 1106q12 76 64.5 122t123.5 46q37 0 94 -13l121 -28 q20 0 49 39h72q-10 -72 -62.5 -117t-123.5 -45q-27 0 -111 18.5t-98 18.5q-43 0 -55 -41h-74z" />
<glyph unicode="&#xf6;" horiz-adv-x="786" d="M47 508q0 258 87 392t255 134q342 0 342 -526q0 -528 -342 -528q-168 0 -255 134t-87 394zM315 242q0 -98 16.5 -132t57.5 -34q43 0 59.5 34.5t16.5 131.5v528q0 98 -16.5 132t-59.5 34q-74 0 -74 -145v-549zM158 1202q0 39 27.5 66.5t68.5 27.5q39 0 66.5 -27.5 t27.5 -66.5q0 -41 -27.5 -69t-66.5 -28q-41 0 -68.5 28t-27.5 69zM430 1202q0 39 27.5 66.5t68.5 27.5q39 0 66.5 -27.5t27.5 -66.5q0 -41 -27.5 -69t-66.5 -28q-41 0 -68.5 28t-27.5 69z" />
<glyph unicode="&#xf7;" horiz-adv-x="845" d="M88 608v150h670v-150h-670zM287 389q0 55 39 94t94 39t94 -39t39 -94t-39 -94t-94 -39t-94 39t-39 94zM287 977q0 55 39 94t94 39t94 -39t39 -94t-39 -94t-94 -39t-94 39t-39 94z" />
<glyph unicode="&#xf8;" horiz-adv-x="786" d="M47 506q0 528 342 528q31 0 59.5 -5t63.5 -17l10 37h84l-24 -78q150 -123 149 -463q0 -528 -342 -528q-47 0 -106 16l-9 -31h-84l21 66q-82 61 -123 177t-41 298zM315 369l148 477q0 90 -74 90t-74 -145v-422zM324 125q18 -49 65 -49q76 0 76 145v369z" />
<glyph unicode="&#xf9;" horiz-adv-x="827" d="M29 901v111h315v-762q0 -63 10.5 -86t38.5 -23q76 0 76 168v592h-61v111h313v-901h63v-111h-311l-4 82q-51 -59 -89 -80.5t-91 -21.5q-82 0 -133 55q-63 70 -64 215v651h-63zM113 1339h244l145 -223h-133z" />
<glyph unicode="&#xfa;" horiz-adv-x="827" d="M29 901v111h315v-762q0 -63 10.5 -86t38.5 -23q76 0 76 168v592h-61v111h313v-901h63v-111h-311l-4 82q-51 -59 -89 -80.5t-91 -21.5q-82 0 -133 55q-63 70 -64 215v651h-63zM295 1110l145 223h244l-254 -223h-135z" />
<glyph unicode="&#xfb;" horiz-adv-x="827" d="M29 901v111h315v-762q0 -63 10.5 -86t38.5 -23q76 0 76 168v592h-61v111h313v-901h63v-111h-311l-4 82q-51 -59 -89 -80.5t-91 -21.5q-82 0 -133 55q-63 70 -64 215v651h-63zM155 1096l158 225h174l137 -225h-153l-78 116l-78 -116h-160z" />
<glyph unicode="&#xfc;" horiz-adv-x="827" d="M29 901v111h315v-762q0 -63 10.5 -86t38.5 -23q76 0 76 168v592h-61v111h313v-901h63v-111h-311l-4 82q-51 -59 -89 -80.5t-91 -21.5q-82 0 -133 55q-63 70 -64 215v651h-63zM148 1202q0 39 27.5 66.5t68.5 27.5q39 0 66.5 -27.5t27.5 -66.5q0 -41 -27.5 -69t-66.5 -28 q-41 0 -68.5 28t-27.5 69zM420 1202q0 39 27.5 66.5t68.5 27.5q39 0 66.5 -27.5t27.5 -66.5q0 -41 -27.5 -69t-66.5 -28q-41 0 -68.5 28t-27.5 69z" />
<glyph unicode="&#xfd;" horiz-adv-x="720" d="M14 901v111h387v-111h-51l90 -385l88 385h-57v111h234v-111h-62l-227 -940q-35 -152 -84 -217.5t-129 -65.5q-63 0 -103.5 42t-40.5 108q0 70 35 115t90 45q94 0 95 -127l40 139l-245 901h-60zM342 1116l145 223h244l-254 -223h-135z" />
<glyph unicode="&#xfe;" horiz-adv-x="804" d="M39 -197h63v1483h-63v113h311v-447q51 84 133 84q270 0 271 -516q0 -248 -65.5 -394t-178.5 -146q-41 0 -74 12t-82 49v-238h68v-110h-383v110zM354 508q0 -258 13.5 -326.5t62.5 -68.5q45 0 63.5 85t18.5 355q0 193 -16.5 266.5t-63.5 73.5q-49 0 -63.5 -69.5 t-14.5 -315.5z" />
<glyph unicode="&#xff;" horiz-adv-x="720" d="M14 901v111h387v-111h-51l90 -385l88 385h-57v111h234v-111h-62l-227 -940q-35 -152 -84 -217.5t-129 -65.5q-63 0 -103.5 42t-40.5 108q0 70 35 115t90 45q94 0 95 -127l40 139l-245 901h-60zM168 1207q0 39 27.5 66.5t68.5 27.5q39 0 66.5 -27.5t27.5 -66.5 q0 -41 -27.5 -69t-66.5 -28q-41 0 -68.5 28t-27.5 69zM440 1207q0 39 27.5 66.5t68.5 27.5q39 0 66.5 -27.5t27.5 -66.5q0 -41 -27.5 -69t-66.5 -28q-41 0 -68.5 28t-27.5 69z" />
<glyph unicode="&#x152;" horiz-adv-x="1189" d="M47 651q0 764 365 764q41 0 133 -16h588v-385h-179v262h-163v-504h77v135h142v-393h-142v139h-77v-532h163v291h179v-412h-584q-55 -10 -86 -14t-55 -4q-176 0 -268.5 169.5t-92.5 499.5zM338 297q0 -115 18.5 -158t67.5 -43q43 0 59.5 43t16.5 158v803 q0 113 -16.5 156.5t-59.5 43.5q-49 0 -67.5 -43t-18.5 -157v-803z" />
<glyph unicode="&#x153;" horiz-adv-x="1150" d="M47 510q0 258 87 392t255 134q109 0 197 -65q39 33 82 49t100 16q156 0 237.5 -127t81.5 -372l-2 -58h-376l-2 -114q0 -137 26.5 -190.5t93.5 -53.5q66 0 104 50t56 161l111 -17q-18 -158 -102.5 -245.5t-215.5 -87.5q-102 0 -184 69q-90 -70 -207 -69q-168 0 -255 134 t-87 394zM315 223q0 -84 16.5 -114.5t57.5 -30.5t58.5 32.5t17.5 112.5v570q0 84 -16.5 115.5t-59.5 31.5q-74 0 -74 -147v-570zM709 580h143v186q0 164 -64 164q-80 0 -79 -191v-159z" />
<glyph unicode="&#x178;" horiz-adv-x="815" d="M2 1276v123h422v-123h-66l123 -520l127 520h-69v123h247v-123h-63l-184 -729v-426h84v-121h-426v121h75v395l-211 760h-59zM225 1628q0 39 28 64.5t66 25.5q37 0 64 -26.5t27 -63.5q0 -39 -27 -65.5t-64 -26.5t-65.5 26.5t-28.5 65.5zM489 1628q0 37 27 63.5t66 26.5 t65.5 -26.5t26.5 -63.5q0 -39 -26.5 -65.5t-65.5 -26.5t-66 26.5t-27 65.5z" />
<glyph unicode="&#x2c6;" horiz-adv-x="675" d="M92 1389l158 225h174l137 -225h-153l-78 116l-78 -116h-160z" />
<glyph unicode="&#x2da;" horiz-adv-x="614" d="M137 1466q0 66 45 113t113 47q61 0 106 -47t45 -111q0 -63 -44 -107t-107 -44q-68 0 -113 43t-45 106zM219 1470q0 -72 72 -71q74 0 74 67q0 31 -24 54.5t-52 23.5q-31 0 -50.5 -21.5t-19.5 -52.5z" />
<glyph unicode="&#x2dc;" horiz-adv-x="675" d="M78 1376q12 76 64.5 122t123.5 46q37 0 94 -13l121 -28q20 0 49 39h72q-10 -72 -62.5 -117t-123.5 -45q-27 0 -111 18.5t-98 18.5q-43 0 -55 -41h-74z" />
<glyph unicode="&#x2013;" d="M78 410v213h700v-213h-700z" />
<glyph unicode="&#x2014;" horiz-adv-x="839" d="M0 410v213h836v-213h-836z" />
<glyph unicode="&#x2018;" horiz-adv-x="462" d="M68 1075q0 223 188 350l51 -100q-45 -35 -66.5 -60.5t-54.5 -86.5l45 6q59 0 94 -41t35 -107q0 -74 -37.5 -120t-97.5 -46q-68 0 -112.5 57.5t-44.5 147.5z" />
<glyph unicode="&#x2019;" horiz-adv-x="462" d="M68 1247q0 72 38.5 119t96.5 47q72 0 114.5 -56.5t42.5 -148.5q0 -229 -188 -352l-51 102q41 31 63.5 57.5t55.5 86.5l-43 -4q-57 0 -93 41.5t-36 107.5z" />
<glyph unicode="&#x201a;" horiz-adv-x="462" d="M68 147q0 70 38.5 117t96.5 47q72 0 114.5 -55t42.5 -150q0 -227 -188 -352l-51 103q41 33 63.5 60.5t55.5 84.5l-43 -4q-57 0 -93 41.5t-36 107.5z" />
<glyph unicode="&#x201c;" horiz-adv-x="782" d="M68 1087q0 225 188 353l51 -103q-43 -33 -65.5 -60.5t-55.5 -84.5l45 4q59 0 94 -41t35 -106q0 -74 -37.5 -120t-97.5 -46q-68 0 -112.5 57t-44.5 147zM387 1087q0 223 186 353l54 -103q-43 -33 -65.5 -60.5t-55.5 -84.5l45 4q59 0 94 -41t35 -106q0 -74 -38 -120 t-97 -46q-68 0 -113 57t-45 147z" />
<glyph unicode="&#x201d;" horiz-adv-x="782" d="M68 1247q0 72 38.5 119t96.5 47q72 0 114.5 -56.5t42.5 -148.5q0 -229 -188 -352l-51 102q41 31 63.5 57.5t55.5 86.5l-43 -4q-57 0 -93 41.5t-36 107.5zM387 1247q0 72 39 119t96 47q72 0 115 -56.5t43 -148.5q0 -229 -188 -352l-52 102q41 31 63.5 57.5t55.5 86.5 l-43 -4q-57 0 -93 41.5t-36 107.5z" />
<glyph unicode="&#x201e;" horiz-adv-x="782" d="M68 147q0 70 38.5 117t96.5 47q72 0 114.5 -55t42.5 -150q0 -227 -188 -352l-51 103q41 33 63.5 60.5t55.5 84.5l-43 -4q-57 0 -93 41.5t-36 107.5zM387 147q0 70 39 117t96 47q72 0 115 -55t43 -150q0 -227 -188 -352l-52 103q41 33 63.5 60.5t55.5 84.5l-43 -4 q-57 0 -93 41.5t-36 107.5z" />
<glyph unicode="&#x2022;" horiz-adv-x="933" d="M201 711q0 109 77.5 186.5t186.5 77.5t186.5 -78t77.5 -186q0 -109 -78 -187t-186 -78q-109 0 -186.5 78t-77.5 187z" />
<glyph unicode="&#x2026;" horiz-adv-x="1736" d="M180 158q0 70 41 121t98 51q61 0 102.5 -49.5t41.5 -122.5q0 -72 -42 -122t-102 -50q-57 0 -98 49t-41 123zM713 158q0 70 41 121t98 51q61 0 102 -49.5t41 -122.5q0 -72 -42 -122t-101 -50q-57 0 -98 49t-41 123zM1266 158q0 70 41 121t98 51q61 0 102 -49.5t41 -122.5 q0 -72 -42 -122t-101 -50q-57 0 -98 49t-41 123z" />
<glyph unicode="&#x2039;" horiz-adv-x="512" d="M61 500l218 372h137l-215 -372l215 -375h-137z" />
<glyph unicode="&#x203a;" horiz-adv-x="512" d="M90 125l215 375l-215 372h137l217 -372l-217 -375h-137z" />
<glyph unicode="&#x2122;" horiz-adv-x="1105" d="M66 1325v244h372v-244h-76v182h-43v-577h35v-64h-204v64h34v577h-43v-182h-75zM496 864v64h34v577h-34v62h209l47 -338l49 338h205v-62h-33v-577h33v-64h-205v64h35v438l-80 -502h-90l-76 508v-444h37v-64h-131z" />
<glyph unicode="&#xe000;" horiz-adv-x="1010" d="M0 1010h1010v-1010h-1010v1010z" />
<glyph unicode="&#xfb01;" horiz-adv-x="950" d="M531 0v111h63v790h-63v111h315v-901h62v-111h-377zM551 1231q0 68 46.5 114t111.5 46q66 0 112 -46.5t46 -113.5q0 -66 -45 -113t-113 -47q-63 0 -110.5 47t-47.5 113zM39 0v111h63v790h-63v111h63v84q0 301 211 301q70 0 117 -43t47 -105q0 -55 -33.5 -91t-85.5 -36 q-84 0 -112 107q0 -119 47 -168t160 -49v-111h-99v-790h99v-111h-414z" />
<glyph unicode="&#xfb02;" horiz-adv-x="962" d="M531 1286v113h328v-1288h63v-111h-379v111h64v1175h-76zM39 0v111h63v790h-63v111h63v84q0 301 211 301q70 0 117 -43t47 -105q0 -55 -33.5 -91t-85.5 -36q-84 0 -112 107q0 -119 47 -168t160 -49v-111h-99v-790h99v-111h-414z" />
<glyph unicode="&#xfb03;" horiz-adv-x="1441" d="M1022 0v111h63v790h-63v111h315v-901h62v-111h-377zM1042 1231q0 68 46.5 114t111.5 46q66 0 112 -46.5t46 -113.5q0 -66 -45 -113t-113 -47q-63 0 -110.5 47t-47.5 113zM531 0v111h63v790h-63v111h63v84q0 301 211 301q70 0 117 -43t47 -105q0 -55 -33.5 -91t-85.5 -36 q-84 0 -112 107q0 -119 47 -168t160 -49v-111h-99v-790h99v-111h-414zM39 0v111h63v790h-63v111h63v84q0 301 211 301q70 0 117 -43t47 -105q0 -55 -33.5 -91t-85.5 -36q-84 0 -112 107q0 -119 47 -168t160 -49v-111h-99v-790h99v-111h-414z" />
<glyph unicode="&#xfb04;" horiz-adv-x="1454" d="M1022 1286v113h328v-1288h63v-111h-379v111h64v1175h-76zM531 0v111h63v790h-63v111h63v84q0 301 211 301q70 0 117 -43t47 -105q0 -55 -33.5 -91t-85.5 -36q-84 0 -112 107q0 -119 47 -168t160 -49v-111h-99v-790h99v-111h-414zM39 0v111h63v790h-63v111h63v84 q0 301 211 301q70 0 117 -43t47 -105q0 -55 -33.5 -91t-85.5 -36q-84 0 -112 107q0 -119 47 -168t160 -49v-111h-99v-790h99v-111h-414z" />
</font>
</defs>
</svg>
