<?xml version="1.0" standalone="no"?>
<!DOCTYPE svg PUBLIC "-//W3C//DTD SVG 1.1//EN" "http://www.w3.org/Graphics/SVG/1.1/DTD/svg11.dtd" >
<svg xmlns="http://www.w3.org/2000/svg">
<metadata>
This is a custom SVG webfont generated by Font Squirrel.
Copyright   : YOFonts 2011
Designer    : Yamaoka Yasuhiro
Foundry     : YOFonts
Foundry URL : wwwyoworkscom
</metadata>
<defs>
<font id="EauDouceSansLight" horiz-adv-x="1075" >
<font-face units-per-em="2048" ascent="1638" descent="-410" />
<missing-glyph horiz-adv-x="477" />
<glyph unicode=" "  horiz-adv-x="477" />
<glyph unicode="&#x09;" horiz-adv-x="477" />
<glyph unicode="&#xa0;" horiz-adv-x="477" />
<glyph unicode="!" horiz-adv-x="548" d="M190 0v166h168v-166h-168zM197 1366h155l-39 -1012h-77z" />
<glyph unicode="&#x22;" horiz-adv-x="751" d="M137 969l64 397h155l-141 -397h-78zM391 969l64 397h155l-141 -397h-78z" />
<glyph unicode="#" horiz-adv-x="1103" d="M84 553v80h215l92 373h-192v79h213l69 281h80l-69 -281h251l70 281h82l-70 -281h193v-79h-213l-92 -373h192v-80h-213l-69 -281h-80l67 281h-252l-67 -281h-82l70 281h-195zM379 633h252l94 373h-252z" />
<glyph unicode="$" horiz-adv-x="980" d="M100 213l74 74q121 -121 311 -121q117 0 191 65.5t74 165.5q0 94 -63.5 149.5t-154 82t-180.5 58.5t-153.5 105.5t-63.5 194.5q0 119 88 207t236 100v207h69v-205q193 -8 334 -143l-74 -74q-125 121 -282 121q-115 0 -183.5 -61.5t-68.5 -147.5q0 -96 63.5 -151.5 t153.5 -83t179 -58t152.5 -103.5t63.5 -194q0 -131 -91 -225t-247 -106v-207h-69v207q-218 10 -359 143z" />
<glyph unicode="%" horiz-adv-x="1671" d="M100 989.5q0 186.5 76 287.5t201 101t201.5 -101t76.5 -287.5t-76.5 -288t-201.5 -101.5q-123 0 -200 101.5t-77 288zM188 989.5q0 -153.5 53.5 -234.5t135.5 -81t135 81t53 234.5t-53 234.5t-135 81t-135.5 -81t-53.5 -234.5zM305 0l957 1366h100l-954 -1366h-103z M1016 374.5q0 186.5 76.5 288t201.5 101.5t201 -101.5t76 -288t-77 -287.5t-200 -101q-125 0 -201.5 101t-76.5 287.5zM1106 374.5q0 -153.5 53 -234.5t135 -81t135.5 81t53.5 234.5t-53.5 234.5t-135.5 81t-135 -81t-53 -234.5z" />
<glyph unicode="&#x26;" horiz-adv-x="1294" d="M113 354q0 133 71.5 223.5t204.5 174.5q-184 193 -184 352q0 123 81 207t226 84q137 0 219 -79t82 -212q0 -115 -67.5 -196t-198.5 -169l411 -409q66 160 66 422h113q0 -317 -97 -504l250 -248h-149l-158 158q-143 -186 -430 -187q-205 0 -322.5 108.5t-117.5 274.5z M229 360q0 -123 87 -210t237 -87q240 0 356 168l-450 453q-111 -74 -170.5 -148t-59.5 -176zM313 1102q0 -72 37 -137.5t125 -157.5q78 51 121 84t79 89t36 122q0 92 -54.5 147.5t-144.5 55.5q-94 0 -146.5 -56.5t-52.5 -146.5z" />
<glyph unicode="'" horiz-adv-x="497" d="M137 969l64 397h155l-141 -397h-78z" />
<glyph unicode="(" horiz-adv-x="657" d="M195 682q0 436 284 836l101 -39q-268 -381 -269 -797q0 -225 66.5 -414.5t202.5 -380.5l-101 -41q-284 402 -284 836z" />
<glyph unicode=")" horiz-adv-x="657" d="M78 -113q135 193 202.5 381.5t67.5 413.5t-67.5 415.5t-202.5 381.5l100 39q285 -393 285 -836q0 -438 -285 -836z" />
<glyph unicode="*" horiz-adv-x="956" d="M125 1079l25 74l288 -90v303h78v-303l291 90l22 -74l-288 -92l174 -248l-64 -45l-174 248l-174 -248l-63 45l176 248z" />
<glyph unicode="+" horiz-adv-x="1064" d="M129 623v92h358v356h91v-356h358v-92h-358v-357h-91v357h-358z" />
<glyph unicode="," horiz-adv-x="499" d="M129 -240l66 406h155l-141 -406h-80z" />
<glyph unicode="-" horiz-adv-x="702" d="M119 467v90h465v-90h-465z" />
<glyph unicode="." horiz-adv-x="499" d="M166 0v166h168v-166h-168z" />
<glyph unicode="/" horiz-adv-x="618" d="M61 -137l408 1638h88l-407 -1638h-89z" />
<glyph unicode="0" d="M119 682q0 330 114.5 514t305 184t304 -184t113.5 -514t-113.5 -513t-304 -183t-305 183t-114.5 513zM236 682q0 -279 82.5 -440.5t220.5 -161.5q135 0 219 163t84 439t-84 439t-219 163q-137 0 -220 -161.5t-83 -440.5z" />
<glyph unicode="1" d="M156 1081v97q252 35 411 188h72v-1366h-111v1223q-106 -107 -372 -142z" />
<glyph unicode="2" d="M76 0v72q385 340 539.5 541.5t154.5 396.5q0 121 -79 200.5t-202 79.5q-96 0 -162.5 -29.5t-129.5 -91.5l-76 78q145 139 368 139q180 0 287 -104t107 -268q0 -145 -77 -293t-201 -283t-351 -340h707v-98h-885z" />
<glyph unicode="3" d="M76 119l78 76q123 -119 315 -119q143 0 238.5 78.5t95.5 203.5t-95.5 204t-234.5 79h-178v98h156q152 0 240.5 77t88.5 200q0 117 -79.5 195.5t-204.5 78.5q-100 0 -166 -28.5t-127 -92.5l-78 78q145 139 373 139q178 0 285.5 -102t107.5 -262q0 -117 -74 -207t-176 -119 q133 -37 206 -129t73 -211q0 -172 -123 -275.5t-322 -103.5q-254 1 -399 142z" />
<glyph unicode="4" d="M66 362v91l626 913h107v-905h219v-99h-219v-362h-107v362h-626zM188 461h504v741z" />
<glyph unicode="5" d="M143 119l76 76q129 -119 278.5 -119t241.5 93t92 230q0 147 -91 235.5t-242 88.5q-127 0 -228 -96l-82 43v696h723v-100h-614v-527q39 33 102.5 55.5t118.5 22.5q195 0 310.5 -116.5t115.5 -301.5q0 -180 -123 -301t-319 -121q-214 1 -359 142z" />
<glyph unicode="6" d="M113 682q0 319 140 511.5t363 192.5q197 0 340 -139l-77 -78q-117 121 -265 121q-193 0 -303 -210t-84 -535q31 125 122 196.5t224 71.5q172 0 282 -115.5t110 -300t-113 -302.5t-295 -118q-444 0 -444 705zM262 397q0 -143 81 -234t214 -91t214 91t81 234 q0 141 -82 233.5t-213 92.5t-213 -92.5t-82 -233.5z" />
<glyph unicode="7" d="M94 1266v100h885v-61q-451 -539 -569 -1305h-121q123 729 538 1266h-733z" />
<glyph unicode="8" d="M104 356q0 117 63.5 209t184.5 129q-90 37 -156.5 121t-66.5 203q0 158 109.5 263t300.5 105q188 0 297.5 -105t109.5 -263q0 -119 -66.5 -203t-156.5 -121q121 -37 185.5 -129t64.5 -209q0 -172 -120 -275.5t-314 -103.5q-197 0 -316 103.5t-119 275.5zM217 358 q0 -127 90 -207.5t231.5 -80.5t230.5 80.5t89 207.5q0 123 -88 207t-231.5 84t-232.5 -84t-89 -207zM238 1016q0 -119 81.5 -200t219.5 -81q135 0 217 81t82 200t-82 200.5t-217 81.5q-137 0 -219 -81.5t-82 -200.5z" />
<glyph unicode="9" d="M113 968.5q0 184.5 111.5 301t293.5 116.5q446 0 447 -704q0 -317 -140.5 -511t-363.5 -194q-199 0 -340 142l76 76q119 -119 264 -119q193 0 303 210t84 535q-31 -125 -122 -197.5t-222 -72.5q-172 0 -281.5 116.5t-109.5 301zM223 968.5q0 -141.5 82 -233.5t213 -92 t213 92t82 233.5t-82 233.5t-213 92t-213 -92t-82 -233.5z" />
<glyph unicode=":" horiz-adv-x="499" d="M166 0v166h168v-166h-168zM166 776v166h168v-166h-168z" />
<glyph unicode=";" horiz-adv-x="499" d="M129 -240l66 406h155l-141 -406h-80zM166 776v166h168v-166h-168z" />
<glyph unicode="&#x3c;" horiz-adv-x="534" d="M129 471l190 383h111l-190 -383l190 -383h-111z" />
<glyph unicode="=" horiz-adv-x="1064" d="M129 428v92h807v-92h-807zM129 819v92h807v-92h-807z" />
<glyph unicode="&#x3e;" horiz-adv-x="534" d="M104 88l193 383l-193 383h111l193 -383l-193 -383h-111z" />
<glyph unicode="?" horiz-adv-x="907" d="M55 1245q156 147 361 148q174 0 285.5 -100.5t111.5 -252.5q0 -94 -40 -167.5t-97 -126.5l-114 -103q-56 -51 -96 -124t-40 -165h-107q0 106 38 188.5t92.5 134.5l108.5 99t92 111.5t38 144.5q0 113 -79 185.5t-197 72.5q-156 0 -281 -121zM289 0v166h168v-166h-168z" />
<glyph unicode="@" horiz-adv-x="1595" d="M98 614q0 207 95.5 385.5t276.5 289t411 110.5q268 0 442 -165t174 -425q0 -213 -105.5 -365.5t-222.5 -152.5q-76 0 -119.5 54t-33.5 136q-47 -88 -126 -141t-179 -53q-119 0 -194 83t-75 230q0 195 115 329t277 134q84 0 148.5 -47t78.5 -131l29 162h92l-86 -500 q-33 -178 84 -178q76 0 158.5 130t82.5 306q0 236 -154.5 378t-385.5 142q-205 0 -368 -101.5t-247 -262t-84 -347.5q0 -285 151.5 -430t377.5 -145q129 0 244.5 44t191.5 120l55 -56q-84 -84 -213 -133t-278 -49q-276 0 -444.5 169t-168.5 480zM541 602q0 -113 51 -173 t139 -60q125 0 211 105.5t86 273.5q0 113 -51 173t-139 60q-125 0 -211 -105.5t-86 -273.5z" />
<glyph unicode="A" horiz-adv-x="1140" d="M25 0l493 1366h107l491 -1366h-121l-131 373h-588l-129 -373h-122zM309 469h522l-260 741z" />
<glyph unicode="B" horiz-adv-x="1136" d="M203 0v1366h377q186 0 302.5 -97.5t116.5 -252.5q0 -115 -69.5 -204t-186.5 -120q125 -23 203 -114t78 -218q0 -152 -108.5 -256t-280.5 -104h-432zM317 94h299q127 0 209 79t82 195.5t-82 195.5t-209 79h-299v-549zM317 735h275q127 0 209 76t82 192.5t-82 192.5 t-209 76h-275v-537z" />
<glyph unicode="C" horiz-adv-x="1196" d="M113 682q0 315 159.5 514t436.5 199q231 0 385 -148l-76 -78q-121 121 -301 121q-225 0 -352 -168t-127 -440q0 -268 130 -438t349 -170q176 0 301 121l76 -76q-152 -147 -385 -148q-272 0 -434 199t-162 512z" />
<glyph unicode="D" horiz-adv-x="1310" d="M203 0v1366h323q307 0 489.5 -185.5t182.5 -498.5q0 -311 -182 -496.5t-490 -185.5h-323zM322 98h202q246 0 397.5 159t151.5 425t-151.5 425t-397.5 159h-202v-1168z" />
<glyph unicode="E" horiz-adv-x="1021" d="M203 0v1366h671v-100h-552v-527h538v-98h-538v-543h567v-98h-686z" />
<glyph unicode="F" horiz-adv-x="995" d="M203 0v1366h686v-100h-567v-527h552v-98h-552v-641h-119z" />
<glyph unicode="G" horiz-adv-x="1259" d="M113 682q0 313 164.5 513t445.5 200q231 0 389 -148l-76 -78q-125 121 -307 121q-227 0 -359 -170t-132 -438t134 -437t349 -169q154 0 272 96v449h-286v98h405v-600q-162 -147 -393 -148q-272 0 -439 200t-167 511z" />
<glyph unicode="H" horiz-adv-x="1306" d="M203 0v1366h119v-627h663v627h119v-1366h-119v641h-663v-641h-119z" />
<glyph unicode="I" horiz-adv-x="524" d="M203 0v1366h119v-1366h-119z" />
<glyph unicode="J" horiz-adv-x="876" d="M31 121l75 76q123 -123 246 -123q90 0 146.5 65.5t56.5 163.5v1063h119v-1061q0 -150 -82 -242t-236 -92q-175 0 -325 150z" />
<glyph unicode="K" horiz-adv-x="1122" d="M203 0v1366h119v-649l612 649h151l-647 -672l668 -694h-154l-630 670v-670h-119z" />
<glyph unicode="L" horiz-adv-x="909" d="M203 0v1366h119v-1268h567v-98h-686z" />
<glyph unicode="M" horiz-adv-x="1542" d="M203 0v1366h166l403 -1204l402 1204h167v-1366h-112v1212l-404 -1212h-106l-406 1212v-1212h-110z" />
<glyph unicode="N" horiz-adv-x="1325" d="M203 0v1366h131l676 -1180v1180h114v-1366h-133l-676 1178v-1178h-112z" />
<glyph unicode="O" horiz-adv-x="1366" d="M113 682q0 315 152.5 514t416.5 199q266 0 418.5 -199t152.5 -514t-152.5 -513t-418.5 -198q-264 0 -416.5 198t-152.5 513zM238 682q0 -272 117.5 -440t326.5 -168q211 0 328.5 167t117.5 441t-117.5 441t-328.5 167q-209 0 -326.5 -168t-117.5 -440z" />
<glyph unicode="P" horiz-adv-x="1110" d="M203 0v1366h397q174 0 287.5 -107.5t113.5 -265.5q0 -160 -112.5 -266t-288.5 -106h-278v-621h-119zM322 719h270q127 0 209 79t82 195.5t-82 194.5t-209 78h-270v-547z" />
<glyph unicode="Q" horiz-adv-x="1366" d="M113 682q0 315 152.5 514t416.5 199q266 0 418.5 -199t152.5 -514q0 -168 -45 -310.5t-129 -221.5l228 -115l-80 -82l-230 115q-135 -96 -315 -97q-264 0 -416.5 198t-152.5 513zM238 682q0 -272 117.5 -440t326.5 -168q211 0 328.5 167t117.5 441t-117.5 441t-328.5 167 q-209 0 -326.5 -168t-117.5 -440z" />
<glyph unicode="R" horiz-adv-x="1181" d="M203 0v1366h379q193 0 307.5 -99.5t114.5 -258.5q0 -119 -72 -208t-193 -118q88 -12 142.5 -74.5t74.5 -150.5l107 -457h-123l-98 432q-25 104 -86.5 153.5t-171.5 49.5h-262v-635h-119zM322 733h270q123 0 205 76t82 192.5t-81 191.5t-206 75h-270v-535z" />
<glyph unicode="S" horiz-adv-x="1021" d="M70 119l75 76q57 -55 146.5 -88t183.5 -33q150 0 241 77.5t91 198.5q0 96 -52.5 160.5t-129.5 91.5l-170 60q-92 33 -170 66.5t-130.5 111.5t-52.5 192q0 150 122 256.5t302 106.5q231 0 389 -148l-77 -78q-123 123 -306 123q-133 0 -219 -77.5t-86 -180.5q0 -78 39 -132 t101.5 -84t137.5 -53.5t149.5 -51t137 -67.5t101.5 -114.5t39 -179.5q0 -168 -125 -274.5t-330 -106.5q-253 1 -407 148z" />
<glyph unicode="T" horiz-adv-x="989" d="M27 1266v100h936v-100h-408v-1266h-119v1266h-409z" />
<glyph unicode="U" horiz-adv-x="1308" d="M203 449v917h119v-917q0 -197 83.5 -286t249.5 -89t249 88t83 287v917h121v-917q0 -242 -117 -360t-336 -118t-335.5 118t-116.5 360z" />
<glyph unicode="V" horiz-adv-x="1140" d="M25 1366h127l419 -1202l418 1202h127l-491 -1366h-107z" />
<glyph unicode="W" horiz-adv-x="1636" d="M33 1366h123l297 -1190l303 1190h125l303 -1190l297 1190h123l-355 -1366h-129l-303 1190l-301 -1190h-129z" />
<glyph unicode="X" horiz-adv-x="1142" d="M31 0l467 694l-451 672h141l383 -590l383 590h142l-451 -672l467 -694h-143l-398 612l-395 -612h-145z" />
<glyph unicode="Y" horiz-adv-x="1103" d="M12 1366h144l397 -614l395 614h144l-480 -719v-647h-118v647z" />
<glyph unicode="Z" horiz-adv-x="1056" d="M66 0v78l747 1188h-723v100h877v-78l-748 -1190h772v-98h-925z" />
<glyph unicode="[" horiz-adv-x="688" d="M229 -137v1638h330v-88h-225v-1460h225v-90h-330z" />
<glyph unicode="\" horiz-adv-x="618" d="M61 1501h89l407 -1638h-88z" />
<glyph unicode="]" horiz-adv-x="688" d="M129 -47h225v1460h-225v88h330v-1638h-330v90z" />
<glyph unicode="^" horiz-adv-x="475" d="M45 1075l148 291h88l149 -291h-90l-102 207l-105 -207h-88z" />
<glyph unicode="_" horiz-adv-x="655" d="M0 0v82h655v-82h-655z" />
<glyph unicode="`" horiz-adv-x="475" d="M59 1366h150l135 -291h-72z" />
<glyph unicode="a" horiz-adv-x="1026" d="M109 248q0 127 100 208t289 81h241v77q0 258 -250 258q-135 0 -247 -96l-70 70q154 119 328 119q168 0 259 -89.5t91 -254.5v-621h-107v184q-45 -88 -132 -147.5t-210 -59.5q-131 0 -211.5 77t-80.5 194zM221 256q0 -80 56.5 -131t148.5 -51q133 0 223 101t90 245v26 h-231q-147 0 -217 -53t-70 -137z" />
<glyph unicode="b" horiz-adv-x="1118" d="M178 0v1366h109v-631q100 229 327 230q178 0 292 -132.5t114 -361.5t-113.5 -361.5t-294.5 -132.5q-229 0 -327 234v-211h-107zM287 471q0 -186 86 -293.5t223 -107.5t223 107.5t86 293.5t-86 293.5t-223 107.5t-223 -107.5t-86 -293.5z" />
<glyph unicode="c" horiz-adv-x="937" d="M100 471q0 229 124 361.5t325 132.5q176 0 295 -119l-68 -70q-100 96 -221 96q-154 0 -247 -108.5t-93 -292.5t93 -292.5t247 -108.5q121 0 221 96l68 -70q-119 -119 -295 -119q-201 0 -325 132.5t-124 361.5z" />
<glyph unicode="d" horiz-adv-x="1118" d="M100 471q0 229 113 361.5t293 132.5q119 0 200.5 -64.5t124.5 -165.5v631h111v-1366h-106v211q-102 -233 -330 -234q-178 0 -292 132.5t-114 361.5zM213 471q0 -186 86 -293.5t223 -107.5t223 107.5t86 293.5t-86 293.5t-223 107.5t-223 -107.5t-86 -293.5z" />
<glyph unicode="e" horiz-adv-x="989" d="M100 471q0 225 116 359.5t302 134.5q166 0 266.5 -105.5t100.5 -310.5v-70h-672q8 -410 342 -409q139 0 236 96l69 -70q-119 -119 -309 -119q-213 0 -332 131.5t-119 362.5zM215 571h563v29q0 139 -70.5 209t-189.5 70q-123 0 -204 -86.5t-99 -221.5z" />
<glyph unicode="f" horiz-adv-x="665" d="M35 850v92h196v219q0 111 58.5 168t165.5 57q72 0 120 -20v-92q-41 20 -102 20q-70 0 -100.5 -32.5t-30.5 -108.5v-211h233v-92h-233v-850h-111v850h-196z" />
<glyph unicode="g" horiz-adv-x="1118" d="M100 471q0 229 114 361.5t292 132.5q227 0 330 -234v211h106v-932q0 -199 -115.5 -326.5t-312.5 -127.5q-213 0 -338 116l70 70q102 -96 264 -96q147 0 234 98t87 266v197q-43 -100 -124.5 -165t-200.5 -65q-180 0 -293 132.5t-113 361.5zM213 471q0 -186 86 -293.5 t223 -107.5t223 107.5t86 293.5t-86 293.5t-223 107.5t-223 -107.5t-86 -293.5z" />
<glyph unicode="h" horiz-adv-x="1105" d="M178 0v1366h109v-635q43 102 129 168t209 66q139 0 221 -89.5t82 -259.5v-616h-109v596q0 137 -58.5 204.5t-156.5 67.5q-143 0 -230 -105.5t-87 -268.5v-494h-109z" />
<glyph unicode="i" horiz-adv-x="466" d="M158 1217v149h149v-149h-149zM178 0v942h111v-942h-111z" />
<glyph unicode="j" horiz-adv-x="471" d="M-51 -332q41 -20 102 -20q70 0 100.5 32.5t30.5 108.5v1153h111v-1161q0 -111 -58.5 -168t-164.5 -57q-68 0 -121 20v92zM162 1217v149h149v-149h-149z" />
<glyph unicode="k" horiz-adv-x="919" d="M178 0v1366h109v-862l446 438h137l-477 -461l500 -481h-143l-463 457v-457h-109z" />
<glyph unicode="l" horiz-adv-x="466" d="M178 0v1366h111v-1366h-111z" />
<glyph unicode="m" horiz-adv-x="1615" d="M178 0v942h107v-215q94 238 307 238q109 0 177.5 -64.5t82.5 -183.5q39 111 123 179.5t194 68.5q125 0 198 -88.5t73 -260.5v-616h-111v596q0 272 -182 272q-127 0 -206 -109.5t-79 -258.5v-500h-108v596q0 272 -183 272q-127 0 -205.5 -109.5t-78.5 -258.5v-500h-109z " />
<glyph unicode="n" horiz-adv-x="1105" d="M178 0v942h107v-203q33 92 127 159t213 67q139 0 221 -89.5t82 -259.5v-616h-109v602q0 131 -59.5 200.5t-155.5 69.5q-139 0 -228 -104t-89 -262v-506h-109z" />
<glyph unicode="o" horiz-adv-x="1046" d="M100 471q0 229 117 361.5t305 132.5q190 0 307 -132.5t117 -361.5t-116.5 -361.5t-307.5 -132.5q-188 0 -305 132.5t-117 361.5zM213 471q0 -186 86 -293.5t223 -107.5t223 107.5t86 293.5t-86 293.5t-223 107.5t-223 -107.5t-86 -293.5z" />
<glyph unicode="p" horiz-adv-x="1118" d="M178 -424v1366h107v-211q98 233 327 234q180 0 294 -132.5t114 -361.5t-113.5 -361.5t-292.5 -132.5q-227 0 -327 230v-631h-109zM287 471q0 -186 86 -293.5t223 -107.5t223 107.5t86 293.5t-86 293.5t-223 107.5t-223 -107.5t-86 -293.5z" />
<glyph unicode="q" horiz-adv-x="1118" d="M100 471q0 229 114 361.5t292 132.5q227 0 330 -234v211h106v-1366h-111v631q-43 -100 -124.5 -165t-200.5 -65q-180 0 -293 132.5t-113 361.5zM213 471q0 -186 86 -293.5t223 -107.5t223 107.5t86 293.5t-86 293.5t-223 107.5t-223 -107.5t-86 -293.5z" />
<glyph unicode="r" horiz-adv-x="802" d="M178 0v942h107v-217q43 106 130 173t214 67q57 0 102 -23v-100q-53 27 -115 26q-150 0 -239.5 -106.5t-89.5 -272.5v-489h-109z" />
<glyph unicode="s" horiz-adv-x="878" d="M88 96l70 70q98 -98 264 -98q106 0 166.5 49t60.5 122.5t-53 117.5t-130 68l-154 49q-77 26 -130 85t-53 154q0 98 85 175t235 77q188 0 307 -119l-68 -70q-102 98 -237 98q-100 0 -154.5 -50t-54.5 -109q0 -72 53 -114t130 -64.5t153.5 -48t130 -86t53.5 -158.5 q0 -111 -90 -189t-252 -78q-207 0 -332 119z" />
<glyph unicode="t" horiz-adv-x="671" d="M35 850v92h196v287h111v-287h233v-92h-233v-637q0 -76 30.5 -109.5t100.5 -33.5q57 0 102 22v-92q-55 -23 -120 -23q-106 0 -165 58.5t-59 169.5v645h-196z" />
<glyph unicode="u" horiz-adv-x="1105" d="M178 326v616h109v-596q0 -137 58 -204.5t157 -67.5q143 0 230 105.5t87 269.5v493h109v-942h-107v215q-43 -104 -130 -171t-210 -67q-139 0 -221 89.5t-82 259.5z" />
<glyph unicode="v" horiz-adv-x="870" d="M27 942h120l289 -805l287 805h121l-357 -942h-104z" />
<glyph unicode="w" horiz-adv-x="1341" d="M31 942h110l238 -817l239 817h105l242 -817l237 817h111l-285 -942h-123l-233 797l-236 -797h-121z" />
<glyph unicode="x" horiz-adv-x="849" d="M33 0l327 481l-313 461h125l252 -389l252 389h123l-312 -461l330 -481h-129l-264 410l-262 -410h-129z" />
<glyph unicode="y" horiz-adv-x="870" d="M27 942h118l291 -811l289 811h119l-471 -1249q-51 -137 -205 -137q-72 0 -121 20v92q41 -20 103 -20q94 0 118 65l111 297z" />
<glyph unicode="z" horiz-adv-x="897" d="M92 0v66l543 784h-531v92h682v-68l-542 -782h557v-92h-709z" />
<glyph unicode="{" horiz-adv-x="696" d="M80 635v96h43q72 0 122 60.5t50 156.5v352q0 109 53 166.5t154 57.5q70 0 121 -23v-88q-47 20 -97 21q-66 0 -96.5 -34t-30.5 -108v-352q0 -104 -53 -175t-137 -83q84 -10 137 -81t53 -175v-352q0 -74 31 -108t96 -34q55 0 97 21v-90q-53 -20 -121 -21 q-100 0 -153.5 57.5t-53.5 166.5v352q0 96 -50 156.5t-122 60.5h-43z" />
<glyph unicode="|" horiz-adv-x="606" d="M260 -424v1790h86v-1790h-86z" />
<glyph unicode="}" horiz-adv-x="696" d="M74 -47q41 -20 96 -21q66 0 96.5 34t30.5 108v352q0 104 53 175t137 81q-84 12 -137 83t-53 175v352q0 74 -30.5 108t-96.5 34q-49 0 -96 -21v88q51 23 121 23q100 0 153 -57.5t53 -166.5v-352q0 -96 50.5 -156.5t121.5 -60.5h43v-96h-43q-72 0 -122 -60.5t-50 -156.5 v-352q0 -109 -53 -166.5t-153 -57.5q-68 0 -121 21v90z" />
<glyph unicode="~" horiz-adv-x="901" d="M113 557q76 76 115.5 102.5t99.5 26.5q70 0 139.5 -59.5t107.5 -59.5q31 0 64 24.5t92 84.5l60 -60q-78 -78 -118 -104.5t-98 -26.5q-72 0 -140 60.5t-107 60.5q-31 0 -63 -24.5t-93 -83.5z" />
<glyph unicode="&#xa1;" horiz-adv-x="548" d="M190 1198v168h168v-168h-168zM197 0l39 1010h77l39 -1010h-155z" />
<glyph unicode="&#xa2;" horiz-adv-x="937" d="M100 682q0 217 113 348t299 144v192h70v-192q154 -8 262 -117l-68 -68q-98 94 -221 94q-156 0 -248 -107.5t-92 -293.5q0 -184 92 -291.5t248 -107.5q123 0 221 94l68 -70q-106 -106 -262 -117v-190h-70v190q-186 12 -299 143.5t-113 348.5z" />
<glyph unicode="&#xa3;" horiz-adv-x="1052" d="M100 0v98h131v506h-131v70h131v348q0 164 96.5 268.5t274.5 104.5q186 0 336 -150l-76 -76q-125 121 -256 121q-121 0 -189.5 -73.5t-68.5 -192.5v-350h297v-70h-297v-506h586v-98h-834z" />
<glyph unicode="&#xa5;" horiz-adv-x="1103" d="M12 1366h144l397 -614l395 614h144l-404 -604h238v-72h-285l-29 -43v-155h314v-70h-314v-422h-118v422h-316v70h316v155l-31 43h-285v72h240z" />
<glyph unicode="&#xa6;" horiz-adv-x="606" d="M260 -137v717h86v-717h-86zM260 784v717h86v-717h-86z" />
<glyph unicode="&#xa7;" horiz-adv-x="1024" d="M129 451q0 123 83 216t226 103q-125 33 -199.5 112t-74.5 195q0 129 99 219t263 90q217 0 365 -143l-74 -74q-125 121 -282 121q-115 0 -183.5 -61.5t-68.5 -147.5q0 -94 63.5 -151.5t153.5 -87t179 -62t152.5 -104.5t63.5 -184q0 -123 -83 -216.5t-226 -103.5 q125 -33 199.5 -111.5t74.5 -195.5q0 -129 -99 -219t-263 -90q-215 0 -365 143l74 74q125 -121 282 -121q115 0 183.5 61.5t68.5 147.5q0 94 -63.5 151.5t-153.5 87t-179 62.5t-152.5 104.5t-63.5 184.5zM244 471q0 -102 66.5 -162.5t193.5 -60.5q127 -2 201.5 65.5 t74.5 161.5q0 102 -66.5 162.5t-193.5 60.5q-127 2 -201.5 -65.5t-74.5 -161.5z" />
<glyph unicode="&#xa8;" horiz-adv-x="471" d="M31 1217v149h149v-149h-149zM291 1217v149h149v-149h-149z" />
<glyph unicode="&#xa9;" horiz-adv-x="1597" d="M117 682q0 283 199.5 483.5t482 200.5t482.5 -200.5t200 -483.5t-200 -482.5t-482.5 -199.5t-482 199.5t-199.5 482.5zM186 682q0 -254 179.5 -433t433.5 -179t433 179t179 433t-179 434t-433 180t-433.5 -180t-179.5 -434zM473 682q0 180 94.5 292.5t253.5 112.5 q139 0 228 -88l-50 -47q-68 68 -174 68q-125 0 -197.5 -92t-72.5 -246q0 -152 72.5 -245t197.5 -93q109 0 174 70l50 -47q-90 -90 -228 -91q-160 0 -254 114t-94 292z" />
<glyph unicode="&#xaa;" horiz-adv-x="763" d="M88 879q0 88 69.5 146t207.5 58h165v52q0 172 -163 172q-92 0 -166 -64l-56 55q106 82 230 82q117 0 180 -62.5t63 -178.5v-434h-86v120q-68 -135 -235 -135q-94 0 -151.5 53.5t-57.5 135.5zM178 885q0 -53 37 -87t100 -34q98 0 156.5 64.5t58.5 170.5v17h-157 q-98 0 -146.5 -38t-48.5 -93z" />
<glyph unicode="&#xab;" horiz-adv-x="768" d="M129 471l190 383h111l-190 -383l190 -383h-111zM362 471l191 383h111l-191 -383l191 -383h-111z" />
<glyph unicode="&#xad;" horiz-adv-x="702" d="M119 467v90h465v-90h-465z" />
<glyph unicode="&#xae;" horiz-adv-x="1597" d="M117 682q0 283 199.5 483.5t482 200.5t482.5 -200.5t200 -483.5t-200 -482.5t-482.5 -199.5t-482 199.5t-199.5 482.5zM186 682q0 -254 179.5 -433t433.5 -179t433 179t179 433t-179 434t-433 180t-433.5 -180t-179.5 -434zM555 293v778h221q121 0 183.5 -55t62.5 -148 q0 -68 -40 -119t-110 -69q98 -14 125 -125l60 -262h-82l-55 246q-14 59 -47 83.5t-97 24.5h-141v-354h-80zM635 719h147q72 0 115 39t43 106q0 66 -43 103t-115 37h-147v-285z" />
<glyph unicode="&#xaf;" horiz-adv-x="614" d="M113 1231v82h389v-82h-389z" />
<glyph unicode="&#xb0;" horiz-adv-x="616" d="M68 1145q0 100 70.5 170.5t170.5 70.5q98 0 169 -70.5t71 -170.5q0 -98 -70.5 -169t-169.5 -71q-100 0 -170.5 71t-70.5 169zM145 1145q0 -68 47.5 -116t116.5 -48q68 0 116 48t48 116q0 70 -48 117t-116 47q-70 0 -117 -47t-47 -117z" />
<glyph unicode="&#xb1;" horiz-adv-x="1064" d="M129 104v93h807v-93h-807zM129 823v92h358v357h91v-357h358v-92h-358v-356h-91v356h-358z" />
<glyph unicode="&#xb2;" horiz-adv-x="937" d="M176 446v54q254 225 354.5 358t100.5 262q0 78 -51.5 127t-126.5 49q-111 0 -195 -77l-59 59q106 96 254 96q123 0 196.5 -68.5t73.5 -181.5q0 -98 -49 -193t-129 -182t-232 -225h455v-78h-592z" />
<glyph unicode="&#xb3;" horiz-adv-x="937" d="M160 528l57 60q94 -78 213 -78q94 0 154.5 51t60.5 121q0 78 -60.5 132t-152.5 54h-121v78h107q92 0 151.5 50.5t59.5 127.5q0 72 -50.5 122t-132.5 50q-109 0 -194 -77l-59 59q106 96 256 96q123 0 196.5 -67.5t73.5 -178.5q0 -78 -49 -136t-117 -79q92 -25 139 -88 t47 -145q0 -104 -82 -176t-223 -72q-161 0 -274 96z" />
<glyph unicode="&#xb4;" horiz-adv-x="475" d="M131 1075l135 291h150l-213 -291h-72z" />
<glyph unicode="&#xb5;" horiz-adv-x="1105" d="M178 -424v1366h109v-596q0 -137 58 -204.5t157 -67.5q143 0 230 105.5t87 269.5v493h109v-942h-107v215q-43 -104 -129 -171t-207 -67q-158 0 -198 119v-520h-109z" />
<glyph unicode="&#x3bc;" horiz-adv-x="1105" d="M178 -424v1366h109v-596q0 -137 58 -204.5t157 -67.5q143 0 230 105.5t87 269.5v493h109v-942h-107v215q-43 -104 -129 -171t-207 -67q-158 0 -198 119v-520h-109z" />
<glyph unicode="&#xb6;" horiz-adv-x="1017" d="M63 989q0 156 110 266.5t265 110.5h332v-1790h-108v1698h-115v-1698h-109v1038q-156 0 -265.5 110.5t-109.5 264.5z" />
<glyph unicode="&#xb7;" horiz-adv-x="499" d="M166 465v166h168v-166h-168z" />
<glyph unicode="&#xb8;" horiz-adv-x="641" d="M133 -295l45 43q55 -55 123 -55q47 0 76 25.5t29 56.5q0 41 -37 69.5t-105 28.5l66 127h73l-43 -86q55 -8 90 -46t35 -83q0 -63 -48 -107.5t-134 -44.5q-98 0 -170 72z" />
<glyph unicode="&#xb9;" horiz-adv-x="937" d="M215 1165v80q174 20 277 123h61v-922h-90v814q-70 -70 -248 -95z" />
<glyph unicode="&#xba;" horiz-adv-x="800" d="M98 1034q0 160 84 253t219 93q133 0 217 -93t84 -253q0 -158 -83.5 -251t-217.5 -93q-135 0 -219 93t-84 251zM188 1034q0 -129 57.5 -199.5t155.5 -70.5q96 0 153.5 70.5t57.5 199.5q0 131 -57 202t-154 71q-98 0 -155.5 -71t-57.5 -202z" />
<glyph unicode="&#xbb;" horiz-adv-x="768" d="M104 88l193 383l-193 383h111l193 -383l-193 -383h-111zM338 88l192 383l-192 383h111l192 -383l-192 -383h-111z" />
<glyph unicode="&#xbc;" horiz-adv-x="1951" d="M215 1165v80q174 20 277 123h61v-922h-90v814q-70 -70 -248 -95zM459 0l956 1366h103l-957 -1366h-102zM1135 236v69l415 606h88v-598h146v-77h-146v-236h-86v236h-417zM1233 313h319v473z" />
<glyph unicode="&#xbd;" horiz-adv-x="1951" d="M215 1165v80q174 20 277 123h61v-922h-90v814q-70 -70 -248 -95zM446 0l957 1366h100l-954 -1366h-103zM1208 0v55q254 223 354.5 356.5t100.5 262.5q0 78 -50 127t-128 49q-109 0 -195 -76l-59 57q106 96 254 97q123 0 196.5 -68.5t73.5 -181.5q0 -98 -49 -193.5 t-129 -182.5t-231 -224h454v-78h-592z" />
<glyph unicode="&#xbe;" horiz-adv-x="1951" d="M160 528l57 60q94 -78 213 -78q94 0 154.5 51t60.5 121q0 78 -60.5 132t-152.5 54h-121v78h107q92 0 151.5 50.5t59.5 127.5q0 72 -50.5 122t-132.5 50q-109 0 -194 -77l-59 59q106 96 256 96q123 0 196.5 -67.5t73.5 -178.5q0 -78 -49 -136t-117 -79q92 -25 139 -88 t47 -145q0 -104 -82 -176t-223 -72q-161 0 -274 96zM459 0l956 1366h103l-957 -1366h-102zM1135 236v69l415 606h88v-598h146v-77h-146v-236h-86v236h-417zM1233 313h319v473z" />
<glyph unicode="&#xbf;" horiz-adv-x="907" d="M92 326q0 94 40 167.5t97 126.5l115 102q57 50 97 123t40 165h107q0 -90 -28 -163t-68.5 -118t-89.5 -91l-89 -84q-41 -38 -68.5 -95.5t-27.5 -124.5q0 -115 80 -187.5t199 -72.5q154 0 280 123l76 -76q-152 -147 -363 -148q-174 0 -285.5 100.5t-111.5 252.5zM451 1198 v168h165v-168h-165z" />
<glyph unicode="&#xc0;" horiz-adv-x="1140" d="M25 0l493 1366h107l491 -1366h-121l-131 373h-588l-129 -373h-122zM309 469h522l-260 741zM371 1776h149l135 -291h-71z" />
<glyph unicode="&#xc1;" horiz-adv-x="1140" d="M25 0l493 1366h107l491 -1366h-121l-131 373h-588l-129 -373h-122zM309 469h522l-260 741zM485 1485l136 291h149l-213 -291h-72z" />
<glyph unicode="&#xc2;" horiz-adv-x="1140" d="M25 0l493 1366h107l491 -1366h-121l-131 373h-588l-129 -373h-122zM309 469h522l-260 741zM377 1485l147 291h88l150 -291h-90l-103 207l-104 -207h-88z" />
<glyph unicode="&#xc3;" horiz-adv-x="1140" d="M25 0l493 1366h107l491 -1366h-121l-131 373h-588l-129 -373h-122zM262 1587q0 74 57.5 124t133.5 50q72 0 139 -60.5t108 -60.5q39 0 71 28t32 67h86q0 -74 -56.5 -124t-132.5 -50q-57 0 -100 29.5t-77 59t-70 29.5q-41 0 -73 -26.5t-32 -65.5h-86zM309 469h522 l-260 741z" />
<glyph unicode="&#xc4;" horiz-adv-x="1140" d="M25 0l493 1366h107l491 -1366h-121l-131 373h-588l-129 -373h-122zM309 469h522l-260 741zM365 1626v150h149v-150h-149zM625 1626v150h149v-150h-149z" />
<glyph unicode="&#xc5;" horiz-adv-x="1140" d="M25 0l493 1366h107l491 -1366h-121l-131 373h-588l-129 -373h-122zM309 469h522l-260 741zM416 1648.5q0 63.5 46 109.5t109.5 46t109.5 -46t46 -109.5t-46 -109.5t-109.5 -46t-109.5 46t-46 109.5zM467 1649q0 -43 30.5 -74t73.5 -31t73 31t30 74t-30 72.5t-73 29.5 t-73.5 -29.5t-30.5 -72.5z" />
<glyph unicode="&#xc6;" horiz-adv-x="1579" d="M-68 0l795 1366h705v-100h-553v-527h540v-98h-540v-543h567v-98h-682v371h-483l-209 -371h-140zM336 469h428v754z" />
<glyph unicode="&#xc7;" horiz-adv-x="1187" d="M113 682q0 313 161.5 513t442.5 200q201 0 358 -123v-123q-156 141 -350 141q-227 0 -357 -168t-130 -440q0 -270 130 -439t357 -169q197 0 350 143v-123q-139 -115 -332 -123l-28 -57q55 -8 90 -46t35 -83q0 -66 -48.5 -109t-134.5 -43q-98 0 -170 72l45 43 q55 -55 123 -55q47 0 76 25.5t29 56.5q0 41 -37 69.5t-105 28.5l52 100q-260 16 -408.5 213t-148.5 496z" />
<glyph unicode="&#xc8;" horiz-adv-x="1021" d="M203 0v1366h671v-100h-552v-527h538v-98h-538v-543h567v-98h-686zM315 1776h150l135 -291h-72z" />
<glyph unicode="&#xc9;" horiz-adv-x="1021" d="M203 0v1366h671v-100h-552v-527h538v-98h-538v-543h567v-98h-686zM469 1485l135 291h150l-213 -291h-72z" />
<glyph unicode="&#xca;" horiz-adv-x="1021" d="M203 0v1366h671v-100h-552v-527h538v-98h-538v-543h567v-98h-686zM342 1485l147 291h89l149 -291h-90l-102 207l-105 -207h-88z" />
<glyph unicode="&#xcb;" horiz-adv-x="1021" d="M203 0v1366h671v-100h-552v-527h538v-98h-538v-543h567v-98h-686zM344 1626v150h150v-150h-150zM604 1626v150h150v-150h-150z" />
<glyph unicode="&#xcc;" horiz-adv-x="524" d="M78 1776h149l135 -291h-71zM203 0v1366h119v-1366h-119z" />
<glyph unicode="&#xcd;" horiz-adv-x="524" d="M160 1485l135 291h149l-213 -291h-71zM203 0v1366h119v-1366h-119z" />
<glyph unicode="&#xce;" horiz-adv-x="524" d="M70 1485l147 291h88l150 -291h-90l-103 207l-104 -207h-88zM203 0v1366h119v-1366h-119z" />
<glyph unicode="&#xcf;" horiz-adv-x="524" d="M55 1626v150h150v-150h-150zM203 0v1366h119v-1366h-119zM315 1626v150h150v-150h-150z" />
<glyph unicode="&#xd0;" horiz-adv-x="1318" d="M33 639v86h178v641h324q307 0 489 -185.5t182 -498.5q0 -311 -182 -496.5t-489 -185.5h-324v639h-178zM330 98h202q246 0 397.5 159t151.5 425t-151.5 425t-397.5 159h-202v-541h176v-86h-176v-541z" />
<glyph unicode="&#xd1;" horiz-adv-x="1325" d="M203 0v1366h131l676 -1180v1180h114v-1366h-133l-676 1178v-1178h-112zM346 1587q0 74 57.5 124t133.5 50q72 0 139 -60.5t108 -60.5q39 0 71 28t32 67h86q0 -74 -56.5 -124t-132.5 -50q-57 0 -100 29.5t-77 59t-70 29.5q-41 0 -73 -26.5t-32 -65.5h-86z" />
<glyph unicode="&#xd2;" horiz-adv-x="1366" d="M113 682q0 315 152.5 514t416.5 199q266 0 418.5 -199t152.5 -514t-152.5 -513t-418.5 -198q-264 0 -416.5 198t-152.5 513zM238 682q0 -272 117.5 -440t326.5 -168q211 0 328.5 167t117.5 441t-117.5 441t-328.5 167q-209 0 -326.5 -168t-117.5 -440zM461 1776h149 l135 -291h-71z" />
<glyph unicode="&#xd3;" horiz-adv-x="1366" d="M113 682q0 315 152.5 514t416.5 199q266 0 418.5 -199t152.5 -514t-152.5 -513t-418.5 -198q-264 0 -416.5 198t-152.5 513zM238 682q0 -272 117.5 -440t326.5 -168q211 0 328.5 167t117.5 441t-117.5 441t-328.5 167q-209 0 -326.5 -168t-117.5 -440zM621 1485l135 291 h149l-213 -291h-71z" />
<glyph unicode="&#xd4;" horiz-adv-x="1366" d="M113 682q0 315 152.5 514t416.5 199q266 0 418.5 -199t152.5 -514t-152.5 -513t-418.5 -198q-264 0 -416.5 198t-152.5 513zM238 682q0 -272 117.5 -440t326.5 -168q211 0 328.5 167t117.5 441t-117.5 441t-328.5 167q-209 0 -326.5 -168t-117.5 -440zM496 1485l147 291 h88l150 -291h-90l-103 207l-104 -207h-88z" />
<glyph unicode="&#xd5;" horiz-adv-x="1366" d="M113 682q0 315 152.5 514t416.5 199q266 0 418.5 -199t152.5 -514t-152.5 -513t-418.5 -198q-264 0 -416.5 198t-152.5 513zM238 682q0 -272 117.5 -440t326.5 -168q211 0 328.5 167t117.5 441t-117.5 441t-328.5 167q-209 0 -326.5 -168t-117.5 -440zM373 1587 q0 74 57 124t133 50q72 0 139.5 -60.5t108.5 -60.5q39 0 70.5 28t31.5 67h86q0 -74 -56 -124t-132 -50q-57 0 -100 29.5t-77 59t-71 29.5q-41 0 -72.5 -26.5t-31.5 -65.5h-86z" />
<glyph unicode="&#xd6;" horiz-adv-x="1366" d="M113 682q0 315 152.5 514t416.5 199q266 0 418.5 -199t152.5 -514t-152.5 -513t-418.5 -198q-264 0 -416.5 198t-152.5 513zM238 682q0 -272 117.5 -440t326.5 -168q211 0 328.5 167t117.5 441t-117.5 441t-328.5 167q-209 0 -326.5 -168t-117.5 -440zM477 1626v150h150 v-150h-150zM737 1626v150h150v-150h-150z" />
<glyph unicode="&#xd7;" horiz-adv-x="1064" d="M168 371l299 299l-299 299l65 63l299 -299l299 299l66 -63l-299 -299l299 -299l-66 -66l-299 299l-299 -299z" />
<glyph unicode="&#xd8;" horiz-adv-x="1366" d="M113 682q0 315 152.5 514t416.5 199q195 0 336 -113l96 152h92l-131 -207q178 -195 178 -545q0 -315 -152.5 -513t-418.5 -198q-193 0 -334 113l-96 -152h-92l131 207q-178 195 -178 543zM238 682q0 -274 118 -440l600 944q-111 104 -274 104q-209 0 -326.5 -168 t-117.5 -440zM410 180q113 -106 272 -106q211 0 328.5 167t117.5 441q0 276 -118 442z" />
<glyph unicode="&#xd9;" horiz-adv-x="1308" d="M203 449v917h119v-917q0 -197 83.5 -286t249.5 -89t249 88t83 287v917h121v-917q0 -242 -117 -360t-336 -118t-335.5 118t-116.5 360zM436 1776h150l135 -291h-72z" />
<glyph unicode="&#xda;" horiz-adv-x="1308" d="M203 449v917h119v-917q0 -197 83.5 -286t249.5 -89t249 88t83 287v917h121v-917q0 -242 -117 -360t-336 -118t-335.5 118t-116.5 360zM588 1485l135 291h149l-213 -291h-71z" />
<glyph unicode="&#xdb;" horiz-adv-x="1308" d="M203 449v917h119v-917q0 -197 83.5 -286t249.5 -89t249 88t83 287v917h121v-917q0 -242 -117 -360t-336 -118t-335.5 118t-116.5 360zM461 1485l147 291h88l150 -291h-90l-103 207l-104 -207h-88z" />
<glyph unicode="&#xdc;" horiz-adv-x="1308" d="M203 449v917h119v-917q0 -197 83.5 -286t249.5 -89t249 88t83 287v917h121v-917q0 -242 -117 -360t-336 -118t-335.5 118t-116.5 360zM449 1626v150h149v-150h-149zM709 1626v150h149v-150h-149z" />
<glyph unicode="&#xdd;" horiz-adv-x="1103" d="M12 1366h144l397 -614l395 614h144l-480 -719v-647h-118v647zM487 1485l136 291h149l-213 -291h-72z" />
<glyph unicode="&#xde;" horiz-adv-x="1110" d="M203 0v1366h119v-311h278q174 0 287.5 -107.5t113.5 -265.5t-113.5 -265.5t-287.5 -107.5h-278v-309h-119zM322 410h270q121 0 203 78.5t82 193.5t-82 194.5t-203 79.5h-270v-546z" />
<glyph unicode="&#xdf;" horiz-adv-x="1095" d="M178 0v1001q0 168 102.5 276.5t272.5 108.5q162 0 262 -96t100 -248q0 -106 -57 -194t-156 -119q125 -23 204 -116t79 -234q0 -184 -108.5 -291.5t-292.5 -107.5q-104 0 -176 53v102q80 -61 172 -61q129 0 209.5 83t80.5 216q0 135 -80.5 218t-209.5 83h-140v92h109 q113 0 182.5 79t69.5 185q0 115 -73 188.5t-181 73.5q-119 0 -189.5 -83t-70.5 -205v-1004h-109z" />
<glyph unicode="&#xe0;" horiz-adv-x="1026" d="M109 248q0 127 100 208t289 81h241v77q0 258 -250 258q-135 0 -247 -96l-70 70q154 119 328 119q168 0 259 -89.5t91 -254.5v-621h-107v184q-45 -88 -132 -147.5t-210 -59.5q-131 0 -211.5 77t-80.5 194zM221 256q0 -80 56.5 -131t148.5 -51q133 0 223 101t90 245v26 h-231q-147 0 -217 -53t-70 -137zM293 1366h149l136 -291h-72z" />
<glyph unicode="&#xe1;" horiz-adv-x="1026" d="M109 248q0 127 100 208t289 81h241v77q0 258 -250 258q-135 0 -247 -96l-70 70q154 119 328 119q168 0 259 -89.5t91 -254.5v-621h-107v184q-45 -88 -132 -147.5t-210 -59.5q-131 0 -211.5 77t-80.5 194zM221 256q0 -80 56.5 -131t148.5 -51q133 0 223 101t90 245v26 h-231q-147 0 -217 -53t-70 -137zM444 1075l136 291h149l-213 -291h-72z" />
<glyph unicode="&#xe2;" horiz-adv-x="1026" d="M109 248q0 127 100 208t289 81h241v77q0 258 -250 258q-135 0 -247 -96l-70 70q154 119 328 119q168 0 259 -89.5t91 -254.5v-621h-107v184q-45 -88 -132 -147.5t-210 -59.5q-131 0 -211.5 77t-80.5 194zM221 256q0 -80 56.5 -131t148.5 -51q133 0 223 101t90 245v26 h-231q-147 0 -217 -53t-70 -137zM309 1075l148 291h88l149 -291h-90l-102 207l-105 -207h-88z" />
<glyph unicode="&#xe3;" horiz-adv-x="1026" d="M109 248q0 127 100 208t289 81h241v77q0 258 -250 258q-135 0 -247 -96l-70 70q154 119 328 119q168 0 259 -89.5t91 -254.5v-621h-107v184q-45 -88 -132 -147.5t-210 -59.5q-131 0 -211.5 77t-80.5 194zM190 1178q0 74 57.5 124t133.5 50q72 0 139.5 -60.5t108.5 -60.5 q39 0 70.5 27.5t31.5 66.5h86q0 -74 -56 -124t-132 -50q-57 0 -100.5 29.5t-77 59.5t-70.5 30q-41 0 -73 -26.5t-32 -65.5h-86zM221 256q0 -80 56.5 -131t148.5 -51q133 0 223 101t90 245v26h-231q-147 0 -217 -53t-70 -137z" />
<glyph unicode="&#xe4;" horiz-adv-x="1026" d="M109 248q0 127 100 208t289 81h241v77q0 258 -250 258q-135 0 -247 -96l-70 70q154 119 328 119q168 0 259 -89.5t91 -254.5v-621h-107v184q-45 -88 -132 -147.5t-210 -59.5q-131 0 -211.5 77t-80.5 194zM221 256q0 -80 56.5 -131t148.5 -51q133 0 223 101t90 245v26 h-231q-147 0 -217 -53t-70 -137zM299 1217v149h150v-149h-150zM559 1217v149h150v-149h-150z" />
<glyph unicode="&#xe5;" horiz-adv-x="1026" d="M109 248q0 127 100 208t289 81h241v77q0 258 -250 258q-135 0 -247 -96l-70 70q154 119 328 119q168 0 259 -89.5t91 -254.5v-621h-107v184q-45 -88 -132 -147.5t-210 -59.5q-131 0 -211.5 77t-80.5 194zM221 256q0 -80 56.5 -131t148.5 -51q133 0 223 101t90 245v26 h-231q-147 0 -217 -53t-70 -137zM354 1239.5q0 63.5 46 109.5t109.5 46t110 -46t46.5 -109.5t-46.5 -110t-110 -46.5t-109.5 46.5t-46 110zM406 1239q0 -43 30.5 -73.5t73.5 -30.5t72.5 30.5t29.5 73.5t-29.5 72.5t-72.5 29.5t-73.5 -29.5t-30.5 -72.5z" />
<glyph unicode="&#xe6;" horiz-adv-x="1626" d="M109 260q0 135 100 215t289 80h241v59q0 258 -250 258q-135 0 -247 -96l-70 70q154 119 328 119q123 0 209 -60.5t108 -167.5q43 109 131 168.5t207 59.5q168 0 268.5 -105.5t100.5 -310.5v-84h-674q6 -197 95 -296t247 -99q141 0 238 96l69 -70q-119 -119 -311 -119 q-156 0 -259.5 75t-144.5 214q-31 -123 -131 -206t-245 -83q-137 0 -218 81t-81 202zM221 268q0 -86 55.5 -140t149.5 -54q133 0 223 101t90 245v45h-231q-150 0 -218.5 -54.5t-68.5 -142.5zM852 557h565v43q0 139 -71.5 209t-190.5 70q-123 0 -205 -87.5t-98 -234.5z" />
<glyph unicode="&#xe7;" horiz-adv-x="948" d="M100 471q0 225 115 359.5t303 134.5q164 0 252 -78t88 -193v-24h-106v24q0 76 -60.5 128t-173.5 52q-137 0 -220 -107.5t-83 -291.5q0 -188 88 -296.5t232 -108.5q88 0 149 29.5t123 90.5l67 -67q-129 -133 -313 -143l-33 -66q55 -8 89 -46t34 -83q0 -66 -47 -109 t-133 -43q-98 0 -170 72l45 43q55 -55 123 -55q47 0 75.5 25.5t28.5 56.5q0 41 -36.5 69.5t-104.5 28.5l53 107q-174 14 -279.5 145t-105.5 346z" />
<glyph unicode="&#xe8;" horiz-adv-x="989" d="M100 471q0 225 116 359.5t302 134.5q166 0 266.5 -105.5t100.5 -310.5v-70h-672q8 -410 342 -409q139 0 236 96l69 -70q-119 -119 -309 -119q-213 0 -332 131.5t-119 362.5zM215 571h563v29q0 139 -70.5 209t-189.5 70q-123 0 -204 -86.5t-99 -221.5zM301 1366h150 l135 -291h-72z" />
<glyph unicode="&#xe9;" horiz-adv-x="989" d="M100 471q0 225 116 359.5t302 134.5q166 0 266.5 -105.5t100.5 -310.5v-70h-672q8 -410 342 -409q139 0 236 96l69 -70q-119 -119 -309 -119q-213 0 -332 131.5t-119 362.5zM215 571h563v29q0 139 -70.5 209t-189.5 70q-123 0 -204 -86.5t-99 -221.5zM451 1075l135 291 h149l-213 -291h-71z" />
<glyph unicode="&#xea;" horiz-adv-x="989" d="M100 471q0 225 116 359.5t302 134.5q166 0 266.5 -105.5t100.5 -310.5v-70h-672q8 -410 342 -409q139 0 236 96l69 -70q-119 -119 -309 -119q-213 0 -332 131.5t-119 362.5zM215 571h563v29q0 139 -70.5 209t-189.5 70q-123 0 -204 -86.5t-99 -221.5zM326 1075l147 291 h88l150 -291h-90l-103 207l-104 -207h-88z" />
<glyph unicode="&#xeb;" horiz-adv-x="989" d="M100 471q0 225 116 359.5t302 134.5q166 0 266.5 -105.5t100.5 -310.5v-70h-672q8 -410 342 -409q139 0 236 96l69 -70q-119 -119 -309 -119q-213 0 -332 131.5t-119 362.5zM215 571h563v29q0 139 -70.5 209t-189.5 70q-123 0 -204 -86.5t-99 -221.5zM301 1217v149h150 v-149h-150zM561 1217v149h150v-149h-150z" />
<glyph unicode="&#xec;" horiz-adv-x="466" d="M43 1366h150l135 -291h-72zM178 0v942h111v-942h-111z" />
<glyph unicode="&#xed;" horiz-adv-x="466" d="M141 1075l135 291h150l-213 -291h-72zM178 0v942h111v-942h-111z" />
<glyph unicode="&#xee;" horiz-adv-x="466" d="M41 1075l147 291h88l150 -291h-90l-103 207l-104 -207h-88zM178 0v942h111v-942h-111z" />
<glyph unicode="&#xef;" horiz-adv-x="466" d="M29 1217v149h149v-149h-149zM178 0v942h111v-942h-111zM289 1217v149h149v-149h-149z" />
<glyph unicode="&#xf0;" horiz-adv-x="1046" d="M100 406q0 180 113 302.5t297 122.5q195 0 297 -161q-76 223 -283 424l-176 -156l-55 61l168 152q-125 102 -246 160l78 75q125 -59 248 -165l184 165l57 -61l-180 -162q158 -156 251 -350.5t93 -392.5q0 -188 -115.5 -315.5t-308.5 -127.5q-190 0 -306 123.5t-116 305.5 zM213 405.5q0 -145.5 88 -240.5t221 -95q135 0 222 95t87 240.5t-87 241.5t-222 96q-133 0 -221 -96t-88 -241.5z" />
<glyph unicode="&#xf1;" horiz-adv-x="1105" d="M178 0v942h107v-203q33 92 127 159t213 67q139 0 221 -89.5t82 -259.5v-616h-109v602q0 131 -59.5 200.5t-155.5 69.5q-139 0 -228 -104t-89 -262v-506h-109zM229 1178q0 74 57.5 124t133.5 50q72 0 139.5 -60.5t108.5 -60.5q39 0 70.5 27.5t31.5 66.5h86 q0 -74 -56.5 -124t-131.5 -50q-57 0 -100.5 29.5t-77 59.5t-70.5 30q-41 0 -73 -26.5t-32 -65.5h-86z" />
<glyph unicode="&#xf2;" horiz-adv-x="1046" d="M100 471q0 229 117 361.5t305 132.5q190 0 307 -132.5t117 -361.5t-116.5 -361.5t-307.5 -132.5q-188 0 -305 132.5t-117 361.5zM213 471q0 -186 86 -293.5t223 -107.5t223 107.5t86 293.5t-86 293.5t-223 107.5t-223 -107.5t-86 -293.5zM307 1366h150l135 -291h-72z" />
<glyph unicode="&#xf3;" horiz-adv-x="1046" d="M100 471q0 229 117 361.5t305 132.5q190 0 307 -132.5t117 -361.5t-116.5 -361.5t-307.5 -132.5q-188 0 -305 132.5t-117 361.5zM213 471q0 -186 86 -293.5t223 -107.5t223 107.5t86 293.5t-86 293.5t-223 107.5t-223 -107.5t-86 -293.5zM457 1075l135 291h149l-213 -291 h-71z" />
<glyph unicode="&#xf4;" horiz-adv-x="1046" d="M100 471q0 229 117 361.5t305 132.5q190 0 307 -132.5t117 -361.5t-116.5 -361.5t-307.5 -132.5q-188 0 -305 132.5t-117 361.5zM213 471q0 -186 86 -293.5t223 -107.5t223 107.5t86 293.5t-86 293.5t-223 107.5t-223 -107.5t-86 -293.5zM332 1075l147 291h88l150 -291 h-90l-103 207l-104 -207h-88z" />
<glyph unicode="&#xf5;" horiz-adv-x="1046" d="M100 471q0 229 117 361.5t305 132.5q190 0 307 -132.5t117 -361.5t-116.5 -361.5t-307.5 -132.5q-188 0 -305 132.5t-117 361.5zM213 471q0 -186 86 -293.5t223 -107.5t223 107.5t86 293.5t-86 293.5t-223 107.5t-223 -107.5t-86 -293.5zM213 1178q0 74 57.5 124 t132.5 50q72 0 139.5 -60.5t108.5 -60.5q39 0 71 27.5t32 66.5h86q0 -74 -56.5 -124t-132.5 -50q-57 0 -100 29.5t-77 59.5t-71 30q-41 0 -72.5 -26.5t-31.5 -65.5h-86z" />
<glyph unicode="&#xf6;" horiz-adv-x="1046" d="M100 471q0 229 117 361.5t305 132.5q190 0 307 -132.5t117 -361.5t-116.5 -361.5t-307.5 -132.5q-188 0 -305 132.5t-117 361.5zM213 471q0 -186 86 -293.5t223 -107.5t223 107.5t86 293.5t-86 293.5t-223 107.5t-223 -107.5t-86 -293.5zM319 1217v149h150v-149h-150z M580 1217v149h149v-149h-149z" />
<glyph unicode="&#xf7;" horiz-adv-x="1064" d="M129 623v92h807v-92h-807zM457 260v152h151v-152h-151zM457 926v153h151v-153h-151z" />
<glyph unicode="&#xf8;" horiz-adv-x="1046" d="M100 471q0 229 117 361.5t305 132.5q129 0 230 -66l69 111h82l-96 -154q139 -135 139 -385q0 -229 -116.5 -361.5t-307.5 -132.5q-131 0 -227 66l-70 -111h-84l99 154q-140 135 -140 385zM213 471q0 -184 84 -291l399 635q-74 57 -174 57q-137 0 -223 -107.5t-86 -293.5z M348 129q76 -59 174 -59q137 0 223 107.5t86 293.5q0 184 -83 291z" />
<glyph unicode="&#xf9;" horiz-adv-x="1105" d="M178 326v616h109v-596q0 -137 58 -204.5t157 -67.5q143 0 230 105.5t87 269.5v493h109v-942h-107v215q-43 -104 -130 -171t-210 -67q-139 0 -221 89.5t-82 259.5zM338 1366h149l136 -291h-72z" />
<glyph unicode="&#xfa;" horiz-adv-x="1105" d="M178 326v616h109v-596q0 -137 58 -204.5t157 -67.5q143 0 230 105.5t87 269.5v493h109v-942h-107v215q-43 -104 -130 -171t-210 -67q-139 0 -221 89.5t-82 259.5zM485 1075l136 291h149l-213 -291h-72z" />
<glyph unicode="&#xfb;" horiz-adv-x="1105" d="M178 326v616h109v-596q0 -137 58 -204.5t157 -67.5q143 0 230 105.5t87 269.5v493h109v-942h-107v215q-43 -104 -130 -171t-210 -67q-139 0 -221 89.5t-82 259.5zM360 1075l148 291h88l149 -291h-90l-102 207l-104 -207h-89z" />
<glyph unicode="&#xfc;" horiz-adv-x="1105" d="M178 326v616h109v-596q0 -137 58 -204.5t157 -67.5q143 0 230 105.5t87 269.5v493h109v-942h-107v215q-43 -104 -130 -171t-210 -67q-139 0 -221 89.5t-82 259.5zM348 1217v149h150v-149h-150zM608 1217v149h150v-149h-150z" />
<glyph unicode="&#xfd;" horiz-adv-x="870" d="M27 942h118l291 -811l289 811h119l-471 -1249q-51 -137 -205 -137q-72 0 -121 20v92q41 -20 103 -20q94 0 118 65l111 297zM362 1075l136 291h149l-213 -291h-72z" />
<glyph unicode="&#xfe;" horiz-adv-x="1118" d="M178 -424v1790h109v-631q100 229 327 230q178 0 292 -132.5t114 -361.5t-113.5 -361.5t-292.5 -132.5q-227 0 -327 230v-631h-109zM287 471q0 -186 86 -293.5t223 -107.5t223 107.5t86 293.5t-86 293.5t-223 107.5t-223 -107.5t-86 -293.5z" />
<glyph unicode="&#xff;" horiz-adv-x="870" d="M27 942h118l291 -811l289 811h119l-471 -1249q-51 -137 -205 -137q-72 0 -121 20v92q41 -20 103 -20q94 0 118 65l111 297zM229 1217v149h150v-149h-150zM489 1217v149h150v-149h-150z" />
<glyph unicode="&#x152;" horiz-adv-x="1947" d="M113 682q0 315 150.5 514t410.5 199q158 0 276.5 -85t177.5 -231v287h672v-100h-553v-527h539v-98h-539v-543h568v-98h-687v287q-59 -147 -176.5 -231.5t-277.5 -84.5q-260 0 -410.5 199t-150.5 512zM238 682q0 -272 117.5 -440t326.5 -168q211 0 328.5 167t117.5 441 t-117.5 441t-328.5 167q-209 0 -326.5 -168t-117.5 -440z" />
<glyph unicode="&#x153;" horiz-adv-x="1720" d="M100 471q0 227 116 360.5t302 133.5q133 0 233.5 -77t137.5 -208q39 133 135 209t225 76q168 0 268.5 -105.5t100.5 -310.5v-70h-674q8 -410 344 -409q139 0 236 96l69 -70q-119 -119 -311 -119q-145 0 -248.5 77t-142.5 208q-41 -133 -139.5 -209t-233.5 -76 q-186 0 -302 133.5t-116 360.5zM213 471q0 -186 86 -293.5t223 -107.5t223 107.5t86 293.5t-86 293.5t-223 107.5t-223 -107.5t-86 -293.5zM948 571h563v29q0 139 -71.5 209t-190.5 70q-123 0 -203 -86.5t-98 -221.5z" />
<glyph unicode="&#x178;" horiz-adv-x="1103" d="M12 1366h144l397 -614l395 614h144l-480 -719v-647h-118v647zM346 1626v150h150v-150h-150zM606 1626v150h150v-150h-150z" />
<glyph unicode="&#x2c6;" horiz-adv-x="475" d="M45 1075l148 291h88l149 -291h-90l-102 207l-105 -207h-88z" />
<glyph unicode="&#x2dc;" horiz-adv-x="778" d="M76 1178q0 74 57 124t133 50q72 0 139.5 -60.5t108.5 -60.5q39 0 70.5 27.5t31.5 66.5h86q0 -74 -56 -124t-132 -50q-57 0 -100 29.5t-77 59.5t-71 30q-41 0 -72.5 -26.5t-31.5 -65.5h-86z" />
<glyph unicode="&#x2013;" horiz-adv-x="1155" d="M119 467v90h917v-90h-917z" />
<glyph unicode="&#x2014;" horiz-adv-x="2048" d="M119 467v90h1810v-90h-1810z" />
<glyph unicode="&#x2018;" horiz-adv-x="497" d="M141 969l140 397h79l-63 -397h-156z" />
<glyph unicode="&#x2019;" horiz-adv-x="497" d="M137 969l64 397h155l-141 -397h-78z" />
<glyph unicode="&#x201a;" horiz-adv-x="497" d="M137 -229l64 395h155l-141 -395h-78z" />
<glyph unicode="&#x201c;" horiz-adv-x="751" d="M141 969l140 397h79l-63 -397h-156zM395 969l140 397h79l-63 -397h-156z" />
<glyph unicode="&#x201d;" horiz-adv-x="751" d="M137 969l64 397h155l-141 -397h-78zM391 969l64 397h155l-141 -397h-78z" />
<glyph unicode="&#x201e;" horiz-adv-x="751" d="M137 -229l64 395h155l-141 -395h-78zM391 -229l64 395h155l-141 -395h-78z" />
<glyph unicode="&#x2022;" horiz-adv-x="595" d="M190 547q0 43 32 74.5t75 31.5q45 0 75.5 -31.5t30.5 -74.5q0 -45 -30.5 -76t-75.5 -31q-43 0 -75 31t-32 76z" />
<glyph unicode="&#x2026;" horiz-adv-x="1499" d="M166 0v166h168v-166h-168zM666 0v166h168v-166h-168zM1165 0v166h168v-166h-168z" />
<glyph unicode="&#x2039;" horiz-adv-x="534" d="M129 471l190 383h111l-190 -383l190 -383h-111z" />
<glyph unicode="&#x203a;" horiz-adv-x="534" d="M104 88l193 383l-193 383h111l193 -383l-193 -383h-111z" />
<glyph unicode="&#x20ac;" horiz-adv-x="1247" d="M16 512v72h152q-4 61 -4 98q0 35 4 100h-152v70h162q41 248 193.5 395.5t388.5 147.5q229 0 387 -148l-76 -78q-125 121 -303 121q-182 0 -303 -118.5t-158 -319.5h561v-70h-573q-4 -33 -4 -100.5t4 -97.5h573v-72h-561q37 -201 158 -319.5t303 -118.5q176 0 303 121 l76 -76q-154 -147 -387 -148q-231 0 -386 148.5t-196 392.5h-162z" />
<glyph unicode="&#x2122;" horiz-adv-x="819" d="M63 1323v43h259v-43h-103v-299h-49v299h-107zM377 1024v342h67l91 -270l90 270h67v-342h-47v274l-90 -274h-41l-90 274v-274h-47z" />
<glyph unicode="&#xe000;" horiz-adv-x="940" d="M0 940h940v-940h-940v940z" />
<glyph unicode="&#xfb01;" horiz-adv-x="1130" d="M35 850v92h196v219q0 111 58.5 168t165.5 57q72 0 120 -20v-92q-41 20 -102 20q-70 0 -100.5 -32.5t-30.5 -108.5v-211h233v-92h-233v-850h-111v850h-196zM823 1217v149h150v-149h-150zM842 0v942h112v-942h-112z" />
<glyph unicode="&#xfb02;" horiz-adv-x="1110" d="M35 850v92h196v219q0 111 58.5 168t165.5 57q72 0 120 -20v-92q-41 20 -102 20q-70 0 -100.5 -32.5t-30.5 -108.5v-211h233v-92h-233v-850h-111v850h-196zM821 0v1366h111v-1366h-111z" />
<glyph unicode="&#xfb03;" horiz-adv-x="1798" d="M1489 1217v149h149v-149h-149zM1509 0v942h111v-942h-111zM701 850v92h196v219q0 111 58.5 168t165.5 57q72 0 120 -20v-92q-41 20 -102 20q-70 0 -100.5 -32.5t-30.5 -108.5v-211h233v-92h-233v-850h-111v850h-196zM35 850v92h196v219q0 111 58.5 168t165.5 57 q72 0 120 -20v-92q-41 20 -102 20q-70 0 -100.5 -32.5t-30.5 -108.5v-211h233v-92h-233v-850h-111v850h-196z" />
<glyph unicode="&#xfb04;" horiz-adv-x="1798" d="M1509 0v1366h111v-1366h-111zM701 850v92h196v219q0 111 58.5 168t165.5 57q72 0 120 -20v-92q-41 20 -102 20q-70 0 -100.5 -32.5t-30.5 -108.5v-211h233v-92h-233v-850h-111v850h-196zM35 850v92h196v219q0 111 58.5 168t165.5 57q72 0 120 -20v-92q-41 20 -102 20 q-70 0 -100.5 -32.5t-30.5 -108.5v-211h233v-92h-233v-850h-111v850h-196z" />
<glyph horiz-adv-x="477" />
</font>
</defs>
</svg>
