<?xml version="1.0" standalone="no"?>
<!DOCTYPE svg PUBLIC "-//W3C//DTD SVG 1.1//EN" "http://www.w3.org/Graphics/SVG/1.1/DTD/svg11.dtd" >
<svg xmlns="http://www.w3.org/2000/svg">
<metadata>
This is a custom SVG webfont generated by Font Squirrel.
Copyright   : Capitals typeface design created by Kris Holmes and Charles Bigelow
Designer    : Kris Holmes and Charles Bigelow
</metadata>
<defs>
<font id="CapitalsRegular" horiz-adv-x="1365" >
<font-face units-per-em="2048" ascent="1638" descent="-410" />
<missing-glyph horiz-adv-x="683" />
<glyph unicode=" "  horiz-adv-x="683" />
<glyph unicode="&#x09;" horiz-adv-x="683" />
<glyph unicode="&#xa0;" horiz-adv-x="683" />
<glyph unicode="!" horiz-adv-x="1024" d="M341 0v341h341v-341h-341zM341 1195v512h341v-512l-85 -683h-171z" />
<glyph unicode="&#x22;" horiz-adv-x="1195" d="M171 1707h341l-85 -512h-171zM683 1707h341l-85 -512h-171z" />
<glyph unicode="#" horiz-adv-x="1707" d="M171 512v171h299l85 341h-256v171h299l128 512h171l-128 -512h341l128 512h171l-128 -512h256v-171h-299l-85 -341h256v-171h-299l-128 -512h-171l128 512h-341l-128 -512h-171l128 512h-256zM641 683h341l85 341h-341z" />
<glyph unicode="$" horiz-adv-x="1195" d="M109 89v293h109q0 -136 51 -189t204 -77v646l-45 41q-278 248 -278 450q0 194 136.5 324t340.5 130v170h110v-170q157 -32 285 -94v-248h-109q-13 193 -176 219v-597l49 -41q280 -229 280 -480q0 -442 -484 -466v-171h-109v171q-180 19 -364 89zM423 1364 q0 -136 204 -293v514q-204 -31 -204 -221zM582 111q215 46 215 254q0 141 -215 306v-560z" />
<glyph unicode="%" horiz-adv-x="1877" d="M85 1318q0 430 406 430t406 -425q0 -427 -412 -427q-400 0 -400 422zM102 -41l1477 1789h196l-1486 -1789h-187zM341 1321q0 -316 147 -316q153 0 153 320q0 313 -150 313t-150 -317zM980 381q0 430 406 430t406 -425q0 -427 -412 -427q-400 0 -400 422zM1236 384 q0 -316 147 -316q153 0 153 320q0 314 -150 314t-150 -318z" />
<glyph unicode="&#x26;" horiz-adv-x="1707" d="M110 500q0 328 386 512q-116 201 -116 349q0 387 429 387q408 0 408 -347q0 -243 -347 -406l25 -51q125 -238 206 -361.5t120 -172.5q39 114 39 249q0 184 -127 184v109h446v-109q-89 -18 -103 -116q-31 -226 -178 -418q121 -189 242 -201v-108h-421l-64 87 q-180 -128 -373 -128q-251 0 -411.5 151.5t-160.5 389.5zM445 570q0 -449 363 -449q78 0 181 47q-224 305 -410 676l-32 65q-102 -157 -102 -339zM692 1446q0 -128 133 -363q105 161 105 327q0 228 -119 228t-119 -192z" />
<glyph unicode="'" horiz-adv-x="512" d="M85 1707h341l-85 -512h-171z" />
<glyph unicode="(" horiz-adv-x="853" d="M119 788q0 672 614 960v-110q-273 -218 -273 -850q0 -631 273 -849v-110q-614 288 -614 959z" />
<glyph unicode=")" horiz-adv-x="853" d="M119 -61q273 218 273 849q0 632 -273 850v110q614 -288 614 -960q0 -671 -614 -959v110z" />
<glyph unicode="*" horiz-adv-x="1195" d="M137 1279l79 244l299 -177q-34 -37 -34 -84v-17zM232 980l261 230q26 -47 85 -63l-138 -318zM470 1707h255l-74 -338q-32 11 -53 11q-22 0 -53 -11zM617 1147q59 16 86 63l260 -230l-207 -151zM681 1346l299 177l79 -244l-344 -34v17q0 47 -34 84z" />
<glyph unicode="+" horiz-adv-x="1195" d="M171 683v170h341v342h171v-342h341v-170h-341v-342h-171v342h-341z" />
<glyph unicode="," horiz-adv-x="683" d="M171 0v341h341v-264q0 -394 -341 -418v109q131 0 131 156v76h-131z" />
<glyph unicode="-" horiz-adv-x="1195" d="M171 683v170h853v-170h-853z" />
<glyph unicode="." horiz-adv-x="683" d="M171 0v341h341v-341h-341z" />
<glyph unicode="/" horiz-adv-x="1195" d="M85 -171l853 1878h171l-853 -1878h-171z" />
<glyph unicode="0" d="M102 854q0 894 580 894q581 0 581 -883q0 -906 -592 -906q-569 0 -569 895zM471 856q0 -472 45.5 -630t170.5 -158q123 0 165 172t42 635q0 438 -45 600.5t-167 162.5q-123 0 -167 -164t-44 -618z" />
<glyph unicode="1" d="M246 0v109l169 8q127 7 127 101l4 121v1026q0 123 -46 123q-50 0 -180 -25l-74 -15v139l642 161v-1409l4 -121q0 -94 128 -100l168 -9v-109h-942z" />
<glyph unicode="2" d="M113 0v114q76 227 371 523l60 61q305 306 305 574q0 367 -304 367q-250 0 -250 -246v-28h-137v289q247 94 473 94q593 0 593 -474q0 -248 -352 -492q-160 -110 -233 -183l-61 -61q-114 -114 -122 -238h783v-300h-1126z" />
<glyph unicode="3" d="M137 21v320h137v-27l4 -65q10 -181 265 -181q325 0 325 371q0 413 -482 413h-78v109h60q458 0 458 342q0 336 -286 336q-147 0 -200 -57.5t-53 -216.5h-136v307q233 76 462 76q571 0 571 -401q0 -318 -390 -429q449 -91 449 -465q0 -224 -176.5 -359t-471.5 -135 q-266 0 -458 62z" />
<glyph unicode="4" d="M68 478v229l764 1041h236v-997h212v-273h-212v-137l5 -133q0 -56 16.5 -73.5t139.5 -25.5v-109h-622v109q125 9 140.5 27t15.5 72l5 133v137h-700zM236 751h532v725z" />
<glyph unicode="5" d="M150 14v327h137v-27l4 -76q7 -170 215 -170q320 0 320 395q0 452 -501 452q-52 0 -141 -9v801h983v-301h-846v-382h38q842 0 842 -540q0 -240 -183 -382.5t-491 -142.5q-152 0 -377 55z" />
<glyph unicode="6" d="M109 761q0 449 194.5 718t518.5 269q164 0 365 -68v-315h-137v28q0 246 -221 246q-359 0 -359 -633l-3 -79q140 166 350 166q197 0 329.5 -149.5t132.5 -371.5q0 -257 -170 -435t-414 -178q-272 0 -429 214.5t-157 587.5zM478 537q0 -469 213 -469q217 0 217 428 q0 440 -200 440q-230 0 -230 -399z" />
<glyph unicode="7" d="M102 1406v301h1195v-222l-142 -189q-585 -781 -585 -1296h-383q20 253 159 491t540 704l182 211h-966z" />
<glyph unicode="8" d="M101 409q0 295 313 464q-237 195 -237 416q0 209 141 334t376 125q495 0 495 -363q0 -205 -305 -399q224 -130 300.5 -234t76.5 -278q0 -235 -159 -375t-425 -140q-259 0 -417.5 124t-158.5 326zM439 448q0 -380 268 -380q239 0 239 294q0 106 -40.5 161t-189.5 152 l-91 59l-131 82q-55 -203 -55 -368zM477 1402q0 -169 227 -305l101 -61q66 147 66 291q0 311 -196 311q-198 0 -198 -236z" />
<glyph unicode="9" d="M101 1135q0 256 170 434.5t415 178.5q272 0 428.5 -215t156.5 -587q0 -449 -194.5 -718t-518.5 -269q-163 0 -364 68v314h136l1 -27q0 -247 220 -247q359 0 359 634l4 79q-141 -167 -351 -167q-197 0 -329.5 149.5t-132.5 372.5zM472 1211q0 -440 201 -440q229 0 229 399 q0 469 -213 469q-217 0 -217 -428z" />
<glyph unicode=":" horiz-adv-x="683" d="M171 0v341h341v-341h-341zM171 1024v341h341v-341h-341z" />
<glyph unicode=";" horiz-adv-x="683" d="M171 0v341h341v-264q0 -394 -341 -418v109q131 0 131 156v76h-131zM171 1024v341h341v-341h-341z" />
<glyph unicode="&#x3c;" horiz-adv-x="1024" d="M34 768l683 597h256l-683 -597l683 -597h-256z" />
<glyph unicode="=" d="M171 512v171h1024v-171h-1024zM171 853v171h1024v-171h-1024z" />
<glyph unicode="&#x3e;" horiz-adv-x="1024" d="M51 171l683 597l-683 597h256l683 -597l-683 -597h-256z" />
<glyph unicode="?" d="M164 1365v309q210 74 462 74q259 0 417.5 -105t158.5 -277q0 -168 -181 -300q-86 -55 -157 -121q-106 -94 -106 -306l-4 -107v-20h-342v20q0 160 176 312l73 64q165 142 165 377q0 353 -290 353q-235 0 -235 -245v-28h-137zM412 0v341h342v-341h-342z" />
<glyph unicode="@" horiz-adv-x="1877" d="M137 724q0 405 277.5 714.5t639.5 309.5q296 0 492 -198.5t196 -497.5q0 -280 -156 -495t-359 -215q-169 0 -169 146q0 72 41 236l-39 -1l-30 -45q-221 -336 -381 -336q-173 0 -173 259q0 306 161 528.5t382 222.5q92 0 203 -48h149l-92 -465l-27 -157q-13 -79 -13 -120 q0 -66 65 -66q120 0 217 163t97 365q0 261 -163 430.5t-414 169.5q-304 0 -542 -274.5t-238 -625.5q0 -278 164 -460t416 -182q113 0 275 49l36 -116q-172 -56 -307 -56q-312 0 -510 213.5t-198 551.5zM682 652q0 -121 51 -121q95 0 364 413l49 244q-83 47 -160 47 q-304 0 -304 -583z" />
<glyph unicode="A" d="M10 0v109l39 5q51 8 89 115l38 107l442 1412h109l462 -1413l48 -128q36 -98 118 -98v-109h-601v109q123 0 123 50q0 34 -48 177l-47 142h-447l-45 -143q-46 -142 -46 -176q0 -50 100 -50v-109h-334zM370 587h375l-192 583z" />
<glyph unicode="B" horiz-adv-x="1410" d="M55 0v109q155 0 155 96l5 136v1024l-5 137q0 95 -155 95v110h724q460 0 460 -386q0 -294 -370 -444q439 -99 439 -449q0 -428 -516 -428h-737zM557 341q0 -152 21.5 -192t121.5 -40q232 0 232 333q0 377 -341 377h-34v-478zM557 928h34q307 0 307 345q0 324 -320 324h-21 v-669z" />
<glyph unicode="C" d="M85 855q0 425 198.5 659t558.5 234q217 0 465 -75v-335h-137l-2 75q0 212 -280 212q-428 0 -428 -775q0 -754 476 -754q194 0 371 103v-144q-201 -96 -454 -96q-362 0 -565 237t-203 659z" />
<glyph unicode="D" horiz-adv-x="1410" d="M55 0v109q155 0 155 96l5 136v1024l-5 137q0 95 -155 95v110h730q250 0 395 -221t145 -602q0 -399 -149 -641.5t-394 -242.5h-727zM557 341q0 -153 18.5 -192.5t97.5 -39.5q283 0 283 788q0 700 -331 700h-68v-1256z" />
<glyph unicode="E" horiz-adv-x="1219" d="M55 0v109q155 0 155 96l5 136v1024l-5 137q0 95 -155 95v110h1075v-301h-109v28l-2 76q0 87 -147 87h-315v-641h185l86 3q63 0 63 75v41h109v-341h-109v42q0 74 -63 74l-86 3h-185v-512q0 -140 16 -186t178 -46h84l128 4q58 0 68 30t10 137v34h123v-314h-1109z" />
<glyph unicode="F" horiz-adv-x="1185" d="M55 0v109q155 0 155 96l5 136v1024l-5 137q0 95 -155 95v110h1075v-301h-109v28l-1 76q0 87 -148 87h-315v-710h187l86 4q61 0 61 78v38h109v-341h-109v42q0 73 -61 73l-86 4h-187v-444l5 -136q0 -96 155 -96v-109h-662z" />
<glyph unicode="G" d="M85 854q0 894 739 894q217 0 454 -75v-308h-123v22q0 245 -313 245q-206 0 -294 -180t-88 -599q0 -778 376 -778q49 0 100 21v331l-5 136q0 96 -155 96v109h502v-732q-292 -77 -469 -77q-335 0 -529.5 240.5t-194.5 654.5z" />
<glyph unicode="H" horiz-adv-x="1455" d="M55 0v109q155 0 155 96l6 136v1024l-6 137q0 95 -155 95v110h502v-717h341v375l-5 137q0 95 -155 95v110h662v-110q-155 0 -155 -95l-5 -137v-1024l5 -136q0 -96 155 -96v-109h-502v853h-341v-512l5 -136q0 -96 155 -96v-109h-662z" />
<glyph unicode="I" horiz-adv-x="819" d="M79 0v109q155 0 155 96l5 136v1024l-5 137q0 95 -155 95v110h662v-110q-155 0 -155 -95l-5 -137v-1024l5 -136q0 -96 155 -96v-109h-662z" />
<glyph unicode="J" horiz-adv-x="990" d="M0 -20h109q0 -177 125 -177q109 0 145 64.5t36 260.5v1237l-5 137q0 95 -156 95v110h663v-110q-155 0 -155 -95l-6 -137v-1134q0 -294 -116 -410.5t-409 -116.5q-109 0 -231 31v245z" />
<glyph unicode="K" horiz-adv-x="1574" d="M55 0v109q155 0 155 96l5 136v1024l-5 137q0 95 -155 95v110h649v-110q-92 -4 -117 -17t-25 -78l-5 -137v-424l432 432l97 108q63 68 63 87q0 29 -71 29h-27v110h430v-110h-28q-84 0 -166 -82l-147 -148l-346 -345l502 -691l114 -139q64 -83 143 -83v-109h-618v109 q55 3 55 37q0 11 -43 75l-74 113l-314 465h-2v-458l5 -136q0 -96 131 -96v-109h-638z" />
<glyph unicode="L" horiz-adv-x="1271" d="M55 0v109q155 0 155 96l5 136v1024l-5 137q0 95 -155 95v110h662v-110q-155 0 -155 -95l-5 -137v-1024q0 -125 18.5 -164.5t178.5 -39.5h144l72 3q107 0 107 94l1 66l1 41h137v-341h-1161z" />
<glyph unicode="M" horiz-adv-x="1967" d="M55 0v109q119 0 139.5 41.5t20.5 190.5v1024q0 148 -20.5 190t-139.5 42v110h593l370 -1005l391 1005h503v-110q-119 0 -140 -41.5t-21 -190.5v-1024q0 -149 20.5 -190.5t139.5 -41.5v-109h-638v109q132 0 132 96l4 136v1060l-448 -1151h-145l-430 1167v-1076l4 -136 q0 -96 132 -96v-109h-467z" />
<glyph unicode="N" horiz-adv-x="1626" d="M55 0v109q118 0 139 41.5t21 190.5v1024q0 149 -21 190.5t-139 41.5v110h331l854 -1166v824l-6 137q0 95 -155 95v110h492v-110q-155 0 -155 -95l-6 -137v-1379h-170l-854 1166v-811l5 -136q0 -96 156 -96v-109h-492z" />
<glyph unicode="O" d="M85 854q0 414 160 654t437 240t437.5 -239.5t160.5 -650.5q0 -423 -161 -661t-445 -238q-271 0 -430 242t-159 653zM454 855q0 -780 232 -780q225 0 225 794q0 763 -229 763q-228 0 -228 -777z" />
<glyph unicode="P" horiz-adv-x="1356" d="M55 0v109q155 0 155 96l5 136v1024l-5 137q0 86 -155 95v110h502l92 1l99 4l81 2q468 0 468 -441q0 -545 -648 -545h-92v-387q0 -146 20.5 -189t164.5 -43v-109h-687zM557 837h54q345 0 345 413q0 347 -300 347h-99v-760z" />
<glyph unicode="Q" d="M85 853q0 415 160 655t437 240q278 0 438 -240t160 -655q0 -650 -363 -840q174 -92 448 -127l-94 -227q-300 102 -530 304q-33 -4 -57 -4q-278 0 -438.5 239.5t-160.5 654.5zM454 855q0 -782 232 -782q225 0 225 796q0 764 -229 764q-228 0 -228 -778z" />
<glyph unicode="R" horiz-adv-x="1410" d="M55 0v109q155 0 155 96l5 136v1024l-5 137q0 95 -155 95v110h502l67 1l90 4l95 2q465 0 465 -415q0 -336 -284 -462l232 -519q83 -186 178 -213v-105h-389l-345 778h-109v-437l5 -136q0 -54 16.5 -70.5t114.5 -25.5v-109h-638zM557 887h54q321 0 321 388q0 322 -284 322 h-91v-710z" />
<glyph unicode="S" horiz-adv-x="1147" d="M86 22v347h123q0 -301 295 -301q250 0 250 297q0 175 -205 305l-99 63q-362 230 -362 537q0 217 133.5 347.5t355.5 130.5q174 0 399 -76v-307h-123q0 273 -234 273q-231 0 -231 -263q0 -152 202 -286l100 -66q371 -244 371 -547q0 -236 -150 -376.5t-403 -140.5 q-185 0 -422 63z" />
<glyph unicode="T" horiz-adv-x="1161" d="M0 1365v342h1161v-342h-110v28q0 109 -13 143t-114 34h-173v-1229l5 -136q0 -96 155 -96v-109h-662v109q155 0 155 96l6 136v1229h-174q-101 0 -113.5 -34t-13.5 -143v-28h-109z" />
<glyph unicode="U" horiz-adv-x="1455" d="M55 1597v110h655v-110q-148 0 -148 -95l-5 -137v-682q0 -348 52.5 -481.5t189.5 -133.5q270 0 270 615v682l-5 137q0 89 -149 95v110h485v-110q-155 -8 -155 -95l-6 -137v-682q0 -724 -494 -724q-530 0 -530 724v682l-5 137q0 95 -155 95z" />
<glyph unicode="V" d="M10 1597v110h598v-110h-27q-132 0 -132 -47q0 -35 55 -185l314 -856l299 856l31 92q24 63 24 92q0 47 -68 48h-87v110h338v-110q-41 0 -122 -232l-482 -1379h-109l-502 1379l-50 129q-39 103 -80 103z" />
<glyph unicode="W" horiz-adv-x="2007" d="M35 1597v110h595v-110h-27q-112 0 -112 -45q0 -39 37 -187l196 -781h1l310 1089h151l307 -1101h2l198 793l18 80q19 86 19 99q0 53 -123 53v110h364v-110q-106 0 -128 -87l-37 -145l-345 -1379h-123l-347 1178l-319 -1178h-123l-345 1379q-35 142 -57 187t-112 45z" />
<glyph unicode="X" d="M10 0v109q93 0 209 232l278 558l-257 466l-64 116q-62 116 -166 116v110h639v-110l-49 -1q-85 0 -85 -44q0 -42 84 -187l220 -400l200 400q82 164 82 192q0 40 -85 40h-27v110h366v-110q-102 -8 -214 -232l-258 -516l280 -508l88 -151q43 -81 104 -81v-109h-600v109l50 1 q86 0 86 38q0 37 -86 193l-244 441l-220 -440q-84 -167 -84 -198q0 -34 68 -34l45 -1v-109h-360z" />
<glyph unicode="Y" d="M10 1597v110h620v-110h-27l-39 -1q-66 0 -66 -40q0 -32 82 -191l238 -464h2l236 461q85 165 85 193q0 42 -91 42h-28v110h333v-110q-58 -4 -176 -234l-320 -626v-396l5 -136q0 -96 155 -96v-109h-662v109q155 0 155 96l5 136v396l-322 628l-69 136q-48 90 -116 96z" />
<glyph unicode="Z" horiz-adv-x="1297" d="M68 0v137l775 1433h-435q-96 0 -121.5 -15t-25.5 -87l-1 -75l-1 -28h-136v342h1092v-137l-775 -1433h450q122 0 160.5 9t38.5 91l3 77v27h137v-341h-1161z" />
<glyph unicode="[" horiz-adv-x="853" d="M171 -171v1878h512v-110h-212v-1658h212v-110h-512z" />
<glyph unicode="\" horiz-adv-x="1195" d="M85 1707h171l853 -1878h-171z" />
<glyph unicode="]" horiz-adv-x="853" d="M171 -61h212v1658h-212v110h512v-1878h-512v110z" />
<glyph unicode="^" horiz-adv-x="1309" d="M85 853l569 854l569 -854h-171l-398 598l-398 -598h-171z" />
<glyph unicode="_" d="M0 0h1365v-171h-1365v171z" />
<glyph unicode="`" horiz-adv-x="1024" d="M85 1877h427l341 -341h-171z" />
<glyph unicode="a" d="M10 0v109l39 5q69 7 127 155l442 1137h109l462 -1138q60 -149 166 -159v-109h-601v109q116 0 116 36q0 20 -35 110l-55 133h-442l-48 -120q-38 -94 -38 -119q0 -39 96 -40v-109h-338zM381 497h353l-181 442z" />
<glyph unicode="b" horiz-adv-x="1403" d="M55 0v109q155 0 155 96l5 136v683l-5 137q0 95 -155 95v109h724q461 0 461 -316q0 -125 -70.5 -184.5t-300.5 -127.5q432 -80 432 -394q0 -343 -509 -343h-737zM557 295q0 -130 25 -158t121 -28q233 0 233 267q0 307 -357 307h-22v-388zM557 792h44q297 0 297 226 q0 238 -313 238h-28v-464z" />
<glyph unicode="c" horiz-adv-x="1195" d="M85 684q0 722 634 722q182 0 390 -60v-322h-137v34l-2 77q0 162 -218 162q-292 0 -292 -618q0 -604 342 -604q161 0 307 78v-117q-170 -77 -381 -77q-643 0 -643 725z" />
<glyph unicode="d" horiz-adv-x="1403" d="M55 0v109q155 0 155 96l5 136v683l-5 137q0 95 -155 95v109h723q250 0 395 -176.5t145 -481.5q0 -319 -149 -513t-394 -194h-720zM557 288q0 -125 20.5 -152t97.5 -27q274 0 274 610q0 537 -317 537h-75v-968z" />
<glyph unicode="e" horiz-adv-x="1202" d="M55 0v109q155 0 155 96l5 136v683l-5 137q0 95 -155 95v109h1058v-300h-109l-1 27v77q0 87 -148 87h-298v-471h163l86 3q61 0 61 78v38h110v-341h-110v43q0 73 -61 73l-86 3l-163 1v-342q0 -141 16.5 -186.5t166.5 -45.5h78l127 4q59 0 69 30.5t10 136.5v34h123v-314 h-1092z" />
<glyph unicode="f" horiz-adv-x="1083" d="M55 0v109q155 0 155 96l5 136v683l-5 137q0 95 -155 95v109h973v-300h-109l-1 27l-1 77q0 87 -148 87h-212v-471h105q93 0 120 9t27 72v38h110v-341h-110v43q0 73 -61 73l-86 3l-105 1v-342l5 -136q0 -96 155 -96v-109h-662z" />
<glyph unicode="g" d="M85 683q0 723 738 723q219 0 455 -60v-281h-109l-1 27q0 205 -317 205q-212 0 -301.5 -140t-89.5 -474q0 -615 362 -615q41 0 114 17v256l-5 137q0 95 -155 95v110h502v-661q-293 -63 -469 -63q-335 0 -529.5 194.5t-194.5 529.5z" />
<glyph unicode="h" horiz-adv-x="1455" d="M55 0v109q155 0 155 96l6 136v683l-6 137q0 95 -155 95v109h502v-546h341v205l-5 137q0 95 -155 95v109h662v-109q-155 0 -155 -95l-5 -137v-683l5 -136q0 -96 155 -96v-109h-502v683h-341v-683h-502z" />
<glyph unicode="i" horiz-adv-x="772" d="M55 0v109q155 0 155 96l5 136v683l-5 137q0 95 -155 95v109h662v-109q-155 0 -155 -95l-5 -137v-683l5 -136q0 -96 155 -96v-109h-662z" />
<glyph unicode="j" horiz-adv-x="990" d="M0 -27h109l4 -48q10 -122 120 -122q109 0 145.5 64.5t36.5 260.5v896l-5 137q0 95 -156 95v109h663v-109q-155 0 -155 -95l-6 -137v-793q0 -294 -116 -410.5t-409 -116.5q-109 0 -231 31v238z" />
<glyph unicode="k" horiz-adv-x="1410" d="M55 0v109q155 0 155 96l5 136v683l-5 137q0 95 -155 95v109h649v-109q-142 -14 -142 -95l-5 -137v-271l343 343l66 69q47 46 47 65q0 25 -42 26h-16v109h437v-109l-28 -1q-143 0 -318 -175l-262 -262l423 -531q136 -170 193 -178v-109h-526v109q26 6 26 27q0 12 -36 63 l-65 95l-242 348v-301l5 -136q0 -96 131 -96v-109h-638z" />
<glyph unicode="l" horiz-adv-x="1073" d="M55 0v109q155 0 155 96l5 136v683l-5 137q0 95 -155 95v109h662v-109q-155 0 -155 -95l-5 -137v-683q0 -145 27.5 -175t129.5 -30l89 4q58 0 67.5 30.5t10.5 136.5v34h137v-341h-963z" />
<glyph unicode="m" horiz-adv-x="1967" d="M55 0v109q119 0 139.5 41.5t20.5 190.5v683q0 149 -21 190.5t-139 41.5v109h593l370 -803l391 803h503v-109q-119 0 -140 -41.5t-21 -190.5v-683q0 -149 20.5 -190.5t139.5 -41.5v-109h-638v109q132 0 132 96l4 136v775l-448 -921h-149l-426 924v-778l4 -136 q0 -96 132 -96v-109h-467z" />
<glyph unicode="n" horiz-adv-x="1455" d="M55 0v109q118 0 139 41.5t21 190.5v683q0 149 -21 190.5t-139 41.5v109h331l683 -853v512l-5 137q0 95 -156 95v109h492v-109q-155 0 -155 -95l-6 -137v-1035h-170l-683 864v-512l5 -136q0 -96 156 -96v-109h-492z" />
<glyph unicode="o" d="M85 683q0 336 160 529.5t437 193.5t437.5 -193.5t160.5 -527.5q0 -341 -161 -533.5t-445 -192.5q-271 0 -430 196t-159 528zM454 684q0 -616 233 -616q224 0 224 624q0 605 -229 605q-228 0 -228 -613z" />
<glyph unicode="p" horiz-adv-x="1342" d="M55 0v109q155 0 155 96l5 136v683l-5 137q0 85 -155 95v109h672q547 0 547 -367q0 -452 -649 -452h-68v-205q0 -155 17.5 -187t81.5 -38q68 -7 85 -7v-109h-686zM557 655h58q317 0 317 325q0 276 -292 276h-83v-601z" />
<glyph unicode="q" d="M85 683q0 336 160 529.5t437 193.5q278 0 438 -194t160 -530q0 -539 -353 -675q168 -87 438 -121l-94 -227q-300 102 -530 304q-33 -4 -58 -4q-278 0 -438 194t-160 530zM454 684q0 -616 233 -616q224 0 224 624q0 605 -229 605q-228 0 -228 -613z" />
<glyph unicode="r" horiz-adv-x="1410" d="M55 0v109q155 0 155 96l5 136v683l-5 137q0 95 -155 95v109h681q538 0 538 -330q0 -251 -277 -351l225 -408q75 -137 178 -167v-109h-411l-323 635h-109v-294l5 -136q0 -54 16.5 -70.5t114.5 -25.5v-109h-638zM557 744h54q321 0 321 275q0 237 -284 237h-91v-512z" />
<glyph unicode="s" horiz-adv-x="1147" d="M86 10v290h109q0 -232 303 -232q256 0 256 219q0 123 -211 234l-99 52q-356 187 -356 444q0 389 488 389q176 0 400 -61v-253h-110q-12 205 -240 205q-238 0 -238 -192q0 -110 215 -223l100 -52q358 -187 358 -455q0 -189 -150.5 -302.5t-403.5 -113.5q-183 0 -421 51z " />
<glyph unicode="t" horiz-adv-x="1113" d="M10 1024v341h1092v-341h-109v27q0 110 -12.5 144t-114.5 34h-139v-956q0 -113 11.5 -144.5t72.5 -36.5t76 -5v-87h-662v87q16 0 76 5q61 5 72.5 36.5t11.5 144.5v956h-139q-101 0 -113.5 -34t-13.5 -144v-27h-109z" />
<glyph unicode="u" horiz-adv-x="1455" d="M55 1256v109h655v-109q-148 0 -148 -95l-5 -137v-483q0 -280 52.5 -387t191.5 -107q268 0 268 494v483l-5 137q0 87 -149 95v109h485v-109q-155 -8 -155 -95l-6 -137v-483q0 -582 -497 -582q-527 0 -527 582v483l-5 137q0 95 -155 95z" />
<glyph unicode="v" d="M10 1256v109h612v-109h-21l-79 -2q-59 0 -59 -40q0 -19 25 -78l29 -66l303 -655h2l291 655q55 125 55 143q0 40 -68 40l-66 3h-21v109h342v-109q-40 0 -123 -186l-481 -1084h-109l-501 1084l-51 103q-40 83 -80 83z" />
<glyph unicode="w" horiz-adv-x="2007" d="M35 1256v109h601v-109q-136 0 -136 -34q0 -21 13 -61l21 -69l189 -606l309 865h158l307 -880l194 621q31 99 31 121q0 43 -117 43v109h366v-109q-81 -1 -104.5 -21.5t-60.5 -142.5l-345 -1106h-123l-347 945l-319 -945h-117l-351 1106q-51 164 -169 164z" />
<glyph unicode="x" d="M10 0v109q100 0 165 97l44 67l275 441l-259 378l-60 87q-47 68 -165 77v109h639v-109l-65 -1q-58 -4 -58 -31q0 -29 73 -132l216 -315l198 315q70 108 70 133q0 26 -42 30l-59 1v109h373v-109q-119 -12 -214 -164l-258 -413l280 -406l61 -83q54 -76 131 -81v-109h-600 v109l45 1q74 1 74 32q0 21 -75 131l-237 344l-215 -344q-75 -113 -75 -136q0 -26 73 -27l32 -1v-109h-367z" />
<glyph unicode="y" d="M10 1256v109h620v-109l-55 -1q-68 -1 -68 -27q0 -28 73 -136l238 -372h2l236 369q77 120 77 138q0 29 -111 29v109h333v-109q-76 -6 -124 -82l-52 -84l-320 -500v-249l5 -136q0 -96 155 -96v-109h-662v109q155 0 155 96l5 136v249l-322 502q-102 159 -185 164z" />
<glyph unicode="z" horiz-adv-x="1297" d="M68 0v137l775 1092h-435q-96 0 -121.5 -15t-25.5 -88l-1 -75l-1 -27h-136v341h1092v-136l-775 -1092h450q122 0 160.5 9t38.5 91l3 77v27h137v-341h-1161z" />
<glyph unicode="{" horiz-adv-x="853" d="M109 713v110h45q172 0 172 139q0 22 -11 61l-22 76l-29 105q-34 125 -34 191q0 132 120.5 222t298.5 90h95v-110q-179 -16 -179 -142q0 -35 8 -70l10 -43l15 -71q23 -104 23 -180q0 -234 -267 -323q267 -89 267 -324q0 -75 -23 -179l-15 -71l-10 -43q-8 -35 -8 -70 q0 -126 179 -142v-110h-95q-178 0 -298.5 90t-120.5 222q0 66 34 191l29 105l22 76q11 39 11 61q0 139 -172 139h-45z" />
<glyph unicode="|" horiz-adv-x="853" d="M341 -171v1878h171v-1878h-171z" />
<glyph unicode="}" horiz-adv-x="853" d="M109 -61q179 16 179 142q0 35 -8 70l-10 43l-15 71q-23 104 -23 180q0 234 267 323q-267 89 -267 324q0 75 23 179l15 71l10 43q8 35 8 70q0 126 -179 142v110h95q178 0 298.5 -90t120.5 -222q0 -66 -34 -191l-29 -105l-22 -76q-11 -39 -11 -61q0 -139 172 -139h45v-110 h-45q-172 0 -172 -139q0 -22 11 -61l22 -76l29 -105q34 -125 34 -191q0 -132 -121 -222t-298 -90h-95v110z" />
<glyph unicode="~" d="M109 683q22 386 310 386q99 0 254 -81l50 -26q165 -86 223 -86q139 0 139 205v11h171q-22 -386 -310 -386q-99 0 -254 80l-51 27q-165 85 -221 85q-140 0 -140 -205v-10h-171z" />
<glyph unicode="&#xa1;" horiz-adv-x="1024" d="M341 0v512l85 683h171l85 -683v-512h-341zM341 1365v342h341v-342h-341z" />
<glyph unicode="&#xa2;" horiz-adv-x="1195" d="M171 863q0 443 471 502v171h109v-171q103 0 273 -54v-256h-109q0 13 -5 62q-11 139 -159 139v-805q132 0 273 56v-109q-138 -48 -273 -57v-170h-109v175q-213 22 -342 164t-129 353zM410 865q0 -344 232 -410v801q-232 -22 -232 -391z" />
<glyph unicode="&#xa3;" d="M171 0v270q211 39 211 354v229h-211v110h211v176q0 609 482 609q132 0 331 -69v-314h-123l-1 21q0 252 -164 252q-109 0 -146.5 -68t-37.5 -264v-343h301v-110h-301v-143q0 -294 -346 -440h818v-270h-1024z" />
<glyph unicode="&#xa4;" d="M171 462l218 218q-47 89 -47 174t47 172l-218 219l121 120l218 -218q88 48 173 48q84 0 173 -48l218 218l121 -120l-218 -219q47 -89 47 -173t-47 -173l218 -218l-121 -121l-218 218q-87 -47 -173 -47t-174 48l-217 -219zM512 853q0 -70 50.5 -120t120.5 -50t120.5 50 t50.5 120t-50.5 120.5t-120.5 50.5t-120.5 -50.5t-50.5 -120.5z" />
<glyph unicode="&#xa5;" d="M10 1597v110h620v-110l-66 -1q-67 0 -67 -40q0 -16 10 -38l72 -153l238 -464h3l236 461q85 165 85 194q0 41 -103 41h-16v110h333v-110q-55 0 -176 -234l-261 -510h213v-109h-273v-232h273v-109h-273v-62l6 -136q0 -96 155 -96v-109h-662v109q155 0 155 96l5 136v62h-273 v109h273v232h-273v109h214l-263 512l-70 136q-46 90 -115 96z" />
<glyph unicode="&#xa6;" horiz-adv-x="853" d="M341 -341v1024h171v-1024h-171zM341 853v854h171v-854h-171z" />
<glyph unicode="&#xa7;" horiz-adv-x="1195" d="M171 -150v307h123l1 -20l3 -73q7 -166 297 -166q204 0 204 205q0 105 -179 195l-121 61q-328 165 -328 392q0 164 165 318q-165 102 -165 290q0 389 459 389q182 0 361 -58v-301h-123l-1 20l-3 66q-9 163 -244 163q-210 0 -210 -217q0 -101 159 -180l111 -56 q344 -173 344 -402q0 -149 -142 -326q142 -112 142 -292q0 -377 -440 -377q-146 0 -354 48zM376 875q0 -144 250 -275l179 -93q34 69 34 158q0 115 -115 185l-151 83l-157 88q-40 -61 -40 -146z" />
<glyph unicode="&#xa8;" horiz-adv-x="1024" d="M171 1536v241h241v-241h-241zM612 1536v241h242v-241h-242z" />
<glyph unicode="&#xa9;" horiz-adv-x="1707" d="M85 768q0 318 225 543t543 225q317 0 542.5 -225t225.5 -541q0 -323 -226 -546.5t-552 -223.5q-310 0 -534 227t-224 541zM194 768q0 -270 192 -464.5t459 -194.5q279 0 473 192t194 468q0 272 -193.5 465t-465.5 193q-273 0 -466 -193.5t-193 -465.5zM419 776 q0 434 448 434q131 0 300 -40v-219h-97l-14 106q-99 43 -179 43q-124 0 -205.5 -93.5t-81.5 -235.5t94 -238t232 -96q120 0 241 54v-122q-145 -41 -279 -41q-207 0 -333 122.5t-126 325.5z" />
<glyph unicode="&#xaa;" horiz-adv-x="1195" d="M85 341v171h1024v-171h-1024zM85 683v85q87 0 132 116l331 864h82l347 -864q46 -115 117 -116h15v-85h-459v85q87 0 87 27q0 15 -30 89l-36 86h-334l-35 -86q-27 -68 -27 -86q0 -30 71 -30v-85h-261zM371 1055h265l-136 336z" />
<glyph unicode="&#xab;" d="M171 853l512 512v-170l-341 -342l341 -341v-171zM683 853l512 512v-170l-341 -342l341 -341v-171z" />
<glyph unicode="&#xac;" horiz-adv-x="1195" d="M171 683v170h853v-512h-170v342h-683z" />
<glyph unicode="&#xad;" horiz-adv-x="1195" d="M171 683v170h853v-170h-853z" />
<glyph unicode="&#xae;" horiz-adv-x="1707" d="M85 768q0 318 225 543t543 225q317 0 542.5 -225t225.5 -541q0 -323 -226 -546.5t-552 -223.5q-310 0 -534 227t-224 541zM194 768q0 -270 192 -464.5t459 -194.5q279 0 473 192t194 468q0 272 -193.5 465t-465.5 193q-273 0 -466 -193.5t-193 -465.5zM501 375v86 q93 0 93 57l3 82v370l-3 82q0 57 -93 57v86h307l54 2l54 1q278 0 278 -199q0 -167 -183 -227l156 -231q58 -86 107 -100v-66h-213l-212 354h-81v-129l3 -82q0 -51 79 -57v-86h-349zM768 815h32q210 0 210 163q0 131 -188 131h-54v-294z" />
<glyph unicode="&#xaf;" horiz-adv-x="1024" d="M171 1536v171h683v-171h-683z" />
<glyph unicode="&#xb0;" horiz-adv-x="1024" d="M171 1369q0 139 100.5 238.5t240.5 99.5q142 0 242 -100t100 -242q0 -141 -100 -241t-241 -100q-143 0 -242.5 100.5t-99.5 244.5zM308 1368q0 -87 59.5 -147t145.5 -60q84 0 144 60t60 144q0 85 -60 145t-145 60q-84 0 -144 -59.5t-60 -142.5z" />
<glyph unicode="&#xb1;" horiz-adv-x="1195" d="M171 0v171h853v-171h-853zM171 683v170h341v342h171v-342h341v-170h-341v-342h-171v342h-341z" />
<glyph unicode="&#xb2;" horiz-adv-x="1195" d="M171 512v80q58 161 281 370l46 43q219 206 219 407q0 259 -216 259q-186 0 -187 -181v-27h-109v218q188 67 360 67q459 0 459 -335q0 -168 -272 -348q-103 -68 -175 -136q-122 -113 -135 -199h582v-218h-853z" />
<glyph unicode="&#xb3;" horiz-adv-x="1195" d="M171 527v254h109q0 -115 40.5 -151.5t167.5 -36.5q229 0 229 229q0 272 -354 272h-59v109h45q354 0 354 228q0 207 -222 207q-190 0 -190 -160h-109v216q183 54 356 54q445 0 445 -284q0 -225 -305 -302q346 -65 346 -329q0 -350 -499 -350q-205 0 -354 44z" />
<glyph unicode="&#xb4;" horiz-adv-x="1024" d="M171 1536l341 341h427l-597 -341h-171z" />
<glyph unicode="&#xb5;" d="M55 1256v109h502v-1014q0 -178 126 -178q94 0 215 137v714l-5 137q0 95 -155 95v109h502v-1024l5 -136q0 -96 155 -96v-109h-502v207q-128 -229 -255 -229q-17 0 -86 34v-353h-341v1365l-6 137q0 95 -155 95z" />
<glyph unicode="&#xb6;" d="M171 1331q0 385 398 385l114 -3l107 -4l117 -2h288v-1707h-171v1565h-170v-1565h-171v856q-231 0 -371.5 130.5t-140.5 344.5z" />
<glyph unicode="&#xb7;" horiz-adv-x="683" d="M171 512v341h341v-341h-341z" />
<glyph unicode="&#xb8;" horiz-adv-x="1024" d="M256 -232l37 -5q93 -12 155 -12q149 0 149 87q0 59 -68 78v84h85v-38q154 -23 154 -142q0 -162 -268 -162q-127 0 -244 26v84z" />
<glyph unicode="&#xb9;" horiz-adv-x="1195" d="M296 512v109l122 7q89 4 89 154v688q0 86 -40 86q-24 0 -119 -21l-52 -12v112l484 113v-966q0 -150 88 -154l122 -7v-109h-694z" />
<glyph unicode="&#xba;" horiz-adv-x="1195" d="M171 341v171h853v-171h-853zM171 1209q0 539 427 539q426 0 426 -537q0 -542 -433 -542q-420 0 -420 540zM444 1209q0 -456 157 -456q150 0 150 464q0 446 -153 446q-154 0 -154 -454z" />
<glyph unicode="&#xbb;" d="M171 341v171l341 341l-341 342v170l512 -512zM683 341v171l341 341l-341 342v170l512 -512z" />
<glyph unicode="&#xbc;" horiz-adv-x="2389" d="M128 512v109l121 7q89 4 89 154v688q0 86 -40 86q-24 0 -118 -21l-52 -12v112l483 113v-966q0 -150 89 -154l122 -7v-109h-694zM734 0l683 1707h117l-682 -1707h-118zM1304 335v160l531 741h256v-710h170v-191h-170v-63l3 -94q0 -62 109 -69v-109h-499v109q109 7 109 69 l3 94v63h-512zM1460 526h358v498z" />
<glyph unicode="&#xbd;" horiz-adv-x="2389" d="M131 512v109l121 7q89 4 89 154v688q0 86 -39 86q-20 0 -119 -21l-52 -12v112l483 113v-990q0 -126 89 -130l122 -7v-109h-694zM737 0l683 1707h117l-682 -1707h-118zM1406 0v80q57 161 281 370l45 43q220 206 220 407q0 259 -216 259q-187 0 -187 -181v-27h-109v218 q187 67 360 67q459 0 459 -335q0 -168 -273 -348q-102 -68 -175 -136q-121 -113 -134 -199h582v-218h-853z" />
<glyph unicode="&#xbe;" horiz-adv-x="2389" d="M131 527v254h109q0 -115 40.5 -151.5t167.5 -36.5q229 0 229 229q0 272 -354 272h-59v109h45q354 0 354 228q0 207 -222 207q-190 0 -190 -160h-109v216q183 54 356 54q445 0 445 -284q0 -225 -305 -302q346 -65 346 -329q0 -350 -499 -350q-205 0 -354 44zM847 0 l683 1707h117l-682 -1707h-118zM1307 335v160l531 741h256v-710h170v-191h-170v-63l3 -94q0 -62 109 -69v-109h-499v109q109 7 109 69l3 94v63h-512zM1463 526h358v498z" />
<glyph unicode="&#xbf;" d="M164 341q0 167 181 299q75 55 104 80l53 45q106 90 106 303l4 106v21h341v-21q0 -160 -175 -311l-74 -64q-165 -143 -165 -377q0 -354 290 -354q233 0 234 172l1 81l1 20h137v-309q-210 -73 -462 -73q-260 0 -418 104.5t-158 277.5zM612 1365v342h341v-342h-341z" />
<glyph unicode="&#xc0;" d="M10 0v109l39 5q51 8 89 115l38 107l442 1412h109l462 -1413l48 -128q36 -98 118 -98v-109h-601v109q123 0 123 50q0 34 -48 177l-47 142h-447l-45 -143q-46 -142 -46 -176q0 -50 100 -50v-109h-334zM370 587h375l-192 583zM129 2218h427l341 -341h-171z" />
<glyph unicode="&#xc1;" d="M10 0v109l39 5q51 8 89 115l38 107l442 1412h109l462 -1413l48 -128q36 -98 118 -98v-109h-601v109q123 0 123 50q0 34 -48 177l-47 142h-447l-45 -143q-46 -142 -46 -176q0 -50 100 -50v-109h-334zM370 587h375l-192 583zM447 1877l341 341h427l-597 -341h-171z" />
<glyph unicode="&#xc2;" d="M10 0v109l39 5q51 8 89 115l38 107l442 1412h109l462 -1413l48 -128q36 -98 118 -98v-109h-601v109q123 0 123 50q0 34 -48 177l-47 142h-447l-45 -143q-46 -142 -46 -176q0 -50 100 -50v-109h-334zM370 587h375l-192 583zM245 1877l341 341h171l341 -341h-170l-256 171 l-256 -171h-171z" />
<glyph unicode="&#xc3;" d="M10 0v109l39 5q51 8 89 115l38 107l442 1412h109l462 -1413l48 -128q36 -98 118 -98v-109h-601v109q123 0 123 50q0 34 -48 177l-47 142h-447l-45 -143q-46 -142 -46 -176q0 -50 100 -50v-109h-334zM370 587h375l-192 583zM171 1877q0 342 299 342q105 0 190 -49l104 -60 q108 -63 161 -63q146 0 161 171h109q0 -341 -299 -341q-105 0 -190 49l-104 60q-108 62 -161 62q-146 0 -161 -171h-109z" />
<glyph unicode="&#xc4;" d="M10 0v109l39 5q51 8 89 115l38 107l442 1412h109l462 -1413l48 -128q36 -98 118 -98v-109h-601v109q123 0 123 50q0 34 -48 177l-47 142h-447l-45 -143q-46 -142 -46 -176q0 -50 100 -50v-109h-334zM370 587h375l-192 583zM331 1877v241h241v-241h-241zM772 1877v241h242 v-241h-242z" />
<glyph unicode="&#xc5;" d="M10 0v109l6 1l33 5q51 7 89 114l38 107l382 1220q-228 79 -228 321q0 142 100 242t242 100q141 0 241 -100.5t100 -241.5q0 -236 -224 -320l400 -1222l48 -128q34 -91 108 -97q3 0 10 -1v-109h-601v109q123 0 123 50q0 34 -48 177l-47 142h-447l-45 -143 q-46 -142 -46 -176q0 -50 100 -50v-109h-334zM370 587h375l-190 583h-2zM439 1880q0 -99 68 -167t167 -68q94 0 162 68.5t68 163.5q0 96 -68.5 164t-163.5 68t-164 -67.5t-69 -161.5z" />
<glyph unicode="&#xc6;" horiz-adv-x="1891" d="M10 0v109q78 11 135 118l55 104l728 1374l874 2v-301h-109v28l-2 76q0 87 -147 87h-274v-641h144l86 3q63 0 63 75v41h110v-341h-110v42q0 74 -63 74l-86 3h-144v-512q0 -140 16 -186t178 -46h43l128 4q58 0 68 30t10 137v34h123v-314h-1068v109q155 0 155 96l5 136v137 h-531l-75 -143q-79 -149 -79 -183q0 -43 101 -43v-109h-334zM455 587h473v892z" />
<glyph unicode="&#xc7;" d="M85 855q0 425 198.5 659t558.5 234q217 0 465 -75v-335h-137l-2 75q0 212 -280 212q-428 0 -428 -775q0 -754 476 -754q194 0 371 103v-144q-198 -94 -446 -96q137 -27 137 -139q0 -162 -268 -162q-127 0 -244 26v84l37 -5q93 -12 155 -12q149 0 149 87q0 59 -68 78v47 q-295 28 -471 233q-203 237 -203 659z" />
<glyph unicode="&#xc8;" horiz-adv-x="1219" d="M55 0v109q155 0 155 96l5 136v1024l-5 137q0 95 -155 95v110h1075v-301h-109v28l-2 76q0 87 -147 87h-315v-641h185l86 3q63 0 63 75v41h109v-341h-109v42q0 74 -63 74l-86 3h-185v-512q0 -140 16 -186t178 -46h84l128 4q58 0 68 30t10 137v34h123v-314h-1109zM95 2218 h427l341 -341h-171z" />
<glyph unicode="&#xc9;" horiz-adv-x="1219" d="M55 0v109q155 0 155 96l5 136v1024l-5 137q0 95 -155 95v110h1075v-301h-109v28l-2 76q0 87 -147 87h-315v-641h185l86 3q63 0 63 75v41h109v-341h-109v42q0 74 -63 74l-86 3h-185v-512q0 -140 16 -186t178 -46h84l128 4q58 0 68 30t10 137v34h123v-314h-1109zM342 1877 l341 341h427l-597 -341h-171z" />
<glyph unicode="&#xca;" horiz-adv-x="1219" d="M55 0v109q155 0 155 96l5 136v1024l-5 137q0 95 -155 95v110h1075v-301h-109v28l-2 76q0 87 -147 87h-315v-641h185l86 3q63 0 63 75v41h109v-341h-109v42q0 74 -63 74l-86 3h-185v-512q0 -140 16 -186t178 -46h84l128 4q58 0 68 30t10 137v34h123v-314h-1109zM181 1877 l341 341h171l341 -341h-170l-256 171l-256 -171h-171z" />
<glyph unicode="&#xcb;" horiz-adv-x="1219" d="M55 0v109q155 0 155 96l5 136v1024l-5 137q0 95 -155 95v110h1075v-301h-109v28l-2 76q0 87 -147 87h-315v-641h185l86 3q63 0 63 75v41h109v-341h-109v42q0 74 -63 74l-86 3h-185v-512q0 -140 16 -186t178 -46h84l128 4q58 0 68 30t10 137v34h123v-314h-1109zM181 1877 v241h241v-241h-241zM622 1877v241h242v-241h-242z" />
<glyph unicode="&#xcc;" horiz-adv-x="819" d="M79 0v109q155 0 155 96l5 136v1024l-5 137q0 95 -155 95v110h662v-110q-155 0 -155 -95l-5 -137v-1024l5 -136q0 -96 155 -96v-109h-662zM-7 2218h427l341 -341h-171z" />
<glyph unicode="&#xcd;" horiz-adv-x="819" d="M79 0v109q155 0 155 96l5 136v1024l-5 137q0 95 -155 95v110h662v-110q-155 0 -155 -95l-5 -137v-1024l5 -136q0 -96 155 -96v-109h-662zM58 1877l341 341h427l-597 -341h-171z" />
<glyph unicode="&#xce;" horiz-adv-x="819" d="M79 0v109q155 0 155 96l5 136v1024l-5 137q0 95 -155 95v110h662v-110q-155 0 -155 -95l-5 -137v-1024l5 -136q0 -96 155 -96v-109h-662zM-17 1877l341 341h171l341 -341h-170l-256 171l-256 -171h-171z" />
<glyph unicode="&#xcf;" horiz-adv-x="819" d="M79 0v109q155 0 155 96l5 136v1024l-5 137q0 95 -155 95v110h662v-110q-155 0 -155 -95l-5 -137v-1024l5 -136q0 -96 155 -96v-109h-662zM67 1877v241h241v-241h-241zM508 1877v241h242v-241h-242z" />
<glyph unicode="&#xd0;" horiz-adv-x="1410" d="M55 0v109q155 0 155 96l5 136v512h-160v137h160v375l-5 137q0 95 -155 95v110h730q250 0 395 -221t145 -602q0 -399 -149 -641.5t-394 -242.5h-727zM557 341q0 -153 18.5 -192.5t97.5 -39.5q283 0 283 788q0 700 -331 700h-68v-607h181v-137h-181v-512z" />
<glyph unicode="&#xd1;" horiz-adv-x="1626" d="M55 0v109q118 0 139 41.5t21 190.5v1024q0 149 -21 190.5t-139 41.5v110h331l854 -1166v824l-6 137q0 95 -155 95v110h492v-110q-155 0 -155 -95l-6 -137v-1379h-170l-854 1166v-811l5 -136q0 -96 156 -96v-109h-492zM256 1877q0 342 299 342q105 0 190 -49l104 -60 q108 -63 161 -63q146 0 161 171h109q0 -341 -299 -341q-105 0 -190 49l-104 60q-108 62 -161 62q-146 0 -161 -171h-109z" />
<glyph unicode="&#xd2;" d="M85 854q0 414 160 654t437 240t437.5 -239.5t160.5 -650.5q0 -423 -161 -661t-445 -238q-271 0 -430 242t-159 653zM454 855q0 -780 232 -780q225 0 225 794q0 763 -229 763q-228 0 -228 -777zM170 2218h427l341 -341h-171z" />
<glyph unicode="&#xd3;" d="M85 854q0 414 160 654t437 240t437.5 -239.5t160.5 -650.5q0 -423 -161 -661t-445 -238q-271 0 -430 242t-159 653zM454 855q0 -780 232 -780q225 0 225 794q0 763 -229 763q-228 0 -228 -777zM512 1877l341 341h427l-597 -341h-171z" />
<glyph unicode="&#xd4;" d="M85 854q0 414 160 654t437 240t437.5 -239.5t160.5 -650.5q0 -423 -161 -661t-445 -238q-271 0 -430 242t-159 653zM454 855q0 -780 232 -780q225 0 225 794q0 763 -229 763q-228 0 -228 -777zM256 1877l341 341h171l341 -341h-170l-256 171l-256 -171h-171z" />
<glyph unicode="&#xd5;" d="M85 854q0 414 160 654t437 240t437.5 -239.5t160.5 -650.5q0 -423 -161 -661t-445 -238q-271 0 -430 242t-159 653zM454 855q0 -780 232 -780q225 0 225 794q0 763 -229 763q-228 0 -228 -777zM171 1877q0 342 299 342q105 0 190 -49l104 -60q108 -63 161 -63 q146 0 161 171h109q0 -341 -299 -341q-105 0 -190 49l-104 60q-108 62 -161 62q-146 0 -161 -171h-109z" />
<glyph unicode="&#xd6;" d="M85 854q0 414 160 654t437 240t437.5 -239.5t160.5 -650.5q0 -423 -161 -661t-445 -238q-271 0 -430 242t-159 653zM454 855q0 -780 232 -780q225 0 225 794q0 763 -229 763q-228 0 -228 -777zM342 1877v241h241v-241h-241zM783 1877v241h242v-241h-242z" />
<glyph unicode="&#xd7;" d="M171 462l391 391l-391 392l121 120l391 -391l391 391l121 -120l-391 -392l391 -391l-121 -121l-391 392l-391 -392z" />
<glyph unicode="&#xd8;" d="M85 -41l152 254q-152 252 -152 638q0 417 160 657t437 240q220 0 375 -160l95 160h128l-152 -254q152 -248 152 -639q0 -416 -160 -656t-437 -240q-220 0 -375 160l-96 -160h-127zM454 860q0 -152 5 -249l1 -24l426 714q-49 331 -203 331q-229 0 -229 -772zM478 404 q50 -329 204 -329q229 0 229 795q0 153 -6 250z" />
<glyph unicode="&#xd9;" horiz-adv-x="1455" d="M55 1597v110h655v-110q-148 0 -148 -95l-5 -137v-682q0 -348 52.5 -481.5t189.5 -133.5q270 0 270 615v682l-5 137q0 89 -149 95v110h485v-110q-155 -8 -155 -95l-6 -137v-682q0 -724 -494 -724q-530 0 -530 724v682l-5 137q0 95 -155 95zM102 2218h427l341 -341h-171z " />
<glyph unicode="&#xda;" horiz-adv-x="1455" d="M55 1597v110h655v-110q-148 0 -148 -95l-5 -137v-682q0 -348 52.5 -481.5t189.5 -133.5q270 0 270 615v682l-5 137q0 89 -149 95v110h485v-110q-155 -8 -155 -95l-6 -137v-682q0 -724 -494 -724q-530 0 -530 724v682l-5 137q0 95 -155 95zM495 1877l341 341h427 l-597 -341h-171z" />
<glyph unicode="&#xdb;" horiz-adv-x="1455" d="M55 1597v110h655v-110q-148 0 -148 -95l-5 -137v-682q0 -348 52.5 -481.5t189.5 -133.5q270 0 270 615v682l-5 137q0 89 -149 95v110h485v-110q-155 -8 -155 -95l-6 -137v-682q0 -724 -494 -724q-530 0 -530 724v682l-5 137q0 95 -155 95zM341 1877l341 341h171l341 -341 h-170l-256 171l-256 -171h-171z" />
<glyph unicode="&#xdc;" horiz-adv-x="1455" d="M55 1597v110h655v-110q-148 0 -148 -95l-5 -137v-682q0 -348 52.5 -481.5t189.5 -133.5q270 0 270 615v682l-5 137q0 89 -149 95v110h485v-110q-155 -8 -155 -95l-6 -137v-682q0 -724 -494 -724q-530 0 -530 724v682l-5 137q0 95 -155 95zM427 1877v241h241v-241h-241z M868 1877v241h242v-241h-242z" />
<glyph unicode="&#xdd;" d="M10 1597v110h620v-110h-27l-39 -1q-66 0 -66 -40q0 -32 82 -191l238 -464h2l236 461q85 165 85 193q0 42 -91 42h-28v110h333v-110q-58 -4 -176 -234l-320 -626v-396l5 -136q0 -96 155 -96v-109h-662v109q155 0 155 96l5 136v396l-322 628l-69 136q-48 90 -116 96z M512 1877l341 341h427l-597 -341h-171z" />
<glyph unicode="&#xde;" horiz-adv-x="1356" d="M10 0v109q155 0 155 96l5 136v1024l-5 137q0 86 -155 95v110h657v-110q-91 -5 -123 -17t-32 -133v-82h290q450 0 450 -434q0 -544 -648 -544h-92v-46q0 -146 20.5 -189t164.5 -43v-109h-687zM512 496h54q345 0 345 412q0 348 -300 348h-99v-760z" />
<glyph unicode="&#xdf;" horiz-adv-x="1410" d="M55 0v101l19 1q86 6 111 19.5t25 86.5l5 108v898q0 534 452 534q423 0 423 -287q0 -105 -161 -265q-70 -69 -70 -104q0 -36 86 -125l49 -52l182 -182q173 -173 173 -368q0 -172 -103 -282t-263 -110q-172 0 -269 47v262h123q0 -10 1 -20l3 -66q7 -122 107 -122 q136 0 136 179q0 93 -118 211l-124 124q-190 191 -190 289q0 102 95 259q78 128 78 266q0 236 -131 236q-137 0 -137 -337v-1301h-502z" />
<glyph unicode="&#xe0;" d="M10 0v109l39 5q69 7 127 155l442 1137h109l462 -1138q60 -149 166 -159v-109h-601v109q116 0 116 36q0 20 -35 110l-55 133h-442l-48 -120q-38 -94 -38 -119q0 -39 96 -40v-109h-338zM381 497h353l-181 442zM129 1877h427l341 -341h-171z" />
<glyph unicode="&#xe1;" d="M10 0v109l39 5q69 7 127 155l442 1137h109l462 -1138q60 -149 166 -159v-109h-601v109q116 0 116 36q0 20 -35 110l-55 133h-442l-48 -120q-38 -94 -38 -119q0 -39 96 -40v-109h-338zM381 497h353l-181 442zM447 1536l341 341h427l-597 -341h-171z" />
<glyph unicode="&#xe2;" d="M10 0v109l39 5q69 7 127 155l442 1137h109l462 -1138q60 -149 166 -159v-109h-601v109q116 0 116 36q0 20 -35 110l-55 133h-442l-48 -120q-38 -94 -38 -119q0 -39 96 -40v-109h-338zM381 497h353l-181 442zM245 1536l341 341h171l341 -341h-170l-256 171l-256 -171h-171 z" />
<glyph unicode="&#xe3;" d="M10 0v109l39 5q69 7 127 155l442 1137h109l462 -1138q60 -149 166 -159v-109h-601v109q116 0 116 36q0 20 -35 110l-55 133h-442l-48 -120q-38 -94 -38 -119q0 -39 96 -40v-109h-338zM381 497h353l-181 442zM151 1536q0 342 299 342q105 0 190 -49l104 -60 q108 -63 161 -63q146 0 161 171h109q0 -341 -299 -341q-105 0 -190 49l-104 60q-108 62 -161 62q-146 0 -161 -171h-109z" />
<glyph unicode="&#xe4;" d="M10 0v109l39 5q69 7 127 155l442 1137h109l462 -1138q60 -149 166 -159v-109h-601v109q116 0 116 36q0 20 -35 110l-55 133h-442l-48 -120q-38 -94 -38 -119q0 -39 96 -40v-109h-338zM381 497h353l-181 442zM331 1536v241h241v-241h-241zM772 1536v241h242v-241h-242z " />
<glyph unicode="&#xe5;" d="M10 0v109l6 1l33 4q69 7 127 155l429 1103q-274 62 -274 334q0 142 100 242t241 100q142 0 242 -100t100 -242q0 -273 -273 -334l448 -1104q60 -149 156 -158q3 0 10 -1v-109h-601v109q116 0 116 39q0 9 -5 23l-14 40q-16 44 -22 58l-49 119h-442l-48 -120 q-38 -94 -38 -119q0 -39 76 -40h20v-109h-338zM381 497h353l-179 442h-2zM440 1706q0 -95 68.5 -163t164.5 -68q95 0 163 68t68 164q0 95 -68 163.5t-164 68.5q-95 0 -163.5 -68t-68.5 -165z" />
<glyph unicode="&#xe6;" horiz-adv-x="1961" d="M10 0v109q80 10 137 89l51 70l775 1097h899v-300h-109l-1 27l-1 77q0 87 -148 87h-304v-471h170l86 3q61 0 61 78v38h109v-341h-109v43q0 73 -61 73l-86 3l-170 1v-342q0 -141 16.5 -186.5t166.5 -45.5h85l127 4q59 0 68.5 30.5t10.5 136.5v34h123v-314h-1099v109 q155 0 155 96l5 136v47h-551l-84 -120q-78 -113 -78 -129q0 -29 74 -30h20v-109h-338zM493 497h474v672z" />
<glyph unicode="&#xe7;" horiz-adv-x="1195" d="M85 684q0 722 634 722q182 0 390 -60v-322h-137v34l-2 77q0 162 -218 162q-292 0 -292 -618q0 -604 342 -604q161 0 307 78v-117q-166 -75 -371 -77q137 -27 137 -139q0 -162 -268 -162q-127 0 -244 26v84l37 -5q93 -12 155 -12q149 0 149 87q0 59 -68 78v47 q-551 50 -551 721z" />
<glyph unicode="&#xe8;" horiz-adv-x="1202" d="M55 0v109q155 0 155 96l5 136v683l-5 137q0 95 -155 95v109h1058v-300h-109l-1 27v77q0 87 -148 87h-298v-471h163l86 3q61 0 61 78v38h110v-341h-110v43q0 73 -61 73l-86 3l-163 1v-342q0 -141 16.5 -186.5t166.5 -45.5h78l127 4q59 0 69 30.5t10 136.5v34h123v-314 h-1092zM102 1877h427l341 -341h-171z" />
<glyph unicode="&#xe9;" horiz-adv-x="1202" d="M55 0v109q155 0 155 96l5 136v683l-5 137q0 95 -155 95v109h1058v-300h-109l-1 27v77q0 87 -148 87h-298v-471h163l86 3q61 0 61 78v38h110v-341h-110v43q0 73 -61 73l-86 3l-163 1v-342q0 -141 16.5 -186.5t166.5 -45.5h78l127 4q59 0 69 30.5t10 136.5v34h123v-314 h-1092zM348 1536l341 341h427l-597 -341h-171z" />
<glyph unicode="&#xea;" horiz-adv-x="1202" d="M55 0v109q155 0 155 96l5 136v683l-5 137q0 95 -155 95v109h1058v-300h-109l-1 27v77q0 87 -148 87h-298v-471h163l86 3q61 0 61 78v38h110v-341h-110v43q0 73 -61 73l-86 3l-163 1v-342q0 -141 16.5 -186.5t166.5 -45.5h78l127 4q59 0 69 30.5t10 136.5v34h123v-314 h-1092zM187 1536l341 341h171l341 -341h-170l-256 171l-256 -171h-171z" />
<glyph unicode="&#xeb;" horiz-adv-x="1202" d="M55 0v109q155 0 155 96l5 136v683l-5 137q0 95 -155 95v109h1058v-300h-109l-1 27v77q0 87 -148 87h-298v-471h163l86 3q61 0 61 78v38h110v-341h-110v43q0 73 -61 73l-86 3l-163 1v-342q0 -141 16.5 -186.5t166.5 -45.5h78l127 4q59 0 69 30.5t10 136.5v34h123v-314 h-1092zM188 1536v241h241v-241h-241zM629 1536v241h242v-241h-242z" />
<glyph unicode="&#xec;" horiz-adv-x="772" d="M55 0v109q155 0 155 96l5 136v683l-5 137q0 95 -155 95v109h662v-109q-155 0 -155 -95l-5 -137v-683l5 -136q0 -96 155 -96v-109h-662zM-34 1877h427l341 -341h-171z" />
<glyph unicode="&#xed;" horiz-adv-x="772" d="M55 0v109q155 0 155 96l5 136v683l-5 137q0 95 -155 95v109h662v-109q-155 0 -155 -95l-5 -137v-683l5 -136q0 -96 155 -96v-109h-662zM31 1536l341 341h427l-597 -341h-171z" />
<glyph unicode="&#xee;" horiz-adv-x="772" d="M56 0v109q155 0 155 96l5 136v683l-5 137q0 95 -155 95v109h662v-109q-155 0 -155 -95l-5 -137v-683l5 -136q0 -96 155 -96v-109h-662zM-44 1536l341 341h171l341 -341h-170l-256 171l-256 -171h-171z" />
<glyph unicode="&#xef;" horiz-adv-x="772" d="M55 0v109q155 0 155 96l5 136v683l-5 137q0 95 -155 95v109h662v-109q-155 0 -155 -95l-5 -137v-683l5 -136q0 -96 155 -96v-109h-662zM41 1536v241h241v-241h-241zM482 1536v241h242v-241h-242z" />
<glyph unicode="&#xf0;" horiz-adv-x="1403" d="M55 0v109q155 0 155 96l5 136v342h-160v136h160v205l-5 137q0 95 -155 95v109h730q247 0 390 -176.5t143 -481.5q0 -320 -147 -513.5t-389 -193.5h-727zM557 288q0 -126 21 -152.5t99 -26.5q272 0 272 611q0 536 -310 536h-82v-437h181v-136h-181v-395z" />
<glyph unicode="&#xf1;" horiz-adv-x="1455" d="M55 0v109q118 0 139 41.5t21 190.5v683q0 149 -21 190.5t-139 41.5v109h331l683 -853v512l-5 137q0 95 -156 95v109h492v-109q-155 0 -155 -95l-6 -137v-1035h-170l-683 864v-512l5 -136q0 -96 156 -96v-109h-492zM171 1536q0 342 299 342q105 0 190 -49l104 -60 q108 -63 161 -63q146 0 161 171h109q0 -341 -299 -341q-105 0 -190 49l-104 60q-108 62 -161 62q-146 0 -161 -171h-109z" />
<glyph unicode="&#xf2;" d="M85 683q0 336 160 529.5t437 193.5t437.5 -193.5t160.5 -527.5q0 -341 -161 -533.5t-445 -192.5q-271 0 -430 196t-159 528zM454 684q0 -616 233 -616q224 0 224 624q0 605 -229 605q-228 0 -228 -613zM85 1877h427l341 -341h-171z" />
<glyph unicode="&#xf3;" d="M85 683q0 336 160 529.5t437 193.5t437.5 -193.5t160.5 -527.5q0 -341 -161 -533.5t-445 -192.5q-271 0 -430 196t-159 528zM454 684q0 -616 233 -616q224 0 224 624q0 605 -229 605q-228 0 -228 -613zM512 1536l341 341h427l-597 -341h-171z" />
<glyph unicode="&#xf4;" d="M85 683q0 336 160 529.5t437 193.5t437.5 -193.5t160.5 -527.5q0 -341 -161 -533.5t-445 -192.5q-271 0 -430 196t-159 528zM454 684q0 -616 233 -616q224 0 224 624q0 605 -229 605q-228 0 -228 -613zM256 1536l341 341h171l341 -341h-170l-256 171l-256 -171h-171z" />
<glyph unicode="&#xf5;" d="M85 683q0 336 160 529.5t437 193.5t437.5 -193.5t160.5 -527.5q0 -341 -161 -533.5t-445 -192.5q-271 0 -430 196t-159 528zM454 684q0 -616 233 -616q224 0 224 624q0 605 -229 605q-228 0 -228 -613zM171 1536q0 342 299 342q105 0 190 -49l104 -60q108 -63 161 -63 q146 0 161 171h109q0 -341 -299 -341q-105 0 -190 49l-104 60q-108 62 -161 62q-146 0 -161 -171h-109z" />
<glyph unicode="&#xf6;" d="M85 683q0 336 160 529.5t437 193.5t437.5 -193.5t160.5 -527.5q0 -341 -161 -533.5t-445 -192.5q-271 0 -430 196t-159 528zM454 684q0 -616 233 -616q224 0 224 624q0 605 -229 605q-228 0 -228 -613zM342 1536v241h241v-241h-241zM783 1536v241h242v-241h-242z" />
<glyph unicode="&#xf7;" horiz-adv-x="1195" d="M171 683v170h853v-170h-853zM512 341v171h171v-171h-171zM512 1024v171h171v-171h-171z" />
<glyph unicode="&#xf8;" d="M85 -41l151 206q-151 202 -151 517q0 336 160 530t437 194q215 0 370 -126l92 126h136l-151 -206q151 -201 151 -517q0 -336 -160 -530t-437 -194q-216 0 -370 126l-93 -126h-135zM454 692q0 -112 6 -221l424 579q-51 247 -202 247q-228 0 -228 -605zM481 315 q55 -247 201 -247q229 0 229 615q0 118 -6 211z" />
<glyph unicode="&#xf9;" horiz-adv-x="1455" d="M55 1256v109h655v-109q-148 0 -148 -95l-5 -137v-483q0 -280 52.5 -387t191.5 -107q268 0 268 494v483l-5 137q0 87 -149 95v109h485v-109q-155 -8 -155 -95l-6 -137v-483q0 -582 -497 -582q-527 0 -527 582v483l-5 137q0 95 -155 95zM102 1877h427l341 -341h-171z" />
<glyph unicode="&#xfa;" horiz-adv-x="1455" d="M55 1256v109h655v-109q-148 0 -148 -95l-5 -137v-483q0 -280 52.5 -387t191.5 -107q268 0 268 494v483l-5 137q0 87 -149 95v109h485v-109q-155 -8 -155 -95l-6 -137v-483q0 -582 -497 -582q-527 0 -527 582v483l-5 137q0 95 -155 95zM495 1536l341 341h427l-597 -341 h-171z" />
<glyph unicode="&#xfb;" horiz-adv-x="1455" d="M55 1256v109h655v-109q-148 0 -148 -95l-5 -137v-483q0 -280 52.5 -387t191.5 -107q268 0 268 494v483l-5 137q0 87 -149 95v109h485v-109q-155 -8 -155 -95l-6 -137v-483q0 -582 -497 -582q-527 0 -527 582v483l-5 137q0 95 -155 95zM341 1536l341 341h171l341 -341 h-170l-256 171l-256 -171h-171z" />
<glyph unicode="&#xfc;" horiz-adv-x="1455" d="M55 1256v109h655v-109q-148 0 -148 -95l-5 -137v-483q0 -280 52.5 -387t191.5 -107q268 0 268 494v483l-5 137q0 87 -149 95v109h485v-109q-155 -8 -155 -95l-6 -137v-483q0 -582 -497 -582q-527 0 -527 582v483l-5 137q0 95 -155 95zM427 1536v241h241v-241h-241z M868 1536v241h242v-241h-242z" />
<glyph unicode="&#xfd;" d="M10 1256v109h620v-109l-55 -1q-68 -1 -68 -27q0 -28 73 -136l238 -372h2l236 369q77 120 77 138q0 29 -111 29v109h333v-109q-76 -6 -124 -82l-52 -84l-320 -500v-249l5 -136q0 -96 155 -96v-109h-662v109q155 0 155 96l5 136v249l-322 502q-102 159 -185 164zM512 1536 l341 341h427l-597 -341h-171z" />
<glyph unicode="&#xfe;" horiz-adv-x="1356" d="M10 0v109q155 0 155 96l5 136v683l-5 137q0 85 -155 95v109h502v-187h290q451 0 451 -367q0 -453 -649 -453h-92v-34q0 -132 16.5 -167t82.5 -41l85 -7v-109h-686zM512 468h58q341 0 341 323q0 277 -292 277h-107v-600z" />
<glyph unicode="&#xff;" d="M10 1256v109h620v-109l-55 -1q-68 -1 -68 -27q0 -28 73 -136l238 -372h2l236 369q77 120 77 138q0 29 -111 29v109h333v-109q-76 -6 -124 -82l-52 -84l-320 -500v-249l5 -136q0 -96 155 -96v-109h-662v109q155 0 155 96l5 136v249l-322 502q-102 159 -185 164zM444 1536 v241h241v-241h-241zM885 1536v241h242v-241h-242z" />
<glyph unicode="&#x131;" horiz-adv-x="772" d="M55 0v109q155 0 155 96l5 136v683l-5 137q0 95 -155 95v109h662v-109q-155 0 -155 -95l-5 -137v-683l5 -136q0 -96 155 -96v-109h-662z" />
<glyph unicode="&#x152;" horiz-adv-x="1891" d="M85 853q0 413 159.5 654t433.5 241q102 0 213 -41h911v-301h-109l-1 28l-1 76q0 87 -148 87h-297v-641h167l87 3q63 0 63 75v41h109v-341h-109v42q0 74 -63 74l-87 3h-167v-512q0 -140 16 -186t177 -46h68l127 4q59 0 69 30t10 137v34h123v-314h-946q-103 -41 -210 -41 q-275 0 -435 240t-160 654zM454 855q0 -781 241 -781q125 0 174 182t49 632q0 744 -228 744q-236 0 -236 -777z" />
<glyph unicode="&#x153;" horiz-adv-x="1898" d="M85 683q0 335 160 529t435 194q119 0 231 -41h898v-300h-109l-1 27l-1 77q0 87 -148 87h-304v-471h170l86 3q61 0 61 78v38h109v-341h-109v43q0 73 -61 73l-86 3l-170 1v-342q0 -141 16.5 -186.5t166.5 -45.5h85l127 4q59 0 68.5 30.5t10.5 136.5v34h123v-314h-933 q-114 -41 -230 -41q-275 0 -435 194.5t-160 529.5zM454 684q0 -616 234 -616q230 0 230 623q0 606 -235 606q-229 0 -229 -613z" />
<glyph unicode="&#x178;" d="M10 1597v110h620v-110h-27l-39 -1q-66 0 -66 -40q0 -32 82 -191l238 -464h2l236 461q85 165 85 193q0 42 -91 42h-28v110h333v-110q-58 -4 -176 -234l-320 -626v-396l5 -136q0 -96 155 -96v-109h-662v109q155 0 155 96l5 136v396l-322 628l-69 136q-48 90 -116 96z M444 1877v241h241v-241h-241zM885 1877v241h242v-241h-242z" />
<glyph unicode="&#x2c6;" horiz-adv-x="1024" d="M85 1536l341 341h171l341 -341h-170l-256 171l-256 -171h-171z" />
<glyph unicode="&#x2dc;" d="M171 1536q0 342 299 342q105 0 190 -49l104 -60q108 -63 161 -63q146 0 161 171h109q0 -341 -299 -341q-105 0 -190 49l-104 60q-108 62 -161 62q-146 0 -161 -171h-109z" />
<glyph unicode="&#x2013;" horiz-adv-x="1024" d="M171 683v170h683v-170h-683z" />
<glyph unicode="&#x2014;" horiz-adv-x="1707" d="M171 683v170h1365v-170h-1365z" />
<glyph unicode="&#x2018;" horiz-adv-x="683" d="M171 1024v264q0 394 341 419v-110q-131 0 -131 -156v-76h131v-341h-341z" />
<glyph unicode="&#x2019;" horiz-adv-x="683" d="M171 1024v109q131 0 131 156v76h-131v342h341v-264q0 -394 -341 -419z" />
<glyph unicode="&#x201a;" horiz-adv-x="683" d="M171 0v341h341v-264q0 -394 -341 -418v109q131 0 131 156v76h-131z" />
<glyph unicode="&#x201c;" horiz-adv-x="1195" d="M171 1024v264q0 394 341 419v-110q-131 0 -131 -156v-76h131v-341h-341zM683 1024v264q0 394 341 419v-110q-131 0 -131 -156v-76h131v-341h-341z" />
<glyph unicode="&#x201d;" horiz-adv-x="1195" d="M171 1024v109q131 0 131 156v76h-131v342h341v-264q0 -394 -341 -419zM683 1024v109q131 0 131 156v76h-131v342h341v-264q0 -394 -341 -419z" />
<glyph unicode="&#x201e;" horiz-adv-x="1195" d="M171 0v341h341v-264q0 -394 -341 -418v109q131 0 131 156v76h-131zM683 0v341h341v-264q0 -394 -341 -418v109q131 0 131 156v76h-131z" />
<glyph unicode="&#x2022;" horiz-adv-x="1195" d="M171 773q0 173 126 297.5t301 124.5q176 0 301 -125.5t125 -301.5q0 -177 -124.5 -302t-300.5 -125q-180 0 -304 125.5t-124 306.5z" />
<glyph unicode="&#x2026;" horiz-adv-x="2048" d="M171 0v341h341v-341h-341zM854 0v341h341v-341h-341zM1536 0v341h342v-341h-342z" />
<glyph unicode="&#x2039;" horiz-adv-x="853" d="M171 853l512 512v-170l-341 -342l341 -341v-171z" />
<glyph unicode="&#x203a;" horiz-adv-x="853" d="M171 341v171l341 341l-341 342v170l512 -512z" />
<glyph unicode="&#x2122;" horiz-adv-x="1873" d="M116 1488v219h730v-219h-109v109h-170v-464h109v-109h-389v109h109v464h-171v-109h-109zM846 1024v109h110v464h-110v110h289l165 -411h2l156 411h299v-110h-110v-464h110v-109h-280v419h-2l-174 -419h-65l-169 404h-2v-404h-219z" />
<glyph unicode="&#xe000;" d="M0 1365h1365v-1365h-1365v1365z" />
<glyph unicode="&#xfb01;" horiz-adv-x="1830" d="M55 0v109q155 0 155 96l5 136v683l-5 137q0 95 -155 95v109h973v-300h-109l-1 27l-1 77q0 87 -148 87h-212v-471h105q93 0 120 9t27 72v38h110v-341h-110v43q0 73 -61 73l-86 3l-105 1v-342l5 -136q0 -96 155 -96v-109h-662zM1079 0v109q155 0 155 96l5 136v683l-5 137 q0 95 -155 95v109h662v-109q-155 0 -155 -95l-5 -137v-683l5 -136q0 -96 155 -96v-109h-662z" />
<glyph unicode="&#xfb02;" horiz-adv-x="2131" d="M55 0v109q155 0 155 96l5 136v683l-5 137q0 95 -155 95v109h973v-300h-109l-1 27l-1 77q0 87 -148 87h-212v-471h105q93 0 120 9t27 72v38h110v-341h-110v43q0 73 -61 73l-86 3l-105 1v-342l5 -136q0 -96 155 -96v-109h-662zM1120 0v109q155 0 155 96l5 136v683l-5 137 q0 95 -155 95v109h662v-109q-155 0 -155 -95l-5 -137v-683q0 -145 27.5 -175t129.5 -30l89 4q58 0 67.5 30.5t10.5 136.5v34h137v-341h-963z" />
<glyph unicode="&#xfb03;" horiz-adv-x="2938" d="M2221 0v109q155 0 155 96l5 136v683l-5 137q0 95 -155 95v109h662v-109q-155 0 -155 -95l-5 -137v-683l5 -136q0 -96 155 -96v-109h-662zM1138 0v109q155 0 155 96l5 136v683l-5 137q0 95 -155 95v109h973v-300h-109l-1 27l-1 77q0 87 -148 87h-212v-471h105q93 0 120 9 t27 72v38h110v-341h-110v43q0 73 -61 73l-86 3l-105 1v-342l5 -136q0 -96 155 -96v-109h-662zM55 0v109q155 0 155 96l5 136v683l-5 137q0 95 -155 95v109h973v-300h-109l-1 27l-1 77q0 87 -148 87h-212v-471h105q93 0 120 9t27 72v38h110v-341h-110v43q0 73 -61 73l-86 3 l-105 1v-342l5 -136q0 -96 155 -96v-109h-662z" />
<glyph unicode="&#xfb04;" horiz-adv-x="3239" d="M2221 0v109q155 0 155 96l5 136v683l-5 137q0 95 -155 95v109h662v-109q-155 0 -155 -95l-5 -137v-683q0 -145 27.5 -175t129.5 -30l89 4q58 0 67.5 30.5t10.5 136.5v34h137v-341h-963zM1138 0v109q155 0 155 96l5 136v683l-5 137q0 95 -155 95v109h973v-300h-109l-1 27 l-1 77q0 87 -148 87h-212v-471h105q93 0 120 9t27 72v38h110v-341h-110v43q0 73 -61 73l-86 3l-105 1v-342l5 -136q0 -96 155 -96v-109h-662zM55 0v109q155 0 155 96l5 136v683l-5 137q0 95 -155 95v109h973v-300h-109l-1 27l-1 77q0 87 -148 87h-212v-471h105q93 0 120 9 t27 72v38h110v-341h-110v43q0 73 -61 73l-86 3l-105 1v-342l5 -136q0 -96 155 -96v-109h-662z" />
</font>
</defs>
</svg>
