<?xml version="1.0" standalone="no"?>
<!DOCTYPE svg PUBLIC "-//W3C//DTD SVG 1.1//EN" "http://www.w3.org/Graphics/SVG/1.1/DTD/svg11.dtd" >
<svg xmlns="http://www.w3.org/2000/svg">
<metadata>
This is a custom SVG webfont generated by Font Squirrel.
Copyright   :  copyright c James Arboghast 2004  all rights reserved worldwide  published 2004 by Sentinel Type  Adam Gorry is an asserted mark of Adam Gorry  FREEWARE this font is free and may be freely distributed without permission from the publisher  no license fee is payable for personal or nonprofit use for commercial use or any use please make a cash donation to a Leukaemia foundation or research fund of your choice  In 1997 Adam aged 3 was diagnosed with Leukaemia in 2002 he beat it with the help of modern medicine and much love from his family When you use this font spare a thought for Leukaemia sufferers worldwide your donation will make a difference 
Designer    : James Arboghast
Foundry URL : httpwwwmyfontscom
</metadata>
<defs>
<font id="AdamGorryInlineRegular" horiz-adv-x="816" >
<font-face units-per-em="1000" ascent="800" descent="-200" />
<missing-glyph horiz-adv-x="264" />
<glyph horiz-adv-x="0" />
<glyph horiz-adv-x="0" />
<glyph unicode="&#xd;" horiz-adv-x="324" />
<glyph unicode=" "  horiz-adv-x="264" />
<glyph unicode="&#x09;" horiz-adv-x="264" />
<glyph unicode="&#xa0;" horiz-adv-x="264" />
<glyph unicode="!" horiz-adv-x="291" d="M57 76q0 -36 25.5 -62t61.5 -26t61 26t25 62t-25 61.5t-61 25.5q-37 0 -62 -25t-25 -62zM143 721q-81 0 -81 -98v-320q0 -98 81 -98q37 0 59 24t22 74v320q0 50 -22 74t-59 24zM144 276q-12 0 -12 15v352q0 14 12 14q11 0 11 -14v-352q0 -15 -11 -15zM119 76q0 11 8 18.5 t19 7.5q10 0 17.5 -7.5t7.5 -18.5t-7.5 -18.5t-17.5 -7.5q-11 0 -19 7.5t-8 18.5z" />
<glyph unicode="&#x22;" horiz-adv-x="324" d="M86 489q47 0 47 51v132q0 49 -48 49q-46 0 -46 -49v-132q0 -51 47 -51zM238 489q47 0 47 51v132q0 49 -48 49q-46 0 -46 -49v-132q0 -51 47 -51zM87 531q-9 0 -9 11v129q0 11 9 11t9 -11v-129q0 -11 -9 -11zM240 531q-9 0 -9 11v129q0 11 9 11t9 -11v-129q0 -11 -9 -11z " />
<glyph unicode="#" horiz-adv-x="727" d="M459 226h-217l-16 -176q-1 -10 -10 -10q-8 0 -8 11l17 175h-127q-11 0 -11 7q0 10 11 10h128l21 218h-129q-11 0 -11 8q0 10 11 10h131l18 179q1 12 9 12q10 0 8 -13l-17 -178h216l18 179q1 12 10 12q10 0 8 -13l-18 -178h135q11 0 11 -10q0 -8 -11 -8h-137l-20 -218h131 q12 0 12 -10q0 -7 -12 -7h-133l-17 -176q-1 -10 -10 -10q-8 0 -8 11zM265 461l-21 -218h216l21 218h-216zM290 282l13 137h132l-13 -137h-132zM178 185l-12 -126q-5 -59 47 -59q23 0 38.5 15.5t17.5 43.5l11 126h132l-12 -126q-5 -59 47 -59q24 0 39 15.5t17 43.5l12 126h86 q57 0 63 48q1 22 -13.5 35.5t-40.5 13.5h-86l13 137h86q58 0 63 49q1 22 -13.5 35.5t-40.5 13.5h-85l13 134q4 60 -46 60q-24 0 -39.5 -16t-17.5 -44l-13 -134h-132l13 134q5 60 -46 60q-23 0 -38.5 -16t-17.5 -44l-13 -134h-86q-56 0 -61 -49q-1 -23 12.5 -36t39.5 -13h85 l-13 -137h-84q-59 0 -61 -49q-3 -22 10.5 -35t40.5 -13h85z" />
<glyph unicode="$" horiz-adv-x="569" d="M294 42v-107q0 -15 -12 -15q-11 0 -11 15v106h-3q-57 0 -123 26q-32 13 -32 29q0 15 17 8q2 0 5.5 -3t6.5 -4q3 -3 14 -9q47 -26 111 -26q69 0 111 37q48 43 48 103v2q0 62 -34 94q-16 16 -48 31q-24 13 -53 23q-1 1 -15.5 6t-22.5 8t-24.5 10.5t-27 14.5l-25.5 17 t-24.5 21.5t-18 25t-12.5 30t-3 34.5q0 51 30.5 88.5t80.5 54.5q22 6 34 8v89q0 14 11 14q12 0 12 -14v-87q5 1 15 1q33 0 63 -9t44.5 -19t14.5 -16q0 -11 -10 -11q-5 0 -12 6q-43 27 -96 27q-70 0 -116.5 -35t-46.5 -97q2 -102 153 -145q93 -31 123.5 -70.5t30.5 -98.5 q0 -57 -30.5 -96.5t-80.5 -57.5q-19 -7 -44 -9zM343 727v27q0 73 -72 73q-68 0 -68 -73v-38q-46 -15 -82 -45q-68 -59 -68 -156q0 -77 45.5 -127.5t139.5 -84.5q69 -25 91 -42q24 -18 24 -56q0 -32 -23.5 -52.5t-66.5 -20.5q-38 0 -78 20q-37 21 -56 21q-35 0 -57.5 -22.5 t-22.5 -55.5q0 -45 57 -80q43 -26 106 -32v-36q0 -74 69 -74q71 0 71 74v45q52 15 95 50q74 62 74 168q0 87 -47 134q-46 46 -159 88q-94 34 -94 83q0 32 21 49t58 17t62 -16t45 -16q34 0 53 20t19 56q0 46 -49 74q-34 22 -87 28z" />
<glyph unicode="%" horiz-adv-x="855" d="M612 158q0 23 15.5 38.5t36.5 15.5t36 -15.5t15 -38.5q0 -21 -15 -37t-36 -16t-36.5 16t-15.5 37zM511 158q0 -65 44 -112q45 -46 109 -46q65 0 108 46q44 47 44 112q0 66 -44 113q-43 46 -108 46q-64 0 -109 -46q-44 -46 -44 -113zM141 553q0 22 15 37t36 15 q22 0 37 -15t15 -37t-15.5 -37.5t-36.5 -15.5t-36 15.5t-15 37.5zM39 553q0 -66 44 -113q45 -46 109 -46q65 0 108 46q45 46 45 113q0 65 -45 112q-44 47 -108 47t-109 -46q-44 -47 -44 -113zM632 712q-42 23 -73 -31l-349 -613q-25 -47 15 -72q42 -23 70 25l351 618 q27 46 -14 73zM249 34q-7 6 -3 16l352 617q7 9 15 5q5 -6 1 -13l-351 -620q-9 -9 -14 -5zM551 157q0 51 32.5 84.5t80.5 33.5t80.5 -34t32.5 -84q0 -49 -32.5 -83t-80.5 -34t-80.5 33.5t-32.5 83.5zM567 157q0 -42 28.5 -70.5t68.5 -28.5t68 29t28 70q0 42 -28 71.5 t-68 29.5t-68.5 -29.5t-28.5 -71.5zM79 553q0 51 32.5 84.5t80.5 33.5t81 -34t33 -84q0 -49 -33 -83t-81 -34t-80.5 33.5t-32.5 83.5zM96 553q0 -42 28 -71t68 -29t68 29.5t28 70.5q0 42 -28 71t-68 29t-68 -29t-28 -71z" />
<glyph unicode="&#x26;" horiz-adv-x="718" d="M522 158q-29 -36 -71 -74q-68 -55 -154 -56q-95 0 -149 70q-44 63 -28 137q17 76 107 129q33 19 58 31l-31 29q-4 4 -17.5 16.5t-17.5 17t-14.5 15t-14 17.5l-9 18t-8 22t-3.5 24q-6 61 42 98q38 32 97 38q67 5 111 -29q42 -32 48 -90q9 -78 -60 -132q-27 -19 -87 -50 l202 -199l14 17l13.5 16.5t9.5 10.5l65 89q11 17 20 7q8 -9 -1 -23q-29 -40 -69 -88l-34 -43l90 -88q5 -5 6 -10q2 -5 -3 -10q-8 -6 -20 2zM509 173l-208 205q-41 -19 -57 -28q-85 -51 -100 -118t23 -121q47 -61 126 -60q76 0 141 47q17 14 75 75zM308 405q78 42 96 57 q47 38 41 105q-4 50 -39 77t-94 25q-54 -5 -83 -33q-40 -34 -36 -80q3 -31 19 -53.5t57 -62.5zM428 172q-56 -60 -117 -65q-45 -4 -73 19t-32 65q-5 69 77 119zM320 473q-59 42 -63 82q-2 24 15.5 43t44.5 22q33 3 54.5 -13.5t21.5 -41.5q5 -57 -73 -92zM190 406 q-159 -98 -143 -231q7 -96 80 -153q73 -55 176 -45q137 8 217 99q39 -39 63.5 -53t45.5 -12q28 2 45.5 23.5t15.5 50.5q-1 18 -14 37q-12 19 -58 64q81 86 79 137q-3 28 -23 46t-44 15q-23 -2 -42 -25l-65 -81l-107 105q114 85 104 192q-8 76 -68 119q-62 45 -152 35 q-91 -6 -144 -59q-52 -52 -47 -124q7 -69 81 -140z" />
<glyph unicode="'" horiz-adv-x="172" d="M86 489q47 0 47 51v132q0 49 -48 49q-46 0 -46 -49v-132q0 -51 47 -51zM87 531q-9 0 -9 11v129q0 11 9 11t9 -11v-129q0 -11 -9 -11z" />
<glyph unicode="(" horiz-adv-x="299" d="M146 558q26 79 51 120q9 16 15 17q14 2 13 -9t-15 -31q-24 -44 -54 -138q-17 -56 -23 -120q-2 -44 -2 -48q-1 -30 6 -82.5t19 -87.5q29 -87 54 -137q28 -38 8 -40q-3 -1 -6 0q-12 5 -40 67q-16 39 -26 71q-7 11 -23 76q-16 64 -16 133q0 68 16 132q16 65 23 77zM211 -42 q31 0 49.5 16.5t13.5 45.5q0 2 -47 107q-45 101 -47 219q-1 113 46 225q48 111 48 116q5 28 -13.5 44.5t-49.5 16.5q-26 0 -45 -23t-44 -83q-63 -153 -63 -288q0 -156 66 -306q24 -54 42.5 -72t43.5 -18z" />
<glyph unicode=")" horiz-adv-x="299" d="M153 558q7 -12 23 -77q15 -60 15 -132q0 -73 -15 -133q-16 -65 -23 -76q-23 -73 -52 -121q-8 -15 -14 -17q-14 -2 -13 9t15 31q30 60 53 137q12 35 19.5 88t6.5 82q0 58 -12 111q-5 24 -14 57q-25 85 -53 138q-28 38 -8 40q3 1 6 0q11 -4 39 -68q16 -35 27 -69zM88 -42 q25 0 43 18t42 72q67 144 67 306q0 142 -64 288q-25 61 -43.5 83.5t-44.5 22.5q-31 0 -49.5 -16.5t-14.5 -44.5q0 -5 48 -116t47 -225q-1 -116 -48 -219q-47 -105 -47 -107q-4 -29 14.5 -45.5t49.5 -16.5z" />
<glyph unicode="*" horiz-adv-x="552" d="M295 490l112 -111q3 -5 3 -8q0 -4 -4 -8q-6 -6 -14 2l-109 113l-39 -151q-2 -11 -12 -9q-5 1 -7 5t0 8l45 153l-160 -41q-12 -2 -13 7q-2 5 0.5 9t6.5 4l161 35l-116 114q-5 9 -1 15q9 6 16 -1l111 -117l39 157q0 11 13 9q6 -3 6 -14l-42 -156l150 39q11 2 15 -7 q0 -7 -11 -13zM207 424q-6 -11 -19 -43q-11 -24 -16 -40q-8 -29 3.5 -51t38.5 -30q27 -7 48 6t29 43q3 10 5 44q1 29 5 45q4 -4 16 -24q42 -60 73 -67q22 -6 43.5 7.5t28.5 38.5q6 24 -10 46q-14 21 -82 68q81 5 105 15t32 37q6 24 -5.5 47t-33.5 29q-31 9 -99 -23 q-20 -9 -24 -10q5 16 18 40t18 40q8 29 -3.5 51t-38.5 29t-48 -6.5t-29 -42.5q-3 -12 -6 -41q-1 -10 -3 -24.5t-2 -19.5q-9 9 -21 25q-38 57 -67 65q-21 6 -43 -8.5t-29 -38.5q-12 -42 81 -107l12 -6q-5 0 -14 -3q-112 -6 -124 -50q-7 -25 5 -47.5t34 -28.5q30 -8 88 19 q28 14 34 16z" />
<glyph unicode="+" horiz-adv-x="629" d="M326 346v-200q0 -14 -11 -14q-12 0 -12 14v200h-191q-13 0 -13 10q0 13 13 13h191v201q0 14 12 14q11 0 11 -14v-201h192q13 0 13 -13q0 -10 -13 -10h-192zM385 286h132q73 0 73 71q0 69 -73 69h-132v143q0 74 -72 74q-68 0 -68 -74v-143h-132q-74 0 -74 -70t74 -70h132 v-143q0 -75 69 -75q71 0 71 75v143z" />
<glyph unicode="," horiz-adv-x="240" d="M118 -99q-12 0 -12 15v151q0 15 12 15t12 -15v-151q0 -15 -12 -15zM117 -162q34 0 52 21t18 58v153q0 78 -71 78q-33 0 -50.5 -21t-17.5 -57v-153q0 -37 18 -58t51 -21z" />
<glyph unicode="-" horiz-adv-x="447" d="M39 356q0 -70 74 -70h222q73 0 73 71q0 69 -73 69h-222q-74 0 -74 -70zM117 346q-13 0 -13 10q0 13 13 13h213q14 0 14 -13q0 -10 -14 -10h-213z" />
<glyph unicode="." horiz-adv-x="240" d="M29 84q0 -38 26.5 -64.5t65.5 -26.5q37 0 63.5 26.5t26.5 64.5q0 37 -26.5 64t-63.5 27q-38 0 -65 -27t-27 -64zM96 86q0 11 7.5 18t18.5 7q25 0 25 -25q0 -11 -7 -18.5t-18 -7.5t-18.5 7.5t-7.5 18.5z" />
<glyph unicode="/" horiz-adv-x="306" d="M203 750l-205 -762q-8 -27 2.5 -45.5t34.5 -24.5q51 -13 68 43l205 761q14 57 -37 71q-24 6 -42.5 -5.5t-25.5 -37.5zM49 -37q-12 4 -7 17l202 750q5 13 16 12q12 -4 7 -17l-203 -750q-5 -13 -15 -12z" />
<glyph unicode="0" horiz-adv-x="672" d="M337 134q-60 0 -94.5 59.5t-34.5 161.5t34.5 162t94.5 60q59 0 93.5 -60t34.5 -162t-34.5 -161.5t-93.5 -59.5zM336 -17q136 0 216 102q81 102 81 269q0 170 -81 270q-80 102 -216 102t-217 -102q-80 -101 -80 -270q0 -166 80 -269q81 -102 217 -102zM338 50 q-106 0 -166 85t-60 220q0 130 61 216q61 88 165 88q105 0 165 -88q61 -86 61 -216q0 -135 -60 -220t-166 -85zM336 71q98 0 152 78q54 79 54 205q0 119 -53 202q-52 82 -152 82q-97 0 -149 -82q-53 -83 -53 -202q0 -124 53 -204q52 -79 148 -79z" />
<glyph unicode="1" horiz-adv-x="406" d="M244 617l-139 -120q-3 -6 -8.5 -7t-9.5 3q-8 11 2 21l157 136q4 4 10 4q12 0 12 -14v-557q0 -15 -12 -15t-12 15v534zM179 489l-3 -391q0 -50 22 -74t59 -24t59 24t22 74v515q0 51 -24 74q-20 23 -51 24h-6q-8 0 -13 -1q-27 -3 -46 -21l-145 -129q-27 -23 -30.5 -54.5 t14.5 -50.5q19 -24 47 -25t56 22z" />
<glyph unicode="2" horiz-adv-x="579" d="M140 89h323q14 0 14 -13q0 -11 -14 -11h-340q-7 0 -10 1q-15 6 -4 26q43 59 95 111l86 88q28 28 75 88q104 143 34 224q-32 37 -84.5 45t-97.5 -15q-72 -43 -79 -121q-3 -11 -9.5 -13.5t-11.5 4.5q-4 6 -1 17q10 87 88 130q53 28 115 19q63 -8 100 -54 q40 -45 29.5 -111.5t-70.5 -146.5q-41 -53 -75 -89l-81 -81q-36 -38 -82 -98zM276 149q144 149 192 225t48 146q0 93 -64 151q-64 59 -164 59q-118 0 -191 -91q-43 -54 -43 -121q0 -38 22 -60.5t58 -22.5q33 0 49.5 16.5t22.5 55.5q6 35 28.5 54t53.5 19q30 0 48 -19t18 -49 q0 -34 -36 -91t-99 -120q-50 -52 -86 -85q-95 -84 -93 -141q0 -75 92 -75h330q37 0 57.5 19.5t20.5 55.5t-21 55t-57 19h-186z" />
<glyph unicode="3" horiz-adv-x="574" d="M414 626h-285q-15 0 -15 12q0 11 15 11h305q14 0 14 -11q0 -1 -2 -9l-226 -251q147 18 206 -35q41 -42 41 -116q0 -89 -58 -137q-55 -48 -146 -48q-85 0 -153 58q-8 6 -8 12q1 11 8 14t15 -4q64 -58 139 -58t128 41q52 43 52 123q0 60 -36 98q-50 54 -210 28h-8 q-11 6 -5 20zM287 562l-110 -108q-50 -41 -50 -80q1 -39 19 -60q19 -19 49 -19q11 0 35.5 5.5t44.5 5.5q40 0 65 -24t25 -56q0 -41 -29 -67.5t-71 -26.5q-57 0 -97 30q-39 30 -62 30q-28 0 -47.5 -20.5t-19.5 -50.5q0 -58 67 -100q70 -42 161 -42q117 0 192 76q76 76 76 171 q0 94 -57 153q-58 54 -132 47l132 136q31 28 31 75q0 74 -93 74h-286q-35 0 -56.5 -21t-21.5 -54t21 -53.5t57 -20.5h157z" />
<glyph unicode="4" horiz-adv-x="611" d="M117 228h283v405q0 14 12 14t12 -14v-405h104q15 0 15 -12t-15 -12h-104v-126q0 -15 -12 -15t-12 15v126h-298q-15 0 -15 12q0 6 6 16l132 289q7 16 15 9q11 -6 4 -19zM203 286l94 194q29 80 -30 107q-72 25 -105 -50l-121 -251q-29 -72 -8 -107.5t81 -35.5h218v-45 q0 -50 22 -74t59 -24t59 24t22 74v45h20q37 0 57.5 19t20.5 54q0 33 -20.5 52t-57.5 19h-20v326q0 50 -22 74t-59 24q-80 0 -80 -98v-327h-130z" />
<glyph unicode="5" horiz-adv-x="574" d="M170 391q105 47 183 19q48 -17 76 -62t28 -107q0 -90 -53.5 -144.5t-144.5 -54.5q-87 0 -160 60q-14 9 -6.5 22t20.5 0q71 -61 147 -61q80 0 127.5 49.5t47.5 129.5q0 57 -25.5 96t-70.5 53q-72 21 -173 -25q-13 -6 -17.5 -3t-3.5 13l22 242q3 16 9 22t20 6h237 q14 0 14 -11q0 -12 -14 -12h-242zM240 460l10 102h178q37 0 57.5 19.5t20.5 55.5t-20.5 55t-57.5 19h-225q-57 0 -78.5 -18t-27.5 -68l-18 -195q-3 -20 -5 -55q0 -70 63 -70q15 0 55 13.5t74 11.5q41 0 65 -26.5t24 -68.5q0 -47 -25.5 -75t-74.5 -28q-58 0 -97 30t-61 30 q-29 0 -48.5 -20t-19.5 -51q0 -58 68 -100q69 -42 160 -42q114 0 191 75.5t77 189.5q0 94 -60.5 162.5t-152.5 68.5q-34 0 -72 -15z" />
<glyph unicode="6" horiz-adv-x="595" d="M188 398q42 30 108 30q78 0 134 -53q54 -53 54 -138q0 -89 -54 -141q-55 -52 -134 -52t-134 52q-54 52 -54 141q0 55 26 102l30 64q63 148 182 259q7 5 11 5q14 0 14 -13q0 -6 -7 -10l-68.5 -75t-50.5 -68.5t-57 -102.5zM296 66q72 0 118.5 46.5t46.5 123.5q0 75 -47 122 q-45 48 -118 48q-72 0 -113 -44q-50 -48 -50 -126q0 -77 46 -124q47 -46 117 -46zM204 235q0 41 27 70t65 29t65.5 -29t27.5 -70q0 -40 -27.5 -69t-65.5 -29t-65 29t-27 69zM306 469q20 37 74 91q55 52 55 83q2 35 -21 57t-62 22q-28 -1 -64 -31q-41 -33 -94 -103 q-57 -76 -103 -177q-52 -109 -52 -168q0 -114 70 -184q70 -73 180 -73q113 0 190 73q77 74 77 178q0 99 -60 163q-60 66 -143 68q-37 2 -47 1z" />
<glyph unicode="7" horiz-adv-x="521" d="M408 625h-315q-15 0 -15 12q0 11 15 11h329q15 0 15 -11q0 -3 -2 -9l-227 -550q-5 -16 -16 -11q-11 6 -5 20zM311 562l-171 -416q-19 -46 -19 -72q0 -33 24 -56t60 -23q53 0 82 76l195 490q17 45 17 61q3 43 -26.5 66.5t-91.5 22.5h-283q-37 0 -57.5 -19t-20.5 -55 t20.5 -55.5t57.5 -19.5h213z" />
<glyph unicode="8" horiz-adv-x="594" d="M348 387q66 -11 102 -58.5t36 -112.5q0 -82 -49 -130.5t-139 -48.5q-78 0 -133 50t-55 129q0 63 36 110.5t94 62.5q-45 9 -78 47.5t-33 93.5q0 64 45.5 109t123.5 45q77 0 123 -45.5t46 -108.5q0 -53 -34 -93q-31 -36 -85 -50zM302 379h-7q-70 -2 -115 -48t-45 -116 q0 -68 47.5 -111.5t115.5 -43.5q75 0 120 38.5t45 116.5q0 70 -45.5 116t-115.5 48zM296 396h7q50 3 95 37t45 96q0 56 -37.5 94.5t-107.5 38.5q-68 0 -106.5 -39t-38.5 -94q0 -64 44 -98.5t99 -34.5zM201 216q0 44 26.5 73.5t69.5 29.5q44 0 70.5 -29.5t26.5 -73.5 t-26.5 -73t-70.5 -29q-43 0 -69.5 29.5t-26.5 72.5zM224 525q0 32 21 54.5t52 22.5q33 0 53.5 -22t20.5 -55q0 -31 -21 -53t-53 -22q-30 0 -51.5 22.5t-21.5 52.5zM470 389q55 59 55 141q0 86 -65 143q-64 57 -163 57t-163 -57q-65 -57 -65 -143q0 -82 55 -141 q-38 -28 -61.5 -74.5t-23.5 -103.5q0 -100 73 -166q74 -66 185 -66t185 66q73 66 73 166q0 116 -85 178z" />
<glyph unicode="9" horiz-adv-x="595" d="M405 309q-40 -30 -107 -30q-78 0 -134 53q-55 52 -55 138q0 89 55 141t134 52t134 -52q53 -53 53 -141q0 -57 -25 -102q-2 -5 -7.5 -16.5l-11.5 -23.5t-11 -24q-66 -151 -182 -259q-7 -5 -12 -5q-13 0 -13 13q0 5 6 10q47 49 69 74.5t51 69.5t56 102zM298 641 q-72 0 -118.5 -46.5t-46.5 -123.5q0 -75 47 -122q45 -48 118 -48q72 0 113 44q50 48 50 126q0 77 -46 124q-47 46 -117 46zM390 472q0 -41 -27.5 -70t-64.5 -29q-38 0 -65.5 29t-27.5 70q0 40 27.5 69t65.5 29q37 0 64.5 -29t27.5 -69zM288 238q-20 -37 -74 -91 q-55 -52 -55 -83q-2 -35 21 -57t62 -22q28 1 64 31q41 34 93 103q51 65 104 177q52 113 52 168q0 113 -71 184q-70 73 -179 73q-114 0 -190 -73q-77 -74 -77 -178q0 -98 60 -163q60 -66 143 -68q37 -2 47 -1z" />
<glyph unicode=":" horiz-adv-x="230" d="M24 626q0 -38 26.5 -64.5t65.5 -26.5q37 0 63.5 26.5t26.5 64.5q0 37 -26.5 63.5t-63.5 26.5q-38 0 -65 -26.5t-27 -63.5zM24 86q0 -38 26.5 -64.5t65.5 -26.5q37 0 63.5 26.5t26.5 64.5q0 37 -26.5 64t-63.5 27q-38 0 -65 -27t-27 -64zM91 627q0 11 7.5 18t18.5 7 t18.5 -7t7.5 -18t-7.5 -18.5t-18.5 -7.5t-18.5 7.5t-7.5 18.5zM91 86q0 11 7.5 18t18.5 7t18.5 -7t7.5 -18t-7.5 -18.5t-18.5 -7.5t-18.5 7.5t-7.5 18.5z" />
<glyph unicode=";" horiz-adv-x="230" d="M24 626q0 -38 26.5 -64.5t65.5 -26.5q37 0 63.5 26.5t26.5 64.5q0 37 -26.5 63.5t-63.5 26.5q-38 0 -65 -26.5t-27 -63.5zM117 -162q34 0 52 21t18 58v153q0 78 -71 78q-33 0 -50.5 -21t-17.5 -57v-153q0 -37 18 -58t51 -21zM118 -102q-12 0 -12 15v154q0 15 12 15 t12 -15v-154q0 -15 -12 -15zM91 627q0 11 7.5 18t18.5 7t18.5 -7t7.5 -18t-7.5 -18.5t-18.5 -7.5t-18.5 7.5t-7.5 18.5z" />
<glyph unicode="&#x37e;" horiz-adv-x="230" d="M24 626q0 -38 26.5 -64.5t65.5 -26.5q37 0 63.5 26.5t26.5 64.5q0 37 -26.5 63.5t-63.5 26.5q-38 0 -65 -26.5t-27 -63.5zM117 -162q34 0 52 21t18 58v153q0 78 -71 78q-33 0 -50.5 -21t-17.5 -57v-153q0 -37 18 -58t51 -21zM118 -102q-12 0 -12 15v154q0 15 12 15 t12 -15v-154q0 -15 -12 -15zM91 627q0 11 7.5 18t18.5 7t18.5 -7t7.5 -18t-7.5 -18.5t-18.5 -7.5t-18.5 7.5t-7.5 18.5z" />
<glyph unicode="&#x3c;" horiz-adv-x="455" d="M188 354l182 197q36 36 41 73t-20 64q-14 20 -52 22q-36 3 -71 -35l-222 -243q-36 -36 -36 -78q2 -40 36 -75l222 -243q21 -24 45.5 -31.5t43.5 -1.5t34 21q25 23 20 59.5t-41 74.5zM101 352l241 -258q9 -14 1 -20q-8 -7 -18 3l-248 266l-3 9l3 8l250 277q10 10 18 3 q8 -6 -1 -20z" />
<glyph unicode="=" horiz-adv-x="580" d="M39 454q0 -70 74 -70h355q73 0 73 71q0 68 -73 68h-355q-74 0 -74 -69zM39 217q0 -71 74 -71h355q73 0 73 72q0 68 -73 68h-355q-74 0 -74 -69zM114 442q-13 0 -13 11q0 13 13 13h349q14 0 14 -13q0 -11 -14 -11h-349zM114 206q-13 0 -13 11q0 12 13 12h349q14 0 14 -12 q0 -11 -14 -11h-349z" />
<glyph unicode="&#x3e;" horiz-adv-x="454" d="M354 352l-238 261q-9 14 -1 20q8 7 18 -3l244 -270l3 -8l-3 -9l-246 -271q-10 -10 -18 -3q-8 6 1 20zM266 356l-181 -195q-36 -36 -41 -72.5t20 -65.5q13 -19 51 -22q37 -1 72 36l221 242q36 35 36 77q-2 42 -36 76l-221 241q-21 24 -45.5 31.5t-43.5 1.5t-34 -21 q-25 -23 -20 -59.5t41 -74.5z" />
<glyph unicode="?" horiz-adv-x="536" d="M255 330v-62q0 -15 -12 -15t-12 15v71q0 13 14 13q64 4 107 38t54 83q7 33 -3 66.5t-32 57.5q-61 70 -160 43q-73 -18 -107 -93q-8 -16 -20 -6.5t-2 22.5q30 59 85.5 85.5t112.5 19.5q68 -8 111 -58q32 -36 39 -85t-16 -97t-75 -73q-35 -17 -84 -25zM220 73 q0 11 7.5 18.5t18.5 7.5t18 -7.5t7 -18.5t-7 -18.5t-18 -7.5t-18.5 7.5t-7.5 18.5zM157 73q0 -36 26 -62t62 -26t61.5 26t25.5 62t-25.5 61.5t-61.5 25.5t-62 -25.5t-26 -61.5zM322 291q81 14 128 71.5t47 138.5q0 97 -70 160t-169 63q-97 0 -168 -56q-70 -55 -70 -123 q0 -33 19 -53t55 -20q33 0 50 26q14 23 23.5 36t34.5 27.5t56 12.5q28 0 48.5 -19.5t20.5 -46.5q0 -59 -56 -80q-12 -4 -36.5 -10t-32.5 -10q-19 -9 -26.5 -23t-7.5 -41v-74q0 -29 20.5 -50t55.5 -21t56.5 21t21.5 50v21z" />
<glyph unicode="@" horiz-adv-x="720" d="M597 304q-10 -51 -50 -83t-103 -32q-60 0 -106.5 44t-46.5 121q0 75 46 118.5t107 43.5t101 -32t52 -84v74q0 102 -59 143q-58 42 -144 42q-116 0 -197 -84.5t-81 -224.5q0 -125 84 -220q88 -98 242 -86h7q14 0 14 -12q0 -10 -14 -10h-7q-165 -7 -258 93q-90 99 -90 236 q0 149 88 238.5t213 89.5q89 1 156 -45t67 -160v-297q0 -15 -11 -15q-10 0 -10 15v127zM590 352q0 51 -32 90q-20 28 -45.5 41t-68.5 13q-52 0 -92 -38t-40 -104q0 -67 40 -105.5t92 -38.5q42 0 66 12t47 39q33 39 33 91zM533 352q0 -39 -23.5 -60t-62.5 -21 q-38 0 -59.5 22.5t-21.5 58.5q0 37 22.5 60.5t58.5 23.5q38 0 62 -23t24 -61zM557 184q0 -36 15 -54t36 -18q63 0 63 78v296q0 110 -68 174q-35 33 -92.5 52t-117.5 19q-151 0 -252.5 -104t-101.5 -272q0 -85 30.5 -161.5t80.5 -126.5q103 -103 280 -99h16q30 0 49.5 15 t19.5 45q0 29 -18.5 48t-50.5 19h-7q-115 -13 -192 63.5t-77 196.5q0 115 69 184q28 30 67.5 47t71.5 20q60 6 109 -16q27 -12 47.5 -34.5t23.5 -44.5q-47 47 -116 47q-91 0 -146.5 -59t-55.5 -148t56 -147.5t150 -60.5q64 0 111 41z" />
<glyph unicode="A" horiz-adv-x="668" d="M151 250v-167q0 -15 -11 -15q-12 0 -12 15v382q0 89 52.5 136.5t153.5 47.5t153.5 -47.5t52.5 -136.5v-382q0 -15 -12 -15q-11 0 -11 15v167h-366zM151 273h366v193q0 159 -183 160q-183 -1 -183 -160v-193zM221 329v121q0 111 102 111h22q102 0 102 -111v-121h-226z M221 195h226v-97q0 -50 22 -74t59 -24t59 24t22 74v352q0 121 -65 191t-177 70h-66q-112 0 -177 -70t-65 -191v-352q0 -98 81 -98q37 0 59 24t22 74v97z" />
<glyph unicode="B" horiz-adv-x="606" d="M340 372q68 -10 112 -50t44 -101q0 -78 -49.5 -121t-145.5 -43h-161q-12 0 -12 14v569q0 14 12 14h131q106 0 145 -38q40 -36 40 -94q0 -61 -33.5 -100t-82.5 -50zM151 80h150q86 1 129.5 37t43.5 103q0 60 -54 98.5t-129 38.5h-140v-277zM151 381h127q67 0 111.5 39 t44.5 102q3 46 -37 79t-126 30h-120v-250zM221 139v164h78q50 0 76.5 -21.5t26.5 -60.5q0 -82 -81 -82h-100zM221 434v139h66q77 0 77 -65q0 -34 -24 -54t-61 -20h-58zM445 377q71 46 71 147q0 87 -57 137t-175 50h-147q-78 0 -78 -68v-575q0 -38 17.5 -53t60.5 -15h182 q125 0 186.5 57.5t61.5 160.5q0 55 -32.5 98t-89.5 61z" />
<glyph unicode="C" horiz-adv-x="651" d="M552 110q0 -6 -9 -11q-59 -50 -154 -50q-119 0 -196 83q-77 85 -77 219q0 128 77 217q78 89 196 89q92 0 148 -43q9 -8 9 -12q0 -10 -7 -11.5t-15 6.5q-50 39 -136 39q-108 0 -179 -83q-70 -82 -70 -203q0 -122 71 -202q70 -78 177 -78q91 0 143 46q8 6 12 6 q10 -1 10 -12zM612 104q0 32 -19 56.5t-46 25.5t-67 -23q-38 -23 -89 -23q-85 0 -135 59q-50 61 -50 152q0 96 50 155q50 60 135 60q51 0 89 -24q41 -23 67 -22q27 1 46 25.5t19 57.5q-2 50 -67 86q-65 37 -155 37q-153 0 -252 -105t-99 -270q0 -159 99 -265t252 -106 q89 0 155 36q66 37 67 88z" />
<glyph unicode="D" horiz-adv-x="676" d="M128 79v553q0 14 12 14h90q188 0 261 -87q74 -88 74 -214q0 -114 -73 -197q-72 -84 -262 -84h-90q-12 0 -12 15zM151 86h81q178 0 244 78q67 79 67 180q0 117 -67 199t-245 82h-80v-539zM221 151v411h45q206 0 206 -219q0 -192 -209 -192h-42zM137 0h108q208 0 299 97 q93 97 91 247q-5 166 -99 267q-94 100 -275 100h-124q-40 0 -59 -14t-19 -54v-575q0 -40 19 -54t59 -14z" />
<glyph unicode="E" horiz-adv-x="593" d="M221 149v134h222q37 0 57.5 19.5t20.5 55.5t-20.5 55.5t-57.5 19.5h-222v129h245q37 0 57.5 19.5t20.5 55.5t-20.5 55t-57.5 19h-329q-44 0 -61 -13.5t-17 -54.5v-575q0 -41 17 -54.5t61 -13.5h338q37 0 57.5 19.5t20.5 55.5t-20.5 55t-57.5 19h-254zM154 86h326 q14 0 14 -11q0 -13 -14 -13h-337q-12 0 -12 14v561q0 6 4 9q2 2 8 2h329q13 0 13 -11q0 -12 -13 -12h-318v-254h295q14 0 14 -13q0 -10 -14 -10h-295v-262z" />
<glyph unicode="F" horiz-adv-x="554" d="M221 283h193q34 0 56 19.5t22 55.5t-22 55.5t-56 19.5h-193v27q0 47 27 74.5t75 27.5h123q34 0 56 19.5t22 55.5q0 35 -22 54.5t-58 19.5h-143q-113 0 -177 -70q-65 -71 -65 -181v-362q0 -98 81 -98q37 0 59 24t22 74v185zM466 637q0 -11 -15 -11h-120q-90 -1 -135 -42 t-45 -118v-95h268q15 0 15 -13q0 -10 -15 -10h-268v-265q0 -15 -11 -15q-12 0 -12 15v382q0 88 52.5 136t150.5 48h120q15 0 15 -12z" />
<glyph unicode="G" horiz-adv-x="751" d="M616 330h-218q-13 0 -13 11q0 13 13 13h242l1 -8q6 -133 -59.5 -215t-192.5 -82q-124 0 -202 91q-71 85 -71 215q2 131 76 213q81 89 198 89q96 0 149 -45q8 -6 8 -11q0 -11 -10 -12q-5 0 -12 6q-15 16 -53.5 28.5t-81.5 12.5q-111 0 -183 -86q-34 -40 -51.5 -95 t-16.5 -101q-5 -70 25 -135.5t90 -108t135 -40.5q85 0 142.5 45.5t74.5 119.5q11 47 10 95zM544 264q-1 -43 -41 -84q-37 -40 -112 -40q-85 0 -135 59q-50 61 -50 152q0 96 50 155q50 60 135 60q51 0 89 -24q41 -23 67 -22q27 1 46 25.5t19 57.5q-2 50 -67 86 q-65 37 -155 37q-153 0 -252 -105t-99 -270q0 -159 99 -265t253 -106q135 0 224 92q90 92 90 244q0 51 -18 75t-67 24h-215q-37 0 -57.5 -20.5t-20.5 -55.5q0 -34 21 -54.5t57 -20.5h139z" />
<glyph unicode="H" horiz-adv-x="680" d="M221 283h238v-185q0 -50 22 -74t59 -24t59 24t22 74v515q0 50 -22 74t-59 24t-59 -24t-22 -74v-180h-238v180q0 50 -22 74t-59 24q-81 0 -81 -98v-515q0 -98 81 -98q37 0 59 24t22 74v185zM529 370v269q0 13 11 13q12 0 12 -13v-567q0 -13 -11 -13q-12 0 -12 13v278 l-378 -3v-275q0 -13 -12 -13q-11 0 -11 13v567q0 13 12 13q11 0 11 -13v-269h378z" />
<glyph unicode="I" horiz-adv-x="279" d="M140 711q-81 0 -81 -107v-506q0 -98 81 -98q37 0 59 24t22 74v515q0 50 -22 74t-59 24zM140 68q-12 0 -12 15v555q0 14 12 14q11 0 11 -14v-555q0 -15 -11 -15z" />
<glyph unicode="J" horiz-adv-x="401" d="M262 711q-37 0 -59 -24t-22 -74v-371q0 -51 -20.5 -72t-62.5 -21q-37 0 -57.5 -19t-20.5 -55t20.5 -55.5t57.5 -19.5h19q104 0 165 61t61 171v381q0 50 -22 74t-59 24zM75 70q0 12 14 12h2q83 1 120 37.5t37 117.5v391q0 15 12 15q11 0 11 -15v-390q1 -91 -43.5 -134.5 t-136.5 -43.5h-2q-14 0 -14 10z" />
<glyph unicode="K" horiz-adv-x="646" d="M251 363l283 -271q12 -12 3 -19.5t-19 4.5l-286 276q-5 5 -5 10t3 9l273 265q12 12 19 5q8 -8 -1 -18zM140 68q-12 0 -12 15v555q0 14 12 14q11 0 11 -14v-555q0 -15 -11 -15zM221 280l245 -243q37 -37 69 -37t54 22q20 23 20 54q0 32 -39 70l-232 216l217 204 q32 37 31.5 70.5t-26.5 53.5q-57 46 -122 -25l-217 -221v169q0 50 -22 74t-59 24q-81 0 -81 -98v-515q0 -98 81 -98q37 0 59 24t22 74v182z" />
<glyph unicode="L" horiz-adv-x="504" d="M151 86h251q14 0 14 -11q0 -13 -14 -13h-262q-6 0 -9 3t-3 10v563q0 13 12 13q11 0 11 -13v-552zM221 149v463q0 50 -22 74t-59 24q-81 0 -81 -98v-514q0 -52 22.5 -75t74.5 -23h240q79 0 79 75q0 74 -79 74h-175z" />
<glyph unicode="M" horiz-adv-x="848" d="M152 628v-545q0 -15 -11 -15q-12 0 -12 15v545q0 19 19 19h8q10 0 17 -9l251 -410l249 408q8 11 19 11h10q18 0 18 -19v-545q0 -15 -12 -15t-12 15v545l-4 -8l-255 -414q-6 -6 -13 -6t-11 4l-255 414zM632 402l-5 -304q0 -50 22 -74t59 -24t59 24t22 74v506q0 59 -22 83 t-69 24q-60 0 -92 -48l-182 -311l-183 311q-16 26 -36.5 37t-55.5 11q-47 0 -68.5 -24t-21.5 -83v-506q0 -98 81 -98q37 0 59 24t22 74l-5 304l146 -239q20 -28 46 -32q6 -1 16 -1t15 1q27 4 47 32z" />
<glyph unicode="N" horiz-adv-x="689" d="M150 596v-513q0 -15 -11 -15q-12 0 -12 15v550q0 9 11 10q7 1 12 -7l389 -522v514q0 15 12 15q11 0 11 -15v-545q0 -15 -10 -15q-8 0 -13 7zM215 403l245 -353q39 -55 91 -55q38 0 59 21t21 58v539q0 50 -22 74t-59 24t-59 -24t-22 -74l5 -312l-246 360q-39 55 -90 55 q-38 0 -59 -21t-21 -58v-539q0 -98 81 -98q37 0 59 24t22 74z" />
<glyph unicode="O" d="M408 144q-88 0 -143 58q-54 58 -54 153t54 154q55 58 143 58t142 -58q55 -58 55 -154q0 -95 -55 -153q-54 -58 -142 -58zM408 -17q157 0 263 103t106 268q0 164 -107 268t-262 104q-156 0 -263 -104q-106 -103 -106 -268t106 -268t263 -103zM410 50q-131 0 -217 85 q-86 86 -86 220q0 133 87 218q89 86 216 86t216 -86q88 -85 88 -218q0 -135 -88 -220q-86 -85 -216 -85zM408 71q118 0 201 78q82 79 82 205q0 124 -81 204q-82 80 -201 80t-199 -80t-80 -204t80 -204q79 -79 198 -79z" />
<glyph unicode="P" horiz-adv-x="577" d="M151 290v-207q0 -15 -11 -15q-12 0 -12 15v555q0 14 12 14h130q98 0 150.5 -48t52.5 -136q0 -83 -53 -130.5t-152 -47.5h-117zM151 629v-316h117q91 1 136 41.5t45 114.5q0 77 -45 118t-134 42h-119zM221 375v196h50q111 0 111 -102q0 -94 -111 -94h-50zM221 228h50 q133 0 200 62.5t67 178.5q0 112 -71 177t-199 65h-131q-40 0 -59 -14t-19 -54v-545q0 -98 81 -98q37 0 59 24t22 74v130z" />
<glyph unicode="Q" d="M547 79q73 -89 87 -100q17 -17 37 -15q18 2 19 -9q1 -12 -13.5 -15t-31.5 4t-32 22q-13 12 -88 104q-54 -20 -115 -20q-131 0 -217 85q-86 86 -86 220q0 133 87 218q89 86 216 86t216 -86q88 -85 88 -218q0 -135 -88 -220q-38 -36 -79 -56zM408 71q118 0 201 78 q82 79 82 205q0 124 -81 204q-82 80 -201 80t-199 -80t-80 -204t80 -204q79 -79 198 -79zM408 144q-88 0 -143 58q-54 58 -54 153t54 154q55 58 143 58t142 -58q55 -58 55 -154q0 -95 -55 -153q-54 -58 -142 -58zM637 57q22 18 34 30q106 103 106 267t-107 268t-262 104 q-156 0 -263 -104q-106 -103 -106 -268t106 -268t263 -103q49 0 90 10l28 -33q45 -51 73.5 -65.5t72.5 -9.5q41 8 57 29q16 19 16 41q0 35 -23 56q-13 9 -40 14q-26 5 -45 32z" />
<glyph unicode="R" horiz-adv-x="594" d="M221 271l124 -188q38 -53 67 -70.5t71 -17.5q39 1 59 23q18 17 20 50q1 36 -18 58q-13 13 -38 19q-26 5 -51 48l-53 84q56 12 98 66q43 55 43 145q-1 102 -71 162.5t-195 60.5h-150q-35 0 -51.5 -16.5t-16.5 -56.5v-540q0 -98 81 -98t81 98v173zM151 316v-233 q0 -15 -11 -15q-12 0 -12 15v555q0 14 12 14h132q96 0 149 -45t53 -129q0 -72 -47.5 -114.5t-134.5 -47.5l112 -162q33 -46 48.5 -61t32.5 -14q19 0 20 -11q0 -11 -15.5 -13t-32.5 6q-14 6 -29 22.5t-41 55.5l-123 177h-113zM151 340h121q90 1 133.5 37.5t43.5 101.5 q0 73 -45.5 111t-131.5 39h-121v-289zM221 399v163h57q48 0 74.5 -22t26.5 -63q0 -37 -26.5 -57.5t-76.5 -20.5h-55z" />
<glyph unicode="S" horiz-adv-x="530" d="M333 205q0 -32 -23.5 -52.5t-66.5 -20.5q-39 0 -77 20q-38 21 -57 21q-35 0 -57.5 -22.5t-22.5 -55.5q0 -47 58 -81t153 -34q113 0 187 62t74 168q0 87 -47 134q-46 46 -158 88q-95 35 -95 83q0 32 21 49t58 17t62 -16t46 -16q34 0 53 20t19 56q0 46 -50.5 75t-133.5 29 q-106 0 -174 -58q-69 -59 -69 -156q0 -77 46 -127.5t140 -84.5q67 -24 90 -42q24 -18 24 -56zM403 629q0 -11 -9 -11q-4 0 -12 6q-44 27 -97 27q-69 0 -116 -35t-47 -97q2 -102 153 -145q94 -32 124.5 -71t30.5 -98q0 -77 -52 -120.5t-130 -43.5q-66 0 -122 25 q-32 14 -32 30q0 6 4.5 8.5t11.5 -0.5q2 0 5 -2t9.5 -6l12.5 -8q45 -26 110 -26q70 0 112 37q47 42 47 103v2q0 64 -34 94q-16 16 -48 31q-27 14 -52 23q-80 29 -115 55q-62 46 -58 112q0 69 53 111.5t129 42.5q34 0 64 -9t44 -19t14 -16z" />
<glyph unicode="T" horiz-adv-x="533" d="M254 623h-172q-14 0 -14 13q0 10 14 10h369q14 0 14 -11q0 -12 -14 -12h-174v-551q0 -13 -10 -13q-13 0 -13 13v551zM186 562v-464q0 -98 81 -98q37 0 59 24t22 74v464h97q37 0 57.5 19.5t20.5 55.5t-20.5 55t-57.5 19h-357q-37 0 -57.5 -19.5t-20.5 -55.5t20.5 -55 t57.5 -19h98z" />
<glyph unicode="U" horiz-adv-x="708" d="M568 711q-37 0 -59 -24t-22 -74v-295q0 -92 -35.5 -140.5t-97.5 -48.5t-97.5 48.5t-35.5 140.5v295q0 50 -22 74t-59 24q-81 0 -81 -98v-308q0 -155 80 -241q81 -85 215 -85q135 0 214 85q81 86 81 241v308q0 98 -81 98zM357 35q-93 0 -161 68q-68 70 -68 185v340 q0 15 12 15q11 0 11 -15v-340q1 -110 62 -170q61 -61 145 -61q85 0 142 61q56 61 58 169v341q0 15 11 15q12 0 12 -15v-340q0 -119 -64 -186q-63 -67 -160 -67z" />
<glyph unicode="V" horiz-adv-x="667" d="M336 104l222 528q6 12 18 9q15 -7 7 -20l-234 -548q-4 -10 -13 -10q-8 0 -12 10l-239 548q-7 13 6 20q11 5 17 -8zM333 263l-155 383q-18 46 -49 60.5t-63 -1.5q-72 -32 -37 -122l223 -524q10 -30 34 -50.5t50 -15.5q31 0 51 20.5t28 45.5l223 524q35 90 -37 122 q-32 16 -63 1.5t-49 -60.5z" />
<glyph unicode="W" horiz-adv-x="960" d="M480 517l-181 -444q-5 -9 -13 -9t-12 11l-190 551q-7 12 7 20q11 1 17 -10l180 -531l178 451q4 9 14 10q11 0 15 -10l173 -451l184 531q4 11 17 10q14 -8 7 -20l-194 -551q-4 -11 -12 -11t-13 9zM481 342l104 -276q8 -28 28 -49.5t49 -21.5q21 -1 36 4.5t25.5 19.5t14 21 t11.5 26l186 523q28 94 -46 119q-34 13 -63 -3t-44 -62l-116 -357l-104 278q-12 34 -21.5 46.5t-27.5 18.5q-15 7 -34 7q-34 0 -58 -26q-9 -10 -23 -46l-104 -278l-116 357q-15 46 -44 62t-63 3q-74 -25 -46 -119l186 -523q25 -71 77 -71q19 -1 34 5t25.5 18.5t16 22.5 t11.5 25z" />
<glyph unicode="X" horiz-adv-x="710" d="M357 346l-223 -282q-10 -10 -19 -3q-5 5 -5 10q0 6 5 11l226 284l-206 261q-5 5 -5 10t5 10q11 5 19 -3l203 -257l204 257q7 9 19 3q5 -5 5 -10t-5 -10l-207 -261l227 -284q4 -4 4 -11q0 -6 -4 -10q-9 -7 -19 3zM354 239l158 -200q56 -76 123 -25q67 53 2 129l-182 223 l162 199q65 75 -2 128q-63 49 -125 -25l-136 -175l-134 175q-62 74 -125 25q-67 -53 -2 -128l162 -199l-182 -223q-65 -76 2 -129q67 -51 123 25z" />
<glyph unicode="Y" horiz-adv-x="646" d="M323 301l221 345q8 11 19 2q11 -7 1 -20l-228 -348v-197q0 -15 -12 -15q-6 0 -9 4t-3 11v197l-229 349q-10 14 1 21q13 8 20 -4zM323 414l-154 254q-29 40 -63 46.5t-60 -17.5q-63 -48 -7 -127l203 -316v-156q0 -50 22 -74t59 -24t59 24t22 74v156l203 316q57 79 -6 127 q-26 24 -60 17.5t-63 -46.5z" />
<glyph unicode="Z" horiz-adv-x="611" d="M153 86h348q14 0 14 -11q0 -13 -14 -13h-364q-13 0 -17.5 6t-0.5 13l328 544h-314q-14 0 -14 12q0 11 14 11h332q25 0 17 -18zM269 149l270 438q14 30 14 50q0 36 -20.5 55t-57.5 19h-337q-37 0 -57.5 -19.5t-20.5 -55.5t20.5 -55t57.5 -19h192l-279 -444 q-12 -16 -12 -44q0 -36 20.5 -55t57.5 -19h378q37 0 57.5 19.5t20.5 55.5t-20.5 55t-57.5 19h-226z" />
<glyph unicode="[" horiz-adv-x="310" d="M143 -51h132q14 0 14 -11q0 -12 -14 -12h-144q-6 0 -9 3t-3 9v836q0 7 3 10t9 3h144q14 0 14 -13q0 -10 -14 -10h-132v-815zM194 0v711h75q70 0 70 64q0 28 -16.5 45.5t-33.5 17.5h-167q-27 0 -46 -8q-17 -8 -17 -48v-853q0 -33 16 -44.5t47 -11.5h147q70 0 70 63 q0 64 -69 64h-76z" />
<glyph unicode="\" horiz-adv-x="306" d="M271 -82q51 13 37 70l-205 762q-7 26 -26 37.5t-43 5.5q-24 -7 -34 -25.5t-2 -45.5l205 -761q17 -56 68 -43zM261 -37q-11 -1 -16 12l-201 750q-5 13 7 17q10 1 15 -12l202 -750q5 -13 -7 -17z" />
<glyph unicode="]" horiz-adv-x="310" d="M167 -51v815h-133q-13 0 -13 10q0 13 13 13h145q7 0 8 -3q3 -3 3 -10v-836q0 -6 -3 -9q-1 -3 -8 -3h-145q-13 0 -13 12q0 11 13 11h133zM115 711v-711h-75q-69 0 -69 -64q0 -63 70 -63h146q33 0 48.5 11t15.5 45v853q0 36 -15 46t-49 10h-147q-69 0 -69 -63q0 -64 70 -64 h74z" />
<glyph unicode="^" horiz-adv-x="396" d="M198 588l83 -96q36 -35 72 1q14 12 13.5 33t-17.5 37l-114 122q-17 17 -37 17q-22 -2 -37 -17l-113 -122q-35 -32 -4 -70q36 -36 71 -1zM198 638l-108 -117q-11 -8 -17 0q-5 5 3 13l115 123l7 2l7 -2l114 -122q9 -8 3 -14t-16 0z" />
<glyph unicode="_" horiz-adv-x="537" d="M0 -7v-120h537v120h-537zM43 -79v23h450v-23h-450z" />
<glyph unicode="`" horiz-adv-x="330" d="M228 561q-5 -7 -13 -1l-100 62q-12 7 -5 16q5 8 13 3l99 -66q8 -4 6 -14zM240 512q24 9 32.5 28t-0.5 42q-4 16 -30 36l-81 60q-32 24 -64 11q-26 -8 -37 -30t-4 -47q11 -25 44 -45l80 -44q34 -19 60 -11z" />
<glyph unicode="a" horiz-adv-x="656" d="M146 189l-46 -124q-6 -14 -17 -9q-11 6 -5 19l205 536q17 35 56 35q41 0 56 -35l196 -536q6 -13 -5 -19q-11 -5 -17 9l-46 124h-377zM155 213h360l-143 391q-9 19 -33 19q-23 0 -32 -19zM338 515l86 -240h-177zM198 132h273l21 -65q24 -79 85 -79q35 0 57.5 21.5 t22.5 54.5q0 16 -11 52l-185 503q-34 94 -119 94q-88 0 -129 -105l-195 -495q-8 -21 -8 -47q0 -33 26 -55.5t62 -22.5q27 0 46 19t31 55z" />
<glyph unicode="b" horiz-adv-x="606" d="M340 372q68 -10 112 -50t44 -101q0 -78 -49.5 -121t-145.5 -43h-161q-12 0 -12 14v569q0 14 12 14h131q106 0 145 -38q40 -36 40 -94q0 -61 -33.5 -100t-82.5 -50zM151 80h150q86 1 129.5 37t43.5 103q0 60 -54 98.5t-129 38.5h-140v-277zM151 381h127q67 0 111.5 39 t44.5 102q3 46 -37 79t-126 30h-120v-250zM221 139v164h78q50 0 76.5 -21.5t26.5 -60.5q0 -82 -81 -82h-100zM221 434v139h66q77 0 77 -65q0 -34 -24 -54t-61 -20h-58zM445 377q71 46 71 147q0 87 -57 137t-175 50h-147q-78 0 -78 -68v-575q0 -38 17.5 -53t60.5 -15h182 q125 0 186.5 57.5t61.5 160.5q0 55 -32.5 98t-89.5 61z" />
<glyph unicode="c" horiz-adv-x="651" d="M552 110q0 -6 -9 -11q-59 -50 -154 -50q-119 0 -196 83q-77 85 -77 219q0 128 77 217q78 89 196 89q92 0 148 -43q9 -8 9 -12q0 -10 -7 -11.5t-15 6.5q-50 39 -136 39q-108 0 -179 -83q-70 -82 -70 -203q0 -122 71 -202q70 -78 177 -78q91 0 143 46q8 6 12 6 q10 -1 10 -12zM612 104q0 32 -19 56.5t-46 25.5t-67 -23q-38 -23 -89 -23q-85 0 -135 59q-50 61 -50 152q0 96 50 155q50 60 135 60q51 0 89 -24q41 -23 67 -22q27 1 46 25.5t19 57.5q-2 50 -67 86q-65 37 -155 37q-153 0 -252 -105t-99 -270q0 -159 99 -265t252 -106 q89 0 155 36q66 37 67 88z" />
<glyph unicode="d" horiz-adv-x="676" d="M128 79v553q0 14 12 14h90q188 0 261 -87q74 -88 74 -214q0 -114 -73 -197q-72 -84 -262 -84h-90q-12 0 -12 15zM151 86h81q178 0 244 78q67 79 67 180q0 117 -67 199t-245 82h-80v-539zM221 151v411h45q206 0 206 -219q0 -192 -209 -192h-42zM137 0h108q208 0 299 97 q93 97 91 247q-5 166 -99 267q-94 100 -275 100h-124q-40 0 -59 -14t-19 -54v-575q0 -40 19 -54t59 -14z" />
<glyph unicode="e" horiz-adv-x="651" d="M139 344q1 -118 70 -196q71 -77 178 -77q91 0 149 44q8 6 12 6q10 -1 10 -12q0 -5 -9 -11q-61 -48 -160 -48q-118 0 -196 82q-77 83 -77 219q0 132 78 219t195 87q92 0 148 -43q9 -8 9 -12q0 -10 -7 -11.5t-15 6.5q-50 39 -136 39q-109 0 -179 -82q-66 -78 -70 -189h268 q14 0 14 -11q0 -10 -14 -10h-268zM213 283h190q74 0 74 71q0 69 -74 69h-190q12 49 41 84q53 59 137 59q51 0 89 -24q41 -23 67 -22q27 1 46 25.5t19 57.5q-2 50 -67 86q-65 37 -155 37q-153 0 -252 -105t-99 -270q0 -159 99 -265t252 -106q89 0 155 36q66 37 67 88 q0 32 -19 56.5t-46 25.5t-67 -23q-38 -23 -89 -23q-80 0 -137 59q-34 38 -41 84z" />
<glyph unicode="f" horiz-adv-x="544" d="M151 625v-251h248q15 0 15 -13q0 -10 -15 -10h-248v-278q0 -14 -11 -14q-12 0 -12 14v564q0 5 4 9q4 2 8 2h293q13 0 13 -11q0 -12 -13 -12h-282zM221 286h174q34 0 56 19.5t22 55.5q0 35 -22 55t-56 20h-174v126h206q34 0 56 19.5t22 55.5q0 35 -22 54.5t-58 19.5h-288 q-40 0 -59 -14t-19 -54v-545q0 -98 81 -98q37 0 59 24t22 74v188z" />
<glyph unicode="g" horiz-adv-x="751" d="M616 330h-218q-13 0 -13 11q0 13 13 13h242l1 -8q6 -133 -59.5 -215t-192.5 -82q-124 0 -202 91q-71 85 -71 215q2 131 76 213q81 89 198 89q96 0 149 -45q8 -6 8 -11q0 -11 -10 -12q-5 0 -12 6q-15 16 -53.5 28.5t-81.5 12.5q-111 0 -183 -86q-34 -40 -51.5 -95 t-16.5 -101q-5 -70 25 -135.5t90 -108t135 -40.5q85 0 142.5 45.5t74.5 119.5q11 47 10 95zM544 264q-1 -43 -41 -84q-37 -40 -112 -40q-85 0 -135 59q-50 61 -50 152q0 96 50 155q50 60 135 60q51 0 89 -24q41 -23 67 -22q27 1 46 25.5t19 57.5q-2 50 -67 86 q-65 37 -155 37q-153 0 -252 -105t-99 -270q0 -159 99 -265t253 -106q135 0 224 92q90 92 90 244q0 51 -18 75t-67 24h-215q-37 0 -57.5 -20.5t-20.5 -55.5q0 -34 21 -54.5t57 -20.5h139z" />
<glyph unicode="h" horiz-adv-x="680" d="M221 283h238v-185q0 -50 22 -74t59 -24t59 24t22 74v515q0 50 -22 74t-59 24t-59 -24t-22 -74v-180h-238v180q0 50 -22 74t-59 24q-81 0 -81 -98v-515q0 -98 81 -98q37 0 59 24t22 74v185zM529 370v269q0 13 11 13q12 0 12 -13v-567q0 -13 -11 -13q-12 0 -12 13v278 l-378 -3v-275q0 -13 -12 -13q-11 0 -11 13v567q0 13 12 13q11 0 11 -13v-269h378z" />
<glyph unicode="i" horiz-adv-x="279" d="M140 711q-81 0 -81 -107v-506q0 -98 81 -98q37 0 59 24t22 74v515q0 50 -22 74t-59 24zM140 68q-12 0 -12 15v555q0 14 12 14q11 0 11 -14v-555q0 -15 -11 -15z" />
<glyph unicode="j" horiz-adv-x="401" d="M262 711q-37 0 -59 -24t-22 -74v-371q0 -51 -20.5 -72t-62.5 -21q-37 0 -57.5 -19t-20.5 -55t20.5 -55.5t57.5 -19.5h19q104 0 165 61t61 171v381q0 50 -22 74t-59 24zM75 70q0 12 14 12h2q83 1 120 37.5t37 117.5v391q0 15 12 15q11 0 11 -15v-390q1 -91 -43.5 -134.5 t-136.5 -43.5h-2q-14 0 -14 10z" />
<glyph unicode="k" horiz-adv-x="646" d="M221 280l200 -217q46 -46 78 -59.5t72 -5.5q32 9 48.5 29.5t15.5 44.5q-2 36 -27 55q-15 11 -36 12q-26 3 -57 40l-177 183l226 204q33 38 32.5 71t-27.5 53q-20 21 -54.5 16.5t-66.5 -41.5l-227 -221v169q0 50 -22 74t-59 24q-81 0 -81 -98v-515q0 -98 81 -98 q37 0 59 24t22 74v182zM251 362l198 -212q41 -46 64.5 -61t48.5 -12q12 4 18 -1.5t1 -14.5q-7 -6 -26 -6q-31 0 -62 21q-17 12 -60 61l-201 216q-5 5 -5 10t3 9l287 271q11 11 19 3q10 -8 -2 -17zM140 68q-12 0 -12 15v555q0 14 12 14q11 0 11 -14v-555q0 -15 -11 -15z" />
<glyph unicode="l" horiz-adv-x="504" d="M151 86h251q14 0 14 -11q0 -13 -14 -13h-262q-6 0 -9 3t-3 10v563q0 13 12 13q11 0 11 -13v-552zM221 149v463q0 50 -22 74t-59 24q-81 0 -81 -98v-514q0 -52 22.5 -75t74.5 -23h240q79 0 79 75q0 74 -79 74h-175z" />
<glyph unicode="m" horiz-adv-x="848" d="M152 628v-545q0 -15 -11 -15q-12 0 -12 15v545q0 19 19 19h8q10 0 17 -9l251 -410l249 408q8 11 19 11h10q18 0 18 -19v-545q0 -15 -12 -15t-12 15v545l-4 -8l-255 -414q-6 -6 -13 -6t-11 4l-255 414zM632 402l-5 -304q0 -50 22 -74t59 -24t59 24t22 74v506q0 59 -22 83 t-69 24q-60 0 -92 -48l-182 -311l-183 311q-16 26 -36.5 37t-55.5 11q-47 0 -68.5 -24t-21.5 -83v-506q0 -98 81 -98q37 0 59 24t22 74l-5 304l146 -239q20 -28 46 -32q6 -1 16 -1t15 1q27 4 47 32z" />
<glyph unicode="n" horiz-adv-x="680" d="M220 571h133q111 0 111 -102v-371q0 -50 22 -74t59 -24t59 24t22 74v371q-6 114 -74.5 178t-196.5 64h-219q-40 0 -59 -14t-19 -54v-545q0 -98 81 -98q37 0 59 24t22 74v473zM150 629v-546q0 -15 -11 -15q-12 0 -12 15v555q0 14 12 14h214q99 0 151.5 -48t52.5 -136v-385 q0 -15 -12 -15t-12 15v386q0 77 -45 118t-135 42h-203z" />
<glyph unicode="o" d="M408 144q-88 0 -143 58q-54 58 -54 153t54 154q55 58 143 58t142 -58q55 -58 55 -154q0 -95 -55 -153q-54 -58 -142 -58zM408 -17q157 0 263 103t106 268q0 164 -107 268t-262 104q-156 0 -263 -104q-106 -103 -106 -268t106 -268t263 -103zM410 50q-131 0 -217 85 q-86 86 -86 220q0 133 87 218q89 86 216 86t216 -86q88 -85 88 -218q0 -135 -88 -220q-86 -85 -216 -85zM408 71q118 0 201 78q82 79 82 205q0 124 -81 204q-82 80 -201 80t-199 -80t-80 -204t80 -204q79 -79 198 -79z" />
<glyph unicode="p" horiz-adv-x="577" d="M151 290v-207q0 -15 -11 -15q-12 0 -12 15v555q0 14 12 14h130q98 0 150.5 -48t52.5 -136q0 -83 -53 -130.5t-152 -47.5h-117zM151 629v-316h117q91 1 136 41.5t45 114.5q0 77 -45 118t-134 42h-119zM221 375v196h50q111 0 111 -102q0 -94 -111 -94h-50zM221 228h50 q133 0 200 62.5t67 178.5q0 112 -71 177t-199 65h-131q-40 0 -59 -14t-19 -54v-545q0 -98 81 -98q37 0 59 24t22 74v130z" />
<glyph unicode="q" d="M547 79q73 -89 87 -100q17 -17 37 -15q18 2 19 -9q1 -12 -13.5 -15t-31.5 4t-32 22q-13 12 -88 104q-54 -20 -115 -20q-131 0 -217 85q-86 86 -86 220q0 133 87 218q89 86 216 86t216 -86q88 -85 88 -218q0 -135 -88 -220q-38 -36 -79 -56zM408 71q118 0 201 78 q82 79 82 205q0 124 -81 204q-82 80 -201 80t-199 -80t-80 -204t80 -204q79 -79 198 -79zM408 144q-88 0 -143 58q-54 58 -54 153t54 154q55 58 143 58t142 -58q55 -58 55 -154q0 -95 -55 -153q-54 -58 -142 -58zM637 57q22 18 34 30q106 103 106 267t-107 268t-262 104 q-156 0 -263 -104q-106 -103 -106 -268t106 -268t263 -103q49 0 90 10l28 -33q45 -51 73.5 -65.5t72.5 -9.5q41 8 57 29q16 19 16 41q0 35 -23 56q-13 9 -40 14q-26 5 -45 32z" />
<glyph unicode="r" horiz-adv-x="582" d="M297 316l178 -230q3 -3 3.5 -10t-4.5 -11q-10 -6 -17 5l-188 246h-118v-233q0 -15 -11 -15q-12 0 -12 15v555q0 14 12 14h132q96 0 148 -45t52 -129q0 -72 -46.5 -114.5t-128.5 -47.5zM151 340h121q90 1 133.5 37.5t43.5 101.5q0 72 -46 110.5t-131 39.5h-121v-289z M221 399v163h57q48 0 74.5 -22t26.5 -63q0 -37 -27 -57.5t-76 -20.5h-55zM407 277q51 13 93 69q43 55 43 142q0 103 -70.5 163t-195.5 60h-140q-40 0 -59 -14t-19 -54v-545q0 -98 81 -98q37 0 59 24t22 74v173l171 -227q34 -43 76 -44q33 0 53.5 21.5t20.5 54.5q0 39 -35 78 z" />
<glyph unicode="s" horiz-adv-x="530" d="M333 205q0 -32 -23.5 -52.5t-66.5 -20.5q-39 0 -77 20q-38 21 -57 21q-35 0 -57.5 -22.5t-22.5 -55.5q0 -47 58 -81t153 -34q113 0 187 62t74 168q0 87 -47 134q-46 46 -158 88q-95 35 -95 83q0 32 21 49t58 17t62 -16t46 -16q34 0 53 20t19 56q0 46 -50.5 75t-133.5 29 q-106 0 -174 -58q-69 -59 -69 -156q0 -77 46 -127.5t140 -84.5q67 -24 90 -42q24 -18 24 -56zM403 629q0 -11 -9 -11q-4 0 -12 6q-44 27 -97 27q-69 0 -116 -35t-47 -97q2 -102 153 -145q94 -32 124.5 -71t30.5 -98q0 -77 -52 -120.5t-130 -43.5q-66 0 -122 25 q-32 14 -32 30q0 6 4.5 8.5t11.5 -0.5q2 0 5 -2t9.5 -6l12.5 -8q45 -26 110 -26q70 0 112 37q47 42 47 103v2q0 64 -34 94q-16 16 -48 31q-27 14 -52 23q-80 29 -115 55q-62 46 -58 112q0 69 53 111.5t129 42.5q34 0 64 -9t44 -19t14 -16z" />
<glyph unicode="t" horiz-adv-x="533" d="M254 623h-172q-14 0 -14 13q0 10 14 10h369q14 0 14 -11q0 -12 -14 -12h-174v-551q0 -13 -10 -13q-13 0 -13 13v551zM186 562v-464q0 -98 81 -98q37 0 59 24t22 74v464h97q37 0 57.5 19.5t20.5 55.5t-20.5 55t-57.5 19h-357q-37 0 -57.5 -19.5t-20.5 -55.5t20.5 -55 t57.5 -19h98z" />
<glyph unicode="u" horiz-adv-x="708" d="M568 711q-37 0 -59 -24t-22 -74v-295q0 -92 -35.5 -140.5t-97.5 -48.5t-97.5 48.5t-35.5 140.5v295q0 50 -22 74t-59 24q-81 0 -81 -98v-308q0 -155 80 -241q81 -85 215 -85q135 0 214 85q81 86 81 241v308q0 98 -81 98zM357 35q-93 0 -161 68q-68 70 -68 185v340 q0 15 12 15q11 0 11 -15v-340q1 -110 62 -170q61 -61 145 -61q85 0 142 61q56 61 58 169v341q0 15 11 15q12 0 12 -15v-340q0 -119 -64 -186q-63 -67 -160 -67z" />
<glyph unicode="v" horiz-adv-x="667" d="M336 104l222 528q6 12 18 9q15 -7 7 -20l-234 -548q-4 -10 -13 -10q-8 0 -12 10l-239 548q-7 13 6 20q11 5 17 -8zM333 263l-155 383q-18 46 -49 60.5t-63 -1.5q-72 -32 -37 -122l223 -524q10 -30 34 -50.5t50 -15.5q31 0 51 20.5t28 45.5l223 524q35 90 -37 122 q-32 16 -63 1.5t-49 -60.5z" />
<glyph unicode="w" horiz-adv-x="960" d="M480 517l-181 -444q-5 -9 -13 -9t-12 11l-190 551q-7 12 7 20q11 1 17 -10l180 -531l178 451q4 9 14 10q11 0 15 -10l173 -451l184 531q4 11 17 10q14 -8 7 -20l-194 -551q-4 -11 -12 -11t-13 9zM481 342l104 -276q8 -28 28 -49.5t49 -21.5q21 -1 36 4.5t25.5 19.5t14 21 t11.5 26l186 523q28 94 -46 119q-34 13 -63 -3t-44 -62l-116 -357l-104 278q-12 34 -21.5 46.5t-27.5 18.5q-15 7 -34 7q-34 0 -58 -26q-9 -10 -23 -46l-104 -278l-116 357q-15 46 -44 62t-63 3q-74 -25 -46 -119l186 -523q25 -71 77 -71q19 -1 34 5t25.5 18.5t16 22.5 t11.5 25z" />
<glyph unicode="x" horiz-adv-x="710" d="M357 346l-223 -282q-10 -10 -19 -3q-5 5 -5 10q0 6 5 11l226 284l-206 261q-5 5 -5 10t5 10q11 5 19 -3l203 -257l204 257q7 9 19 3q5 -5 5 -10t-5 -10l-207 -261l227 -284q4 -4 4 -11q0 -6 -4 -10q-9 -7 -19 3zM354 239l158 -200q56 -76 123 -25q67 53 2 129l-182 223 l162 199q65 75 -2 128q-63 49 -125 -25l-136 -175l-134 175q-62 74 -125 25q-67 -53 -2 -128l162 -199l-182 -223q-65 -76 2 -129q67 -51 123 25z" />
<glyph unicode="y" horiz-adv-x="646" d="M323 301l221 345q8 11 19 2q11 -7 1 -20l-228 -348v-197q0 -15 -12 -15q-6 0 -9 4t-3 11v197l-229 349q-10 14 1 21q13 8 20 -4zM323 414l-154 254q-29 40 -63 46.5t-60 -17.5q-63 -48 -7 -127l203 -316v-156q0 -50 22 -74t59 -24t59 24t22 74v156l203 316q57 79 -6 127 q-26 24 -60 17.5t-63 -46.5z" />
<glyph unicode="z" horiz-adv-x="612" d="M153 86h348q14 0 14 -11q0 -13 -14 -13h-364q-13 0 -17.5 6t-0.5 13l328 544h-314q-14 0 -14 12q0 11 14 11h332q25 0 17 -18zM269 149l270 438q14 30 14 50q0 36 -20.5 55t-57.5 19h-337q-37 0 -57.5 -19.5t-20.5 -55.5t20.5 -55t57.5 -19h192l-279 -444 q-12 -16 -12 -44q0 -36 20.5 -55t57.5 -19h378q37 0 57.5 19.5t20.5 55.5t-20.5 55t-57.5 19h-226z" />
<glyph unicode="{" horiz-adv-x="668" d="M517 250h-366v-167q0 -15 -11 -15q-12 0 -12 15v382q0 88 52 136t154 48h194q6 0 9 -3q3 -2 3 -9v-554q0 -15 -12 -15q-11 0 -11 15v167zM517 273v353h-183q-183 -1 -183 -160v-193h366zM447 329h-226v121q0 111 102 111h124v-232zM221 195h226v-97q0 -50 22 -74t59 -24 t59 24t22 74v520q0 93 -97 93h-211q-113 0 -177.5 -70.5t-64.5 -200.5v-342q0 -98 81 -98q37 0 59 24t22 74v97z" />
<glyph unicode="|" horiz-adv-x="278" d="M88 749v-788q0 -59 52 -59q23 0 36.5 16t13.5 43v788q0 60 -50 60q-24 0 -38 -16.5t-14 -43.5zM141 -55q-11 0 -11 14v788q0 13 11 13q10 0 10 -13v-788q0 -14 -10 -14z" />
<glyph unicode="}" horiz-adv-x="668" d="M221 329v232h124q102 0 102 -111v-121h-226zM221 195h226v-97q0 -50 22 -74t59 -24t59 24t22 74v342q0 130 -64.5 200.5t-177.5 70.5h-211q-97 0 -97 -93v-520q0 -98 81 -98q37 0 59 24t22 74v97zM517 250h-366v-167q0 -15 -11 -15q-12 0 -12 15v554q0 7 3 9q3 3 9 3h194 q102 0 154 -48t52 -136v-382q0 -15 -12 -15q-11 0 -11 15v167zM517 273v193q0 159 -183 160h-183v-353h366z" />
<glyph unicode="~" horiz-adv-x="708" d="M151 250v-167q0 -15 -11 -15q-12 0 -12 15v326q0 117 63 185q65 68 161 68q94 0 161 -69q68 -68 68 -184v-326q0 -15 -12 -15q-11 0 -11 15v167h-407zM151 273h407v136q-2 109 -62 170q-61 61 -145 61q-85 0 -142 -61t-58 -170v-136zM487 329h-266v64q0 84 36 131.5 t97 47.5t97 -47.5t36 -131.5v-64zM140 0q37 0 59 24t22 74v97h266v-97q0 -50 22 -74t59 -24q81 0 81 98v298q0 156 -81 241q-80 86 -214 86t-215 -86q-80 -86 -80 -241v-298q0 -98 81 -98z" />
<glyph unicode="&#xa1;" horiz-adv-x="291" d="M232 633q0 36 -25 62t-61 26t-61.5 -26t-25.5 -62t25 -61.5t62 -25.5q36 0 61 25t25 62zM148 -12q81 0 81 98v320q0 98 -81 98q-37 0 -59 -24t-22 -74v-320q0 -50 22 -74t59 -24zM147 428q12 0 12 -15v-351q0 -15 -12 -15q-11 0 -11 15v351q0 15 11 15zM170 633 q0 -11 -8 -18.5t-18 -7.5q-11 0 -18.5 7.5t-7.5 18.5t7.5 18.5t18.5 7.5q10 0 18 -7.5t8 -18.5z" />
<glyph unicode="&#xa2;" horiz-adv-x="530" d="M304 130v-96q0 -11 -10 -11t-10 11v97q-72 6 -121 64q-56 67 -56 160q0 101 55 163q47 54 121 62v99q0 10 10 10t10 -10v-98q67 0 107 -30q7 -6 7 -11q0 -8 -5 -10t-11 3q-37 29 -97 29q-76 0 -126 -59q-49 -58 -49 -148q0 -83 50 -145q51 -61 125 -61q60 0 97 29 q6 5 11 3t5 -10q0 -5 -7 -11q-40 -30 -106 -30zM250 85v-55q0 -40 42 -40q44 0 44 40v51q16 1 33 6q30 8 53 20q52 29 53 71q0 26 -16.5 46.5t-39.5 21.5h-3q-20 0 -49 -18q-25 -15 -59 -15q-53 0 -84.5 39.5t-31.5 104.5q0 68 31.5 108.5t84.5 40.5q33 0 59 -17 q28 -17 49 -17h3q24 1 40 21.5t16 47.5q-2 41 -53 70q-38 21 -87 26v45q0 39 -44 39q-42 0 -42 -39v-49q-72 -15 -128 -73q-73 -79 -73 -203q0 -120 73 -199q56 -58 129 -73z" />
<glyph unicode="&#xa3;" horiz-adv-x="622" d="M247 343q1 -3 1 -8t1 -7q11 -126 -82 -238h325v137q0 13 11 13q13 0 13 -13v-149q0 -6 -3 -9t-10 -3h-353q-8 0 -9 1q-8 3 -8 11q0 10 4 15q50 60 71.5 110.5t18.5 114.5q-2 16 -3 25h-116q-13 0 -13 11q0 12 13 12h110q-9 27 -19 47q-37 70 -36 120q4 53 47 96 q69 59 166 51q18 0 18 -14q0 -12 -18 -11q-86 12 -148 -43q-36 -35 -40 -80q-1 -45 30 -104q14 -32 24 -62h105q13 0 13 -12q0 -11 -13 -11h-100zM270 149q38 71 35 135v12h38q62 0 62 58q0 56 -62 56h-58q-2 4 -3.5 11t-2.5 11q-18 54 -18 80q0 31 26 53t65 22h23 q73 0 73 72t-73 72h-23q-117 0 -185 -59q-69 -58 -69 -149q0 -40 35 -113h-21q-63 0 -63 -56q0 -28 16.5 -43t46.5 -15h54q-4 -71 -62 -129q-38 -47 -38 -87q1 -80 92 -80h337q42 0 60 18t18 60v135q0 41 -20 63t-51 22t-51 -22t-20 -63v-64h-161z" />
<glyph unicode="&#xa4;" horiz-adv-x="1265" d="M677 97q73 -118 234 -118q140 0 217.5 89.5t77.5 236.5v308q0 98 -81 98t-81 -98v-295q0 -92 -35 -140.5t-98 -48.5q-62 0 -98 48.5t-36 140.5v305q0 98 -81 98q-35 0 -52 -17t-24 -57q-91 83 -212 83q-161 0 -265 -106.5t-104 -269.5q0 -164 103.5 -269.5t265.5 -105.5 q157 0 269 118zM408 66q118 0 197.5 79t79.5 209q0 121 -79.5 205t-196.5 84q-122 0 -200.5 -82.5t-78.5 -206.5q0 -123 78.5 -206.5t199.5 -81.5zM408 139q-86 0 -139 61.5t-53 152.5q0 93 52.5 156t139.5 63t140 -63t53 -156q0 -91 -54 -152.5t-139 -61.5zM687 246 q-20 -93 -97.5 -147t-179.5 -54q-134 0 -218.5 87t-84.5 223q0 134 86 221.5t217 87.5q95 0 173 -56t102 -146v166q0 15 11 15q12 0 12 -15v-340q-4 -97 55.5 -163.5t151.5 -66.5t146.5 66t52.5 164v340q0 15 12 15t12 -15v-340q0 -110 -60 -181.5t-164 -71.5 q-88 0 -153.5 60t-73.5 151z" />
<glyph unicode="&#xa5;" horiz-adv-x="646" d="M323 414l-154 254q-29 40 -63 46.5t-60 -17.5q-63 -48 -7 -127l172 -267h-92q-19 0 -29.5 -10.5t-10.5 -27.5q0 -40 40 -40h123v-51h-84q-19 0 -29.5 -10.5t-10.5 -27.5q0 -40 40 -40h84q0 -48 22 -72t59 -24t59 24t22 72h92q39 0 39 40q0 38 -39 38h-92v51h131 q39 0 39 40q0 38 -39 38h-99l171 267q57 79 -6 127q-26 24 -60 17.5t-63 -46.5zM323 301l221 345q5 5 9 5q5 0 10 -3q11 -7 1 -20l-228 -348v-8h192q12 0 12 -8q0 -9 -12 -9h-192v-172q0 -15 -12 -15q-6 0 -9 4t-3 11v172h-178q-10 0 -10 9q2 8 10 8h178v8l-229 349 q-10 14 1 21q13 8 20 -4zM312 146v-18h-149q-10 0 -10 9q1 9 10 9h149zM336 128v18h153q12 0 12 -9t-12 -9h-153z" />
<glyph unicode="&#xa6;" horiz-adv-x="1193" d="M638 158l-16 -23q-86 -85 -216 -85q-131 0 -216 85q-86 86 -86 220q0 133 87 218q88 86 215 86t216 -86q88 -85 88 -218l-6 -24l106 280q17 35 55 35q41 0 56 -35l196 -536q6 -13 -5 -19q-10 -4 -16 9l-46 124h-377l-47 -124q-6 -14 -17 -9q-10 5 -5 19zM404 71 q118 0 201 78q82 79 82 205q0 124 -81 204q-82 80 -201 80t-199 -80t-80 -204t80 -204q79 -79 198 -79zM404 144q-88 0 -143 58q-54 58 -54 153t54 154q55 58 143 58t143 -58t55 -154q0 -95 -55 -153t-143 -58zM682 213h359l-143 391q-7 19 -33 19q-22 0 -32 -19zM864 515 l86 -240h-177zM718 555q-21 40 -47 66q-107 105 -263 105t-263 -104q-106 -103 -106 -268t106 -268t263 -103q82 0 153 38q20 -33 63 -33q27 0 46 19t31 55l24 70h272l22 -65q22 -79 85 -79q35 0 57.5 21.5t22.5 54.5q0 16 -11 52l-186 503q-34 94 -119 94q-88 0 -129 -105z " />
<glyph unicode="&#xa7;" horiz-adv-x="1070" d="M624 58q6 -24 14 -36q23 -22 75 -22h250q37 0 57.5 19.5t20.5 55.5t-20.5 55t-57.5 19h-186v473q0 98 -81 98q-69 0 -75 -77q-87 83 -213 83q-155 0 -262 -104t-107 -268t106 -267q107 -104 263 -104q127 0 216 75zM408 71q115 -4 195 74.5t84 192.5v12q-2 119 -82 201 q-80 87 -196 87q-119 0 -199 -80t-80 -204t80 -204q79 -79 198 -79zM408 144q-78 0 -136 56q-56 58 -56 153q0 98 56 156q57 58 136 58q78 0 136 -58q57 -57 57 -156q0 -95 -58 -153q-58 -56 -135 -56zM686 243q-27 -92 -102 -142.5t-174 -50.5q-132 0 -217 85 q-86 86 -86 220q0 133 87 218q88 86 216 86q96 0 174 -60t102 -154v193q0 13 11 13q12 0 12 -13v-552h266q13 0 13 -11q0 -13 -13 -13h-278q-6 0 -9 3q-2 4 -2 10v168z" />
<glyph unicode="&#xa8;" horiz-adv-x="436" d="M198 584q0 30 -19 51.5t-50 21.5t-50.5 -21.5t-19.5 -51.5t19.5 -51t50.5 -21t50 21t19 51zM387 584q0 31 -19 52t-51 21q-31 0 -50.5 -21.5t-19.5 -51.5t19.5 -51t50.5 -21q32 0 51 21t19 51zM109 584q0 9 6 14.5t14 5.5q19 0 19 -20t-19 -20q-8 0 -14 6t-6 14zM299 584 q0 9 6 14.5t13 5.5q20 0 20 -20q0 -8 -5.5 -14t-14.5 -6q-7 0 -13 6t-6 14z" />
<glyph unicode="&#xa9;" horiz-adv-x="844" d="M435 141q-84 0 -139 58q-61 66 -61 158q0 89 61 162q54 60 139 60q66 0 104 -32q14 -11 4 -18q-7 -5 -14 2q-41 30 -95 30q-74 0 -126 -59t-52 -146q0 -86 51 -141.5t127 -55.5q63 0 101 31q13 13 20 2q5 -9 -6 -17q-46 -34 -114 -34zM424 700q142 1 245 -102t102 -246 q0 -147 -101.5 -248t-246.5 -101t-246.5 106t-101.5 251t101 242.5t248 97.5zM422 726q-156 0 -264.5 -105t-108.5 -261q0 -155 108.5 -268t263.5 -113t264.5 108.5t109.5 264.5q0 154 -110 264t-263 110zM592 186q0 20 -14 37.5t-33 18.5q-20 2 -46 -17q-26 -17 -63 -17 q-54 0 -90 42.5t-36 108.5q0 68 35.5 110.5t90.5 42.5q38 0 63 -16t46 -16q20 1 33.5 18.5t13.5 38.5q-1 37 -49 61q-46 25 -108 25q-107 0 -177 -72q-71 -73 -71 -192q0 -113 71 -187q70 -73 177 -73q61 0 108 24t49 63z" />
<glyph unicode="&#xaa;" horiz-adv-x="322" d="M85 480l-21 -57q-2 -8 -9 -7q-5 1 -6.5 5t0.5 8l87 235q7 13 26 12q21 1 28 -12l87 -235q4 -12 -6 -13q-6 -1 -9 7l-22 57h-155zM92 496h142l-60 163h-23zM163 609l28 -87h-58zM108 444h104l12 -27q15 -41 44 -41q18 0 31 11.5t13 31.5q0 11 -1 16l-87 234q-21 47 -63 47 q-45 0 -61 -51l-85 -221q-5 -12 -5 -24q0 -20 12.5 -32t31.5 -12q16 0 29 10.5t17 28.5z" />
<glyph unicode="&#xab;" horiz-adv-x="628" d="M466 270l98 100q48 48 -2 96q-16 19 -44 18.5t-50 -23.5l-132 -142q-24 -23 -24 -49q1 -27 24 -50l132 -141q43 -46 94 -6q51 48 2 97zM183 270l98 100q48 48 -2 96q-16 19 -44 18.5t-50 -23.5l-132 -142q-24 -23 -24 -49q1 -27 24 -50l132 -141q43 -46 94 -6q51 48 2 97 zM396 272l132 -146q8 -11 0 -17q-6 -4 -13 3l-139 154l-2 6l2 7l136 141q7 9 14 3q7 -7 -1 -17zM110 272l133 -146q8 -11 0 -17q-6 -5 -14 3l-138 154l-2 6l2 7l136 141q6 10 14 3q7 -7 -1 -17z" />
<glyph unicode="&#xac;" horiz-adv-x="652" d="M534 346h-422q-13 0 -13 10q0 13 13 13h432q14 0 14 -13v-152q0 -14 -13 -14q-11 0 -11 14v142zM475 286v-82q-2 -73 70 -73q68 0 68 73v153q0 69 -73 69h-427q-74 0 -74 -70t74 -70h362z" />
<glyph unicode="&#xad;" horiz-adv-x="447" d="M39 356q0 -70 74 -70h222q73 0 73 71q0 69 -73 69h-222q-74 0 -74 -70zM117 346q-13 0 -13 10q0 13 13 13h213q14 0 14 -13q0 -10 -14 -10h-213z" />
<glyph unicode="&#xae;" horiz-adv-x="844" d="M321 328v-170q0 -12 -9 -12q-11 0 -11 12v398q0 14 11 14h110q141 0 141 -127q0 -54 -40 -84q-39 -28 -86 -30l122 -164q6 -10 -1 -16q-2 -2 -7 -2q-3 0 -8 5l-129 176h-93zM321 347h98q125 5 125 96q0 108 -122 108h-101v-204zM424 700q142 1 245 -102t102 -246 q0 -147 -101.5 -248t-246.5 -101t-246.5 106t-101.5 251t101 242.5t248 97.5zM422 726q-156 0 -264.5 -105t-108.5 -261q0 -155 108.5 -268t263.5 -113t264.5 108.5t109.5 264.5q0 154 -110 264t-263 110zM508 305q44 9 76 50.5t32 97.5q0 75 -52 118t-140 43h-101 q-39 0 -54.5 -16t-15.5 -55v-364q0 -72 59 -72q55 0 55 72v122h10l117 -161q30 -36 60 -36q24 0 38.5 15t14.5 39q0 31 -28 59zM367 385v122h57q69 0 69 -61t-70 -61h-56z" />
<glyph unicode="&#xaf;" horiz-adv-x="420" d="M371 581q0 28 -17.5 45t-47.5 17h-193q-28 0 -46 -18t-18 -45q0 -28 17.5 -45t46.5 -17h193q28 0 46.5 18t18.5 45zM317 581q0 -10 -10 -10h-193q-10 0 -10 10t10 10h193q10 0 10 -10z" />
<glyph unicode="&#x2c9;" horiz-adv-x="420" d="M371 581q0 28 -17.5 45t-47.5 17h-193q-28 0 -46 -18t-18 -45q0 -28 17.5 -45t46.5 -17h193q28 0 46.5 18t18.5 45zM317 581q0 -10 -10 -10h-193q-10 0 -10 10t10 10h193q10 0 10 -10z" />
<glyph unicode="&#xb0;" horiz-adv-x="364" d="M131 563q0 23 15 38.5t37 15.5q21 0 35.5 -15.5t14.5 -38.5q0 -21 -15 -36.5t-35 -15.5q-22 0 -37 15.5t-15 36.5zM29 563q0 -65 44 -112q45 -46 110 -46q64 0 107 46q45 47 45 112q0 67 -45 113q-44 47 -107 47q-65 0 -110 -46q-44 -47 -44 -114zM69 562q0 51 33 85 t81 34q47 0 80 -35q33 -34 33 -84q0 -48 -33 -83q-33 -34 -80 -34q-48 0 -81 34t-33 83zM86 562q0 -41 28.5 -70t68.5 -29t67.5 29t27.5 70q0 42 -27.5 71.5t-67.5 29.5t-68.5 -29.5t-28.5 -71.5z" />
<glyph unicode="&#xb1;" horiz-adv-x="629" d="M326 346v-200q0 -14 -11 -14q-12 0 -12 14v200h-191q-13 0 -13 10q0 13 13 13h191v201q0 14 12 14q11 0 11 -14v-201h192q13 0 13 -13q0 -10 -13 -10h-192zM385 286h132q73 0 73 71q0 69 -73 69h-132v143q0 74 -72 74q-68 0 -68 -74v-143h-132q-74 0 -74 -70t74 -70h132 v-143q0 -75 69 -75q71 0 71 75v143zM54 -57q0 -70 74 -70h365q73 0 73 71q0 69 -73 69h-365q-74 0 -74 -70zM127 -68q-13 0 -13 10q0 13 13 13h368q14 0 14 -13q0 -10 -14 -10h-368z" />
<glyph unicode="&#xb2;" horiz-adv-x="298" d="M94 418h140q12 0 12 -9q0 -8 -12 -8h-152q-11 0 -14.5 5.5t0.5 10.5q9 14 42 49q10 12 42 42q26 25 45.5 57.5t16.5 51.5q0 24 -16 39t-43 15q-58 0 -66 -61q-2 -11 -10 -11q-11 0 -9 14q4 42 43 65q19 9 42 9q36 0 56.5 -20.5t20.5 -48.5q0 -40 -33 -83q-19 -24 -36 -41 l-36 -38q-11 -11 -33 -38zM162 452q63 56 82 89q23 35 23 71q0 47 -31.5 77t-82.5 30q-58 0 -95 -46q-22 -26 -22 -61q0 -22 13 -35.5t34 -13.5q37 0 41 42q5 32 32 30q22 -1 22 -26q0 -11 -18.5 -37.5t-44.5 -52.5q-23 -24 -40 -39q-46 -44 -46 -71q0 -44 53 -44h150 q45 0 45 44q0 43 -45 43h-70z" />
<glyph unicode="&#xb3;" horiz-adv-x="297" d="M142 630l-44 -39q-16 -13 -23.5 -26t-6 -23t7.5 -18t14.5 -12t15.5 -4h2q3 0 16 4.5t20 4.5q14 0 22 -8.5t8 -21.5q0 -16 -9 -25.5t-23 -9.5t-26 5t-21 12t-12 8q-7 4 -15 4q-16 0 -27.5 -11.5t-11.5 -29.5q0 -28 33 -50t78 -22q56 0 92 36t36 83q0 41 -23.5 66.5 t-55.5 27.5l50 49q19 16 21 39q0 42 -54 42h-128q-20 0 -31.5 -12t-11.5 -30q0 -42 43 -42zM205 663h-126q-9 0 -9 8t9 8h145q6 0 7.5 -5.5t-2.5 -9.5l-109 -113q53 28 93 -12q18 -21 18 -54q0 -41 -28 -63q-25 -22 -64 -22q-42 0 -70 28q-9 3 -3 13q5 7 12 2q26 -26 62 -26 q35 0 54 19q22 16 22 49q1 25 -16 44q-29 29 -83 8q-13 -3 -17.5 4.5t1.5 14.5z" />
<glyph unicode="&#xb4;" horiz-adv-x="330" d="M108 561q-6 8 6 14l99 66q8 5 13 -3q6 -10 -5 -16l-100 -62q-8 -6 -13 1zM90 512q27 -8 60 11l80 44q37 22 44 45q7 25 -4 47t-37 30q-31 13 -64 -11l-81 -60q-25 -18 -30 -36q-9 -23 -0.5 -42t32.5 -28z" />
<glyph unicode="&#xb5;" horiz-adv-x="318" d="M115 521l32 79q6 13 5 23q0 27 -24 37q-9 4 -20 4q-25 0 -40 -31l-50 -117q-8 -17 -8 -36q0 -43 51 -43h109v-11q0 -55 47 -55t47 55v11q45 0 45 42q0 19 -12.5 30.5t-32.5 12.5v140q0 27 -13 40.5t-34 13.5q-47 0 -47 -54v-141h-55zM64 488h143v190q0 9 10 9q9 0 9 -9 v-190h42q8 0 8 -9q0 -8 -8 -8h-42v-55q0 -10 -9 -10q-10 0 -10 10v55h-155q-9 0 -9 8q0 6 4 13l55 128q4 8 11 7q10 -2 5 -14z" />
<glyph unicode="&#x3bc;" horiz-adv-x="318" d="M115 521l32 79q6 13 5 23q0 27 -24 37q-9 4 -20 4q-25 0 -40 -31l-50 -117q-8 -17 -8 -36q0 -43 51 -43h109v-11q0 -55 47 -55t47 55v11q45 0 45 42q0 19 -12.5 30.5t-32.5 12.5v140q0 27 -13 40.5t-34 13.5q-47 0 -47 -54v-141h-55zM64 488h143v190q0 9 10 9q9 0 9 -9 v-190h42q8 0 8 -9q0 -8 -8 -8h-42v-55q0 -10 -9 -10q-10 0 -10 10v55h-155q-9 0 -9 8q0 6 4 13l55 128q4 8 11 7q10 -2 5 -14z" />
<glyph unicode="&#xb6;" horiz-adv-x="493" d="M411 562q25 0 44 20.5t19 54.5t-24 54t-68 20h-136q-96 0 -152 -54q-55 -52 -55 -135t53 -141q54 -56 123 -56v-257q0 -38 15.5 -53t57.5 -15h51q37 0 54.5 16t17.5 52v494zM334 629h-36v-556q0 -14 -12 -14t-12 14v315h-26q-70 0 -107 40t-37 93q0 58 38 94.5t106 36.5 h145q14 0 14 -11q0 -12 -14 -12h-36v-556q0 -14 -11 -14q-12 0 -12 14v556zM274 411v218h-26q-58 -1 -88.5 -31.5t-30.5 -75.5q0 -46 30 -78t89 -33h26z" />
<glyph unicode="&#xb7;" horiz-adv-x="240" d="M29 351q0 -39 26.5 -65t65.5 -26q37 0 63.5 26t26.5 65q0 37 -26.5 63.5t-63.5 26.5q-38 0 -65 -26.5t-27 -63.5zM96 353q0 10 7.5 17.5t18.5 7.5t18 -7.5t7 -17.5q0 -11 -7 -19t-18 -8t-18.5 8t-7.5 19z" />
<glyph unicode="&#x2219;" horiz-adv-x="240" d="M29 351q0 -39 26.5 -65t65.5 -26q37 0 63.5 26t26.5 65q0 37 -26.5 63.5t-63.5 26.5q-38 0 -65 -26.5t-27 -63.5zM96 353q0 10 7.5 17.5t18.5 7.5t18 -7.5t7 -17.5q0 -11 -7 -19t-18 -8t-18.5 8t-7.5 19z" />
<glyph unicode="&#xb8;" horiz-adv-x="408" d="M194 38q-3 -27 18 -39q22 -12 22 -29q1 -16 -14.5 -24.5t-37.5 -8.5q-12 -1 -86 10q-17 2 -31.5 -11.5t-15.5 -36.5q-1 -38 34 -57t98 -19q79 0 127.5 32.5t50.5 84.5q0 61 -33 93t-90 35q-37 0 -42 -30zM99 -120q-8 5 -9 11.5t4.5 9t13.5 -1.5q60 -17 110 -7 q49 10 63 40q11 19 6.5 39t-23.5 34q-14 4 -17 14q-2 7 8 9h8q30 -11 41.5 -36.5t6 -49.5t-18.5 -35q-16 -20 -48 -31q-61 -20 -145 4z" />
<glyph unicode="&#xb9;" horiz-adv-x="209" d="M94 594l-5 -169q0 -53 45 -53q46 0 46 53v240q0 26 -14 40q-12 12 -29 13h-9q-16 -3 -27 -12l-65 -59q-11 -11 -14.5 -28t5.5 -34q21 -21 35 -18.5t32 27.5zM125 656l-60 -53q-6 -6 -13 -1q-6 7 1 14l73 66q3 3 8 3q8 0 8 -13v-252q-2 -9 -8 -9q-8 0 -9 9v236z" />
<glyph unicode="&#xba;" horiz-adv-x="344" d="M172 449q-47 0 -47 92t47 92q22 0 35.5 -24.5t13.5 -67.5t-13.5 -67.5t-35.5 -24.5zM172 363q66 0 104 47.5t38 130.5t-38 130.5t-104 47.5q-65 0 -104 -48t-39 -130t39 -130t104 -48zM171 394q-46 0 -77 41t-31 106q0 63 31 105t77 42q48 0 78 -41.5t30 -105.5 q0 -66 -30 -106.5t-78 -40.5zM171 412q41 0 66 35t25 94q0 56 -24.5 92.5t-65.5 36.5q-39 0 -64.5 -37t-25.5 -92q0 -57 25 -93t64 -36z" />
<glyph unicode="&#xbb;" horiz-adv-x="628" d="M162 260l-99 -101q-47 -47 2 -96q17 -19 45 -18.5t50 23.5l132 142q23 23 23 50q-2 29 -23 50l-132 140q-43 49 -95 6q-48 -47 -2 -97zM445 260l-98 -101q-49 -48 2 -96q16 -19 44 -18.5t50 23.5l132 142q24 22 24 50q-2 28 -24 50l-132 140q-43 49 -94 6q-50 -46 -2 -97 zM234 263l-130 133q-7 10 0 17q6 6 14 -3l136 -140l2 -7l-2 -7l-139 -153q-8 -8 -13 -3q-7 6 0 16zM520 263l-130 133q-8 10 -1 17q7 6 14 -3l136 -140l2 -7l-2 -7l-139 -153q-7 -7 -13 -3q-7 6 0 16z" />
<glyph unicode="&#xbc;" horiz-adv-x="740" d="M575 716q-31 20 -59 -25l-402 -637q-18 -37 9 -58q36 -15 57 18l405 641q22 40 -10 61zM144 25q-7 4 -2 14l406 644q5 9 13 4q4 -4 1 -11l-407 -648q-5 -8 -11 -3zM508 151l32 78q6 14 5 24q0 27 -24 37q-9 4 -20 4q-25 0 -40 -31l-51 -117q-8 -17 -8 -36q0 -44 51 -44 h109v-10q0 -55 47 -55t47 55v10q45 0 45 43q0 19 -12 30.5t-33 12.5v140q0 54 -47 54q-21 0 -34 -13.5t-13 -40.5v-141h-54zM457 118h143v190q0 8 9 8t9 -8v-190h42q9 0 9 -9q0 -8 -9 -8h-42v-55q0 -10 -9 -10t-9 10v55h-156q-8 0 -8 8q0 5 3 13l55 128q4 9 12 7 q10 -2 5 -14zM123 584l-5 -169q0 -53 45 -53q46 0 46 53v240q0 26 -14 40q-12 12 -29 13h-9q-15 -3 -27 -12l-65 -58q-30 -33 -8 -63q20 -20 34.5 -18t31.5 27zM154 646l-59 -53q-7 -7 -14 -1q-5 9 1 14l73 66q3 3 8 3q8 0 8 -13v-252q-1 -9 -8 -9t-9 9v236z" />
<glyph unicode="&#xbd;" horiz-adv-x="743" d="M575 716q-31 20 -59 -25l-402 -637q-18 -37 9 -58q36 -15 57 18l405 641q22 40 -10 61zM144 25q-7 4 -2 14l406 644q5 9 13 4q4 -4 1 -11l-407 -648q-5 -8 -11 -3zM123 584l-5 -169q0 -53 45 -53q46 0 46 53v240q0 26 -14 40q-12 12 -29 13h-9q-15 -3 -27 -12l-65 -58 q-30 -33 -8 -63q20 -20 34.5 -18t31.5 27zM154 646l-59 -53q-7 -7 -14 -1q-5 9 1 14l73 66q3 3 8 3q8 0 8 -13v-252q-1 -9 -8 -9t-9 9v236zM511 53h140q12 0 12 -9q0 -8 -12 -8h-152q-11 0 -14.5 5.5t0.5 10.5q16 20 42 49l42 42q27 26 46 57.5t16 51.5q0 23 -16 38.5 t-43 15.5t-44.5 -16.5t-21.5 -44.5q-2 -12 -10 -12q-10 0 -9 15q4 42 43 64q19 10 42 10q36 -1 56.5 -21.5t20.5 -47.5q0 -43 -33 -83q-19 -24 -36 -41l-36 -38q0 -1 -33 -38zM579 87q63 56 82 89q23 35 23 71q0 47 -31.5 77t-82.5 30q-58 0 -95 -46q-22 -26 -22 -61 q0 -22 13 -35.5t34 -13.5q36 0 41 42q5 32 32 30q22 -1 22 -26q0 -24 -63 -91q-24 -24 -40 -38q-46 -44 -46 -71q0 -44 53 -44h150q45 0 45 44q0 43 -45 43h-70z" />
<glyph unicode="&#xbe;" horiz-adv-x="740" d="M575 717q-31 20 -59 -25l-402 -637q-18 -37 9 -58q36 -15 57 18l405 641q22 40 -10 61zM151 630l-44 -39q-20 -16 -26 -32t0 -27t15.5 -17.5t19.5 -6.5h2q3 0 15.5 4.5t19.5 4.5q15 0 23 -8.5t8 -21.5q0 -16 -9 -25.5t-24 -9.5q-13 0 -24.5 5t-21 12t-12.5 8q-7 4 -15 4 q-16 0 -27.5 -11.5t-11.5 -29.5q0 -28 33 -50t77 -22q57 0 92 36q36 36 36 83q0 41 -23 66.5t-55 27.5l50 49q19 16 21 39q0 42 -54 42h-128q-20 0 -31.5 -11.5t-11.5 -30.5q0 -42 43 -42zM215 663h-126q-9 0 -9 8t9 8h144q6 0 8 -5.5t-2 -9.5l-109 -113q53 28 93 -12 q18 -23 18 -54q0 -41 -28 -63q-25 -22 -65 -22q-41 0 -69 28q-9 3 -3 13q5 7 12 2q26 -26 61 -26q36 0 55 19q22 16 22 49q1 25 -16 44q-29 29 -83 8q-14 -3 -18.5 4.5t1.5 14.5zM508 152l32 78q6 14 5 24q0 26 -24 37q-9 4 -20 4q-25 0 -40 -31l-51 -118q-8 -15 -8 -35 q0 -44 51 -44h109v-10q0 -55 47 -55t47 55v10q45 0 45 43q0 19 -12 30.5t-33 12.5v140q0 54 -47 54q-21 0 -34 -13.5t-13 -40.5v-141h-54zM456 118h146v190q0 9 7 9q9 0 9 -9v-190h40q11 0 11 -8q0 -7 -11 -7h-40v-56q0 -10 -9 -10q-7 0 -7 10v56h-154q-8 0 -10 6.5t1 13.5 l55 128q4 9 11 7q10 -2 5 -14zM144 26q-7 4 -2 14l406 644q5 9 13 4q4 -4 1 -11l-407 -648q-5 -8 -11 -3z" />
<glyph unicode="&#xbf;" horiz-adv-x="536" d="M281 379v62q0 15 12 15t12 -15v-71q0 -13 -14 -13q-64 -4 -107 -38t-54 -84q-7 -31 3 -65t32 -59q63 -66 160 -43q73 20 108 94q6 15 18 7q12 -10 3 -23q-28 -59 -84.5 -85.5t-113.5 -19.5q-67 8 -111 57q-32 37 -39 86t16.5 96t74.5 74q35 17 84 25zM316 636 q0 -11 -7.5 -18.5t-18.5 -7.5t-18 7.5t-7 18.5q0 10 7 18t18 8t18.5 -8t7.5 -18zM379 636q0 36 -26 62t-62 26t-61.5 -26t-25.5 -62t25.5 -61.5t61.5 -25.5t62 25.5t26 61.5zM214 418q-81 -14 -128 -71.5t-47 -138.5q0 -97 70.5 -160t168.5 -63t168 55q71 56 71 124 q0 33 -19.5 53t-55.5 20q-32 0 -49 -26q-1 -1 -7 -10.5t-8 -12t-8.5 -11.5t-10.5 -12t-11.5 -10t-14 -9.5l-15.5 -6t-19 -4.5t-21 0q-28 0 -48.5 19.5t-20.5 46.5q0 59 56 80q12 4 36.5 10t32.5 10q19 9 26.5 23t7.5 41v74q0 29 -20.5 50t-55.5 21t-56.5 -21t-21.5 -50v-21z " />
<glyph unicode="&#xc0;" horiz-adv-x="668" d="M151 250v-167q0 -15 -11 -15q-12 0 -12 15v382q0 89 52.5 136.5t153.5 47.5t153.5 -47.5t52.5 -136.5v-382q0 -15 -12 -15q-11 0 -11 15v167h-366zM151 273h366v193q0 159 -183 160q-183 -1 -183 -160v-193zM221 329v121q0 111 102 111h22q102 0 102 -111v-121h-226z M221 195h226v-97q0 -50 22 -74t59 -24t59 24t22 74v352q0 121 -65 191t-177 70h-66q-112 0 -177 -70t-65 -191v-352q0 -98 81 -98q37 0 59 24t22 74v97zM377 797q-5 -7 -13 -1l-100 62q-12 7 -5 16q5 8 13 3l99 -66q8 -4 6 -14zM389 748q24 9 32.5 28t-0.5 42q-4 16 -30 36 l-81 60q-32 24 -64 11q-26 -8 -37 -30t-4 -47q11 -25 44 -45l80 -44q34 -19 60 -11z" />
<glyph unicode="&#xc1;" horiz-adv-x="668" d="M151 250v-167q0 -15 -11 -15q-12 0 -12 15v382q0 89 52.5 136.5t153.5 47.5t153.5 -47.5t52.5 -136.5v-382q0 -15 -12 -15q-11 0 -11 15v167h-366zM151 273h366v193q0 159 -183 160q-183 -1 -183 -160v-193zM221 329v121q0 111 102 111h22q102 0 102 -111v-121h-226z M221 195h226v-97q0 -50 22 -74t59 -24t59 24t22 74v352q0 121 -65 191t-177 70h-66q-112 0 -177 -70t-65 -191v-352q0 -98 81 -98q37 0 59 24t22 74v97zM277 797q-6 8 6 14l99 66q8 5 13 -3q6 -10 -5 -16l-100 -62q-8 -6 -13 1zM259 748q27 -8 60 11l80 44q37 22 44 45 q7 25 -4 47t-37 30q-31 13 -64 -11l-81 -60q-25 -18 -30 -36q-9 -23 -0.5 -42t32.5 -28z" />
<glyph unicode="&#xc2;" horiz-adv-x="668" d="M151 250v-167q0 -15 -11 -15q-12 0 -12 15v382q0 89 52.5 136.5t153.5 47.5t153.5 -47.5t52.5 -136.5v-382q0 -15 -12 -15q-11 0 -11 15v167h-366zM151 273h366v193q0 159 -183 160q-183 -1 -183 -160v-193zM221 329v121q0 111 102 111h22q102 0 102 -111v-121h-226z M221 195h226v-97q0 -50 22 -74t59 -24t59 24t22 74v352q0 121 -65 191t-177 70h-66q-112 0 -177 -70t-65 -191v-352q0 -98 81 -98q37 0 59 24t22 74v97zM334 866l-83 -78q-10 -7 -16 0q-4 6 3 13l90 84l6 2l7 -2l88 -82q9 -7 3 -14q-7 -7 -17 1zM334 817l57 -56q36 -35 71 1 q15 12 14.5 33t-18.5 38l-87 81q-17 17 -37 17q-22 -2 -37 -17l-88 -82q-34 -34 -4 -71q36 -36 72 -1z" />
<glyph unicode="&#xc3;" horiz-adv-x="668" d="M151 250v-167q0 -15 -11 -15q-12 0 -12 15v382q0 89 52.5 136.5t153.5 47.5t153.5 -47.5t52.5 -136.5v-382q0 -15 -12 -15q-11 0 -11 15v167h-366zM151 273h366v193q0 159 -183 160q-183 -1 -183 -160v-193zM221 329v121q0 111 102 111h22q102 0 102 -111v-121h-226z M221 195h226v-97q0 -50 22 -74t59 -24t59 24t22 74v352q0 121 -65 191t-177 70h-66q-112 0 -177 -70t-65 -191v-352q0 -98 81 -98q37 0 59 24t22 74v97zM238 813q11 14 21.5 22t22 8t17.5 -1t19 -6.5t15 -6.5t11.5 -5l12 -5t11 -3.5t12 -2.5t10 0.5t11 3t9.5 7.5t9 12 q8 9 14 8t6 -7.5t-4 -12.5q-14 -18 -29.5 -24.5t-24.5 -5.5t-25.5 7t-21.5 7q-1 1 -8.5 4.5t-9 4.5t-8 3.5t-8.5 3t-7.5 1.5t-8.5 0l-7.5 -2.5t-8 -4.5t-7.5 -7t-8 -10q-6 -9 -12 -8t-6.5 7.5t3.5 12.5zM236 750q12 0 30.5 8.5t32.5 8.5q17 0 46 -10q30 -9 47 -9 q35 0 59.5 25t24.5 62q0 24 -12 39t-32 15q-13 0 -32 -9t-31 -9q-14 0 -46 9q-29 10 -47 10q-36 0 -60 -25t-24 -63q0 -24 11.5 -38t32.5 -14z" />
<glyph unicode="&#xc4;" horiz-adv-x="668" d="M151 250v-167q0 -15 -11 -15q-12 0 -12 15v382q0 89 52.5 136.5t153.5 47.5t153.5 -47.5t52.5 -136.5v-382q0 -15 -12 -15q-11 0 -11 15v167h-366zM151 273h366v193q0 159 -183 160q-183 -1 -183 -160v-193zM221 329v121q0 111 102 111h22q102 0 102 -111v-121h-226z M221 195h226v-97q0 -50 22 -74t59 -24t59 24t22 74v352q0 121 -65 191t-177 70h-66q-112 0 -177 -70t-65 -191v-352q0 -98 81 -98q37 0 59 24t22 74v97zM309 820q0 30 -19 51.5t-50 21.5t-50.5 -21.5t-19.5 -51.5t19.5 -51t50.5 -21t50 21t19 51zM498 820q0 31 -19 52 t-51 21q-31 0 -50.5 -21.5t-19.5 -51.5t19.5 -51t50.5 -21q32 0 51 21t19 51zM220 820q0 9 6 14.5t14 5.5q19 0 19 -20t-19 -20q-8 0 -14 6t-6 14zM410 820q0 9 6 14.5t13 5.5q20 0 20 -20q0 -8 -5.5 -14t-14.5 -6q-7 0 -13 6t-6 14z" />
<glyph unicode="&#xc5;" horiz-adv-x="668" d="M151 250v-167q0 -15 -11 -15q-12 0 -12 15v382q0 89 52.5 136.5t153.5 47.5t153.5 -47.5t52.5 -136.5v-382q0 -15 -12 -15q-11 0 -11 15v167h-366zM151 273h366v193q0 159 -183 160q-183 -1 -183 -160v-193zM221 329v121q0 111 102 111h22q102 0 102 -111v-121h-226z M221 195h226v-97q0 -50 22 -74t59 -24t59 24t22 74v352q0 121 -65 191t-177 70h-66q-112 0 -177 -70t-65 -191v-352q0 -98 81 -98q37 0 59 24t22 74v97zM248 828q0 -34 25.5 -59.5t60.5 -25.5t60.5 25.5t25.5 59.5q0 36 -25.5 61.5t-60.5 25.5q-34 0 -60 -25.5t-26 -61.5z M281 828q0 22 15.5 38.5t37.5 16.5t38 -16.5t16 -38.5t-16 -37.5t-38 -15.5t-37.5 15.5t-15.5 37.5z" />
<glyph unicode="&#xc6;" horiz-adv-x="941" d="M507 250h-356v-167q0 -15 -11 -15q-12 0 -12 15v382q0 88 52 136t154 48h489q14 0 14 -11q0 -12 -14 -12h-293v-254h261q14 0 14 -13q0 -10 -14 -10h-261v-262h292q14 0 14 -11q0 -13 -14 -13h-303q-12 0 -12 14v173zM507 273v353h-173q-183 -1 -183 -160v-193h356z M437 329h-216v121q0 111 102 111h114v-232zM590 286h203q37 0 57.5 19.5t20.5 55.5t-20.5 55.5t-57.5 19.5h-203v126h224q79 0 79 75q0 74 -79 74h-377h-136q-112 0 -177 -70t-65 -191v-352q0 -98 81 -98q37 0 59 24t22 74v97h216v-97q0 -52 23 -75t75 -23h289 q37 0 57.5 19.5t20.5 55.5t-20.5 55t-57.5 19h-234v137z" />
<glyph unicode="&#xc7;" horiz-adv-x="651" d="M490 -6q27 8 55 23q65 36 67 87q0 32 -19 56.5t-46 25.5t-67 -23q-38 -23 -89 -23q-85 0 -135 59q-50 61 -50 152q0 96 50 155q51 60 135 60q51 0 89 -24q41 -23 67 -22q27 1 46 25.5t19 57.5q-2 50 -67 86q-65 37 -155 37q-153 0 -252 -105t-99 -270q0 -159 99 -265 q90 -94 222 -105q9 -9 12 -19q4 -18 -10 -28.5t-41 -8.5q-12 0 -33 4q-24 3 -35 3q-27 0 -42.5 -13t-15.5 -34q0 -35 35.5 -55.5t96.5 -20.5q80 0 128.5 32t50.5 85q0 42 -16 68zM548 121q10 -1 10 -12q0 -5 -9 -11q-61 -48 -160 -48q-118 0 -196 82q-77 83 -77 219 q0 132 78 219t195 87q92 0 148 -43q9 -8 9 -12q0 -10 -7 -11.5t-15 6.5q-50 39 -136 39q-109 0 -179 -82q-70 -80 -70 -204q0 -125 70 -202q71 -77 178 -77q91 0 149 44q8 6 12 6zM249 -135q-13 8 -8 17.5t18 2.5q55 -20 110 -7q50 10 62 39q23 45 -17 73q-12 3 -16 14 q-3 9 10 10h5q32 -9 42.5 -35.5t4.5 -50.5t-17 -36q-16 -20 -49 -31q-59 -20 -145 4z" />
<glyph unicode="&#xc8;" horiz-adv-x="593" d="M221 149v134h222q37 0 57.5 19.5t20.5 55.5t-20.5 55.5t-57.5 19.5h-222v129h245q37 0 57.5 19.5t20.5 55.5t-20.5 55t-57.5 19h-329q-44 0 -61 -13.5t-17 -54.5v-575q0 -41 17 -54.5t61 -13.5h338q37 0 57.5 19.5t20.5 55.5t-20.5 55t-57.5 19h-254zM154 86h326 q14 0 14 -11q0 -13 -14 -13h-337q-12 0 -12 14v561q0 6 4 9q2 2 8 2h329q13 0 13 -11q0 -12 -13 -12h-318v-254h295q14 0 14 -13q0 -10 -14 -10h-295v-262zM341 797q-5 -7 -13 -1l-100 62q-12 7 -5 16q5 8 13 3l99 -66q8 -4 6 -14zM353 748q24 9 32.5 28t-0.5 42 q-4 16 -30 36l-81 60q-32 24 -64 11q-26 -8 -37 -30t-4 -47q11 -25 44 -45l80 -44q34 -19 60 -11z" />
<glyph unicode="&#xc9;" horiz-adv-x="593" d="M221 149v134h222q37 0 57.5 19.5t20.5 55.5t-20.5 55.5t-57.5 19.5h-222v129h245q37 0 57.5 19.5t20.5 55.5t-20.5 55t-57.5 19h-329q-44 0 -61 -13.5t-17 -54.5v-575q0 -41 17 -54.5t61 -13.5h338q37 0 57.5 19.5t20.5 55.5t-20.5 55t-57.5 19h-254zM154 86h326 q14 0 14 -11q0 -13 -14 -13h-337q-12 0 -12 14v561q0 6 4 9q2 2 8 2h329q13 0 13 -11q0 -12 -13 -12h-318v-254h295q14 0 14 -13q0 -10 -14 -10h-295v-262zM247 797q-6 8 6 14l99 66q8 5 13 -3q6 -10 -5 -16l-100 -62q-8 -6 -13 1zM229 748q27 -8 60 11l80 44q37 22 44 45 q7 25 -4 47t-37 30q-31 13 -64 -11l-81 -60q-25 -18 -30 -36q-9 -23 -0.5 -42t32.5 -28z" />
<glyph unicode="&#xca;" horiz-adv-x="593" d="M221 149v134h222q37 0 57.5 19.5t20.5 55.5t-20.5 55.5t-57.5 19.5h-222v129h245q37 0 57.5 19.5t20.5 55.5t-20.5 55t-57.5 19h-329q-44 0 -61 -13.5t-17 -54.5v-575q0 -41 17 -54.5t61 -13.5h338q37 0 57.5 19.5t20.5 55.5t-20.5 55t-57.5 19h-254zM154 86h326 q14 0 14 -11q0 -13 -14 -13h-337q-12 0 -12 14v561q0 6 4 9q2 2 8 2h329q13 0 13 -11q0 -12 -13 -12h-318v-254h295q14 0 14 -13q0 -10 -14 -10h-295v-262zM296 866l-83 -78q-10 -7 -16 0q-4 6 3 13l90 84l6 2l7 -2l88 -82q9 -7 3 -14q-7 -7 -17 1zM296 817l57 -56 q36 -35 71 1q15 12 14.5 33t-18.5 38l-87 81q-17 17 -37 17q-22 -2 -37 -17l-88 -82q-34 -34 -4 -71q36 -36 72 -1z" />
<glyph unicode="&#xcb;" horiz-adv-x="593" d="M221 149v134h222q37 0 57.5 19.5t20.5 55.5t-20.5 55.5t-57.5 19.5h-222v129h245q37 0 57.5 19.5t20.5 55.5t-20.5 55t-57.5 19h-329q-44 0 -61 -13.5t-17 -54.5v-575q0 -41 17 -54.5t61 -13.5h338q37 0 57.5 19.5t20.5 55.5t-20.5 55t-57.5 19h-254zM154 86h326 q14 0 14 -11q0 -13 -14 -13h-337q-12 0 -12 14v561q0 6 4 9q2 2 8 2h329q13 0 13 -11q0 -12 -13 -12h-318v-254h295q14 0 14 -13q0 -10 -14 -10h-295v-262zM272 820q0 30 -19 51.5t-50 21.5t-50.5 -21.5t-19.5 -51.5t19.5 -51t50.5 -21t50 21t19 51zM461 820q0 31 -19 52 t-51 21q-31 0 -50.5 -21.5t-19.5 -51.5t19.5 -51t50.5 -21q32 0 51 21t19 51zM183 820q0 9 6 14.5t14 5.5q19 0 19 -20t-19 -20q-8 0 -14 6t-6 14zM373 820q0 9 6 14.5t13 5.5q20 0 20 -20q0 -8 -5.5 -14t-14.5 -6q-7 0 -13 6t-6 14z" />
<glyph unicode="&#xcc;" horiz-adv-x="279" d="M140 711q-81 0 -81 -107v-506q0 -98 81 -98q37 0 59 24t22 74v515q0 50 -22 74t-59 24zM140 68q-12 0 -12 15v555q0 14 12 14q11 0 11 -14v-555q0 -15 -11 -15zM193 797q-5 -7 -13 -1l-100 62q-12 7 -5 16q5 8 13 3l99 -66q8 -4 6 -14zM205 748q24 9 32.5 28t-0.5 42 q-4 16 -30 36l-81 60q-32 24 -64 11q-26 -8 -37 -30t-4 -47q11 -25 44 -45l80 -44q34 -19 60 -11z" />
<glyph unicode="&#xcd;" horiz-adv-x="279" d="M140 711q-81 0 -81 -107v-506q0 -98 81 -98q37 0 59 24t22 74v515q0 50 -22 74t-59 24zM140 68q-12 0 -12 15v555q0 14 12 14q11 0 11 -14v-555q0 -15 -11 -15zM92 797q-6 8 6 14l99 66q8 5 13 -3q6 -10 -5 -16l-100 -62q-8 -6 -13 1zM74 748q27 -8 60 11l80 44 q37 22 44 45q7 25 -4 47t-37 30q-31 13 -64 -11l-81 -60q-25 -18 -30 -36q-9 -23 -0.5 -42t32.5 -28z" />
<glyph unicode="&#xce;" horiz-adv-x="279" d="M140 711q-81 0 -81 -107v-506q0 -98 81 -98q37 0 59 24t22 74v515q0 50 -22 74t-59 24zM140 68q-12 0 -12 15v555q0 14 12 14q11 0 11 -14v-555q0 -15 -11 -15zM140 866l-83 -78q-10 -7 -16 0q-4 6 3 13l90 84l6 2l7 -2l88 -82q9 -7 3 -14q-7 -7 -17 1zM140 817l57 -56 q36 -35 71 1q15 12 14.5 33t-18.5 38l-87 81q-17 17 -37 17q-22 -2 -37 -17l-88 -82q-34 -34 -4 -71q36 -36 72 -1z" />
<glyph unicode="&#xcf;" horiz-adv-x="279" d="M140 711q-81 0 -81 -107v-506q0 -98 81 -98q37 0 59 24t22 74v515q0 50 -22 74t-59 24zM140 68q-12 0 -12 15v555q0 14 12 14q11 0 11 -14v-555q0 -15 -11 -15zM115 820q0 30 -19 51.5t-50 21.5t-50.5 -21.5t-19.5 -51.5t19.5 -51t50.5 -21t50 21t19 51zM304 820 q0 31 -19 52t-51 21q-31 0 -50.5 -21.5t-19.5 -51.5t19.5 -51t50.5 -21q32 0 51 21t19 51zM26 820q0 9 6 14.5t14 5.5q19 0 19 -20t-19 -20q-8 0 -14 6t-6 14zM216 820q0 9 6 14.5t13 5.5q20 0 20 -20q0 -8 -5.5 -14t-14.5 -6q-7 0 -13 6t-6 14z" />
<glyph unicode="&#xd0;" horiz-adv-x="681" d="M53 344q-14 0 -14 10q0 13 14 13h85v265q0 14 11 14h91q188 0 261 -87q74 -88 74 -214q0 -114 -73 -197q-72 -84 -262 -84h-91q-11 0 -11 15v265h-85zM161 344v-258h81q178 0 244 78q67 79 67 180q0 117 -67 199t-245 82h-80v-258h124q14 0 14 -13q0 -10 -14 -10h-124z M226 297h58q28 0 44 15t16 42q0 28 -16 43.5t-43 15.5h-59v149h45q203 0 203 -219q0 -192 -206 -192h-42v146zM132 0h118q210 0 305 95q96 96 94 249q-5 167 -103 267q-99 100 -280 100h-134q-35 0 -52 -14t-17 -54v-230h-11q-26 0 -43 -15t-17 -43q0 -26 17.5 -42t41.5 -16 h12v-229q0 -40 17 -54t52 -14z" />
<glyph unicode="&#xd1;" horiz-adv-x="686" d="M150 596v-513q0 -15 -11 -15q-12 0 -12 15v550q0 9 11 10q7 1 12 -7l389 -522v514q0 15 12 15q11 0 11 -15v-545q0 -15 -10 -15q-8 0 -13 7zM215 403l245 -353q39 -55 91 -55q38 0 59 21t21 58v539q0 50 -22 74t-59 24t-59 -24t-22 -74l5 -312l-246 360q-39 55 -90 55 q-38 0 -59 -21t-21 -58v-539q0 -98 81 -98q37 0 59 24t22 74zM227 813q11 14 21.5 22t22 8t17.5 -1t19 -6.5t15 -6.5t11.5 -5l12 -5t11 -3.5t12 -2.5t10 0.5t11 3t9.5 7.5t9 12q8 9 14 8t6 -7.5t-4 -12.5q-14 -18 -29.5 -24.5t-24.5 -5.5t-25.5 7t-21.5 7q-1 1 -8.5 4.5 t-9 4.5t-8 3.5t-8.5 3t-7.5 1.5t-8.5 0l-7.5 -2.5t-8 -4.5t-7.5 -7t-8 -10q-6 -9 -12 -8t-6.5 7.5t3.5 12.5zM225 750q12 0 30.5 8.5t32.5 8.5q17 0 46 -10q30 -9 47 -9q35 0 59.5 25t24.5 62q0 24 -12 39t-32 15q-13 0 -32 -9t-31 -9q-14 0 -46 9q-29 10 -47 10 q-36 0 -60 -25t-24 -63q0 -24 11.5 -38t32.5 -14z" />
<glyph unicode="&#xd2;" d="M408 144q-88 0 -143 58q-54 58 -54 153t54 154q55 58 143 58t142 -58q55 -58 55 -154q0 -95 -55 -153q-54 -58 -142 -58zM408 -17q157 0 263 103t106 268q0 164 -107 268t-262 104q-156 0 -263 -104q-106 -103 -106 -268t106 -268t263 -103zM410 50q-131 0 -217 85 q-86 86 -86 220q0 133 87 218q89 86 216 86t216 -86q88 -85 88 -218q0 -135 -88 -220q-86 -85 -216 -85zM408 71q118 0 201 78q82 79 82 205q0 124 -81 204q-82 80 -201 80t-199 -80t-80 -204t80 -204q79 -79 198 -79zM471 802q-5 -7 -13 -1l-100 62q-12 7 -5 16q5 8 13 3 l99 -66q8 -4 6 -14zM483 753q24 9 32.5 28t-0.5 42q-4 16 -30 36l-81 60q-32 24 -64 11q-26 -8 -37 -30t-4 -47q11 -25 44 -45l80 -44q34 -19 60 -11z" />
<glyph unicode="&#xd3;" d="M408 144q-88 0 -143 58q-54 58 -54 153t54 154q55 58 143 58t142 -58q55 -58 55 -154q0 -95 -55 -153q-54 -58 -142 -58zM408 -17q157 0 263 103t106 268q0 164 -107 268t-262 104q-156 0 -263 -104q-106 -103 -106 -268t106 -268t263 -103zM410 50q-131 0 -217 85 q-86 86 -86 220q0 133 87 218q89 86 216 86t216 -86q88 -85 88 -218q0 -135 -88 -220q-86 -85 -216 -85zM408 71q118 0 201 78q82 79 82 205q0 124 -81 204q-82 80 -201 80t-199 -80t-80 -204t80 -204q79 -79 198 -79zM362 803q-6 8 6 14l99 66q8 5 13 -3q6 -10 -5 -16 l-100 -62q-8 -6 -13 1zM344 754q27 -8 60 11l80 44q37 22 44 45q7 25 -4 47t-37 30q-31 13 -64 -11l-81 -60q-25 -18 -30 -36q-9 -23 -0.5 -42t32.5 -28z" />
<glyph unicode="&#xd4;" d="M408 144q-88 0 -143 58q-54 58 -54 153t54 154q55 58 143 58t142 -58q55 -58 55 -154q0 -95 -55 -153q-54 -58 -142 -58zM408 -17q157 0 263 103t106 268q0 164 -107 268t-262 104q-156 0 -263 -104q-106 -103 -106 -268t106 -268t263 -103zM410 50q-131 0 -217 85 q-86 86 -86 220q0 133 87 218q89 86 216 86t216 -86q88 -85 88 -218q0 -135 -88 -220q-86 -85 -216 -85zM408 71q118 0 201 78q82 79 82 205q0 124 -81 204q-82 80 -201 80t-199 -80t-80 -204t80 -204q79 -79 198 -79zM408 871l-83 -78q-10 -7 -16 0q-4 6 3 13l90 84l6 2 l7 -2l88 -82q9 -7 3 -14q-7 -7 -17 1zM408 822l57 -56q36 -35 71 1q15 12 14.5 33t-18.5 38l-87 81q-17 17 -37 17q-22 -2 -37 -17l-88 -82q-34 -34 -4 -71q36 -36 72 -1z" />
<glyph unicode="&#xd5;" d="M408 144q-88 0 -143 58q-54 58 -54 153t54 154q55 58 143 58t142 -58q55 -58 55 -154q0 -95 -55 -153q-54 -58 -142 -58zM408 -17q157 0 263 103t106 268q0 164 -107 268t-262 104q-156 0 -263 -104q-106 -103 -106 -268t106 -268t263 -103zM410 50q-131 0 -217 85 q-86 86 -86 220q0 133 87 218q89 86 216 86t216 -86q88 -85 88 -218q0 -135 -88 -220q-86 -85 -216 -85zM408 71q118 0 201 78q82 79 82 205q0 124 -81 204q-82 80 -201 80t-199 -80t-80 -204t80 -204q79 -79 198 -79zM312 817q11 14 21.5 22t22 8t17.5 -1t19 -6.5t15 -6.5 t11.5 -5l12 -5t11 -3.5t12 -2.5t10 0.5t11 3t9.5 7.5t9 12q8 9 14 8t6 -7.5t-4 -12.5q-14 -18 -29.5 -24.5t-24.5 -5.5t-25.5 7t-21.5 7q-1 1 -8.5 4.5t-9 4.5t-8 3.5t-8.5 3t-7.5 1.5t-8.5 0l-7.5 -2.5t-8 -4.5t-7.5 -7t-8 -10q-6 -9 -12 -8t-6.5 7.5t3.5 12.5zM310 754 q12 0 30.5 8.5t32.5 8.5q17 0 46 -10q30 -9 47 -9q35 0 59.5 25t24.5 62q0 24 -12 39t-32 15q-13 0 -32 -9t-31 -9q-14 0 -46 9q-29 10 -47 10q-36 0 -60 -25t-24 -63q0 -24 11.5 -38t32.5 -14z" />
<glyph unicode="&#xd6;" d="M408 144q-88 0 -143 58q-54 58 -54 153t54 154q55 58 143 58t142 -58q55 -58 55 -154q0 -95 -55 -153q-54 -58 -142 -58zM408 -17q157 0 263 103t106 268q0 164 -107 268t-262 104q-156 0 -263 -104q-106 -103 -106 -268t106 -268t263 -103zM410 50q-131 0 -217 85 q-86 86 -86 220q0 133 87 218q89 86 216 86t216 -86q88 -85 88 -218q0 -135 -88 -220q-86 -85 -216 -85zM408 71q118 0 201 78q82 79 82 205q0 124 -81 204q-82 80 -201 80t-199 -80t-80 -204t80 -204q79 -79 198 -79zM384 820q0 30 -19 51.5t-50 21.5t-50.5 -21.5 t-19.5 -51.5t19.5 -51t50.5 -21t50 21t19 51zM573 820q0 31 -19 52t-51 21q-31 0 -50.5 -21.5t-19.5 -51.5t19.5 -51t50.5 -21q32 0 51 21t19 51zM295 820q0 9 6 14.5t14 5.5q19 0 19 -20t-19 -20q-8 0 -14 6t-6 14zM485 820q0 9 6 14.5t13 5.5q20 0 20 -20q0 -8 -5.5 -14 t-14.5 -6q-7 0 -13 6t-6 14z" />
<glyph unicode="&#xd7;" horiz-adv-x="639" d="M321 339l-187 -187q-10 -10 -18 -2q-4 4 -4 9t5 10l188 186l-185 184q-11 11 -2 18q4 4 9 4t10 -5l184 -184l185 184q5 5 10 5t8 -4q9 -7 -2 -18l-184 -184l187 -186q5 -5 5 -10t-4 -9q-8 -8 -17 2zM319 258l145 -147q52 -52 101 -4q50 53 -3 103l-147 144l148 145 q54 50 1 103q-46 46 -100 -4l-145 -148l-144 148q-53 49 -103 2q-48 -50 3 -101l149 -145l-148 -144q-52 -52 -3 -102q49 -47 102 3z" />
<glyph unicode="&#xd8;" d="M237 99l-78 -114q-5 -6 -12 -3q-6 4 -1 14l78 112q-15 11 -31 27q-86 86 -86 220q0 133 87 218q89 86 216 86q97 0 171 -50l65 93q4 10 12 5q5 -5 1 -12l-65 -94q15 -11 32 -28q88 -85 88 -218q0 -135 -88 -220q-86 -85 -216 -85q-99 0 -173 49zM581 582l-330 -465 q67 -46 157 -46q118 0 201 78q82 79 82 205q0 124 -81 204q-12 12 -29 24zM237 127l331 465q-67 46 -159 46q-119 0 -199 -80t-80 -204t80 -204q18 -16 27 -23zM254 221q-38 55 -38 132q0 97 56 158q57 61 136 61q46 0 84 -20zM562 489q39 -55 39 -136q0 -96 -58 -155 q-57 -59 -135 -59q-46 0 -83 19zM231 23q79 -40 177 -40q157 0 263 103t106 268q0 164 -106 267q-7 7 -11 10l22 31q20 37 17 53q-4 18 -18.5 28.5t-34.5 7.5q-24 -6 -45 -43l-17 -23q-79 41 -176 41q-156 0 -263 -104q-106 -103 -106 -268q0 -164 106 -267q1 -1 4 -5t5 -5 l-33 -48q-19 -24 -17 -52q4 -20 19 -30.5t33 -8.5q23 6 46 43z" />
<glyph unicode="&#xd9;" horiz-adv-x="708" d="M568 711q-37 0 -59 -24t-22 -74v-295q0 -92 -35.5 -140.5t-97.5 -48.5t-97.5 48.5t-35.5 140.5v295q0 50 -22 74t-59 24q-81 0 -81 -98v-308q0 -155 80 -241q81 -85 215 -85q135 0 214 85q81 86 81 241v308q0 98 -81 98zM357 35q-93 0 -161 68q-68 70 -68 185v340 q0 15 12 15q11 0 11 -15v-340q1 -110 62 -170q61 -61 145 -61q85 0 142 61q56 61 58 169v341q0 15 11 15q12 0 12 -15v-340q0 -119 -64 -186q-63 -67 -160 -67zM397 797q-5 -7 -13 -1l-100 62q-12 7 -5 16q5 8 13 3l99 -66q8 -4 6 -14zM409 748q24 9 32.5 28t-0.5 42 q-4 16 -30 36l-81 60q-32 24 -64 11q-26 -8 -37 -30t-4 -47q11 -25 44 -45l80 -44q34 -19 60 -11z" />
<glyph unicode="&#xda;" horiz-adv-x="708" d="M568 711q-37 0 -59 -24t-22 -74v-295q0 -92 -35.5 -140.5t-97.5 -48.5t-97.5 48.5t-35.5 140.5v295q0 50 -22 74t-59 24q-81 0 -81 -98v-308q0 -155 80 -241q81 -85 215 -85q135 0 214 85q81 86 81 241v308q0 98 -81 98zM357 35q-93 0 -161 68q-68 70 -68 185v340 q0 15 12 15q11 0 11 -15v-340q1 -110 62 -170q61 -61 145 -61q85 0 142 61q56 61 58 169v341q0 15 11 15q12 0 12 -15v-340q0 -119 -64 -186q-63 -67 -160 -67zM296 797q-6 8 6 14l99 66q8 5 13 -3q6 -10 -5 -16l-100 -62q-8 -6 -13 1zM278 748q27 -8 60 11l80 44 q37 22 44 45q7 25 -4 47t-37 30q-31 13 -64 -11l-81 -60q-25 -18 -30 -36q-9 -23 -0.5 -42t32.5 -28z" />
<glyph unicode="&#xdb;" horiz-adv-x="708" d="M568 711q-37 0 -59 -24t-22 -74v-295q0 -92 -35.5 -140.5t-97.5 -48.5t-97.5 48.5t-35.5 140.5v295q0 50 -22 74t-59 24q-81 0 -81 -98v-308q0 -155 80 -241q81 -85 215 -85q135 0 214 85q81 86 81 241v308q0 98 -81 98zM357 35q-93 0 -161 68q-68 70 -68 185v340 q0 15 12 15q11 0 11 -15v-340q1 -110 62 -170q61 -61 145 -61q85 0 142 61q56 61 58 169v341q0 15 11 15q12 0 12 -15v-340q0 -119 -64 -186q-63 -67 -160 -67zM354 866l-83 -78q-10 -7 -16 0q-4 6 3 13l90 84l6 2l7 -2l88 -82q9 -7 3 -14q-7 -7 -17 1zM354 817l57 -56 q36 -35 71 1q15 12 14.5 33t-18.5 38l-87 81q-17 17 -37 17q-22 -2 -37 -17l-88 -82q-34 -34 -4 -71q36 -36 72 -1z" />
<glyph unicode="&#xdc;" horiz-adv-x="708" d="M568 711q-37 0 -59 -24t-22 -74v-295q0 -92 -35.5 -140.5t-97.5 -48.5t-97.5 48.5t-35.5 140.5v295q0 50 -22 74t-59 24q-81 0 -81 -98v-308q0 -155 80 -241q81 -85 215 -85q135 0 214 85q81 86 81 241v308q0 98 -81 98zM357 35q-93 0 -161 68q-68 70 -68 185v340 q0 15 12 15q11 0 11 -15v-340q1 -110 62 -170q61 -61 145 -61q85 0 142 61q56 61 58 169v341q0 15 11 15q12 0 12 -15v-340q0 -119 -64 -186q-63 -67 -160 -67zM329 820q0 30 -19 51.5t-50 21.5t-50.5 -21.5t-19.5 -51.5t19.5 -51t50.5 -21t50 21t19 51zM518 820 q0 31 -19 52t-51 21q-31 0 -50.5 -21.5t-19.5 -51.5t19.5 -51t50.5 -21q32 0 51 21t19 51zM240 820q0 9 6 14.5t14 5.5q19 0 19 -20t-19 -20q-8 0 -14 6t-6 14zM430 820q0 9 6 14.5t13 5.5q20 0 20 -20q0 -8 -5.5 -14t-14.5 -6q-7 0 -13 6t-6 14z" />
<glyph unicode="&#xdd;" horiz-adv-x="646" d="M323 301l221 345q8 11 19 2q11 -7 1 -20l-228 -348v-197q0 -15 -12 -15q-6 0 -9 4t-3 11v197l-229 349q-10 14 1 21q13 8 20 -4zM323 414l-154 254q-29 40 -63 46.5t-60 -17.5q-63 -48 -7 -127l203 -316v-156q0 -50 22 -74t59 -24t59 24t22 74v156l203 316q57 79 -6 127 q-26 24 -60 17.5t-63 -46.5zM266 797q-6 8 6 14l99 66q8 5 13 -3q6 -10 -5 -16l-100 -62q-8 -6 -13 1zM248 748q27 -8 60 11l80 44q37 22 44 45q7 25 -4 47t-37 30q-31 13 -64 -11l-81 -60q-25 -18 -30 -36q-9 -23 -0.5 -42t32.5 -28z" />
<glyph unicode="&#xde;" horiz-adv-x="548" d="M154 194v-111q0 -15 -13 -15t-13 15v545q0 15 12 15q11 0 11 -15v-93h92q98 0 150.5 -44.5t52.5 -125.5q0 -76 -53 -123.5t-152 -47.5h-87zM151 512l3 -294h87q90 1 136 42.5t46 105.5q0 68 -45.5 106.5t-134.5 39.5h-92zM221 278v169h50q38 0 60 -23t22 -62 q0 -36 -23 -60t-59 -24h-50zM221 132h41q117 0 181 64q66 64 66 166q0 104 -70 168q-71 65 -191 65h-27v26q0 41 -22 65.5t-59 24.5q-38 0 -59.5 -25t-21.5 -65v-521q0 -48 21.5 -74t59.5 -26t59.5 26t21.5 74v32z" />
<glyph unicode="&#xdf;" horiz-adv-x="1067" d="M333 205q0 -32 -23.5 -52.5t-66.5 -20.5q-39 0 -77 20q-38 21 -57 21q-35 0 -57.5 -22.5t-22.5 -55.5q0 -47 58 -81t153 -34q113 0 187 62t74 168q0 87 -47 134q-46 46 -158 88q-95 35 -95 83q0 32 21 49t58 17t62 -16t46 -16q34 0 53 20t19 56q0 46 -50.5 75t-133.5 29 q-106 0 -174 -58q-69 -59 -69 -156q0 -77 46 -127.5t140 -84.5q67 -24 90 -42q24 -18 24 -56zM403 629q0 -11 -9 -11q-4 0 -12 6q-44 27 -97 27q-69 0 -116 -35t-47 -97q2 -102 153 -145q94 -32 124.5 -71t30.5 -98q0 -77 -52 -120.5t-130 -43.5q-66 0 -122 25 q-32 14 -32 30q0 6 4.5 8.5t11.5 -0.5q2 0 5 -2t9.5 -6l12.5 -8q45 -26 110 -26q70 0 112 37q47 42 47 103v2q0 64 -34 94q-16 16 -48 31q-27 14 -52 23q-80 29 -115 55q-62 46 -58 112q0 69 53 111.5t129 42.5q34 0 64 -9t44 -19t14 -16zM860 205q0 -32 -23.5 -52.5 t-66.5 -20.5q-39 0 -77 20q-37 21 -57 21q-36 0 -58 -22.5t-22 -55.5q0 -47 58 -81t153 -34q113 0 187 62t74 168q0 87 -47 134q-46 46 -158 88q-95 35 -95 83q0 32 21 49t58 17t62 -16t46 -16q34 0 53 20t19 56q0 46 -50.5 75t-133.5 29q-106 0 -174 -58q-69 -59 -69 -156 q0 -77 46 -127.5t140 -84.5q68 -24 90 -42q24 -18 24 -56zM930 629q0 -11 -9 -11q-5 0 -12 6q-43 27 -97 27q-69 0 -116 -35t-47 -97q2 -102 153 -145q94 -32 124.5 -71t30.5 -98q0 -77 -52 -120.5t-130 -43.5q-66 0 -122 25q-32 14 -32 30q0 6 4.5 8.5t11.5 -0.5q2 0 5 -2 t9.5 -6l12.5 -8q46 -26 110 -26q70 0 112 37q47 42 47 103v2q0 64 -34 94q-16 16 -48 31q-27 14 -52 23q-80 29 -115 55q-62 46 -58 112q0 69 53 111.5t129 42.5q34 0 64 -9t44 -19t14 -16z" />
<glyph unicode="&#xe0;" horiz-adv-x="656" d="M146 189l-46 -124q-6 -14 -17 -9q-11 6 -5 19l205 536q17 35 56 35q41 0 56 -35l196 -536q6 -13 -5 -19q-11 -5 -17 9l-46 124h-377zM155 213h360l-143 391q-9 19 -33 19q-23 0 -32 -19zM338 515l86 -240h-177zM198 132h273l21 -65q24 -79 85 -79q35 0 57.5 21.5 t22.5 54.5q0 16 -11 52l-185 503q-34 94 -119 94q-88 0 -129 -105l-195 -495q-8 -21 -8 -47q0 -33 26 -55.5t62 -22.5q27 0 46 19t31 55zM381 795q-5 -7 -13 -1l-100 62q-12 7 -5 16q5 8 13 3l99 -66q8 -4 6 -14zM393 746q24 9 32.5 28t-0.5 42q-4 16 -30 36l-81 60 q-32 24 -64 11q-26 -8 -37 -30t-4 -47q11 -25 44 -45l80 -44q34 -19 60 -11z" />
<glyph unicode="&#xe1;" horiz-adv-x="656" d="M146 189l-46 -124q-6 -14 -17 -9q-11 6 -5 19l205 536q17 35 56 35q41 0 56 -35l196 -536q6 -13 -5 -19q-11 -5 -17 9l-46 124h-377zM155 213h360l-143 391q-9 19 -33 19q-23 0 -32 -19zM338 515l86 -240h-177zM198 132h273l21 -65q24 -79 85 -79q35 0 57.5 21.5 t22.5 54.5q0 16 -11 52l-185 503q-34 94 -119 94q-88 0 -129 -105l-195 -495q-8 -21 -8 -47q0 -33 26 -55.5t62 -22.5q27 0 46 19t31 55zM291 795q-6 8 6 14l99 66q8 5 13 -3q6 -10 -5 -16l-100 -62q-8 -6 -13 1zM273 746q27 -8 60 11l80 44q37 22 44 45q7 25 -4 47t-37 30 q-31 13 -64 -11l-81 -60q-25 -18 -30 -36q-9 -23 -0.5 -42t32.5 -28z" />
<glyph unicode="&#xe2;" horiz-adv-x="656" d="M146 189l-46 -124q-6 -14 -17 -9q-11 6 -5 19l205 536q17 35 56 35q41 0 56 -35l196 -536q6 -13 -5 -19q-11 -5 -17 9l-46 124h-377zM155 213h360l-143 391q-9 19 -33 19q-23 0 -32 -19zM338 515l86 -240h-177zM198 132h273l21 -65q24 -79 85 -79q35 0 57.5 21.5 t22.5 54.5q0 16 -11 52l-185 503q-34 94 -119 94q-88 0 -129 -105l-195 -495q-8 -21 -8 -47q0 -33 26 -55.5t62 -22.5q27 0 46 19t31 55zM338 855l-83 -78q-10 -7 -16 0q-4 6 3 13l90 84l6 2l7 -2l88 -82q9 -7 3 -14q-7 -7 -17 1zM338 806l57 -56q36 -35 71 1q15 12 14.5 33 t-18.5 38l-87 81q-17 17 -37 17q-22 -2 -37 -17l-88 -82q-34 -34 -4 -71q36 -36 72 -1z" />
<glyph unicode="&#xe3;" horiz-adv-x="656" d="M146 189l-46 -124q-6 -14 -17 -9q-11 6 -5 19l205 536q17 35 56 35q41 0 56 -35l196 -536q6 -13 -5 -19q-11 -5 -17 9l-46 124h-377zM155 213h360l-143 391q-9 19 -33 19q-23 0 -32 -19zM338 515l86 -240h-177zM198 132h273l21 -65q24 -79 85 -79q35 0 57.5 21.5 t22.5 54.5q0 16 -11 52l-185 503q-34 94 -119 94q-88 0 -129 -105l-195 -495q-8 -21 -8 -47q0 -33 26 -55.5t62 -22.5q27 0 46 19t31 55zM243 811q11 14 21.5 22t22 8t17.5 -1t19 -6.5t15 -6.5t11.5 -5l12 -5t11 -3.5t12 -2.5t10 0.5t11 3t9.5 7.5t9 12q8 9 14 8t6 -7.5 t-4 -12.5q-14 -18 -29.5 -24.5t-24.5 -5.5t-25.5 7t-21.5 7q-1 1 -8.5 4.5t-9 4.5t-8 3.5t-8.5 3t-7.5 1.5t-8.5 0l-7.5 -2.5t-8 -4.5t-7.5 -7t-8 -10q-6 -9 -12 -8t-6.5 7.5t3.5 12.5zM241 748q12 0 30.5 8.5t32.5 8.5q17 0 46 -10q30 -9 47 -9q35 0 59.5 25t24.5 62 q0 24 -12 39t-32 15q-13 0 -32 -9t-31 -9q-14 0 -46 9q-29 10 -47 10q-36 0 -60 -25t-24 -63q0 -24 11.5 -38t32.5 -14z" />
<glyph unicode="&#xe4;" horiz-adv-x="656" d="M146 189l-46 -124q-6 -14 -17 -9q-11 6 -5 19l205 536q17 35 56 35q41 0 56 -35l196 -536q6 -13 -5 -19q-11 -5 -17 9l-46 124h-377zM155 213h360l-143 391q-9 19 -33 19q-23 0 -32 -19zM338 515l86 -240h-177zM198 132h273l21 -65q24 -79 85 -79q35 0 57.5 21.5 t22.5 54.5q0 16 -11 52l-185 503q-34 94 -119 94q-88 0 -129 -105l-195 -495q-8 -21 -8 -47q0 -33 26 -55.5t62 -22.5q27 0 46 19t31 55zM313 810q0 30 -19 51.5t-50 21.5t-50.5 -21.5t-19.5 -51.5t19.5 -51t50.5 -21t50 21t19 51zM502 810q0 31 -19 52t-51 21 q-31 0 -50.5 -21.5t-19.5 -51.5t19.5 -51t50.5 -21q32 0 51 21t19 51zM224 810q0 9 6 14.5t14 5.5q19 0 19 -20t-19 -20q-8 0 -14 6t-6 14zM414 810q0 9 6 14.5t13 5.5q20 0 20 -20q0 -8 -5.5 -14t-14.5 -6q-7 0 -13 6t-6 14z" />
<glyph unicode="&#xe5;" horiz-adv-x="656" d="M146 189l-46 -124q-6 -14 -17 -9q-11 6 -5 19l205 536q17 35 56 35q41 0 56 -35l196 -536q6 -13 -5 -19q-11 -5 -17 9l-46 124h-377zM155 213h360l-143 391q-9 19 -33 19q-23 0 -32 -19zM338 515l86 -240h-177zM198 132h273l21 -65q24 -79 85 -79q35 0 57.5 21.5 t22.5 54.5q0 16 -11 52l-185 503q-34 94 -119 94q-88 0 -129 -105l-195 -495q-8 -21 -8 -47q0 -33 26 -55.5t62 -22.5q27 0 46 19t31 55zM252 826q0 -34 25.5 -59.5t60.5 -25.5t60.5 25.5t25.5 59.5q0 36 -25.5 61.5t-60.5 25.5q-34 0 -60 -25.5t-26 -61.5zM285 826 q0 22 15.5 38.5t37.5 16.5t38 -16.5t16 -38.5t-16 -37.5t-38 -15.5t-37.5 15.5t-15.5 37.5z" />
<glyph unicode="&#xe6;" horiz-adv-x="1030" d="M563 143l28 -68q6 -13 -5 -19q-11 -5 -17 9l-46 124h-377l-46 -124q-6 -14 -17 -9q-11 6 -5 19l205 536q17 35 56 35q41 0 56 -35l89 -252l13 -37l-6 34q0 124 78 213q78 88 195 88q92 0 148 -43q9 -8 9 -12q0 -10 -7 -11.5t-15 6.5q-49 39 -136 39q-109 0 -179 -82 q-66 -78 -70 -189h268q14 0 14 -11q0 -10 -14 -10h-268q2 -51 12 -93l12 -31q16 -38 46 -72q71 -77 178 -77q91 0 149 44q7 6 12 6q10 -1 10 -12q0 -5 -9 -11q-62 -48 -160 -48q-117 -4 -201 93zM155 213h360l-143 391q-9 19 -33 19q-23 0 -32 -19zM338 515l86 -240h-177z M483 563l-22 56q-34 94 -119 94q-88 0 -129 -105l-195 -495q-8 -21 -8 -47q0 -33 26 -55.5t62 -22.5q27 0 46 19t31 55l23 70h273l21 -65q24 -79 85 -79q32 0 54 25q61 -33 138 -33q88 0 154 36q66 37 68 88q0 32 -19 56.5t-47 25.5t-66 -23q-38 -23 -89 -23q-71 0 -120 44 q-46 45 -57 99h191q73 0 73 71q0 69 -73 69h-190q10 53 55 97q45 46 121 46q52 0 89 -24q39 -23 66 -22q29 1 47.5 25.5t18.5 57.5q-2 51 -68 86q-65 37 -154 37q-153 0 -252 -106q-24 -27 -34 -57z" />
<glyph unicode="&#xe7;" horiz-adv-x="651" d="M490 -6q27 8 55 23q65 36 67 87q0 32 -19 56.5t-46 25.5t-67 -23q-38 -23 -89 -23q-85 0 -135 59q-50 61 -50 152q0 96 50 155q51 60 135 60q51 0 89 -24q41 -23 67 -22q27 1 46 25.5t19 57.5q-2 50 -67 86q-65 37 -155 37q-153 0 -252 -105t-99 -270q0 -159 99 -265 q90 -94 222 -105q9 -9 12 -19q4 -18 -10 -28.5t-41 -8.5q-12 0 -33 4q-24 3 -35 3q-27 0 -42.5 -13t-15.5 -34q0 -35 35.5 -55.5t96.5 -20.5q80 0 128.5 32t50.5 85q0 42 -16 68zM548 121q10 -1 10 -12q0 -5 -9 -11q-61 -48 -160 -48q-118 0 -196 82q-77 83 -77 219 q0 132 78 219t195 87q92 0 148 -43q9 -8 9 -12q0 -10 -7 -11.5t-15 6.5q-50 39 -136 39q-109 0 -179 -82q-70 -80 -70 -204q0 -125 70 -202q71 -77 178 -77q91 0 149 44q8 6 12 6zM249 -135q-13 8 -8 17.5t18 2.5q55 -20 110 -7q50 10 62 39q23 45 -17 73q-12 3 -16 14 q-3 9 10 10h5q32 -9 42.5 -35.5t4.5 -50.5t-17 -36q-16 -20 -49 -31q-59 -20 -145 4z" />
<glyph unicode="&#xe8;" horiz-adv-x="651" d="M139 344q1 -118 70 -196q71 -77 178 -77q91 0 149 44q8 6 12 6q10 -1 10 -12q0 -5 -9 -11q-61 -48 -160 -48q-118 0 -196 82q-77 83 -77 219q0 132 78 219t195 87q92 0 148 -43q9 -8 9 -12q0 -10 -7 -11.5t-15 6.5q-50 39 -136 39q-109 0 -179 -82q-66 -78 -70 -189h268 q14 0 14 -11q0 -10 -14 -10h-268zM213 283h190q74 0 74 71q0 69 -74 69h-190q12 49 41 84q53 59 137 59q51 0 89 -24q41 -23 67 -22q27 1 46 25.5t19 57.5q-2 50 -67 86q-65 37 -155 37q-153 0 -252 -105t-99 -270q0 -159 99 -265t252 -106q89 0 155 36q66 37 67 88 q0 32 -19 56.5t-46 25.5t-67 -23q-38 -23 -89 -23q-80 0 -137 59q-34 38 -41 84zM408 805q-5 -7 -13 -1l-100 62q-12 7 -5 16q5 8 13 3l99 -66q8 -4 6 -14zM420 756q24 9 32.5 28t-0.5 42q-4 16 -30 36l-81 60q-32 24 -64 11q-26 -8 -37 -30t-4 -47q11 -25 44 -45l80 -44 q34 -19 60 -11z" />
<glyph unicode="&#xe9;" horiz-adv-x="651" d="M139 344q1 -118 70 -196q71 -77 178 -77q91 0 149 44q8 6 12 6q10 -1 10 -12q0 -5 -9 -11q-61 -48 -160 -48q-118 0 -196 82q-77 83 -77 219q0 132 78 219t195 87q92 0 148 -43q9 -8 9 -12q0 -10 -7 -11.5t-15 6.5q-50 39 -136 39q-109 0 -179 -82q-66 -78 -70 -189h268 q14 0 14 -11q0 -10 -14 -10h-268zM213 283h190q74 0 74 71q0 69 -74 69h-190q12 49 41 84q53 59 137 59q51 0 89 -24q41 -23 67 -22q27 1 46 25.5t19 57.5q-2 50 -67 86q-65 37 -155 37q-153 0 -252 -105t-99 -270q0 -159 99 -265t252 -106q89 0 155 36q66 37 67 88 q0 32 -19 56.5t-46 25.5t-67 -23q-38 -23 -89 -23q-80 0 -137 59q-34 38 -41 84zM297 805q-6 8 6 14l99 66q8 5 13 -3q6 -10 -5 -16l-100 -62q-8 -6 -13 1zM279 756q27 -8 60 11l80 44q37 22 44 45q7 25 -4 47t-37 30q-31 13 -64 -11l-81 -60q-25 -18 -30 -36 q-9 -23 -0.5 -42t32.5 -28z" />
<glyph unicode="&#xea;" horiz-adv-x="651" d="M139 344q1 -118 70 -196q71 -77 178 -77q91 0 149 44q8 6 12 6q10 -1 10 -12q0 -5 -9 -11q-61 -48 -160 -48q-118 0 -196 82q-77 83 -77 219q0 132 78 219t195 87q92 0 148 -43q9 -8 9 -12q0 -10 -7 -11.5t-15 6.5q-50 39 -136 39q-109 0 -179 -82q-66 -78 -70 -189h268 q14 0 14 -11q0 -10 -14 -10h-268zM213 283h190q74 0 74 71q0 69 -74 69h-190q12 49 41 84q53 59 137 59q51 0 89 -24q41 -23 67 -22q27 1 46 25.5t19 57.5q-2 50 -67 86q-65 37 -155 37q-153 0 -252 -105t-99 -270q0 -159 99 -265t252 -106q89 0 155 36q66 37 67 88 q0 32 -19 56.5t-46 25.5t-67 -23q-38 -23 -89 -23q-80 0 -137 59q-34 38 -41 84zM367 874l-83 -78q-10 -7 -16 0q-4 6 3 13l90 84l6 2l7 -2l88 -82q9 -7 3 -14q-7 -7 -17 1zM367 825l57 -56q36 -35 71 1q15 12 14.5 33t-18.5 38l-87 81q-17 17 -37 17q-22 -2 -37 -17 l-88 -82q-34 -34 -4 -71q36 -36 72 -1z" />
<glyph unicode="&#xeb;" horiz-adv-x="651" d="M139 344q1 -118 70 -196q71 -77 178 -77q91 0 149 44q8 6 12 6q10 -1 10 -12q0 -5 -9 -11q-61 -48 -160 -48q-118 0 -196 82q-77 83 -77 219q0 132 78 219t195 87q92 0 148 -43q9 -8 9 -12q0 -10 -7 -11.5t-15 6.5q-50 39 -136 39q-109 0 -179 -82q-66 -78 -70 -189h268 q14 0 14 -11q0 -10 -14 -10h-268zM213 283h190q74 0 74 71q0 69 -74 69h-190q12 49 41 84q53 59 137 59q51 0 89 -24q41 -23 67 -22q27 1 46 25.5t19 57.5q-2 50 -67 86q-65 37 -155 37q-153 0 -252 -105t-99 -270q0 -159 99 -265t252 -106q89 0 155 36q66 37 67 88 q0 32 -19 56.5t-46 25.5t-67 -23q-38 -23 -89 -23q-80 0 -137 59q-34 38 -41 84zM335 828q0 30 -19 51.5t-50 21.5t-50.5 -21.5t-19.5 -51.5t19.5 -51t50.5 -21t50 21t19 51zM524 828q0 31 -19 52t-51 21q-31 0 -50.5 -21.5t-19.5 -51.5t19.5 -51t50.5 -21q32 0 51 21t19 51 zM246 828q0 9 6 14.5t14 5.5q19 0 19 -20t-19 -20q-8 0 -14 6t-6 14zM436 828q0 9 6 14.5t13 5.5q20 0 20 -20q0 -8 -5.5 -14t-14.5 -6q-7 0 -13 6t-6 14z" />
<glyph unicode="&#xec;" horiz-adv-x="279" d="M140 711q-81 0 -81 -107v-506q0 -98 81 -98q37 0 59 24t22 74v515q0 50 -22 74t-59 24zM140 68q-12 0 -12 15v555q0 14 12 14q11 0 11 -14v-555q0 -15 -11 -15zM193 795q-5 -7 -13 -1l-100 62q-12 7 -5 16q5 8 13 3l99 -66q8 -4 6 -14zM205 746q24 9 32.5 28t-0.5 42 q-4 16 -30 36l-81 60q-32 24 -64 11q-26 -8 -37 -30t-4 -47q11 -25 44 -45l80 -44q34 -19 60 -11z" />
<glyph unicode="&#xed;" horiz-adv-x="279" d="M140 711q-81 0 -81 -107v-506q0 -98 81 -98q37 0 59 24t22 74v515q0 50 -22 74t-59 24zM140 68q-12 0 -12 15v555q0 14 12 14q11 0 11 -14v-555q0 -15 -11 -15zM92 795q-6 8 6 14l99 66q8 5 13 -3q6 -10 -5 -16l-100 -62q-8 -6 -13 1zM74 746q27 -8 60 11l80 44 q37 22 44 45q7 25 -4 47t-37 30q-31 13 -64 -11l-81 -60q-25 -18 -30 -36q-9 -23 -0.5 -42t32.5 -28z" />
<glyph unicode="&#xee;" horiz-adv-x="279" d="M140 711q-81 0 -81 -107v-506q0 -98 81 -98q37 0 59 24t22 74v515q0 50 -22 74t-59 24zM140 68q-12 0 -12 15v555q0 14 12 14q11 0 11 -14v-555q0 -15 -11 -15zM140 866l-83 -78q-10 -7 -16 0q-4 6 3 13l90 84l6 2l7 -2l88 -82q9 -7 3 -14q-7 -7 -17 1zM140 817l57 -56 q36 -35 71 1q15 12 14.5 33t-18.5 38l-87 81q-17 17 -37 17q-22 -2 -37 -17l-88 -82q-34 -34 -4 -71q36 -36 72 -1z" />
<glyph unicode="&#xef;" horiz-adv-x="279" d="M140 711q-81 0 -81 -107v-506q0 -98 81 -98q37 0 59 24t22 74v515q0 50 -22 74t-59 24zM140 68q-12 0 -12 15v555q0 14 12 14q11 0 11 -14v-555q0 -15 -11 -15zM115 820q0 30 -19 51.5t-50 21.5t-50.5 -21.5t-19.5 -51.5t19.5 -51t50.5 -21t50 21t19 51zM304 820 q0 31 -19 52t-51 21q-31 0 -50.5 -21.5t-19.5 -51.5t19.5 -51t50.5 -21q32 0 51 21t19 51zM26 820q0 9 6 14.5t14 5.5q19 0 19 -20t-19 -20q-8 0 -14 6t-6 14zM216 820q0 9 6 14.5t13 5.5q20 0 20 -20q0 -8 -5.5 -14t-14.5 -6q-7 0 -13 6t-6 14z" />
<glyph unicode="&#xf0;" horiz-adv-x="681" d="M53 344q-14 0 -14 10q0 13 14 13h85v265q0 14 11 14h91q188 0 261 -87q74 -88 74 -214q0 -114 -73 -197q-72 -84 -262 -84h-91q-11 0 -11 15v265h-85zM161 344v-258h81q178 0 244 78q67 79 67 180q0 117 -67 199t-245 82h-80v-258h124q14 0 14 -13q0 -10 -14 -10h-124z M226 297h58q28 0 44 15t16 42q0 28 -16 43.5t-43 15.5h-59v149h45q203 0 203 -219q0 -192 -206 -192h-42v146zM132 0h118q210 0 305 95q96 96 94 249q-5 167 -103 267q-99 100 -280 100h-134q-35 0 -52 -14t-17 -54v-230h-11q-26 0 -43 -15t-17 -43q0 -26 17.5 -42t41.5 -16 h12v-229q0 -40 17 -54t52 -14z" />
<glyph unicode="&#xf1;" horiz-adv-x="690" d="M220 571h133q111 0 111 -102v-371q0 -50 22 -74t59 -24t59 24t22 74v371q-6 114 -74.5 178t-196.5 64h-219q-40 0 -59 -14t-19 -54v-545q0 -98 81 -98q37 0 59 24t22 74v473zM150 629v-546q0 -15 -11 -15q-12 0 -12 15v555q0 14 12 14h214q99 0 151.5 -48t52.5 -136v-385 q0 -15 -12 -15t-12 15v386q0 77 -45 118t-135 42h-203zM242 802q11 14 21.5 22t22 8t17.5 -1t19 -6.5t15 -6.5t11.5 -5l12 -5t11 -3.5t12 -2.5t10 0.5t11 3t9.5 7.5t9 12q8 9 14 8t6 -7.5t-4 -12.5q-14 -18 -29.5 -24.5t-24.5 -5.5t-25.5 7t-21.5 7q-1 1 -8.5 4.5t-9 4.5 t-8 3.5t-8.5 3t-7.5 1.5t-8.5 0l-7.5 -2.5t-8 -4.5t-7.5 -7t-8 -10q-6 -9 -12 -8t-6.5 7.5t3.5 12.5zM240 739q12 0 30.5 8.5t32.5 8.5q17 0 46 -10q30 -9 47 -9q35 0 59.5 25t24.5 62q0 24 -12 39t-32 15q-12 0 -31 -9t-32 -9q-15 0 -46 9q-29 10 -47 10q-36 0 -60 -25 t-24 -63q0 -24 11.5 -38t32.5 -14z" />
<glyph unicode="&#xf2;" d="M471 803q-5 -7 -13 -1l-100 62q-12 7 -5 16q5 8 13 3l99 -66q8 -4 6 -14zM483 754q24 9 32.5 28t-0.5 42q-4 16 -30 36l-81 60q-32 24 -64 11q-26 -8 -37 -30t-4 -47q11 -25 44 -45l80 -44q34 -19 60 -11zM408 144q-88 0 -143 58q-54 58 -54 153t54 154q55 58 143 58 t142 -58q55 -58 55 -154q0 -95 -55 -153q-54 -58 -142 -58zM408 -17q157 0 263 103t106 268q0 164 -107 268t-262 104q-156 0 -263 -104q-106 -103 -106 -268t106 -268t263 -103zM410 50q-131 0 -217 85q-86 86 -86 220q0 133 87 218q89 86 216 86t216 -86q88 -85 88 -218 q0 -135 -88 -220q-86 -85 -216 -85zM408 71q118 0 201 78q82 79 82 205q0 124 -81 204q-82 80 -201 80t-199 -80t-80 -204t80 -204q79 -79 198 -79z" />
<glyph unicode="&#xf3;" d="M362 803q-6 8 6 14l99 66q8 5 13 -3q6 -10 -5 -16l-100 -62q-8 -6 -13 1zM344 754q27 -8 60 11l80 44q37 22 44 45q7 25 -4 47t-37 30q-31 13 -64 -11l-81 -60q-25 -18 -30 -36q-9 -23 -0.5 -42t32.5 -28zM408 144q-88 0 -143 58q-54 58 -54 153t54 154q55 58 143 58 t142 -58q55 -58 55 -154q0 -95 -55 -153q-54 -58 -142 -58zM408 -17q157 0 263 103t106 268q0 164 -107 268t-262 104q-156 0 -263 -104q-106 -103 -106 -268t106 -268t263 -103zM410 50q-131 0 -217 85q-86 86 -86 220q0 133 87 218q89 86 216 86t216 -86q88 -85 88 -218 q0 -135 -88 -220q-86 -85 -216 -85zM408 71q118 0 201 78q82 79 82 205q0 124 -81 204q-82 80 -201 80t-199 -80t-80 -204t80 -204q79 -79 198 -79z" />
<glyph unicode="&#xf4;" d="M408 871l-83 -78q-10 -7 -16 0q-4 6 3 13l90 84l6 2l7 -2l88 -82q9 -7 3 -14q-7 -7 -17 1zM408 822l57 -56q36 -35 71 1q15 12 14.5 33t-18.5 38l-87 81q-17 17 -37 17q-22 -2 -37 -17l-88 -82q-34 -34 -4 -71q36 -36 72 -1zM408 144q-88 0 -143 58q-54 58 -54 153 t54 154q55 58 143 58t142 -58q55 -58 55 -154q0 -95 -55 -153q-54 -58 -142 -58zM408 -17q157 0 263 103t106 268q0 164 -107 268t-262 104q-156 0 -263 -104q-106 -103 -106 -268t106 -268t263 -103zM410 50q-131 0 -217 85q-86 86 -86 220q0 133 87 218q89 86 216 86 t216 -86q88 -85 88 -218q0 -135 -88 -220q-86 -85 -216 -85zM408 71q118 0 201 78q82 79 82 205q0 124 -81 204q-82 80 -201 80t-199 -80t-80 -204t80 -204q79 -79 198 -79z" />
<glyph unicode="&#xf5;" d="M312 817q11 14 21.5 22t22 8t17.5 -1t19 -6.5t15 -6.5t11.5 -5l12 -5t11 -3.5t12 -2.5t10 0.5t11 3t9.5 7.5t9 12q8 9 14 8t6 -7.5t-4 -12.5q-14 -18 -29.5 -24.5t-24.5 -5.5t-25.5 7t-21.5 7q-1 1 -8.5 4.5t-9 4.5t-8 3.5t-8.5 3t-7.5 1.5t-8.5 0l-7.5 -2.5t-8 -4.5 t-7.5 -7t-8 -10q-6 -9 -12 -8t-6.5 7.5t3.5 12.5zM310 754q12 0 30.5 8.5t32.5 8.5q17 0 46 -10q30 -9 47 -9q35 0 59.5 25t24.5 62q0 24 -12 39t-32 15q-12 0 -31 -9t-32 -9q-15 0 -46 9q-29 10 -47 10q-36 0 -60 -25t-24 -63q0 -24 11.5 -38t32.5 -14zM408 144 q-88 0 -143 58q-54 58 -54 153t54 154q55 58 143 58t142 -58q55 -58 55 -154q0 -95 -55 -153q-54 -58 -142 -58zM408 -17q157 0 263 103t106 268q0 164 -107 268t-262 104q-156 0 -263 -104q-106 -103 -106 -268t106 -268t263 -103zM410 50q-131 0 -217 85q-86 86 -86 220 q0 133 87 218q89 86 216 86t216 -86q88 -85 88 -218q0 -135 -88 -220q-86 -85 -216 -85zM408 71q118 0 201 78q82 79 82 205q0 124 -81 204q-82 80 -201 80t-199 -80t-80 -204t80 -204q79 -79 198 -79z" />
<glyph unicode="&#xf6;" d="M384 820q0 30 -19 51.5t-50 21.5t-50.5 -21.5t-19.5 -51.5t19.5 -51t50.5 -21t50 21t19 51zM573 820q0 31 -19 52t-51 21q-31 0 -50.5 -21.5t-19.5 -51.5t19.5 -51t50.5 -21q32 0 51 21t19 51zM295 820q0 9 6 14.5t14 5.5q19 0 19 -20t-19 -20q-8 0 -14 6t-6 14zM485 820 q0 9 6 14.5t13 5.5q20 0 20 -20q0 -8 -5.5 -14t-14.5 -6q-7 0 -13 6t-6 14zM408 144q-88 0 -143 58q-54 58 -54 153t54 154q55 58 143 58t142 -58q55 -58 55 -154q0 -95 -55 -153q-54 -58 -142 -58zM408 -17q157 0 263 103t106 268q0 164 -107 268t-262 104 q-156 0 -263 -104q-106 -103 -106 -268t106 -268t263 -103zM410 50q-131 0 -217 85q-86 86 -86 220q0 133 87 218q89 86 216 86t216 -86q88 -85 88 -218q0 -135 -88 -220q-86 -85 -216 -85zM408 71q118 0 201 78q82 79 82 205q0 124 -81 204q-82 80 -201 80t-199 -80 t-80 -204t80 -204q79 -79 198 -79z" />
<glyph unicode="&#xf7;" horiz-adv-x="629" d="M314 205q-34 0 -57.5 -23.5t-23.5 -57.5q0 -32 23.5 -55t57.5 -23q33 0 57 23.5t24 54.5q0 33 -24 57t-57 24zM314 666q-34 0 -57.5 -23.5t-23.5 -57.5q0 -32 23.5 -55t57.5 -23q33 0 57 23.5t24 54.5q0 33 -24 57t-57 24zM39 356q0 -70 74 -70h404q73 0 73 71 q0 69 -73 69h-404q-74 0 -74 -70zM112 345q-13 0 -13 10q0 13 13 13h402q13 0 13 -13q0 -10 -13 -10h-402zM294 587q0 9 6.5 14.5t13.5 5.5q21 0 21 -20q0 -8 -6 -14.5t-15 -6.5q-7 0 -13.5 6.5t-6.5 14.5zM294 124q0 9 6.5 15t13.5 6q9 0 15 -6t6 -15q0 -8 -6 -14t-15 -6 q-7 0 -13.5 6t-6.5 14z" />
<glyph unicode="&#xf8;" d="M237 99l-78 -114q-5 -6 -12 -3q-6 4 -1 14l78 112q-15 11 -31 27q-86 86 -86 220q0 133 87 218q89 86 216 86q97 0 171 -50l65 93q4 10 12 5q5 -5 1 -12l-65 -94q15 -11 32 -28q88 -85 88 -218q0 -135 -88 -220q-86 -85 -216 -85q-99 0 -173 49zM581 582l-330 -465 q67 -46 157 -46q118 0 201 78q82 79 82 205q0 124 -81 204q-12 12 -29 24zM237 127l331 465q-67 46 -159 46q-119 0 -199 -80t-80 -204t80 -204q18 -16 27 -23zM254 221q-38 55 -38 132q0 97 56 158q57 61 136 61q46 0 84 -20zM562 489q39 -55 39 -136q0 -96 -58 -155 q-57 -59 -135 -59q-46 0 -83 19zM231 23q79 -40 177 -40q157 0 263 103t106 268q0 164 -106 267q-7 7 -11 10l22 31q20 37 17 53q-4 18 -18.5 28.5t-34.5 7.5q-24 -6 -45 -43l-17 -23q-79 41 -176 41q-156 0 -263 -104q-106 -103 -106 -268q0 -164 106 -267q1 -1 4 -5t5 -5 l-33 -48q-19 -24 -17 -52q4 -20 19 -30.5t33 -8.5q23 6 46 43z" />
<glyph unicode="&#xf9;" horiz-adv-x="708" d="M397 797q-5 -7 -13 -1l-100 62q-12 7 -5 16q5 8 13 3l99 -66q8 -4 6 -14zM409 748q24 9 32.5 28t-0.5 42q-4 16 -30 36l-81 60q-32 24 -64 11q-26 -8 -37 -30t-4 -47q11 -25 44 -45l80 -44q34 -19 60 -11zM568 711q-37 0 -59 -24t-22 -74v-295q0 -92 -35.5 -140.5 t-97.5 -48.5t-97.5 48.5t-35.5 140.5v295q0 50 -22 74t-59 24q-81 0 -81 -98v-308q0 -155 80 -241q81 -85 215 -85q135 0 214 85q81 86 81 241v308q0 98 -81 98zM357 35q-93 0 -161 68q-68 70 -68 185v340q0 15 12 15q11 0 11 -15v-340q1 -110 62 -170q61 -61 145 -61 q85 0 142 61q56 61 58 169v341q0 15 11 15q12 0 12 -15v-340q0 -119 -64 -186q-63 -67 -160 -67z" />
<glyph unicode="&#xfa;" horiz-adv-x="708" d="M296 797q-6 8 6 14l99 66q8 5 13 -3q6 -10 -5 -16l-100 -62q-8 -6 -13 1zM278 748q27 -8 60 11l80 44q37 22 44 45q7 25 -4 47t-37 30q-31 13 -64 -11l-81 -60q-25 -18 -30 -36q-9 -23 -0.5 -42t32.5 -28zM568 711q-37 0 -59 -24t-22 -74v-295q0 -92 -35.5 -140.5 t-97.5 -48.5t-97.5 48.5t-35.5 140.5v295q0 50 -22 74t-59 24q-81 0 -81 -98v-308q0 -155 80 -241q81 -85 215 -85q135 0 214 85q81 86 81 241v308q0 98 -81 98zM357 35q-93 0 -161 68q-68 70 -68 185v340q0 15 12 15q11 0 11 -15v-340q1 -110 62 -170q61 -61 145 -61 q85 0 142 61q56 61 58 169v341q0 15 11 15q12 0 12 -15v-340q0 -119 -64 -186q-63 -67 -160 -67z" />
<glyph unicode="&#xfb;" horiz-adv-x="708" d="M354 866l-83 -78q-10 -7 -16 0q-4 6 3 13l90 84l6 2l7 -2l88 -82q9 -7 3 -14q-7 -7 -17 1zM354 817l57 -56q36 -35 71 1q15 12 14.5 33t-18.5 38l-87 81q-17 17 -37 17q-22 -2 -37 -17l-88 -82q-34 -34 -4 -71q36 -36 72 -1zM568 711q-37 0 -59 -24t-22 -74v-295 q0 -92 -35.5 -140.5t-97.5 -48.5t-97.5 48.5t-35.5 140.5v295q0 50 -22 74t-59 24q-81 0 -81 -98v-308q0 -155 80 -241q81 -85 215 -85q135 0 214 85q81 86 81 241v308q0 98 -81 98zM357 35q-93 0 -161 68q-68 70 -68 185v340q0 15 12 15q11 0 11 -15v-340q1 -110 62 -170 q61 -61 145 -61q85 0 142 61q56 61 58 169v341q0 15 11 15q12 0 12 -15v-340q0 -119 -64 -186q-63 -67 -160 -67z" />
<glyph unicode="&#xfc;" horiz-adv-x="708" d="M329 820q0 30 -19 51.5t-50 21.5t-50.5 -21.5t-19.5 -51.5t19.5 -51t50.5 -21t50 21t19 51zM518 820q0 31 -19 52t-51 21q-31 0 -50.5 -21.5t-19.5 -51.5t19.5 -51t50.5 -21q32 0 51 21t19 51zM240 820q0 9 6 14.5t14 5.5q19 0 19 -20t-19 -20q-8 0 -14 6t-6 14zM430 820 q0 9 6 14.5t13 5.5q20 0 20 -20q0 -8 -5.5 -14t-14.5 -6q-7 0 -13 6t-6 14zM568 711q-37 0 -59 -24t-22 -74v-295q0 -92 -35.5 -140.5t-97.5 -48.5t-97.5 48.5t-35.5 140.5v295q0 50 -22 74t-59 24q-81 0 -81 -98v-308q0 -155 80 -241q81 -85 215 -85q135 0 214 85 q81 86 81 241v308q0 98 -81 98zM357 35q-93 0 -161 68q-68 70 -68 185v340q0 15 12 15q11 0 11 -15v-340q1 -110 62 -170q61 -61 145 -61q85 0 142 61q56 61 58 169v341q0 15 11 15q12 0 12 -15v-340q0 -119 -64 -186q-63 -67 -160 -67z" />
<glyph unicode="&#xfd;" horiz-adv-x="646" d="M266 797q-6 8 6 14l99 66q8 5 13 -3q6 -10 -5 -16l-100 -62q-8 -6 -13 1zM248 748q27 -8 60 11l80 44q37 22 44 45q7 25 -4 47t-37 30q-31 13 -64 -11l-81 -60q-25 -18 -30 -36q-9 -23 -0.5 -42t32.5 -28zM323 301l221 345q8 11 19 2q11 -7 1 -20l-228 -348v-197 q0 -15 -12 -15q-6 0 -9 4t-3 11v197l-229 349q-10 14 1 21q13 8 20 -4zM323 414l-154 254q-29 40 -63 46.5t-60 -17.5q-63 -48 -7 -127l203 -316v-156q0 -50 22 -74t59 -24t59 24t22 74v156l203 316q57 79 -6 127q-26 24 -60 17.5t-63 -46.5z" />
<glyph unicode="&#xfe;" horiz-adv-x="548" d="M154 194v-111q0 -15 -13 -15t-13 15v545q0 15 12 15q11 0 11 -15v-93h92q98 0 150.5 -44.5t52.5 -125.5q0 -76 -53 -123.5t-152 -47.5h-87zM151 512l3 -294h87q90 1 136 42.5t46 105.5q0 68 -45.5 106.5t-134.5 39.5h-92zM221 278v169h50q38 0 60 -23t22 -62 q0 -36 -23 -60t-59 -24h-50zM221 132h41q117 0 181 64q66 64 66 166q0 104 -70 168q-71 65 -191 65h-27v26q0 41 -22 65.5t-59 24.5q-38 0 -59.5 -25t-21.5 -65v-521q0 -48 21.5 -74t59.5 -26t59.5 26t21.5 74v32z" />
<glyph unicode="&#xff;" horiz-adv-x="646" d="M299 820q0 30 -19 51.5t-50 21.5t-50.5 -21.5t-19.5 -51.5t19.5 -51t50.5 -21t50 21t19 51zM488 820q0 31 -19 52t-51 21q-31 0 -50.5 -21.5t-19.5 -51.5t19.5 -51t50.5 -21q32 0 51 21t19 51zM210 820q0 9 6 14.5t14 5.5q19 0 19 -20t-19 -20q-8 0 -14 6t-6 14zM400 820 q0 9 6 14.5t13 5.5q20 0 20 -20q0 -8 -5.5 -14t-14.5 -6q-7 0 -13 6t-6 14zM323 301l221 345q8 11 19 2q11 -7 1 -20l-228 -348v-197q0 -15 -12 -15q-6 0 -9 4t-3 11v197l-229 349q-10 14 1 21q13 8 20 -4zM323 414l-154 254q-29 40 -63 46.5t-60 -17.5q-63 -48 -7 -127 l203 -316v-156q0 -50 22 -74t59 -24t59 24t22 74v156l203 316q57 79 -6 127q-26 24 -60 17.5t-63 -46.5z" />
<glyph unicode="&#x131;" horiz-adv-x="279" d="M140 711q-81 0 -81 -107v-506q0 -98 81 -98q37 0 59 24t22 74v515q0 50 -22 74t-59 24zM140 68q-12 0 -12 15v555q0 14 12 14q11 0 11 -14v-555q0 -15 -11 -15z" />
<glyph unicode="&#x141;" horiz-adv-x="504" d="M128 288l-19 -13q-5 -5 -11 2q-4 9 4 15l26 18v328q0 13 12 13q11 0 11 -13v-312l27 19q7 4 12 -2q5 -8 -4 -15l-35 -24v-218h251q14 0 14 -11q0 -13 -14 -13h-262q-6 0 -9 3t-3 10v213zM59 214v-116q0 -52 22.5 -75t74.5 -23h240q79 0 79 75q0 74 -79 74h-175v163 l105 64q24 18 24 42q0 17 -9 27t-24 10q-20 0 -34 -11l-62 -38v206q0 50 -22 74t-59 24q-81 0 -81 -98v-303l-37 -22q-24 -17 -24 -42q0 -16 10 -27t23 -11q8 0 17 3q2 1 6 2.5t5 1.5z" />
<glyph unicode="&#x142;" horiz-adv-x="504" d="M128 288l-19 -13q-5 -5 -11 2q-4 9 4 15l26 18v328q0 13 12 13q11 0 11 -13v-312l27 19q7 4 12 -2q5 -8 -4 -15l-35 -24v-218h251q14 0 14 -11q0 -13 -14 -13h-262q-6 0 -9 3t-3 10v213zM59 214v-116q0 -52 22.5 -75t74.5 -23h240q79 0 79 75q0 74 -79 74h-175v163 l105 64q24 18 24 42q0 17 -9 27t-24 10q-20 0 -34 -11l-62 -38v206q0 50 -22 74t-59 24q-81 0 -81 -98v-303l-37 -22q-24 -17 -24 -42q0 -16 10 -27t23 -11q8 0 17 3q2 1 6 2.5t5 1.5z" />
<glyph unicode="&#x152;" horiz-adv-x="1140" d="M691 237q-23 -62 -65 -102q-86 -85 -216 -85q-131 0 -217 85q-86 86 -86 220q0 133 87 218q89 86 216 86q128 0 216 -81q42 -44 65 -107v166q0 6 4 9q2 2 8 2h329q14 0 14 -11q0 -12 -14 -12h-317v-251h285q14 0 14 -13q0 -10 -14 -10h-285v-265h316q14 0 14 -11 q0 -13 -14 -13h-328q-12 0 -12 14v161zM408 71q118 0 201 78q82 79 82 205v13q-5 114 -81 195q-80 76 -201 76q-119 0 -199 -80t-80 -204t80 -204q79 -79 198 -79zM408 144q-78 0 -135 57t-57 152q0 97 56 156q57 58 136 58t136 -58q57 -59 57 -156q0 -95 -58 -152 q-57 -57 -135 -57zM777 149v137h213q37 0 57.5 19.5t20.5 55.5t-20.5 55.5t-57.5 19.5h-213v126h245q79 0 79 75q0 74 -79 74h-309q-53 0 -75 -24q-9 -7 -15 -27q-91 66 -215 66q-156 0 -263 -104q-106 -103 -106 -268t106 -268t263 -103q124 0 216 65q6 -16 14 -26 q22 -22 75 -22h308q79 0 79 75q0 74 -79 74h-244z" />
<glyph unicode="&#x153;" horiz-adv-x="1213" d="M687 268q-19 -80 -71 -133q-82 -85 -206 -85q-131 0 -217 85q-86 86 -86 220q0 133 87 218q89 86 216 86q123 0 206 -86q53 -53 71 -128q20 74 68 125q78 87 194 87q93 0 149 -43q8 -8 8 -12q0 -10 -6.5 -11.5t-14.5 6.5q-51 39 -137 39q-108 0 -178 -82 q-67 -77 -71 -189h269q13 0 13 -11q0 -10 -13 -10h-269q2 -116 71 -196q71 -77 177 -77q92 0 150 44q7 6 11 6q10 -1 10 -12q0 -5 -9 -11q-61 -48 -160 -48q-119 0 -195 82q-49 52 -67 136zM408 71q114 0 191 78q78 79 78 205q0 124 -77 204t-191 80q-119 0 -199 -80 t-80 -204t80 -204q79 -79 198 -79zM408 144q-88 0 -143 58q-54 58 -54 153t54 154q55 58 143 58t142 -58q55 -58 55 -154q0 -95 -55 -153q-54 -58 -142 -58zM686 111q93 -131 265 -131q89 0 155 36q66 37 68 88q0 32 -19 56.5t-47 25.5t-66 -23q-38 -23 -90 -23 q-72 0 -121 45t-57 98h191q73 0 73 71q0 69 -73 69h-191q8 49 54 95q46 48 124 48q52 0 90 -24q39 -23 66 -22q29 1 47.5 25.5t18.5 57.5q-2 51 -68 86q-65 37 -155 37q-172 0 -265 -135q-102 135 -278 135q-156 0 -263 -104q-106 -103 -106 -268t106 -268t263 -103 q177 0 278 128z" />
<glyph unicode="&#x160;" horiz-adv-x="530" d="M333 205q0 -32 -23.5 -52.5t-66.5 -20.5q-39 0 -77 20q-38 21 -57 21q-35 0 -57.5 -22.5t-22.5 -55.5q0 -47 58 -81t153 -34q113 0 187 62t74 168q0 87 -47 134q-46 46 -158 88q-95 35 -95 83q0 32 21 49t58 17t62 -16t46 -16q34 0 53 20t19 56q0 46 -50.5 75t-133.5 29 q-106 0 -174 -58q-69 -59 -69 -156q0 -77 46 -127.5t140 -84.5q67 -24 90 -42q24 -18 24 -56zM403 629q0 -11 -9 -11q-4 0 -12 6q-44 27 -97 27q-69 0 -116 -35t-47 -97q2 -102 153 -145q94 -32 124.5 -71t30.5 -98q0 -77 -52 -120.5t-130 -43.5q-66 0 -122 25 q-32 14 -32 30q0 6 4.5 8.5t11.5 -0.5q2 0 5 -2t9.5 -6l12.5 -8q45 -26 110 -26q70 0 112 37q47 42 47 103v2q0 64 -34 94q-16 16 -48 31q-27 14 -52 23q-80 29 -115 55q-62 46 -58 112q0 69 53 111.5t129 42.5q34 0 64 -9t44 -19t14 -16zM257 807l83 78q11 8 17 0 q4 -6 -3 -13l-90 -84l-7 -2l-6 2l-88 82q-9 8 -3 14q8 8 16 -1zM257 856l-56 56q-36 35 -71 -1q-15 -12 -14.5 -33t17.5 -38l87 -81q17 -17 37 -17q23 2 38 17l87 82q35 34 4 71q-35 36 -71 1z" />
<glyph unicode="&#x161;" horiz-adv-x="530" d="M257 807l83 78q11 8 17 0q4 -6 -3 -13l-90 -84l-7 -2l-6 2l-88 82q-9 8 -3 14q8 8 16 -1zM257 856l-56 56q-36 35 -71 -1q-15 -12 -14.5 -33t17.5 -38l87 -81q17 -17 37 -17q23 2 38 17l87 82q35 34 4 71q-35 36 -71 1zM333 205q0 -32 -23.5 -52.5t-66.5 -20.5 q-39 0 -77 20q-38 21 -57 21q-35 0 -57.5 -22.5t-22.5 -55.5q0 -47 58 -81t153 -34q113 0 187 62t74 168q0 87 -47 134q-46 46 -158 88q-95 35 -95 83q0 32 21 49t58 17t62 -16t46 -16q34 0 53 20t19 56q0 46 -50.5 75t-133.5 29q-106 0 -174 -58q-69 -59 -69 -156 q0 -77 46 -127.5t140 -84.5q67 -24 90 -42q24 -18 24 -56zM403 629q0 -11 -9 -11q-4 0 -12 6q-44 27 -97 27q-69 0 -116 -35t-47 -97q2 -102 153 -145q94 -32 124.5 -71t30.5 -98q0 -77 -52 -120.5t-130 -43.5q-66 0 -122 25q-32 14 -32 30q0 6 4.5 8.5t11.5 -0.5q2 0 5 -2 t9.5 -6l12.5 -8q45 -26 110 -26q70 0 112 37q47 42 47 103v2q0 64 -34 94q-16 16 -48 31q-27 14 -52 23q-80 29 -115 55q-62 46 -58 112q0 69 53 111.5t129 42.5q34 0 64 -9t44 -19t14 -16z" />
<glyph unicode="&#x178;" horiz-adv-x="646" d="M323 301l221 345q8 11 19 2q11 -7 1 -20l-228 -348v-197q0 -15 -12 -15q-6 0 -9 4t-3 11v197l-229 349q-10 14 1 21q13 8 20 -4zM323 414l-154 254q-29 40 -63 46.5t-60 -17.5q-63 -48 -7 -127l203 -316v-156q0 -50 22 -74t59 -24t59 24t22 74v156l203 316q57 79 -6 127 q-26 24 -60 17.5t-63 -46.5zM299 820q0 30 -19 51.5t-50 21.5t-50.5 -21.5t-19.5 -51.5t19.5 -51t50.5 -21t50 21t19 51zM488 820q0 31 -19 52t-51 21q-31 0 -50.5 -21.5t-19.5 -51.5t19.5 -51t50.5 -21q32 0 51 21t19 51zM210 820q0 9 6 14.5t14 5.5q19 0 19 -20t-19 -20 q-8 0 -14 6t-6 14zM400 820q0 9 6 14.5t13 5.5q20 0 20 -20q0 -8 -5.5 -14t-14.5 -6q-7 0 -13 6t-6 14z" />
<glyph unicode="&#x17d;" horiz-adv-x="612" d="M153 86h348q14 0 14 -11q0 -13 -14 -13h-364q-13 0 -17.5 6t-0.5 13l328 544h-314q-14 0 -14 12q0 11 14 11h332q25 0 17 -18zM269 149l270 438q14 30 14 50q0 36 -20.5 55t-57.5 19h-337q-37 0 -57.5 -19.5t-20.5 -55.5t20.5 -55t57.5 -19h192l-279 -444 q-12 -16 -12 -44q0 -36 20.5 -55t57.5 -19h378q37 0 57.5 19.5t20.5 55.5t-20.5 55t-57.5 19h-226zM293 802l83 78q11 8 17 0q4 -6 -3 -13l-90 -84l-7 -2l-6 2l-88 82q-9 8 -3 14q8 7 16 -1zM293 851l-56 56q-36 35 -71 -1q-15 -12 -14.5 -33t17.5 -38l87 -81q17 -17 37 -17 q23 2 38 17l87 82q35 34 4 71q-35 36 -71 1z" />
<glyph unicode="&#x17e;" horiz-adv-x="612" d="M293 802l83 78q11 8 17 0q4 -6 -3 -13l-90 -84l-7 -2l-6 2l-88 82q-9 8 -3 14q8 7 16 -1zM293 851l-56 56q-36 35 -71 -1q-15 -12 -14.5 -33t17.5 -38l87 -81q17 -17 37 -17q23 2 38 17l87 82q35 34 4 71q-35 36 -71 1zM153 86h348q14 0 14 -11q0 -13 -14 -13h-364 q-13 0 -17.5 6t-0.5 13l328 544h-314q-14 0 -14 12q0 11 14 11h332q25 0 17 -18zM269 149l270 438q14 30 14 50q0 36 -20.5 55t-57.5 19h-337q-37 0 -57.5 -19.5t-20.5 -55.5t20.5 -55t57.5 -19h192l-279 -444q-12 -16 -12 -44q0 -36 20.5 -55t57.5 -19h378q37 0 57.5 19.5 t20.5 55.5t-20.5 55t-57.5 19h-226z" />
<glyph unicode="&#x192;" horiz-adv-x="1062" d="M151 250v-167q0 -15 -11 -15q-12 0 -12 15v326q0 129 50 186t154 57q98 0 154 -56q40 -42 51 -134q21 64 60 108q78 87 194 87q93 0 148 -43q9 -8 9 -12q0 -10 -6.5 -11.5t-14.5 6.5q-51 39 -137 39q-107 0 -179 -82q-60 -75 -69 -172v-17h265q13 0 13 -11q0 -10 -13 -10 h-265v-24q8 -102 69 -172q72 -77 178 -77q93 0 149 44q8 6 12 6q10 -1 10 -12q0 -5 -9 -11q-61 -48 -160 -48q-119 0 -195 82q-34 38 -57 102l3 -151q0 -15 -12 -15q-11 0 -11 15v167h-368zM151 273h368v136q-1 118 -48 169.5t-140 51.5q-92 0 -135.5 -51t-44.5 -170v-136z M447 329h-226v121q0 111 102 111h22q102 0 102 -111v-121zM599 51q79 -71 201 -71q89 0 155 36q66 37 67 88q0 32 -19 56.5t-46 25.5q-28 1 -66 -23q-38 -23 -90 -23q-95 0 -143 59q-28 35 -40 84h188q73 0 73 71q0 69 -73 69h-188q12 50 40 84q48 59 143 59q53 0 90 -24 q39 -23 66 -22t46 25.5t19 57.5q-2 50 -67 86q-65 37 -155 37q-156 0 -245 -108q-67 93 -198 93h-46q-121 0 -186.5 -69.5t-65.5 -191.5v-352q0 -98 81 -98q37 0 59 24t22 74v97h226v-97q0 -50 22 -74t59 -24q36 0 58 22q9 9 13 29z" />
<glyph unicode="&#x2c6;" horiz-adv-x="384" d="M192 630l-83 -78q-10 -7 -16 0q-4 6 3 13l90 84l6 2l7 -2l88 -82q9 -7 3 -14q-7 -7 -17 1zM192 581l57 -56q36 -35 71 1q15 12 14.5 33t-18.5 38l-87 81q-17 17 -37 17q-22 -2 -37 -17l-88 -82q-34 -34 -4 -71q36 -36 72 -1z" />
<glyph unicode="&#x2c7;" horiz-adv-x="384" d="M189 571l83 78q11 8 17 0q4 -6 -3 -13l-90 -84l-7 -2l-6 2l-88 82q-9 8 -3 14q8 8 16 -1zM189 620l-56 56q-36 35 -71 -1q-15 -12 -14.5 -33t17.5 -38l87 -81q17 -17 37 -17q23 2 38 17l87 82q35 34 4 71q-35 36 -71 1z" />
<glyph unicode="&#x2d8;" horiz-adv-x="428" d="M214 514q67 0 116 41q49 40 49 91q0 25 -14 39.5t-40 14.5q-28 0 -54 -41q-21 -36 -57 -36q-34 0 -62 41q-22 36 -51 36q-25 0 -38.5 -14.5t-13.5 -39.5q0 -49 48 -91q49 -41 117 -41z" />
<glyph unicode="&#x2d9;" horiz-adv-x="272" d="M49 584q0 -39 26 -66t62 -27t61.5 27t25.5 66q0 38 -26 65.5t-61 27.5q-37 0 -62.5 -27t-25.5 -66zM111 584q0 11 8 18t19 7q10 0 17.5 -7t7.5 -18t-7.5 -18.5t-17.5 -7.5q-11 0 -19 7.5t-8 18.5z" />
<glyph unicode="&#x2da;" horiz-adv-x="270" d="M49 592q0 -34 25.5 -59.5t60.5 -25.5t60.5 25.5t25.5 59.5q0 36 -25.5 61.5t-60.5 25.5q-34 0 -60 -25.5t-26 -61.5zM82 592q0 22 15.5 38.5t37.5 16.5t38 -16.5t16 -38.5t-16 -37.5t-38 -15.5t-37.5 15.5t-15.5 37.5z" />
<glyph unicode="&#x2db;" horiz-adv-x="381" d="M268 -134q-112 -19 -158 36q-28 30 -14 73q6 20 27.5 38.5t41.5 24.5q15 2 15 -5q0 -8 -14 -15q-2 -1 -4 -1q-36 -22 -46 -49q-6 -16 0.5 -34.5t22.5 -30.5q44 -30 119 -18q15 5 18 -6q3 -9 -8 -13zM230 33q0 36 -39 36q-61 0 -101 -36q-41 -36 -41 -86q0 -61 54 -97 t143 -31q76 6 76 55q-2 57 -63 53q-53 -3 -74.5 6t-21.5 30q0 17 33 31q34 13 34 39z" />
<glyph unicode="&#x2dc;" horiz-adv-x="382" d="M95 577q11 14 21.5 22t22 8t17.5 -1t19 -6.5t15 -6.5t11.5 -5l12 -5t11 -3.5t12 -2.5t10 0.5t11 3t9.5 7.5t9 12q8 9 14 8t6 -7.5t-4 -12.5q-14 -18 -29.5 -24.5t-24.5 -5.5t-25.5 7t-21.5 7q-1 1 -8.5 4.5t-9 4.5t-8 3.5t-8.5 3t-7.5 1.5t-8.5 0l-7.5 -2.5t-8 -4.5 t-7.5 -7t-8 -10q-6 -9 -12 -8t-6.5 7.5t3.5 12.5zM93 514q12 0 30.5 8.5t32.5 8.5q17 0 46 -10q30 -9 47 -9q35 0 59.5 25t24.5 62q0 24 -12 39t-32 15q-13 0 -32 -9t-31 -9q-14 0 -46 9q-29 10 -47 10q-36 0 -60 -25t-24 -63q0 -24 11.5 -38t32.5 -14z" />
<glyph unicode="&#x2dd;" horiz-adv-x="519" d="M113 509q26 0 49 30l64 84q21 34 16 57q-3 24 -24 41.5t-48 17.5q-33 0 -51 -32l-58 -100q-14 -26 -10 -44q4 -24 21 -39t41 -15zM105 561q-9 6 -1 14l70 111q7 6 13 1q13 -7 1 -16l-70 -108q-8 -6 -13 -2zM338 509q26 0 49 30l63 84q22 31 17 57q-3 24 -24 41.5 t-48 17.5q-33 0 -51 -32l-59 -100q-14 -26 -10 -44q4 -24 21 -39t42 -15zM330 561q-10 6 -2 14l70 111q7 5 14 1q13 -7 1 -16l-70 -108q-8 -6 -13 -2z" />
<glyph unicode="&#x2013;" horiz-adv-x="568" d="M0 356q0 -70 74 -70h421q73 0 73 71q0 69 -73 69h-421q-74 0 -74 -70zM73 345q-13 0 -13 10q0 13 13 13h425q14 0 14 -13q0 -10 -14 -10h-425z" />
<glyph unicode="&#x2014;" horiz-adv-x="730" d="M0 356q0 -70 74 -70h583q73 0 73 71q0 69 -73 69h-583q-74 0 -74 -70zM73 345q-13 0 -13 10q0 13 13 13h587q14 0 14 -13q0 -10 -14 -10h-587z" />
<glyph unicode="&#x2018;" horiz-adv-x="234" d="M98 569q-5 34 16 54t51 23q38 5 36 38q-2 27 -30 27q-63 0 -105 -50q-42 -49 -42 -128q0 -54 27.5 -87.5t69.5 -33.5q39 0 64 24t25 68q0 31 -20.5 51.5t-56.5 20.5q-20 0 -35 -7zM103 499q0 9 6 15.5t16 6.5q9 0 15.5 -6.5t6.5 -15.5q0 -10 -6.5 -16.5t-15.5 -6.5 q-10 0 -16 6.5t-6 16.5z" />
<glyph unicode="&#x2019;" horiz-adv-x="234" d="M137 554q5 -34 -17 -53.5t-51 -23.5q-38 -5 -36 -38q2 -27 30 -27q63 0 105 50t42 128q0 54 -27.5 87.5t-69.5 33.5q-39 0 -64 -24t-25 -68q0 -31 20.5 -51.5t57.5 -20.5q18 0 35 7zM88 626q0 9 6.5 15t15.5 6t16 -6t7 -15q0 -10 -7 -16.5t-16 -6.5t-15.5 6.5t-6.5 16.5z " />
<glyph unicode="&#x201a;" horiz-adv-x="234" d="M137 134q5 -34 -16.5 -53t-51.5 -24q-38 -5 -36 -37q1 -28 30 -28q63 0 105 50t42 128q0 54 -27.5 87.5t-69.5 33.5q-39 0 -64 -24t-25 -68q0 -31 20.5 -51.5t57.5 -20.5q18 0 35 7zM92 206q0 9 6 15.5t16 6.5q9 0 16 -6.5t7 -15.5q0 -10 -7 -16.5t-16 -6.5 q-10 0 -16 6.5t-6 16.5z" />
<glyph unicode="&#x201c;" horiz-adv-x="459" d="M98 569q-5 34 16 54t51 23q38 5 36 38q-2 27 -30 27q-63 0 -105 -50q-42 -49 -42 -128q0 -54 27.5 -87.5t69.5 -33.5q39 0 64 24t25 68q0 31 -20.5 51.5t-56.5 20.5q-20 0 -35 -7zM322 569q-5 34 17 53.5t51 23.5q38 5 36 38q-2 27 -30 27q-63 0 -105 -50 q-42 -49 -42 -128q0 -54 27.5 -87.5t69.5 -33.5q39 0 64 24t25 68q0 31 -20.5 51.5t-57.5 20.5q-18 0 -35 -7zM103 499q0 9 6 15.5t16 6.5q9 0 15.5 -6.5t6.5 -15.5q0 -10 -6.5 -16.5t-15.5 -6.5q-10 0 -16 6.5t-6 16.5zM331 499q0 9 6.5 15.5t16.5 6.5q8 0 15 -6.5t7 -15.5 t-7 -16t-15 -7q-10 0 -16.5 6.5t-6.5 16.5z" />
<glyph unicode="&#x201d;" horiz-adv-x="451" d="M361 554q5 -34 -16 -54t-51 -23q-38 -5 -36 -38q2 -27 30 -27q63 0 105 50t42 128q0 54 -27.5 87.5t-69.5 33.5q-39 0 -64 -24t-25 -68q0 -31 20.5 -51.5t56.5 -20.5q20 0 35 7zM137 554q5 -34 -17 -53.5t-51 -23.5q-38 -5 -36 -38q2 -27 30 -27q63 0 105 50t42 128 q0 54 -27.5 87.5t-69.5 33.5q-39 0 -64 -24t-25 -68q0 -31 20.5 -51.5t57.5 -20.5q18 0 35 7zM88 626q0 9 6.5 15t15.5 6t16 -6t7 -15q0 -10 -7 -16.5t-16 -6.5t-15.5 6.5t-6.5 16.5zM316 626q0 9 6.5 15t16.5 6q9 0 15.5 -6t6.5 -15q0 -10 -6.5 -16.5t-15.5 -6.5 q-10 0 -16.5 6.5t-6.5 16.5z" />
<glyph unicode="&#x201e;" horiz-adv-x="451" d="M361 134q5 -34 -15.5 -53t-51.5 -24q-38 -5 -36 -37q1 -28 30 -28q63 0 105 50t42 128q0 54 -27.5 87.5t-69.5 33.5q-39 0 -64 -24t-25 -68q0 -31 20.5 -51.5t56.5 -20.5q20 0 35 7zM137 134q5 -34 -16.5 -53t-51.5 -24q-38 -5 -36 -37q1 -28 30 -28q63 0 105 50t42 128 q0 54 -27.5 87.5t-69.5 33.5q-39 0 -64 -24t-25 -68q0 -31 20.5 -51.5t57.5 -20.5q18 0 35 7zM92 206q0 9 6 15.5t16 6.5q9 0 16 -6.5t7 -15.5q0 -10 -7 -16.5t-16 -6.5q-10 0 -16 6.5t-6 16.5zM317 206q0 9 6.5 15.5t16.5 6.5q9 0 15.5 -6.5t6.5 -15.5q0 -10 -6.5 -16.5 t-15.5 -6.5q-10 0 -16.5 6.5t-6.5 16.5z" />
<glyph unicode="&#x2020;" horiz-adv-x="544" d="M261 442h-156q-13 0 -13 11q0 13 13 13h156v162q0 15 11 15q12 0 12 -15v-162h155q14 0 14 -13q0 -11 -14 -11h-155v-482q0 -15 -12 -15q-11 0 -11 15v482zM196 381v-410q0 -98 76 -98q77 0 77 98v410h88q78 0 78 74q0 33 -20 51.5t-58 18.5h-88v88q0 98 -77 98 q-76 0 -76 -98v-88h-88q-79 0 -79 -72t79 -72h88z" />
<glyph unicode="&#x2021;" horiz-adv-x="544" d="M261 442h-156q-13 0 -13 11q0 13 13 13h156v162q0 15 11 15q12 0 12 -15v-162h155q14 0 14 -13q0 -11 -14 -11h-155v-307h155q14 0 14 -13q0 -11 -14 -11h-155v-151q0 -15 -12 -15q-11 0 -11 15v151h-156q-13 0 -13 11q0 13 13 13h156v307zM196 381v-188h-88 q-79 0 -79 -72t79 -72h88v-78q0 -98 76 -98q77 0 77 98v78h88q78 0 78 74q0 33 -20 51.5t-58 18.5h-88v188h88q78 0 78 74q0 33 -20 51.5t-58 18.5h-88v88q0 98 -77 98q-76 0 -76 -98v-88h-88q-79 0 -79 -72t79 -72h88z" />
<glyph unicode="&#x2022;" horiz-adv-x="436" d="M49 362q0 -60 42 -103q42 -42 102 -42t102 43q43 43 43 102q0 60 -42 102t-102 42t-103 -42q-42 -42 -42 -102zM103 361q0 42 26 70t68 28q40 0 66 -28t26 -70q0 -40 -26.5 -67.5t-65.5 -27.5q-42 0 -68 26.5t-26 68.5zM122 361q0 -31 21.5 -53t53.5 -22q30 0 52 22.5 t22 52.5q0 34 -21.5 56.5t-52.5 22.5q-33 0 -54 -22t-21 -57z" />
<glyph unicode="&#x2026;" horiz-adv-x="808" d="M29 84q0 -38 26.5 -64.5t65.5 -26.5q37 0 63.5 26.5t26.5 64.5q0 37 -26.5 64t-63.5 27q-38 0 -65 -27t-27 -64zM96 86q0 11 7.5 18t18.5 7q25 0 25 -25q0 -11 -7 -18.5t-18 -7.5t-18.5 7.5t-7.5 18.5zM308 84q0 -38 26.5 -64.5t65.5 -26.5q37 0 63.5 26.5t26.5 64.5 q0 37 -26.5 64t-63.5 27q-38 0 -65 -27t-27 -64zM375 86q0 11 7.5 18t18.5 7q25 0 25 -25q0 -11 -7 -18.5t-18 -7.5t-18.5 7.5t-7.5 18.5zM588 84q0 -38 26.5 -64.5t65.5 -26.5q37 0 63.5 26.5t26.5 64.5q0 37 -26.5 64t-63.5 27q-38 0 -65 -27t-27 -64zM655 86q0 11 7.5 18 t18.5 7q25 0 25 -25q0 -11 -7 -18.5t-18 -7.5t-18.5 7.5t-7.5 18.5z" />
<glyph unicode="&#x2030;" horiz-adv-x="1220" d="M977 158q0 23 15 38.5t36 15.5t36 -15.5t15 -38.5q0 -21 -15 -37t-36 -16t-36 16t-15 37zM875 158q0 -65 44 -112q45 -46 109 -46q65 0 108 46q45 46 45 112t-45 113q-43 46 -108 46q-64 0 -109 -46q-44 -46 -44 -113zM915 157q0 51 32.5 84.5t80.5 33.5t81 -34t33 -84 q0 -49 -33 -83t-81 -34t-80.5 33.5t-32.5 83.5zM932 157q0 -42 28 -70.5t68 -28.5t68 29t28 70q0 42 -28 71.5t-68 29.5t-68 -29t-28 -72zM612 158q0 23 15.5 38.5t36.5 15.5t36 -15.5t15 -38.5q0 -21 -15 -37t-36 -16t-36.5 16t-15.5 37zM511 158q0 -65 44 -112 q45 -46 109 -46q65 0 108 46q44 47 44 112q0 66 -44 113q-43 46 -108 46q-64 0 -109 -46q-44 -46 -44 -113zM141 553q0 22 15 37t36 15q22 0 37 -15t15 -37t-15.5 -37.5t-36.5 -15.5t-36 15.5t-15 37.5zM39 553q0 -66 44 -113q45 -46 109 -46q65 0 108 46q45 46 45 113 q0 65 -45 112q-44 47 -108 47t-109 -46q-44 -47 -44 -113zM632 712q-42 23 -73 -31l-349 -613q-25 -47 15 -72q42 -23 70 25l351 618q27 46 -14 73zM249 34q-7 6 -3 16l352 617q7 9 15 5q5 -6 1 -13l-351 -620q-9 -9 -14 -5zM551 157q0 51 32.5 84.5t80.5 33.5t80.5 -34 t32.5 -84q0 -49 -32.5 -83t-80.5 -34t-80.5 33.5t-32.5 83.5zM567 157q0 -42 28.5 -70.5t68.5 -28.5t68 29t28 70q0 42 -28 71.5t-68 29.5t-68.5 -29.5t-28.5 -71.5zM79 553q0 51 32.5 84.5t80.5 33.5t81 -34t33 -84q0 -49 -33 -83t-81 -34t-80.5 33.5t-32.5 83.5zM96 553 q0 -42 28 -71t68 -29t68 29.5t28 70.5q0 42 -28 71t-68 29t-68 -29t-28 -71z" />
<glyph unicode="&#x2039;" horiz-adv-x="345" d="M183 260l98 100q49 49 -2 96q-16 20 -44 19.5t-50 -24.5l-132 -141q-24 -22 -24 -50q1 -27 24 -50l132 -141q43 -46 94 -6q51 48 2 97zM114 263l133 -147q7 -10 0 -16q-6 -5 -14 3l-138 153l-2 7l2 7l135 140q7 9 15 3q7 -7 -1 -17z" />
<glyph unicode="&#x203a;" horiz-adv-x="345" d="M162 260l-99 -101q-47 -47 2 -96q17 -19 45 -18.5t50 23.5l132 142q23 23 23 50q-2 29 -23 50l-132 140q-43 49 -95 6q-48 -47 -2 -97zM107 413q8 6 15 -3l136 -140l2 -7l-2 -7l-139 -153q-8 -8 -14 -3q-6 6 0 16l133 147l-130 133q-7 11 -1 17z" />
<glyph unicode="&#x20ac;" horiz-adv-x="678" d="M152 414q-5 -35 -5 -64q0 -15 2 -41h21q14 0 14 -13q0 -11 -14 -11h-18q14 -85 66 -141q70 -78 178 -78q91 0 149 44q7 6 12 6q9 -2 9 -12q0 -5 -8 -11q-62 -48 -161 -48q-119 0 -195 82q-58 61 -72 158h-17q-13 0 -13 11q0 13 13 13h14q-2 26 -2 42q0 36 4 63h-16 q-13 0 -13 11q0 12 13 12h21q16 81 69 138q78 87 194 87q93 0 149 -43q9 -7 9 -13q0 -9 -7 -10.5t-15 6.5q-51 39 -137 39q-108 0 -178 -82q-46 -52 -62 -122h43q14 0 14 -12q0 -11 -14 -11h-47zM55 256h10q23 -100 89 -170q100 -106 252 -106q89 0 155 36q66 37 68 88 q0 32 -19 56.5t-47 25.5t-66 -23q-38 -23 -90 -23q-85 0 -135 59q-21 25 -33 57h100q39 0 39 39q0 17 -10.5 27t-28.5 10h-116v19q0 11 2 35h172q40 0 40 39q0 37 -40 37h-153q9 21 28 45q50 59 135 59q53 0 90 -24q39 -23 66 -22q29 1 47.5 25.5t18.5 57.5q-2 51 -68 86 q-65 37 -155 37q-152 0 -252 -106q-64 -67 -86 -158h-13q-40 0 -40 -37q0 -39 40 -39h2q-1 -12 -1 -35v-19h-1q-40 0 -40 -37q0 -39 40 -39z" />
<glyph unicode="&#x2122;" horiz-adv-x="719" d="M497 567l-47 111q-18 37 -58 37q-25 0 -38.5 -13t-20.5 -44l-37 -219q-3 -17 -3 -23q0 -21 13 -34.5t34 -13.5q39 0 47 56l24 134l35 -86q17 -36 51 -36q37 0 51 36l32 86l26 -140q8 -50 48 -50q21 0 33 13t12 35q0 4 -2 18l-38 224q-7 57 -62 57q-42 0 -57 -38zM93 626 v-200q0 -53 46 -53q20 0 33 13.5t13 39.5v200h39q44 0 44 41q0 44 -44 44h-169q-45 0 -45 -44q0 -41 45 -41h38zM600 661h-3l-81 -181q-7 -12 -19 -12q-17 0 -19 12l-82 181h-2l-47 -248q-2 -9 -10 -8q-10 0 -8 11l47 247q2 16 19 16q12 0 19 -15l80 -177h5l80 177 q7 15 19 15q17 0 19 -16l48 -248q2 -11 -8 -11q-8 -1 -10 8zM127 658h-66q-12 0 -12 11q0 9 12 9h154q12 0 12 -10t-12 -10h-69v-236q0 -12 -8 -12q-11 0 -11 12v236z" />
<glyph unicode="&#x2212;" horiz-adv-x="590" d="M39 356q0 -70 74 -70h365q73 0 73 71q0 69 -73 69h-365q-74 0 -74 -70zM112 345q-13 0 -13 10q0 13 13 13h368q14 0 14 -13q0 -10 -14 -10h-368z" />
<glyph unicode="&#xe000;" horiz-adv-x="715" d="M0 715h715v-715h-715v715z" />
<glyph unicode="&#xfb01;" horiz-adv-x="699" d="M560 61q-12 0 -12 14v550h-397v-251h170q15 0 15 -13q0 -10 -15 -10h-170v-278q0 -14 -11 -14q-12 0 -12 14v564q0 5 4 9q4 2 8 2h416q15 0 15 -15v-558q0 -14 -11 -14zM221 562h258v-464q0 -98 81 -98q37 0 59 24t22 74v515q0 50 -22 74t-59 24h-404q-52 0 -74.5 -23 t-22.5 -75v-515q0 -98 81 -98q37 0 59 24t22 74v188h95q35 0 57 19.5t22 55.5q0 35 -22 55t-57 20h-95v126z" />
<glyph unicode="&#xfb02;" horiz-adv-x="904" d="M571 86h232q13 0 13 -11q0 -13 -13 -13h-243q-6 0 -9 3t-3 10v550h-397v-251h170q15 0 15 -13q0 -10 -15 -10h-170v-278q0 -14 -11 -14q-12 0 -12 14v564q0 5 4 9q4 2 8 2h416q15 0 15 -14v-548zM221 562h258v-464q0 -52 22.5 -75t74.5 -23h221q37 0 57.5 19.5t20.5 55.5 t-20.5 55t-57.5 19h-156v464q0 50 -22 74t-59 24h-81h-323q-52 0 -74.5 -23t-22.5 -75v-515q0 -98 81 -98q37 0 59 24t22 74v188h95q35 0 57 19.5t22 55.5q0 35 -22 55t-57 20h-95v126z" />
<glyph horiz-adv-x="500" />
</font>
</defs>
</svg>
