<?xml version="1.0" standalone="no"?>
<!DOCTYPE svg PUBLIC "-//W3C//DTD SVG 1.1//EN" "http://www.w3.org/Graphics/SVG/1.1/DTD/svg11.dtd" >
<svg xmlns="http://www.w3.org/2000/svg">
<metadata>
This is a custom SVG webfont generated by Font Squirrel.
Copyright   : Generated in 2010 by FontLab Studio Copyright info pending
Designer    : Haley Fiege
Foundry     : Haley Fiege
</metadata>
<defs>
<font id="SnigletRegular" horiz-adv-x="1527" >
<font-face units-per-em="2048" ascent="1536" descent="-512" />
<missing-glyph horiz-adv-x="876" />
<glyph unicode=" "  horiz-adv-x="876" />
<glyph unicode="&#x09;" horiz-adv-x="876" />
<glyph unicode="&#xa0;" horiz-adv-x="876" />
<glyph unicode="!" horiz-adv-x="913" d="M108.5 992q-2.5 95 2.5 159l6 66q0 14 4 35.5t24.5 77.5t54 99.5t101.5 79t158 35.5q10 0 28.5 -2t66.5 -18.5t88 -43t82 -85t60 -135.5q29 -117 29 -242t-14 -191l-15 -67q-2 -10 -8 -27.5t-32.5 -60.5t-59.5 -76t-93.5 -60.5t-131.5 -27.5q-80 0 -144.5 33.5t-98.5 82 t-55.5 96.5t-27.5 83l-6 33q-16 61 -18.5 156zM193 158q0 -92 77.5 -156.5t186.5 -64.5q111 0 188.5 64.5t77.5 156.5t-78 156.5t-188 64.5q-109 0 -186.5 -64.5t-77.5 -156.5z" />
<glyph unicode="&#x22;" horiz-adv-x="917" d="M71 1368q3 53 15 94q18 59 58 89t78 27t71 -11q33 -14 52.5 -27.5t40 -52.5t26.5 -98q6 -68 -13.5 -167.5t-44.5 -148.5q-4 -10 -14 -26.5t-45 -42t-76 -23.5q-43 2 -72.5 32.5t-37.5 59.5l-9 31l-6 23q-4 15 -11 60.5t-11 86.5t-1 94zM486 1368q3 53 16 94q18 59 58 89 t78 27t71 -11q33 -14 52 -27.5t39.5 -52.5t26.5 -98q6 -68 -13 -167.5t-44 -148.5q-4 -10 -14.5 -26.5t-45 -42t-75.5 -23.5q-43 2 -73 32.5t-38 59.5l-8 31l-6 23q-4 15 -11 60.5t-11.5 86.5t-1.5 94z" />
<glyph unicode="#" horiz-adv-x="1554" d="M80 508v14q0 8 7 33t19.5 44t41 39.5t69.5 29.5q51 12 127 18q6 51 18 105l-26 2q-66 4 -106 39.5t-46 68.5l-6 35q0 14 2 36.5t36 66.5t97 57q51 10 123 18q18 74 43 141q41 129 156 121l20 -2q6 0 16.5 -1t35 -10t42 -24.5t31 -49.5t8.5 -79q-2 -14 -5 -39.5t-3 -37.5 q27 0 80 -1.5t80 -1.5q25 86 39 125q43 129 158 121l18 -2q6 0 16.5 -1t35 -10t42 -24.5t30.5 -49.5t9 -79q-2 -35 -10 -104l55 -6q129 -20 146 -129l2 -25q0 -6 1 -16t-3 -36t-16.5 -46.5t-43 -38.5t-76.5 -23q-41 -4 -114 -8q-12 -70 -21 -102q20 -4 27 -4 q129 -18 145 -129l2 -25q0 -6 1 -16t-3 -36t-16 -46.5t-43 -39t-76 -22.5q-16 -2 -53 -4t-53 -4l-35 -129q-51 -123 -170 -131q-6 0 -14.5 2t-31 13.5t-40 28t-31.5 47t-14 71.5q-4 41 0 90q-115 0 -168 2l-31 -123q-51 -123 -170 -131q-6 0 -14 2t-30.5 13.5t-40 28t-32 47 t-16.5 71.5q0 68 2 106l-63 7q-66 4 -106 39.5t-48 70.5zM715 705q23 0 65.5 -1.5t65.5 -1.5l12 66q-23 0 -66.5 1t-64.5 3q-6 -36 -12 -67z" />
<glyph unicode="$" horiz-adv-x="1196" d="M78 422v22q0 70 36 116t87 62.5t103 22.5t89 2l35 -4q-88 23 -150.5 68t-89 91t-40 88t-13.5 68l2 29q12 248 314 316q2 29 8 129q6 55 22.5 94t37 56t40 26.5t31.5 9.5h14q6 0 15.5 -1t33 -11.5t43 -28.5t36 -57t18.5 -93q4 -78 4 -112q328 -37 327 -236 q0 -57 -31.5 -99t-84 -61.5t-101.5 -28.5t-104 -11v-17q98 -25 168.5 -67.5t100.5 -86.5t45.5 -86t15.5 -69v-25q0 -98 -37 -172.5t-97.5 -114.5t-112.5 -59.5t-110 -29.5l-10 -105q-16 -129 -117 -143l-22 -2q-2 2 -14.5 -1t-34 4t-41 19.5t-35 44t-17.5 78.5q0 18 -2 56 t-2 57q-111 16 -188.5 52t-109 75t-48 74.5t-14.5 60.5z" />
<glyph unicode="%" horiz-adv-x="1521" d="M78 1141q-20 -113 41 -195t176 -104q121 -23 215 28.5t119 182.5q23 119 -32.5 209t-186.5 114q-135 25 -222 -44.5t-110 -190.5zM303 165q-6 34 10 75q51 164 251 530.5t315 540.5q80 123 200 80l17 -9q4 -2 11 -4t23.5 -16t25.5 -33.5t10 -56.5t-15 -84 q-76 -209 -223.5 -477.5t-257.5 -431.5l-111 -166q-72 -102 -172 -64l-10 4q-4 2 -10.5 6t-24.5 18.5t-25.5 34t-13.5 53.5zM813 330q-20 -111 41 -194t176 -105q123 -23 216 29.5t118 183.5q23 119 -32.5 209t-186.5 114q-135 25 -222 -45.5t-110 -191.5z" />
<glyph unicode="&#x26;" horiz-adv-x="1634" d="M81 414.5q1 62.5 13 128.5l5 26q3 16 21.5 65.5t44 97.5t77 110.5t116.5 113.5q-6 12 -15 33t-26.5 81t-21.5 116.5t17.5 126t72.5 121.5q121 121 290 121.5t275 -109.5q8 -8 21.5 -24.5t39 -67.5t33 -105.5t-13 -134.5t-80.5 -158q135 -133 213 -299q8 8 24.5 22.5 t62.5 44.5t88 43t95.5 1t92.5 -61q106 -139 -80 -324q-37 -37 -70 -59q12 -10 29.5 -29t52.5 -73t48.5 -105t-7 -117t-90.5 -117q-61 -45 -125.5 -47t-113 25.5t-88.5 62.5t-62 64l-21 28q-12 -10 -35.5 -25.5t-97 -47t-148.5 -46t-183.5 0t-208.5 69.5l-11.5 6t-28 19.5 t-40 33t-45 46t-45 61.5t-38 78t-28.5 93t-9 110.5zM565 399l8 -10q33 -35 65 -31t54 27l23 25l-84 118q-111 -53 -66 -129z" />
<glyph unicode="'" horiz-adv-x="458" d="M64.5 1368q3.5 53 15.5 94q18 59 58 89t78 27t71 -11q33 -14 52 -27.5t39.5 -52.5t27.5 -98q6 -68 -13.5 -167.5t-44.5 -148.5q-4 -10 -14 -26.5t-45 -42t-76 -23.5q-43 2 -72.5 32.5t-38.5 59.5l-8 31l-6 23q-4 15 -11 60.5t-11.5 86.5t-1 94z" />
<glyph unicode="(" horiz-adv-x="909" d="M94.5 560q-28.5 220 1 386t74.5 302t88 208l41 72q59 96 147.5 131t215.5 -12q55 -25 87.5 -65t40 -78t6.5 -73.5t-10 -58.5l-6 -20q-68 -188 -89 -383t-5 -336t43 -256t53 -172l25 -60q4 -8 8 -21t7 -51t-6 -71t-45 -72t-97 -63q-84 -27 -152.5 -14.5t-130 64.5 t-101.5 105.5t-67 108.5q-100 209 -128.5 429z" />
<glyph unicode=")" horiz-adv-x="915" d="M91 1449q-3 38 6 70.5t45 71.5t98 64q84 27 152.5 14.5t130 -65t101.5 -105.5t66 -108q100 -209 129 -429.5t-1 -386t-75 -302t-88 -207.5l-41 -72q-59 -96 -147 -131t-215 12q-55 25 -88 65t-40 77.5t-6 73.5t9 56l6 23q68 188 89.5 383t5 336t-43 256t-53.5 174l-25 57 q-4 8 -8 21.5t-7 51.5z" />
<glyph unicode="*" horiz-adv-x="1280" d="M142 1107q3 36 26 73q35 53 81 76.5t88 17.5t80 -20.5t60 -28.5l23 -17q-2 10 -4 26.5t0 58.5t15 74t53 58.5t104 26.5q6 0 14 -1t32.5 -6t45 -14.5t42 -30t34 -48t11.5 -72.5t-20 -100q12 4 32 8t70 6t89 -9t70.5 -53t31.5 -112t-25.5 -114t-62.5 -57t-73.5 -17.5 t-61.5 -0.5l-27 7q6 -8 16.5 -20.5t28 -50.5t22.5 -73t-15.5 -77t-71.5 -72q-147 -86 -246 84l-29 59q-4 -8 -13 -21.5t-37.5 -42t-60.5 -41t-81 -3t-100 54.5q-6 6 -14.5 16.5t-22 41t-14.5 61t21.5 73.5t74.5 80l-16 5q-9 3 -35.5 16.5t-48 29t-44 39t-34 49t-8.5 61.5z " />
<glyph unicode="+" horiz-adv-x="1265" d="M90 705q0 6 1 16t8 38.5t19.5 53.5t40 53.5t64.5 44.5q47 23 154 41q12 86 22 127q18 78 70.5 122t95.5 48l41 6h22q13 0 48 -8t64.5 -23.5t59 -53t42.5 -91.5q16 -78 22 -114q82 -10 140 -25q49 -12 85.5 -37.5t53 -53.5t26 -54.5t11.5 -44.5v-17q-2 -2 1 -20.5 t-7.5 -50t-24.5 -62.5t-53 -60.5t-92 -41.5q-78 -16 -115 -23q-6 -86 -19 -133q-12 -86 -71.5 -130t-110.5 -46l-53 -2q-6 0 -16.5 1t-39 8t-53 19.5t-53.5 40t-45 64.5q-25 53 -41 156l-121 16q-152 23 -174 186z" />
<glyph unicode="," horiz-adv-x="667" d="M43 227q0 111 67.5 183.5t188.5 72.5q119 0 186.5 -68.5t71.5 -174.5q4 -104 -10.5 -186.5t-41 -128.5t-60 -77.5t-68.5 -43t-63.5 -15.5t-47.5 -2l-18 2q-33 6 -46.5 25.5t-8.5 35.5l4 17q6 16 18 26.5t23 12.5h10q37 0 33 63q-113 8 -175.5 80t-62.5 178z" />
<glyph unicode="-" horiz-adv-x="1077" d="M97 605.5q-5 17.5 5.5 49t25.5 63.5t57 61.5t102 43.5q123 27 253 28t199 -11l70 -13q152 -39 182 -174l4 -35q2 -6 2 -18t-4 -46t-17 -61.5t-46 -56t-82 -43.5q-248 -68 -559 -18q-86 14 -133 66.5t-54 99.5l-4 45q4 2 -1 19.5z" />
<glyph unicode="." horiz-adv-x="720" d="M100 238q0 111 69 184.5t189.5 73.5t189 -74t68.5 -184q0 -113 -68.5 -185.5t-189 -72.5t-189.5 72.5t-69 185.5z" />
<glyph unicode="/" horiz-adv-x="878" d="M78 123q23 195 169 649.5t238 675.5q63 150 201 133l29 -6q2 0 7 -1t18.5 -5t23.5 -12.5t25.5 -23.5t21.5 -36.5t10 -53.5t-4 -75q-80 -500 -399 -1255l-35 -80q-59 -125 -178 -109l-17 4q-6 0 -14 3t-29.5 16.5t-37 33t-25.5 57.5t-4 85z" />
<glyph unicode="0" horiz-adv-x="1212" d="M78 635q0 131 12 238.5t47 217t92.5 185.5t156.5 123t230 47q141 0 244 -48t159 -121t88 -187.5t40 -215t8 -239.5q0 -291 -150.5 -459t-388 -168t-388 168t-150.5 459zM551 692q0 -78 80 -78q74 0 74 76q0 92 -74 92q-80 0 -80 -90z" />
<glyph unicode="1" horiz-adv-x="1007" d="M45 1073.5q8 65.5 48 118.5t84 91t79 56l35 21q78 37 153.5 51t128 7t94.5 -19.5t62 -26.5l21 -12q76 -51 122 -174t58 -260.5t13 -268.5t-5 -215l-8 -86q-8 -106 -41 -181t-74 -107.5t-81 -50t-66 -17.5h-29q-166 0 -238 184l-18 62q-59 293 31 653l8 31 q-10 -8 -27.5 -19.5t-66.5 -34t-91 -29.5t-89.5 11.5t-73.5 71.5q-37 78 -29 143.5z" />
<glyph unicode="2" horiz-adv-x="1191" d="M59 1126q-4 78 37 139.5t100.5 93.5t120 53.5t103.5 27.5l43 6q305 25 450 -148q25 -29 35 -51q53 -100 57.5 -211.5t-28.5 -199.5t-73 -162t-75 -113l-34 -41q14 0 36.5 -1t80 -14t100.5 -40t77.5 -85t32.5 -140q-6 -199 -366 -240q-115 -14 -215 -8q-336 2 -430 176 q-20 37 -23 65q-6 55 3 105.5t22.5 83.5t50.5 74t58.5 59l76.5 62.5l76 62.5q41 35 68.5 73t38 83t-18.5 82q-61 86 -191 38l-12 -4q-51 -10 -90 4.5t-59.5 42t-32.5 56t-17 51.5z" />
<glyph unicode="3" horiz-adv-x="1265" d="M54 296q5 42 19.5 78t32.5 56l19 19q51 51 124 51t120 -25l47 -26q117 -72 196 -17l6 4q29 25 34 55.5t-5 49.5l-8 20q-16 27 -50 40t-61 13h-26q-199 0 -232 146l-4 53q0 123 180 186l54 15q-123 -14 -211 0t-125 45t-56.5 62.5t-17.5 56.5v24q2 70 45 120t103.5 74.5 t121 38t103.5 15.5l41 2q16 2 46 2t107.5 -4t142 -17.5t130 -48t94.5 -86.5q31 -55 35 -115.5t-11.5 -106.5t-35 -85t-37.5 -59l-17 -21q59 -27 105.5 -71.5t70 -89.5t39 -86t19.5 -66l4 -27q12 -106 -9.5 -199t-59 -148.5t-77.5 -95.5t-71 -54l-29 -17q-115 -49 -235.5 -62 t-212.5 2t-167 37.5t-114 43.5l-39 22q-70 47 -101.5 100.5t-26.5 95.5z" />
<glyph unicode="4" horiz-adv-x="1329" d="M68.5 724q17.5 91 47 178t60.5 147l33 57q182 322 475 338q82 6 139 -12q90 -25 151.5 -102t85 -170t34 -182t8.5 -149l-4 -59q70 -2 109.5 -47t43.5 -88l4 -45q0 -135 -125 -170l-32 -6q2 -16 5 -46t-4 -104t-31 -130t-90.5 -102t-166.5 -46q-92 0 -154.5 44t-84 106.5 t-29.5 126t-4 106.5l4 45q-96 0 -179 10t-118 22l-37 11q-90 25 -124 100.5t-16.5 166.5zM430 799q6 -76 82 -76q35 0 57.5 20.5t22.5 55.5t-21.5 60.5t-58.5 25.5q-35 0 -60.5 -26.5t-21.5 -59.5z" />
<glyph unicode="5" horiz-adv-x="1210" d="M82 293q-8 66 8 117q20 55 53 85.5t67 33.5t65.5 0t52.5 -13l18 -8q154 -80 191 8l4 19q25 86 -117 137l-31 10q-74 25 -120 50.5t-84.5 69.5t-55 112.5t-14.5 168.5q2 70 24.5 128.5t52 91t59.5 55t50 31.5l21 8q168 68 428 28l10 -2q86 -14 147.5 -44.5t87 -64.5 t39 -65.5t13.5 -52.5v-20q-2 -74 -46 -125.5t-106.5 -72t-125 -29.5t-105.5 -7h-45q96 -6 178 -28.5t130 -51t82 -57.5t46 -47l12 -21q139 -227 27 -487l-35 -68q-49 -78 -137 -125t-177.5 -58t-171 -10t-133.5 11l-51 8q-280 82 -311 285z" />
<glyph unicode="6" horiz-adv-x="1257" d="M96 487q-49 397 226 725q70 84 131 129q180 162 370 72l51 -31q150 -113 46 -280l-35 -47l-119 -148q88 0 157.5 -23.5t111.5 -61.5t73 -84t44 -91t20.5 -83t7.5 -60v-25q0 -102 -29 -184t-74 -132t-99 -87t-109.5 -52.5t-100.5 -24.5t-74 -11h-28q-102 0 -188.5 27.5 t-144 71.5t-102.5 97.5t-69.5 106.5t-40 97t-19.5 71zM563 475q6 -76 82 -76q35 0 57.5 20.5t22.5 55.5t-21.5 60.5t-58.5 25.5q-35 0 -60.5 -26.5t-21.5 -59.5z" />
<glyph unicode="7" horiz-adv-x="1228" d="M80 1116q-4 117 54.5 196t143 108.5t172 44t148.5 10.5l59 -5q94 -4 175 -26.5t127.5 -51t78 -57t43.5 -49.5l13 -18q53 -78 53 -213t-38 -272.5t-83 -263.5t-84 -204l-37 -79q-35 -90 -89 -146.5t-105.5 -74t-96.5 -22.5t-73 3l-29 6q-90 31 -133 96.5t-43 114.5l2 51 q20 274 240 645l26 43q-20 -6 -55 -14t-124 -16.5t-157.5 1t-127 57.5t-60.5 136z" />
<glyph unicode="8" horiz-adv-x="1280" d="M82 438q0 274 201 389q-111 98 -107 254q2 174 128 273.5t327 99.5q199 0 323.5 -98.5t124.5 -274.5q0 -170 -92 -256q215 -129 215 -387q0 -227 -154.5 -351t-406.5 -124t-405.5 124t-153.5 351zM565 473q6 -76 82 -76q35 0 57.5 20.5t22.5 55.5t-21.5 60.5t-58.5 25.5 q-35 0 -60.5 -26.5t-21.5 -59.5zM565 1014q6 -76 82 -76q35 0 57.5 20.5t22.5 55.5t-21.5 60.5t-58.5 25.5q-35 0 -60.5 -26.5t-21.5 -59.5z" />
<glyph unicode="9" horiz-adv-x="1247" d="M72 958q0 102 30.5 184.5t78.5 132.5t106.5 87t117 53.5t106.5 25.5t79 9l31 2q348 0 491 -301q49 -102 59 -193q18 -150 -13.5 -294t-89.5 -242t-118.5 -175t-105.5 -114l-45 -37q-193 -170 -377 -82l-49 31q-145 117 -41 293l35 47q88 102 116 147q-119 0 -204.5 44.5 t-124.5 106.5t-59.5 124.5t-20.5 105.5zM555 881q6 -76 82 -76q35 0 57.5 20.5t22.5 55t-21.5 60.5t-58.5 26q-35 0 -60.5 -26.5t-21.5 -59.5z" />
<glyph unicode=":" horiz-adv-x="694" d="M106 192.5q0 100.5 61.5 167t168.5 66.5q111 0 172 -66.5t61 -167t-61.5 -165t-171.5 -64.5q-106 0 -168 64.5t-62 165zM106 836q0 98 61.5 164.5t168.5 66.5q111 0 172 -65.5t61 -166t-61.5 -165t-171.5 -64.5q-106 0 -168 65t-62 165z" />
<glyph unicode=";" horiz-adv-x="690" d="M102 188q0 98 59.5 161t166.5 63q102 0 160.5 -60.5t62.5 -152.5q6 -125 -19.5 -212t-65.5 -121t-82 -49.5t-73 -13.5l-28 4q-31 4 -42.5 20.5t-7.5 31.5l5 14q4 14 15 22.5t21 10.5h9q31 0 26 57q-98 8 -152.5 69.5t-54.5 155.5zM106 817q0 96 60.5 161.5t165.5 65.5 q109 0 168 -65.5t59 -161.5q0 -100 -59.5 -163.5t-167.5 -63.5q-104 0 -165 63.5t-61 163.5z" />
<glyph unicode="&#x3c;" horiz-adv-x="970" d="M70 745q0 72 44 154t104.5 145.5t126 120t105 84t48.5 31.5q66 49 167 28.5t152 -102.5q51 -90 30.5 -167.5t-97.5 -135.5q-76 -59 -164 -153q119 -117 221 -201q6 -4 15 -14.5t26.5 -41t24 -63.5t-9 -83t-56.5 -99q-53 -61 -149.5 -71.5t-159.5 40.5l-27 16l-61 47 l-83 64q-46 37 -91.5 84t-82 97t-60 107.5t-23.5 112.5z" />
<glyph unicode="=" horiz-adv-x="1097" d="M106 499.5q0 10.5 7.5 38t24 50t57.5 46t100 34.5q121 23 251 23.5t199 -9.5l70 -10q156 -33 180 -142l4 -20q2 -6 2 -15.5t-4 -35t-16 -47t-45 -45t-82 -33.5q-250 -53 -557 -15q-84 10 -131 51.5t-51 75.5l-6 37q-3 6 -3 16.5zM106 954.5q0 10.5 7.5 38t24 50t57.5 46 t100 33.5q121 23 251 24t199 -9l70 -11q156 -33 180 -141l4 -20q2 -6 2 -15.5t-4 -35t-16 -47t-45 -45t-82 -34.5q-250 -53 -557 -14q-84 10 -131 51t-51 76l-6 37q-3 6 -3 16.5z" />
<glyph unicode="&#x3e;" horiz-adv-x="958" d="M84 1057q-6 33 9.5 83t56.5 99q53 61 149 71.5t160 -40.5l24 -17l64 -46l83 -64q46 -37 91 -84t82 -97.5t60.5 -107.5t23.5 -113q0 -72 -44 -153.5t-104.5 -145t-126 -120t-105.5 -84t-48 -31.5q-66 -49 -167.5 -28.5t-152.5 102.5q-51 90 -30.5 167.5t98.5 135.5 q76 59 164 153q-119 117 -221 201q-6 4 -15.5 14.5t-27 41t-23.5 63.5z" />
<glyph unicode="?" horiz-adv-x="1323" d="M120 1074.5q-7 58.5 25.5 147.5t118.5 177q12 12 36 30.5t100.5 55.5t159.5 50t208 -13.5t250 -106.5q109 -70 150.5 -192.5t24.5 -247.5t-49 -225.5t-69 -155.5q-6 -12 -19.5 -30.5t-56.5 -60.5t-91 -63.5t-125.5 -16.5t-157.5 56q-145 92 -19 363l47 88 q-8 -10 -24.5 -24.5t-65.5 -45.5t-97 -46t-112.5 -6t-120.5 54q-10 8 -27.5 25.5t-48 73t-37.5 114zM512 129q0 -96 71.5 -161.5t188.5 -65.5q121 0 195.5 59t74.5 163.5t-75.5 169t-194.5 64.5t-189.5 -60t-70.5 -169z" />
<glyph unicode="@" horiz-adv-x="1454" d="M86 768q4 2 0 27.5t7 67.5t28.5 82t63.5 72t111.5 38t110 -13.5t56.5 -42.5l10 -22q2 10 8 24.5t36 38t71 23.5q119 0 145 -199l4 -57q4 -84 -9 -144.5t-34.5 -86t-44 -38t-39.5 -12.5h-16q-10 0 -27.5 1t-48.5 23.5t-37 67.5q-2 -4 -4 -11t-17.5 -24.5t-34.5 -29.5 t-59 -19.5t-90 -1.5q-8 0 -20 2.5t-45 15.5t-58.5 35.5t-46 71t-20.5 111.5zM104 381q0 4 1 11t6.5 24.5t15.5 31t31.5 24.5t52.5 13q182 8 442 9.5t430 -2.5l170 -5q47 0 73 -24.5t26 -48.5l2 -27q0 -10 -2 -24.5t-22.5 -40t-55.5 -27.5q-158 -14 -509 -16.5t-560 10.5 q-45 2 -69.5 25.5t-29.5 45.5zM385 768q0 -37 37 -37t37 37q0 41 -37 41t-37 -41zM735 975q0 74 56.5 104.5t126.5 30.5q-2 6 -3.5 18.5t2 43t15.5 53t43 41t80 18.5q33 0 59.5 -9t40.5 -25.5t24.5 -35t13.5 -37t5 -35t2 -24.5l-2 -10q8 0 20.5 1t45 -4t57.5 -16.5t45 -41 t20 -72.5q0 -63 -44 -94t-89 -31h-43q2 -14 4.5 -36.5t-1 -80t-13.5 -101.5t-41 -80t-78 -36q-80 0 -116.5 48t-34.5 124t6 168q-8 -2 -21.5 -3t-48.5 0t-61.5 11t-48 38t-21.5 73z" />
<glyph unicode="A" d="M70 330v76q16 446 278 819q49 74 110.5 126t107.5 75.5t97.5 37t68 14.5t32.5 1t32.5 -1t67.5 -14.5t97.5 -37t107.5 -76t113 -125.5q260 -377 276 -819q3 -19 3 -41q0 -23 -5 -73q-6 -58 -22.5 -106.5t-57.5 -97.5t-102 -70q-18 -6 -51 -14q-22 -5 -66 -5q-22 0 -49 1 q-82 4 -143 41q-55 33 -97.5 83t-63 99t-29.5 80t-11 51q-2 -20 -11.5 -51t-30 -80t-62.5 -99t-97 -83q-61 -37 -139 -42q-23 -2 -43 -2q-49 0 -82 9l-45 12q-170 60 -184 312zM772 594q35 0 57.5 20.5t22.5 55.5t-21.5 60.5t-58.5 25.5q-35 0 -60 -27q-22 -23 -22 -50 q0 -85 82 -85z" />
<glyph unicode="B" horiz-adv-x="1368" d="M76 690q0 125 20.5 241t40.5 169l21 53q104 268 436 307q53 7 98 7q38 0 72 -5q109 -4 196 -34.5t134 -70.5t78.5 -80t41.5 -69l11 -26q17 -62 17 -117q0 -153 -130 -254q-33 -27 -59 -39q197 -59 241 -244l9 -59q1 -17 1 -33q0 -73 -23 -135q-28 -76 -75 -123 t-105.5 -83t-117.5 -53t-109.5 -27.5t-80.5 -12.5l-31 -2q-34 -2 -67 -2q-308 0 -472 174q-35 39 -49 68q-98 167 -98 450zM610 975q0 -88 82 -88q37 0 59.5 26.5t22.5 61.5q0 33 -21.5 55.5t-60.5 22.5q-35 0 -58.5 -22.5t-23.5 -55.5zM711 399q35 0 57.5 20.5t22.5 55.5 t-21.5 60.5t-58.5 25.5q-35 0 -61 -26q-22 -23 -22 -51q1 -85 83 -85z" />
<glyph unicode="C" horiz-adv-x="1423" d="M57 745v33q0 20 8.5 82t26 120t56 133t94 135.5t147.5 113.5t207 80q14 4 41 9t104 12q54 5 107 5q22 0 45 -1q74 -3 171 -27.5t177 -71.5q8 -4 21.5 -14.5t42 -46t46 -75.5t17.5 -105.5t-31 -135.5q-2 -4 -5 -9l-14 -22.5t-25.5 -29.5t-41 -29.5t-58.5 -25t-77 -11.5 q-11 -1 -23 -1q-35 0 -75 9q-8 2 -23.5 4.5t-55.5 1.5t-70.5 -11.5t-57.5 -40t-29 -78.5v-20q0 -11 11.5 -41t33 -50.5t72.5 -33.5q32 -8 72 -8q25 0 53 3q6 2 18.5 3t46 1t65.5 -4t72 -18.5t69.5 -38t54 -66.5t30.5 -100q2 -8 2 -23.5t-5 -57.5t-19.5 -80t-50 -83 t-88.5 -74q-10 -6 -30 -15t-87.5 -27.5t-145.5 -26.5q-33 -3 -73 -4q-56 0 -128 7q-124 11 -257 48q-10 2 -26.5 7t-63 28.5t-89.5 55.5t-94 89t-87 127t-59 174q-22 96 -22 206v19z" />
<glyph unicode="D" horiz-adv-x="1400" d="M82 610v29q0 127 11 253t22 187l12 62q16 94 65.5 161.5t107.5 95t115 41.5q49 12 83 11h10h37h17q137 0 254 -31q124 -33 197.5 -79t126 -92t72.5 -79l19 -32q8 -12 19.5 -34t36 -97.5t35.5 -158.5q7 -48 7 -112q0 -46 -4 -101q-8 -130 -47 -265q-35 -123 -120 -208 t-181 -119t-187 -51q-82 -16 -138 -16h-13l-59 2q-90 0 -167 17.5t-122 44.5t-78 52.5t-45 43.5l-12 19q-35 59 -52.5 150t-19.5 149.5t-2 156.5zM629 700q0 -76 82 -75q35 0 57.5 20.5t22.5 55t-21.5 60t-58.5 25.5q-82 0 -82 -86z" />
<glyph unicode="E" horiz-adv-x="1368" d="M75 658q1 187 17 327l17 139q45 262 378 320q83 15 158 14q30 0 57 -2q172 -4 294 -32.5t174.5 -66.5t79 -74t26.5 -62v-25q2 -92 -53.5 -153.5t-135 -84t-160.5 -31.5q-56 -6 -100 -7q-19 0 -36 2l-58 2q248 -41 279 -174l2 -43q0 -76 -55.5 -129.5t-110.5 -69.5 l-55 -14h24q361 0 445 -179q19 -38 19 -70q0 -6 -1 -12q-10 -186 -358 -237q-88 -13 -163 -13q-11 0 -22 1q-15 0 -30 -1q-104 0 -192 13q-101 14 -164.5 39.5t-112 58.5t-73 66t-39.5 59.5t-20 42.5l-2 19q-30 184 -29 365v12z" />
<glyph unicode="F" horiz-adv-x="1306" d="M51 732.5q0 195.5 15 309.5l16 115q49 268 412 328q89 14 168 13q40 0 77 -3q147 -8 254 -39t154 -68.5t71.5 -75.5t26.5 -63v-24q0 -7 1 -14q0 -187 -267 -238q-83 -16 -165 -16q-24 0 -48 1q217 -31 252 -159l4 -39q0 -170 -205 -219q-51 -14 -92 -15q21 -113 21 -197 q0 -48 -7 -87q-18 -109 -69.5 -160t-105.5 -70q-49 -17 -88 -16h-9l-43 4q-219 0 -311 250q-25 68 -31 125q-31 162 -31 357.5z" />
<glyph unicode="G" horiz-adv-x="1544" d="M18 723q0 23 1 60.5t27 142t73 193.5t156.5 185.5t261.5 145.5l47 11q31 7 118 14q31 2 62 2q55 0 107 -8q81 -11 183.5 -56t178.5 -125q4 -6 12 -15t24.5 -41t24.5 -67q5 -23 6 -53q0 -15 -2 -33q-4 -51 -26 -102q-2 -6 -9.5 -17.5t-35 -35t-64.5 -35.5q-28 -9 -72 -9 q-15 0 -31 1q-67 4 -147 34q-10 4 -28.5 8.5t-63.5 6.5h-12q-37 0 -69 -10q-36 -12 -64.5 -56.5t-30.5 -118.5q0 -6 1 -15t6 -34.5t14.5 -48t29 -46t46.5 -37.5q26 -12 66 -12h6q44 1 99 19q-55 25 -75 63q-15 27 -15 47q0 8 2 15l9 27q16 45 102 64q78 18 160 18h17 q91 -2 173 -14q41 -6 74 -23.5t45 -30.5l12 -14q45 -57 59 -205q8 -83 7 -157q0 -57 -4 -109l-11 -119q-4 -61 -27.5 -107t-54 -66.5t-60.5 -33t-50 -12.5l-21 -2q-104 0 -173.5 47t-67.5 158q-55 -70 -179 -110q-70 -23 -157 -22q-66 0 -141 13l-29 6t-73 23.5t-103 49 t-108.5 86t-102.5 129.5t-73 185.5t-30 245.5z" />
<glyph unicode="H" horiz-adv-x="1568" d="M71 785q3 165 15 251l12 88q2 14 6.5 37t27 82.5t53 105.5t91 82.5t134.5 36.5q100 0 171.5 -48t102.5 -116.5t48.5 -137t17.5 -117.5v-48h77v27q0 16 6.5 65.5t16.5 93.5t35.5 98t60.5 93t93.5 65.5t129.5 26.5q6 0 16.5 -1t40 -9t57.5 -22.5t63.5 -44t63.5 -70.5 t51.5 -108.5t33.5 -149.5q20 -172 20.5 -350t-10.5 -273l-10 -92q-2 -14 -5 -38.5t-24.5 -86t-53.5 -109.5t-95.5 -86t-147.5 -38q-92 2 -159.5 50t-99 116.5t-50 136t-20.5 115.5l-4 49h-76q-2 -18 -5 -50t-24.5 -111t-55.5 -140.5t-102.5 -111.5t-158.5 -50h-17 q-10 0 -41.5 6t-60.5 18.5t-65.5 41t-65.5 68.5t-51.5 105.5t-28.5 147.5q-14 200 -14 349q1 27 1 53z" />
<glyph unicode="I" horiz-adv-x="860" d="M63 657q-1 48 0 90q0 84 3 146l6 94q0 10 1 26.5t10 63.5t22.5 90t41 95.5t65.5 90.5t97.5 64.5t130.5 26.5q12 0 32 -2t72 -23.5t95 -59.5t84 -120t55 -195q20 -170 20.5 -347t-10.5 -269l-10 -92q-2 -14 -5 -39t-25.5 -85t-55.5 -107.5t-99.5 -85t-152.5 -37.5 q-94 2 -165.5 47t-107.5 108.5t-57.5 127t-25.5 108.5l-4 43q-15 98 -17 241z" />
<glyph unicode="J" horiz-adv-x="1120" d="M72 312q35 89 114 96q160 31 172 114q-8 96 -10 222q-1 63 -1 114t1 90v78v24q0 15 6 60t16.5 86t35 90t56.5 85t86 61.5t120 25.5q8 1 20 2q6 0 13 -1q22 -1 78.5 -18.5t101.5 -51t86 -113.5t49 -193q14 -164 16 -314q1 -50 1 -91q0 -82 -3 -129l-4 -68q0 -27 -6 -71.5 t-46 -150t-110 -173.5q-68 -66 -223 -93q-66 -12 -133 -12q-92 0 -187 22q-165 38 -237 147q-27 42 -27 89q0 35 15 73z" />
<glyph unicode="K" horiz-adv-x="1499" d="M81 604q-3 41 -3 92t3 112q5 122 23 239q49 315 248 395q47 18 84 18q12 0 24 1q103 0 174 -33q79 -36 107.5 -88t38.5 -104q6 -33 7 -59q0 -16 -3 -30l-6 -39q2 14 9.5 36.5t42 81t83.5 101.5q57 49 117 67q39 11 71 11q17 0 33 -3q44 -9 80.5 -25.5t55.5 -33.5l18 -16 q87 -88 87 -191q0 -115 -109 -249q-59 -74 -123 -123q104 -113 170.5 -214t89 -173t25.5 -131q0 -9 1 -18q0 -48 -15 -78q-17 -37 -36.5 -64t-38.5 -37l-16 -10q-97 -59 -188 -59q-156 0 -295 172q-74 90 -113 184q3 -19 3 -37q0 -21 -6 -67q-7 -52 -27.5 -96t-73 -86 t-129.5 -56q-35 -7 -67 -7q-176 0 -269 199q-29 61 -39 117q-4 12 -8.5 37t-14.5 103.5t-15 160.5z" />
<glyph unicode="L" horiz-adv-x="1333" d="M71 690l-2 84q0 129 13 221l16 123q16 98 56.5 169t84.5 100.5t85 47t69 17.5h27h11q121 0 197 -84q79 -88 100.5 -217t23.5 -258v-36q0 -106 -11 -185l-14 -90q98 51 181 70q54 13 97 13q22 0 41 -3q54 -10 98 -36t67.5 -62t40 -66.5t22.5 -53.5l4 -22q0 -16 4 -47 q1 -7 1 -15q0 -25 -10 -56q-13 -40 -30.5 -83t-61.5 -85t-100.5 -75.5t-148.5 -56t-205 -27.5h-26q-126 0 -231 36q-116 40 -178.5 100.5t-104.5 121t-56 103.5l-12 43q-43 125 -48 309z" />
<glyph unicode="M" horiz-adv-x="2021" d="M61 420q0 197 39 385t76 278l39 91q109 250 338 288q34 5 61 6q13 0 25 -2q106 0 183 -45t111 -110.5t53.5 -131t21.5 -110.5v-45q0 10 2 25.5t13 62.5t26.5 89t46 93.5t68.5 88t97.5 62t131.5 25.5q207 0 354 -233l43 -80q133 -307 147 -696v-29q1 -22 1 -42 q0 -103 -25 -180q-31 -93 -77 -134t-92 -63.5t-81 -24.5h-33q-279 0 -375 352q-39 146 -39 285q0 7 1 14q-6 -90 -30 -152.5t-51.5 -89t-54 -41t-45.5 -12.5h-18q-59 0 -104.5 31t-68 75t-35.5 88t-15 74l-2 31q0 -135 -19.5 -244.5t-50.5 -176t-69 -116t-75.5 -71 t-68.5 -33.5t-51 -14h-19q-283 0 -358 260q-22 75 -22 141q0 16 1 31z" />
<glyph unicode="N" horiz-adv-x="1685" d="M68 641q0 227 22 358l23 131q2 12 8 34t33.5 77t65.5 99t110.5 81t163.5 41q12 1 24 1q80 0 146 -24q76 -28 121.5 -75t80.5 -105.5t51.5 -118t26.5 -108.5t10 -80l2 -30v23q0 100 16 182q17 91 46 144.5t63.5 92.5t70.5 54.5t64.5 23.5t47.5 8l18 -2h11q65 0 118 -22 q57 -24 86 -57.5t48.5 -69t23.5 -60.5l6 -25q38 -200 38 -407q0 -223 -44 -453l-10 -51q-55 -258 -244 -301q-31 -8 -58 -8q-13 0 -26 2h-10q-291 0 -428 344q-55 139 -68 266q3 -51 3 -97q0 -390 -200 -489q-54 -27 -104 -26q-15 0 -29 2h-11q-59 0 -108 20 q-53 23 -81.5 56.5t-49 68.5t-26.5 60l-6 22q-45 191 -45 418z" />
<glyph unicode="O" horiz-adv-x="1531" d="M68 670q0 539 378 708q149 66 302 66q28 0 57 -2q426 0 586 -373q70 -164 69 -321q0 -158 -35.5 -285t-94 -205t-128 -136.5t-139.5 -85t-128 -40.5t-95 -16l-35 -3q-150 0 -272.5 38t-197.5 99.5t-130 135.5t-80 147.5t-39 135t-16 98.5zM774 623q35 0 57.5 20.5 t22.5 55t-21.5 60t-58.5 25.5q-35 0 -60 -26q-22 -23 -22 -51q0 -84 82 -84z" />
<glyph unicode="P" horiz-adv-x="1509" d="M158 1032l20 68q41 119 120 201.5t163 115.5t162 48q69 14 115 14h12l49 -2q170 -6 297 -62.5t186 -133.5t93 -152.5t38 -129.5l6 -51q0 -14 1 -28q0 -106 -28 -190q-32 -95 -86.5 -149.5t-122 -92t-135 -50t-123.5 -18.5q-34 -4 -60 -4q-17 0 -31 2l-35 2 q16 -79 16 -140q0 -30 -4 -57q-12 -78 -49 -122t-77 -64.5t-71 -24.5l-30 -6q-25 -2 -48 -2q-209 0 -325 197q-29 51 -41 92q-57 190 -57 387q1 173 45 352zM795 827q35 0 57 20.5t22 55.5t-21.5 60.5t-57.5 25.5q-35 0 -61 -26q-22 -23 -22 -51q1 -85 83 -85z" />
<glyph unicode="Q" horiz-adv-x="1705" d="M117 662q0 137 25.5 250.5t69.5 190.5t100.5 137t120 95t126 58.5t118.5 31t100 11.5q29 3 51 2h20l24 -2q436 0 601 -375q72 -166 71 -324q0 -180 -65 -315q51 -39 81.5 -72t57.5 -81q19 -35 19 -76q0 -16 -3 -32q-10 -60 -55 -130q-53 -80 -125 -111q-49 -21 -93 -21 q-21 0 -41 5q-62 14 -112.5 47t-72.5 72q-139 -59 -263 -60q-489 0 -673 373q-80 164 -82 326zM872 596q35 0 57.5 20.5t22.5 55.5t-21.5 60.5t-58.5 25.5q-35 0 -60 -27q-22 -23 -22 -50q0 -85 82 -85z" />
<glyph unicode="R" horiz-adv-x="1406" d="M73 645q0 21 -1 41q0 174 24 264l27 99q33 125 105.5 213t152.5 123.5t156 53.5q68 16 114 15h11l49 -2q135 0 241.5 -41t162.5 -97.5t93 -113.5t47 -98l11 -39q11 -68 11 -128q0 -17 -1 -33q-4 -73 -22.5 -129t-38 -94t-35.5 -58l-15 -21q207 -176 207 -339 q0 -63 -31 -124q-31 -63 -79 -100q-87 -63 -164 -63h-16q-83 7 -151.5 68.5t-117.5 132.5t-76 128l-26 59q8 -46 7 -87q0 -46 -9 -87q-18 -76 -54.5 -112.5t-75 -59t-67.5 -28.5l-29 -4q-25 -3 -48 -4q-175 0 -267 174q-23 43 -31 75q-61 211 -64 416zM711 760 q35 0 57.5 20.5t22.5 55t-21.5 60.5t-58.5 26q-35 0 -61 -27q-22 -23 -22 -50q1 -85 83 -85z" />
<glyph unicode="S" horiz-adv-x="1280" d="M72 283q-2 100 46 165.5t115.5 88t136.5 30.5q39 5 72 5q25 0 45 -3l48 -6q-133 31 -223.5 93.5t-125 130t-50.5 131.5q-12 50 -12 86q0 10 1 18l4 41q41 285 301 362q75 21 141 21h21q38 2 73 1q100 0 180 -12q108 -17 165 -47t88.5 -73t39.5 -81q5 -24 4 -50 q0 -14 -1 -29q-8 -76 -64.5 -126t-130.5 -66.5t-146 -22.5q-44 -4 -80 -4q-24 0 -44 2l-49 4q125 -16 224 -50t158.5 -75t102.5 -87t61.5 -88t27.5 -77t9 -55v-21q0 -100 -29.5 -183t-76.5 -133t-103.5 -88t-113 -56.5t-103.5 -28.5t-75 -12h-31q-53 -3 -101 -4 q-67 0 -125 7q-101 11 -163 35.5t-107 57.5t-65.5 67.5t-31.5 64.5t-11 48z" />
<glyph unicode="T" horiz-adv-x="1507" d="M74 1120q0 207 194 283q41 16 76 20q210 43 437 44q193 0 399 -31l41 -6q193 -41 231 -205l6 -60q-8 -244 -239 -291q-51 -11 -98 -10q-23 0 -46 2q31 -184 31 -346t-16 -231l-15 -70q-14 -72 -49 -123t-73 -72.5t-73.5 -32.5t-60.5 -11h-22q-2 4 -26 -2q-7 -1 -14 -1 q-21 0 -51 10q-42 13 -83 32.5t-79 72.5t-55 127q-27 123 -26.5 280.5t12.5 254.5l14 96q-8 0 -23 -1t-58 0t-82 8t-87.5 25.5t-83 46t-58 78t-23.5 113.5z" />
<glyph unicode="U" horiz-adv-x="1570" d="M61 1028l15 117q49 254 246 303q38 9 71 9q11 0 21 -1q10 0 28.5 -2t63.5 -18.5t80 -46t63.5 -93t28.5 -151.5q0 -31 -1 -76t-1 -74v-66q0 -38 2 -62.5t5 -53.5t9 -45t15.5 -31.5t21.5 -22.5t29 -7q66 0 78 132q6 66 6 142.5t-6 163.5q0 7 -1 14q0 219 191 271 q45 13 83 12h11q14 1 28 1q196 0 282 -167l22 -59q36 -185 36 -345q0 -24 -1 -48q-6 -179 -33 -296l-27 -116q-4 -18 -15 -48t-61.5 -107t-116 -135.5t-186.5 -106.5q-117 -46 -258 -46h-12q-346 4 -536 217q-37 43 -54 74q-134 229 -134 591q0 85 7 177z" />
<glyph unicode="V" horiz-adv-x="1650" d="M129 778q-70 200 -70 343q0 289 287 339q31 6 61 6q79 0 148 -40q94 -54 148.5 -144t91 -184t49.5 -162l14 -68q2 14 5 39t19.5 95.5t39 132t64.5 134t92 121t128 71.5q42 13 87 13q39 0 81 -10q234 -51 234 -339q0 -61 -11 -132q-23 -162 -79 -303l-28 -76 q-17 -47 -80.5 -167.5t-134.5 -213t-183.5 -168t-233.5 -75.5q-463 0 -729 788z" />
<glyph unicode="W" horiz-adv-x="2072" d="M90 1018q-1 23 -1 44q0 288 204 374q59 27 113 26q123 0 212 -68.5t127.5 -166t60 -195.5t21.5 -168l2 -67q-1 15 0 29q0 222 150 270q33 12 59 10q178 -2 222 -209q11 -47 10 -87v-13q0 479 237 622q70 43 129 43h8q256 0 332 -268q27 -86 27 -165v-11q0 -395 -133 -711 l-15 -28q-39 -86 -97 -148.5t-112.5 -89.5t-104.5 -42t-79 -15h-30q-274 0 -357 270q-25 86 -25 161q0 6 1 11q-2 -18 -6.5 -48t-31 -106.5t-65.5 -136t-117.5 -107.5t-179.5 -48q-78 0 -148.5 32.5t-116.5 78.5t-81 91t-51 78l-14 33q-66 150 -104 331t-42 287z" />
<glyph unicode="X" horiz-adv-x="1705" d="M36 1129q-1 11 -1 22q0 51 27 110q34 71 114 134q109 80 206 80t178 -58.5t139.5 -128t91.5 -127.5l32 -57q6 12 15.5 33.5t42 78t69.5 102.5t93.5 92t113.5 64q27 8 58 8q35 0 75 -11q76 -19 152 -85q84 -74 101 -168q6 -31 6 -62q0 -62 -24 -118q-36 -84 -84 -156.5 t-91 -115.5l-43 -43q10 -6 25.5 -19.5t58.5 -54.5t75.5 -84t62.5 -105.5t35 -121.5q1 -9 0 -19q0 -52 -23 -111q-28 -71 -93 -134q-92 -88 -190 -98q-17 -2 -32 -1q-77 0 -139 37q-74 45 -139 117t-101 130t-48 93q-6 -12 -15.5 -33.5t-42 -79t-68.5 -104.5t-92.5 -93 t-112.5 -62q-25 -7 -53 -8q-35 0 -76 12q-73 20 -146 88q-94 88 -113 189q-6 32 -6 62q0 65 27 121q40 82 93.5 151t100.5 105l49 39l-32 21q-19 12 -69 54t-90 85t-75 106.5t-42 123.5z" />
<glyph unicode="Y" horiz-adv-x="1622" d="M98 1112q-4 34 -4 66q0 61 16 111q24 77 67.5 115t88.5 60.5t78 26.5l35 6q15 1 29 1q86 0 159 -32q86 -37 136.5 -93t85 -113.5t47.5 -98.5l14 -41q23 86 57.5 151.5t71.5 103.5t76 63.5t73.5 34t61.5 11.5t43 1l16 -2q72 -8 125 -34t81 -58.5t45.5 -71.5t21.5 -76 t4 -67.5t-4 -49.5l-4 -18q-55 -240 -301 -397l-72 -41q39 -125 38 -239q0 -146 -63 -273l-24 -43q-88 -121 -246 -121q-78 0 -141.5 23.5t-87.5 48.5l-25 22q-49 55 -75.5 133t-30.5 152q-2 37 -1.5 71.5t1.5 66.5q3 65 12 103l8 41q-14 6 -40 18.5t-92.5 54.5t-118.5 90 t-100.5 128t-60.5 166z" />
<glyph unicode="Z" horiz-adv-x="1488" d="M74 1108v18q0 12 10 48t29.5 68t66.5 70t112.5 64.5t174.5 43.5q97 16 217 16h29q328 -6 452 -79q106 -62 106 -181q0 -22 -3 -46q-2 -10 -7.5 -30.5t-29 -82t-57 -121.5t-100 -145t-148.5 -159q10 2 28.5 4t69.5 2t98 -5t104.5 -23.5t98.5 -48t69.5 -84t28.5 -126.5 q0 -74 -22.5 -130t-53 -93t-88 -61.5t-102.5 -38t-124 -19.5t-123 -7t-126 -1q-289 0 -391 23q-197 45 -250 204q-16 53 -15 104q0 42 10 83q24 90 83.5 168t122 136t109.5 91l47 33q-8 0 -23.5 -1t-60.5 2t-85 12t-89 30.5t-84 53.5t-59.5 85t-24.5 123z" />
<glyph unicode="[" horiz-adv-x="1263" d="M123 566q-2 302 4 550l4 248q-14 147 66 268q12 29 67 69t101 54q131 41 333.5 48t356.5 -25q78 -16 118.5 -52t43.5 -63v-29v-13q0 -9 -8.5 -30.5t-25 -41t-53 -38t-88.5 -26.5q-47 -8 -372 -29q4 -18 6 -58t4 -52q16 -358 9 -734t-19 -567q160 14 354 0q53 -4 91 -20.5 t54.5 -38t24.5 -42t6 -34.5v-14v-17q0 -10 -8 -36.5t-24.5 -48t-54.5 -45t-91 -34.5q-315 -59 -563 -6q-86 18 -150.5 71.5t-95.5 115t-48.5 121t-21.5 98.5l-2 39q-16 110 -18 412z" />
<glyph unicode="\" horiz-adv-x="1013" d="M136 1470.5q7 38.5 23.5 60t35 33t30.5 13.5l15 2q6 2 17 5t41 2t57.5 -11t60.5 -41t53 -82q92 -221 238.5 -675.5t169.5 -649.5q8 -76 -20 -124t-58 -60l-33 -11q-4 -2 -13.5 -4t-35 -1t-48 9.5t-50 34t-48.5 66.5q-39 86 -98 229.5t-177 498.5t-159 607q-8 60 -1 98.5z " />
<glyph unicode="]" horiz-adv-x="1191" d="M23 -101q0 9 8 30.5t24.5 41t53 38t88.5 26.5q47 8 372 28q-4 18 -6 58.5t-4 52.5q-16 358 -9 734t19 567q-160 -14 -354 0q-53 4 -91 20t-54.5 37.5t-24.5 42t-8 35.5l2 14v16q0 10 8 37t24.5 48.5t54.5 45t91 33.5q315 59 563 6q86 -18 150.5 -71t95.5 -114.5 t48.5 -121t19.5 -98.5l4 -39q16 -111 18 -413t-2 -550l-6 -247q14 -147 -66 -269q-12 -29 -67 -68.5t-101 -54.5q-131 -41 -333.5 -48t-356.5 26q-78 16 -118.5 52t-40.5 63l-2 28v14z" />
<glyph unicode="^" horiz-adv-x="1300" d="M76 956.5q-10 96.5 41 159.5l18 27q16 25 44 61l65 83q37 46 84 91t97 82t107.5 60.5t112.5 23.5q72 0 154 -44t145.5 -104.5t119.5 -126t84 -105.5t32 -48q49 -66 28.5 -167t-102.5 -152q-90 -51 -168 -31t-135 98q-59 76 -154 164q-117 -119 -200 -221 q-4 -6 -14.5 -15.5t-41.5 -26.5t-63.5 -23.5t-82.5 9t-100 56.5q-61 53 -71 149.5z" />
<glyph unicode="_" horiz-adv-x="1404" d="M125 115q4 2 0 16t6 41t26.5 52.5t59.5 48t102 30.5q174 25 380 25t325 -13l117 -12q156 -16 180 -133l4 -29q-2 -2 1 -15t-5 -38t-19.5 -48.5t-44 -45t-77.5 -29.5q-150 -25 -409 -29t-458 15q-84 8 -131 49t-51 78z" />
<glyph unicode="`" horiz-adv-x="770" d="M116.5 1394q-10.5 48 5 81.5t40.5 60.5q27 25 46 36t64 18t101 -17q63 -20 147 -77.5t119 -102.5q2 -4 7 -9.5t14.5 -24t14.5 -35.5t5 -43t-12 -48q-41 -82 -154 -62l-6 3l-65 11q-40 7 -129 41t-140 79q-47 41 -57.5 89z" />
<glyph unicode="a" horiz-adv-x="1441" d="M60 500q0 21 5 69q5 57 17 110.5t43 120t76 116t120.5 88t174.5 47.5q33 3 63 3q49 0 91 -8q69 -13 106 -39t61.5 -51.5t32.5 -46.5l8 -18l6 18q4 12 22.5 42t42 53.5t67.5 42t96 18.5q86 0 148.5 -54.5t92 -131t46 -152.5t18.5 -129l2 -55q2 -42 2 -82q0 -79 -8 -146 q-12 -100 -38 -159.5t-58.5 -101.5t-65.5 -59.5t-62 -25.5q-23 -7 -39 -6h-8h-16h-23q-14 0 -50 8.5t-65.5 26.5t-58 59t-37.5 99q-2 -8 -8 -23.5t-34.5 -51.5t-70.5 -60.5t-122 -39.5q-44 -9 -96 -9q-41 0 -86 5q-16 0 -43 4.5t-94.5 32t-119 73.5t-94.5 144.5t-43 229.5 q0 4 -0.5 18t-0.5 21zM768 408q35 0 57.5 20.5t22.5 55t-21.5 60t-58.5 25.5q-35 0 -60 -26q-22 -23 -22 -51q0 -84 82 -84z" />
<glyph unicode="b" horiz-adv-x="1392" d="M51 708q-2 54 -1 105q0 78 3 151q6 122 19 197l12 76q2 14 7 37.5t27.5 84t55.5 104.5t95 77q53 28 118 28q12 0 25 -1q98 -8 157.5 -70.5t73.5 -145.5t15 -164q0 -7 1 -15q0 -72 -10 -123l-10 -56q12 6 35.5 14.5t92.5 19.5q44 7 87 7q24 0 47 -2q66 -6 152 -47 t153 -119q86 -98 101 -272q3 -34 2 -66q0 -132 -47 -231q-41 -88 -103.5 -152.5t-105.5 -83.5l-41 -20q-155 -63 -304 -63q-84 0 -166 20q-228 55 -345 207q-68 90 -105 229.5t-41 273.5zM690 430q35 0 57.5 20.5t22.5 55.5t-21.5 60.5t-58.5 25.5q-35 0 -60 -27 q-22 -23 -22 -50q0 -85 82 -85z" />
<glyph unicode="c" horiz-adv-x="1167" d="M78 522q0 16 1 45t19.5 107t52 144.5t111.5 135t184 101.5l40 11q26 7 99 15q45 5 88 5q27 0 54 -2q70 -5 157 -37.5t152 -94.5l11 -10q6 -6 21 -30.5t24 -51.5q7 -24 7 -60q0 -49 -18 -98q-2 -6 -8 -16t-27.5 -37.5t-53 -42t-85.5 -27.5q-22 -6 -47 -6q-34 0 -74 11 q-6 2 -15 4t-33.5 4t-44 -1t-35 -20.5t-15.5 -46.5q0 -4 1 -10t9.5 -21.5t21.5 -23.5t43 -8t70 16q4 2 11.5 5t31 8.5t47 7.5t56.5 -1t61.5 -15.5t59 -39t55.5 -65.5l10 -21q6 -12 13 -50q3 -19 3 -38t-3 -38q-6 -38 -37 -87t-88 -90q-10 -8 -31 -20.5t-89.5 -38 t-141.5 -35.5q-29 -4 -64 -4q-53 0 -120 9q-112 15 -222 65q-10 4 -27.5 14t-63.5 51t-80 91.5t-62.5 140.5t-28.5 196z" />
<glyph unicode="d" horiz-adv-x="1544" d="M84 488v20q0 91 34 190q38 111 113 183q70 66 157 102.5t161 40.5q33 2 63 2q38 0 74 -3q63 -5 100 -15l35 -13q-4 23 -9 60q-4 26 -4 82q0 22 1 50q2 95 21.5 167.5t81 132t159.5 59.5q86 0 152.5 -39t99.5 -94t54.5 -110.5t25.5 -94.5l4 -39q6 -43 11 -115q2 -23 2 -57 q0 -76 -8 -207q-11 -191 -54 -344q76 -37 105 -109q19 -47 19 -95q0 -26 -5 -53q-16 -75 -66 -128q-29 -31 -63.5 -47t-67.5 -19q-16 -2 -33 -2l-33 2q-33 3 -59.5 12t-48 18.5t-33.5 15.5l-12 6q-160 -82 -372 -90q-21 -1 -41 -1q-186 0 -320 69q-6 4 -18.5 11t-45.5 31.5 t-60.5 53.5t-56 77t-41.5 99q-18 92 -22 191zM811 408q35 0 57.5 20.5t22.5 55t-21.5 60t-58.5 25.5q-35 0 -60 -26q-22 -23 -22 -51q0 -84 82 -84z" />
<glyph unicode="e" horiz-adv-x="1198" d="M63 535q0 16 2.5 42.5t20.5 101.5t50 138.5t102.5 131t164.5 102.5l40 11q26 7 103 16q49 6 96 6q26 0 52 -2q72 -5 165 -39.5t167 -100.5q12 -10 30.5 -31.5t51.5 -96.5t33 -159q0 -100 -62.5 -161.5t-152.5 -72.5q-40 -5 -82 -5q-53 0 -109 8q51 -41 124 -58.5 t124 -19.5t94 -30.5t51 -94.5q0 -6 1 -16t-4 -38t-18 -53.5t-45 -55t-79 -48.5q-12 -4 -34.5 -10t-93.5 -17.5t-142 -12.5h-9q-69 0 -165 16q-102 16 -195 53q-12 4 -31.5 14t-69.5 50t-88 91.5t-67 142.5q-25 80 -25 171q-1 14 0 27zM682 522q35 0 57.5 20.5t22.5 55.5 t-21.5 60.5t-58.5 25.5q-35 0 -60 -27q-22 -23 -23 -50q1 -85 83 -85z" />
<glyph unicode="f" horiz-adv-x="1312" d="M68 893q-2 76 49 120t116 47q18 1 36 1q46 0 87 -6q0 8 -1 22.5t2 57.5t12.5 85t35 98t62.5 105q4 4 11 12.5t33 31t55.5 41t80.5 37t108 26.5q35 5 78 5q27 0 57 -2q79 -5 163 -28q6 -2 17 -6t40 -19.5t49.5 -35t35.5 -52.5q11 -24 11 -52q0 -11 -2 -23q0 -6 -1 -14.5 t-9 -31t-21.5 -40t-42.5 -30.5q-25 -12 -55 -11h-10h-10q-6 0 -24.5 -4t-34 -10.5t-31 -21.5t-23.5 -36q-2 -4 -4 -11t-5 -36t-1 -61q12 4 31.5 9t69.5 8q13 1 25 1q36 0 65 -7q40 -9 74 -45q36 -38 36 -109q0 -55 -23 -93q-25 -41 -63.5 -54t-76.5 -19q-21 -3 -39 -2 q-15 0 -27 1l-27 2q2 -16 6 -42.5t9 -106.5q4 -57 4 -111q0 -21 -1 -42q-2 -73 -18 -160.5t-47 -153.5t-90.5 -111t-141.5 -49h-22q-88 0 -149 29q-69 33 -103.5 98.5t-52 161.5t-17.5 219t2 268q-10 -4 -29.5 -8t-67.5 -6h-16q-39 0 -70 8q-38 10 -69.5 50t-35.5 106z" />
<glyph unicode="g" horiz-adv-x="1392" d="M105 389q-11 60 -10 116q0 90 28 169q33 90 88 162.5t92 101.5l39 27q165 88 340 87q50 0 100 -6q229 -32 373 -167q208 -197 208 -601q0 -46 -3 -96q-6 -115 -23 -194q-80 -455 -473 -541q-94 -21 -187 -21q-110 0 -220 29q-76 27 -120 68t-53 81q-8 36 -9 68 q0 41 12 66l10 20q48 105 199 105h22l25 -2q68 2 116 19.5t68.5 40t31.5 44t11 35.5v16q-14 -4 -38.5 -8t-95.5 -8q-24 -1 -47 -1q-46 0 -89 5q-66 8 -143.5 41t-133.5 92q-90 94 -118 252zM743 369q35 0 57.5 20.5t22.5 55t-21.5 60t-58.5 25.5q-35 0 -60 -26 q-22 -23 -22 -51q0 -84 82 -84z" />
<glyph unicode="h" horiz-adv-x="1497" d="M74 729v33q0 233 26 461q0 14 3 35.5t21.5 78t48.5 99.5t92 77q59 33 137 33h10q334 -6 333 -505q0 -37 -2 -76l22 11q13 7 56 22.5t86 25.5t102 11h8q54 0 100 -12q50 -13 104.5 -51t94.5 -98.5t69.5 -164t39.5 -238.5q0 -3 1 -15t1 -18q0 -17 -3 -51q-3 -45 -10 -87 t-27.5 -95t-50 -94t-82 -75t-117.5 -46h-80q-213 18 -260 203q-8 37 -11 79q-18 289 -71 289q9 -106 8 -185q0 -69 -6 -118q0 -10 -4 -29.5t-22.5 -66.5t-48.5 -83t-90 -65.5t-140 -29.5q-215 0 -291 202q-16 45 -21 82q-6 45 -15 128t-11 333z" />
<glyph unicode="i" horiz-adv-x="796" d="M83 511q5 83 14 152.5t18 110.5l10 39q18 70 55 120t75 72.5t74 35t58 12.5h23q10 1 20 0q58 0 107 -20q57 -24 88.5 -59.5t52 -72.5t27.5 -63l8 -27q6 -25 15 -72t10 -203v-11q0 -152 -27 -318q-12 -68 -46 -118t-74 -71.5t-78 -34t-62 -12.5l-27 -2h-15 q-179 0 -259 142l-17 36q-31 84 -43 183q-9 69 -9 131q0 26 2 50zM127 1307q-1 12 -1 23q0 76 57 140q67 74 169 84q16 2 31 2q84 0 152 -49q80 -57 88 -149q1 -12 1 -24q0 -76 -58 -140q-67 -74 -167 -84q-16 -2 -31 -2q-85 0 -152 49q-79 58 -89 150z" />
<glyph unicode="j" horiz-adv-x="1052" d="M86 -406q-2 15 -2 29q0 111 104 148l23 6q98 14 106 241v39q4 45 5.5 264.5t13.5 477.5q8 190 201 233q42 11 76 11q6 0 12 -1q240 0 305 -178q14 -39 16 -69q8 -47 18 -132q8 -76 8 -284v-47q-1 -246 -38 -473q-4 -23 -12.5 -57.5t-51.5 -122t-102 -144.5 q-129 -127 -367 -127q-33 0 -69 2l-51 6q-55 8 -95.5 30t-58.5 46.5t-28.5 48t-12.5 37.5v16zM452 1509q74 58 170 58h19q111 -4 184 -76q70 -68 70 -158v-10q-4 -94 -86 -159q-77 -61 -178 -60h-13q-109 6 -183 78q-71 68 -71 158q1 101 88 169z" />
<glyph unicode="k" horiz-adv-x="1511" d="M81 693v20q0 237 23 381l25 151q16 61 28.5 94t42 85.5t83 80t127.5 29.5h17q224 0 292 -252q21 -83 20 -157v-13q72 96 148 142q68 41 123 42q6 0 12 -1q59 -5 107.5 -23.5t74.5 -42.5l25 -23q73 -77 73 -172q0 -105 -90 -233q-37 -55 -73 -90q117 -74 204 -203t98 -258 q1 -12 1 -23q0 -114 -103 -190q-90 -61 -174 -62q-156 0 -299 207q-84 125 -131 260q0 -10 1 -27q0 -6 1 -16q0 -19 -2 -53q-2 -51 -10 -97t-31.5 -101.5t-57.5 -94.5t-93 -62q-51 -20 -115 -20h-22q-92 6 -160 74t-90 131l-23 64q-51 202 -52 453z" />
<glyph unicode="l" horiz-adv-x="806" d="M66 740q2 163 12 284l12 123q0 16 4 44t24.5 97.5t51.5 122.5t94.5 97t147.5 44q12 0 30.5 -1t68.5 -22.5t91 -62.5t79 -132t48 -218q13 -195 13 -361q0 -24 -1 -47q-2 -185 -12 -307l-10 -120q0 -12 -3 -34t-23.5 -76t-51.5 -95t-96 -74q-62 -31 -142 -31h-10 q-203 6 -282 281q-27 88 -31 162q-15 146 -15 290q1 18 1 36z" />
<glyph unicode="m" horiz-adv-x="2035" d="M80 365q-1 29 -1 56q0 42 2 83q3 68 18.5 154.5t42 154.5t77.5 127t119 84q117 37 208 41h18q81 0 148 -33q75 -37 127 -81t89 -102t56.5 -99t25.5 -70q8 29 25.5 67.5t54 95t87 98.5t121.5 79q70 36 157 36h5q90 -1 205 -32q113 -37 181.5 -133t87 -208t21.5 -219 q1 -22 0 -42q0 -80 -9 -135l-11 -72q-2 -10 -7 -26.5t-24.5 -58.5t-47 -73.5t-79 -58.5t-112.5 -27q-86 0 -150.5 43t-94 101.5t-47 128t-20.5 108.5t-1 60q0 -16 -2 -36t-11.5 -67t-22.5 -88t-40 -90t-61.5 -84t-88 -58.5t-116.5 -23.5q-88 0 -156 45t-102.5 103.5 t-57 133.5t-27.5 111.5t-8 61.5q2 -18 -1 -60.5t-19 -112t-45 -129t-88.5 -103.5t-138.5 -44q-70 0 -124.5 27t-82 64.5t-46 75.5t-22.5 65l-4 26q-2 14 -4 39t-4 97z" />
<glyph unicode="n" horiz-adv-x="1466" d="M77 489q-5 51 -5 102q0 74 10 148q0 12 4 33t22.5 75t48 96t88 79t136.5 41q22 1 43 1q57 0 102 -8q61 -11 99.5 -40t53.5 -48.5t36 -54.5q8 4 22.5 12.5t60.5 28t90 32.5t105 20q25 2 48 2q35 0 68 -6q54 -9 110.5 -42.5t98.5 -92t72.5 -160t41.5 -236.5q0 -3 0.5 -15 t0.5 -18q0 -17 -2 -51q-3 -45 -10.5 -87t-28 -95t-50 -94t-82 -75t-117.5 -46h-80q-213 18 -260 203q-8 37 -10 79q-18 289 -72 289q9 -106 9 -185q0 -69 -7 -118q0 -10 -4 -28.5t-22.5 -65.5t-48.5 -83t-90 -65.5t-140 -31.5h-8q-196 0 -279 200q-18 47 -25 84 q-6 20 -12 58t-17 163z" />
<glyph unicode="o" horiz-adv-x="1200" d="M43 481q0 129 33 230.5t86 161t116.5 100.5t127 57.5t116.5 23.5q41 6 71 5h15l33 -2q109 0 196 -29t140 -75t93 -100t58.5 -109.5t28.5 -101.5t10 -75l2 -28q0 -178 -63 -301q-39 -72 -103.5 -129.5t-109.5 -79.5l-45 -23q-49 -20 -100.5 -31.5t-79.5 -11.5l-27 -2 q-408 0 -547 305q-51 113 -51 215zM629 399q35 0 57.5 20.5t22.5 55.5t-21.5 60.5t-58.5 25.5q-35 0 -61 -26q-22 -23 -22 -51q1 -85 83 -85z" />
<glyph unicode="p" horiz-adv-x="1404" d="M57 110.5q0 139.5 15.5 263.5t65.5 270.5t132 240.5q94 106 250 156q119 38 245 39q39 0 78 -4q167 -15 298 -89l18 -12q12 -8 44 -35t59.5 -58.5t56.5 -82.5t43 -107q20 -65 20 -147q0 -77 -18 -169q-37 -189 -139 -274q-74 -61 -160 -91q-80 -28 -147 -28q-5 0 -9 1 q-70 2 -129 13t-92 26l-33 14q2 -12 6.5 -31.5t9.5 -77.5q4 -41 3 -79v-30q-2 -52 -15.5 -115.5t-41 -109t-83 -77t-131.5 -31.5q-215 0 -303 242q-23 63 -28 116q-4 29 -9.5 78t-5.5 188.5zM752 399q35 0 57 20.5t22 55.5t-21.5 60.5t-57.5 25.5q-35 0 -61 -26 q-22 -23 -22 -51q1 -85 83 -85z" />
<glyph unicode="q" horiz-adv-x="1478" d="M119 707q57 178 229 292l25 15q163 85 357 84q79 0 163 -14q291 -48 414 -220q66 -92 103.5 -234.5t44.5 -278.5q6 -106 6 -204q0 -28 -1 -55q-2 -123 -10 -198l-10 -76q-2 -12 -6 -34t-27 -77t-54.5 -96t-97 -76t-147.5 -35q-98 0 -163.5 56.5t-88 137.5t-32.5 163 q-6 57 -6 101q0 20 1 38l6 55q-12 -6 -34.5 -16t-90 -27.5t-133.5 -18.5h-5q-64 0 -148 25q-88 27 -162 88q-78 63 -121 174q-41 106 -41 210q0 110 29 221zM772 399q35 0 57.5 20.5t22.5 55.5t-21.5 60.5t-58.5 25.5q-35 0 -60 -26q-22 -23 -22 -51q0 -85 82 -85z" />
<glyph unicode="r" horiz-adv-x="1247" d="M52 483q-4 72 -4 132q0 80 7 139l13 102q16 74 54 125t81 73.5t83 35t66 12.5h27h12q56 0 104 -17q52 -18 79.5 -44.5t46 -55.5t22.5 -47l6 -20q39 55 90.5 90.5t96.5 46t85 13.5t62 -3l23 -4q59 -14 100 -46t60.5 -71t27.5 -71t8 -74q0 -72 -28 -130q-31 -62 -64 -85 l-31 -23q-76 -36 -143 -36q-13 0 -26 1q-79 8 -132 41l-53 33q13 -98 13 -180q0 -306 -185 -402q-65 -34 -128 -34q-13 0 -26 2q-6 0 -11 -1q-59 0 -108 19q-54 20 -85 49t-52.5 58.5t-29.5 52.5l-9 20q-43 131 -52 299z" />
<glyph unicode="s" horiz-adv-x="1148" d="M100 184q-2 76 37 132.5t96.5 82t116 40t99.5 16.5h40q-102 25 -175.5 63.5t-106.5 78.5t-50.5 76t-17.5 58v23q10 238 314 311q103 25 196 25h15q266 -6 361 -71q89 -61 89 -164v-13q-8 -180 -295 -195q-26 -1 -50 -1q-49 0 -93 5q133 -16 228 -58t136 -89t61.5 -92 t20.5 -76v-29q0 -100 -46 -175t-111.5 -110.5t-131 -57t-112.5 -25.5l-45 -2q-42 -2 -80 -2q-382 0 -475 165q-21 40 -21 74q-1 5 0 10z" />
<glyph unicode="t" horiz-adv-x="1417" d="M47 918q0 80 37 138t97.5 85.5t118.5 40t120 12.5q-2 8 -3 20.5t-2 50.5v10q0 32 5 61q6 34 23.5 76t47 71.5t84 49t125.5 19.5q94 0 160 -36.5t91.5 -90t37.5 -107.5q11 -47 11 -80q0 -6 -1 -11l-4 -37q8 0 22.5 1t54.5 0t77 -8t82 -25.5t76.5 -47.5t54 -79t22.5 -113 q0 -207 -227 -252q-52 -10 -98 -10q-20 0 -39 1q2 -14 4 -38.5t4 -95.5q1 -28 1 -55q0 -41 -2 -80q-3 -65 -19.5 -143.5t-45 -135t-82 -95.5t-124.5 -39q-57 0 -103.5 13.5t-79 31t-56 55.5t-39 66.5t-22.5 88l-11 95.5q-2 18 -1.5 45.5t1.5 64.5q3 75 5.5 112l8.5 123 q-16 -4 -44 -7q-12 -1 -32 -2q-27 0 -68 3q-72 4 -126 24.5t-98 79t-44 150.5z" />
<glyph unicode="u" horiz-adv-x="1392" d="M96 752l13 73q47 205 233 228q23 3 42 3t36 -3q8 0 22.5 -3t51 -18.5t65.5 -41t53.5 -80t26.5 -124.5v-32q0 -23 1 -36t2 -36t3 -37t4 -32.5t7.5 -30t12.5 -21.5t15 -15t21 -5q43 0 52 47t11 198q0 76 24.5 131.5t58.5 80t68.5 39t59.5 16.5l22 2q12 1 23 0 q192 0 262 -164l19 -60q18 -85 18 -172q0 -172 -70 -354l-10 -26q-4 -12 -14 -35t-52 -78t-95.5 -96t-148.5 -74q-90 -31 -195 -31h-13q-119 2 -218 25.5t-155.5 54.5t-95.5 61.5t-53 51.5l-15 20q-104 153 -104 398q0 83 12 176z" />
<glyph unicode="v" horiz-adv-x="1368" d="M58 831q7 78 62.5 137.5t155.5 80.5q31 6 60 6q60 0 111 -26q77 -38 121 -104.5t75 -135t41 -117.5l12 -51q2 20 7.5 54t34 118t70.5 144t125 98q52 24 113 24q36 0 76 -8q96 -20 144 -87q46 -65 46 -143t-18 -159q-16 -76 -37 -127l-22 -52q-4 -10 -12.5 -27.5 t-37 -69.5t-60 -98t-81 -103.5t-99.5 -98.5t-116.5 -69.5t-132.5 -28.5q-98 0 -189 46t-153.5 109.5t-119 148.5t-86 145.5t-50.5 115.5q-25 63 -36 132q-7 42 -6 87q-1 29 2 59z" />
<glyph unicode="w" horiz-adv-x="1792" d="M80 735q-2 23 -2 45q0 65 18 117q25 70 66 102.5t83 52t70 21.5l31 4q270 0 350 -284q25 -91 25 -175v-24q-1 13 -1 25q0 54 15 94q18 49 47 70.5t57.5 33.5t49.5 12h20q164 -2 201 -167l6 -68q0 367 215 461q53 23 99 23q7 0 14 -1q88 -2 149.5 -36.5t88 -83t40 -97.5 t13.5 -82v-35q-6 -154 -39 -290t-64 -195l-30 -59q-37 -66 -85.5 -114t-91.5 -68.5t-80.5 -32t-60.5 -11.5h-22q-98 0 -171 30t-107 73t-53.5 87t-21.5 75l-2 28q0 -12 -4 -31.5t-25.5 -70.5t-54 -90t-102.5 -71t-160 -32q-184 0 -305 189l-27 49q-59 115 -97 246t-46 204z " />
<glyph unicode="x" horiz-adv-x="1277" d="M65 318q19 58 50.5 106.5t62.5 75.5l31 24l-28 28q-17 17 -52 71.5t-49 107.5q-7 25 -7 54q0 33 9 70q16 71 80 130q107 99 207 99q97 0 188 -91q53 -55 84 -114q8 14 23.5 35.5t66.5 68.5t104 70q35 15 81 15q23 0 49 -4q78 -11 153 -79q61 -55 78 -122q7 -30 7 -57 q0 -34 -11 -65q-20 -55 -50 -103t-57 -75l-28 -26q14 -10 34.5 -30t62.5 -77t59 -115q7 -24 8 -52q0 -38 -14 -83q-24 -78 -105 -147q-76 -66 -151 -80q-29 -6 -55 -6q-41 0 -73 14q-53 23 -98 65t-67.5 77.5t-32.5 60.5l-22 -39q-13 -25 -58 -76t-93 -77q-35 -19 -86 -18 q-18 0 -37 2q-75 9 -149 77q-80 74 -107 150q-16 45 -17 84q1 27 9 51z" />
<glyph unicode="y" horiz-adv-x="1456" d="M59 763q0 52 31 121.5t100 125.5q8 6 24.5 14t66.5 19q34 8 67 8l31 -1q49 -5 117.5 -45t128.5 -116q39 -49 120 -168q102 184 187 258q94 82 193 82q57 0 116 -27q10 -4 25.5 -11t48.5 -45t49 -91q11 -37 11 -98q0 -27 -2 -58q-7 -102 -54 -231q-68 -188 -155 -364.5 t-140 -258.5l-51 -82q-4 -8 -11.5 -20.5t-33 -48t-53 -66.5t-70.5 -62.5t-88 -48.5q-42 -15 -97 -15h-7q-58 1 -115 30q-137 65 -137 230q0 147 108 372l8 16l-71 66q-174 135 -281 303q-8 10 -18.5 28.5t-29 75t-18.5 108.5z" />
<glyph unicode="z" horiz-adv-x="1230" d="M57 889v15q0 9 9.5 37t27 52.5t56 54t93 50t144.5 32.5q77 11 170 11h31q268 -8 377 -76q91 -57 91 -153q0 -18 -3 -38q-4 -18 -15.5 -52t-74 -128t-158.5 -176q14 0 38.5 -1t86 -13t108.5 -37t86 -81t39 -134q0 -57 -17.5 -102.5t-42 -75t-69.5 -50t-82 -30.5t-99 -15.5 t-100 -6.5t-104 -1q-92 0 -143 1t-129 11.5t-122 28t-84 54t-54 88.5q-10 38 -10 77q0 165 184 334l78 62q-2 4 -34 0q-7 -1 -15 -1q-28 0 -66 11q-49 14 -94 36.5t-76 79.5q-27 50 -27 117v19z" />
<glyph unicode="{" horiz-adv-x="1163" d="M217 700v5v4q2 63 21.5 111t47 70.5t54.5 35t45 14.5l21 2q57 10 69 61.5t-4 98.5l-14 45q-4 8 -9.5 23.5t-15.5 59.5t-12 85t10 93t43 91q8 12 25.5 29.5t92.5 44t173 18.5q8 0 20.5 -3t45 -12t59 -21.5t53.5 -36t35 -52.5q2 -6 5 -16t5 -37t-4 -49.5t-30.5 -44 t-65.5 -29.5l-16 -5q-9 -3 -28.5 -21.5t-27.5 -46t1 -83t42 -124.5q23 -49 25 -97.5t-9.5 -80t-34 -61.5t-38 -43t-29.5 -23q14 -10 29.5 -23.5t38 -43.5t34 -62.5t9.5 -79.5t-25 -97q-98 -207 4 -270l25 -10q66 -14 88 -58.5t12 -80.5l-10 -39q-14 -45 -67.5 -76t-98.5 -39 l-47 -8q-195 -16 -283 80l-8 10q-49 63 -53 151t16 146l21 55q4 8 8 20.5t10 45t4 58.5t-19.5 50.5t-53.5 30.5q-8 0 -20.5 2t-44.5 15.5t-56.5 36t-45 70.5t-22.5 111z" />
<glyph unicode="|" horiz-adv-x="528" d="M69.5 803q8.5 391 28.5 598q6 55 25.5 94t43 56.5t47.5 26.5t40 9h14q6 0 17.5 -1t40 -11t50 -28.5t42 -57.5t22.5 -92q39 -727 -28 -1360l-2 -21q-10 -70 -52.5 -106.5t-78.5 -36.5l-35 -2q-2 2 -16.5 -1t-39 4t-48 19.5t-42 44t-20.5 78.5q-17 396 -8.5 787z" />
<glyph unicode="}" horiz-adv-x="1058" d="M154 12.5q-2 26.5 3 49t29.5 45t65.5 30.5l15 5q9 3 28.5 21.5t28 46.5t-1 82t-41.5 124q-23 49 -25 97t10.5 80t35 61.5t37.5 43t30 23.5q-14 10 -29.5 23.5t-38 43t-35 62.5t-10.5 80t25 96q98 207 -5 270l-24 11q-66 14 -87.5 58t-10.5 81l10 39q12 45 65.5 76.5 t98.5 40.5l47 8q98 8 170.5 -15.5t97.5 -50.5l25 -26q49 -63 52 -151.5t-18 -145.5l-20 -56q-2 -8 -7 -20t-11.5 -45t-4 -58.5t20.5 -50t53 -30.5q8 0 20.5 -2.5t45 -15.5t57.5 -35.5t45.5 -71t22.5 -111.5v-4v-4q-4 -180 -146 -225l-45 -9q-57 -10 -69.5 -61t4.5 -98 l14 -45q4 -8 9 -23.5t16.5 -59.5t13.5 -85t-10.5 -93.5t-42.5 -91.5q-2 -4 -9.5 -11t-32 -25.5t-54 -32t-83 -21.5t-114.5 -2q-8 0 -20.5 3t-45.5 12.5t-59.5 21.5t-52 35.5t-33.5 52.5q-2 6 -5 16.5t-5 37z" />
<glyph unicode="~" horiz-adv-x="1015" d="M74 508q2 8 7 22.5t24.5 50t44 63.5t68.5 50.5t96.5 23.5t129 -31t162.5 -99q0 -2 2 -4t2 -4q20 61 69.5 93t108.5 13q8 -2 20.5 -7t39 -24.5t42 -45t13.5 -71.5t-33 -100q-47 -82 -115.5 -111.5t-134 -12t-123 45t-91.5 58.5l-37 28q-23 -82 -74 -112.5t-90 -22.5 l-41 11q-53 18 -81.5 75.5t-8.5 110.5z" />
<glyph unicode="&#xa1;" horiz-adv-x="913" d="M106 33q0 125 15 192l14 66q2 10 8.5 27.5t33 60.5t59 75.5t93 60.5t132.5 28q80 0 144.5 -34t98 -82t55 -96t27.5 -81l7 -35q16 -61 18 -156.5t-4 -160.5l-4 -64q0 -14 -4 -35.5t-24.5 -78t-54.5 -99.5t-101.5 -79t-157.5 -36q-10 0 -28.5 2.5t-67 18.5t-88 43t-81.5 85 t-61 136q-29 117 -29 242zM197 893q0 92 77.5 156.5t188.5 64.5q109 0 186.5 -64.5t77.5 -156.5t-78 -156.5t-186 -64.5q-111 0 -188.5 64.5t-77.5 156.5z" />
<glyph unicode="&#xa2;" horiz-adv-x="1136" d="M84 780v23q0 14 6 57t16.5 83t36 93.5t61.5 97.5t94 83.5t132 62.5q16 6 47 12q0 12 1 36t3 34q8 82 42 125t65 45l30 4q6 0 14.5 -1t31 -10t40 -26.5t33 -54.5t17.5 -86q0 -10 1 -30.5t1 -29.5q135 -29 227 -114l10 -10q6 -6 19.5 -29t21.5 -47.5t7 -64.5t-15 -83 q-2 -6 -7 -15t-26.5 -36t-50.5 -40t-79 -25.5t-113 4.5q-6 2 -15.5 4t-32 4t-41 -1t-33 -19.5t-14.5 -43.5q0 -4 1 -10t8.5 -19.5t20.5 -21.5t41 -7t67 15q8 4 21 8.5t52 9.5t75 0t79 -34t74 -80q4 -6 9 -18.5t11 -48t1 -70.5t-34.5 -81t-83.5 -85q-76 -55 -202 -80 q-4 -78 -6 -86q-14 -152 -113 -172l-23 -2q-6 0 -14 1t-30.5 10t-41 26.5t-34 54.5t-17.5 86q0 14 -1 44t-3 44q-78 23 -141 51q-10 4 -26.5 13.5t-58.5 47.5t-75 86t-59.5 133t-26.5 183z" />
<glyph unicode="&#xa3;" horiz-adv-x="1443" d="M80 733l8 39q43 117 182 111l23 -2q2 106 22.5 196t40.5 127l19 39q49 88 132 139.5t168 61.5t162.5 8t127.5 -14l49 -13q154 -53 243 -225q41 -96 28 -161.5t-50 -98.5l-37 -33q-78 -43 -144.5 -34.5t-95.5 49.5q-2 4 -12 18t-14 19l-13 17q-9 11 -15.5 16t-16.5 11.5 t-20.5 8.5t-23 2t-26.5 -4q-68 -25 -59 -129q82 8 139 -10.5t74 -41.5l14 -22q61 -94 -10 -203l-6 -8q-61 -78 -213 -45l-8 2q-6 -51 -2 -76.5t12 -34.5l6 -6q6 -4 17.5 -8l43 -14.5t62.5 -14.5t70.5 0t72.5 23q45 25 87 34t68.5 5t47 -12.5t29.5 -18.5l10 -8 q74 -66 82 -142.5t-21 -119.5l-28 -43q-156 -176 -463 -131l-88 18q-16 8 -45 16.5t-119 5.5t-178 -42q-78 -31 -132.5 -26t-90 37t-56 66.5t-29.5 63.5l-8 29q-31 186 144 245q39 14 71 17q-18 47 -6 127q-104 -10 -153 20q-47 29 -63.5 81t-8.5 89z" />
<glyph unicode="&#xa5;" d="M45 1087q-16 262 188 351q53 23 97 26q279 14 405 -241q37 -74 47 -136q82 301 303 359q66 16 115 8q225 -27 262 -244q12 -70 2 -127q-39 -227 -274 -319q-55 -23 -98 -29q16 -47 26 -104l205 -4q47 0 72.5 -24.5t25.5 -49.5l2 -27q0 -10 -2 -24.5t-22.5 -40 t-55.5 -29.5q-98 -8 -215 -10q-4 -33 -6 -47l201 -4q47 0 72.5 -26t25.5 -50l2 -25q0 -10 -2 -24.5t-22.5 -40t-55.5 -27.5q-74 -8 -270 -14l-31 -74q-68 -121 -245 -121q-78 0 -141.5 23.5t-88.5 48.5l-24 22q-39 45 -60 101q-145 4 -209 8q-45 2 -69.5 24.5t-28.5 45.5 l-2 20v11q0 7 5 24.5t14.5 32t32 26t55.5 13.5q102 4 157 4q0 8 -1 24.5t-1 22.5q-98 4 -162 6q-45 2 -69.5 25.5t-28.5 44.5l-2 22v11q0 7 5 26.5t16.5 34t35 26t56.5 11.5q25 0 77 1t80 1l13 92q-8 2 -22.5 4t-55.5 14.5t-79 28.5t-84 46t-81 65.5t-60.5 90t-29.5 117.5z " />
<glyph unicode="&#xaa;" horiz-adv-x="479" d="M31 1169q2 2 0 17.5t5 40t17 49t38 43t67 22.5q41 4 67.5 -7t32.5 -23l6 -15q14 51 70 52q80 -18 90 -154q4 -82 -17.5 -124t-46.5 -44l-22 -2q-59 -4 -68 55q-2 -6 -7 -16t-36.5 -25.5t-81.5 -9.5q-4 0 -12 1t-27.5 9.5t-35 21.5t-27.5 41.5t-12 67.5zM215 1176 q0 -23 23 -23q25 0 24 23q0 27 -24 26q-10 0 -17.5 -9t-5.5 -17z" />
<glyph unicode="&#xad;" horiz-adv-x="1077" d="M97 605.5q-5 17.5 5.5 49t25.5 63.5t57 61.5t102 43.5q123 27 253 28t199 -11l70 -13q152 -39 182 -174l4 -35q2 -6 2 -18t-4 -46t-17 -61.5t-46 -56t-82 -43.5q-248 -68 -559 -18q-86 14 -133 66.5t-54 99.5l-4 45q4 2 -1 19.5z" />
<glyph unicode="&#xb0;" horiz-adv-x="798" d="M104 1167q0 127 87.5 216.5t220.5 89.5q131 0 218 -89.5t87 -216.5q0 -129 -86 -217t-219 -88t-220.5 88t-87.5 217zM238 1161q0 -70 45 -112.5t129 -42.5q82 0 125 43t43 112q0 80 -47.5 129t-120.5 49q-82 0 -128 -55t-46 -123z" />
<glyph unicode="&#xb2;" horiz-adv-x="397" d="M29 1366q-4 76 112 100l17 2q113 4 153 -63q53 -100 -41 -219l-8 -10h11q7 0 25.5 -4.5t32 -12.5t25 -26.5t9.5 -45.5q-20 -78 -183 -77q-61 0 -97 19.5t-40 37.5l-6 18q-2 20 0 38t13 33t19.5 23.5t28.5 24.5l29 23q53 39 29 73q-23 31 -66 13q-25 -6 -41 7t-18 30z" />
<glyph unicode="&#xb3;" horiz-adv-x="430" d="M77 1094.5q-5 25.5 7 40.5l12 16q16 16 38 16t36 -8l14 -8q16 -10 31.5 -11t22.5 3l8 4q8 8 10 17.5t-2 15.5l-2 4q-10 18 -41 16q-35 0 -52.5 14.5t-19.5 30.5v15q0 20 17.5 35.5t36.5 19.5l16 6q-37 -4 -62.5 0t-37 13t-17.5 18.5t-6 15.5v8q0 33 32 51.5t62 22.5l31 2 q127 8 156 -45q14 -31 10 -57.5t-17 -42.5l-12 -17q29 -12 46.5 -37.5t19.5 -44.5l4 -20q6 -51 -12.5 -90t-40.5 -54l-21 -12q-115 -47 -225 12l-4 3q-33 22 -38 47.5z" />
<glyph unicode="&#xb4;" horiz-adv-x="700" d="M61.5 1284q6.5 35 22.5 59l16 23q35 45 119 102.5t148 77.5q55 25 100 17.5t64.5 -18.5t46.5 -36q25 -27 40 -60.5t4.5 -81.5t-57.5 -89q-51 -45 -134 -78t-140 -43l-60 -10q-12 -4 -32.5 -6t-63.5 12t-63 53q-17 43 -10.5 78z" />
<glyph unicode="&#xb5;" horiz-adv-x="1705" d="M174 302q-2 222 10 329l11 108q0 10 3 28.5t21.5 66t47 82t86 64.5t130.5 30q78 0 130.5 -31t69.5 -75t24.5 -89t3.5 -76l-4 -30q-2 -195 10 -236q16 -66 76 -65q45 0 61 76.5t10 154.5l-6 76q-8 90 11.5 152.5t53 89t67.5 41t59 14.5l24 -2q78 -12 133.5 -63.5t77 -115 t31.5 -126t8 -103.5v-43q-2 -139 -35 -245.5t-83 -164t-110.5 -95.5t-120 -47t-107.5 -11t-79 4l-30 4q0 -215 -64.5 -335t-238.5 -120q-166 0 -232 211q-16 51 -20 93q-27 227 -29 449z" />
<glyph unicode="&#x3bc;" horiz-adv-x="1705" d="M174 302q-2 222 10 329l11 108q0 10 3 28.5t21.5 66t47 82t86 64.5t130.5 30q78 0 130.5 -31t69.5 -75t24.5 -89t3.5 -76l-4 -30q-2 -195 10 -236q16 -66 76 -65q45 0 61 76.5t10 154.5l-6 76q-8 90 11.5 152.5t53 89t67.5 41t59 14.5l24 -2q78 -12 133.5 -63.5t77 -115 t31.5 -126t8 -103.5v-43q-2 -139 -35 -245.5t-83 -164t-110.5 -95.5t-120 -47t-107.5 -11t-79 4l-30 4q0 -215 -64.5 -335t-238.5 -120q-166 0 -232 211q-16 51 -20 93q-27 227 -29 449z" />
<glyph unicode="&#xb6;" horiz-adv-x="1437" d="M102 981q0 307 375 391q182 41 365 23q106 -4 184 -23.5t115 -43t58.5 -47.5t25.5 -40l2 -14q18 -123 -117 -187l-29 -10l21 -403q25 -868 -119 -869q-150 0 -154 906l7 366h-50l2 -412q-12 -860 -149 -860q-147 0 -152 629l7 252q-109 0 -190 35t-117.5 86t-58.5 101 t-24 85z" />
<glyph unicode="&#xb9;" horiz-adv-x="348" d="M31.5 1373q15.5 30 42.5 46l26 17q37 18 73 18t52 -8l17 -10q37 -25 50 -103t9 -141l-4 -66q-18 -102 -90 -110q-29 0 -48.5 18.5t-23.5 38.5l-6 19q-8 53 -6 99t10 79l8 33q-8 -6 -22.5 -14.5t-43 -10.5t-42.5 25q-17 40 -1.5 70z" />
<glyph unicode="&#xba;" horiz-adv-x="1200" d="M43 481q0 129 33 230.5t86 161t116.5 100.5t127 57.5t116.5 23.5q41 6 71 5h15l33 -2q109 0 196 -29t140 -75t93 -100t58.5 -109.5t28.5 -101.5t10 -75l2 -28q0 -178 -63 -301q-39 -72 -103.5 -129.5t-109.5 -79.5l-45 -23q-49 -20 -100.5 -31.5t-79.5 -11.5l-27 -2 q-408 0 -547 305q-51 113 -51 215zM629 399q35 0 57.5 20.5t22.5 55.5t-21.5 60.5t-58.5 25.5q-35 0 -61 -26q-22 -23 -22 -51q1 -85 83 -85z" />
<glyph unicode="&#xbc;" horiz-adv-x="3213" d="M1952.5 724q17.5 91 47 178t60.5 147l33 57q182 322 475 338q82 6 139 -12q90 -25 151.5 -102t85 -170t34 -182t8.5 -149l-4 -59q70 -2 109.5 -47t43.5 -88l4 -45q0 -135 -125 -170l-32 -6q2 -16 5 -46t-4 -104t-31 -130t-90.5 -102t-166.5 -46q-92 0 -154.5 44 t-84 106.5t-29.5 126t-4 106.5l4 45q-96 0 -179 10t-118 22l-37 11q-90 25 -124 100.5t-16.5 166.5zM2314 799q6 -76 82 -76q35 0 57.5 20.5t22.5 55.5t-21.5 60.5t-58.5 25.5q-35 0 -60.5 -26.5t-21.5 -59.5zM1084 143q23 195 169 649.5t238 675.5q63 150 201 134l29 -7 q2 0 7 -1t18.5 -5t23.5 -12t25.5 -23.5t21.5 -37t10 -53t-4 -74.5q-80 -500 -399 -1256l-35 -80q-59 -125 -178 -108l-17 4q-6 0 -14 3t-29.5 16.5t-37 32.5t-25.5 57t-4 85zM45 1073.5q8 65.5 48 118.5t84 91t79 56l35 21q78 37 153.5 51t128 7t94.5 -19.5t62 -26.5l21 -12 q76 -51 122 -174t58 -260.5t13 -268.5t-5 -215l-8 -86q-8 -106 -41 -181t-74 -107.5t-81 -50t-66 -17.5h-29q-166 0 -238 184l-18 62q-59 293 31 653l8 31q-10 -8 -27.5 -19.5t-66.5 -34t-91 -29.5t-89.5 11.5t-73.5 71.5q-37 78 -29 143.5z" />
<glyph unicode="&#xbd;" horiz-adv-x="3076" d="M1943 1126q-4 78 37 139.5t100.5 93.5t120 53.5t103.5 27.5l43 6q305 25 450 -148q25 -29 35 -51q53 -100 57.5 -211.5t-28.5 -199.5t-73 -162t-75 -113l-34 -41q14 0 36.5 -1t80 -14t100.5 -40t77.5 -85t32.5 -140q-6 -199 -366 -240q-115 -14 -215 -8q-336 2 -430 176 q-20 37 -23 65q-6 55 3 105.5t22.5 83.5t50.5 74t58.5 59l76.5 62.5l76 62.5q41 35 68.5 73t38 83t-18.5 82q-61 86 -191 38l-12 -4q-51 -10 -90 4.5t-59.5 42t-32.5 56t-17 51.5zM1084 143q23 195 169 649.5t238 675.5q63 150 201 134l29 -7q2 0 7 -1t18.5 -5t23.5 -12 t25.5 -23.5t21.5 -37t10 -53t-4 -74.5q-80 -500 -399 -1256l-35 -80q-59 -125 -178 -108l-17 4q-6 0 -14 3t-29.5 16.5t-37 32.5t-25.5 57t-4 85zM45 1073.5q8 65.5 48 118.5t84 91t79 56l35 21q78 37 153.5 51t128 7t94.5 -19.5t62 -26.5l21 -12q76 -51 122 -174t58 -260.5 t13 -268.5t-5 -215l-8 -86q-8 -106 -41 -181t-74 -107.5t-81 -50t-66 -17.5h-29q-166 0 -238 184l-18 62q-59 293 31 653l8 31q-10 -8 -27.5 -19.5t-66.5 -34t-91 -29.5t-89.5 11.5t-73.5 71.5q-37 78 -29 143.5z" />
<glyph unicode="&#xbe;" horiz-adv-x="3471" d="M2210.5 724q17.5 91 47 178t60.5 147l33 57q182 322 475 338q82 6 139 -12q90 -25 151.5 -102t85 -170t34 -182t8.5 -149l-4 -59q70 -2 109.5 -47t43.5 -88l4 -45q0 -135 -125 -170l-32 -6q2 -16 5 -46t-4 -104t-31 -130t-90.5 -102t-166.5 -46q-92 0 -154.5 44 t-84 106.5t-29.5 126t-4 106.5l4 45q-96 0 -179 10t-118 22l-37 11q-90 25 -124 100.5t-16.5 166.5zM2572 799q6 -76 82 -76q35 0 57.5 20.5t22.5 55.5t-21.5 60.5t-58.5 25.5q-35 0 -60.5 -26.5t-21.5 -59.5zM1342 143q23 195 169 649.5t238 675.5q63 150 201 134l29 -7 q2 0 7 -1t18.5 -5t23.5 -12t25.5 -23.5t21.5 -37t10 -53t-4 -74.5q-80 -500 -399 -1256l-35 -80q-59 -125 -178 -108l-17 4q-6 0 -14 3t-29.5 16.5t-37 32.5t-25.5 57t-4 85zM54 296q5 42 19.5 78t32.5 56l19 19q51 51 124 51t120 -25l47 -26q117 -72 196 -17l6 4 q29 25 34 55.5t-5 49.5l-8 20q-16 27 -50 40t-61 13h-26q-199 0 -232 146l-4 53q0 123 180 186l54 15q-123 -14 -211 0t-125 45t-56.5 62.5t-17.5 56.5v24q2 70 45 120t103.5 74.5t121 38t103.5 15.5l41 2q16 2 46 2t107.5 -4t142 -17.5t130 -48t94.5 -86.5 q31 -55 35 -115.5t-11.5 -106.5t-35 -85t-37.5 -59l-17 -21q59 -27 105.5 -71.5t70 -89.5t39 -86t19.5 -66l4 -27q12 -106 -9.5 -199t-59 -148.5t-77.5 -95.5t-71 -54l-29 -17q-115 -49 -235.5 -62t-212.5 2t-167 37.5t-114 43.5l-39 22q-70 47 -101.5 100.5t-26.5 95.5z " />
<glyph unicode="&#xbf;" horiz-adv-x="1323" d="M132.5 55q17.5 125 49 225.5t68.5 155.5q6 12 19.5 30.5t56.5 60.5t91 63.5t126 16.5t157 -56q145 -92 19 -363l-47 -88q8 10 24.5 24.5t65.5 45.5t97 46t112.5 6t120.5 -54q10 -8 27.5 -25.5t48 -73t37.5 -113.5t-25.5 -147.5t-118.5 -177.5q-12 -12 -36 -30.5 t-100.5 -55.5t-159.5 -50t-208 13.5t-250 106.5q-109 70 -150.5 192.5t-24 247.5zM283 905.5q0 104.5 74.5 163.5t195.5 59q117 0 188.5 -65.5t71.5 -161.5q0 -109 -70.5 -169t-189.5 -60t-194.5 64.5t-75.5 169z" />
<glyph unicode="&#xc0;" d="M68 371.5q0 -21.5 6 -80t22.5 -106.5t57.5 -97t100 -70q18 -6 51 -14t115 -4t143 41q55 33 97 83t62.5 99t30 80t11.5 51q2 -20 11 -51t29.5 -80t62.5 -99t98 -83q61 -37 139 -42t125 7l45 12q172 59 184 312v76q-16 442 -276 819q-51 74 -112.5 126t-108 75.5t-97.5 37 t-67.5 14.5t-32.5 1t-32.5 -1t-68 -14.5t-97.5 -37t-107.5 -76t-110.5 -125.5q-262 -373 -278 -819q-2 -13 -2 -34.5zM471 1756q-10 48 5.5 82t39.5 60q27 25 46.5 36.5t64.5 18.5t100 -18q63 -20 147 -77.5t119 -102.5q2 -4 7.5 -9t14.5 -23.5t14 -36t5 -43t-12 -48.5 q-41 -82 -154 -61l-6 2l-64 11q-40 7 -129 41t-141 79q-47 41 -57 89zM690 670q-4 33 21.5 59.5t60.5 26.5q37 0 58.5 -25.5t21.5 -60.5t-22.5 -55.5t-57.5 -20.5q-76 0 -82 76z" />
<glyph unicode="&#xc1;" d="M68 371.5q0 -21.5 6 -80t22.5 -106.5t57.5 -97t100 -70q18 -6 51 -14t115 -4t143 41q55 33 97 83t62.5 99t30 80t11.5 51q2 -20 11 -51t29.5 -80t62.5 -99t98 -83q61 -37 139 -42t125 7l45 12q172 59 184 312v76q-16 442 -276 819q-51 74 -112.5 126t-108 75.5t-97.5 37 t-67.5 14.5t-32.5 1t-32.5 -1t-68 -14.5t-97.5 -37t-107.5 -76t-110.5 -125.5q-262 -373 -278 -819q-2 -13 -2 -34.5zM455 1663q6 35 22 57l17 25q35 45 118.5 102.5t147.5 77.5q55 25 100 17.5t64.5 -18.5t46.5 -36q25 -27 40 -60.5t5 -81.5t-58 -89q-51 -45 -134 -78 t-140 -43l-59 -10q-12 -4 -33 -6t-64 12t-63 53q-16 43 -10 78zM690 670q-4 33 21.5 59.5t60.5 26.5q37 0 58.5 -25.5t21.5 -60.5t-22.5 -55.5t-57.5 -20.5q-76 0 -82 76z" />
<glyph unicode="&#xc2;" d="M68 371.5q0 -21.5 6 -80t22.5 -106.5t57.5 -97t100 -70q18 -6 51 -14t115 -4t143 41q55 33 97 83t62.5 99t30 80t11.5 51q2 -20 11 -51t29.5 -80t62.5 -99t98 -83q61 -37 139 -42t125 7l45 12q172 59 184 312v76q-16 442 -276 819q-51 74 -112.5 126t-108 75.5t-97.5 37 t-67.5 14.5t-32.5 1t-32.5 -1t-68 -14.5t-97.5 -37t-107.5 -76t-110.5 -125.5q-262 -373 -278 -819q-2 -13 -2 -34.5zM427 1639.5q-5 48.5 26 84.5q10 16 47 54.5t115.5 88.5t148.5 50q68 0 144.5 -52.5t111.5 -91t47 -55.5q29 -39 19.5 -87t-48.5 -75q-39 -29 -87 -19.5 t-77 48.5h3l-15 17q-14 16 -41.5 40.5t-56.5 40.5q-78 -49 -129 -104q-2 -4 -8 -9t-23.5 -17.5t-35 -17.5t-44 0t-53.5 26q-39 30 -44 78.5zM690 670q-4 33 21.5 59.5t60.5 26.5q37 0 58.5 -25.5t21.5 -60.5t-22.5 -55.5t-57.5 -20.5q-76 0 -82 76z" />
<glyph unicode="&#xc3;" d="M70 330v76q16 446 278 819q49 74 110.5 126t107.5 75.5t97.5 37t68 14.5t32.5 1t32.5 -1t67.5 -14.5t97.5 -37t107.5 -76t113 -125.5q260 -377 276 -819q2 -12 3 -34t-5 -80.5t-22.5 -106.5t-57.5 -97t-102 -70q-18 -6 -51 -14t-115 -4t-143 41q-55 33 -97.5 83t-63 99 t-29.5 80t-11 51q-2 -20 -11.5 -51t-30 -80t-62.5 -99t-97 -83q-61 -37 -139 -42t-125 7l-45 12q-170 60 -184 312zM330 1739q2 8 7 22.5t24.5 50t44 63.5t68.5 50.5t96.5 23.5t129 -31t162.5 -99q2 0 2 -4.5t2 -4.5q20 61 69.5 93t108.5 14q8 -2 20.5 -7t39 -24.5t42 -45 t13.5 -72t-33 -99.5q-47 -82 -115.5 -111.5t-134 -12t-123 45t-94.5 56.5l-34 30q-14 -51 -40 -82.5t-53.5 -41t-53 -10.5t-42.5 5l-16 4q-53 18 -81.5 76t-8.5 111zM690 670q6 -76 82 -76q35 0 57.5 20.5t22.5 55.5t-21.5 60.5t-58.5 25.5q-35 0 -60.5 -26.5t-21.5 -59.5z " />
<glyph unicode="&#xc4;" d="M70 330v76q16 446 278 819q49 74 110.5 126t107.5 75.5t97.5 37t68 14.5t32.5 1t32.5 -1t67.5 -14.5t97.5 -37t107.5 -76t113 -125.5q260 -377 276 -819q2 -12 3 -34t-5 -80.5t-22.5 -106.5t-57.5 -97t-102 -70q-18 -6 -51 -14t-115 -4t-143 41q-55 33 -97.5 83t-63 99 t-29.5 80t-11 51q-2 -20 -11.5 -51t-30 -80t-62.5 -99t-97 -83q-61 -37 -139 -42t-125 7l-45 12q-170 60 -184 312zM412 1686q0 68 42 112.5t115.5 44.5t115.5 -45t42 -112q0 -70 -42 -115t-115.5 -45t-115.5 45t-42 115zM690 670q6 -76 82 -76q35 0 57.5 20.5t22.5 55.5 t-21.5 60.5t-58.5 25.5q-35 0 -60.5 -26.5t-21.5 -59.5zM786 1686q0 68 42 112.5t116 44.5t116 -45t42 -112q0 -70 -42 -115t-116 -45t-116 45t-42 115z" />
<glyph unicode="&#xc5;" d="M70 330v76q16 446 278 819q49 74 110.5 126t107.5 75.5t97.5 37t68 14.5t32.5 1t32.5 -1t67.5 -14.5t97.5 -37t107.5 -76t113 -125.5q260 -377 276 -819q2 -12 3 -34t-5 -80.5t-22.5 -106.5t-57.5 -97t-102 -70q-18 -6 -51 -14t-115 -4t-143 41q-55 33 -97.5 83t-63 99 t-29.5 80t-11 51q-2 -20 -11.5 -51t-30 -80t-62.5 -99t-97 -83q-61 -37 -139 -42t-125 7l-45 12q-170 60 -184 312zM506 1642q0 96 73.5 166t178.5 70q102 0 176 -69.5t74 -166.5q0 -98 -74 -166.5t-176 -68.5q-104 0 -178 68.5t-74 166.5zM651 1638q0 -49 29 -75.5 t78 -26.5q45 0 75.5 26.5t30.5 75.5q0 57 -30.5 84t-75.5 27q-107 0 -107 -111zM690 670q6 -76 82 -76q35 0 57.5 20.5t22.5 55.5t-21.5 60.5t-58.5 25.5q-35 0 -60.5 -26.5t-21.5 -59.5z" />
<glyph unicode="&#xc6;" horiz-adv-x="2332" d="M51 311v76q16 446 279 819q49 74 110.5 126t107.5 76t97 37t67.5 14t33 1t31 -1t62.5 -12t91 -31.5t101.5 -66.5t107.5 -110q37 76 116.5 129t165.5 74.5t168 32t135 8.5h52q147 2 252.5 -21.5t151.5 -59.5t70.5 -73t26.5 -63v-25q2 -92 -47 -155.5t-120.5 -89 t-144.5 -39t-122 -11.5h-51q84 -6 144.5 -29.5t85 -51t38 -54.5t13.5 -45l-2 -16q0 -63 -31 -107.5t-78 -63t-81 -25.5t-62 -9q133 4 229 -22.5t139 -66.5t66.5 -81t25.5 -70l2 -29q-8 -190 -321 -251q-92 -16 -170 -19q-268 -23 -449 47q-35 -35 -86 -53q-18 -6 -51 -14.5 t-114.5 -4t-143.5 41.5q-55 33 -97 83t-62.5 99t-29.5 79.5t-12 51.5q-2 -20 -11 -51t-29.5 -80t-62.5 -99.5t-97 -82.5q-61 -37 -139 -42.5t-123 7.5l-47 12q-171 59 -185 311zM670 639q6 -76 82 -76q35 0 57 20.5t22 55.5t-21.5 60.5t-57.5 25.5q-35 0 -60.5 -26.5 t-21.5 -59.5z" />
<glyph unicode="&#xc7;" horiz-adv-x="1372" d="M51 700v31q0 20 8.5 78.5t24.5 113t53 126t89.5 129t140.5 108.5t196 76q14 4 39 9t98.5 12.5t144 3t163 -27t168.5 -67.5q8 -4 20 -14t40 -43t44 -71t16 -100.5t-28 -129.5q-2 -4 -4 -9t-13.5 -21.5t-26 -28t-39 -29t-55 -23.5t-72.5 -10t-93 8q-8 2 -22.5 4t-52.5 1 t-67.5 -10t-55.5 -38.5t-28 -75.5v-17q0 -11 10.5 -39t32 -47t69.5 -32.5t118 -5.5q6 2 17 3t44 1t62.5 -4t67.5 -17.5t66.5 -36t52.5 -63.5t30 -96q2 -8 2 -22.5t-5.5 -54.5t-18.5 -75.5t-47 -77.5t-85 -71q-16 -10 -48 -23.5t-141.5 -32t-232.5 -7.5v-68q102 0 158 -39 q88 -63 88 -166q0 -98 -74 -157q-39 -33 -101.5 -46.5t-105.5 -11.5l-43 4q-41 0 -68.5 28t-23.5 69q6 74 92 73q6 0 14.5 -2t32 -2t41 2t31.5 13.5t14 29.5q0 37 -27.5 49.5t-109.5 12.5q-102 6 -102 80v157l-80 21q-8 2 -23.5 7t-60.5 27.5t-85 52t-89 84t-83 120 t-56.5 164.5t-20.5 214z" />
<glyph unicode="&#xc8;" horiz-adv-x="1368" d="M75 658.5q1 187.5 17 326.5l17 139q45 262 378 320q117 20 215 12q172 -4 294 -32.5t174.5 -66.5t79 -74t26.5 -62v-25q2 -92 -53.5 -153.5t-135 -84t-160.5 -31.5t-136 -5l-58 2q248 -41 279 -174l2 -43q0 -76 -55.5 -129.5t-110.5 -69.5l-55 -14q383 6 469 -179 q23 -45 18 -82q-10 -186 -358 -237q-100 -14 -185 -12q-121 -2 -222 12t-164.5 39.5t-112 58.5t-73 66t-39.5 59.5t-20 42.5l-2 19q-30 190 -29 377.5zM364.5 1760q-10.5 48 5 82t40.5 61q27 25 46 36t64 18t101 -18q63 -20 147 -77.5t119 -102.5q2 -4 7 -9t14.5 -23.5 t14.5 -36t5 -43t-13 -48.5q-41 -82 -153 -61l-6 2l-65 11q-40 7 -129 41t-140 79q-47 41 -57.5 89z" />
<glyph unicode="&#xc9;" horiz-adv-x="1368" d="M75 658.5q1 187.5 17 326.5l17 139q45 262 378 320q117 20 215 12q172 -4 294 -32.5t174.5 -66.5t79 -74t26.5 -62v-25q2 -92 -53.5 -153.5t-135 -84t-160.5 -31.5t-136 -5l-58 2q248 -41 279 -174l2 -43q0 -76 -55.5 -129.5t-110.5 -69.5l-55 -14q383 6 469 -179 q23 -45 18 -82q-10 -186 -358 -237q-100 -14 -185 -12q-121 -2 -222 12t-164.5 39.5t-112 58.5t-73 66t-39.5 59.5t-20 42.5l-2 19q-30 190 -29 377.5zM434 1663q6 35 23 57l16 25q35 45 119 102.5t147 77.5q55 25 100.5 17.5t65 -18.5t45.5 -36q25 -27 40.5 -60.5t5 -81.5 t-57.5 -89q-51 -45 -134 -78t-140 -43l-60 -10q-12 -4 -32.5 -6t-63.5 12t-64 53q-16 43 -10 78z" />
<glyph unicode="&#xca;" horiz-adv-x="1368" d="M75 658.5q1 187.5 17 326.5l17 139q45 262 378 320q117 20 215 12q172 -4 294 -32.5t174.5 -66.5t79 -74t26.5 -62v-25q2 -92 -53.5 -153.5t-135 -84t-160.5 -31.5t-136 -5l-58 2q248 -41 279 -174l2 -43q0 -76 -55.5 -129.5t-110.5 -69.5l-55 -14q383 6 469 -179 q23 -45 18 -82q-10 -186 -358 -237q-100 -14 -185 -12q-121 -2 -222 12t-164.5 39.5t-112 58.5t-73 66t-39.5 59.5t-20 42.5l-2 19q-30 190 -29 377.5zM363.5 1623q-5.5 48 25.5 85q10 16 47 54t116 88.5t148 50.5q68 0 145 -52.5t111.5 -91.5t47.5 -55q29 -39 19.5 -87 t-48.5 -75q-39 -29 -87 -19.5t-77 48.5h2l-14 16q-14 16 -42 41t-57 41q-78 -49 -129 -104q-2 -4 -8 -9.5t-23.5 -17.5t-35 -17.5t-44 0t-52.5 25.5q-39 31 -44.5 79z" />
<glyph unicode="&#xcb;" horiz-adv-x="1368" d="M75 658.5q1 187.5 17 326.5l17 139q45 262 378 320q117 20 215 12q172 -4 294 -32.5t174.5 -66.5t79 -74t26.5 -62v-25q2 -92 -53.5 -153.5t-135 -84t-160.5 -31.5t-136 -5l-58 2q248 -41 279 -174l2 -43q0 -76 -55.5 -129.5t-110.5 -69.5l-55 -14q383 6 469 -179 q23 -45 18 -82q-10 -186 -358 -237q-100 -14 -185 -12q-121 -2 -222 12t-164.5 39.5t-112 58.5t-73 66t-39.5 59.5t-20 42.5l-2 19q-30 190 -29 377.5zM313 1683q0 68 42 113t116 45t116 -45t42 -113q0 -70 -42 -114.5t-116 -44.5t-116 44.5t-42 114.5zM688 1683 q0 68 42 113t116 45t116 -45t42 -113q0 -70 -42 -114.5t-116 -44.5t-116 44.5t-42 114.5z" />
<glyph unicode="&#xcc;" horiz-adv-x="860" d="M63.5 657.5q-2.5 143.5 2.5 235.5l6 94q0 10 1 26.5t10 63.5t22.5 90t41 95.5t65.5 90.5t97.5 64.5t130.5 26.5q12 0 32 -2t72 -23.5t95 -59.5t84 -120t55 -195q20 -170 20.5 -347t-10.5 -269l-10 -92q-2 -14 -5 -39t-25.5 -85t-55.5 -107.5t-99.5 -85t-152.5 -37.5 q-94 2 -165.5 47t-107.5 108.5t-57.5 127t-25.5 108.5l-4 43q-14 98 -16.5 241.5zM153.5 1750q-10.5 48 5 82t40.5 60q27 25 46 36t64 18.5t101 -17.5q63 -20 147 -77.5t119 -102.5q2 -4 7 -9t14.5 -23.5t14.5 -36t5 -43t-12 -48.5q-41 -82 -154 -61l-6 2l-65 11 q-40 7 -129 41t-140 79q-47 41 -57.5 89z" />
<glyph unicode="&#xcd;" horiz-adv-x="860" d="M63.5 657.5q-2.5 143.5 2.5 235.5l6 94q0 10 1 26.5t10 63.5t22.5 90t41 95.5t65.5 90.5t97.5 64.5t130.5 26.5q12 0 32 -2t72 -23.5t95 -59.5t84 -120t55 -195q20 -170 20.5 -347t-10.5 -269l-10 -92q-2 -14 -5 -39t-25.5 -85t-55.5 -107.5t-99.5 -85t-152.5 -37.5 q-94 2 -165.5 47t-107.5 108.5t-57.5 127t-25.5 108.5l-4 43q-14 98 -16.5 241.5zM160 1661q6 35 22 59l17 23q35 45 118.5 102.5t147.5 77.5q55 25 100 17.5t64.5 -18.5t46.5 -36q25 -27 40 -60.5t5 -81.5t-57 -89q-51 -45 -134.5 -78t-140.5 -43l-59 -10q-12 -4 -33 -6 t-64 12t-63 53q-16 43 -10 78z" />
<glyph unicode="&#xce;" horiz-adv-x="860" d="M63.5 657.5q-2.5 143.5 2.5 235.5l6 94q0 10 1 26.5t10 63.5t22.5 90t41 95.5t65.5 90.5t97.5 64.5t130.5 26.5q12 0 32 -2t72 -23.5t95 -59.5t84 -120t55 -195q20 -170 20.5 -347t-10.5 -269l-10 -92q-2 -14 -5 -39t-25.5 -85t-55.5 -107.5t-99.5 -85t-152.5 -37.5 q-94 2 -165.5 47t-107.5 108.5t-57.5 127t-25.5 108.5l-4 43q-14 98 -16.5 241.5zM95 1621q-5 48 26 85q10 16 47 54t115.5 88t148.5 50q68 0 144.5 -52t111.5 -91t47 -55q29 -39 19.5 -87t-47.5 -75q-39 -29 -87.5 -19.5t-76.5 48.5h2l-15 16q-14 16 -41.5 41t-56.5 41 q-78 -49 -129 -104q-2 -4 -8 -9.5t-23.5 -17.5t-35 -17.5t-44 0t-53.5 25.5q-39 31 -44 79z" />
<glyph unicode="&#xcf;" horiz-adv-x="860" d="M63.5 657.5q-2.5 143.5 2.5 235.5l6 94q0 10 1 26.5t10 63.5t22.5 90t41 95.5t65.5 90.5t97.5 64.5t130.5 26.5q12 0 32 -2t72 -23.5t95 -59.5t84 -120t55 -195q20 -170 20.5 -347t-10.5 -269l-10 -92q-2 -14 -5 -39t-25.5 -85t-55.5 -107.5t-99.5 -85t-152.5 -37.5 q-94 2 -165.5 47t-107.5 108.5t-57.5 127t-25.5 108.5l-4 43q-14 98 -16.5 241.5zM74 1645q0 68 42 112.5t115.5 44.5t115.5 -45t42 -112q0 -70 -42 -115t-115.5 -45t-115.5 45t-42 115zM449 1645q0 68 41.5 112.5t115.5 44.5t116 -45t42 -112q0 -70 -42 -115t-116 -45 t-115.5 45t-41.5 115z" />
<glyph unicode="&#xd0;" horiz-adv-x="1710" d="M99 711.5q-5 17.5 5.5 49.5t25.5 63.5t57 61t102 44.5q33 8 53 10t47 1t49 1l27 209q16 94 65.5 161.5t107.5 95.5t114.5 41t93.5 13l37 -2q147 2 271 -30.5t197.5 -78.5t126 -92.5t70.5 -78.5l21 -33q8 -12 19 -33.5t36 -97.5t36 -159t3 -213t-47 -265 q-35 -123 -120 -208t-181 -119t-187.5 -51t-150.5 -15l-59 2q-90 0 -167 17.5t-122 44t-78 52t-45 43.5l-12 19q-53 94 -66 305q-72 2 -137 12q-86 14 -133 66.5t-52 99.5l-6 45q4 2 -1 19.5zM928 686q0 -35 12 -52.5t26.5 -20.5t43.5 -3q35 0 57.5 20.5t22.5 55.5 t-21.5 60.5t-58.5 25.5q-82 0 -82 -86z" />
<glyph unicode="&#xd1;" horiz-adv-x="1705" d="M88 641q0 227 23 358l22 131q2 12 8 34t34 77t66 99t110.5 81t162.5 41q94 4 170 -23.5t122 -74.5t81 -105.5t51 -118t26.5 -108.5t10.5 -80l2 -30q-2 115 15.5 206t46 144t63.5 92t70.5 54.5t64.5 23.5t47 8l19 -2q72 2 129 -21.5t85.5 -57.5t48 -69.5t23.5 -60.5l6 -25 q80 -416 -6 -860l-10 -51q-55 -258 -244 -301q-47 -12 -84 -6q-299 -6 -438 344q-55 139 -68 266q27 -475 -196 -586q-70 -35 -133 -24q-66 -2 -119 20.5t-82 56t-49.5 68.5t-26.5 60l-6 22q-45 191 -45 418zM430 1737q2 8 7 22.5t24.5 50t44 63.5t68.5 50.5t96.5 23.5 t129.5 -31t163 -99q0 -2 2 -4.5t2 -4.5q20 61 69 93t109 14q8 -2 20.5 -7t39 -24.5t42 -45.5t13 -72t-32.5 -99q-47 -82 -116 -111.5t-134.5 -12t-122.5 45t-92 58.5l-37 28q-23 -82 -74 -112.5t-90 -22.5l-41 10q-53 18 -81.5 76t-8.5 111z" />
<glyph unicode="&#xd2;" horiz-adv-x="1579" d="M90 670q0 539 379 708q176 78 358 64q426 0 586 -373q70 -164 70 -321q0 -158 -36 -285t-94.5 -205t-128 -136.5t-139 -85t-128 -40.5t-93.5 -16l-37 -3q-150 0 -272.5 38t-197 99.5t-130 135.5t-80 147.5t-39 135t-16.5 98.5zM491.5 1756q-10.5 48 5 82t40.5 60 q27 25 46 36.5t64 18.5t101 -18q63 -20 147 -77.5t119 -102.5q2 -4 7 -9t14 -23.5t14.5 -36t5.5 -43t-13 -48.5q-41 -82 -153 -61l-6 2l-65 11q-40 7 -129 41t-140 79q-47 41 -57.5 89zM715 698q6 -76 82 -75q35 0 57.5 20.5t22.5 55t-21.5 60t-58.5 25.5q-35 0 -60.5 -26.5 t-21.5 -59.5z" />
<glyph unicode="&#xd3;" horiz-adv-x="1579" d="M90 670q0 539 379 708q176 78 358 64q426 0 586 -373q70 -164 70 -321q0 -158 -36 -285t-94.5 -205t-128 -136.5t-139 -85t-128 -40.5t-93.5 -16l-37 -3q-150 0 -272.5 38t-197 99.5t-130 135.5t-80 147.5t-39 135t-16.5 98.5zM471 1663q6 35 23 57l16 25 q35 45 119 102.5t147 77.5q55 25 100.5 17.5t65 -18.5t45.5 -36q25 -27 40 -60.5t5 -81.5t-57 -89q-51 -45 -134 -78t-141 -43l-59 -10q-12 -4 -32.5 -6t-63.5 12t-64 53q-16 43 -10 78zM715 698q6 -76 82 -75q35 0 57.5 20.5t22.5 55t-21.5 60t-58.5 25.5 q-35 0 -60.5 -26.5t-21.5 -59.5z" />
<glyph unicode="&#xd4;" horiz-adv-x="1579" d="M90 670q0 539 379 708q176 78 358 64q426 0 586 -373q70 -164 70 -321q0 -158 -36 -285t-94.5 -205t-128 -136.5t-139 -85t-128 -40.5t-93.5 -16l-37 -3q-150 0 -272.5 38t-197 99.5t-130 135.5t-80 147.5t-39 135t-16.5 98.5zM478 1617q-5 48 26 85q10 16 47 54 t115.5 88t148.5 50q68 0 144.5 -52t111.5 -91t47 -55q29 -39 19.5 -87t-47.5 -75q-39 -29 -87.5 -19.5t-76.5 48.5h2l-15 16q-14 16 -41.5 41t-56.5 41q-78 -49 -129 -105q-2 -4 -8 -9t-23.5 -17t-35 -17.5t-44 0t-53.5 25.5q-39 31 -44 79zM715 698q6 -76 82 -75 q35 0 57.5 20.5t22.5 55t-21.5 60t-58.5 25.5q-35 0 -60.5 -26.5t-21.5 -59.5z" />
<glyph unicode="&#xd5;" horiz-adv-x="1579" d="M90 670q0 539 379 708q176 78 358 64q426 0 586 -373q70 -164 70 -321q0 -158 -36 -285t-94.5 -205t-128 -136.5t-139 -85t-128 -40.5t-93.5 -16l-37 -3q-150 0 -272.5 38t-197 99.5t-130 135.5t-80 147.5t-39 135t-16.5 98.5zM350 1722q2 8 7 22.5t24.5 50.5t44.5 63.5 t69 50t96 23.5t129 -30.5t163 -99.5q2 0 2 -4t2 -4q20 61 69.5 93t108.5 14q8 -2 20.5 -7.5t39 -25t42 -45t13.5 -71.5t-33 -99q-47 -82 -115.5 -112t-134.5 -12.5t-123 45.5t-94 56l-35 31q-14 -51 -39.5 -83t-53.5 -41t-53.5 -10t-41.5 5l-17 4q-53 18 -81.5 75.5 t-8.5 110.5zM715 698q6 -76 82 -75q35 0 57.5 20.5t22.5 55t-21.5 60t-58.5 25.5q-35 0 -60.5 -26.5t-21.5 -59.5z" />
<glyph unicode="&#xd6;" horiz-adv-x="1579" d="M90 670q0 539 379 708q176 78 358 64q426 0 586 -373q70 -164 70 -321q0 -158 -36 -285t-94.5 -205t-128 -136.5t-139 -85t-128 -40.5t-93.5 -16l-37 -3q-150 0 -272.5 38t-197 99.5t-130 135.5t-80 147.5t-39 135t-16.5 98.5zM432 1679q0 68 42 113t116 45t116 -45 t42 -113q0 -70 -42 -114.5t-116 -44.5t-116 44.5t-42 114.5zM715 698q6 -76 82 -75q35 0 57.5 20.5t22.5 55t-21.5 60t-58.5 25.5q-35 0 -60.5 -26.5t-21.5 -59.5zM807 1679q0 68 42 113t115.5 45t115.5 -45t42 -113q0 -70 -42 -114.5t-115.5 -44.5t-115.5 44.5t-42 114.5z " />
<glyph unicode="&#xd7;" horiz-adv-x="1097" d="M91 965.5q9 64.5 46 105.5l37 41q4 4 12.5 11t33 21.5t51 24t65.5 9.5t78 -15q53 -18 137 -78q59 45 106 74q78 41 138.5 36t97.5 -32l35 -26q6 -4 15 -14.5t28.5 -40t29 -62.5t3 -80t-34.5 -94q-37 -59 -64 -96q49 -66 80 -117q43 -80 38 -139.5t-32 -96.5l-26 -35 q-4 -6 -14.5 -15t-41 -28.5t-62.5 -29.5t-80 -4t-95 34q-8 6 -43 30l-54 36l-55 -45.5t-39 -28.5l-12 -8q-131 -96 -266 16l-27 25q-4 4 -10 12.5l-23.5 34t-23.5 51t-10.5 66.5t14.5 78q25 59 82 137q-51 59 -74 98q-49 80 -40 144.5z" />
<glyph unicode="&#xd8;" horiz-adv-x="1505" d="M45 668q0 539 379 708q176 78 358 64q59 0 115 -6l66 114q86 141 221 103l24 -11q6 -2 13.5 -5t29 -17t29.5 -38t15.5 -64.5t-15.5 -96.5l-51 -143q92 -90 144 -223t59 -222l6 -86q0 -158 -36 -284.5t-94.5 -204.5t-128 -136.5t-139 -85t-128 -40.5t-93.5 -17l-37 -2 q-68 0 -139 11l-82 -158q-72 -121 -186 -92l-17 6q-6 2 -13 5t-28.5 17.5t-33 36t-22.5 58.5t3 86q12 57 47 170q-74 55 -129 133t-79.5 148.5t-39 133t-16.5 101.5zM709 668q6 -76 82 -76q35 0 57 20.5t22 55t-21.5 60.5t-57.5 26q-35 0 -60.5 -26.5t-21.5 -59.5z" />
<glyph unicode="&#xd9;" horiz-adv-x="1570" d="M61 1028l15 117q49 254 246 303q51 12 92 8q10 0 28.5 -2t63.5 -18.5t80 -46t63.5 -93t28.5 -151.5q0 -31 -1 -76t-1 -74v-66q0 -38 2 -62.5t5 -53.5t9 -45t15.5 -31.5t21.5 -22.5t29 -7q66 0 78 132t0 306q-6 231 190 285q51 14 94 12q217 12 310 -166l22 -59 q41 -213 35 -392.5t-33 -296.5l-27 -116q-4 -18 -15 -48t-61.5 -107t-116 -135.5t-187 -106.5t-269.5 -46q-346 4 -536 217q-37 43 -54 74q-166 283 -127 768zM422 1740q-10 48 5 81.5t40 60.5q27 25 46 36t64.5 18.5t100.5 -17.5q63 -20 147 -77.5t119 -102.5q2 -4 7 -9.5 t14.5 -23.5t14.5 -35.5t5 -43t-12 -48.5q-41 -82 -154 -61l-6 2l-64 11q-40 7 -129.5 41t-140.5 79q-47 41 -57 89z" />
<glyph unicode="&#xda;" horiz-adv-x="1570" d="M61 1028l15 117q49 254 246 303q51 12 92 8q10 0 28.5 -2t63.5 -18.5t80 -46t63.5 -93t28.5 -151.5q0 -31 -1 -76t-1 -74v-66q0 -38 2 -62.5t5 -53.5t9 -45t15.5 -31.5t21.5 -22.5t29 -7q66 0 78 132t0 306q-6 231 190 285q51 14 94 12q217 12 310 -166l22 -59 q41 -213 35 -392.5t-33 -296.5l-27 -116q-4 -18 -15 -48t-61.5 -107t-116 -135.5t-187 -106.5t-269.5 -46q-346 4 -536 217q-37 43 -54 74q-166 283 -127 768zM516 1663q6 35 23 57l16 25q35 45 119 102.5t147 77.5q55 25 100.5 17.5t65 -18.5t45.5 -36q25 -27 40 -60.5 t5 -81.5t-57 -89q-51 -45 -134 -78t-141 -43l-59 -10q-12 -4 -32.5 -6t-63.5 12t-64 53q-16 43 -10 78z" />
<glyph unicode="&#xdb;" horiz-adv-x="1570" d="M61 1028l15 117q49 254 246 303q51 12 92 8q10 0 28.5 -2t63.5 -18.5t80 -46t63.5 -93t28.5 -151.5q0 -31 -1 -76t-1 -74v-66q0 -38 2 -62.5t5 -53.5t9 -45t15.5 -31.5t21.5 -22.5t29 -7q66 0 78 132t0 306q-6 231 190 285q51 14 94 12q217 12 310 -166l22 -59 q41 -213 35 -392.5t-33 -296.5l-27 -116q-4 -18 -15 -48t-61.5 -107t-116 -135.5t-187 -106.5t-269.5 -46q-346 4 -536 217q-37 43 -54 74q-166 283 -127 768zM439 1615q-5 48 26 85q10 16 47 54t116 88t148 50q68 0 144.5 -52t111.5 -91t47 -55q29 -39 20 -87t-48 -75 q-39 -29 -87.5 -19.5t-76.5 48.5h2l-15 16q-14 16 -41.5 40.5t-56.5 41.5q-78 -49 -129 -105q-2 -4 -8 -9t-23.5 -17t-35 -17.5t-44 0t-53.5 25.5q-39 31 -44 79z" />
<glyph unicode="&#xdc;" horiz-adv-x="1570" d="M61 1028l15 117q49 254 246 303q51 12 92 8q10 0 28.5 -2t63.5 -18.5t80 -46t63.5 -93t28.5 -151.5q0 -31 -1 -76t-1 -74v-66q0 -38 2 -62.5t5 -53.5t9 -45t15.5 -31.5t21.5 -22.5t29 -7q66 0 78 132t0 306q-6 231 190 285q51 14 94 12q217 12 310 -166l22 -59 q41 -213 35 -392.5t-33 -296.5l-27 -116q-4 -18 -15 -48t-61.5 -107t-116 -135.5t-187 -106.5t-269.5 -46q-346 4 -536 217q-37 43 -54 74q-166 283 -127 768zM410 1679q0 68 42 113t115.5 45t115.5 -45t42 -113q0 -70 -42 -114.5t-115.5 -44.5t-115.5 44.5t-42 114.5z M784 1679q0 68 42 113t116 45t116 -45t42 -113q0 -70 -42 -114.5t-116 -44.5t-116 44.5t-42 114.5z" />
<glyph unicode="&#xdd;" horiz-adv-x="1705" d="M164 1112q-12 100 11.5 177t67.5 115t89 60.5t78 26.5l34 6q102 6 188.5 -30.5t136.5 -93t85 -114t47 -98.5l14 -41q23 86 58 151.5t71.5 103.5t75.5 63.5t74 34t61.5 11.5t42.5 1l17 -2q72 -8 125 -34t80.5 -58.5t45 -71.5t21.5 -76t4 -67.5t-4 -49.5l-4 -18 q-55 -240 -301 -397l-72 -41q88 -285 -24 -512l-25 -43q-88 -121 -246 -121q-78 0 -141 23.5t-88 48.5l-24 22q-49 55 -76 133t-30 151.5t0 138t11 103.5l8 41q-14 6 -39.5 18.5t-92 54.5t-119 90t-100.5 128t-60 166zM665.5 1663q6.5 35 22.5 57l17 25q35 45 118.5 102.5 t147.5 77.5q55 25 100 17.5t64.5 -18.5t46.5 -36q25 -27 40 -60.5t5 -81.5t-58 -89q-51 -45 -134 -78t-142 -43l-57 -10q-12 -4 -33 -6t-64 12t-63 53q-17 43 -10.5 78z" />
<glyph unicode="&#xde;" horiz-adv-x="1449" d="M53 752q0 274 78 532q4 12 11.5 30.5t37 67t67.5 83t107.5 59t151.5 16.5q4 0 11 -1l30 -4q23 -3 41 -9t47 -17.5t48 -29t43 -43t32 -59.5t13 -77t-9 -98q428 -12 559 -280q43 -88 41 -164q4 -102 -26.5 -183t-84 -127.5t-118 -78t-130 -43t-121 -15.5t-87.5 -2l-35 2 q53 -258 -148 -327q-53 -18 -100 -19q-227 -10 -346 176l-29 56q-53 147 -68.5 269t-15.5 286zM709 735q6 -76 82 -76q35 0 57 20.5t22 55.5t-21.5 60.5t-57.5 25.5q-35 0 -60.5 -26.5t-21.5 -59.5z" />
<glyph unicode="&#xdf;" horiz-adv-x="1345" d="M61 659q0 291 60 474q37 106 107.5 181t145.5 105.5t142.5 46t110.5 13.5h45q109 -4 199 -34t141 -69t87 -77.5t48 -65.5l12 -27q43 -133 21.5 -226t-68.5 -142l-47 -50q172 -55 229 -219l13 -43q2 -14 4 -40.5t-2 -97.5t-21.5 -131t-67 -127t-124.5 -101 q-104 -53 -190.5 -38t-138.5 54t-85 96q-41 76 -16.5 165t90.5 116q74 29 51 117l-2 4q-20 59 -94 59q-37 0 -59.5 -23.5t-22.5 -66.5q0 -35 2 -67.5t2 -49t-4 -56.5t-15 -108q-20 -129 -81.5 -175t-155.5 -46q-55 0 -105.5 26.5t-100.5 92.5t-80 201.5t-30 328.5zM623 991 q0 -88 82 -88q37 0 59 26.5t22 61.5q0 78 -81 78q-35 0 -58.5 -22.5t-23.5 -55.5z" />
<glyph unicode="&#xe0;" horiz-adv-x="1441" d="M59 516l2 -55q0 -334 252 -447q76 -35 142 -37q102 -12 182 2.5t122 43t69.5 58.5t35.5 52l8 23q8 -57 36 -98.5t60.5 -58.5t63.5 -26.5t53 -9.5h21q12 -2 34.5 -1t76 27.5t93.5 79t68.5 176.5t20.5 298q0 10 -1 29.5t-7.5 73.5t-16.5 103.5t-33.5 110t-54.5 103.5 t-82 72.5t-112 29.5q-82 0 -140.5 -43t-74.5 -88l-19 -43q-2 8 -8 20.5t-31.5 43t-62.5 53t-105.5 37t-154.5 6.5q-133 -12 -227.5 -78t-133.5 -150t-58.5 -167t-17.5 -140zM430 1369q-10 48 5.5 82t39.5 60q27 25 46.5 36.5t64.5 18.5t100 -18q63 -20 147.5 -77.5 t118.5 -102.5q2 -4 7.5 -9t14.5 -23.5t14 -36t5 -43t-12 -48.5q-41 -82 -154 -61l-6 2l-64 11q-40 7 -129 41t-141 79q-47 41 -57 89zM686 483q-4 33 21.5 59.5t60.5 26.5q37 0 58.5 -25.5t21.5 -60t-22.5 -55t-57.5 -20.5q-76 -1 -82 75z" />
<glyph unicode="&#xe1;" horiz-adv-x="1441" d="M59 516l2 -55q0 -334 252 -447q76 -35 142 -37q102 -12 182 2.5t122 43t69.5 58.5t35.5 52l8 23q8 -57 36 -98.5t60.5 -58.5t63.5 -26.5t53 -9.5h21q12 -2 34.5 -1t76 27.5t93.5 79t68.5 176.5t20.5 298q0 10 -1 29.5t-7.5 73.5t-16.5 103.5t-33.5 110t-54.5 103.5 t-82 72.5t-112 29.5q-82 0 -140.5 -43t-74.5 -88l-19 -43q-2 8 -8 20.5t-31.5 43t-62.5 53t-105.5 37t-154.5 6.5q-133 -12 -227.5 -78t-133.5 -150t-58.5 -167t-17.5 -140zM475 1284q6 35 23 59l16 23q35 45 119 102.5t147 77.5q55 25 100.5 17.5t65 -18.5t45.5 -36 q25 -27 40.5 -60.5t5 -81.5t-57.5 -89q-51 -45 -134 -78t-140 -43l-60 -10q-12 -4 -32.5 -6t-63.5 12t-64 53q-16 43 -10 78zM686 483q-4 33 21.5 59.5t60.5 26.5q37 0 58.5 -25.5t21.5 -60t-22.5 -55t-57.5 -20.5q-76 -1 -82 75z" />
<glyph unicode="&#xe2;" horiz-adv-x="1441" d="M59 516l2 -55q0 -334 252 -447q76 -35 142 -37q102 -12 182 2.5t122 43t69.5 58.5t35.5 52l8 23q8 -57 36 -98.5t60.5 -58.5t63.5 -26.5t53 -9.5h21q12 -2 34.5 -1t76 27.5t93.5 79t68.5 176.5t20.5 298q0 10 -1 29.5t-7.5 73.5t-16.5 103.5t-33.5 110t-54.5 103.5 t-82 72.5t-112 29.5q-82 0 -140.5 -43t-74.5 -88l-19 -43q-2 8 -8 20.5t-31.5 43t-62.5 53t-105.5 37t-154.5 6.5q-133 -12 -227.5 -78t-133.5 -150t-58.5 -167t-17.5 -140zM388 1256.5q-5 48.5 26 84.5q10 16 47 54.5t115.5 88.5t148.5 50q68 0 144.5 -52t111.5 -91t47 -56 q29 -39 19.5 -87t-48.5 -74q-39 -29 -87 -20t-76 48h2l-15 17q-14 16 -41.5 40.5t-56.5 40.5q-78 -49 -129 -104q-2 -4 -8 -9t-23.5 -17.5t-35 -17.5t-44 0t-53.5 26q-39 30 -44 78.5zM686 483q-4 33 21.5 59.5t60.5 26.5q37 0 58.5 -25.5t21.5 -60t-22.5 -55t-57.5 -20.5 q-76 -1 -82 75z" />
<glyph unicode="&#xe3;" horiz-adv-x="1482" d="M60 492.5q-1 19.5 4.5 77t17.5 110.5t43 119.5t76 116t120.5 88t174.5 47.5q86 8 154.5 -5.5t105.5 -39t61.5 -51t32.5 -46.5l8 -18l6 18q4 12 22.5 42t42 53.5t67.5 42t96 18.5q86 0 148.5 -54.5t92 -131t46 -152.5t18.5 -129l2 -55q6 -127 -6.5 -227.5t-38 -160 t-58 -101.5t-65.5 -59.5t-61.5 -25.5t-47.5 -6h-16h-23q-14 0 -50 8.5t-65.5 26.5t-58 59t-37.5 99q-2 -8 -8 -23.5t-34.5 -51.5t-70.5 -60.5t-122 -40t-182 -3.5q-16 0 -43 4.5t-94.5 32t-119 73.5t-94.5 144.5t-43 229.5q0 12 -1 31.5zM317 1350q2 8 7.5 22t25 50t44 63.5 t68.5 50.5t96 24t129 -31t163 -99q2 0 2 -4.5t2 -4.5q20 61 69.5 93t108.5 14q8 -2 20.5 -7t39 -24.5t42 -45.5t13.5 -72t-33 -99q-47 -82 -115.5 -111.5t-134 -12t-123 45t-94.5 55.5l-35 31q-14 -51 -39.5 -82.5t-53 -41t-53.5 -10.5t-42 5l-16 4q-53 18 -82 76t-9 111z M686 483q6 -76 82 -75q35 0 57.5 20.5t22.5 55t-21.5 60t-58.5 25.5q-35 0 -60.5 -26.5t-21.5 -59.5z" />
<glyph unicode="&#xe4;" horiz-adv-x="1441" d="M60 492.5q-1 19.5 4.5 77t17.5 110.5t43 119.5t76 116t120.5 88t174.5 47.5q86 8 154.5 -5.5t105.5 -39t61.5 -51t32.5 -46.5l8 -18l6 18q4 12 22.5 42t42 53.5t67.5 42t96 18.5q86 0 148.5 -54.5t92 -131t46 -152.5t18.5 -129l2 -55q6 -127 -6.5 -227.5t-38 -160 t-58 -101.5t-65.5 -59.5t-61.5 -25.5t-47.5 -6h-16h-23q-14 0 -50 8.5t-65.5 26.5t-58 59t-37.5 99q-2 -8 -8 -23.5t-34.5 -51.5t-70.5 -60.5t-122 -40t-182 -3.5q-16 0 -43 4.5t-94.5 32t-119 73.5t-94.5 144.5t-43 229.5q0 12 -1 31.5zM389 1286q0 68 42 113t116 45 t116 -45t42 -113q0 -70 -42 -115t-116 -45t-116 45t-42 115zM686 483q6 -76 82 -75q35 0 57.5 20.5t22.5 55t-21.5 60t-58.5 25.5q-35 0 -60.5 -26.5t-21.5 -59.5zM764 1286q0 68 42 113t115.5 45t115.5 -45t42 -113q0 -70 -42 -115t-115.5 -45t-115.5 45t-42 115z" />
<glyph unicode="&#xe5;" horiz-adv-x="1441" d="M60 492.5q-1 19.5 4.5 77t17.5 110.5t43 119.5t76 116t120.5 88t174.5 47.5q86 8 154.5 -5.5t105.5 -39t61.5 -51t32.5 -46.5l8 -18l6 18q4 12 22.5 42t42 53.5t67.5 42t96 18.5q86 0 148.5 -54.5t92 -131t46 -152.5t18.5 -129l2 -55q6 -127 -6.5 -227.5t-38 -160 t-58 -101.5t-65.5 -59.5t-61.5 -25.5t-47.5 -6h-16h-23q-14 0 -50 8.5t-65.5 26.5t-58 59t-37.5 99q-2 -8 -8 -23.5t-34.5 -51.5t-70.5 -60.5t-122 -40t-182 -3.5q-16 0 -43 4.5t-94.5 32t-119 73.5t-94.5 144.5t-43 229.5q0 12 -1 31.5zM508 1331q0 96 73.5 166t178.5 70 q102 0 176 -70t74 -166q0 -98 -74 -166.5t-176 -68.5q-104 0 -178 68.5t-74 166.5zM651 1327q0 -104 109 -104q53 0 78.5 31.5t25.5 72.5q0 47 -27.5 79t-76.5 32q-47 0 -78 -32t-31 -79zM686 483q6 -76 82 -75q35 0 57.5 20.5t22.5 55t-21.5 60t-58.5 25.5 q-35 0 -60.5 -26.5t-21.5 -59.5z" />
<glyph unicode="&#xe6;" horiz-adv-x="2195" d="M79 517.5q-1 19.5 4 76.5t17.5 110.5t43 120t75.5 115.5t121 88t174 47q86 8 154.5 -5t105.5 -38.5t61.5 -51.5t32.5 -46l9 -19l6 19q4 12 22.5 42t42 53.5t67.5 42t95 18.5q106 0 178 -82q45 27 88 41l40 11q26 7 102.5 16t148.5 4t165 -39.5t167 -100.5 q12 -10 30.5 -31.5t51.5 -96.5t33 -159q0 -100 -62.5 -161.5t-153 -72.5t-190.5 3q51 -41 124 -58.5t124 -19.5t94 -30.5t51 -94.5q0 -6 1 -16t-4 -38t-18.5 -53.5t-45 -55t-78.5 -48.5q-12 -4 -35 -10t-93.5 -17.5t-142 -12.5t-174 15.5t-194.5 53.5q-10 4 -27 14 q-78 -74 -166 -63h-22q-14 0 -50 8t-66 26.5t-58.5 59.5t-36.5 98q-2 -8 -8 -23.5t-35 -51t-71 -60.5t-122 -40t-182 -3q-16 0 -43 4t-94.5 32t-118.5 74t-94 144t-43 229q0 13 -1 32.5zM694 485q0 -35 21.5 -54t54.5 -19q35 0 56.5 19.5t21.5 53.5q0 39 -22.5 62.5 t-55.5 23.5t-54.5 -23.5t-21.5 -62.5zM1587 598q0 -59 64 -59q29 0 47 16t18 43q0 61 -65 61q-64 0 -64 -61z" />
<glyph unicode="&#xe7;" horiz-adv-x="1167" d="M51 526q0 16 1 45t19.5 107t52.5 144.5t111.5 135t184.5 101.5l40 11q26 7 98.5 15.5t142 3t156.5 -38t153 -94.5l10 -10q6 -6 21.5 -30.5t23.5 -51t7 -69.5t-17 -88q-2 -6 -8.5 -16.5t-28 -38t-53 -42t-85 -28t-120.5 5.5q-6 2 -15.5 4t-34 4t-44 -1t-35 -20.5 t-15.5 -46.5q0 -4 1 -10t9.5 -21.5t22 -23.5t43 -8t70.5 16q4 2 11 5t30.5 8.5t47 7.5t56.5 -1t61.5 -15.5t59.5 -39t55 -65.5l11 -21q6 -12 12 -50t0 -75.5t-37 -87t-88 -90.5q-14 -10 -43 -27.5t-121 -44t-190 -26.5v-29q111 0 180 -49q72 -49 72 -174q0 -111 -74 -170 q-39 -33 -103.5 -45t-109.5 -8l-45 4q-39 0 -66.5 29.5t-23.5 72.5q8 82 92 74q6 0 14 -1t31.5 -1t41 3t32 13.5t14.5 26.5q0 37 -39 49.5t-125 12.5q-29 2 -40 3t-23.5 16t-12.5 46v154q-74 23 -129 47q-10 4 -27.5 14t-63.5 51t-79.5 91.5t-62.5 140.5t-29 196z" />
<glyph unicode="&#xe8;" horiz-adv-x="1196" d="M76 535q0 16 2 42.5t20.5 101.5t50 138.5t102.5 131t165 102.5l40 11q26 7 102.5 16t148 4t165 -39.5t166.5 -100.5q12 -10 30.5 -31.5t51.5 -96.5t33 -159q0 -100 -62.5 -161.5t-152.5 -72.5t-190 3q51 -41 123.5 -58.5t124 -19.5t94.5 -30.5t51 -94.5q0 -6 1 -16 t-4 -38t-18.5 -53.5t-45.5 -55t-79 -48.5q-12 -4 -34.5 -10t-93 -17.5t-142.5 -12.5t-174 15.5t-195 53.5q-12 4 -31.5 14t-69.5 50t-88 91.5t-66.5 143t-24.5 197.5zM315.5 1369q-10.5 48 5 82t39.5 60q27 25 46.5 36.5t64.5 18.5t100 -18q63 -20 147.5 -77.5t119.5 -102.5 q2 -4 7 -9t14 -23.5t14.5 -36t5.5 -43t-13 -48.5q-41 -82 -153 -61l-6 2l-65 11q-40 7 -129 41t-140 79q-47 41 -57.5 89zM612 598q6 -76 82 -76q35 0 57.5 20.5t22.5 55.5t-21.5 60.5t-58.5 25.5q-35 0 -60.5 -26.5t-21.5 -59.5z" />
<glyph unicode="&#xe9;" horiz-adv-x="1196" d="M76 535q0 16 2 42.5t20.5 101.5t50 138.5t102.5 131t165 102.5l40 11q26 7 102.5 16t148 4t165 -39.5t166.5 -100.5q12 -10 30.5 -31.5t51.5 -96.5t33 -159q0 -100 -62.5 -161.5t-152.5 -72.5t-190 3q51 -41 123.5 -58.5t124 -19.5t94.5 -30.5t51 -94.5q0 -6 1 -16 t-4 -38t-18.5 -53.5t-45.5 -55t-79 -48.5q-12 -4 -34.5 -10t-93 -17.5t-142.5 -12.5t-174 15.5t-195 53.5q-12 4 -31.5 14t-69.5 50t-88 91.5t-66.5 143t-24.5 197.5zM325.5 1284q6.5 35 22.5 59l17 23q35 45 118.5 102.5t147.5 77.5q55 25 100 17.5t64.5 -18.5t46.5 -36 q25 -27 40 -60.5t5 -81.5t-58 -89q-51 -45 -134 -78t-142 -43l-57 -10q-12 -4 -33 -6t-64 12t-63 53q-17 43 -10.5 78zM612 598q6 -76 82 -76q35 0 57.5 20.5t22.5 55.5t-21.5 60.5t-58.5 25.5q-35 0 -60.5 -26.5t-21.5 -59.5z" />
<glyph unicode="&#xea;" horiz-adv-x="1196" d="M76 535q0 16 2 42.5t20.5 101.5t50 138.5t102.5 131t165 102.5l40 11q26 7 102.5 16t148 4t165 -39.5t166.5 -100.5q12 -10 30.5 -31.5t51.5 -96.5t33 -159q0 -100 -62.5 -161.5t-152.5 -72.5t-190 3q51 -41 123.5 -58.5t124 -19.5t94.5 -30.5t51 -94.5q0 -6 1 -16 t-4 -38t-18.5 -53.5t-45.5 -55t-79 -48.5q-12 -4 -34.5 -10t-93 -17.5t-142.5 -12.5t-174 15.5t-195 53.5q-12 4 -31.5 14t-69.5 50t-88 91.5t-66.5 143t-24.5 197.5zM300 1256.5q-5 48.5 26 84.5q10 16 47 54.5t115.5 88.5t148.5 50q68 0 144.5 -52t111.5 -91t47 -56 q29 -39 19.5 -87t-48.5 -74q-39 -29 -87 -20t-76 48h2l-15 17q-14 16 -41.5 40.5t-56.5 40.5q-78 -49 -129 -104q-2 -4 -8 -9t-23.5 -17.5t-35 -17.5t-44 0t-53.5 26q-39 30 -44 78.5zM612 598q6 -76 82 -76q35 0 57.5 20.5t22.5 55.5t-21.5 60.5t-58.5 25.5 q-35 0 -60.5 -26.5t-21.5 -59.5z" />
<glyph unicode="&#xeb;" horiz-adv-x="1196" d="M76 535q0 16 2 42.5t20.5 101.5t50 138.5t102.5 131t165 102.5l40 11q26 7 102.5 16t148 4t165 -39.5t166.5 -100.5q12 -10 30.5 -31.5t51.5 -96.5t33 -159q0 -100 -62.5 -161.5t-152.5 -72.5t-190 3q51 -41 123.5 -58.5t124 -19.5t94.5 -30.5t51 -94.5q0 -6 1 -16 t-4 -38t-18.5 -53.5t-45.5 -55t-79 -48.5q-12 -4 -34.5 -10t-93 -17.5t-142.5 -12.5t-174 15.5t-195 53.5q-12 4 -31.5 14t-69.5 50t-88 91.5t-66.5 143t-24.5 197.5zM279 1286q0 68 41.5 113t115.5 45t116 -45t42 -113q0 -70 -42 -115t-116 -45t-115.5 45t-41.5 115z M612 598q6 -76 82 -76q35 0 57.5 20.5t22.5 55.5t-21.5 60.5t-58.5 25.5q-35 0 -60.5 -26.5t-21.5 -59.5zM653 1286q0 68 42 113t116 45t116 -45t42 -113q0 -70 -42 -115t-116 -45t-116 45t-42 115z" />
<glyph unicode="&#xec;" horiz-adv-x="796" d="M79 469q-1 -178 48 -311q2 -8 8 -20.5t28.5 -44.5t53.5 -56.5t85 -43t120 -16.5q10 0 26.5 1.5t61.5 13.5t82 34.5t71.5 71.5t47.5 119q61 360 4 598l-2 10q-2 10 -7.5 27.5t-28 61.5t-53 77t-88 57.5t-128.5 20.5h-13q-8 0 -32.5 -4t-47 -11t-53.5 -25.5t-56.5 -43 t-49 -65.5t-37.5 -93q-10 -41 -24.5 -110.5t-15.5 -247.5zM121 1369q-10 48 5 82t40 60q27 25 46 36.5t64.5 18.5t100.5 -18q63 -20 147 -77.5t119 -102.5q2 -4 7 -9t14.5 -23.5t14.5 -36t5 -43t-12 -48.5q-41 -82 -154 -61l-6 2l-65 11q-40 7 -129 41t-140 79 q-47 41 -57 89z" />
<glyph unicode="&#xed;" horiz-adv-x="796" d="M79 469q-1 -178 48 -311q2 -8 8 -20.5t28.5 -44.5t53.5 -56.5t85 -43t120 -16.5q10 0 26.5 1.5t61.5 13.5t82 34.5t71.5 71.5t47.5 119q61 360 4 598l-2 10q-2 10 -7.5 27.5t-28 61.5t-53 77t-88 57.5t-128.5 20.5h-13q-8 0 -32.5 -4t-47 -11t-53.5 -25.5t-56.5 -43 t-49 -65.5t-37.5 -93q-10 -41 -24.5 -110.5t-15.5 -247.5zM139 1284q6 35 23 59l16 23q35 45 119 102.5t147 77.5q55 25 100.5 17.5t65 -18.5t45.5 -36q25 -27 40.5 -60.5t5 -81.5t-57.5 -89q-51 -45 -134 -78t-140 -43l-60 -10q-12 -4 -32.5 -6t-63.5 12t-63 53 q-17 43 -11 78z" />
<glyph unicode="&#xee;" horiz-adv-x="796" d="M58 1252q-5 48 26 85q10 16 47 54.5t116 88.5t148 50q68 0 144.5 -52.5t111.5 -91t47 -55.5q29 -39 20 -87t-48 -75q-39 -29 -87 -19.5t-77 48.5h2l-14 16q-14 16 -42 41t-57 41q-78 -49 -129 -104q-2 -4 -8 -9t-23.5 -17.5t-35 -17.5t-44 0t-53.5 26q-39 30 -44 78z M79 469q-1 -178 48 -311q2 -8 8 -20.5t28.5 -44.5t53.5 -56.5t85 -43t120 -16.5q10 0 26.5 1.5t61.5 13.5t82 34.5t71.5 71.5t47.5 119q61 360 4 598l-2 10q-2 10 -7.5 27.5t-28 61.5t-53 77t-88 57.5t-128.5 20.5h-13q-8 0 -32.5 -4t-47 -11t-53.5 -25.5t-56.5 -43 t-49 -65.5t-37.5 -93q-10 -41 -24.5 -110.5t-15.5 -247.5z" />
<glyph unicode="&#xef;" horiz-adv-x="892" d="M92 1286q0 68 42 113t116 45t116 -45t42 -113q0 -70 -42 -115t-116 -45t-116 45t-42 115zM119 780l10 47q20 70 57 121t75 73.5t75 35t59 12.5h23q197 10 282 -176l23 -68q6 -25 15.5 -71.5t10.5 -205.5t-28 -331q-12 -70 -46 -119t-74 -71.5t-79 -34.5t-63 -12l-27 -3 q-66 -2 -120 15.5t-84.5 44t-52 54.5t-30.5 48l-8 19q-94 260 -18 622zM467 1286q0 68 42 113t115.5 45t115.5 -45t42 -113q0 -70 -42 -115t-115.5 -45t-115.5 45t-42 115z" />
<glyph unicode="&#xf0;" horiz-adv-x="1681" d="M37 525.5q-4 99.5 34 210t113 182.5q70 66 157 102.5t160.5 40.5t137 -1t98.5 -16l37 -12q-6 35 -10 86q-86 4 -129 8q-84 6 -131 40t-53 67l-5 31q4 2 0 14t6.5 34.5t27 44t59.5 41t102 27.5q49 6 162 15q66 143 221 143q168 0 260 -145l178 -13q84 -8 130 -42.5 t50 -63.5l5 -31q-2 -2 1 -13t-5.5 -32.5t-19.5 -42t-44 -39t-78 -24.5l-135 -13q27 -412 -43 -653q-33 -135 -103.5 -222t-205.5 -165q-160 -82 -372 -90t-361 67q-6 4 -18.5 11.5t-45.5 32t-60.5 53t-56 77t-41.5 99.5q-18 92 -22 191.5zM649 475q6 -76 82 -76 q35 0 57.5 20.5t22.5 55.5t-21.5 60.5t-58.5 25.5q-35 0 -60.5 -26.5t-21.5 -59.5z" />
<glyph unicode="&#xf1;" horiz-adv-x="1466" d="M77 489.5q-11 124.5 5 249.5q0 12 4 33t22.5 75t48 96t88 79t136.5 41q84 4 145.5 -7.5t99.5 -40t53 -48t36 -54.5q8 4 22.5 12.5t60.5 28t90 32.5t105.5 19.5t115.5 -3t110.5 -43t98.5 -92t72.5 -160t41.5 -236.5q0 -8 1 -23.5t-2.5 -60.5t-10.5 -87t-27.5 -95t-50 -94 t-82 -75t-117.5 -46h-80q-213 18 -260 203q-8 37 -10 79q-18 289 -72 289q16 -199 2 -303q0 -10 -4 -28.5t-22.5 -65.5t-48.5 -83t-90 -65.5t-140 -31.5q-203 -4 -287 200q-18 47 -25 84q-6 20 -12 58.5t-17 163zM326 1350q2 8 7 22t24.5 50t44 63.5t68.5 50.5t96 24 t129 -31t163 -99q2 0 2 -4.5t2 -4.5q20 61 69.5 93t108.5 14q8 -2 20.5 -7t39 -24.5t42 -45.5t13.5 -72t-33 -99q-47 -82 -115.5 -111.5t-134 -12t-123 45t-94.5 55.5l-34 31q-14 -51 -40 -82.5t-53.5 -41t-53 -10.5t-42.5 5l-16 4q-53 18 -81.5 76t-8.5 111z" />
<glyph unicode="&#xf2;" horiz-adv-x="1222" d="M66 481q0 129 32.5 230.5t86 161t117 100.5t127 57.5t116.5 23.5t86 5l33 -2q109 0 195.5 -29t140 -75t93.5 -100t58 -109.5t28.5 -101.5t12.5 -75v-28q0 -178 -64 -301q-39 -72 -103 -129.5t-110 -79.5l-45 -23q-49 -20 -101 -31.5t-79 -11.5l-26 -2q-408 0 -547 305 q-51 113 -51 215zM319.5 1369q-10.5 48 5 82t40.5 60q27 25 46 36.5t64 18.5t100 -18q63 -20 147.5 -77.5t119.5 -102.5q2 -4 7 -9t14 -23.5t14.5 -36t5.5 -43t-13 -48.5q-41 -82 -153 -61l-6 2l-65 11q-40 7 -129 41t-140 79q-47 41 -57.5 89zM569 475q6 -76 82 -76 q35 0 57.5 20.5t22.5 55.5t-21.5 60.5t-58.5 25.5q-35 0 -60.5 -26.5t-21.5 -59.5z" />
<glyph unicode="&#xf3;" horiz-adv-x="1222" d="M66 481q0 129 32.5 230.5t86 161t117 100.5t127 57.5t116.5 23.5t86 5l33 -2q109 0 195.5 -29t140 -75t93.5 -100t58 -109.5t28.5 -101.5t12.5 -75v-28q0 -178 -64 -301q-39 -72 -103 -129.5t-110 -79.5l-45 -23q-49 -20 -101 -31.5t-79 -11.5l-26 -2q-408 0 -547 305 q-51 113 -51 215zM332 1284q6 35 22 59l17 23q35 45 118.5 102.5t147.5 77.5q55 25 100 17.5t64.5 -18.5t46.5 -36q25 -27 40 -60.5t5 -81.5t-57 -89q-51 -45 -134.5 -78t-140.5 -43l-59 -10q-12 -4 -32.5 -6t-64 12t-63.5 53q-16 43 -10 78zM569 475q6 -76 82 -76 q35 0 57.5 20.5t22.5 55.5t-21.5 60.5t-58.5 25.5q-35 0 -60.5 -26.5t-21.5 -59.5z" />
<glyph unicode="&#xf4;" horiz-adv-x="1222" d="M66 481q0 129 32.5 230.5t86 161t117 100.5t127 57.5t116.5 23.5t86 5l33 -2q109 0 195.5 -29t140 -75t93.5 -100t58 -109.5t28.5 -101.5t12.5 -75v-28q0 -178 -64 -301q-39 -72 -103 -129.5t-110 -79.5l-45 -23q-49 -20 -101 -31.5t-79 -11.5l-26 -2q-408 0 -547 305 q-51 113 -51 215zM294 1273q-5 48 25 85q10 16 47 54t116 88t149 50q68 0 144.5 -52t111.5 -91t47 -55q29 -39 19.5 -87t-48.5 -75q-39 -29 -87 -19.5t-77 48.5h2l-14 16q-14 16 -42 40.5t-56 41.5q-78 -49 -129 -105q-2 -4 -8.5 -9t-23.5 -17t-34.5 -17.5t-44 0t-53.5 25.5 q-39 31 -44 79zM569 475q6 -76 82 -76q35 0 57.5 20.5t22.5 55.5t-21.5 60.5t-58.5 25.5q-35 0 -60.5 -26.5t-21.5 -59.5z" />
<glyph unicode="&#xf5;" horiz-adv-x="1222" d="M66 481q0 129 32.5 230.5t86 161t117 100.5t127 57.5t116.5 23.5t86 5l33 -2q109 0 195.5 -29t140 -75t93.5 -100t58 -109.5t28.5 -101.5t12.5 -75v-28q0 -178 -64 -301q-39 -72 -103 -129.5t-110 -79.5l-45 -23q-49 -20 -101 -31.5t-79 -11.5l-26 -2q-408 0 -547 305 q-51 113 -51 215zM227 1350q2 8 7.5 22t25 50t44 63.5t68.5 50.5t96 24t129 -31t163 -99q2 0 2 -4.5t2 -4.5q20 61 69.5 93t108.5 14q8 -2 20.5 -7t39 -24.5t42 -45.5t13.5 -72t-33 -99q-47 -82 -115.5 -111.5t-134 -12t-123 45t-94.5 55.5l-35 31q-14 -51 -39.5 -82.5 t-53.5 -41t-53.5 -10.5t-41.5 5l-17 4q-53 18 -81.5 76t-8.5 111zM569 475q6 -76 82 -76q35 0 57.5 20.5t22.5 55.5t-21.5 60.5t-58.5 25.5q-35 0 -60.5 -26.5t-21.5 -59.5z" />
<glyph unicode="&#xf6;" horiz-adv-x="1222" d="M66 481q0 129 32.5 230.5t86 161t117 100.5t127 57.5t116.5 23.5t86 5l33 -2q109 0 195.5 -29t140 -75t93.5 -100t58 -109.5t28.5 -101.5t12.5 -75v-28q0 -178 -64 -301q-39 -72 -103 -129.5t-110 -79.5l-45 -23q-49 -20 -101 -31.5t-79 -11.5l-26 -2q-408 0 -547 305 q-51 113 -51 215zM268 1300q0 68 42 113t116 45t116 -45t42 -113q0 -70 -42 -114.5t-116 -44.5t-116 44.5t-42 114.5zM569 475q6 -76 82 -76q35 0 57.5 20.5t22.5 55.5t-21.5 60.5t-58.5 25.5q-35 0 -60.5 -26.5t-21.5 -59.5zM643 1300q0 68 42 113t115.5 45t115.5 -45 t42 -113q0 -70 -42 -114.5t-115.5 -44.5t-115.5 44.5t-42 114.5z" />
<glyph unicode="&#xf7;" horiz-adv-x="1175" d="M52 769q-5 17 6.5 50t28.5 63.5t66.5 61.5t118.5 45q141 27 294 28t233 -11l82 -13q96 -23 149 -76t60 -94l6 -41q2 -6 3 -18t-4 -46t-19.5 -61.5t-53.5 -56.5t-96 -43q-289 -68 -652 -18q-98 14 -153 66t-62 100l-6 45q4 2 -1 19zM369 242q0 86 53 143t147.5 57 t147.5 -57t53 -143q0 -88 -53 -144.5t-147.5 -56.5t-147.5 56.5t-53 144.5zM369 1300q0 86 53 143.5t147.5 57.5t147.5 -57.5t53 -143.5q0 -88 -53 -144t-147.5 -56t-147.5 56t-53 144z" />
<glyph unicode="&#xf8;" horiz-adv-x="1200" d="M39 485q0 129 32.5 230.5t86 161t117 100.5t127 57.5t116.5 23.5t86 5l33 -2h18l68 117q45 74 106.5 96t100.5 8l39 -14q6 -2 13 -5t28.5 -17.5t30 -37t14.5 -63.5t-17 -96l-39 -113q74 -68 115 -166t45 -164l6 -63q0 -178 -63 -301q-39 -72 -103.5 -129.5t-109.5 -79.5 l-45 -23q-49 -20 -100.5 -31.5t-79.5 -11.5l-27 -2q-41 0 -62 2l-69 -133q-72 -119 -189 -90l-14 4q-6 2 -13 5t-28.5 17.5t-33 36t-22.5 58.5t3 86q20 84 35 129q-172 127 -201 362zM539 475q6 -76 82 -76q35 0 57 20.5t22 55.5t-21.5 60.5t-57.5 25.5q-35 0 -60.5 -26.5 t-21.5 -59.5z" />
<glyph unicode="&#xf9;" horiz-adv-x="1392" d="M96 752l13 73q47 205 233 228q45 6 78 0q8 0 22.5 -3t51 -18.5t65.5 -41t53.5 -80t26.5 -124.5v-32q0 -23 1 -36t2 -36t3 -37t4 -32.5t7.5 -30t12.5 -21.5t15 -15t21 -5q43 0 52 47t11 198q0 76 24.5 131.5t58.5 80t68.5 39t59.5 16.5l22 2q211 10 285 -164l19 -60 q53 -252 -52 -526l-10 -26q-4 -12 -14 -35t-52 -78t-95.5 -96t-148.5 -74t-208 -31q-119 2 -218 25.5t-155.5 54.5t-95.5 61.5t-53 51.5l-15 20q-139 205 -92 574zM352 1369q-10 48 5.5 82t39.5 60q27 25 46.5 36.5t64.5 18.5t100 -18q63 -20 147.5 -77.5t118.5 -102.5 q2 -4 7.5 -9t14.5 -23.5t14 -36t5 -43t-12 -48.5q-41 -82 -153 -61l-7 2l-64 11q-40 7 -129 41t-140 79q-48 41 -58 89z" />
<glyph unicode="&#xfa;" horiz-adv-x="1392" d="M96 752l13 73q47 205 233 228q45 6 78 0q8 0 22.5 -3t51 -18.5t65.5 -41t53.5 -80t26.5 -124.5v-32q0 -23 1 -36t2 -36t3 -37t4 -32.5t7.5 -30t12.5 -21.5t15 -15t21 -5q43 0 52 47t11 198q0 76 24.5 131.5t58.5 80t68.5 39t59.5 16.5l22 2q211 10 285 -164l19 -60 q53 -252 -52 -526l-10 -26q-4 -12 -14 -35t-52 -78t-95.5 -96t-148.5 -74t-208 -31q-119 2 -218 25.5t-155.5 54.5t-95.5 61.5t-53 51.5l-15 20q-139 205 -92 574zM448.5 1284q6.5 35 22.5 59l16 23q35 45 119 102.5t148 77.5q55 25 100 17.5t64.5 -18.5t46.5 -36 q25 -27 40 -60.5t4.5 -81.5t-57.5 -89q-51 -45 -134 -78t-142 -43l-58 -10q-12 -4 -32.5 -6t-63.5 12t-63 53q-17 43 -10.5 78z" />
<glyph unicode="&#xfb;" horiz-adv-x="1392" d="M96 752l13 73q47 205 233 228q45 6 78 0q8 0 22.5 -3t51 -18.5t65.5 -41t53.5 -80t26.5 -124.5v-32q0 -23 1 -36t2 -36t3 -37t4 -32.5t7.5 -30t12.5 -21.5t15 -15t21 -5q43 0 52 47t11 198q0 76 24.5 131.5t58.5 80t68.5 39t59.5 16.5l22 2q211 10 285 -164l19 -60 q53 -252 -52 -526l-10 -26q-4 -12 -14 -35t-52 -78t-95.5 -96t-148.5 -74t-208 -31q-119 2 -218 25.5t-155.5 54.5t-95.5 61.5t-53 51.5l-15 20q-139 205 -92 574zM355 1299.5q-5 48.5 26 84.5q10 16 47 54.5t116 88.5t148 50q68 0 144.5 -52t111.5 -91t47 -56 q29 -39 20 -87t-48 -74q-39 -29 -87.5 -20t-76.5 48h2l-14 17q-14 16 -42 40.5t-57 40.5q-78 -49 -129 -104q-2 -4 -8 -9t-23.5 -17.5t-35 -17.5t-44 0t-53.5 26q-39 30 -44 78.5z" />
<glyph unicode="&#xfc;" horiz-adv-x="1392" d="M96 752l13 73q47 205 233 228q45 6 78 0q8 0 22.5 -3t51 -18.5t65.5 -41t53.5 -80t26.5 -124.5v-32q0 -23 1 -36t2 -36t3 -37t4 -32.5t7.5 -30t12.5 -21.5t15 -15t21 -5q43 0 52 47t11 198q0 76 24.5 131.5t58.5 80t68.5 39t59.5 16.5l22 2q211 10 285 -164l19 -60 q53 -252 -52 -526l-10 -26q-4 -12 -14 -35t-52 -78t-95.5 -96t-148.5 -74t-208 -31q-119 2 -218 25.5t-155.5 54.5t-95.5 61.5t-53 51.5l-15 20q-139 205 -92 574zM362 1321q0 68 42 113t116 45t116 -45t42 -113q0 -70 -42 -115t-116 -45t-116 45t-42 115zM737 1321 q0 68 42 113t116 45t116 -45t42 -113q0 -70 -42 -115t-116 -45t-116 45t-42 115z" />
<glyph unicode="&#xfd;" horiz-adv-x="1490" d="M39 763q0 52 30.5 121.5t100.5 125.5q8 6 24.5 14t65.5 19.5t98.5 6t118 -45t127.5 -115.5q39 -49 121 -168q102 184 186 258q147 129 310 55q10 -4 25.5 -11t48 -45t49 -91t9.5 -155.5t-55 -231.5q-68 -188 -154.5 -364.5t-139.5 -258.5l-52 -82q-4 -8 -11 -20.5 t-32.5 -48t-53.5 -66.5t-71 -62.5t-88 -48t-103 -15.5t-116 30q-258 123 -28 602l8 16l-72 66q-174 135 -281 303q-8 10 -18 28.5t-28.5 75t-18.5 108.5zM475 1284q6 35 23 59l16 23q35 45 119 102.5t147 77.5q55 25 100.5 17.5t65 -18.5t45.5 -36q25 -27 40.5 -60.5 t5 -81.5t-57.5 -89q-51 -45 -134 -78t-140 -43l-60 -10q-12 -4 -32.5 -6t-63.5 12t-64 53q-16 43 -10 78z" />
<glyph unicode="&#xfe;" horiz-adv-x="1394" d="M49 518q0 365 80 746q0 8 2 20t12.5 47t23.5 67t39.5 70.5t58.5 66.5t82 44t110 14q98 -6 157.5 -67.5t73.5 -144.5t15.5 -164.5t-9.5 -139.5l-10 -57l41 11q27 7 102.5 14.5t144 -2t150.5 -52.5t138 -119q82 -113 92 -287.5t-49 -297.5q-41 -88 -103.5 -152.5 t-105.5 -85.5l-41 -18q-80 -37 -183.5 -38t-181.5 13q6 -37 10 -77t6.5 -106.5t-11 -123.5t-37 -112.5t-76 -90.5t-123.5 -39q-74 -4 -134.5 28t-94 81t-58.5 99t-33 85l-8 37q-10 35 -25.5 96.5t-38 253t-16.5 381.5zM711 475q6 -76 82 -76q35 0 57 20.5t22 55.5 t-21.5 60.5t-57.5 25.5q-35 0 -60.5 -26.5t-21.5 -59.5z" />
<glyph unicode="&#xff;" horiz-adv-x="1490" d="M39 763q0 52 30.5 121.5t100.5 125.5q8 6 24.5 14t65.5 19.5t98.5 6t118 -45t127.5 -115.5q39 -49 121 -168q102 184 186 258q147 129 310 55q10 -4 25.5 -11t48 -45t49 -91t9.5 -155.5t-55 -231.5q-68 -188 -154.5 -364.5t-139.5 -258.5l-52 -82q-4 -8 -11 -20.5 t-32.5 -48t-53.5 -66.5t-71 -62.5t-88 -48t-103 -15.5t-116 30q-258 123 -28 602l8 16l-72 66q-174 135 -281 303q-8 10 -18 28.5t-28.5 75t-18.5 108.5zM371 1286q0 68 42 113t115.5 45t115.5 -45t42 -113q0 -70 -42 -115t-115.5 -45t-115.5 45t-42 115zM745 1286 q0 68 42 113t116 45t116 -45t42 -113q0 -70 -42 -115t-116 -45t-116 45t-42 115z" />
<glyph unicode="&#x152;" horiz-adv-x="2299" d="M57 678q0 539 379 708q176 78 359 64q225 0 379 -109q164 139 505 142h52q147 2 252.5 -21.5t151.5 -59.5t70.5 -73t26.5 -63v-25q2 -92 -47 -155.5t-120.5 -89t-144.5 -39t-122 -11.5h-51q84 -6 144.5 -29.5t85 -51t38 -54.5t13.5 -45l-3 -16q0 -63 -30.5 -107.5 t-77.5 -63t-81 -25.5t-62 -9q133 4 229 -22.5t139 -66.5t66.5 -81t25.5 -70l2 -29q-8 -190 -321 -251q-92 -16 -170 -19q-387 -29 -567 113q-80 -59 -176.5 -92t-151.5 -37l-55 -4q-150 0 -273 37.5t-197.5 99t-130 135.5t-80 147.5t-39 135t-16.5 98.5zM690 696 q6 -76 82 -75q35 0 57.5 20.5t22.5 55t-21.5 60t-58.5 25.5q-35 0 -60.5 -26.5t-21.5 -59.5z" />
<glyph unicode="&#x153;" horiz-adv-x="1921" d="M70 494q0 129 32.5 230t86 160.5t117 100.5t127 57.5t116.5 23.5t86 5l33 -2q195 0 321 -92q49 33 105 53l40 11q26 7 102.5 16.5t148 4.5t164.5 -40t167 -100q12 -10 30.5 -32t51.5 -96.5t33 -158.5q0 -100 -62.5 -161.5t-152.5 -73t-191 2.5q51 -41 124 -58t124 -19 t94 -31t52 -94q0 -6 1 -16.5t-4.5 -38t-18.5 -53t-45 -55.5t-79 -48q-12 -4 -34.5 -10.5t-93 -17.5t-142.5 -12t-174.5 15.5t-194.5 52.5q-33 14 -76 45l-84 -45q-49 -20 -101 -31.5t-79 -11.5l-26 -2q-408 0 -547 306q-51 113 -51 215zM555 496q6 -76 82 -76 q35 0 57.5 20.5t22.5 55t-21.5 60.5t-58.5 26q-35 0 -60.5 -26.5t-21.5 -59.5zM1309 596q6 -76 82 -76q35 0 57 20.5t22 55.5t-21.5 60.5t-57.5 25.5q-35 0 -60.5 -26.5t-21.5 -59.5z" />
<glyph unicode="&#x178;" horiz-adv-x="1705" d="M164 1112q-12 100 11.5 177t67.5 115t89 60.5t78 26.5l34 6q102 6 188.5 -30.5t136.5 -93t85 -114t47 -98.5l14 -41q23 86 58 151.5t71.5 103.5t75.5 63.5t74 34t61.5 11.5t42.5 1l17 -2q72 -8 125 -34t80.5 -58.5t45 -71.5t21.5 -76t4 -67.5t-4 -49.5l-4 -18 q-55 -240 -301 -397l-72 -41q88 -285 -24 -512l-25 -43q-88 -121 -246 -121q-78 0 -141 23.5t-88 48.5l-24 22q-49 55 -76 133t-30 151.5t0 138t11 103.5l8 41q-14 6 -39.5 18.5t-92 54.5t-119 90t-100.5 128t-60 166zM549 1706q0 68 42 113t115.5 45t115.5 -45t42 -113 q0 -70 -42 -115t-115.5 -45t-115.5 45t-42 115zM924 1706q0 68 42 113t115.5 45t115.5 -45t42 -113q0 -70 -42 -115t-115.5 -45t-115.5 45t-42 115z" />
<glyph unicode="&#x2c6;" horiz-adv-x="804" d="M68.5 1256.5q-5.5 48.5 25.5 84.5q10 16 47 54.5t116 88.5t149 50q68 0 144.5 -52t111 -91t47.5 -56q29 -39 19.5 -87t-48.5 -74q-39 -29 -87 -20t-77 48h2l-14 17q-14 16 -42 40.5t-56 40.5q-78 -49 -130 -104q-2 -4 -8 -9t-23.5 -17.5t-34.5 -17.5t-44 0t-53 26 q-39 30 -44.5 78.5z" />
<glyph unicode="&#x2dc;" horiz-adv-x="1044" d="M104 1358q2 8 7.5 22.5t25 50t44 63.5t68.5 50.5t96 23.5t129 -31t163 -99q2 0 2 -4t2 -4q20 61 69.5 92.5t108.5 13.5q8 -2 20.5 -7t39 -24.5t42 -45t13.5 -72t-33 -99.5q-47 -82 -115.5 -111.5t-134 -12t-123 45t-94.5 56.5l-35 30q-14 -51 -39.5 -82.5t-53 -41 t-53.5 -10.5t-42 5l-16 4q-53 18 -82 76t-9 111z" />
<glyph unicode="&#x2013;" horiz-adv-x="1185" d="M122 605.5q-5 17.5 5 49t25.5 63.5t57.5 61.5t101 43.5q260 59 516 17l7 -2q152 -39 182 -174l4 -35q2 -6 2 -17.5t-4 -42t-17.5 -58.5t-46 -56.5t-82.5 -44.5q-252 -84 -559 -35q-86 14 -133 66.5t-53 99.5l-4 45q4 2 -1 19.5z" />
<glyph unicode="&#x2014;" horiz-adv-x="1705" d="M122 605.5q-5 17.5 5 49t25.5 63.5t57.5 61.5t101 43.5q152 37 346.5 40t313.5 -11l116 -14q150 -31 181 -170l6 -39q-2 -2 1 -18.5t-5 -46t-20.5 -60.5t-46.5 -60.5t-83 -46.5q-147 -49 -385.5 -55t-421.5 33q-84 16 -131 69.5t-53 96.5l-6 45q4 2 -1 19.5z" />
<glyph unicode="&#x2018;" horiz-adv-x="583" d="M72 1073q-6 121 19.5 205t64.5 116.5t79.5 48t69.5 11.5l29 -2q29 -4 39 -19.5t8 -29.5l-4 -14q-4 -14 -15.5 -22.5t-19.5 -10.5h-8q-23 0 -27 -18.5t0 -37.5q94 -6 146.5 -66t52.5 -151q0 -92 -57.5 -153.5t-158 -61.5t-157.5 58.5t-61 146.5z" />
<glyph unicode="&#x2019;" horiz-adv-x="606" d="M78 1266q0 92 57.5 153.5t157.5 61.5t157.5 -58.5t61.5 -146.5q6 -121 -19.5 -205t-64.5 -116.5t-80 -48t-69 -13.5l-29 4q-29 4 -39 19.5t-6 29.5l2 15q4 14 15 22t20 8l8 2q23 0 27 18.5t-1 37.5q-94 6 -146 66.5t-52 150.5z" />
<glyph unicode="&#x201a;" horiz-adv-x="606" d="M78 201q0 92 57.5 153.5t157.5 61.5t157.5 -58.5t61.5 -146.5q6 -121 -19.5 -205t-64.5 -116.5t-80 -48t-69 -13.5l-29 4q-29 4 -39 19.5t-6 29.5l2 15q4 14 15 22t20 8l8 2q23 0 27 18.5t-1 37.5q-94 6 -146 66.5t-52 150.5z" />
<glyph unicode="&#x201c;" horiz-adv-x="1107" d="M72 1073q-6 121 19.5 205t64.5 116.5t79.5 48t69.5 11.5l29 -2q29 -4 39 -19.5t8 -29.5l-4 -14q-4 -14 -15.5 -22.5t-19.5 -10.5h-8q-23 0 -27 -18.5t0 -37.5q94 -6 146.5 -66t52.5 -151q0 -92 -57.5 -153.5t-158 -61.5t-157.5 58.5t-61 146.5zM573 1073q-6 121 19.5 205 t64.5 116.5t80 48t70 11.5l29 -2q29 -4 39 -19.5t6 -29.5l-2 -14q-4 -14 -15.5 -22.5t-19.5 -10.5h-8q-23 0 -27 -18.5t0 -37.5q94 -6 146.5 -66t52.5 -151q0 -92 -57.5 -153.5t-158 -61.5t-158 58.5t-61.5 146.5z" />
<glyph unicode="&#x201d;" horiz-adv-x="1126" d="M88 1266q0 92 57.5 153.5t157.5 61.5t157.5 -58.5t61.5 -146.5q6 -121 -19.5 -205t-64.5 -116.5t-80 -48t-69 -13.5l-29 4q-29 4 -39 19.5t-8 29.5l4 15q4 14 15.5 22t19.5 8l8 2q23 0 27 18.5t0 37.5q-94 6 -146.5 66.5t-52.5 150.5zM590 1266q0 92 57.5 153.5 t157.5 61.5t157.5 -58.5t61.5 -146.5q6 -121 -19.5 -205t-64.5 -116.5t-80 -48t-69 -13.5l-29 4q-29 4 -39 19.5t-6 29.5l2 15q4 14 15 22t20 8l8 2q23 0 27 18.5t-1 37.5q-94 6 -146 66.5t-52 150.5z" />
<glyph unicode="&#x201e;" horiz-adv-x="1114" d="M88 193q0 92 57.5 153.5t157.5 61.5t157.5 -58.5t61.5 -146.5q6 -121 -19.5 -205t-64.5 -117t-80 -48t-69 -13l-29 4q-29 4 -39 19.5t-8 29.5l4 14q4 14 15.5 22.5t19.5 8.5l8 2q23 0 27 18.5t0 36.5q-94 6 -146.5 67t-52.5 151zM590 193q0 92 57.5 153.5t157.5 61.5 t157.5 -58.5t61.5 -146.5q6 -121 -19.5 -205t-64.5 -117t-80 -48t-69 -13l-29 4q-29 4 -39 19.5t-6 29.5l2 14q4 14 15 22.5t20 8.5l8 2q23 0 27 18.5t-1 36.5q-94 6 -146 67t-52 151z" />
<glyph unicode="&#x2022;" horiz-adv-x="1107" d="M143 670q0 178 111 296.5t305 118.5q197 0 306.5 -118.5t109.5 -296.5q0 -180 -109.5 -298t-306.5 -118q-195 0 -305.5 118t-110.5 298z" />
<glyph unicode="&#x2026;" horiz-adv-x="2162" d="M1542 238q0 111 69 184.5t189.5 73.5t189 -74t68.5 -184q0 -113 -68.5 -185.5t-189 -72.5t-189.5 72.5t-69 185.5zM821 238q0 111 69 184.5t189.5 73.5t189 -74t68.5 -184q0 -113 -68.5 -185.5t-189 -72.5t-189.5 72.5t-69 185.5zM100 238q0 111 69 184.5t189.5 73.5 t189 -74t68.5 -184q0 -113 -68.5 -185.5t-189 -72.5t-189.5 72.5t-69 185.5z" />
<glyph unicode="&#x2039;" horiz-adv-x="921" d="M70 551q0 72 44 153.5t104.5 145t126 120t105 84t48.5 31.5q66 49 167 29t152 -102q51 -90 30.5 -168t-97.5 -135q-76 -59 -164 -154q119 -117 221 -201q6 -4 15 -14t26.5 -41t24 -63.5t-9 -83t-56.5 -99.5q-53 -61 -149.5 -71.5t-159.5 41.5l-27 18q-25 16 -61 44 l-83 65q-46 37 -91.5 84t-82 97t-60 107.5t-23.5 112.5z" />
<glyph unicode="&#x203a;" horiz-adv-x="964" d="M84 860q-6 33 9.5 83t56.5 99q53 61 149 71.5t160 -40.5l24 -16l64 -46l83 -65q46 -37 91 -84t82 -97t60.5 -107.5t23.5 -112.5q0 -72 -44 -154t-104.5 -145.5t-126 -119.5t-105.5 -84t-48 -32q-66 -49 -167.5 -28.5t-152.5 102.5q-51 90 -30.5 168t98.5 135 q76 59 164 154q-119 117 -221 200q-6 4 -15.5 14.5t-27 41t-23.5 63.5z" />
<glyph unicode="&#x2044;" horiz-adv-x="876" d="M76 143q23 195 169 649.5t238 675.5q63 150 201 134l29 -7q2 0 7 -1t18.5 -5t23.5 -12t25.5 -23.5t21.5 -37t10 -53t-4 -74.5q-80 -500 -399 -1256l-35 -80q-59 -125 -178 -108l-17 4q-6 0 -14 3t-29.5 16.5t-37 32.5t-25.5 57t-4 85z" />
<glyph unicode="&#x20ac;" horiz-adv-x="1427" d="M45 543q0 80 55.5 112.5t110.5 26.5l55 -6q-14 59 0 104q-8 -2 -23.5 -4t-53 0t-67.5 12.5t-53.5 42t-23.5 80.5q0 137 174 129l64 -8l12 46t51 102.5t103.5 129t175 102.5t260.5 46q12 0 31.5 -1t77 -8t107.5 -19.5t110.5 -37t101.5 -57t63.5 -86t12.5 -116.5 q0 -4 -3 -12l-8 -29q-6 -23 -17 -39.5t-30.5 -38t-48.5 -29.5t-68.5 -13t-93.5 13q-193 53 -219 -29l-2 -14q10 0 25.5 -1t55.5 -7t69.5 -17.5t52 -36t18.5 -57.5q-12 -100 -225 -80l-39 7q-14 -29 0 -60q29 4 71 6t114.5 -15t78.5 -65q14 -86 -116 -118q-51 -12 -105 -13 q0 -4 2 -11t13.5 -21.5t26.5 -22.5t48 -7t74 17q45 18 95 28.5t111.5 -4.5t88.5 -69q70 -141 -48 -273t-354 -140q-274 -10 -445 89t-230 341l-26 -5q-15 -3 -56 -3.5t-72 10t-56.5 43.5t-25.5 86z" />
<glyph unicode="&#x2122;" horiz-adv-x="3528" d="M1568 420q0 197 39 385t76 278l39 91q109 250 338 288q34 5 61 6q13 0 25 -2q106 0 183 -45t111 -110.5t53.5 -131t21.5 -110.5v-45q0 10 2 25.5t13 62.5t26.5 89t46 93.5t68.5 88t97.5 62t131.5 25.5q207 0 354 -233l43 -80q133 -307 147 -696v-29q1 -22 1 -42 q0 -103 -25 -180q-31 -93 -77 -134t-92 -63.5t-81 -24.5h-33q-279 0 -375 352q-39 146 -39 285q0 7 1 14q-6 -90 -30 -152.5t-51.5 -89t-54 -41t-45.5 -12.5h-18q-59 0 -104.5 31t-68 75t-35.5 88t-15 74l-2 31q0 -135 -19.5 -244.5t-50.5 -176t-69 -116t-75.5 -71 t-68.5 -33.5t-51 -14h-19q-283 0 -358 260q-22 75 -22 141q0 16 1 31zM74 1120q0 207 194 283q41 16 76 20q210 43 437 44q193 0 399 -31l41 -6q193 -41 231 -205l6 -60q-8 -244 -239 -291q-51 -11 -98 -10q-23 0 -46 2q31 -184 31 -346t-16 -231l-15 -70q-14 -72 -49 -123 t-73 -72.5t-73.5 -32.5t-60.5 -11h-22q-2 4 -26 -2q-7 -1 -14 -1q-21 0 -51 10q-42 13 -83 32.5t-79 72.5t-55 127q-27 123 -26.5 280.5t12.5 254.5l14 96q-8 0 -23 -1t-58 0t-82 8t-87.5 25.5t-83 46t-58 78t-23.5 113.5z" />
<glyph unicode="&#xe000;" horiz-adv-x="1085" d="M0 1085h1085v-1085h-1085v1085z" />
<glyph unicode="&#xfb01;" horiz-adv-x="2109" d="M1396 511q5 83 14 152.5t18 110.5l10 39q18 70 55 120t75 72.5t74 35t58 12.5h23q10 1 20 0q58 0 107 -20q57 -24 88.5 -59.5t52 -72.5t27.5 -63l8 -27q6 -25 15 -72t10 -203v-11q0 -152 -27 -318q-12 -68 -46 -118t-74 -71.5t-78 -34t-62 -12.5l-27 -2h-15 q-179 0 -259 142l-17 36q-31 84 -43 183q-9 69 -9 131q0 26 2 50zM1440 1307q-1 12 -1 23q0 76 57 140q67 74 169 84q16 2 31 2q84 0 152 -49q80 -57 88 -149q1 -12 1 -24q0 -76 -58 -140q-67 -74 -167 -84q-16 -2 -31 -2q-85 0 -152 49q-79 58 -89 150zM68 893 q-2 76 49 120t116 47q18 1 36 1q46 0 87 -6q0 8 -1 22.5t2 57.5t12.5 85t35 98t62.5 105q4 4 11 12.5t33 31t55.5 41t80.5 37t108 26.5q35 5 78 5q27 0 57 -2q79 -5 163 -28q6 -2 17 -6t40 -19.5t49.5 -35t35.5 -52.5q11 -24 11 -52q0 -11 -2 -23q0 -6 -1 -14.5t-9 -31 t-21.5 -40t-42.5 -30.5q-25 -12 -55 -11h-10h-10q-6 0 -24.5 -4t-34 -10.5t-31 -21.5t-23.5 -36q-2 -4 -4 -11t-5 -36t-1 -61q12 4 31.5 9t69.5 8q13 1 25 1q36 0 65 -7q40 -9 74 -45q36 -38 36 -109q0 -55 -23 -93q-25 -41 -63.5 -54t-76.5 -19q-21 -3 -39 -2q-15 0 -27 1 l-27 2q2 -16 6 -42.5t9 -106.5q4 -57 4 -111q0 -21 -1 -42q-2 -73 -18 -160.5t-47 -153.5t-90.5 -111t-141.5 -49h-22q-88 0 -149 29q-69 33 -103.5 98.5t-52 161.5t-17.5 219t2 268q-10 -4 -29.5 -8t-67.5 -6h-16q-39 0 -70 8q-38 10 -69.5 50t-35.5 106z" />
<glyph unicode="&#xfb02;" horiz-adv-x="2119" d="M1379 740q2 163 12 284l12 123q0 16 4 44t24.5 97.5t51.5 122.5t94.5 97t147.5 44q12 0 30.5 -1t68.5 -22.5t91 -62.5t79 -132t48 -218q13 -195 13 -361q0 -24 -1 -47q-2 -185 -12 -307l-10 -120q0 -12 -3 -34t-23.5 -76t-51.5 -95t-96 -74q-62 -31 -142 -31h-10 q-203 6 -282 281q-27 88 -31 162q-15 146 -15 290q1 18 1 36zM68 893q-2 76 49 120t116 47q18 1 36 1q46 0 87 -6q0 8 -1 22.5t2 57.5t12.5 85t35 98t62.5 105q4 4 11 12.5t33 31t55.5 41t80.5 37t108 26.5q35 5 78 5q27 0 57 -2q79 -5 163 -28q6 -2 17 -6t40 -19.5 t49.5 -35t35.5 -52.5q11 -24 11 -52q0 -11 -2 -23q0 -6 -1 -14.5t-9 -31t-21.5 -40t-42.5 -30.5q-25 -12 -55 -11h-10h-10q-6 0 -24.5 -4t-34 -10.5t-31 -21.5t-23.5 -36q-2 -4 -4 -11t-5 -36t-1 -61q12 4 31.5 9t69.5 8q13 1 25 1q36 0 65 -7q40 -9 74 -45q36 -38 36 -109 q0 -55 -23 -93q-25 -41 -63.5 -54t-76.5 -19q-21 -3 -39 -2q-15 0 -27 1l-27 2q2 -16 6 -42.5t9 -106.5q4 -57 4 -111q0 -21 -1 -42q-2 -73 -18 -160.5t-47 -153.5t-90.5 -111t-141.5 -49h-22q-88 0 -149 29q-69 33 -103.5 98.5t-52 161.5t-17.5 219t2 268q-10 -4 -29.5 -8 t-67.5 -6h-16q-39 0 -70 8q-38 10 -69.5 50t-35.5 106z" />
<glyph unicode="&#xfb03;" horiz-adv-x="3422" d="M2709 511q5 83 14 152.5t18 110.5l10 39q18 70 55 120t75 72.5t74 35t58 12.5h23q10 1 20 0q58 0 107 -20q57 -24 88.5 -59.5t52 -72.5t27.5 -63l8 -27q6 -25 15 -72t10 -203v-11q0 -152 -27 -318q-12 -68 -46 -118t-74 -71.5t-78 -34t-62 -12.5l-27 -2h-15 q-179 0 -259 142l-17 36q-31 84 -43 183q-9 69 -9 131q0 26 2 50zM2753 1307q-1 12 -1 23q0 76 57 140q67 74 169 84q16 2 31 2q84 0 152 -49q80 -57 88 -149q1 -12 1 -24q0 -76 -58 -140q-67 -74 -167 -84q-16 -2 -31 -2q-85 0 -152 49q-79 58 -89 150zM1381 893 q-2 76 49 120t116 47q18 1 36 1q46 0 87 -6q0 8 -1 22.5t2 57.5t12.5 85t35 98t62.5 105q4 4 11 12.5t33 31t55.5 41t80.5 37t108 26.5q35 5 78 5q27 0 57 -2q79 -5 163 -28q6 -2 17 -6t40 -19.5t49.5 -35t35.5 -52.5q11 -24 11 -52q0 -11 -2 -23q0 -6 -1 -14.5t-9 -31 t-21.5 -40t-42.5 -30.5q-25 -12 -55 -11h-10h-10q-6 0 -24.5 -4t-34 -10.5t-31 -21.5t-23.5 -36q-2 -4 -4 -11t-5 -36t-1 -61q12 4 31.5 9t69.5 8q13 1 25 1q36 0 65 -7q40 -9 74 -45q36 -38 36 -109q0 -55 -23 -93q-25 -41 -63.5 -54t-76.5 -19q-21 -3 -39 -2q-15 0 -27 1 l-27 2q2 -16 6 -42.5t9 -106.5q4 -57 4 -111q0 -21 -1 -42q-2 -73 -18 -160.5t-47 -153.5t-90.5 -111t-141.5 -49h-22q-88 0 -149 29q-69 33 -103.5 98.5t-52 161.5t-17.5 219t2 268q-10 -4 -29.5 -8t-67.5 -6h-16q-39 0 -70 8q-38 10 -69.5 50t-35.5 106zM68 893 q-2 76 49 120t116 47q18 1 36 1q46 0 87 -6q0 8 -1 22.5t2 57.5t12.5 85t35 98t62.5 105q4 4 11 12.5t33 31t55.5 41t80.5 37t108 26.5q35 5 78 5q27 0 57 -2q79 -5 163 -28q6 -2 17 -6t40 -19.5t49.5 -35t35.5 -52.5q11 -24 11 -52q0 -11 -2 -23q0 -6 -1 -14.5t-9 -31 t-21.5 -40t-42.5 -30.5q-25 -12 -55 -11h-10h-10q-6 0 -24.5 -4t-34 -10.5t-31 -21.5t-23.5 -36q-2 -4 -4 -11t-5 -36t-1 -61q12 4 31.5 9t69.5 8q13 1 25 1q36 0 65 -7q40 -9 74 -45q36 -38 36 -109q0 -55 -23 -93q-25 -41 -63.5 -54t-76.5 -19q-21 -3 -39 -2q-15 0 -27 1 l-27 2q2 -16 6 -42.5t9 -106.5q4 -57 4 -111q0 -21 -1 -42q-2 -73 -18 -160.5t-47 -153.5t-90.5 -111t-141.5 -49h-22q-88 0 -149 29q-69 33 -103.5 98.5t-52 161.5t-17.5 219t2 268q-10 -4 -29.5 -8t-67.5 -6h-16q-39 0 -70 8q-38 10 -69.5 50t-35.5 106z" />
<glyph unicode="&#xfb04;" horiz-adv-x="3432" d="M2692 740q2 163 12 284l12 123q0 16 4 44t24.5 97.5t51.5 122.5t94.5 97t147.5 44q12 0 30.5 -1t68.5 -22.5t91 -62.5t79 -132t48 -218q13 -195 13 -361q0 -24 -1 -47q-2 -185 -12 -307l-10 -120q0 -12 -3 -34t-23.5 -76t-51.5 -95t-96 -74q-62 -31 -142 -31h-10 q-203 6 -282 281q-27 88 -31 162q-15 146 -15 290q1 18 1 36zM1381 893q-2 76 49 120t116 47q18 1 36 1q46 0 87 -6q0 8 -1 22.5t2 57.5t12.5 85t35 98t62.5 105q4 4 11 12.5t33 31t55.5 41t80.5 37t108 26.5q35 5 78 5q27 0 57 -2q79 -5 163 -28q6 -2 17 -6t40 -19.5 t49.5 -35t35.5 -52.5q11 -24 11 -52q0 -11 -2 -23q0 -6 -1 -14.5t-9 -31t-21.5 -40t-42.5 -30.5q-25 -12 -55 -11h-10h-10q-6 0 -24.5 -4t-34 -10.5t-31 -21.5t-23.5 -36q-2 -4 -4 -11t-5 -36t-1 -61q12 4 31.5 9t69.5 8q13 1 25 1q36 0 65 -7q40 -9 74 -45q36 -38 36 -109 q0 -55 -23 -93q-25 -41 -63.5 -54t-76.5 -19q-21 -3 -39 -2q-15 0 -27 1l-27 2q2 -16 6 -42.5t9 -106.5q4 -57 4 -111q0 -21 -1 -42q-2 -73 -18 -160.5t-47 -153.5t-90.5 -111t-141.5 -49h-22q-88 0 -149 29q-69 33 -103.5 98.5t-52 161.5t-17.5 219t2 268q-10 -4 -29.5 -8 t-67.5 -6h-16q-39 0 -70 8q-38 10 -69.5 50t-35.5 106zM68 893q-2 76 49 120t116 47q18 1 36 1q46 0 87 -6q0 8 -1 22.5t2 57.5t12.5 85t35 98t62.5 105q4 4 11 12.5t33 31t55.5 41t80.5 37t108 26.5q35 5 78 5q27 0 57 -2q79 -5 163 -28q6 -2 17 -6t40 -19.5t49.5 -35 t35.5 -52.5q11 -24 11 -52q0 -11 -2 -23q0 -6 -1 -14.5t-9 -31t-21.5 -40t-42.5 -30.5q-25 -12 -55 -11h-10h-10q-6 0 -24.5 -4t-34 -10.5t-31 -21.5t-23.5 -36q-2 -4 -4 -11t-5 -36t-1 -61q12 4 31.5 9t69.5 8q13 1 25 1q36 0 65 -7q40 -9 74 -45q36 -38 36 -109 q0 -55 -23 -93q-25 -41 -63.5 -54t-76.5 -19q-21 -3 -39 -2q-15 0 -27 1l-27 2q2 -16 6 -42.5t9 -106.5q4 -57 4 -111q0 -21 -1 -42q-2 -73 -18 -160.5t-47 -153.5t-90.5 -111t-141.5 -49h-22q-88 0 -149 29q-69 33 -103.5 98.5t-52 161.5t-17.5 219t2 268q-10 -4 -29.5 -8 t-67.5 -6h-16q-39 0 -70 8q-38 10 -69.5 50t-35.5 106z" />
<glyph horiz-adv-x="876" />
</font>
</defs>
</svg>
