<?xml version="1.0" standalone="no"?>
<!DOCTYPE svg PUBLIC "-//W3C//DTD SVG 1.1//EN" "http://www.w3.org/Graphics/SVG/1.1/DTD/svg11.dtd" >
<svg xmlns="http://www.w3.org/2000/svg">
<metadata>
This is a custom SVG webfont generated by Font Squirrel.
Copyright   : YOFonts 2011
Designer    : Yamaoka Yasuhiro
Foundry     : YOFonts
Foundry URL : wwwyoworkscom
</metadata>
<defs>
<font id="EauDouceSansHeavyOsN" horiz-adv-x="1091" >
<font-face units-per-em="2048" ascent="1638" descent="-410" />
<missing-glyph horiz-adv-x="477" />
<glyph unicode=" "  horiz-adv-x="477" />
<glyph unicode="&#x09;" horiz-adv-x="477" />
<glyph unicode="&#xa0;" horiz-adv-x="477" />
<glyph unicode="!" horiz-adv-x="614" d="M109 1366h397l-82 -901h-234zM137 0v342h340v-342h-340z" />
<glyph unicode="&#x22;" horiz-adv-x="1024" d="M121 805l63 561h342l-233 -561h-172zM571 805l64 561h342l-234 -561h-172z" />
<glyph unicode="#" horiz-adv-x="1161" d="M41 489v211h213l47 236h-172v211h217l43 219h225l-45 -219h156l43 219h225l-45 -219h172v-211h-215l-47 -236h172v-211h-215l-43 -217h-225l43 217h-154l-43 -217h-227l45 217h-170zM479 700h154l49 236h-156z" />
<glyph unicode="$" horiz-adv-x="1028" d="M61 221l195 195q82 -86 209 -86q68 0 108.5 31.5t40.5 70.5q0 43 -53 73t-129 54.5t-152.5 61t-130 113.5t-53.5 188q0 133 92.5 236.5t243.5 129.5v213h146v-205q238 -14 374 -151l-192 -195q-84 84 -187 84q-68 0 -102.5 -25.5t-34.5 -62.5q0 -43 53.5 -72.5t130 -54 t153.5 -61.5t130 -114t53 -187q0 -147 -101 -251t-277 -130v-213h-146v207q-111 6 -210.5 48t-160.5 103z" />
<glyph unicode="%" horiz-adv-x="1884" d="M68 989q0 176 92 282.5t249.5 106.5t250 -106.5t92.5 -282.5q0 -174 -93.5 -281.5t-249 -107.5t-248.5 107.5t-93 281.5zM313 989q0 -197 96.5 -196.5t96.5 196.5q0 199 -96.5 199t-96.5 -199zM328 0l956 1366h258l-954 -1366h-260zM1133 375q0 176 92 282.5t249.5 106.5 t250 -106.5t92.5 -282.5q0 -174 -93.5 -281.5t-249 -107.5t-248.5 107.5t-93 281.5zM1378 375q0 -197 96.5 -197t96.5 197q0 199 -96.5 199t-96.5 -199z" />
<glyph unicode="&#x26;" horiz-adv-x="1378" d="M68 354q0 248 264 398q-88 88 -123 156.5t-35 156.5q0 125 114.5 229.5t301.5 104.5q176 0 296 -101.5t120 -232.5q0 -190 -211 -342l176 -174q23 94 22 203h328q0 -258 -107 -449l304 -303h-433l-77 76q-170 -111 -392 -111q-262 0 -405 108.5t-143 280.5zM420 383 q0 -70 58.5 -117t150.5 -47q96 0 178 60l-281 280q-106 -72 -106 -176zM494 1059q0 -39 18 -68.5t72 -83.5q102 76 102 152q0 33 -28.5 60.5t-67.5 27.5q-41 0 -68.5 -27.5t-27.5 -60.5z" />
<glyph unicode="'" horiz-adv-x="573" d="M121 805l63 561h342l-233 -561h-172z" />
<glyph unicode="(" horiz-adv-x="772" d="M158 682q0 489 299 848l307 -103q-266 -338 -266 -745q0 -406 266 -743l-307 -103q-299 354 -299 846z" />
<glyph unicode=")" horiz-adv-x="772" d="M8 -61q264 340 264 743q0 406 -264 745l305 103q301 -356 301 -848q0 -494 -301 -846z" />
<glyph unicode="*" horiz-adv-x="956" d="M104 1032l54 164l233 -76v246h172v-246l234 76l53 -164l-234 -76l146 -200l-139 -101l-146 199l-143 -199l-139 101l143 200z" />
<glyph unicode="+" horiz-adv-x="1120" d="M102 543v252h332v331h252v-331h332v-252h-332v-332h-252v332h-332z" />
<glyph unicode="," horiz-adv-x="587" d="M82 -272l70 614h340l-232 -614h-178z" />
<glyph unicode="-" horiz-adv-x="778" d="M102 387v250h574v-250h-574z" />
<glyph unicode="." horiz-adv-x="587" d="M123 0v342h342v-342h-342z" />
<glyph unicode="/" horiz-adv-x="710" d="M35 -137l407 1638h234l-408 -1638h-233z" />
<glyph unicode="0" horiz-adv-x="1132" d="M61 471q0 225 140.5 361.5t366 136.5t364.5 -136.5t139 -361.5t-139 -361.5t-364.5 -136.5t-366 136.5t-140.5 361.5zM348 471q0 -96 60.5 -163.5t159 -67.5t157.5 67.5t59 163.5t-59 163.5t-157.5 67.5t-159 -67.5t-60.5 -163.5z" />
<glyph unicode="1" horiz-adv-x="927" d="M76 498v278q182 27 319 166h301v-942h-327v621q-43 -41 -124 -76t-169 -47z" />
<glyph unicode="2" horiz-adv-x="1050" d="M61 0v170q539 221 539 430q0 51 -36 81t-99 30q-86 0 -189 -62l-180 185q195 135 422 135q197 0 310.5 -95.5t113.5 -244.5q0 -127 -81 -226.5t-232 -150.5h354v-252h-922z" />
<glyph unicode="3" horiz-adv-x="1050" d="M41 -313l182 182q78 -68 201 -68q98 0 154.5 49.5t56.5 124.5q0 66 -58.5 117t-140.5 51h-108v252h108q92 0 142.5 50.5t50.5 113.5q0 76 -47 117t-131 41q-94 0 -175 -68l-180 185q174 135 389 135q207 0 335 -101.5t128 -259.5q0 -109 -57 -200t-160 -136 q106 -16 179 -101t73 -210q0 -180 -140.5 -296t-377.5 -116q-262 1 -424 138z" />
<glyph unicode="4" horiz-adv-x="1161" d="M35 0v186l524 756h383v-690h184v-252h-184v-424h-328v424h-579zM375 252h239v369z" />
<glyph unicode="5" d="M68 -313l182 182q82 -68 201 -68q123 0 187 60.5t64 156.5q0 84 -58 136.5t-150 52.5q-55 0 -113 -39l-252 125v649h827v-252h-499v-246q55 20 137 21q182 0 306 -125t124 -322q0 -201 -137 -335t-395 -134q-262 1 -424 138z" />
<glyph unicode="6" horiz-adv-x="1171" d="M68 682q0 307 172 509t442 202q209 0 377 -138l-182 -182q-76 68 -201 68q-123 0 -201 -100.5t-86 -292.5q106 133 268 133q197 0 325 -128t128 -325q0 -199 -147.5 -327t-354.5 -128q-256 0 -398 190.5t-142 518.5zM426 428q0 -88 51 -146.5t131 -58.5t130 58.5 t50 146.5q0 86 -51 144.5t-129 58.5q-80 0 -131 -57.5t-51 -145.5z" />
<glyph unicode="7" d="M47 690v252h983v-184q-211 -289 -317.5 -552t-145.5 -630h-348q43 352 144.5 610t263.5 504h-580z" />
<glyph unicode="8" horiz-adv-x="1167" d="M68 385q0 102 66.5 189.5t146.5 119.5q-72 29 -125.5 110t-53.5 181q0 176 139.5 292t346.5 116q205 0 341 -115t136 -293q0 -102 -44 -182t-114 -109q76 -31 134.5 -118t58.5 -191q0 -182 -143.5 -297t-368.5 -115q-227 0 -373.5 115t-146.5 297zM403 399.5 q0 -75.5 51.5 -125t133.5 -49.5q80 0 132 50.5t52 124t-52 123.5t-132 50q-82 0 -133.5 -49t-51.5 -124.5zM410 974.5q0 -65.5 49 -114.5t129 -49q78 0 127 49t49 114.5t-49 116t-127 50.5q-80 0 -129 -50.5t-49 -116z" />
<glyph unicode="9" horiz-adv-x="1171" d="M61 514q0 199 147.5 327t354.5 128q256 0 398.5 -190.5t142.5 -518.5q0 -307 -172 -509t-443 -202q-209 0 -376 138l182 182q76 -68 201 -68q123 0 200.5 100.5t85.5 293.5q-106 -133 -268 -134q-197 0 -325 128t-128 325zM383 514q0 -86 51 -144.5t129 -58.5 q80 0 131 57.5t51 145.5t-51 146.5t-131 58.5t-130 -58.5t-50 -146.5z" />
<glyph unicode=":" horiz-adv-x="587" d="M123 0v342h342v-342h-342zM123 600v342h342v-342h-342z" />
<glyph unicode=";" horiz-adv-x="587" d="M82 -272l70 614h340l-232 -614h-178zM123 600v342h342v-342h-342z" />
<glyph unicode="&#x3c;" horiz-adv-x="681" d="M96 471l191 383h317l-192 -383l192 -383h-317z" />
<glyph unicode="=" horiz-adv-x="1120" d="M102 336v252h916v-252h-916zM102 752v249h916v-249h-916z" />
<glyph unicode="&#x3e;" horiz-adv-x="681" d="M80 88l190 383l-190 383h315l193 -383l-193 -383h-315z" />
<glyph unicode="?" horiz-adv-x="1009" d="M27 1223q174 170 438 170q219 0 355 -107.5t136 -261.5q0 -86 -35.5 -157.5t-87 -120t-102.5 -91.5t-87 -91t-36 -99h-315q0 74 30.5 137.5t73.5 106.5l86 83q43 40 74 89t31 102q0 57 -40 93t-112 36q-106 0 -203 -96zM281 0v342h340v-342h-340z" />
<glyph unicode="@" horiz-adv-x="1583" d="M55 612q0 195 95.5 372t290 296t446.5 119q283 0 463 -169t180 -429q0 -205 -119 -357.5t-264 -152.5q-84 0 -135 47t-43 121q-41 -78 -121 -125t-176 -47q-102 0 -184 90t-82 237q0 182 122.5 315.5t280.5 133.5q61 0 109.5 -26.5t70.5 -71.5l12 82h250l-88 -500 q-14 -76 29 -76q53 0 111.5 93t58.5 224q0 201 -129 321t-346 120q-190 0 -339 -93.5t-222.5 -232.5t-73.5 -291q0 -219 120 -347t310 -128q109 0 207 38t160 97l125 -125q-82 -84 -212.5 -133t-279.5 -49q-281 0 -454 180t-173 467zM666 629q0 -139 104 -140q70 0 121 69 t51 163q0 139 -104 139q-70 0 -121 -68.5t-51 -162.5z" />
<glyph unicode="A" horiz-adv-x="1284" d="M-41 0l498 1366h368l500 -1366h-356l-90 287h-473l-93 -287h-354zM494 559h297l-150 465z" />
<glyph unicode="B" horiz-adv-x="1228" d="M137 0v1366h545q213 0 339 -98.5t126 -249.5q0 -113 -70.5 -209t-197.5 -129q129 -20 205.5 -103t76.5 -215q0 -145 -113.5 -253.5t-304.5 -108.5h-606zM477 262h172q78 0 119 42t41 104q0 63 -40 103t-120 40h-172v-289zM477 809h164q70 0 112 43t42 104q0 59 -42 103.5 t-112 44.5h-164v-295z" />
<glyph unicode="C" horiz-adv-x="1243" d="M68 682q0 330 187 523.5t509 193.5q145 0 268 -48t197 -122l-207 -207q-86 90 -217 90q-170 0 -269.5 -116.5t-99.5 -313.5t99.5 -313.5t269.5 -116.5q127 0 217 90l207 -205q-74 -76 -197 -124t-268 -48q-322 0 -509 193.5t-187 523.5z" />
<glyph unicode="D" horiz-adv-x="1366" d="M137 0v1366h451q324 0 516 -178t192 -506q0 -326 -192.5 -504t-515.5 -178h-451zM492 287h81q164 0 259.5 105.5t95.5 289.5t-95.5 290.5t-259.5 106.5h-81v-792z" />
<glyph unicode="E" horiz-adv-x="1030" d="M137 0v1366h785v-287h-430v-256h415v-286h-415v-250h444v-287h-799z" />
<glyph unicode="F" horiz-adv-x="983" d="M137 0v1366h799v-287h-444v-256h430v-286h-430v-537h-355z" />
<glyph unicode="G" horiz-adv-x="1325" d="M68 682q0 317 192.5 517t523.5 200q145 0 268.5 -48t196.5 -122l-207 -207q-86 90 -229 90q-178 0 -277.5 -116.5t-99.5 -313.5q0 -199 97.5 -310.5t238.5 -111.5q63 0 115 29v223h-185v287h541v-662q-166 -172 -479 -172t-504.5 195.5t-191.5 521.5z" />
<glyph unicode="H" horiz-adv-x="1366" d="M137 0v1366h355v-543h382v543h355v-1366h-355v537h-382v-537h-355z" />
<glyph unicode="I" horiz-adv-x="628" d="M137 0v1366h355v-1366h-355z" />
<glyph unicode="J" horiz-adv-x="1024" d="M-14 143l207 207q98 -98 176 -98q72 0 117.5 48t45.5 124v942h355v-930q0 -217 -126 -344t-372 -127q-225 0 -403 178z" />
<glyph unicode="K" horiz-adv-x="1316" d="M137 0v1366h355v-608l423 608h431l-512 -670l532 -696h-430l-444 635v-635h-355z" />
<glyph unicode="L" horiz-adv-x="935" d="M137 0v1366h355v-1079h444v-287h-799z" />
<glyph unicode="M" horiz-adv-x="1816" d="M137 0v1366h533l237 -1024l240 1024h532v-1366h-321v1034l-242 -1034h-418l-241 1034v-1034h-320z" />
<glyph unicode="N" horiz-adv-x="1419" d="M137 0v1366h422l397 -881v881h328v-1366h-424l-395 881v-881h-328z" />
<glyph unicode="O" horiz-adv-x="1433" d="M68 682q0 328 178 522.5t471 194.5t471 -194.5t178 -522.5q0 -326 -178 -521.5t-471 -195.5t-471 195.5t-178 521.5zM436 682q0 -203 76 -316.5t205 -113.5t204.5 113.5t75.5 316.5t-75.5 316.5t-204.5 113.5t-205 -113.5t-76 -316.5z" />
<glyph unicode="P" horiz-adv-x="1181" d="M137 0v1366h545q203 0 337 -126t134 -304q0 -176 -134 -301t-337 -125h-190v-510h-355zM492 797h143q70 0 114 40t44 99t-44 101t-114 42h-143v-282z" />
<glyph unicode="Q" horiz-adv-x="1433" d="M68 682q0 328 178 522.5t471 194.5t471 -194.5t178 -522.5q0 -229 -113 -410l205 -102l-237 -238l-213 107q-137 -74 -291 -74q-293 0 -471 195.5t-178 521.5zM436 682q0 -203 76 -316.5t205 -113.5t204.5 113.5t75.5 316.5t-75.5 316.5t-204.5 113.5t-205 -113.5 t-76 -316.5z" />
<glyph unicode="R" horiz-adv-x="1269" d="M137 0v1366h557q225 0 348 -113.5t123 -281.5q0 -106 -66.5 -200.5t-178.5 -125.5q168 -31 208 -217l95 -428h-377l-72 367q-16 84 -56 115.5t-122 31.5h-104v-514h-355zM492 793h147q72 0 117 40.5t45 106.5q0 63 -45 105t-117 42h-147v-294z" />
<glyph unicode="S" d="M41 137l207 205q96 -96 241 -96q90 0 141.5 39t51.5 98q0 57 -62.5 94t-151.5 65.5t-178 70.5t-151.5 135.5t-62.5 234.5q0 166 141 291t365 125q293 0 462 -170l-206 -207q-39 41 -99.5 69.5t-122.5 28.5q-82 0 -127 -36.5t-45 -86.5q0 -43 34 -73.5t87 -51t118 -42 t129.5 -54.5t117.5 -78t87 -122.5t34 -180.5q0 -186 -151.5 -308t-397.5 -122q-289 0 -461 172z" />
<glyph unicode="T" horiz-adv-x="1105" d="M0 1079v287h1106v-287h-375v-1079h-356v1079h-375z" />
<glyph unicode="U" horiz-adv-x="1378" d="M137 471v895h355v-895q0 -104 56 -161.5t142 -57.5t141.5 57.5t55.5 161.5v895h356v-895q0 -231 -149.5 -368.5t-403.5 -137.5q-256 0 -404.5 137.5t-148.5 368.5z" />
<glyph unicode="V" horiz-adv-x="1284" d="M-41 1366h375l307 -983l307 983h377l-500 -1366h-368z" />
<glyph unicode="W" horiz-adv-x="1787" d="M-27 1366h357l186 -981l174 981h408l174 -981l186 981h359l-322 -1366h-426l-174 981l-176 -981h-426z" />
<glyph unicode="X" horiz-adv-x="1325" d="M-6 0l430 705l-404 661h424l218 -434l217 434h426l-404 -661l430 -705h-430l-239 477l-238 -477h-430z" />
<glyph unicode="Y" horiz-adv-x="1243" d="M-47 1366h430l238 -479l239 479h430l-491 -813v-553h-355v553z" />
<glyph unicode="Z" horiz-adv-x="1079" d="M55 0v205l492 874h-479v287h942v-205l-492 -874h506v-287h-969z" />
<glyph unicode="[" horiz-adv-x="819" d="M164 -137v1638h559v-237h-258v-1162h258v-239h-559z" />
<glyph unicode="\" horiz-adv-x="710" d="M35 1501h233l408 -1638h-234z" />
<glyph unicode="]" horiz-adv-x="819" d="M96 102h258v1162h-258v237h559v-1638h-559v239z" />
<glyph unicode="^" horiz-adv-x="614" d="M23 1075l157 291h254l158 -291h-205l-80 162l-80 -162h-204z" />
<glyph unicode="_" horiz-adv-x="819" d="M0 0v205h819v-205h-819z" />
<glyph unicode="`" horiz-adv-x="614" d="M76 1366h358l96 -291h-165z" />
<glyph unicode="a" d="M55 252q0 135 105.5 218t310.5 83h170v35q0 61 -41 98t-115 37q-98 0 -188 -74l-180 185q184 135 415 135q190 0 313.5 -104.5t123.5 -276.5v-588h-314v129q-96 -156 -286 -156q-147 0 -230.5 80t-83.5 199zM383 293q0 -39 28.5 -66.5t80.5 -27.5q68 0 108.5 40t40.5 115 v35h-123q-68 0 -101.5 -27.5t-33.5 -68.5z" />
<glyph unicode="b" horiz-adv-x="1187" d="M123 0v1366h328v-532q39 59 108.5 97t151.5 38q172 0 293.5 -131t121.5 -366.5t-124.5 -367t-299.5 -131.5q-166 0 -266 150v-123h-313zM451 471q0 -121 50 -183.5t120 -62.5q72 0 122 61.5t50 184.5t-50.5 184.5t-121.5 61.5q-70 0 -120 -61.5t-50 -184.5z" />
<glyph unicode="c" horiz-adv-x="983" d="M61 471q0 225 147.5 361.5t379.5 136.5q115 0 212 -38t156 -97l-182 -185q-68 68 -153 68q-92 0 -155 -66.5t-63 -179.5t62.5 -179.5t155.5 -66.5q86 0 153 68l182 -184q-59 -59 -156.5 -97.5t-211.5 -38.5q-231 0 -379 136.5t-148 361.5z" />
<glyph unicode="d" horiz-adv-x="1187" d="M61 471.5q0 235.5 122 366.5t294 131q82 0 151.5 -38t108.5 -97v532h328v-1366h-313v123q-100 -150 -267 -150q-174 0 -299 131.5t-125 367zM395 471q0 -123 50.5 -184.5t121.5 -61.5q70 0 120 62.5t50 183.5q0 123 -50 184.5t-120 61.5q-72 0 -122 -61.5t-50 -184.5z " />
<glyph unicode="e" horiz-adv-x="1064" d="M61 471q0 205 134.5 351.5t343.5 146.5q211 0 327.5 -125t116.5 -367v-74h-594q33 -184 211 -184q115 0 188 74l181 -184q-135 -135 -375 -136q-244 0 -388.5 137.5t-144.5 360.5zM391 600h285v14q0 137 -137 138q-115 0 -148 -152z" />
<glyph unicode="f" horiz-adv-x="813" d="M14 690v252h191v137q0 135 96 224.5t252 89.5q119 0 225 -27v-254q-66 29 -131 29q-115 0 -115 -103v-96h246v-252h-246v-690h-327v690h-191z" />
<glyph unicode="g" horiz-adv-x="1187" d="M61 471.5q0 235.5 125 366.5t299 131q166 0 267 -150v123h313v-922q0 -207 -142.5 -339t-396.5 -132q-133 0 -247.5 44.5t-161.5 93.5l180 182q78 -74 209 -74q231 0 231 225v89q-39 -59 -108.5 -97.5t-151.5 -38.5q-172 0 -294 131.5t-122 367zM395 471 q0 -123 50.5 -184.5t121.5 -61.5q70 0 120 61.5t50 184.5t-50 184.5t-120 61.5q-72 0 -122 -61.5t-50 -184.5z" />
<glyph unicode="h" horiz-adv-x="1214" d="M123 0v1366h328v-547q94 150 272 150q164 0 266.5 -109.5t102.5 -286.5v-573h-328v498q0 205 -150 204q-84 0 -123.5 -59t-39.5 -192v-451h-328z" />
<glyph unicode="i" horiz-adv-x="573" d="M123 0v942h328v-942h-328zM123 1092v274h328v-274h-328z" />
<glyph unicode="j" horiz-adv-x="593" d="M-102 -170q66 -29 131 -29q115 0 114 103v1038h328v-1079q0 -135 -96 -224.5t-252 -89.5q-119 0 -225 27v254zM143 1092v274h328v-274h-328z" />
<glyph unicode="k" horiz-adv-x="1105" d="M123 0v1366h328v-823l278 399h377l-367 -455l394 -487h-396l-286 410v-410h-328z" />
<glyph unicode="l" horiz-adv-x="573" d="M123 0v1366h328v-1366h-328z" />
<glyph unicode="m" horiz-adv-x="1746" d="M123 0v942h313v-145q76 172 260 172q104 0 186.5 -54.5t118.5 -144.5q94 199 283 199q147 0 243.5 -105.5t96.5 -290.5v-573h-328v498q0 115 -30.5 159.5t-91.5 44.5q-57 0 -96.5 -58t-39.5 -167v-477h-327v498q0 115 -31 159.5t-92 44.5q-59 0 -98 -59t-39 -166v-477 h-328z" />
<glyph unicode="n" horiz-adv-x="1214" d="M123 0v942h313v-143q96 170 287 170q164 0 266.5 -109.5t102.5 -286.5v-573h-328v498q0 205 -150 204q-84 0 -123.5 -59t-39.5 -192v-451h-328z" />
<glyph unicode="o" horiz-adv-x="1132" d="M61 471q0 225 140.5 361.5t366 136.5t364.5 -136.5t139 -361.5t-139 -361.5t-364.5 -136.5t-366 136.5t-140.5 361.5zM395 471q0 -123 50.5 -184.5t121.5 -61.5q70 0 120 62.5t50 183.5q0 123 -50 184.5t-120 61.5q-72 0 -122 -61.5t-50 -184.5z" />
<glyph unicode="p" horiz-adv-x="1187" d="M123 -424v1366h313v-123q100 150 266 150q174 0 299 -131t125 -366.5t-121.5 -367t-293.5 -131.5q-82 0 -152 38t-108 98v-533h-328zM451 471q0 -123 50 -184.5t120 -61.5q72 0 122 61.5t50 184.5t-50.5 184.5t-121.5 61.5q-70 0 -120 -62.5t-50 -183.5z" />
<glyph unicode="q" horiz-adv-x="1187" d="M61 471.5q0 235.5 125 366.5t299 131q166 0 267 -150v123h313v-1366h-328v533q-39 -59 -108.5 -97.5t-151.5 -38.5q-172 0 -294 131.5t-122 367zM395 471q0 -123 50.5 -184.5t121.5 -61.5q70 0 120 61.5t50 184.5q0 121 -50 183.5t-120 62.5q-72 0 -122 -61.5t-50 -184.5 z" />
<glyph unicode="r" horiz-adv-x="845" d="M123 0v942h313v-158q88 184 301 185q45 0 82 -6v-285q-70 18 -137 18q-125 0 -178 -62.5t-53 -203.5v-430h-328z" />
<glyph unicode="s" horiz-adv-x="894" d="M35 109l180 182q90 -80 201 -80q45 0 69.5 16.5t24.5 38.5q0 29 -45 50.5t-108.5 43t-127 53t-108.5 97t-45 160.5q0 117 104.5 208t284.5 91q223 0 369 -135l-183 -185q-86 82 -174 82q-39 0 -58.5 -16.5t-19.5 -38.5q0 -27 45 -48.5t108.5 -43t127 -53t109 -94 t45.5 -150.5q0 -137 -110 -225.5t-314 -88.5q-221 1 -375 136z" />
<glyph unicode="t" horiz-adv-x="845" d="M14 690v252h191v287h327v-287h246v-252h-246v-362q0 -102 115 -103q72 0 131 27v-252q-106 -27 -225 -27q-156 0 -252 89.5t-96 224.5v403h-191z" />
<glyph unicode="u" horiz-adv-x="1214" d="M123 369v573h328v-498q0 -205 149 -204q84 0 124 58t40 194v450h328v-942h-314v143q-96 -170 -286 -170q-164 0 -266.5 110t-102.5 286z" />
<glyph unicode="v" horiz-adv-x="1024" d="M-27 942h355l184 -627l184 627h355l-369 -942h-340z" />
<glyph unicode="w" horiz-adv-x="1515" d="M-14 942h307l143 -682l144 682h356l143 -682l144 682h307l-246 -942h-389l-137 649l-123 -649h-404z" />
<glyph unicode="x" horiz-adv-x="1024" d="M0 0l326 485l-306 457h369l123 -260l123 260h354l-291 -457l326 -485h-379l-133 281l-133 -281h-379z" />
<glyph unicode="y" horiz-adv-x="1024" d="M-27 942h349l190 -649l190 649h349l-437 -1114q-59 -150 -137 -214.5t-190 -64.5q-119 0 -226 27v254q66 -29 132 -29q86 0 108 58l45 127z" />
<glyph unicode="z" horiz-adv-x="962" d="M76 0v184l360 506h-348v252h786v-190l-362 -500h375v-252h-811z" />
<glyph unicode="{" horiz-adv-x="804" d="M68 547v272h55q61 0 105 44t44 106v260q0 127 76 214t197 87q125 0 219 -29v-237q-55 20 -102 20q-41 0 -65 -26.5t-24 -65.5v-264q0 -217 -190 -246q92 -12 141 -76.5t49 -169.5v-262q0 -39 24 -65.5t65 -26.5q53 0 102 18v-237q-98 -27 -219 -27t-197 87t-76 214v258 q0 61 -44 106.5t-105 45.5h-55z" />
<glyph unicode="|" horiz-adv-x="628" d="M205 -424v1790h219v-1790h-219z" />
<glyph unicode="}" horiz-adv-x="804" d="M41 100q49 -18 102 -18q41 0 64.5 25.5t23.5 66.5v262q0 104 49.5 169t143.5 77q-193 29 -193 246v264q0 39 -23.5 65.5t-64.5 26.5q-47 0 -102 -20v237q94 29 219 29q123 0 197.5 -87t74.5 -214v-260q0 -61 44.5 -105.5t105.5 -44.5h55v-272h-55q-61 0 -105.5 -45 t-44.5 -107v-258q0 -127 -74.5 -214t-197.5 -87q-121 0 -219 27v237z" />
<glyph unicode="~" horiz-adv-x="862" d="M68 598l27 29q19 20 28 27l25 24q17 16 28 22l28 17q17 10 32.5 14t35 7t41.5 3q59 0 108.5 -26.5t80 -54t45.5 -27.5q12 0 29.5 11t28.5 21.5t27.5 29t20.5 22.5l140 -139l-28 -28l-28 -28q-6 -6 -24.5 -22.5t-27.5 -22.5t-27.5 -16t-34 -14.5t-35 -7.5t-41.5 -3 q-59 0 -107.5 28t-79 54.5t-47.5 26.5q-12 0 -28.5 -10.5t-27.5 -22.5l-28 -30l-20 -21z" />
<glyph unicode="&#xa1;" horiz-adv-x="614" d="M109 0l81 901h234l82 -901h-397zM137 1024v342h340v-342h-340z" />
<glyph unicode="&#xa2;" horiz-adv-x="983" d="M61 682q0 205 125 339t326 157v188h143v-188q188 -20 301 -134l-182 -182q-66 66 -153 66q-92 0 -155 -66.5t-63 -179.5t62.5 -179.5t155.5 -66.5q86 0 153 68l182 -182q-113 -113 -301 -134v-188h-143v188q-201 23 -326 156t-125 338z" />
<glyph unicode="&#xa3;" horiz-adv-x="1161" d="M61 0v287h117v280h-117v144h117v217q0 219 123 345t369 126q225 0 401 -176l-205 -207q-96 96 -176 96q-74 0 -123 -48t-49 -122v-231h193v-144h-193v-280h533v-287h-990z" />
<glyph unicode="&#xa5;" horiz-adv-x="1243" d="M-47 1366h430l238 -479l239 479h430l-375 -618h197v-144h-283l-30 -51v-72h313v-143h-313v-338h-355v338h-315v143h315v72l-30 51h-285v144h197z" />
<glyph unicode="&#xa6;" horiz-adv-x="628" d="M205 -137v717h219v-717h-219zM205 784v717h219v-717h-219z" />
<glyph unicode="&#xa7;" horiz-adv-x="1085" d="M96 389q0 100 59.5 189.5t166.5 128.5q-193 98 -193 311q0 156 123 265.5t315 109.5q266 0 420 -154l-194 -192q-84 84 -185 83q-68 0 -102.5 -25.5t-34.5 -62.5q0 -43 53.5 -74.5t129 -60t152.5 -65.5t130 -111t53 -178q0 -100 -59.5 -189.5t-165.5 -127.5 q193 -98 192 -312q0 -156 -122.5 -265.5t-315.5 -109.5q-266 0 -420 154l195 193q84 -84 184 -84q68 0 102.5 25.5t34.5 62.5q0 43 -53 74.5t-129 60t-152.5 65.5t-130 111t-53.5 178zM430 471q0 -68 74 -94q66 0 108.5 33.5t42.5 81.5q0 68 -73 94q-66 0 -109 -34t-43 -81z " />
<glyph unicode="&#xa8;" horiz-adv-x="600" d="M-20 1092v274h266v-274h-266zM354 1092v274h267v-274h-267z" />
<glyph unicode="&#xa9;" horiz-adv-x="1597" d="M117 682q0 283 199.5 483.5t482 200.5t482.5 -200.5t200 -483.5t-200 -482.5t-482.5 -199.5t-482 199.5t-199.5 482.5zM266 682q0 -219 156 -375.5t377 -156.5t376.5 156.5t155.5 375.5q0 221 -155.5 376.5t-376.5 155.5t-377 -155.5t-156 -376.5zM428 682 q0 188 105.5 299t289.5 111q166 0 264 -99l-116 -116q-51 51 -125 51q-96 0 -152.5 -66.5t-56.5 -179.5t56.5 -178.5t152.5 -65.5q78 0 125 51l116 -118q-96 -96 -264 -97q-184 0 -289.5 110t-105.5 298z" />
<glyph unicode="&#xaa;" horiz-adv-x="813" d="M61 883q0 94 74 152.5t217 58.5h121v22q0 43 -28.5 69.5t-82.5 26.5q-66 0 -131 -51l-127 127q129 96 291 96q135 0 221 -73.5t86 -194.5v-409h-221v90q-68 -111 -200 -111q-102 0 -161 56.5t-59 140.5zM291 911.5q0 -28.5 20.5 -48t55.5 -19.5q47 0 76.5 28.5t29.5 81.5 v25h-86q-47 0 -71.5 -19.5t-24.5 -48z" />
<glyph unicode="&#xab;" horiz-adv-x="1140" d="M96 471l191 383h317l-192 -383l192 -383h-317zM553 471l190 383h318l-191 -383l191 -383h-318z" />
<glyph unicode="&#xad;" horiz-adv-x="778" d="M102 387v250h574v-250h-574z" />
<glyph unicode="&#xae;" horiz-adv-x="1597" d="M117 682q0 283 199.5 483.5t482 200.5t482.5 -200.5t200 -483.5t-200 -482.5t-482.5 -199.5t-482 199.5t-199.5 482.5zM266 682q0 -219 156 -375.5t377 -156.5t376.5 156.5t155.5 375.5q0 221 -155.5 376.5t-376.5 155.5t-377 -155.5t-156 -376.5zM510 293v778h317 q129 0 199 -64.5t70 -158.5q0 -61 -38 -114.5t-104 -71.5q96 -16 121 -123l53 -246h-215l-41 211q-8 47 -30.5 64.5t-69.5 17.5h-61v-293h-201zM711 745h86q41 0 66.5 23t25.5 61q0 35 -26.5 59.5t-65.5 24.5h-86v-168z" />
<glyph unicode="&#xaf;" horiz-adv-x="614" d="M68 1161v205h479v-205h-479z" />
<glyph unicode="&#xb0;" horiz-adv-x="737" d="M68 1085.5q0 124.5 88 212.5t213 88t213 -88t88 -212.5t-88 -213t-213 -88.5t-213 88.5t-88 213zM260 1085q0 -45 32 -76.5t77 -31.5t76.5 31.5t31.5 76.5t-31.5 77t-76.5 32t-77 -32t-32 -77z" />
<glyph unicode="&#xb1;" horiz-adv-x="1120" d="M102 25v251h916v-251h-916zM102 741v252h332v332h252v-332h332v-252h-332v-331h-252v331h-332z" />
<glyph unicode="&#xb2;" horiz-adv-x="937" d="M143 446v146q391 293 392 481q0 115 -105 115q-78 0 -145 -60l-140 138q133 109 285 108.5t240 -80.5t88 -202q0 -229 -287 -455h324v-191h-652z" />
<glyph unicode="&#xb3;" horiz-adv-x="937" d="M117 537l137 137q78 -59 156 -60q72 0 106.5 28t34.5 69t-38 66.5t-95 25.5h-119v192h119q61 0 94 28t33 73q0 92 -123 92q-80 0 -150 -60l-137 138q123 109 293 108q150 0 241 -73.5t91 -186.5q0 -70 -40 -124t-106 -81q70 -16 119 -72.5t49 -134.5q0 -121 -91 -197.5 t-263 -76.5q-194 0 -311 109z" />
<glyph unicode="&#xb4;" horiz-adv-x="614" d="M84 1075l96 291h359l-289 -291h-166z" />
<glyph unicode="&#xb5;" horiz-adv-x="1214" d="M123 -424v1366h328v-498q0 -205 149 -204q84 0 124 58t40 194v450h328v-942h-314v143q-43 -78 -114.5 -124t-151.5 -46q-33 0 -61 13v-410h-328z" />
<glyph unicode="&#x3bc;" horiz-adv-x="1214" d="M123 -424v1366h328v-498q0 -205 149 -204q84 0 124 58t40 194v450h328v-942h-314v143q-43 -78 -114.5 -124t-151.5 -46q-33 0 -61 13v-410h-328z" />
<glyph unicode="&#xb6;" horiz-adv-x="1460" d="M41 989q0 156 110.5 266.5t264.5 110.5h786v-1790h-328v1536h-131v-1536h-327v1038q-154 0 -264.5 110.5t-110.5 264.5z" />
<glyph unicode="&#xb7;" horiz-adv-x="587" d="M123 375v342h342v-342h-342z" />
<glyph unicode="&#xb8;" horiz-adv-x="641" d="M96 -313l82 82q37 -41 94 -41q29 0 45.5 14t16.5 33q0 78 -135 78l73 147h164l-28 -57q125 -35 124 -142q0 -80 -64.5 -135t-180.5 -55q-119 0 -191 76z" />
<glyph unicode="&#xb9;" horiz-adv-x="937" d="M162 1042v189q150 23 258 135h201v-920h-218v691q-73 -75 -241 -95z" />
<glyph unicode="&#xba;" horiz-adv-x="817" d="M55 1036q0 156 97.5 252t255 96t256 -96t98.5 -252q0 -158 -98.5 -254t-256 -96t-255 96t-97.5 254zM289 1036q0 -86 34.5 -129t84.5 -43q51 0 85.5 43t34.5 129t-34.5 129t-85.5 43q-49 0 -84 -43t-35 -129z" />
<glyph unicode="&#xbb;" horiz-adv-x="1140" d="M80 88l190 383l-190 383h315l193 -383l-193 -383h-315zM537 88l190 383l-190 383h317l190 -383l-190 -383h-317z" />
<glyph unicode="&#xbc;" horiz-adv-x="2074" d="M162 1042v189q150 23 258 135h201v-920h-218v691q-73 -75 -241 -95zM457 0l956 1366h260l-956 -1366h-260zM1188 182v205l354 524h238v-542h145v-187h-145v-182h-209v182h-383zM1384 369h187v286z" />
<glyph unicode="&#xbd;" horiz-adv-x="2074" d="M162 1042v189q150 23 258 135h201v-920h-218v691q-73 -75 -241 -95zM399 0l955 1366h260l-957 -1366h-258zM1317 0v145q391 293 391 484q0 55 -27.5 83.5t-76.5 28.5q-78 0 -146 -59l-139 137q135 111 285 111q152 0 239.5 -80t87.5 -203q0 -227 -286 -457h323v-190h-651 z" />
<glyph unicode="&#xbe;" horiz-adv-x="2074" d="M117 537l137 137q78 -59 156 -60q72 0 106.5 28t34.5 69t-38 66.5t-95 25.5h-119v192h119q61 0 94 28t33 73q0 92 -123 92q-80 0 -150 -60l-137 138q123 109 293 108q150 0 241 -73.5t91 -186.5q0 -70 -40 -124t-106 -81q70 -16 119 -72.5t49 -134.5q0 -121 -91 -197.5 t-263 -76.5q-194 0 -311 109zM457 0l956 1366h260l-956 -1366h-260zM1188 182v205l354 524h238v-542h145v-187h-145v-182h-209v182h-383zM1384 369h187v286z" />
<glyph unicode="&#xbf;" horiz-adv-x="1009" d="M55 342q0 86 36 157.5t87 120t102.5 91.5t87 91t35.5 99h314q0 -63 -21.5 -118.5t-54.5 -92.5l-71 -76l-70 -69q-33 -31 -54.5 -74t-21.5 -88q0 -59 40 -95t109 -36q109 0 203 98l207 -207q-170 -170 -436 -170q-221 0 -356.5 106.5t-135.5 262.5zM389 1024v342h342v-342 h-342z" />
<glyph unicode="&#xc0;" horiz-adv-x="1284" d="M-41 0l498 1366h368l500 -1366h-356l-90 287h-473l-93 -287h-354zM326 1776h358l96 -291h-166zM494 559h297l-150 465z" />
<glyph unicode="&#xc1;" horiz-adv-x="1284" d="M-41 0l498 1366h368l500 -1366h-356l-90 287h-473l-93 -287h-354zM494 559h297l-150 465zM494 1485l96 291h358l-289 -291h-165z" />
<glyph unicode="&#xc2;" horiz-adv-x="1284" d="M-41 0l498 1366h368l500 -1366h-356l-90 287h-473l-93 -287h-354zM356 1485l158 291h254l158 -291h-205l-80 162l-80 -162h-205zM494 559h297l-150 465z" />
<glyph unicode="&#xc3;" horiz-adv-x="1284" d="M-41 0l498 1366h368l500 -1366h-356l-90 287h-473l-93 -287h-354zM276 1554q0 102 73 175t175 73q53 0 94 -17.5t59.5 -36.5t39 -36.5t41.5 -17.5q23 0 38 15t15 36h197q0 -102 -74 -175t-176 -73q-70 0 -114 27.5t-69.5 54.5t-50.5 27q-20 0 -35.5 -15.5t-15.5 -36.5 h-197zM494 559h297l-150 465z" />
<glyph unicode="&#xc4;" horiz-adv-x="1284" d="M-41 0l498 1366h368l500 -1366h-356l-90 287h-473l-93 -287h-354zM322 1501v275h266v-275h-266zM494 559h297l-150 465zM696 1501v275h267v-275h-267z" />
<glyph unicode="&#xc5;" horiz-adv-x="1284" d="M-41 0l498 1366h368l500 -1366h-356l-90 287h-473l-93 -287h-354zM465 1632.5q0 73.5 52 124.5t126 51t125 -51t51 -124.5t-51 -126t-125 -52.5t-126 52.5t-52 126zM494 559h297l-150 465zM561 1632q0 -35 24.5 -58.5t57.5 -23.5t57.5 23.5t24.5 58.5t-24.5 58.5 t-57.5 23.5t-57.5 -23.5t-24.5 -58.5z" />
<glyph unicode="&#xc6;" horiz-adv-x="1617" d="M-158 0l813 1366h854v-287h-430v-256h416v-286h-416v-250h443v-287h-785v281h-342l-149 -281h-404zM547 567h190v361z" />
<glyph unicode="&#xc7;" horiz-adv-x="1243" d="M68 682q0 330 187 523.5t509 193.5q145 0 268 -48t197 -122l-207 -207q-86 90 -217 90q-178 0 -273.5 -113.5t-95.5 -316.5t95.5 -316.5t273.5 -113.5q127 0 217 90l207 -205q-66 -68 -174.5 -115t-237.5 -55l-12 -24q123 -35 123 -142q0 -82 -64.5 -136t-181.5 -54 q-119 0 -190 76l81 82q41 -41 97 -41q29 0 45 14t16 33q0 78 -135 78l59 118q-274 35 -430.5 223.5t-156.5 487.5z" />
<glyph unicode="&#xc8;" horiz-adv-x="1030" d="M137 0v1366h785v-287h-430v-256h415v-286h-415v-250h444v-287h-799zM168 1776h358l97 -291h-166z" />
<glyph unicode="&#xc9;" horiz-adv-x="1030" d="M137 0v1366h785v-287h-430v-256h415v-286h-415v-250h444v-287h-799zM356 1485l97 291h358l-289 -291h-166z" />
<glyph unicode="&#xca;" horiz-adv-x="1030" d="M137 0v1366h785v-287h-430v-256h415v-286h-415v-250h444v-287h-799zM246 1485l157 291h254l158 -291h-205l-80 162l-79 -162h-205z" />
<glyph unicode="&#xcb;" horiz-adv-x="1030" d="M137 0v1366h785v-287h-430v-256h415v-286h-415v-250h444v-287h-799zM217 1501v275h266v-275h-266zM592 1501v275h266v-275h-266z" />
<glyph unicode="&#xcc;" horiz-adv-x="628" d="M35 1776h358l96 -291h-165zM137 0v1366h355v-1366h-355z" />
<glyph unicode="&#xcd;" horiz-adv-x="628" d="M137 0v1366h355v-1366h-355zM137 1485l96 291h359l-289 -291h-166z" />
<glyph unicode="&#xce;" horiz-adv-x="628" d="M29 1485l157 291h254l158 -291h-205l-80 162l-80 -162h-204zM137 0v1366h355v-1366h-355z" />
<glyph unicode="&#xcf;" horiz-adv-x="628" d="M-6 1501v275h266v-275h-266zM137 0v1366h355v-1366h-355zM369 1501v275h266v-275h-266z" />
<glyph unicode="&#xd0;" horiz-adv-x="1378" d="M0 571v222h150v573h450q326 0 518.5 -178t192.5 -506q0 -326 -192.5 -504t-518.5 -178h-450v571h-150zM506 287h82q164 0 259 105.5t95 289.5t-95 290.5t-259 106.5h-82v-286h149v-222h-149v-284z" />
<glyph unicode="&#xd1;" horiz-adv-x="1419" d="M137 0v1366h422l397 -881v881h328v-1366h-424l-395 881v-881h-328zM344 1554q0 102 72.5 175t175.5 73q55 0 95 -17.5t58.5 -36.5t40 -36.5t39.5 -17.5q23 0 38.5 15t15.5 36h196q0 -102 -73.5 -175t-176.5 -73q-70 0 -113.5 27.5t-69.5 54.5t-50 27q-20 0 -35.5 -15.5 t-15.5 -36.5h-197z" />
<glyph unicode="&#xd2;" horiz-adv-x="1433" d="M68 682q0 328 178 522.5t471 194.5t471 -194.5t178 -522.5q0 -326 -178 -521.5t-471 -195.5t-471 195.5t-178 521.5zM377 1776h358l96 -291h-165zM436 682q0 -203 76 -316.5t205 -113.5t204.5 113.5t75.5 316.5t-75.5 316.5t-204.5 113.5t-205 -113.5t-76 -316.5z" />
<glyph unicode="&#xd3;" horiz-adv-x="1433" d="M68 682q0 328 178 522.5t471 194.5t471 -194.5t178 -522.5q0 -326 -178 -521.5t-471 -195.5t-471 195.5t-178 521.5zM436 682q0 -203 76 -316.5t205 -113.5t204.5 113.5t75.5 316.5t-75.5 316.5t-204.5 113.5t-205 -113.5t-76 -316.5zM598 1485l96 291h359l-289 -291 h-166z" />
<glyph unicode="&#xd4;" horiz-adv-x="1433" d="M68 682q0 328 178 522.5t471 194.5t471 -194.5t178 -522.5q0 -326 -178 -521.5t-471 -195.5t-471 195.5t-178 521.5zM430 1485l158 291h254l157 -291h-204l-80 162l-80 -162h-205zM436 682q0 -203 76 -316.5t205 -113.5t204.5 113.5t75.5 316.5t-75.5 316.5t-204.5 113.5 t-205 -113.5t-76 -316.5z" />
<glyph unicode="&#xd5;" horiz-adv-x="1431" d="M68 682q0 326 177 515t472 189t471 -189t176 -515t-176 -514t-471 -188t-472 189t-177 513zM350 1485q0 102 73 175t175 73q100 0 174 -70l27 -27q12 -12 32 -12q23 0 38.5 15.5t15.5 35.5h196q0 -102 -73.5 -175t-176.5 -73q-106 0 -172 70l-26 27q-12 12 -35 12 q-20 0 -35.5 -14.5t-15.5 -36.5h-197zM436 682q0 -201 75 -308.5t206 -107.5q121 0 199.5 109.5t78.5 306.5q0 199 -78.5 308.5t-199.5 109.5q-131 0 -206 -107.5t-75 -310.5z" />
<glyph unicode="&#xd6;" horiz-adv-x="1433" d="M68 682q0 328 178 522.5t471 194.5t471 -194.5t178 -522.5q0 -326 -178 -521.5t-471 -195.5t-471 195.5t-178 521.5zM393 1501v275h266v-275h-266zM436 682q0 -203 76 -316.5t205 -113.5t204.5 113.5t75.5 316.5t-75.5 316.5t-204.5 113.5t-205 -113.5t-76 -316.5z M768 1501v275h266v-275h-266z" />
<glyph unicode="&#xd7;" horiz-adv-x="1120" d="M117 403l266 267l-266 264l178 178l264 -266l266 266l176 -178l-264 -264l264 -267l-176 -176l-266 265l-264 -265z" />
<glyph unicode="&#xd8;" horiz-adv-x="1433" d="M68 682q0 328 178 522.5t471 194.5q168 0 307 -70l68 105h245l-151 -228q180 -197 180 -524q0 -326 -178 -521.5t-471 -195.5q-168 0 -307 70l-68 -103h-246l152 228q-180 196 -180 522zM428 682q0 -119 29 -215l403 608q-63 45 -143 45q-133 0 -211 -116.5t-78 -321.5z M573 291q63 -45 144 -45q133 0 211 115.5t78 320.5q0 121 -29 217z" />
<glyph unicode="&#xd9;" horiz-adv-x="1378" d="M137 471v895h355v-895q0 -104 56 -161.5t142 -57.5t141.5 57.5t55.5 161.5v895h356v-895q0 -231 -149.5 -368.5t-403.5 -137.5q-256 0 -404.5 137.5t-148.5 368.5zM369 1776h358l96 -291h-166z" />
<glyph unicode="&#xda;" horiz-adv-x="1378" d="M137 471v895h355v-895q0 -104 56 -161.5t142 -57.5t141.5 57.5t55.5 161.5v895h356v-895q0 -231 -149.5 -368.5t-403.5 -137.5q-256 0 -404.5 137.5t-148.5 368.5zM557 1485l96 291h359l-289 -291h-166z" />
<glyph unicode="&#xdb;" horiz-adv-x="1378" d="M137 471v895h355v-895q0 -104 56 -161.5t142 -57.5t141.5 57.5t55.5 161.5v895h356v-895q0 -231 -149.5 -368.5t-403.5 -137.5q-256 0 -404.5 137.5t-148.5 368.5zM403 1485l158 291h254l158 -291h-205l-80 162l-80 -162h-205z" />
<glyph unicode="&#xdc;" horiz-adv-x="1378" d="M137 471v895h355v-895q0 -104 56 -161.5t142 -57.5t141.5 57.5t55.5 161.5v895h356v-895q0 -231 -149.5 -368.5t-403.5 -137.5q-256 0 -404.5 137.5t-148.5 368.5zM369 1501v275h266v-275h-266zM743 1501v275h267v-275h-267z" />
<glyph unicode="&#xdd;" horiz-adv-x="1243" d="M-47 1366h430l238 -479l239 479h430l-491 -813v-553h-355v553zM492 1485l96 291h358l-289 -291h-165z" />
<glyph unicode="&#xde;" horiz-adv-x="1181" d="M137 0v1366h355v-254h190q203 0 337 -126t134 -304q0 -176 -134 -301t-337 -125h-190v-256h-355zM492 543h143q70 0 114 40t44 99t-44 101t-114 42h-143v-282z" />
<glyph unicode="&#xdf;" horiz-adv-x="1214" d="M123 0v928q0 207 137 336t381 129q207 0 329 -98.5t122 -235.5q0 -104 -60.5 -194.5t-152.5 -129.5q131 -35 206.5 -116.5t75.5 -198.5q0 -195 -132 -317.5t-382 -122.5q-57 0 -115 20v270q43 -25 103 -24q86 0 135 49t49 125t-49 125t-135 49h-103v252h56q76 0 120 44 t44 114q0 51 -39 86.5t-99 35.5q-78 0 -120.5 -51t-42.5 -139v-936h-328z" />
<glyph unicode="&#xe0;" d="M55 252q0 135 105.5 218t310.5 83h170v35q0 61 -41 98t-115 37q-98 0 -188 -74l-180 185q184 135 415 135q190 0 313.5 -104.5t123.5 -276.5v-588h-314v129q-96 -156 -286 -156q-147 0 -230.5 80t-83.5 199zM219 1366h359l96 -291h-166zM383 293q0 -39 28.5 -66.5 t80.5 -27.5q68 0 108.5 40t40.5 115v35h-123q-68 0 -101.5 -27.5t-33.5 -68.5z" />
<glyph unicode="&#xe1;" d="M55 252q0 135 105.5 218t310.5 83h170v35q0 61 -41 98t-115 37q-98 0 -188 -74l-180 185q184 135 415 135q190 0 313.5 -104.5t123.5 -276.5v-588h-314v129q-96 -156 -286 -156q-147 0 -230.5 80t-83.5 199zM383 293q0 -39 28.5 -66.5t80.5 -27.5q68 0 108.5 40t40.5 115 v35h-123q-68 0 -101.5 -27.5t-33.5 -68.5zM395 1075l97 291h358l-289 -291h-166z" />
<glyph unicode="&#xe2;" d="M55 252q0 135 105.5 218t310.5 83h170v35q0 61 -41 98t-115 37q-98 0 -188 -74l-180 185q184 135 415 135q190 0 313.5 -104.5t123.5 -276.5v-588h-314v129q-96 -156 -286 -156q-147 0 -230.5 80t-83.5 199zM246 1075l157 291h254l158 -291h-205l-80 162l-79 -162h-205z M383 293q0 -39 28.5 -66.5t80.5 -27.5q68 0 108.5 40t40.5 115v35h-123q-68 0 -101.5 -27.5t-33.5 -68.5z" />
<glyph unicode="&#xe3;" d="M55 252q0 135 105.5 218t310.5 83h170v35q0 61 -41 98t-115 37q-98 0 -188 -74l-180 185q184 135 415 135q190 0 313.5 -104.5t123.5 -276.5v-588h-314v129q-96 -156 -286 -156q-147 0 -230.5 80t-83.5 199zM184 1145q0 102 73 175t175 73q55 0 95 -17.5t58.5 -37t40 -37 t40.5 -17.5q23 0 38 15.5t15 35.5h196q0 -102 -73.5 -175t-175.5 -73q-70 0 -114 28t-69.5 54.5t-50.5 26.5q-20 0 -35.5 -15.5t-15.5 -35.5h-197zM383 293q0 -39 28.5 -66.5t80.5 -27.5q68 0 108.5 40t40.5 115v35h-123q-68 0 -101.5 -27.5t-33.5 -68.5z" />
<glyph unicode="&#xe4;" d="M55 252q0 135 105.5 218t310.5 83h170v35q0 61 -41 98t-115 37q-98 0 -188 -74l-180 185q184 135 415 135q190 0 313.5 -104.5t123.5 -276.5v-588h-314v129q-96 -156 -286 -156q-147 0 -230.5 80t-83.5 199zM225 1092v274h267v-274h-267zM383 293q0 -39 28.5 -66.5 t80.5 -27.5q68 0 108.5 40t40.5 115v35h-123q-68 0 -101.5 -27.5t-33.5 -68.5zM600 1092v274h266v-274h-266z" />
<glyph unicode="&#xe5;" d="M55 252q0 135 105.5 218t310.5 83h170v35q0 61 -41 98t-115 37q-98 0 -188 -74l-180 185q184 135 415 135q190 0 313.5 -104.5t123.5 -276.5v-588h-314v129q-96 -156 -286 -156q-147 0 -230.5 80t-83.5 199zM354 1222.5q0 73.5 52.5 125t126 51.5t125 -51.5t51.5 -125 t-51.5 -126t-125 -52.5t-126 52.5t-52.5 126zM383 293q0 -39 28.5 -66.5t80.5 -27.5q68 0 108.5 40t40.5 115v35h-123q-68 0 -101.5 -27.5t-33.5 -68.5zM451 1222.5q0 -34.5 24.5 -58t57 -23.5t57 23.5t24.5 58t-24.5 58.5t-57 24t-57 -24t-24.5 -58.5z" />
<glyph unicode="&#xe6;" horiz-adv-x="1652" d="M55 272q0 141 104.5 228.5t311.5 87.5h170v6q0 70 -36 106.5t-99 36.5q-90 0 -209 -88l-180 185q184 135 393 135q109 0 197 -37t135 -103q43 61 131 100.5t188 39.5q188 0 299 -128t111 -364v-74h-596q35 -190 213 -190q111 0 186 80l182 -184q-135 -135 -374 -136 q-289 0 -404 207q-41 -90 -141 -148.5t-221 -58.5q-168 0 -264.5 85t-96.5 214zM383 305q0 -47 29.5 -76.5t79.5 -29.5q68 0 108.5 40t40.5 115v56h-123q-66 0 -100.5 -32t-34.5 -73zM975 600h289v14q0 141 -138 142q-55 0 -95 -40t-56 -116z" />
<glyph unicode="&#xe7;" horiz-adv-x="983" d="M61 471q0 225 147.5 361.5t379.5 136.5q115 0 212 -38t156 -97l-182 -185q-68 68 -153 68q-92 0 -155 -66.5t-63 -179.5t62.5 -179.5t155.5 -66.5q86 0 153 68l182 -184q-106 -106 -290 -132l-19 -34q125 -35 125 -142q0 -80 -64.5 -135t-181 -55t-192.5 76l82 82 q41 -41 96 -41q29 0 45 14t16 33q0 78 -135 78l64 124q-199 27 -320 160t-121 334z" />
<glyph unicode="&#xe8;" horiz-adv-x="1064" d="M61 471q0 205 134.5 351.5t343.5 146.5q211 0 327.5 -125t116.5 -367v-74h-594q33 -184 211 -184q115 0 188 74l181 -184q-135 -135 -375 -136q-244 0 -388.5 137.5t-144.5 360.5zM227 1366h359l96 -291h-166zM391 600h285v14q0 137 -137 138q-115 0 -148 -152z" />
<glyph unicode="&#xe9;" horiz-adv-x="1064" d="M61 471q0 205 134.5 351.5t343.5 146.5q211 0 327.5 -125t116.5 -367v-74h-594q33 -184 211 -184q115 0 188 74l181 -184q-135 -135 -375 -136q-244 0 -388.5 137.5t-144.5 360.5zM391 600h285v14q0 137 -137 138q-115 0 -148 -152zM395 1075l97 291h358l-289 -291h-166z " />
<glyph unicode="&#xea;" horiz-adv-x="1064" d="M61 471q0 205 134.5 351.5t343.5 146.5q211 0 327.5 -125t116.5 -367v-74h-594q33 -184 211 -184q115 0 188 74l181 -184q-135 -135 -375 -136q-244 0 -388.5 137.5t-144.5 360.5zM254 1075l158 291h254l157 -291h-205l-79 162l-80 -162h-205zM391 600h285v14 q0 137 -137 138q-115 0 -148 -152z" />
<glyph unicode="&#xeb;" horiz-adv-x="1064" d="M61 471q0 205 134.5 351.5t343.5 146.5q211 0 327.5 -125t116.5 -367v-74h-594q33 -184 211 -184q115 0 188 74l181 -184q-135 -135 -375 -136q-244 0 -388.5 137.5t-144.5 360.5zM219 1092v274h266v-274h-266zM391 600h285v14q0 137 -137 138q-115 0 -148 -152z M594 1092v274h266v-274h-266z" />
<glyph unicode="&#xec;" horiz-adv-x="573" d="M-14 1366h358l96 -291h-166zM123 0v942h328v-942h-328z" />
<glyph unicode="&#xed;" horiz-adv-x="573" d="M123 0v942h328v-942h-328zM133 1075l96 291h359l-289 -291h-166z" />
<glyph unicode="&#xee;" horiz-adv-x="573" d="M2 1075l158 291h254l157 -291h-204l-80 162l-80 -162h-205zM123 0v942h328v-942h-328z" />
<glyph unicode="&#xef;" horiz-adv-x="573" d="M-35 1092v274h266v-274h-266zM123 0v942h328v-942h-328zM340 1092v274h266v-274h-266z" />
<glyph unicode="&#xf0;" horiz-adv-x="1132" d="M61 410q0 172 126 298t319 126q113 0 196 -62q-37 70 -157 184l-172 -102l-113 186l105 64q-53 39 -105 70l217 219q82 -49 166 -121l201 121l112 -187l-153 -94q268 -313 268 -635q0 -215 -139 -359.5t-365 -144.5q-219 0 -362.5 123.5t-143.5 313.5zM395 409.5 q0 -79.5 50.5 -132t122 -52.5t120.5 52.5t49 132t-49 132t-120.5 52.5t-122 -52.5t-50.5 -132z" />
<glyph unicode="&#xf1;" horiz-adv-x="1214" d="M123 0v942h313v-143q96 170 287 170q164 0 266.5 -109.5t102.5 -286.5v-573h-328v498q0 205 -150 204q-84 0 -123.5 -59t-39.5 -192v-451h-328zM240 1145q0 102 72.5 175t174.5 73q53 0 94.5 -17.5t59.5 -37t38.5 -37t41.5 -17.5q23 0 38 15.5t15 35.5h197 q0 -102 -74 -175t-176 -73q-70 0 -114 28t-69.5 54.5t-50.5 26.5q-20 0 -35.5 -15.5t-15.5 -35.5h-196z" />
<glyph unicode="&#xf2;" horiz-adv-x="1132" d="M61 471q0 225 140.5 361.5t366 136.5t364.5 -136.5t139 -361.5t-139 -361.5t-364.5 -136.5t-366 136.5t-140.5 361.5zM254 1366h358l97 -291h-166zM395 471q0 -123 50.5 -184.5t121.5 -61.5q70 0 120 62.5t50 183.5q0 123 -50 184.5t-120 61.5q-72 0 -122 -61.5 t-50 -184.5z" />
<glyph unicode="&#xf3;" horiz-adv-x="1132" d="M61 471q0 225 140.5 361.5t366 136.5t364.5 -136.5t139 -361.5t-139 -361.5t-364.5 -136.5t-366 136.5t-140.5 361.5zM395 471q0 -123 50.5 -184.5t121.5 -61.5q70 0 120 62.5t50 183.5q0 123 -50 184.5t-120 61.5q-72 0 -122 -61.5t-50 -184.5zM424 1075l96 291h359 l-289 -291h-166z" />
<glyph unicode="&#xf4;" horiz-adv-x="1132" d="M61 471q0 225 140.5 361.5t366 136.5t364.5 -136.5t139 -361.5t-139 -361.5t-364.5 -136.5t-366 136.5t-140.5 361.5zM281 1075l157 291h254l158 -291h-205l-80 162l-80 -162h-204zM395 471q0 -123 50.5 -184.5t121.5 -61.5q70 0 120 62.5t50 183.5q0 123 -50 184.5 t-120 61.5q-72 0 -122 -61.5t-50 -184.5z" />
<glyph unicode="&#xf5;" horiz-adv-x="1132" d="M61 471q0 225 140.5 361.5t366 136.5t364.5 -136.5t139 -361.5t-139 -361.5t-364.5 -136.5t-366 136.5t-140.5 361.5zM201 1145q0 102 72.5 175t175.5 73q55 0 95 -17.5t58.5 -37t40 -37t39.5 -17.5q23 0 38 15.5t15 35.5h197q0 -102 -74 -175t-176 -73q-70 0 -114 28 t-69.5 54.5t-49.5 26.5q-20 0 -36 -15.5t-16 -35.5h-196zM395 471q0 -123 50.5 -184.5t121.5 -61.5q70 0 120 62.5t50 183.5q0 123 -50 184.5t-120 61.5q-72 0 -122 -61.5t-50 -184.5z" />
<glyph unicode="&#xf6;" horiz-adv-x="1132" d="M61 471q0 225 140.5 361.5t366 136.5t364.5 -136.5t139 -361.5t-139 -361.5t-364.5 -136.5t-366 136.5t-140.5 361.5zM246 1092v274h266v-274h-266zM395 471q0 -123 50.5 -184.5t121.5 -61.5q70 0 120 62.5t50 183.5q0 123 -50 184.5t-120 61.5q-72 0 -122 -61.5 t-50 -184.5zM621 1092v274h266v-274h-266z" />
<glyph unicode="&#xf7;" horiz-adv-x="1120" d="M102 543v252h916v-252h-916zM424 178v273h272v-273h-272zM424 887v274h272v-274h-272z" />
<glyph unicode="&#xf8;" horiz-adv-x="1132" d="M61 471q0 225 140.5 361.5t365.5 136.5q104 0 191 -31l45 72h205l-99 -156q162 -139 162 -383q0 -225 -139 -361.5t-365 -136.5q-106 0 -192 31l-45 -72h-205l100 156q-164 137 -164 383zM379 471q0 -68 16 -121l232 369q-29 12 -60 12q-78 0 -133 -65.5t-55 -194.5z M506 223q27 -12 61 -12q78 0 133.5 65.5t55.5 194.5q0 72 -19 121z" />
<glyph unicode="&#xf9;" horiz-adv-x="1214" d="M123 369v573h328v-498q0 -205 149 -204q84 0 124 58t40 194v450h328v-942h-314v143q-96 -170 -286 -170q-164 0 -266.5 110t-102.5 286zM301 1366h358l97 -291h-166z" />
<glyph unicode="&#xfa;" horiz-adv-x="1214" d="M123 369v573h328v-498q0 -205 149 -204q84 0 124 58t40 194v450h328v-942h-314v143q-96 -170 -286 -170q-164 0 -266.5 110t-102.5 286zM459 1075l96 291h358l-288 -291h-166z" />
<glyph unicode="&#xfb;" horiz-adv-x="1214" d="M123 369v573h328v-498q0 -205 149 -204q84 0 124 58t40 194v450h328v-942h-314v143q-96 -170 -286 -170q-164 0 -266.5 110t-102.5 286zM322 1075l157 291h254l158 -291h-205l-80 162l-80 -162h-204z" />
<glyph unicode="&#xfc;" horiz-adv-x="1214" d="M123 369v573h328v-498q0 -205 149 -204q84 0 124 58t40 194v450h328v-942h-314v143q-96 -170 -286 -170q-164 0 -266.5 110t-102.5 286zM287 1092v274h266v-274h-266zM662 1092v274h266v-274h-266z" />
<glyph unicode="&#xfd;" horiz-adv-x="1024" d="M-27 942h349l190 -649l190 649h349l-437 -1114q-59 -150 -137 -214.5t-190 -64.5q-119 0 -226 27v254q66 -29 132 -29q86 0 108 58l45 127zM346 1075l96 291h359l-289 -291h-166z" />
<glyph unicode="&#xfe;" horiz-adv-x="1187" d="M123 -424v1790h328v-532q39 59 108.5 97t151.5 38q172 0 293.5 -131t121.5 -366.5t-121.5 -367t-293.5 -131.5q-82 0 -152 38t-108 98v-533h-328zM451 471q0 -121 50 -183.5t120 -62.5q72 0 122 61.5t50 184.5t-50.5 184.5t-121.5 61.5q-70 0 -120 -61.5t-50 -184.5z" />
<glyph unicode="&#xff;" horiz-adv-x="1024" d="M-27 942h349l190 -649l190 649h349l-437 -1114q-59 -150 -137 -214.5t-190 -64.5q-119 0 -226 27v254q66 -29 132 -29q86 0 108 58l45 127zM193 1092v274h266v-274h-266zM567 1092v274h267v-274h-267z" />
<glyph unicode="&#x152;" horiz-adv-x="1890" d="M68 682q0 326 174 521.5t448 195.5q88 0 175 -28t132 -66v61h785v-287h-430v-256h415v-286h-415v-250h444v-287h-799v61q-47 -39 -133 -67.5t-174 -28.5q-274 0 -448 196.5t-174 520.5zM436 682q0 -203 76 -316.5t205 -113.5t204.5 113.5t75.5 316.5t-75.5 316.5 t-204.5 113.5t-205 -113.5t-76 -316.5z" />
<glyph unicode="&#x153;" horiz-adv-x="1740" d="M61 471q0 223 137.5 360.5t348.5 137.5q113 0 207 -41t151 -109q51 66 140.5 108t183.5 42q203 0 316.5 -126t113.5 -366v-74h-594q33 -184 211 -184q115 0 188 74l181 -184q-135 -135 -375 -136q-117 0 -213 40t-150 110q-131 -150 -360 -150q-211 0 -348.5 137.5 t-137.5 360.5zM395 471q0 -123 50.5 -184.5t121.5 -61.5q70 0 120 62.5t50 183.5q0 123 -50 184.5t-120 61.5q-72 0 -122 -61.5t-50 -184.5zM1067 600h285v14q0 137 -138 138q-114 0 -147 -152z" />
<glyph unicode="&#x178;" horiz-adv-x="1243" d="M-47 1366h430l238 -479l239 479h430l-491 -813v-553h-355v553zM301 1501v275h266v-275h-266zM676 1501v275h266v-275h-266z" />
<glyph unicode="&#x2c6;" horiz-adv-x="614" d="M23 1075l157 291h254l158 -291h-205l-80 162l-80 -162h-204z" />
<glyph unicode="&#x2dc;" horiz-adv-x="780" d="M25 1145q0 102 72.5 175t174.5 73q55 0 95.5 -17.5t58.5 -37t39.5 -37t40.5 -17.5q23 0 38 15.5t15 35.5h197q0 -102 -74 -175t-176 -73q-70 0 -114 28t-69.5 54.5t-50.5 26.5q-20 0 -35.5 -15.5t-15.5 -35.5h-196z" />
<glyph unicode="&#x2013;" horiz-adv-x="1296" d="M102 387v250h1092v-250h-1092z" />
<glyph unicode="&#x2014;" horiz-adv-x="2048" d="M102 387v250h1844v-250h-1844z" />
<glyph unicode="&#x2018;" horiz-adv-x="573" d="M47 805l234 561h172l-64 -561h-342z" />
<glyph unicode="&#x2019;" horiz-adv-x="573" d="M121 805l63 561h342l-233 -561h-172z" />
<glyph unicode="&#x201a;" horiz-adv-x="573" d="M121 -219l63 561h342l-233 -561h-172z" />
<glyph unicode="&#x201c;" horiz-adv-x="1024" d="M47 805l234 561h172l-64 -561h-342zM498 805l233 561h172l-63 -561h-342z" />
<glyph unicode="&#x201d;" horiz-adv-x="1024" d="M121 805l63 561h342l-233 -561h-172zM571 805l64 561h342l-234 -561h-172z" />
<glyph unicode="&#x201e;" horiz-adv-x="1024" d="M121 -219l63 561h342l-233 -561h-172zM571 -219l64 561h342l-234 -561h-172z" />
<glyph unicode="&#x2022;" horiz-adv-x="600" d="M96 547q0 84 59.5 144.5t145.5 60.5q84 0 144.5 -60.5t60.5 -144.5q0 -86 -60.5 -145.5t-144.5 -59.5q-86 0 -145.5 59.5t-59.5 145.5z" />
<glyph unicode="&#x2026;" horiz-adv-x="1761" d="M123 0v342h342v-342h-342zM711 0v342h340v-342h-340zM1296 0v342h342v-342h-342z" />
<glyph unicode="&#x2039;" horiz-adv-x="681" d="M96 471l191 383h317l-192 -383l192 -383h-317z" />
<glyph unicode="&#x203a;" horiz-adv-x="681" d="M80 88l190 383l-190 383h315l193 -383l-193 -383h-315z" />
<glyph unicode="&#x20ac;" horiz-adv-x="1284" d="M-27 477v144h138q0 10 -1 30.5t-1 30.5t1 31.5t1 29.5h-138v144h158q53 242 230.5 377t443.5 135q145 0 268 -48t197 -122l-207 -207q-86 90 -217 90q-256 0 -336 -225h446v-144h-477q0 -8 -1 -28.5t-1 -32.5q0 -10 1 -30.5t1 -30.5h477v-144h-446q82 -225 336 -225 q127 0 217 90l207 -205q-74 -76 -197 -124t-268 -48q-266 0 -443.5 136.5t-230.5 375.5h-158z" />
<glyph unicode="&#x2122;" horiz-adv-x="899" d="M41 1270v96h313v-96h-94v-246h-123v246h-96zM385 1024v342h154l61 -219l62 219h155v-342h-106v219l-62 -219h-96l-61 219v-219h-107z" />
<glyph unicode="&#xe000;" horiz-adv-x="940" d="M0 940h940v-940h-940v940z" />
<glyph unicode="&#xfb01;" horiz-adv-x="1386" d="M14 690v252h191v137q0 135 96 224.5t252 89.5q119 0 225 -27v-254q-66 29 -131 29q-115 0 -115 -103v-96h246v-252h-246v-690h-327v690h-191zM936 0v942h328v-942h-328zM936 1092v274h328v-274h-328z" />
<glyph unicode="&#xfb02;" horiz-adv-x="1386" d="M14 690v252h191v137q0 135 96 224.5t252 89.5q119 0 225 -27v-254q-66 29 -131 29q-115 0 -115 -103v-96h246v-252h-246v-690h-327v690h-191zM936 0v1366h328v-1366h-328z" />
<glyph unicode="&#xfb03;" horiz-adv-x="2199" d="M1749 0v942h328v-942h-328zM1749 1092v274h328v-274h-328zM827 690v252h191v137q0 135 96 224.5t252 89.5q119 0 225 -27v-254q-66 29 -131 29q-115 0 -115 -103v-96h246v-252h-246v-690h-327v690h-191zM14 690v252h191v137q0 135 96 224.5t252 89.5q119 0 225 -27v-254 q-66 29 -131 29q-115 0 -115 -103v-96h246v-252h-246v-690h-327v690h-191z" />
<glyph unicode="&#xfb04;" horiz-adv-x="2199" d="M1749 0v1366h328v-1366h-328zM827 690v252h191v137q0 135 96 224.5t252 89.5q119 0 225 -27v-254q-66 29 -131 29q-115 0 -115 -103v-96h246v-252h-246v-690h-327v690h-191zM14 690v252h191v137q0 135 96 224.5t252 89.5q119 0 225 -27v-254q-66 29 -131 29 q-115 0 -115 -103v-96h246v-252h-246v-690h-327v690h-191z" />
<glyph horiz-adv-x="477" />
</font>
</defs>
</svg>
