<?xml version="1.0" standalone="no"?>
<!DOCTYPE svg PUBLIC "-//W3C//DTD SVG 1.1//EN" "http://www.w3.org/Graphics/SVG/1.1/DTD/svg11.dtd" >
<svg xmlns="http://www.w3.org/2000/svg">
<metadata>
This is a custom SVG webfont generated by Font Squirrel.
Copyright   : Copyright c Jakob Fischer at wwwpizzadudedk 2002 All rights reserved
</metadata>
<defs>
<font id="GrouserRegular" horiz-adv-x="1599" >
<font-face units-per-em="2048" ascent="1638" descent="-410" />
<missing-glyph horiz-adv-x="500" />
<glyph unicode="&#x22;" d="M61 799q0 -23 16.5 -42.5t47.5 -19.5h313q18 -98 78 -170l-192 -219q-20 -25 -16.5 -49.5t21 -39.5t43 -16t46.5 23l192 217q57 -37 129 -49v-311q0 -31 19.5 -46.5t42.5 -15.5v-2q23 0 42 16.5t19 47.5v313q98 18 170 78l219 -192q25 -20 49.5 -16.5t40 21t16.5 43 t-24 46.5l-217 192q37 57 49 129h312q31 0 46 19.5t15 42.5t-16.5 42t-46.5 19h-314q-18 98 -78 170l193 219q20 25 16 49.5t-21.5 40t-43 16.5t-45.5 -24l-193 -217q-57 37 -129 49v312q0 31 -19.5 46t-41.5 15v2q-23 0 -42.5 -16.5t-19.5 -46.5v-314q-98 -18 -170 -78 l-219 193q-25 20 -49.5 16t-39.5 -21.5t-16 -43t23 -45.5l217 -193q-37 -57 -49 -129h-311q-31 0 -46.5 -19t-15.5 -42z" />
<glyph unicode="#" d="M61 799q0 -23 16.5 -42.5t47.5 -19.5h313q18 -98 78 -170l-192 -219q-20 -25 -16.5 -49.5t21 -39.5t43 -16t46.5 23l192 217q57 -37 129 -49v-311q0 -31 19.5 -46.5t42.5 -15.5v-2q23 0 42 16.5t19 47.5v313q98 18 170 78l219 -192q25 -20 49.5 -16.5t40 21t16.5 43 t-24 46.5l-217 192q37 57 49 129h312q31 0 46 19.5t15 42.5t-16.5 42t-46.5 19h-314q-18 98 -78 170l193 219q20 25 16 49.5t-21.5 40t-43 16.5t-45.5 -24l-193 -217q-57 37 -129 49v312q0 31 -19.5 46t-41.5 15v2q-23 0 -42.5 -16.5t-19.5 -46.5v-314q-98 -18 -170 -78 l-219 193q-25 20 -49.5 16t-39.5 -21.5t-16 -43t23 -45.5l217 -193q-37 -57 -49 -129h-311q-31 0 -46.5 -19t-15.5 -42z" />
<glyph unicode="$" d="M61 799q0 -23 16.5 -42.5t47.5 -19.5h313q18 -98 78 -170l-192 -219q-20 -25 -16.5 -49.5t21 -39.5t43 -16t46.5 23l192 217q57 -37 129 -49v-311q0 -31 19.5 -46.5t42.5 -15.5v-2q23 0 42 16.5t19 47.5v313q98 18 170 78l219 -192q25 -20 49.5 -16.5t40 21t16.5 43 t-24 46.5l-217 192q37 57 49 129h312q31 0 46 19.5t15 42.5t-16.5 42t-46.5 19h-314q-18 98 -78 170l193 219q20 25 16 49.5t-21.5 40t-43 16.5t-45.5 -24l-193 -217q-57 37 -129 49v312q0 31 -19.5 46t-41.5 15v2q-23 0 -42.5 -16.5t-19.5 -46.5v-314q-98 -18 -170 -78 l-219 193q-25 20 -49.5 16t-39.5 -21.5t-16 -43t23 -45.5l217 -193q-37 -57 -49 -129h-311q-31 0 -46.5 -19t-15.5 -42z" />
<glyph unicode="%" d="M61 799q0 -23 16.5 -42.5t47.5 -19.5h313q18 -98 78 -170l-192 -219q-20 -25 -16.5 -49.5t21 -39.5t43 -16t46.5 23l192 217q57 -37 129 -49v-311q0 -31 19.5 -46.5t42.5 -15.5v-2q23 0 42 16.5t19 47.5v313q98 18 170 78l219 -192q25 -20 49.5 -16.5t40 21t16.5 43 t-24 46.5l-217 192q37 57 49 129h312q31 0 46 19.5t15 42.5t-16.5 42t-46.5 19h-314q-18 98 -78 170l193 219q20 25 16 49.5t-21.5 40t-43 16.5t-45.5 -24l-193 -217q-57 37 -129 49v312q0 31 -19.5 46t-41.5 15v2q-23 0 -42.5 -16.5t-19.5 -46.5v-314q-98 -18 -170 -78 l-219 193q-25 20 -49.5 16t-39.5 -21.5t-16 -43t23 -45.5l217 -193q-37 -57 -49 -129h-311q-31 0 -46.5 -19t-15.5 -42z" />
<glyph unicode="&#x26;" d="M61 799q0 -23 16.5 -42.5t47.5 -19.5h313q18 -98 78 -170l-192 -219q-20 -25 -16.5 -49.5t21 -39.5t43 -16t46.5 23l192 217q57 -37 129 -49v-311q0 -31 19.5 -46.5t42.5 -15.5v-2q23 0 42 16.5t19 47.5v313q98 18 170 78l219 -192q25 -20 49.5 -16.5t40 21t16.5 43 t-24 46.5l-217 192q37 57 49 129h312q31 0 46 19.5t15 42.5t-16.5 42t-46.5 19h-314q-18 98 -78 170l193 219q20 25 16 49.5t-21.5 40t-43 16.5t-45.5 -24l-193 -217q-57 37 -129 49v312q0 31 -19.5 46t-41.5 15v2q-23 0 -42.5 -16.5t-19.5 -46.5v-314q-98 -18 -170 -78 l-219 193q-25 20 -49.5 16t-39.5 -21.5t-16 -43t23 -45.5l217 -193q-37 -57 -49 -129h-311q-31 0 -46.5 -19t-15.5 -42z" />
<glyph unicode="'" d="M61 799q0 -23 16.5 -42.5t47.5 -19.5h313q18 -98 78 -170l-192 -219q-20 -25 -16.5 -49.5t21 -39.5t43 -16t46.5 23l192 217q57 -37 129 -49v-311q0 -31 19.5 -46.5t42.5 -15.5v-2q23 0 42 16.5t19 47.5v313q98 18 170 78l219 -192q25 -20 49.5 -16.5t40 21t16.5 43 t-24 46.5l-217 192q37 57 49 129h312q31 0 46 19.5t15 42.5t-16.5 42t-46.5 19h-314q-18 98 -78 170l193 219q20 25 16 49.5t-21.5 40t-43 16.5t-45.5 -24l-193 -217q-57 37 -129 49v312q0 31 -19.5 46t-41.5 15v2q-23 0 -42.5 -16.5t-19.5 -46.5v-314q-98 -18 -170 -78 l-219 193q-25 20 -49.5 16t-39.5 -21.5t-16 -43t23 -45.5l217 -193q-37 -57 -49 -129h-311q-31 0 -46.5 -19t-15.5 -42z" />
<glyph unicode="(" d="M61 799q0 -23 16.5 -42.5t47.5 -19.5h313q18 -98 78 -170l-192 -219q-20 -25 -16.5 -49.5t21 -39.5t43 -16t46.5 23l192 217q57 -37 129 -49v-311q0 -31 19.5 -46.5t42.5 -15.5v-2q23 0 42 16.5t19 47.5v313q98 18 170 78l219 -192q25 -20 49.5 -16.5t40 21t16.5 43 t-24 46.5l-217 192q37 57 49 129h312q31 0 46 19.5t15 42.5t-16.5 42t-46.5 19h-314q-18 98 -78 170l193 219q20 25 16 49.5t-21.5 40t-43 16.5t-45.5 -24l-193 -217q-57 37 -129 49v312q0 31 -19.5 46t-41.5 15v2q-23 0 -42.5 -16.5t-19.5 -46.5v-314q-98 -18 -170 -78 l-219 193q-25 20 -49.5 16t-39.5 -21.5t-16 -43t23 -45.5l217 -193q-37 -57 -49 -129h-311q-31 0 -46.5 -19t-15.5 -42z" />
<glyph unicode=")" d="M61 799q0 -23 16.5 -42.5t47.5 -19.5h313q18 -98 78 -170l-192 -219q-20 -25 -16.5 -49.5t21 -39.5t43 -16t46.5 23l192 217q57 -37 129 -49v-311q0 -31 19.5 -46.5t42.5 -15.5v-2q23 0 42 16.5t19 47.5v313q98 18 170 78l219 -192q25 -20 49.5 -16.5t40 21t16.5 43 t-24 46.5l-217 192q37 57 49 129h312q31 0 46 19.5t15 42.5t-16.5 42t-46.5 19h-314q-18 98 -78 170l193 219q20 25 16 49.5t-21.5 40t-43 16.5t-45.5 -24l-193 -217q-57 37 -129 49v312q0 31 -19.5 46t-41.5 15v2q-23 0 -42.5 -16.5t-19.5 -46.5v-314q-98 -18 -170 -78 l-219 193q-25 20 -49.5 16t-39.5 -21.5t-16 -43t23 -45.5l217 -193q-37 -57 -49 -129h-311q-31 0 -46.5 -19t-15.5 -42z" />
<glyph unicode="*" d="M61 799q0 -23 16.5 -42.5t47.5 -19.5h313q18 -98 78 -170l-192 -219q-20 -25 -16.5 -49.5t21 -39.5t43 -16t46.5 23l192 217q57 -37 129 -49v-311q0 -31 19.5 -46.5t42.5 -15.5v-2q23 0 42 16.5t19 47.5v313q98 18 170 78l219 -192q25 -20 49.5 -16.5t40 21t16.5 43 t-24 46.5l-217 192q37 57 49 129h312q31 0 46 19.5t15 42.5t-16.5 42t-46.5 19h-314q-18 98 -78 170l193 219q20 25 16 49.5t-21.5 40t-43 16.5t-45.5 -24l-193 -217q-57 37 -129 49v312q0 31 -19.5 46t-41.5 15v2q-23 0 -42.5 -16.5t-19.5 -46.5v-314q-98 -18 -170 -78 l-219 193q-25 20 -49.5 16t-39.5 -21.5t-16 -43t23 -45.5l217 -193q-37 -57 -49 -129h-311q-31 0 -46.5 -19t-15.5 -42z" />
<glyph unicode="+" d="M61 799q0 -23 16.5 -42.5t47.5 -19.5h313q18 -98 78 -170l-192 -219q-20 -25 -16.5 -49.5t21 -39.5t43 -16t46.5 23l192 217q57 -37 129 -49v-311q0 -31 19.5 -46.5t42.5 -15.5v-2q23 0 42 16.5t19 47.5v313q98 18 170 78l219 -192q25 -20 49.5 -16.5t40 21t16.5 43 t-24 46.5l-217 192q37 57 49 129h312q31 0 46 19.5t15 42.5t-16.5 42t-46.5 19h-314q-18 98 -78 170l193 219q20 25 16 49.5t-21.5 40t-43 16.5t-45.5 -24l-193 -217q-57 37 -129 49v312q0 31 -19.5 46t-41.5 15v2q-23 0 -42.5 -16.5t-19.5 -46.5v-314q-98 -18 -170 -78 l-219 193q-25 20 -49.5 16t-39.5 -21.5t-16 -43t23 -45.5l217 -193q-37 -57 -49 -129h-311q-31 0 -46.5 -19t-15.5 -42z" />
<glyph unicode="," d="M61 799q0 -23 16.5 -42.5t47.5 -19.5h313q18 -98 78 -170l-192 -219q-20 -25 -16.5 -49.5t21 -39.5t43 -16t46.5 23l192 217q57 -37 129 -49v-311q0 -31 19.5 -46.5t42.5 -15.5v-2q23 0 42 16.5t19 47.5v313q98 18 170 78l219 -192q25 -20 49.5 -16.5t40 21t16.5 43 t-24 46.5l-217 192q37 57 49 129h312q31 0 46 19.5t15 42.5t-16.5 42t-46.5 19h-314q-18 98 -78 170l193 219q20 25 16 49.5t-21.5 40t-43 16.5t-45.5 -24l-193 -217q-57 37 -129 49v312q0 31 -19.5 46t-41.5 15v2q-23 0 -42.5 -16.5t-19.5 -46.5v-314q-98 -18 -170 -78 l-219 193q-25 20 -49.5 16t-39.5 -21.5t-16 -43t23 -45.5l217 -193q-37 -57 -49 -129h-311q-31 0 -46.5 -19t-15.5 -42z" />
<glyph unicode="-" d="M61 799q0 -23 16.5 -42.5t47.5 -19.5h313q18 -98 78 -170l-192 -219q-20 -25 -16.5 -49.5t21 -39.5t43 -16t46.5 23l192 217q57 -37 129 -49v-311q0 -31 19.5 -46.5t42.5 -15.5v-2q23 0 42 16.5t19 47.5v313q98 18 170 78l219 -192q25 -20 49.5 -16.5t40 21t16.5 43 t-24 46.5l-217 192q37 57 49 129h312q31 0 46 19.5t15 42.5t-16.5 42t-46.5 19h-314q-18 98 -78 170l193 219q20 25 16 49.5t-21.5 40t-43 16.5t-45.5 -24l-193 -217q-57 37 -129 49v312q0 31 -19.5 46t-41.5 15v2q-23 0 -42.5 -16.5t-19.5 -46.5v-314q-98 -18 -170 -78 l-219 193q-25 20 -49.5 16t-39.5 -21.5t-16 -43t23 -45.5l217 -193q-37 -57 -49 -129h-311q-31 0 -46.5 -19t-15.5 -42z" />
<glyph unicode="." d="M61 799q0 -23 16.5 -42.5t47.5 -19.5h313q18 -98 78 -170l-192 -219q-20 -25 -16.5 -49.5t21 -39.5t43 -16t46.5 23l192 217q57 -37 129 -49v-311q0 -31 19.5 -46.5t42.5 -15.5v-2q23 0 42 16.5t19 47.5v313q98 18 170 78l219 -192q25 -20 49.5 -16.5t40 21t16.5 43 t-24 46.5l-217 192q37 57 49 129h312q31 0 46 19.5t15 42.5t-16.5 42t-46.5 19h-314q-18 98 -78 170l193 219q20 25 16 49.5t-21.5 40t-43 16.5t-45.5 -24l-193 -217q-57 37 -129 49v312q0 31 -19.5 46t-41.5 15v2q-23 0 -42.5 -16.5t-19.5 -46.5v-314q-98 -18 -170 -78 l-219 193q-25 20 -49.5 16t-39.5 -21.5t-16 -43t23 -45.5l217 -193q-37 -57 -49 -129h-311q-31 0 -46.5 -19t-15.5 -42z" />
<glyph unicode="/" d="M61 799q0 -23 16.5 -42.5t47.5 -19.5h313q18 -98 78 -170l-192 -219q-20 -25 -16.5 -49.5t21 -39.5t43 -16t46.5 23l192 217q57 -37 129 -49v-311q0 -31 19.5 -46.5t42.5 -15.5v-2q23 0 42 16.5t19 47.5v313q98 18 170 78l219 -192q25 -20 49.5 -16.5t40 21t16.5 43 t-24 46.5l-217 192q37 57 49 129h312q31 0 46 19.5t15 42.5t-16.5 42t-46.5 19h-314q-18 98 -78 170l193 219q20 25 16 49.5t-21.5 40t-43 16.5t-45.5 -24l-193 -217q-57 37 -129 49v312q0 31 -19.5 46t-41.5 15v2q-23 0 -42.5 -16.5t-19.5 -46.5v-314q-98 -18 -170 -78 l-219 193q-25 20 -49.5 16t-39.5 -21.5t-16 -43t23 -45.5l217 -193q-37 -57 -49 -129h-311q-31 0 -46.5 -19t-15.5 -42z" />
<glyph unicode="0" d="M61 799q0 -23 16.5 -42.5t47.5 -19.5h313q18 -98 78 -170l-192 -219q-20 -25 -16.5 -49.5t21 -39.5t43 -16t46.5 23l192 217q57 -37 129 -49v-311q0 -31 19.5 -46.5t42.5 -15.5v-2q23 0 42 16.5t19 47.5v313q98 18 170 78l219 -192q25 -20 49.5 -16.5t40 21t16.5 43 t-24 46.5l-217 192q37 57 49 129h312q31 0 46 19.5t15 42.5t-16.5 42t-46.5 19h-314q-18 98 -78 170l193 219q20 25 16 49.5t-21.5 40t-43 16.5t-45.5 -24l-193 -217q-57 37 -129 49v312q0 31 -19.5 46t-41.5 15v2q-23 0 -42.5 -16.5t-19.5 -46.5v-314q-98 -18 -170 -78 l-219 193q-25 20 -49.5 16t-39.5 -21.5t-16 -43t23 -45.5l217 -193q-37 -57 -49 -129h-311q-31 0 -46.5 -19t-15.5 -42z" />
<glyph unicode="1" d="M61 799q0 -23 16.5 -42.5t47.5 -19.5h313q18 -98 78 -170l-192 -219q-20 -25 -16.5 -49.5t21 -39.5t43 -16t46.5 23l192 217q57 -37 129 -49v-311q0 -31 19.5 -46.5t42.5 -15.5v-2q23 0 42 16.5t19 47.5v313q98 18 170 78l219 -192q25 -20 49.5 -16.5t40 21t16.5 43 t-24 46.5l-217 192q37 57 49 129h312q31 0 46 19.5t15 42.5t-16.5 42t-46.5 19h-314q-18 98 -78 170l193 219q20 25 16 49.5t-21.5 40t-43 16.5t-45.5 -24l-193 -217q-57 37 -129 49v312q0 31 -19.5 46t-41.5 15v2q-23 0 -42.5 -16.5t-19.5 -46.5v-314q-98 -18 -170 -78 l-219 193q-25 20 -49.5 16t-39.5 -21.5t-16 -43t23 -45.5l217 -193q-37 -57 -49 -129h-311q-31 0 -46.5 -19t-15.5 -42z" />
<glyph unicode="2" d="M61 799q0 -23 16.5 -42.5t47.5 -19.5h313q18 -98 78 -170l-192 -219q-20 -25 -16.5 -49.5t21 -39.5t43 -16t46.5 23l192 217q57 -37 129 -49v-311q0 -31 19.5 -46.5t42.5 -15.5v-2q23 0 42 16.5t19 47.5v313q98 18 170 78l219 -192q25 -20 49.5 -16.5t40 21t16.5 43 t-24 46.5l-217 192q37 57 49 129h312q31 0 46 19.5t15 42.5t-16.5 42t-46.5 19h-314q-18 98 -78 170l193 219q20 25 16 49.5t-21.5 40t-43 16.5t-45.5 -24l-193 -217q-57 37 -129 49v312q0 31 -19.5 46t-41.5 15v2q-23 0 -42.5 -16.5t-19.5 -46.5v-314q-98 -18 -170 -78 l-219 193q-25 20 -49.5 16t-39.5 -21.5t-16 -43t23 -45.5l217 -193q-37 -57 -49 -129h-311q-31 0 -46.5 -19t-15.5 -42z" />
<glyph unicode="3" d="M61 799q0 -23 16.5 -42.5t47.5 -19.5h313q18 -98 78 -170l-192 -219q-20 -25 -16.5 -49.5t21 -39.5t43 -16t46.5 23l192 217q57 -37 129 -49v-311q0 -31 19.5 -46.5t42.5 -15.5v-2q23 0 42 16.5t19 47.5v313q98 18 170 78l219 -192q25 -20 49.5 -16.5t40 21t16.5 43 t-24 46.5l-217 192q37 57 49 129h312q31 0 46 19.5t15 42.5t-16.5 42t-46.5 19h-314q-18 98 -78 170l193 219q20 25 16 49.5t-21.5 40t-43 16.5t-45.5 -24l-193 -217q-57 37 -129 49v312q0 31 -19.5 46t-41.5 15v2q-23 0 -42.5 -16.5t-19.5 -46.5v-314q-98 -18 -170 -78 l-219 193q-25 20 -49.5 16t-39.5 -21.5t-16 -43t23 -45.5l217 -193q-37 -57 -49 -129h-311q-31 0 -46.5 -19t-15.5 -42z" />
<glyph unicode="4" d="M61 799q0 -23 16.5 -42.5t47.5 -19.5h313q18 -98 78 -170l-192 -219q-20 -25 -16.5 -49.5t21 -39.5t43 -16t46.5 23l192 217q57 -37 129 -49v-311q0 -31 19.5 -46.5t42.5 -15.5v-2q23 0 42 16.5t19 47.5v313q98 18 170 78l219 -192q25 -20 49.5 -16.5t40 21t16.5 43 t-24 46.5l-217 192q37 57 49 129h312q31 0 46 19.5t15 42.5t-16.5 42t-46.5 19h-314q-18 98 -78 170l193 219q20 25 16 49.5t-21.5 40t-43 16.5t-45.5 -24l-193 -217q-57 37 -129 49v312q0 31 -19.5 46t-41.5 15v2q-23 0 -42.5 -16.5t-19.5 -46.5v-314q-98 -18 -170 -78 l-219 193q-25 20 -49.5 16t-39.5 -21.5t-16 -43t23 -45.5l217 -193q-37 -57 -49 -129h-311q-31 0 -46.5 -19t-15.5 -42z" />
<glyph unicode="5" d="M61 799q0 -23 16.5 -42.5t47.5 -19.5h313q18 -98 78 -170l-192 -219q-20 -25 -16.5 -49.5t21 -39.5t43 -16t46.5 23l192 217q57 -37 129 -49v-311q0 -31 19.5 -46.5t42.5 -15.5v-2q23 0 42 16.5t19 47.5v313q98 18 170 78l219 -192q25 -20 49.5 -16.5t40 21t16.5 43 t-24 46.5l-217 192q37 57 49 129h312q31 0 46 19.5t15 42.5t-16.5 42t-46.5 19h-314q-18 98 -78 170l193 219q20 25 16 49.5t-21.5 40t-43 16.5t-45.5 -24l-193 -217q-57 37 -129 49v312q0 31 -19.5 46t-41.5 15v2q-23 0 -42.5 -16.5t-19.5 -46.5v-314q-98 -18 -170 -78 l-219 193q-25 20 -49.5 16t-39.5 -21.5t-16 -43t23 -45.5l217 -193q-37 -57 -49 -129h-311q-31 0 -46.5 -19t-15.5 -42z" />
<glyph unicode="6" d="M61 799q0 -23 16.5 -42.5t47.5 -19.5h313q18 -98 78 -170l-192 -219q-20 -25 -16.5 -49.5t21 -39.5t43 -16t46.5 23l192 217q57 -37 129 -49v-311q0 -31 19.5 -46.5t42.5 -15.5v-2q23 0 42 16.5t19 47.5v313q98 18 170 78l219 -192q25 -20 49.5 -16.5t40 21t16.5 43 t-24 46.5l-217 192q37 57 49 129h312q31 0 46 19.5t15 42.5t-16.5 42t-46.5 19h-314q-18 98 -78 170l193 219q20 25 16 49.5t-21.5 40t-43 16.5t-45.5 -24l-193 -217q-57 37 -129 49v312q0 31 -19.5 46t-41.5 15v2q-23 0 -42.5 -16.5t-19.5 -46.5v-314q-98 -18 -170 -78 l-219 193q-25 20 -49.5 16t-39.5 -21.5t-16 -43t23 -45.5l217 -193q-37 -57 -49 -129h-311q-31 0 -46.5 -19t-15.5 -42z" />
<glyph unicode="7" d="M61 799q0 -23 16.5 -42.5t47.5 -19.5h313q18 -98 78 -170l-192 -219q-20 -25 -16.5 -49.5t21 -39.5t43 -16t46.5 23l192 217q57 -37 129 -49v-311q0 -31 19.5 -46.5t42.5 -15.5v-2q23 0 42 16.5t19 47.5v313q98 18 170 78l219 -192q25 -20 49.5 -16.5t40 21t16.5 43 t-24 46.5l-217 192q37 57 49 129h312q31 0 46 19.5t15 42.5t-16.5 42t-46.5 19h-314q-18 98 -78 170l193 219q20 25 16 49.5t-21.5 40t-43 16.5t-45.5 -24l-193 -217q-57 37 -129 49v312q0 31 -19.5 46t-41.5 15v2q-23 0 -42.5 -16.5t-19.5 -46.5v-314q-98 -18 -170 -78 l-219 193q-25 20 -49.5 16t-39.5 -21.5t-16 -43t23 -45.5l217 -193q-37 -57 -49 -129h-311q-31 0 -46.5 -19t-15.5 -42z" />
<glyph unicode="8" d="M61 799q0 -23 16.5 -42.5t47.5 -19.5h313q18 -98 78 -170l-192 -219q-20 -25 -16.5 -49.5t21 -39.5t43 -16t46.5 23l192 217q57 -37 129 -49v-311q0 -31 19.5 -46.5t42.5 -15.5v-2q23 0 42 16.5t19 47.5v313q98 18 170 78l219 -192q25 -20 49.5 -16.5t40 21t16.5 43 t-24 46.5l-217 192q37 57 49 129h312q31 0 46 19.5t15 42.5t-16.5 42t-46.5 19h-314q-18 98 -78 170l193 219q20 25 16 49.5t-21.5 40t-43 16.5t-45.5 -24l-193 -217q-57 37 -129 49v312q0 31 -19.5 46t-41.5 15v2q-23 0 -42.5 -16.5t-19.5 -46.5v-314q-98 -18 -170 -78 l-219 193q-25 20 -49.5 16t-39.5 -21.5t-16 -43t23 -45.5l217 -193q-37 -57 -49 -129h-311q-31 0 -46.5 -19t-15.5 -42z" />
<glyph unicode="9" d="M61 799q0 -23 16.5 -42.5t47.5 -19.5h313q18 -98 78 -170l-192 -219q-20 -25 -16.5 -49.5t21 -39.5t43 -16t46.5 23l192 217q57 -37 129 -49v-311q0 -31 19.5 -46.5t42.5 -15.5v-2q23 0 42 16.5t19 47.5v313q98 18 170 78l219 -192q25 -20 49.5 -16.5t40 21t16.5 43 t-24 46.5l-217 192q37 57 49 129h312q31 0 46 19.5t15 42.5t-16.5 42t-46.5 19h-314q-18 98 -78 170l193 219q20 25 16 49.5t-21.5 40t-43 16.5t-45.5 -24l-193 -217q-57 37 -129 49v312q0 31 -19.5 46t-41.5 15v2q-23 0 -42.5 -16.5t-19.5 -46.5v-314q-98 -18 -170 -78 l-219 193q-25 20 -49.5 16t-39.5 -21.5t-16 -43t23 -45.5l217 -193q-37 -57 -49 -129h-311q-31 0 -46.5 -19t-15.5 -42z" />
<glyph unicode=":" d="M61 799q0 -23 16.5 -42.5t47.5 -19.5h313q18 -98 78 -170l-192 -219q-20 -25 -16.5 -49.5t21 -39.5t43 -16t46.5 23l192 217q57 -37 129 -49v-311q0 -31 19.5 -46.5t42.5 -15.5v-2q23 0 42 16.5t19 47.5v313q98 18 170 78l219 -192q25 -20 49.5 -16.5t40 21t16.5 43 t-24 46.5l-217 192q37 57 49 129h312q31 0 46 19.5t15 42.5t-16.5 42t-46.5 19h-314q-18 98 -78 170l193 219q20 25 16 49.5t-21.5 40t-43 16.5t-45.5 -24l-193 -217q-57 37 -129 49v312q0 31 -19.5 46t-41.5 15v2q-23 0 -42.5 -16.5t-19.5 -46.5v-314q-98 -18 -170 -78 l-219 193q-25 20 -49.5 16t-39.5 -21.5t-16 -43t23 -45.5l217 -193q-37 -57 -49 -129h-311q-31 0 -46.5 -19t-15.5 -42z" />
<glyph unicode=";" d="M61 799q0 -23 16.5 -42.5t47.5 -19.5h313q18 -98 78 -170l-192 -219q-20 -25 -16.5 -49.5t21 -39.5t43 -16t46.5 23l192 217q57 -37 129 -49v-311q0 -31 19.5 -46.5t42.5 -15.5v-2q23 0 42 16.5t19 47.5v313q98 18 170 78l219 -192q25 -20 49.5 -16.5t40 21t16.5 43 t-24 46.5l-217 192q37 57 49 129h312q31 0 46 19.5t15 42.5t-16.5 42t-46.5 19h-314q-18 98 -78 170l193 219q20 25 16 49.5t-21.5 40t-43 16.5t-45.5 -24l-193 -217q-57 37 -129 49v312q0 31 -19.5 46t-41.5 15v2q-23 0 -42.5 -16.5t-19.5 -46.5v-314q-98 -18 -170 -78 l-219 193q-25 20 -49.5 16t-39.5 -21.5t-16 -43t23 -45.5l217 -193q-37 -57 -49 -129h-311q-31 0 -46.5 -19t-15.5 -42z" />
<glyph unicode="&#x37e;" d="M61 799q0 -23 16.5 -42.5t47.5 -19.5h313q18 -98 78 -170l-192 -219q-20 -25 -16.5 -49.5t21 -39.5t43 -16t46.5 23l192 217q57 -37 129 -49v-311q0 -31 19.5 -46.5t42.5 -15.5v-2q23 0 42 16.5t19 47.5v313q98 18 170 78l219 -192q25 -20 49.5 -16.5t40 21t16.5 43 t-24 46.5l-217 192q37 57 49 129h312q31 0 46 19.5t15 42.5t-16.5 42t-46.5 19h-314q-18 98 -78 170l193 219q20 25 16 49.5t-21.5 40t-43 16.5t-45.5 -24l-193 -217q-57 37 -129 49v312q0 31 -19.5 46t-41.5 15v2q-23 0 -42.5 -16.5t-19.5 -46.5v-314q-98 -18 -170 -78 l-219 193q-25 20 -49.5 16t-39.5 -21.5t-16 -43t23 -45.5l217 -193q-37 -57 -49 -129h-311q-31 0 -46.5 -19t-15.5 -42z" />
<glyph unicode="&#x3c;" d="M61 799q0 -23 16.5 -42.5t47.5 -19.5h313q18 -98 78 -170l-192 -219q-20 -25 -16.5 -49.5t21 -39.5t43 -16t46.5 23l192 217q57 -37 129 -49v-311q0 -31 19.5 -46.5t42.5 -15.5v-2q23 0 42 16.5t19 47.5v313q98 18 170 78l219 -192q25 -20 49.5 -16.5t40 21t16.5 43 t-24 46.5l-217 192q37 57 49 129h312q31 0 46 19.5t15 42.5t-16.5 42t-46.5 19h-314q-18 98 -78 170l193 219q20 25 16 49.5t-21.5 40t-43 16.5t-45.5 -24l-193 -217q-57 37 -129 49v312q0 31 -19.5 46t-41.5 15v2q-23 0 -42.5 -16.5t-19.5 -46.5v-314q-98 -18 -170 -78 l-219 193q-25 20 -49.5 16t-39.5 -21.5t-16 -43t23 -45.5l217 -193q-37 -57 -49 -129h-311q-31 0 -46.5 -19t-15.5 -42z" />
<glyph unicode="=" d="M61 799q0 -23 16.5 -42.5t47.5 -19.5h313q18 -98 78 -170l-192 -219q-20 -25 -16.5 -49.5t21 -39.5t43 -16t46.5 23l192 217q57 -37 129 -49v-311q0 -31 19.5 -46.5t42.5 -15.5v-2q23 0 42 16.5t19 47.5v313q98 18 170 78l219 -192q25 -20 49.5 -16.5t40 21t16.5 43 t-24 46.5l-217 192q37 57 49 129h312q31 0 46 19.5t15 42.5t-16.5 42t-46.5 19h-314q-18 98 -78 170l193 219q20 25 16 49.5t-21.5 40t-43 16.5t-45.5 -24l-193 -217q-57 37 -129 49v312q0 31 -19.5 46t-41.5 15v2q-23 0 -42.5 -16.5t-19.5 -46.5v-314q-98 -18 -170 -78 l-219 193q-25 20 -49.5 16t-39.5 -21.5t-16 -43t23 -45.5l217 -193q-37 -57 -49 -129h-311q-31 0 -46.5 -19t-15.5 -42z" />
<glyph unicode="&#x3e;" d="M61 799q0 -23 16.5 -42.5t47.5 -19.5h313q18 -98 78 -170l-192 -219q-20 -25 -16.5 -49.5t21 -39.5t43 -16t46.5 23l192 217q57 -37 129 -49v-311q0 -31 19.5 -46.5t42.5 -15.5v-2q23 0 42 16.5t19 47.5v313q98 18 170 78l219 -192q25 -20 49.5 -16.5t40 21t16.5 43 t-24 46.5l-217 192q37 57 49 129h312q31 0 46 19.5t15 42.5t-16.5 42t-46.5 19h-314q-18 98 -78 170l193 219q20 25 16 49.5t-21.5 40t-43 16.5t-45.5 -24l-193 -217q-57 37 -129 49v312q0 31 -19.5 46t-41.5 15v2q-23 0 -42.5 -16.5t-19.5 -46.5v-314q-98 -18 -170 -78 l-219 193q-25 20 -49.5 16t-39.5 -21.5t-16 -43t23 -45.5l217 -193q-37 -57 -49 -129h-311q-31 0 -46.5 -19t-15.5 -42z" />
<glyph unicode="?" d="M61 799q0 -23 16.5 -42.5t47.5 -19.5h313q18 -98 78 -170l-192 -219q-20 -25 -16.5 -49.5t21 -39.5t43 -16t46.5 23l192 217q57 -37 129 -49v-311q0 -31 19.5 -46.5t42.5 -15.5v-2q23 0 42 16.5t19 47.5v313q98 18 170 78l219 -192q25 -20 49.5 -16.5t40 21t16.5 43 t-24 46.5l-217 192q37 57 49 129h312q31 0 46 19.5t15 42.5t-16.5 42t-46.5 19h-314q-18 98 -78 170l193 219q20 25 16 49.5t-21.5 40t-43 16.5t-45.5 -24l-193 -217q-57 37 -129 49v312q0 31 -19.5 46t-41.5 15v2q-23 0 -42.5 -16.5t-19.5 -46.5v-314q-98 -18 -170 -78 l-219 193q-25 20 -49.5 16t-39.5 -21.5t-16 -43t23 -45.5l217 -193q-37 -57 -49 -129h-311q-31 0 -46.5 -19t-15.5 -42z" />
<glyph unicode="@" d="M61 799q0 -23 16.5 -42.5t47.5 -19.5h313q18 -98 78 -170l-192 -219q-20 -25 -16.5 -49.5t21 -39.5t43 -16t46.5 23l192 217q57 -37 129 -49v-311q0 -31 19.5 -46.5t42.5 -15.5v-2q23 0 42 16.5t19 47.5v313q98 18 170 78l219 -192q25 -20 49.5 -16.5t40 21t16.5 43 t-24 46.5l-217 192q37 57 49 129h312q31 0 46 19.5t15 42.5t-16.5 42t-46.5 19h-314q-18 98 -78 170l193 219q20 25 16 49.5t-21.5 40t-43 16.5t-45.5 -24l-193 -217q-57 37 -129 49v312q0 31 -19.5 46t-41.5 15v2q-23 0 -42.5 -16.5t-19.5 -46.5v-314q-98 -18 -170 -78 l-219 193q-25 20 -49.5 16t-39.5 -21.5t-16 -43t23 -45.5l217 -193q-37 -57 -49 -129h-311q-31 0 -46.5 -19t-15.5 -42z" />
<glyph unicode="A" horiz-adv-x="1107" d="M61 0h123q0 279 56.5 526.5t156 442t233.5 322.5t292 167v-1200q-86 78 -213 125t-279 47q-49 0 -95 -5t-89 -15v-125q90 23 184 22q98 0 186.5 -23.5t155 -63.5t106.5 -93t44 -115v-12h122v1597q-135 0 -261 -57t-235.5 -160.5t-198.5 -250t-153.5 -323.5t-99.5 -381 t-35 -425z" />
<glyph unicode="B" horiz-adv-x="1042" d="M61 0h369q115 0 215 43t176 119t119 176t43 215q0 80 -21.5 153.5t-61.5 137t-95 115t-121 85.5h-35q68 41 109 105.5t41 140.5q0 63 -29 119.5t-79 97.5t-117.5 65.5t-143.5 24.5h-369v-1597zM184 123v860h246q88 0 167 -34t137.5 -92t92 -137t33.5 -167 q0 -90 -33.5 -168t-92 -136.5t-137.5 -92t-167 -33.5h-246zM184 1106v369h246q51 0 95 -14.5t78 -39t53.5 -58.5t19.5 -73t-19.5 -72.5t-53.5 -58t-78 -39t-95 -14.5h-246z" />
<glyph unicode="C" horiz-adv-x="1167" d="M61 799q0 -166 58.5 -311.5t158 -254t233.5 -171t288 -62.5q82 0 158.5 18.5t148.5 53.5v141q-68 -43 -144.5 -66.5t-162.5 -23.5q-127 0 -240 53t-195.5 145.5t-131 215t-48.5 262.5q0 139 48.5 262t131 215t195.5 145.5t240 53.5q90 0 184 -33v129q-45 12 -91 19t-93 7 q-154 0 -288 -62t-233.5 -171t-158 -254t-58.5 -311z" />
<glyph unicode="D" horiz-adv-x="980" d="M61 0h121q154 0 288 62.5t233.5 171t158 254t58.5 311.5t-58.5 311t-158 254t-233.5 171t-288 62h-121v-1597zM182 123v1352q127 0 240 -53.5t195.5 -145.5t131 -215t48.5 -262t-48.5 -262t-131 -215.5t-195.5 -145.5t-240 -53z" />
<glyph unicode="E" horiz-adv-x="980" d="M61 0h922v123h-799v860h676v123h-676v369h553v122h-676v-1597z" />
<glyph unicode="F" horiz-adv-x="921" d="M61 0h123v983h676v123h-676v369h553v122h-676v-1597z" />
<glyph unicode="G" d="M61 799q0 -166 58.5 -311.5t158 -254t233.5 -171t288 -62.5t288 62.5t233 171t157.5 254t58.5 311.5v22q16 -8 31.5 -14t31.5 -14v131q-76 33 -187.5 69.5t-237 65t-255.5 44.5q-72 9 -140 8q-54 0 -103 -5v-123q201 0 386 -29.5t347 -85.5q2 -16 3 -34.5t1 -34.5 q0 -139 -48 -262t-131 -215.5t-195.5 -145.5t-239.5 -53t-240 53t-195.5 145.5t-131 215t-48.5 262.5q0 139 48.5 262t131 215t195.5 145.5t240 53.5q86 0 162.5 -25t144.5 -68v142q-72 35 -148.5 54t-158.5 19q-154 0 -288 -62t-233.5 -171t-158 -254t-58.5 -311z" />
<glyph unicode="H" horiz-adv-x="1107" d="M61 983h62v-983h123v983h614v-983h123v983h61v123h-61v491h-123v-491h-614v491h-123v-491h-62v-123z" />
<glyph unicode="I" horiz-adv-x="247" d="M-61 1905q0 -39 14 -82t38.5 -80t58.5 -60.5t73 -23.5t72.5 23.5t58.5 60.5t39 80t14 82q-23 45 -53 59q-22 10 -42 10q-9 0 -16 -2q-28 -6 -49.5 -26.5t-23.5 -40.5q-4 20 -24.5 40.5t-48.5 26.5q-8 2 -17 2q-20 0 -41 -10q-30 -14 -53 -59zM61 0h123v1597h-123v-1597z " />
<glyph unicode="J" horiz-adv-x="247" d="M-430 -307v-123q127 0 239.5 34t195.5 92t131 136t48 168h-123q0 -63 -38.5 -119.5t-105.5 -97.5t-157 -65.5t-190 -24.5zM61 0h123v1597h-123v-1597z" />
<glyph unicode="K" horiz-adv-x="921" d="M61 0h123v1044q113 0 213.5 -81.5t176 -223t119.5 -332t44 -407.5h123q0 178 -29.5 340t-82 300t-126 246.5t-161.5 176.5q92 14 176 33.5t162 48.5v129q-129 -49 -285 -78t-330 -29v430h-123v-1597z" />
<glyph unicode="L" horiz-adv-x="735" d="M61 0h615v123h-492v1474h-123v-1597z" />
<glyph unicode="M" horiz-adv-x="1472" d="M61 0h123v1458q168 -41 310.5 -185.5t242.5 -361.5q100 217 242.5 361.5t310.5 185.5v-1458h123v1597q-197 0 -370 -117.5t-306 -322.5q-133 205 -306 322.5t-370 117.5v-1597z" />
<glyph unicode="N" horiz-adv-x="1107" d="M61 0h123v1458q156 -39 291 -167t234.5 -322.5t156 -442t56.5 -526.5h122v1597h-122v-825q-63 184 -153.5 336t-201 261.5t-239.5 168.5t-267 59v-1597z" />
<glyph unicode="O" d="M61 799q0 -166 58.5 -311.5t158 -254t233.5 -171t288 -62.5t288 62.5t233 171t157.5 254t58.5 311.5t-58.5 311t-157.5 254t-233.5 171t-287.5 62q-154 0 -288 -62t-233.5 -171t-158 -254t-58.5 -311zM184 799q0 139 48.5 262t131 215t195.5 145.5t240 53.5t239.5 -53.5 t195.5 -145.5t131 -215t48 -262t-48 -262t-131 -215.5t-195.5 -145.5t-239.5 -53t-240 53t-195.5 145.5t-131 215.5t-48.5 262z" />
<glyph unicode="P" horiz-adv-x="860" d="M0 547q61 -29 123 -41v-506h123v492q115 0 215 43t176 118.5t119 176t43 214.5q0 115 -43 215.5t-119 176t-176.5 118.5t-214.5 43q-68 0 -129.5 -15t-116.5 -44v-141q57 39 123 59v-825q-35 10 -64.5 24.5t-58.5 32.5v-141zM246 614v861q88 0 167 -34t137 -92.5t92 -137 t34 -167.5q0 -90 -34 -167.5t-92 -136t-137 -92.5t-167 -34z" />
<glyph unicode="Q" d="M61 799q0 -158 52.5 -296t143.5 -245.5t215 -175.5t265 -80v-6q197 -86 429.5 -133t492.5 -47q147 0 285.5 -16.5t267.5 -45.5v123q-129 29 -267.5 45.5t-285.5 16.5q-180 0 -346 23.5t-316 66.5q23 6 44.5 14t43.5 18h-2q100 45 183.5 120t142.5 170t93 209t34 239 q0 166 -58.5 311t-157.5 254t-233.5 171t-287.5 62q-154 0 -288 -62t-233.5 -171t-158 -254t-58.5 -311zM184 799q0 139 48.5 262t131 215t195.5 145.5t240 53.5t239.5 -53.5t195.5 -145.5t131 -215t48 -262t-48 -262t-131 -215.5t-195.5 -145.5t-239.5 -53t-240 53 t-195.5 145.5t-131 215.5t-48.5 262z" />
<glyph unicode="R" horiz-adv-x="1107" d="M61 0h123v1044h185q113 0 213 -81.5t176 -223t120 -332t44 -407.5h122q0 197 -35.5 374t-98 322.5t-149.5 253t-190 162.5q47 39 76 92t29 117q0 57 -24.5 107.5t-65.5 88t-97.5 59t-119.5 21.5h-308v-1597zM184 1167v308h185q78 0 131 -45.5t53 -108.5t-53.5 -108.5 t-130.5 -45.5h-185z" />
<glyph unicode="S" horiz-adv-x="1024" d="M61 1167q0 -104 32 -172.5t84 -114.5t117.5 -75t135.5 -52l135 -46q66 -23 118 -58t84 -87t32 -132q0 -63 -24.5 -118.5t-66.5 -97.5t-98.5 -66.5t-117.5 -24.5q-131 0 -241 31.5t-175 83.5v-140q84 -47 189.5 -72.5t226.5 -25.5q88 0 166.5 34t137 92t92.5 136t34 168 q0 137 -54.5 216t-136.5 125t-178 73.5t-178 63.5t-136.5 94.5t-54.5 164.5q0 61 24.5 117.5t66.5 97.5t97.5 67t119.5 26q131 0 240.5 -32t174.5 -83v139q-84 47 -189.5 72.5t-225.5 25.5v-4q-90 0 -168 -32.5t-136.5 -91t-92.5 -136.5t-34 -166z" />
<glyph unicode="T" horiz-adv-x="864" d="M61 1499q147 -23 308 -24v-1475h123v1473q78 -2 154.5 -9.5t152.5 -19.5v127q-90 12 -181.5 19t-187.5 7q-98 0 -189 7.5t-180 19.5v-125z" />
<glyph unicode="U" d="M61 799q0 -166 58.5 -311.5t158 -254t233.5 -171t288 -62.5t288 62.5t233 171t157.5 254t58.5 311.5q0 39 -4 105.5t-11.5 144t-18.5 161.5t-24.5 160t-29.5 136.5t-35 90.5h-123q20 -31 39 -90t32 -134t23.5 -159t16.5 -162.5t9 -145t3 -107.5q0 -139 -48 -262 t-131 -215.5t-195.5 -145.5t-239.5 -53t-240 53t-195.5 145.5t-131 215t-48.5 262.5q0 41 3 107.5t9.5 145t16.5 162.5t23.5 159t31 134.5t39.5 89.5h-123q-18 -31 -34.5 -91t-30 -136t-24.5 -160t-18 -161.5t-11.5 -144t-4.5 -105.5z" />
<glyph unicode="V" horiz-adv-x="1228" d="M61 1597l492 -1597h123l491 1597h-129l-424 -1372l-424 1372h-129z" />
<glyph unicode="W" horiz-adv-x="1718" d="M61 1597q0 -221 15.5 -424.5t43 -381t67.5 -323.5t87.5 -249.5t102.5 -161t115 -57.5q57 0 111 56.5t102.5 157.5t87 244.5t67.5 317.5q29 -174 68 -317.5t87 -244.5t101 -157.5t113 -56.5q88 0 167 126t137 342t92 507t34 622h-123q0 -305 -24.5 -573t-65.5 -469 t-97.5 -316.5t-119.5 -115.5t-119.5 115.5t-97.5 316.5t-65.5 469t-24.5 573h-123q0 -305 -24.5 -573t-65.5 -469t-97.5 -316.5t-119.5 -115.5t-120 115.5t-98 316.5t-65.5 469t-24.5 573h-123z" />
<glyph unicode="X" horiz-adv-x="1720" d="M61 0q123 0 239 47t218.5 134t188.5 210t153 275q68 -152 154 -275t188.5 -210t218 -134t238.5 -47v123q-115 0 -220.5 48t-197.5 137t-170 214t-135 277q92 242 230.5 408.5t308.5 232.5v129q-190 -59 -348 -226t-267 -411q-111 244 -267.5 410.5t-346.5 226.5v-129 q170 -66 308 -233t230 -408q-57 -152 -135 -277t-170 -214t-198.5 -137t-219.5 -48v-123z" />
<glyph unicode="Y" horiz-adv-x="1107" d="M61 1597q0 -154 33 -322.5t91.5 -317t137 -256t169.5 -138.5v-563h122v563q90 31 169 138.5t137.5 256t91 317.5t32.5 322h-122q0 -94 -13.5 -198.5t-37 -206.5t-57.5 -195.5t-75 -165t-88 -113.5t-98 -42t-98 42t-88 113.5t-75 165t-57.5 195.5t-37 206.5t-13.5 198.5 h-123z" />
<glyph unicode="Z" horiz-adv-x="1245" d="M61 0h1045v123h-823l905 1474h-1065v-122h842z" />
<glyph unicode="a" horiz-adv-x="1107" d="M61 0h123q0 279 56.5 526.5t156 442t233.5 322.5t292 167v-1200q-86 78 -213 125t-279 47q-49 0 -95 -5t-89 -15v-125q90 23 184 22q98 0 186.5 -23.5t155 -63.5t106.5 -93t44 -115v-12h122v1597q-135 0 -261 -57t-235.5 -160.5t-198.5 -250t-153.5 -323.5t-99.5 -381 t-35 -425z" />
<glyph unicode="b" horiz-adv-x="1042" d="M61 0h369q115 0 215 43t176 119t119 176t43 215q0 80 -21.5 153.5t-61.5 137t-95 115t-121 85.5h-35q68 41 109 105.5t41 140.5q0 63 -29 119.5t-79 97.5t-117.5 65.5t-143.5 24.5h-369v-1597zM184 123v860h246q88 0 167 -34t137.5 -92t92 -137t33.5 -167 q0 -90 -33.5 -168t-92 -136.5t-137.5 -92t-167 -33.5h-246zM184 1106v369h246q51 0 95 -14.5t78 -39t53.5 -58.5t19.5 -73t-19.5 -72.5t-53.5 -58t-78 -39t-95 -14.5h-246z" />
<glyph unicode="c" horiz-adv-x="1167" d="M61 799q0 -166 58.5 -311.5t158 -254t233.5 -171t288 -62.5q82 0 158.5 18.5t148.5 53.5v141q-68 -43 -144.5 -66.5t-162.5 -23.5q-127 0 -240 53t-195.5 145.5t-131 215t-48.5 262.5q0 139 48.5 262t131 215t195.5 145.5t240 53.5q90 0 184 -33v129q-45 12 -91 19t-93 7 q-154 0 -288 -62t-233.5 -171t-158 -254t-58.5 -311z" />
<glyph unicode="d" horiz-adv-x="980" d="M61 0h121q154 0 288 62.5t233.5 171t158 254t58.5 311.5t-58.5 311t-158 254t-233.5 171t-288 62h-121v-1597zM182 123v1352q127 0 240 -53.5t195.5 -145.5t131 -215t48.5 -262t-48.5 -262t-131 -215.5t-195.5 -145.5t-240 -53z" />
<glyph unicode="e" horiz-adv-x="980" d="M61 0h922v123h-799v860h676v123h-676v369h553v122h-676v-1597z" />
<glyph unicode="f" horiz-adv-x="921" d="M61 0h123v983h676v123h-676v369h553v122h-676v-1597z" />
<glyph unicode="g" d="M61 799q0 -166 58.5 -311.5t158 -254t233.5 -171t288 -62.5t288 62.5t233 171t157.5 254t58.5 311.5v22q16 -8 31.5 -14t31.5 -14v131q-76 33 -187.5 69.5t-237 65t-255.5 44.5q-72 9 -140 8q-54 0 -103 -5v-123q201 0 386 -29.5t347 -85.5q2 -16 3 -34.5t1 -34.5 q0 -139 -48 -262t-131 -215.5t-195.5 -145.5t-239.5 -53t-240 53t-195.5 145.5t-131 215t-48.5 262.5q0 139 48.5 262t131 215t195.5 145.5t240 53.5q86 0 162.5 -25t144.5 -68v142q-72 35 -148.5 54t-158.5 19q-154 0 -288 -62t-233.5 -171t-158 -254t-58.5 -311z" />
<glyph unicode="h" horiz-adv-x="1107" d="M61 983h62v-983h123v983h614v-983h123v983h61v123h-61v491h-123v-491h-614v491h-123v-491h-62v-123z" />
<glyph unicode="i" horiz-adv-x="247" d="M-61 1905q0 -39 14 -82t38.5 -80t58.5 -60.5t73 -23.5t72.5 23.5t58.5 60.5t39 80t14 82q-23 45 -53 59q-22 10 -42 10q-9 0 -16 -2q-28 -6 -49.5 -26.5t-23.5 -40.5q-4 20 -24.5 40.5t-48.5 26.5q-8 2 -17 2q-20 0 -41 -10q-30 -14 -53 -59zM61 0h123v1597h-123v-1597z " />
<glyph unicode="j" horiz-adv-x="247" d="M-430 -307v-123q127 0 239.5 34t195.5 92t131 136t48 168h-123q0 -63 -38.5 -119.5t-105.5 -97.5t-157 -65.5t-190 -24.5zM61 0h123v1597h-123v-1597z" />
<glyph unicode="k" horiz-adv-x="921" d="M61 0h123v1044q113 0 213.5 -81.5t176 -223t119.5 -332t44 -407.5h123q0 178 -29.5 340t-82 300t-126 246.5t-161.5 176.5q92 14 176 33.5t162 48.5v129q-129 -49 -285 -78t-330 -29v430h-123v-1597z" />
<glyph unicode="l" horiz-adv-x="735" d="M61 0h615v123h-492v1474h-123v-1597z" />
<glyph unicode="m" horiz-adv-x="1472" d="M61 0h123v1458q168 -41 310.5 -185.5t242.5 -361.5q100 217 242.5 361.5t310.5 185.5v-1458h123v1597q-197 0 -370 -117.5t-306 -322.5q-133 205 -306 322.5t-370 117.5v-1597z" />
<glyph unicode="n" horiz-adv-x="1107" d="M61 0h123v1458q156 -39 291 -167t234.5 -322.5t156 -442t56.5 -526.5h122v1597h-122v-825q-63 184 -153.5 336t-201 261.5t-239.5 168.5t-267 59v-1597z" />
<glyph unicode="o" d="M61 799q0 -166 58.5 -311.5t158 -254t233.5 -171t288 -62.5t288 62.5t233 171t157.5 254t58.5 311.5t-58.5 311t-157.5 254t-233.5 171t-287.5 62q-154 0 -288 -62t-233.5 -171t-158 -254t-58.5 -311zM184 799q0 139 48.5 262t131 215t195.5 145.5t240 53.5t239.5 -53.5 t195.5 -145.5t131 -215t48 -262t-48 -262t-131 -215.5t-195.5 -145.5t-239.5 -53t-240 53t-195.5 145.5t-131 215.5t-48.5 262z" />
<glyph unicode="p" horiz-adv-x="860" d="M0 547q61 -29 123 -41v-506h123v492q115 0 215 43t176 118.5t119 176t43 214.5q0 115 -43 215.5t-119 176t-176.5 118.5t-214.5 43q-68 0 -129.5 -15t-116.5 -44v-141q57 39 123 59v-825q-35 10 -64.5 24.5t-58.5 32.5v-141zM246 614v861q88 0 167 -34t137 -92.5t92 -137 t34 -167.5q0 -90 -34 -167.5t-92 -136t-137 -92.5t-167 -34z" />
<glyph unicode="q" d="M61 799q0 -158 52.5 -296t143.5 -245.5t215 -175.5t265 -80v-6q197 -86 429.5 -133t492.5 -47q147 0 285.5 -16.5t267.5 -45.5v123q-129 29 -267.5 45.5t-285.5 16.5q-180 0 -346 23.5t-316 66.5q23 6 44.5 14t43.5 18h-2q100 45 183.5 120t142.5 170t93 209t34 239 q0 166 -58.5 311t-157.5 254t-233.5 171t-287.5 62q-154 0 -288 -62t-233.5 -171t-158 -254t-58.5 -311zM184 799q0 139 48.5 262t131 215t195.5 145.5t240 53.5t239.5 -53.5t195.5 -145.5t131 -215t48 -262t-48 -262t-131 -215.5t-195.5 -145.5t-239.5 -53t-240 53 t-195.5 145.5t-131 215.5t-48.5 262z" />
<glyph unicode="r" horiz-adv-x="1107" d="M61 0h123v1044h185q113 0 213 -81.5t176 -223t120 -332t44 -407.5h122q0 197 -35.5 374t-98 322.5t-149.5 253t-190 162.5q47 39 76 92t29 117q0 57 -24.5 107.5t-65.5 88t-97.5 59t-119.5 21.5h-308v-1597zM184 1167v308h185q78 0 131 -45.5t53 -108.5t-53.5 -108.5 t-130.5 -45.5h-185z" />
<glyph unicode="s" horiz-adv-x="1024" d="M61 1167q0 -104 32 -172.5t84 -114.5t117.5 -75t135.5 -52l135 -46q66 -23 118 -58t84 -87t32 -132q0 -63 -24.5 -118.5t-66.5 -97.5t-98.5 -66.5t-117.5 -24.5q-131 0 -241 31.5t-175 83.5v-140q84 -47 189.5 -72.5t226.5 -25.5q88 0 166.5 34t137 92t92.5 136t34 168 q0 137 -54.5 216t-136.5 125t-178 73.5t-178 63.5t-136.5 94.5t-54.5 164.5q0 61 24.5 117.5t66.5 97.5t97.5 67t119.5 26q131 0 240.5 -32t174.5 -83v139q-84 47 -189.5 72.5t-225.5 25.5v-4q-90 0 -168 -32.5t-136.5 -91t-92.5 -136.5t-34 -166z" />
<glyph unicode="t" horiz-adv-x="864" d="M61 1499q147 -23 308 -24v-1475h123v1473q78 -2 154.5 -9.5t152.5 -19.5v127q-90 12 -181.5 19t-187.5 7q-98 0 -189 7.5t-180 19.5v-125z" />
<glyph unicode="u" d="M61 799q0 -166 58.5 -311.5t158 -254t233.5 -171t288 -62.5t288 62.5t233 171t157.5 254t58.5 311.5q0 39 -4 105.5t-11.5 144t-18.5 161.5t-24.5 160t-29.5 136.5t-35 90.5h-123q20 -31 39 -90t32 -134t23.5 -159t16.5 -162.5t9 -145t3 -107.5q0 -139 -48 -262 t-131 -215.5t-195.5 -145.5t-239.5 -53t-240 53t-195.5 145.5t-131 215t-48.5 262.5q0 41 3 107.5t9.5 145t16.5 162.5t23.5 159t31 134.5t39.5 89.5h-123q-18 -31 -34.5 -91t-30 -136t-24.5 -160t-18 -161.5t-11.5 -144t-4.5 -105.5z" />
<glyph unicode="v" horiz-adv-x="1228" d="M61 1597l492 -1597h123l491 1597h-129l-424 -1372l-424 1372h-129z" />
<glyph unicode="w" horiz-adv-x="1718" d="M61 1597q0 -221 15.5 -424.5t43 -381t67.5 -323.5t87.5 -249.5t102.5 -161t115 -57.5q57 0 111 56.5t102.5 157.5t87 244.5t67.5 317.5q29 -174 68 -317.5t87 -244.5t101 -157.5t113 -56.5q88 0 167 126t137 342t92 507t34 622h-123q0 -305 -24.5 -573t-65.5 -469 t-97.5 -316.5t-119.5 -115.5t-119.5 115.5t-97.5 316.5t-65.5 469t-24.5 573h-123q0 -305 -24.5 -573t-65.5 -469t-97.5 -316.5t-119.5 -115.5t-120 115.5t-98 316.5t-65.5 469t-24.5 573h-123z" />
<glyph unicode="x" horiz-adv-x="1720" d="M61 0q123 0 239 47t218.5 134t188.5 210t153 275q68 -152 154 -275t188.5 -210t218 -134t238.5 -47v123q-115 0 -220.5 48t-197.5 137t-170 214t-135 277q92 242 230.5 408.5t308.5 232.5v129q-190 -59 -348 -226t-267 -411q-111 244 -267.5 410.5t-346.5 226.5v-129 q170 -66 308 -233t230 -408q-57 -152 -135 -277t-170 -214t-198.5 -137t-219.5 -48v-123z" />
<glyph unicode="y" horiz-adv-x="1107" d="M61 1597q0 -154 33 -322.5t91.5 -317t137 -256t169.5 -138.5v-563h122v563q90 31 169 138.5t137.5 256t91 317.5t32.5 322h-122q0 -94 -13.5 -198.5t-37 -206.5t-57.5 -195.5t-75 -165t-88 -113.5t-98 -42t-98 42t-88 113.5t-75 165t-57.5 195.5t-37 206.5t-13.5 198.5 h-123z" />
<glyph unicode="z" horiz-adv-x="1245" d="M61 0h1045v123h-823l905 1474h-1065v-122h842z" />
<glyph unicode="&#xaa;" horiz-adv-x="1107" d="M61 0h123q0 279 56.5 526.5t156 442t233.5 322.5t292 167v-1200q-86 78 -213 125t-279 47q-49 0 -95 -5t-89 -15v-125q90 23 184 22q98 0 186.5 -23.5t155 -63.5t106.5 -93t44 -115v-12h122v1597q-135 0 -261 -57t-235.5 -160.5t-198.5 -250t-153.5 -323.5t-99.5 -381 t-35 -425z" />
<glyph unicode="&#xad;" d="M61 799q0 -23 16.5 -42.5t47.5 -19.5h313q18 -98 78 -170l-192 -219q-20 -25 -16.5 -49.5t21 -39.5t43 -16t46.5 23l192 217q57 -37 129 -49v-311q0 -31 19.5 -46.5t42.5 -15.5v-2q23 0 42 16.5t19 47.5v313q98 18 170 78l219 -192q25 -20 49.5 -16.5t40 21t16.5 43 t-24 46.5l-217 192q37 57 49 129h312q31 0 46 19.5t15 42.5t-16.5 42t-46.5 19h-314q-18 98 -78 170l193 219q20 25 16 49.5t-21.5 40t-43 16.5t-45.5 -24l-193 -217q-57 37 -129 49v312q0 31 -19.5 46t-41.5 15v2q-23 0 -42.5 -16.5t-19.5 -46.5v-314q-98 -18 -170 -78 l-219 193q-25 20 -49.5 16t-39.5 -21.5t-16 -43t23 -45.5l217 -193q-37 -57 -49 -129h-311q-31 0 -46.5 -19t-15.5 -42z" />
<glyph unicode="&#xb2;" d="M61 799q0 -23 16.5 -42.5t47.5 -19.5h313q18 -98 78 -170l-192 -219q-20 -25 -16.5 -49.5t21 -39.5t43 -16t46.5 23l192 217q57 -37 129 -49v-311q0 -31 19.5 -46.5t42.5 -15.5v-2q23 0 42 16.5t19 47.5v313q98 18 170 78l219 -192q25 -20 49.5 -16.5t40 21t16.5 43 t-24 46.5l-217 192q37 57 49 129h312q31 0 46 19.5t15 42.5t-16.5 42t-46.5 19h-314q-18 98 -78 170l193 219q20 25 16 49.5t-21.5 40t-43 16.5t-45.5 -24l-193 -217q-57 37 -129 49v312q0 31 -19.5 46t-41.5 15v2q-23 0 -42.5 -16.5t-19.5 -46.5v-314q-98 -18 -170 -78 l-219 193q-25 20 -49.5 16t-39.5 -21.5t-16 -43t23 -45.5l217 -193q-37 -57 -49 -129h-311q-31 0 -46.5 -19t-15.5 -42z" />
<glyph unicode="&#xb3;" d="M61 799q0 -23 16.5 -42.5t47.5 -19.5h313q18 -98 78 -170l-192 -219q-20 -25 -16.5 -49.5t21 -39.5t43 -16t46.5 23l192 217q57 -37 129 -49v-311q0 -31 19.5 -46.5t42.5 -15.5v-2q23 0 42 16.5t19 47.5v313q98 18 170 78l219 -192q25 -20 49.5 -16.5t40 21t16.5 43 t-24 46.5l-217 192q37 57 49 129h312q31 0 46 19.5t15 42.5t-16.5 42t-46.5 19h-314q-18 98 -78 170l193 219q20 25 16 49.5t-21.5 40t-43 16.5t-45.5 -24l-193 -217q-57 37 -129 49v312q0 31 -19.5 46t-41.5 15v2q-23 0 -42.5 -16.5t-19.5 -46.5v-314q-98 -18 -170 -78 l-219 193q-25 20 -49.5 16t-39.5 -21.5t-16 -43t23 -45.5l217 -193q-37 -57 -49 -129h-311q-31 0 -46.5 -19t-15.5 -42z" />
<glyph unicode="&#xb9;" d="M61 799q0 -23 16.5 -42.5t47.5 -19.5h313q18 -98 78 -170l-192 -219q-20 -25 -16.5 -49.5t21 -39.5t43 -16t46.5 23l192 217q57 -37 129 -49v-311q0 -31 19.5 -46.5t42.5 -15.5v-2q23 0 42 16.5t19 47.5v313q98 18 170 78l219 -192q25 -20 49.5 -16.5t40 21t16.5 43 t-24 46.5l-217 192q37 57 49 129h312q31 0 46 19.5t15 42.5t-16.5 42t-46.5 19h-314q-18 98 -78 170l193 219q20 25 16 49.5t-21.5 40t-43 16.5t-45.5 -24l-193 -217q-57 37 -129 49v312q0 31 -19.5 46t-41.5 15v2q-23 0 -42.5 -16.5t-19.5 -46.5v-314q-98 -18 -170 -78 l-219 193q-25 20 -49.5 16t-39.5 -21.5t-16 -43t23 -45.5l217 -193q-37 -57 -49 -129h-311q-31 0 -46.5 -19t-15.5 -42z" />
<glyph unicode="&#xba;" d="M61 799q0 -166 58.5 -311.5t158 -254t233.5 -171t288 -62.5t288 62.5t233 171t157.5 254t58.5 311.5t-58.5 311t-157.5 254t-233.5 171t-287.5 62q-154 0 -288 -62t-233.5 -171t-158 -254t-58.5 -311zM184 799q0 139 48.5 262t131 215t195.5 145.5t240 53.5t239.5 -53.5 t195.5 -145.5t131 -215t48 -262t-48 -262t-131 -215.5t-195.5 -145.5t-239.5 -53t-240 53t-195.5 145.5t-131 215.5t-48.5 262z" />
<glyph unicode="&#xc5;" horiz-adv-x="1107" d="M61 0h123q0 279 56.5 526.5t156 442t233.5 322.5t292 167v-1200q-86 78 -213 125t-279 47q-49 0 -95 -5t-89 -15v-125q90 23 184 22q98 0 186.5 -23.5t155 -63.5t106.5 -93t44 -115v-12h122v1597q-16 0 -32.5 -1t-32.5 -3q31 41 48 88.5t17 100.5q0 63 -24.5 119.5 t-65.5 97.5t-97 65.5t-120 24.5q-63 0 -119.5 -24.5t-97.5 -65.5t-65.5 -97.5t-24.5 -119.5q0 -55 18.5 -105.5t51 -90.5t77 -67.5t97.5 -37.5q-135 -90 -247 -237.5t-193.5 -340t-127 -422t-45.5 -481.5zM553 1782q0 78 53 131t131 53t131.5 -53t53.5 -131t-53.5 -131.5 t-131.5 -53.5t-131 53.5t-53 131.5z" />
<glyph unicode="&#xc6;" horiz-adv-x="1906" d="M61 0h123q0 279 56.5 526.5t156 442t233.5 322.5t292 167v-1200q-86 78 -213 125t-279 47q-49 0 -95 -5t-89 -15v-125q90 23 184 22q98 0 186.5 -23.5t155 -63.5t106.5 -93t44 -115v-12h921v123h-799v860h676v123h-676v369h553v122h-553q-135 0 -261 -57t-235.5 -160.5 t-198.5 -250t-153.5 -323.5t-99.5 -381t-35 -425z" />
<glyph unicode="&#xd8;" d="M61 799q0 -141 42 -266t116 -228l-78 -78l86 -86l70 70q98 -98 226 -154.5t276 -56.5q154 0 288 62.5t233 171t157.5 254t58.5 311.5q0 141 -42 265t-116 228l78 78l-86 86l-72 -72q-98 98 -226 155.5t-273 57.5q-154 0 -288 -62t-233.5 -171t-158 -254t-58.5 -311z M184 799q0 139 48.5 262t131 215t195.5 145.5t240 53.5q121 0 225 -47.5t188 -129.5l-905 -905q-59 86 -91 188.5t-32 217.5zM385 299l905 905q57 -86 90 -188.5t33 -216.5q0 -139 -48 -262t-131 -215.5t-195.5 -145.5t-239.5 -53q-121 0 -226.5 46t-187.5 130z" />
<glyph unicode="&#xe5;" horiz-adv-x="1107" d="M61 0h123q0 279 56.5 526.5t156 442t233.5 322.5t292 167v-1200q-86 78 -213 125t-279 47q-49 0 -95 -5t-89 -15v-125q90 23 184 22q98 0 186.5 -23.5t155 -63.5t106.5 -93t44 -115v-12h122v1597q-16 0 -32.5 -1t-32.5 -3q31 41 48 88.5t17 100.5q0 63 -24.5 119.5 t-65.5 97.5t-97 65.5t-120 24.5q-63 0 -119.5 -24.5t-97.5 -65.5t-65.5 -97.5t-24.5 -119.5q0 -55 18.5 -105.5t51 -90.5t77 -67.5t97.5 -37.5q-135 -90 -247 -237.5t-193.5 -340t-127 -422t-45.5 -481.5zM553 1782q0 78 53 131t131 53t131.5 -53t53.5 -131t-53.5 -131.5 t-131.5 -53.5t-131 53.5t-53 131.5z" />
<glyph unicode="&#xe6;" horiz-adv-x="1906" d="M61 0h123q0 279 56.5 526.5t156 442t233.5 322.5t292 167v-1200q-86 78 -213 125t-279 47q-49 0 -95 -5t-89 -15v-125q90 23 184 22q98 0 186.5 -23.5t155 -63.5t106.5 -93t44 -115v-12h921v123h-799v860h676v123h-676v369h553v122h-553q-135 0 -261 -57t-235.5 -160.5 t-198.5 -250t-153.5 -323.5t-99.5 -381t-35 -425z" />
<glyph unicode="&#xf8;" d="M61 799q0 -141 42 -266t116 -228l-78 -78l86 -86l70 70q98 -98 226 -154.5t276 -56.5q154 0 288 62.5t233 171t157.5 254t58.5 311.5q0 141 -42 265t-116 228l78 78l-86 86l-72 -72q-98 98 -226 155.5t-273 57.5q-154 0 -288 -62t-233.5 -171t-158 -254t-58.5 -311z M184 799q0 139 48.5 262t131 215t195.5 145.5t240 53.5q121 0 225 -47.5t188 -129.5l-905 -905q-59 86 -91 188.5t-32 217.5zM385 299l905 905q57 -86 90 -188.5t33 -216.5q0 -139 -48 -262t-131 -215.5t-195.5 -145.5t-239.5 -53q-121 0 -226.5 46t-187.5 130z" />
<glyph unicode="&#x152;" horiz-adv-x="2580" d="M1660 0h922v123h-799v860h676v123h-676v369h553v122h-676v-1597zM61 799q0 -166 58.5 -311.5t158 -254t233.5 -171t288 -62.5t288 62.5t233 171t157.5 254t58.5 311.5t-58.5 311t-157.5 254t-233.5 171t-287.5 62q-154 0 -288 -62t-233.5 -171t-158 -254t-58.5 -311z M184 799q0 139 48.5 262t131 215t195.5 145.5t240 53.5t239.5 -53.5t195.5 -145.5t131 -215t48 -262t-48 -262t-131 -215.5t-195.5 -145.5t-239.5 -53t-240 53t-195.5 145.5t-131 215.5t-48.5 262z" />
<glyph unicode="&#x153;" horiz-adv-x="2580" d="M1660 0h922v123h-799v860h676v123h-676v369h553v122h-676v-1597zM61 799q0 -166 58.5 -311.5t158 -254t233.5 -171t288 -62.5t288 62.5t233 171t157.5 254t58.5 311.5t-58.5 311t-157.5 254t-233.5 171t-287.5 62q-154 0 -288 -62t-233.5 -171t-158 -254t-58.5 -311z M184 799q0 139 48.5 262t131 215t195.5 145.5t240 53.5t239.5 -53.5t195.5 -145.5t131 -215t48 -262t-48 -262t-131 -215.5t-195.5 -145.5t-239.5 -53t-240 53t-195.5 145.5t-131 215.5t-48.5 262z" />
<glyph unicode="&#x2013;" horiz-adv-x="1024" d="M205 512v205h614v-205h-614z" />
<glyph unicode="&#x2014;" horiz-adv-x="2048" d="M205 512v205h1638v-205h-1638z" />
<glyph unicode="&#x2019;" d="M61 799q0 -23 16.5 -42.5t47.5 -19.5h313q18 -98 78 -170l-192 -219q-20 -25 -16.5 -49.5t21 -39.5t43 -16t46.5 23l192 217q57 -37 129 -49v-311q0 -31 19.5 -46.5t42.5 -15.5v-2q23 0 42 16.5t19 47.5v313q98 18 170 78l219 -192q25 -20 49.5 -16.5t40 21t16.5 43 t-24 46.5l-217 192q37 57 49 129h312q31 0 46 19.5t15 42.5t-16.5 42t-46.5 19h-314q-18 98 -78 170l193 219q20 25 16 49.5t-21.5 40t-43 16.5t-45.5 -24l-193 -217q-57 37 -129 49v312q0 31 -19.5 46t-41.5 15v2q-23 0 -42.5 -16.5t-19.5 -46.5v-314q-98 -18 -170 -78 l-219 193q-25 20 -49.5 16t-39.5 -21.5t-16 -43t23 -45.5l217 -193q-37 -57 -49 -129h-311q-31 0 -46.5 -19t-15.5 -42z" />
<glyph unicode="&#x201c;" d="M61 799q0 -23 16.5 -42.5t47.5 -19.5h313q18 -98 78 -170l-192 -219q-20 -25 -16.5 -49.5t21 -39.5t43 -16t46.5 23l192 217q57 -37 129 -49v-311q0 -31 19.5 -46.5t42.5 -15.5v-2q23 0 42 16.5t19 47.5v313q98 18 170 78l219 -192q25 -20 49.5 -16.5t40 21t16.5 43 t-24 46.5l-217 192q37 57 49 129h312q31 0 46 19.5t15 42.5t-16.5 42t-46.5 19h-314q-18 98 -78 170l193 219q20 25 16 49.5t-21.5 40t-43 16.5t-45.5 -24l-193 -217q-57 37 -129 49v312q0 31 -19.5 46t-41.5 15v2q-23 0 -42.5 -16.5t-19.5 -46.5v-314q-98 -18 -170 -78 l-219 193q-25 20 -49.5 16t-39.5 -21.5t-16 -43t23 -45.5l217 -193q-37 -57 -49 -129h-311q-31 0 -46.5 -19t-15.5 -42z" />
<glyph unicode="&#x201d;" d="M61 799q0 -23 16.5 -42.5t47.5 -19.5h313q18 -98 78 -170l-192 -219q-20 -25 -16.5 -49.5t21 -39.5t43 -16t46.5 23l192 217q57 -37 129 -49v-311q0 -31 19.5 -46.5t42.5 -15.5v-2q23 0 42 16.5t19 47.5v313q98 18 170 78l219 -192q25 -20 49.5 -16.5t40 21t16.5 43 t-24 46.5l-217 192q37 57 49 129h312q31 0 46 19.5t15 42.5t-16.5 42t-46.5 19h-314q-18 98 -78 170l193 219q20 25 16 49.5t-21.5 40t-43 16.5t-45.5 -24l-193 -217q-57 37 -129 49v312q0 31 -19.5 46t-41.5 15v2q-23 0 -42.5 -16.5t-19.5 -46.5v-314q-98 -18 -170 -78 l-219 193q-25 20 -49.5 16t-39.5 -21.5t-16 -43t23 -45.5l217 -193q-37 -57 -49 -129h-311q-31 0 -46.5 -19t-15.5 -42z" />
<glyph unicode="&#x2026;" horiz-adv-x="4798" d="M3260 799q0 -23 16.5 -42.5t47.5 -19.5h313q18 -98 78 -170l-192 -219q-20 -25 -16.5 -49.5t21 -39.5t43 -16t46.5 23l192 217q57 -37 129 -49v-311q0 -31 19.5 -46.5t42.5 -15.5v-2q23 0 42 16.5t19 47.5v313q98 18 170 78l219 -192q25 -20 49.5 -16.5t40 21t16.5 43 t-24 46.5l-217 192q37 57 49 129h312q31 0 46 19.5t15 42.5t-16.5 42t-46.5 19h-314q-18 98 -78 170l193 219q20 25 16 49.5t-21.5 40t-43 16.5t-45.5 -24l-193 -217q-57 37 -129 49v312q0 31 -19.5 46t-41.5 15v2q-23 0 -42.5 -16.5t-19.5 -46.5v-314q-98 -18 -170 -78 l-219 193q-25 20 -49.5 16t-39.5 -21.5t-16 -43t23 -45.5l217 -193q-37 -57 -49 -129h-311q-31 0 -46.5 -19t-15.5 -42zM1660 799q0 -23 16.5 -42.5t47.5 -19.5h313q18 -98 78 -170l-192 -219q-20 -25 -16.5 -49.5t21 -39.5t43 -16t46.5 23l192 217q57 -37 129 -49v-311 q0 -31 19.5 -46.5t42.5 -15.5v-2q23 0 42 16.5t19 47.5v313q98 18 170 78l219 -192q25 -20 49.5 -16.5t40 21t16.5 43t-24 46.5l-217 192q37 57 49 129h312q31 0 46 19.5t15 42.5t-16.5 42t-46.5 19h-314q-18 98 -78 170l193 219q20 25 16 49.5t-21.5 40t-43 16.5t-45.5 -24 l-193 -217q-57 37 -129 49v312q0 31 -19.5 46t-41.5 15v2q-23 0 -42.5 -16.5t-19.5 -46.5v-314q-98 -18 -170 -78l-219 193q-25 20 -49.5 16t-39.5 -21.5t-16 -43t23 -45.5l217 -193q-37 -57 -49 -129h-311q-31 0 -46.5 -19t-15.5 -42zM61 799q0 -23 16.5 -42.5t47.5 -19.5 h313q18 -98 78 -170l-192 -219q-20 -25 -16.5 -49.5t21 -39.5t43 -16t46.5 23l192 217q57 -37 129 -49v-311q0 -31 19.5 -46.5t42.5 -15.5v-2q23 0 42 16.5t19 47.5v313q98 18 170 78l219 -192q25 -20 49.5 -16.5t40 21t16.5 43t-24 46.5l-217 192q37 57 49 129h312 q31 0 46 19.5t15 42.5t-16.5 42t-46.5 19h-314q-18 98 -78 170l193 219q20 25 16 49.5t-21.5 40t-43 16.5t-45.5 -24l-193 -217q-57 37 -129 49v312q0 31 -19.5 46t-41.5 15v2q-23 0 -42.5 -16.5t-19.5 -46.5v-314q-98 -18 -170 -78l-219 193q-25 20 -49.5 16t-39.5 -21.5 t-16 -43t23 -45.5l217 -193q-37 -57 -49 -129h-311q-31 0 -46.5 -19t-15.5 -42z" />
<glyph unicode="&#x2039;" d="M61 799q0 -23 16.5 -42.5t47.5 -19.5h313q18 -98 78 -170l-192 -219q-20 -25 -16.5 -49.5t21 -39.5t43 -16t46.5 23l192 217q57 -37 129 -49v-311q0 -31 19.5 -46.5t42.5 -15.5v-2q23 0 42 16.5t19 47.5v313q98 18 170 78l219 -192q25 -20 49.5 -16.5t40 21t16.5 43 t-24 46.5l-217 192q37 57 49 129h312q31 0 46 19.5t15 42.5t-16.5 42t-46.5 19h-314q-18 98 -78 170l193 219q20 25 16 49.5t-21.5 40t-43 16.5t-45.5 -24l-193 -217q-57 37 -129 49v312q0 31 -19.5 46t-41.5 15v2q-23 0 -42.5 -16.5t-19.5 -46.5v-314q-98 -18 -170 -78 l-219 193q-25 20 -49.5 16t-39.5 -21.5t-16 -43t23 -45.5l217 -193q-37 -57 -49 -129h-311q-31 0 -46.5 -19t-15.5 -42z" />
<glyph unicode="&#x203a;" d="M61 799q0 -23 16.5 -42.5t47.5 -19.5h313q18 -98 78 -170l-192 -219q-20 -25 -16.5 -49.5t21 -39.5t43 -16t46.5 23l192 217q57 -37 129 -49v-311q0 -31 19.5 -46.5t42.5 -15.5v-2q23 0 42 16.5t19 47.5v313q98 18 170 78l219 -192q25 -20 49.5 -16.5t40 21t16.5 43 t-24 46.5l-217 192q37 57 49 129h312q31 0 46 19.5t15 42.5t-16.5 42t-46.5 19h-314q-18 98 -78 170l193 219q20 25 16 49.5t-21.5 40t-43 16.5t-45.5 -24l-193 -217q-57 37 -129 49v312q0 31 -19.5 46t-41.5 15v2q-23 0 -42.5 -16.5t-19.5 -46.5v-314q-98 -18 -170 -78 l-219 193q-25 20 -49.5 16t-39.5 -21.5t-16 -43t23 -45.5l217 -193q-37 -57 -49 -129h-311q-31 0 -46.5 -19t-15.5 -42z" />
<glyph unicode="&#x2122;" horiz-adv-x="2336" d="M925 0h123v1458q168 -41 310.5 -185.5t242.5 -361.5q100 217 242.5 361.5t310.5 185.5v-1458h123v1597q-197 0 -370 -117.5t-306 -322.5q-133 205 -306 322.5t-370 117.5v-1597zM61 1499q147 -23 308 -24v-1475h123v1473q78 -2 154.5 -9.5t152.5 -19.5v127 q-90 12 -181.5 19t-187.5 7q-98 0 -189 7.5t-180 19.5v-125z" />
<glyph unicode="&#xe000;" horiz-adv-x="1570" d="M0 1570h1570v-1570h-1570v1570z" />
<glyph unicode="&#xfb01;" horiz-adv-x="1169" d="M861 1905q0 -39 14 -82t38.5 -80t58.5 -60.5t73 -23.5t72.5 23.5t58.5 60.5t39 80t14 82q-23 45 -53 59q-22 10 -42 10q-9 0 -16 -2q-28 -6 -49.5 -26.5t-23.5 -40.5q-4 20 -24.5 40.5t-48.5 26.5q-8 2 -17 2q-20 0 -41 -10q-30 -14 -53 -59zM983 0h123v1597h-123v-1597z M61 0h123v983h676v123h-676v369h553v122h-676v-1597z" />
<glyph unicode="&#xfb02;" horiz-adv-x="1656" d="M983 0h615v123h-492v1474h-123v-1597zM61 0h123v983h676v123h-676v369h553v122h-676v-1597z" />
<glyph unicode="&#xfb03;" horiz-adv-x="2091" d="M1782 1905q0 -39 14 -82t38.5 -80t58.5 -60.5t73 -23.5t72.5 23.5t58.5 60.5t39 80t14 82q-23 45 -53 59q-22 10 -42 10q-9 0 -16 -2q-28 -6 -49.5 -26.5t-23.5 -40.5q-4 20 -24.5 40.5t-48.5 26.5q-8 2 -17 2q-20 0 -41 -10q-30 -14 -53 -59zM1904 0h123v1597h-123 v-1597zM983 0h123v983h676v123h-676v369h553v122h-676v-1597zM61 0h123v983h676v123h-676v369h553v122h-676v-1597z" />
<glyph unicode="&#xfb04;" horiz-adv-x="2578" d="M1904 0h615v123h-492v1474h-123v-1597zM983 0h123v983h676v123h-676v369h553v122h-676v-1597zM61 0h123v983h676v123h-676v369h553v122h-676v-1597z" />
</font>
</defs>
</svg>
