<?xml version="1.0" standalone="no"?>
<!DOCTYPE svg PUBLIC "-//W3C//DTD SVG 1.1//EN" "http://www.w3.org/Graphics/SVG/1.1/DTD/svg11.dtd" >
<svg xmlns="http://www.w3.org/2000/svg">
<metadata>
This is a custom SVG webfont generated by Font Squirrel.
Copyright   : Copyright c 2010 by Fernando Carvente All rights reserved
Foundry     : Fernando Carvente
</metadata>
<defs>
<font id="SpathaSans" horiz-adv-x="874" >
<font-face units-per-em="2048" ascent="1536" descent="-512" />
<missing-glyph horiz-adv-x="522" />
<glyph unicode=" "  horiz-adv-x="522" />
<glyph unicode="&#x09;" horiz-adv-x="522" />
<glyph unicode="&#xa0;" horiz-adv-x="522" />
<glyph unicode="!" horiz-adv-x="360" d="M61 1509h230l-33 -1161h-164zM68 115q0 45 34.5 78.5t81.5 33.5q45 0 79 -33.5t34 -78.5q0 -47 -34 -82t-79 -35q-47 0 -81.5 35t-34.5 82z" />
<glyph unicode="&#x22;" horiz-adv-x="589" d="M47 1513h182l-24 -403l-127 2zM348 1513h182l-24 -403l-127 2z" />
<glyph unicode="#" horiz-adv-x="1562" d="M41 494v145h260l109 291h-279v145h332l164 434h229l-164 -434h342l164 434h229l-163 -434h256v-145h-310l-108 -291h328v-145h-383l-185 -494h-229l184 494h-342l-184 -494h-230l185 494h-205zM530 639h342l109 291h-342z" />
<glyph unicode="$" horiz-adv-x="1110" d="M61.5 437q6.5 48 32 85t74.5 60.5t125 23.5q-16 -53 -21 -108q-4 -47 4.5 -105.5t38.5 -116.5q47 -84 125 -112v555q-47 10 -104 32.5t-109.5 65.5t-94.5 108.5t-56 161.5q-18 113 15.5 188t92 122t130 69.5t126.5 32.5v178h199v-168q49 -2 109.5 -11t118 -31.5 t103.5 -61.5t64 -98q20 -66 13 -111t-30.5 -77t-56 -50t-62.5 -28.5t-51 -12.5l-22 -2l5 22q5 22 5.5 54.5t-9 73.5t-38.5 81q-57 78 -149 103v-453q35 -4 100.5 -19.5t131 -58.5t114.5 -120.5t49 -202.5q0 -127 -18.5 -219t-62.5 -153.5t-120.5 -94.5t-193.5 -39v-186h-199 v188q-94 6 -170.5 40t-144.5 134q-20 31 -37.5 75t-25 91t-1 95zM313 1157q2 -43 17 -80q12 -35 37.5 -69.5t72.5 -61.5v397q-47 -23 -72.5 -54.5t-37.5 -59.5q-15 -35 -17 -72zM639 150q63 12 99 49t51.5 76.5t18.5 75.5t3 46t-2 49t-18.5 87.5t-51 93.5t-100.5 65v-542z " />
<glyph unicode="%" horiz-adv-x="1275" d="M51 1145q0 76 18.5 142.5t51.5 115.5t77 77.5t95 28.5t95 -28.5t77 -77.5t52.5 -115.5t19.5 -142.5t-19.5 -142.5t-52.5 -115.5t-77 -78t-95 -29t-95 29t-77 78t-51.5 115.5t-18.5 142.5zM201 -8l565 1509h229l-565 -1509h-229zM223 1141q0 -51 6.5 -97.5t15.5 -80 t22.5 -53t29.5 -19.5q14 0 28.5 19.5t23.5 53t15.5 80t6.5 97.5t-6.5 97t-15.5 80t-23.5 53.5t-28.5 19.5q-16 0 -29.5 -19.5t-22.5 -53.5t-15.5 -80t-6.5 -97zM739 369q0 76 18.5 142.5t51.5 115.5t77 77.5t95 28.5t95 -28.5t77 -77.5t52.5 -116t19.5 -142 q0 -76 -19.5 -142.5t-52.5 -116t-77 -78t-95 -28.5t-95 28.5t-77 78t-51.5 116t-18.5 142.5zM911 365q0 -51 6.5 -97.5t15.5 -80t22.5 -53t29.5 -19.5q14 0 28.5 19.5t24 53t15.5 79.5t6 98q0 51 -6 97t-15.5 79.5t-24 53t-28.5 19.5q-16 0 -29.5 -19.5t-22.5 -53 t-15.5 -79.5t-6.5 -97z" />
<glyph unicode="&#x26;" horiz-adv-x="1226" d="M37 412q0 94 21.5 159.5t47.5 106.5q31 49 72 80q23 14 49 35l55 38q32 23 66 52l-45 90q-23 47 -41 93t-29.5 89t-11.5 80q-2 51 11.5 90t36 67.5t52 49t60.5 33.5q72 29 168 32q53 0 111.5 -12t105.5 -41t77.5 -76t28.5 -116q-2 -49 -28.5 -103.5t-65.5 -107t-84 -99.5 t-82 -82l48 -79l57 -93l57 -93l51 -79q-4 39 0 101.5t15.5 126t28 116t34.5 68.5q39 41 93.5 45t101.5 -6q55 -12 114 -39q-2 0 -13 -4t-27.5 -21.5t-34 -52.5t-29.5 -98q-29 -141 -60.5 -248.5t-68.5 -191.5q35 -39 77 -69t87 -30l-19 -223q-41 -2 -78.5 8t-71.5 28.5 t-62.5 41t-53.5 47.5q-68 -72 -150.5 -100.5t-189.5 -28.5q-117 0 -207 33.5t-150.5 91t-92 133.5t-31.5 158zM264 422q0 -92 39 -142.5t87 -73t88 -26.5t42 -4q18 0 57 1t77 9.5t68 25.5t30 50l-106 153l-185 273q-4 6 -10 14q-10 12 -23 39q-29 -23 -58.5 -51t-53 -68 t-38 -89.5t-14.5 -110.5zM428 1264q0 -35 7 -60.5t19.5 -52.5t28.5 -55l37 -66q66 63 112 125t46 111q0 39 -20.5 61.5t-43.5 32.5q-27 12 -61 14l-19 -2q-19 -2 -43 -12t-43.5 -32.5t-19.5 -63.5z" />
<glyph unicode="'" horiz-adv-x="262" d="M45 1513h182l-24 -403l-127 2z" />
<glyph unicode="(" horiz-adv-x="749" d="M102 698q0 174 26 308.5t69 232.5t98 166t113 111q133 102 305 116v-73q-109 -18 -195 -117q-37 -41 -72.5 -103.5t-63.5 -151.5t-45.5 -208t-17.5 -272q0 -158 16.5 -279t44.5 -211t63.5 -152.5t72.5 -105.5q86 -98 197 -119v-73q-172 14 -305 116q-57 43 -112.5 110.5 t-98.5 166t-69 230.5t-26 308z" />
<glyph unicode=")" horiz-adv-x="798" d="M102 -160q111 20 197 119q37 43 72 105.5t62.5 152.5t45 211t17.5 279q0 154 -17.5 272.5t-45 207.5t-63.5 151.5t-73 103.5q-86 98 -195 117v73q170 -14 306 -116q57 -43 111 -111t97 -166t70 -232.5t27 -308.5q0 -176 -27 -308t-70 -230.5t-97 -166t-111 -110.5 q-135 -102 -306 -116v73z" />
<glyph unicode="*" horiz-adv-x="854" d="M39 936l278 229l-278 230l168 112l110 -141v141h203v-141l115 141l168 -112l-279 -230l279 -229l-168 -113l-115 152v-156h-203v150l-110 -146z" />
<glyph unicode="+" horiz-adv-x="1013" d="M111 584v215h305v334h215v-334h319v-215h-319v-340h-215v340h-305z" />
<glyph unicode="," horiz-adv-x="319" d="M8 -127q-2 0 10.5 4t27.5 19.5t30.5 43t21.5 76.5q-23 16 -36 42t-13 55q0 45 35 78.5t82 33.5q45 0 79 -34.5t34 -81.5q0 -74 -31 -126.5t-70 -86.5q-45 -39 -100 -68l-33 22l-23 16q-12 7 -14 7z" />
<glyph unicode="-" horiz-adv-x="1019" d="M72 518v209h872v-209h-872z" />
<glyph unicode="." horiz-adv-x="325" d="M49 115q0 45 35 78.5t82 33.5q45 0 79 -33.5t34 -78.5q0 -47 -34 -82t-79 -35q-47 0 -82 35t-35 82z" />
<glyph unicode="/" horiz-adv-x="903" d="M61 0l566 1509h229l-565 -1509h-230z" />
<glyph unicode="0" horiz-adv-x="1263" d="M59 805q0 193 43 324t107.5 212.5t139.5 124.5t139.5 61.5t107.5 20.5t43 4h2q0 -2 43 -4t107.5 -20.5t139.5 -61.5t139.5 -124.5t107.5 -213t43 -323.5q0 -201 -43 -338t-107.5 -226t-139.5 -137.5t-139.5 -70t-108.5 -24.5l-44 -3q-164 12 -291 98q-55 37 -106.5 94.5 t-92 141.5t-65.5 198.5t-25 266.5zM289 803q4 -180 43 -324q16 -61 42.5 -118.5t64.5 -102.5t89.5 -72.5t118.5 -27.5q68 0 119 27.5t89 72.5t63.5 102.5t42.5 118.5q39 143 45 324q-6 168 -45 301q-16 55 -42 109.5t-64 97.5t-89 68.5t-119 25.5t-119 -25.5t-89 -68.5 t-64.5 -97.5t-42.5 -109.5q-39 -133 -43 -301z" />
<glyph unicode="1" horiz-adv-x="630" d="M41 1395q121 -4 186.5 12t96.5 39q37 25 43 61h229v-1507h-229v1296q-20 -29 -53 -55.5t-87 -26.5q-61 0 -98 28t-57 63q-23 39 -31 90z" />
<glyph unicode="2" horiz-adv-x="1028" d="M37 180q-4 80 18.5 180.5t100.5 202.5q51 66 128.5 115t150.5 82t125 50t52 21q45 35 76 87q27 43 41 109.5t-8 160.5q-20 92 -57 141t-74 72q-43 27 -92 31q-51 -4 -97 -15q-39 -10 -77.5 -30.5t-57.5 -59.5q-29 -59 -41 -142t0 -163q-74 8 -118 63.5t-54 128 t17.5 146.5t97.5 119t150.5 61t149.5 18.5t115 -4.5l46 -6q94 -16 168 -65q63 -43 113.5 -125t47.5 -221q-2 -104 -31.5 -184.5t-72.5 -138.5t-93 -98t-92 -64.5t-70 -35t-28 -12.5t-27.5 -13t-67.5 -35t-88 -58.5t-88 -85t-67.5 -113.5t-27.5 -143q14 6 49 16t83 20.5 t107.5 20.5t124.5 16q51 4 105.5 3t105.5 -1t94.5 5.5t71.5 19.5q23 14 23 51q20 -86 2 -153q-8 -29 -25.5 -56.5t-49.5 -49t-79 -35t-115 -13.5h-127h-169h-180h-154q-31 86 -35 180z" />
<glyph unicode="3" horiz-adv-x="1019" d="M39 418l252 8q12 -80 43 -143q27 -53 72 -97.5t118 -44.5q68 0 113 26t70.5 66.5t36 92t10.5 104.5q0 94 -41 145.5t-88 73.5q-55 27 -127 31h-199l14 170q80 0 147.5 14.5t117 48t77 87t27.5 133.5q0 90 -20.5 138t-50 69.5t-64.5 25.5t-64 6q-8 0 -40.5 -2t-67.5 -13 t-62.5 -37t-25.5 -71q2 -43 16 -65.5t33 -32.5q20 -12 47 -14q2 -31 -6 -54q-8 -20 -30.5 -37.5t-70.5 -21.5q-39 -4 -79.5 4t-74.5 32.5t-54.5 71t-20.5 117.5q0 86 38 138.5t99.5 79t142.5 34.5t169 8q115 0 206 -34q39 -16 76 -40t65.5 -61t47 -88t18.5 -121 q0 -145 -41 -223t-90 -115q-57 -43 -131 -49h24q24 0 59.5 -10t77.5 -31.5t78 -61.5t59.5 -101.5t23.5 -151.5q0 -115 -21.5 -197t-75 -133t-144.5 -74.5t-230 -23.5q-86 0 -150.5 18.5t-113 47t-82 66.5t-54.5 79q-51 94 -59 213z" />
<glyph unicode="4" horiz-adv-x="1048" d="M61 571l504 936l244 2v-854q117 0 161 -40t44 -126l2 -51h-207v-438h-229v438h-517zM297 600l283 35v584l-181 -385q-51 -168 -102 -234z" />
<glyph unicode="5" horiz-adv-x="1030" d="M41 338l219 -10q-16 -39 2 -72q16 -29 65.5 -54.5t159.5 -35.5q45 -4 80 7t59.5 31.5t41 48.5t26.5 58q23 70 25 162q-2 98 -25 176q-10 33 -27.5 64.5t-42 56.5t-58.5 40t-79 15q-49 0 -85.5 -30.5t-61.5 -66.5t-36 -65.5t-11 -27.5l-232 47v827h924l-2 -51 q0 -55 -16.5 -91t-58.5 -54.5t-111.5 -20.5t-175.5 13l-330 41v-398q41 31 99.5 53.5t135.5 22.5q88 0 155 -23.5t116 -63.5t82.5 -90t54.5 -102q49 -123 51 -276q-8 -133 -61 -238q-23 -45 -56.5 -87t-83 -75.5t-116 -54t-152.5 -20.5q-109 0 -185.5 14.5t-131 39t-86 55 t-50.5 63.5q-40 76 -22 172z" />
<glyph unicode="6" horiz-adv-x="1259" d="M72 735q6 197 43 333t91 227t120.5 143.5t132 78t126 31.5t101.5 6q29 0 78 -3t106.5 -13t115.5 -31.5t105.5 -58.5t77 -93.5t29.5 -135.5q0 -49 -29.5 -80t-72.5 -46.5t-89 -20.5t-79 -5q8 10 16 25q6 12 12.5 30.5t6.5 40.5q0 23 -7.5 50.5t-27.5 62.5 q-27 45 -59.5 69.5t-66.5 37t-63.5 14.5t-50.5 2q-121 0 -196.5 -57.5t-119.5 -143.5t-61.5 -188.5t-19.5 -194.5q41 55 126 92t234 37q242 0 369 -111.5t127 -353.5q0 -90 -22.5 -158.5t-58.5 -118.5t-82 -85t-95 -58q-113 -53 -256 -59h-10q-29 0 -82.5 4t-117 25.5 t-129 66.5t-116.5 127t-81.5 207t-24.5 305zM309 524q33 -127 89.5 -196.5t111.5 -102t96 -38t45 -5.5q2 0 22.5 1t48.5 10.5t59.5 30t58 57t44 94t17.5 141.5q0 98 -40 152.5t-87 79.5q-55 29 -127 32q-84 -4 -151 -30q-29 -12 -58.5 -31t-55.5 -46.5t-45.5 -63.5 t-27.5 -85z" />
<glyph unicode="7" horiz-adv-x="1005" d="M63 1509h924l-51 -141h-2l-176 -584h180l-2 -51q0 -47 -14.5 -74.5t-44 -41t-73.5 -15.5t-102 2l-182 -604h-229l188 627l-243 22v135h290l166 553l-264 -32q-106 -12 -176 -11.5t-112 19t-58 54.5t-16 91z" />
<glyph unicode="8" horiz-adv-x="1097" d="M61 436q4 72 26 127t52.5 96t68.5 71t75 48q-72 41 -130.5 114t-76.5 195q-12 78 2 137.5t47 104.5t80 75t96 50q117 47 277 55q123 -4 221 -39q41 -14 81 -36.5t70.5 -54t50 -74.5t19.5 -101q0 -59 -16.5 -111.5t-42 -97.5t-59.5 -80.5t-71 -62.5q39 -18 75 -48 t64.5 -72t46 -98t17.5 -128q0 -135 -20.5 -231.5t-72.5 -157t-140 -89t-226 -28.5q-72 0 -134 3t-117.5 19.5t-104.5 52.5t-94 101q-33 47 -53.5 118.5t-10.5 141.5zM271 447.5q1 -39.5 11.5 -84t32.5 -87.5q39 -72 99.5 -102.5t165.5 -30.5q86 0 133 36t68.5 80t25.5 85 t4 53t-3 63.5t-27.5 109t-78 103.5t-153.5 46q-20 -2 -45 2q-43 4 -109 22q-47 -29 -73.5 -78t-36.5 -90q-6 -23 -10.5 -55.5t-3.5 -72zM313 1157q4 -76 37 -133q29 -49 88.5 -90t171.5 -41q10 0 25 -2q12 -2 28.5 -4t36.5 -6q41 35 75 105.5t34 170.5q0 57 -24.5 98 t-60.5 66t-79 36t-80 11q-94 0 -144 -32.5t-75 -73.5q-29 -48 -33 -105z" />
<glyph unicode="9" horiz-adv-x="1138" d="M18 1069q0 90 21.5 156.5t57.5 113.5t82 79t95 50q113 43 258 41h76q53 0 118 -14t132.5 -53t121.5 -116t87 -202t27 -311q-6 -162 -35 -283.5t-72 -209t-95 -145.5t-108 -95q-127 -84 -286 -86q-127 0 -226 35q-43 14 -82.5 37.5t-70.5 60.5t-50.5 86t-19.5 117 q0 72 42 105.5t93 43.5q59 12 135 2q-14 -23 -22 -55q-6 -29 -3 -71t25 -101q23 -59 55 -88t62 -39q37 -12 76 -8q90 0 166 61q33 27 64.5 68t58 104.5t45 149.5t24.5 203q-20 -29 -52 -58t-76 -52.5t-101 -38.5t-129 -15q-121 0 -213 37.5t-154.5 106.5t-94.5 166t-32 218z M221 1032q0 -133 46 -203.5t102 -101.5q66 -37 149 -39q92 -2 168 29q31 12 62.5 33.5t56 53.5t40 77t17.5 106q0 94 -22.5 158.5t-57 106.5t-75.5 65.5t-77 35t-60.5 13.5t-26.5 2q-4 0 -29 1t-60.5 -5t-76.5 -24.5t-76 -55.5t-57.5 -98.5t-22.5 -153.5z" />
<glyph unicode=":" horiz-adv-x="368" d="M55 106q0 45 35 79t82 34q45 0 79 -33.5t34 -79.5q0 -47 -34 -81.5t-79 -34.5q-47 0 -82 34.5t-35 81.5zM55 879q0 45 35 78.5t82 33.5q45 0 79 -33.5t34 -78.5q0 -47 -34 -82t-79 -35q-47 0 -82 35t-35 82z" />
<glyph unicode=";" horiz-adv-x="339" d="M8 -127q-2 0 10.5 4t27.5 19.5t30.5 43t21.5 76.5q-23 16 -36 42t-13 55q0 45 35 78.5t82 33.5q45 0 79 -34.5t34 -81.5q0 -74 -31 -126.5t-70 -86.5q-45 -39 -100 -68l-33 22l-23 16q-12 7 -14 7zM55 879q0 45 35 78.5t82 33.5q45 0 79 -33.5t34 -78.5q0 -47 -34 -82 t-79 -35q-47 0 -82 35t-35 82z" />
<glyph unicode="&#x3c;" horiz-adv-x="1157" d="M145 813q0 2 38 23l100 53l140 75l163 85l442 229l-8 -250l-279 -156l-102 -56l-88 -49l-63 -34q-24 -12 -23 -10q0 2 23.5 -10.5l61.5 -33.5l86 -48l99 -56l273 -151v-264q0 2 -37 23l-98 58l-137 80l-156 91l-426 247l-4 74l-3.5 52.5t-1.5 27.5z" />
<glyph unicode="=" horiz-adv-x="1019" d="M72 270v209h872v-209h-872zM72 700v209h872v-209h-872z" />
<glyph unicode="&#x3e;" horiz-adv-x="1054" d="M145 1278l441 -229l162 -85l142 -75l100 -53q38 -20 38 -23q0 -4 -1 -27.5t-3 -52.5l-4 -74l-428 -247l-157 -91l-136 -80l-96 -58q-37 -22 -37 -23v264l270 151l100 56l87 48l62 34q24 12 24 10t-24 10l-63 34l-91 49l-101 56l-276 156z" />
<glyph unicode="?" horiz-adv-x="835" d="M27 1157q0 88 27.5 148.5t69.5 99.5t91 60.5t92 30.5t73 10t32 -1t30.5 -4t70.5 -11t90 -31.5t89 -62.5t67.5 -103.5t26.5 -157.5q0 -90 -20.5 -158t-55 -119t-81.5 -90t-103 -76q-55 -37 -83.5 -95t-41.5 -114q-14 -66 -16 -137l-172 2q-4 80 12 156q14 66 47 134.5 t101 115.5t110.5 94t67 94t34 96t9.5 101q0 102 -28.5 155.5t-63.5 77.5q-39 29 -90 33q-29 0 -61 -12.5t-59.5 -38t-46 -63.5t-20.5 -89q-2 -37 -16 -57.5t-33 -26.5q-33 -10 -60.5 -6t-48 13.5t-30.5 19.5t-10 12zM195 117q0 -47 31.5 -79t78.5 -32t80 32t33 79t-33 79.5 t-80 32.5t-78.5 -32.5t-31.5 -79.5z" />
<glyph unicode="@" horiz-adv-x="1656" d="M82 631q0 141 36 245.5t92 180.5t124.5 126t136.5 83q66 31 130.5 48t116.5 26.5t87 11.5t43 2q12 0 66.5 -1t131 -17.5t163.5 -54.5t161 -112q184 -172 184 -471q0 -270 -153 -411q-55 -53 -117.5 -83t-117 -43.5t-93.5 -15.5t-47 -2h-147l30 201q-25 -74 -63.5 -117 t-75.5 -65q-43 -27 -88 -37q-68 0 -121 30.5t-81.5 98.5t-31 173t34.5 253q12 49 33 100t49.5 97.5t63.5 83t73 59.5q68 39 152 46t158 1q86 -8 172 -31l-121 -798q72 6 124 34.5t101 94.5q41 55 71 146t30 185q0 55 -8.5 112.5t-25 109t-41 95.5t-57.5 75 q-59 55 -128.5 82.5t-133.5 39.5q-74 14 -147 15q-47 -4 -98 -13q-45 -8 -99.5 -22t-109.5 -39q-147 -72 -219 -211t-72 -311q0 -174 44 -293t109.5 -197t143.5 -119.5t143.5 -61t109.5 -23.5l44 -5v-88q-47 0 -122 3t-160 25t-170 69t-154.5 135t-112.5 222t-43 333z M584 432q4 -86 28 -131q29 -53 82 -72q37 -10 77 16.5t75 67.5t59.5 88.5t28.5 79.5l72 494q-12 6 -56.5 8t-101.5 -24.5t-116.5 -95t-102.5 -199.5q-49 -146 -45 -232z" />
<glyph unicode="A" horiz-adv-x="1312" d="M47 0l481 1509h220l536 -1509h-256l-160 438q-16 -25 -39.5 -38t-60.5 -17q-25 -3 -56 -3q-15 0 -32 1q-51 2 -121 6l-129 10l-139 -397h-244zM473 520h358l-194 674z" />
<glyph unicode="B" horiz-adv-x="1114" d="M72 0v1509h307q2 0 44 1q6 0 12 1q38 0 91 -6q61 -6 134 -23.5t134.5 -54t102.5 -99t41 -157.5q0 -53 -15.5 -104t-44 -92t-71.5 -65.5t-98 -24.5q70 0 133 -20.5t110 -67.5t75 -124t28 -190q0 -121 -49.5 -202.5t-124 -134t-160.5 -81t-160 -42t-123 -17.5t-47 -6h-319z M299 195l92 -2q119 4 215 36q39 14 78 36t69.5 52.5t49 72.5t18.5 97q0 109 -45 165.5t-111.5 83t-141.5 31.5l-136 9h-88v-581zM299 934q45 0 114.5 3t135 25.5t113 72.5t47.5 143q-16 55 -56 98q-35 37 -99.5 67.5t-172.5 30.5h-82v-440z" />
<glyph unicode="C" horiz-adv-x="1226" d="M43 750q0 162 52 305t141.5 249.5t210 168t255.5 61.5q51 0 119 -11.5t131.5 -36t116.5 -63.5t78 -92q23 -54 23 -97q0 -19 -5 -35q-14 -54 -47 -89q-37 -41 -98 -68q0 82 -24.5 137.5t-60.5 92.5t-78 56.5t-78 28.5t-60.5 10t-22.5 1q-117 -10 -209 -78 q-39 -29 -75.5 -74t-66.5 -109.5t-47 -152.5t-17 -202q0 -111 18 -196t47 -147.5t67 -105.5t79 -70q92 -66 210 -73q49 2 101 18q43 14 95 44t99 85l207 -67q-92 -127 -222 -201t-280 -74q-135 0 -255.5 61.5t-210 168t-141.5 250t-52 305.5z" />
<glyph unicode="D" horiz-adv-x="1193" d="M61 0v1509l342 -2q-20 0 -0.5 -1t67.5 -10t114.5 -27.5t140.5 -54.5t146.5 -91t131 -135t94.5 -188.5t36 -249.5q0 -188 -54.5 -315.5t-135.5 -210.5t-175 -128t-175 -65.5t-135.5 -24.5t-54.5 -6h-342zM291 174q39 6 98.5 8t126 14.5t133 42t119.5 92t87 163t34 256.5 q0 152 -35 253t-89 164.5t-122 95t-134.5 46t-124.5 16.5t-93 8v-1159z" />
<glyph unicode="E" horiz-adv-x="1062" d="M61 0v1509h924l-2 -51q0 -55 -16.5 -91t-58.5 -54.5t-111 -20.5h-18q-65 0 -158 13l-330 41v-463h418l-2 -52q0 -51 -18.5 -79.5t-54.5 -40.5q-33 -11 -81 -12h-8q-53 1 -121 10l-133 14v-563l360 45q93 13 158 12h18q70 -2 112 -20.5t58.5 -54.5t16.5 -91l2 -51h-955z " />
<glyph unicode="F" horiz-adv-x="1034" d="M61 0v1509h924l-2 -51q0 -55 -16.5 -91t-58.5 -54.5t-111 -20.5h-18q-65 0 -158 13l-330 41v-562h502l-2 -51q0 -51 -18.5 -79.5t-54.5 -41.5q-33 -11 -81 -11h-8q-53 1 -121 9l-217 15v-625h-230z" />
<glyph unicode="G" horiz-adv-x="1257" d="M43 750q0 162 52 305t141.5 249.5t210 168t255.5 61.5q51 0 119 -11.5t131.5 -36t116.5 -63.5t78 -92q23 -54 23 -97q0 -19 -5 -35q-14 -54 -47 -89q-37 -41 -98 -68q0 82 -24.5 137.5t-60.5 92.5t-78 56.5t-78 28.5t-60.5 10t-22.5 1q-117 -10 -209 -78 q-39 -29 -75.5 -74t-66.5 -109.5t-47 -152.5t-17 -202q0 -111 18 -197t47 -151.5t67 -111.5t79 -77q92 -74 210 -94q82 0 148 18q55 16 103 49t55 95l20 360l-147 -45q-94 -29 -155.5 -29t-98.5 21.5t-52.5 62.5t-15.5 97l-2 51l643 -2l-20 -551q-4 -106 -50.5 -163.5 t-117 -84.5t-153.5 -31t-157 -4q-135 0 -255.5 61.5t-210 168t-141.5 250t-52 305.5z" />
<glyph unicode="H" horiz-adv-x="1187" d="M61 0v1509h230v-675h614v675h230v-1509h-230v727q-14 -31 -44 -48t-70 -24q-31 -5 -68 -4h-26q-52 2 -109 8l-297 23v-682h-230z" />
<glyph unicode="I" horiz-adv-x="354" d="M61 0v1509h230v-1509h-230z" />
<glyph unicode="J" horiz-adv-x="921" d="M59 369l226 86q18 -117 50 -177.5t64 -89.5q37 -33 80 -34q43 6 78 63q14 25 28.5 62.5t26 93t18.5 131.5t7 176v829h229v-831q0 -127 -16 -224.5t-44 -169t-62.5 -120.5t-71.5 -80q-84 -74 -193 -84q-199 0 -294 94.5t-126 274.5z" />
<glyph unicode="K" horiz-adv-x="1257" d="M61 0v1509h230v-669l551 669h241l-620 -721l737 -698l-37 -37q-39 -39 -76 -53q-18 -7 -36 -7q-20 0 -42 8q-42 15 -93.5 63.5t-118.5 132.5l-426 485l-80 -92v-590h-230z" />
<glyph unicode="L" horiz-adv-x="1062" d="M61 0v1509h230v-1349l360 45q93 13 158 12h18q70 -2 112 -20.5t58.5 -54.5t16.5 -91l2 -51h-955z" />
<glyph unicode="M" horiz-adv-x="1644" d="M55 0l166 1509h230l346 -1138l309 1138h233l213 -1509h-229l-125 1012l-280 -1012h-238l-324 1059l-65 -1059h-236z" />
<glyph unicode="N" horiz-adv-x="1179" d="M61 0v1509h287l518 -1169v1169h203v-1509h-233l-572 1241v-1241h-203z" />
<glyph unicode="O" horiz-adv-x="1404" d="M43 750q0 162 52 305t141.5 249.5t210 168t255.5 61.5t256 -61.5t212.5 -168t143.5 -250t52 -304.5q0 -162 -52 -305.5t-143.5 -250t-212 -168t-256.5 -61.5q-135 0 -255.5 61.5t-210 168t-141.5 250t-52 305.5zM281 752q0 -111 18 -196t47 -147.5t67 -105.5t79 -70 q92 -66 210 -73q119 8 216 73q39 27 77.5 70t69.5 105.5t49.5 147.5t18.5 196t-19.5 194.5t-50.5 146t-70 105.5t-80 72q-96 68 -217 78q-117 -10 -209 -78q-39 -29 -75.5 -72t-66.5 -105.5t-47 -146t-17 -194.5z" />
<glyph unicode="P" horiz-adv-x="999" d="M61 0v1509h230q2 0 51 -3t122 -16t157 -43t156.5 -84t120.5 -137t48 -202q0 -96 -28.5 -170t-74.5 -129t-104.5 -93t-120.5 -63q-143 -57 -327 -65v-504h-230zM285 1378l6 -737l75 5q46 3 96 14.5t100 33t90 63.5t65.5 106.5t25.5 160.5q0 90 -26.5 151.5t-69.5 100.5 t-95 59.5t-103.5 29.5t-95 10t-68.5 3z" />
<glyph unicode="Q" horiz-adv-x="1409" d="M43 750q0 162 52 305t141.5 249.5t210 168t255.5 61.5t256 -61.5t212.5 -168t143.5 -250t52 -304.5q0 -119 -28.5 -228.5t-81 -202t-125 -166t-158.5 -118.5l409 -338l-34 -39q-35 -43 -71 -59q-20 -9 -43 -10q-17 0 -36 5q-43 12 -98.5 55.5t-128.5 121.5l-189 200 q-41 -6 -80 -6q-135 0 -255.5 61.5t-210 168t-141.5 250t-52 305.5zM281 752q0 -111 18 -196t47 -147.5t67 -105.5t79 -70q92 -66 210 -73q119 8 216 73q39 27 77.5 70t69.5 105.5t49.5 147.5t18.5 196t-19.5 194.5t-50.5 146t-70 105.5t-80 72q-96 68 -217 78 q-117 -10 -209 -78q-39 -29 -75.5 -72t-66.5 -105.5t-47 -146t-17 -194.5z" />
<glyph unicode="R" horiz-adv-x="1040" d="M61 0v1509h369q2 0 41 -2t96.5 -13t124 -34.5t123.5 -67.5t95 -113t38 -167q0 -156 -42 -249t-109.5 -142t-150.5 -64.5t-165 -15.5l535 -520l-41 -70q-29 -47 -73 -61q-18 -6 -38 -6q-28 0 -60 12q-54 20 -114.5 74.5t-120.5 144.5l-278 412v-627h-230zM285 1378l6 -614 q29 2 75 3t95 7t99 24.5t89 56.5t61 99q18 52 18 128q0 15 -1 30q-4 98 -59.5 151.5t-128 78t-144 29.5t-110.5 7z" />
<glyph unicode="S" horiz-adv-x="1110" d="M61 437q6 48 32 85t75 60.5t125 23.5q-16 -53 -21 -108q-1 -16 -1 -33q0 -34 5 -73q8 -58 39 -116q39 -72 99.5 -102.5t165.5 -30.5q86 0 133 36t68.5 80t25.5 85t4 53t-4 61.5t-28.5 104.5t-78 99.5t-151.5 44.5q-115 4 -213 45q-41 18 -83 45.5t-77 67.5t-61.5 95.5 t-38.5 126.5q-6 39 -6 73.5t6 64.5q12 59 43 104t74 75t90 50q111 47 256 55q22 1 42 1q94 0 177 -15q43 -8 86 -22.5t81 -37t66.5 -54t42.5 -74.5q15 -49 15 -86q0 -13 -1 -25q-7 -45 -31 -77t-56.5 -50t-62.5 -28.5t-51 -12.5l-22 -2l5 22q5 22 5.5 54.5t-9 73.5t-38.5 81 q-37 53 -93 82t-130 29q-94 0 -144 -32.5t-75 -73.5q-29 -47 -33 -105q4 -72 37 -125q29 -47 88.5 -85t171.5 -38q117 -10 209 -65q39 -25 77 -62t67.5 -91t48 -126.5t18.5 -169.5q-6 -113 -57 -198q-23 -37 -55.5 -73t-79.5 -63.5t-111.5 -44t-151.5 -16.5q-72 0 -134 3 t-117.5 19.5t-104.5 52.5t-94 101q-20 31 -37.5 75t-25.5 91q-4 25 -3 51q-1 22 2 44z" />
<glyph unicode="T" horiz-adv-x="1359" d="M49 1509h1284l-2 -51q0 -55 -16.5 -91t-58.5 -54.5t-111 -20.5h-18q-65 0 -158 13l-156 30v-1335h-229v1339l-170 -34q-93 -13 -158 -13h-18q-70 2 -112 20.5t-58.5 54.5t-16.5 91z" />
<glyph unicode="U" horiz-adv-x="1165" d="M51 678v831h230v-829q0 -98 13 -173t34.5 -131.5t48 -94t55.5 -62.5q68 -57 152 -65q82 6 147 63q27 25 54.5 62.5t48 93t34 131.5t13.5 176v829h229v-831q2 -324 -126 -501t-400 -177t-402.5 177t-130.5 501z" />
<glyph unicode="V" horiz-adv-x="1333" d="M74 1509h254l309 -1194l367 1194h256l-512 -1509h-230z" />
<glyph unicode="W" horiz-adv-x="1777" d="M115 1509h254l239 -1194l273 1194h256l-146 -532l203 -662l272 1194h248l-409 -1509h-230l-170 680l-186 -680h-230z" />
<glyph unicode="X" horiz-adv-x="1234" d="M0 1509h285l379 -579l340 579h90q55 -2 86 -18q33 -18 33 -53q0 -30 -42 -82l-423 -574l487 -782h-285l-381 590l-342 -594h-90q-55 2 -86 18q-33 18 -33 53q0 30 41 83l428 585z" />
<glyph unicode="Y" horiz-adv-x="1275" d="M45 1509h254l338 -718l338 718h256l-504 -901v-606h-229v606z" />
<glyph unicode="Z" horiz-adv-x="1144" d="M61 0l45 88l644 1274l-318 -57q-93 -13 -158 -13h-18q-70 2 -112 20.5t-58 54.5t-16 91l-2 51h985l-72 -149l-616 -1227l354 72q93 13 158 12h18q70 -2 112 -20.5t58 -54.5t16 -91l2 -51h-1022z" />
<glyph unicode="[" horiz-adv-x="651" d="M76 -276v1957h540v-170l-317 27v-1675l317 39v-181h-415v3h-125z" />
<glyph unicode="\" horiz-adv-x="903" d="M61 1509h230l565 -1509h-229z" />
<glyph unicode="]" horiz-adv-x="679" d="M35 -98l317 -39v1675l-317 -27v170h540v-1957h-124v-3h-416v181z" />
<glyph unicode="_" horiz-adv-x="1110" d="M72 0v209h962v-209h-962z" />
<glyph unicode="`" horiz-adv-x="296" d="M27 1464q2 16 13 28.5t44 16.5q31 2 50.5 -7t29.5 -23q12 -16 18 -37l80 -342l-80 -2l-151 327q-6 21 -4 39zM27 1464q2 16 13 28.5t44 16.5q31 2 50.5 -7t29.5 -23q12 -16 18 -37l80 -342l-80 -2l-151 327q-6 21 -4 39z" />
<glyph unicode="a" horiz-adv-x="747" d="M61 244v32q0 104 24 173t62.5 111t86 61.5t93.5 24.5q23 3 44.5 3t42.5 -3q41 -5 65 -9v137q0 6 1 25.5t-4 41t-21.5 38t-48.5 16.5q-33 0 -51.5 -24.5t-28.5 -53.5q-12 -35 -17 -76q-59 -23 -104 -22h-7q-35 0 -64 18q-32 20 -32 80q0 76 51.5 117t112.5 59 q72 23 166 25q55 0 96 -10.5t71 -27.5t50.5 -39.5t32.5 -45.5q29 -53 31 -121v-774h-234v180q-4 -18 -14 -48t-33.5 -59.5t-62.5 -51t-101 -21.5q-80 0 -123 37t-61 84q-23 53 -23 123zM293 227q0 -20 8 -34q8 -12 25.5 -22.5t52.5 -10.5q25 0 41 18.5t28.5 45t19.5 52 t11 41.5v271q-43 0 -73.5 -15.5t-51 -41t-34 -58.5t-19.5 -65q-11 -53 -11 -116q0 -32 3 -65z" />
<glyph unicode="b" horiz-adv-x="851" d="M76 2v1557h229v-601q14 16 35 31q16 12 41 22.5t57 10.5q12 0 44 -1t73 -13.5t86 -42t82 -86t60.5 -144.5t23.5 -219q0 -96 -15.5 -170t-40 -128t-56 -91t-64.5 -61q-78 -55 -176 -64q-41 0 -78 12q-33 10 -69 32t-64 63l-4 -37q-2 -18 -7 -35l-8 -35h-149zM295 186 q20 -23 58 -37t98 -14q39 0 64.5 36t38.5 95.5t18.5 135t5.5 155.5q0 78 -7.5 144.5t-23 114.5t-39 75t-57.5 27q-43 0 -74 -11.5t-50.5 -24t-27.5 -23.5q-5 -8 -5 -10q0 -1 1 -1v-662z" />
<glyph unicode="c" horiz-adv-x="772" d="M68 500q0 104 16 183t43 137.5t60.5 98t70.5 66.5q82 61 191 70q90 -4 161 -31q61 -23 112.5 -73t51.5 -140q0 -45 -9 -74.5t-24.5 -47t-35 -26t-39.5 -8.5h-7q-46 0 -102 25q12 10 21 33q6 16 4 45.5t-19 72.5q-23 39 -42 56.5t-36 21.5q-20 6 -36 -2q-41 -6 -74 -53 q-29 -41 -51.5 -125t-22.5 -240q0 -139 24.5 -210.5t53.5 -104.5q35 -37 80 -39q20 -4 38.5 -4t34.5 4q29 8 51.5 33t22.5 82l178 -17q0 -49 -14 -85.5t-37.5 -64.5t-54.5 -46.5t-62 -30.5q-74 -29 -167 -33q-109 8 -191 66q-37 25 -70.5 62.5t-60.5 93t-43 131.5t-16 174z " />
<glyph unicode="d" horiz-adv-x="854" d="M43 516q0 96 13.5 170t36 128t51 91t59.5 62q70 55 162 65q53 0 84.5 -7t48.5 -15q20 -8 28 -21v570h238v-1211q0 -82 14.5 -125t32.5 -63q23 -23 49 -27q0 -53 -22.5 -80.5t-53.5 -39.5q-28 -10 -59 -10h-5q-34 1 -58 7q-59 16 -87 86q-33 -37 -67.5 -55t-63.5 -27 q-35 -8 -67 -10q-94 12 -168 72q-31 25 -61.5 62.5t-53 91t-37 124t-14.5 162.5zM278 404q1 -46 6 -98t17 -96t32.5 -74t53.5 -30q53 0 95 19.5t67 40.5q-12 41 -17.5 79t-5.5 60v565q-16 29 -35.5 44.5t-35.5 21.5q-14 5 -28 5l-13 -1q-33 0 -56.5 -30.5t-39 -76 t-23.5 -99.5t-11 -101t-4 -80t-1 -37q0 -2 -1 -34q-1 -16 -1 -35.5t1 -42.5z" />
<glyph unicode="e" horiz-adv-x="763" d="M35 500q0 100 16.5 177t43 133t60 95t68.5 64q82 59 191 67q84 -2 151 -37q57 -29 105.5 -94t48.5 -184q0 -115 -51.5 -173.5t-124 -85t-149.5 -30.5t-128 -10q8 -111 32 -167t50 -85q31 -33 66 -37q12 -1 23 -1q28 0 52 7q29 10 52.5 37t23.5 82l164 -14 q0 -47 -13.5 -84t-36 -63.5t-51 -45t-57.5 -31.5q-70 -29 -157 -30q-109 8 -191 63q-35 25 -68.5 61t-60 90t-43 127t-16.5 169zM266 506q45 14 91 31.5t83 44t60.5 65.5t23.5 96q0 66 -17.5 98.5t-37.5 45.5q-17 10 -37 10q-9 0 -18 -2q-41 -6 -74 -49q-29 -37 -51.5 -116 t-22.5 -224z" />
<glyph unicode="f" horiz-adv-x="616" d="M70 0v1212q0 106 30.5 174t78.5 106t104.5 51t107.5 13q90 0 142.5 -16t80.5 -35q33 -23 48 -49q8 -37 8 -64q0 -35 -14 -55q-24 -35 -56 -43q-16 -4 -36 -4q-27 0 -60 8q0 66 -15.5 103t-31.5 53q-23 20 -47 21q-37 0 -57.5 -24t-30.5 -52q-10 -35 -13 -76v-299h273 v-150h-273v-874h-239z" />
<glyph unicode="g" horiz-adv-x="888" d="M16 -174q0 61 17.5 112.5t54.5 67.5q43 23 92 26q18 1 36 1q29 0 55 -3q42 -5 71 -13.5t29 -10.5q-10 6 -24.5 -3t-28 -28.5t-22.5 -46t-7 -55.5q0 -25 9 -57.5t28.5 -62t51.5 -49t79 -19.5q72 0 111.5 26.5t56.5 61.5q20 39 22 90q0 66 -25.5 99.5t-56.5 49.5 q-37 18 -80 19q-109 2 -190 18q-35 6 -68.5 17.5t-60.5 28t-43.5 37t-16.5 48.5q0 39 19.5 61.5t50.5 36t70 20.5t78 15q-35 14 -77 43t-79 73t-62.5 103.5t-25.5 133.5q0 66 16.5 115.5t44 86.5t63.5 62.5t72 42.5q86 37 197 43h14q8 0 17.5 -2t21.5 -4q0 10 -3 42 q-1 10 -1 19q0 23 5 47q7 35 30 68t74 47q35 10 65 10q19 0 35 -4q43 -10 72 -29q35 -23 57 -53q8 -29 9 -53q0 -23 -8 -41q-15 -39 -40 -62q-29 -27 -69 -43q7 33 6 61v13q-2 29 -14.5 51.5t-45.5 22.5q-29 0 -50 -12.5t-35.5 -29.5t-23.5 -34.5t-14 -30.5 q39 -12 85.5 -33.5t86 -60.5t67.5 -98t28 -143q0 -113 -42 -185.5t-99.5 -116t-114 -61.5t-86.5 -20v-2q0 -2 -18.5 0t-41 -2.5t-40 -16.5t-17.5 -41q0 -16 23.5 -23.5t52.5 -9.5q17 -1 36.5 -1t41.5 1q11 0 21 1q79 0 144 -27q31 -12 61 -35t53.5 -57.5t37.5 -82.5t14 -114 t-17 -116t-46 -86t-66 -59.5t-73 -37.5q-90 -35 -203 -35q-16 -1 -31 0q-106 0 -192 25q-43 12 -83 32.5t-71 52t-50.5 76t-19.5 103.5zM313 666q0 -98 24.5 -147.5t55.5 -72.5q35 -27 80 -28q37 2 66 28q25 23 46 72t21 148q0 98 -21.5 146t-45.5 71q-29 25 -66 24h-7 q-41 0 -73 -20q-31 -20 -55.5 -70.5t-24.5 -150.5z" />
<glyph unicode="h" horiz-adv-x="876" d="M78 6v1559h231v-715q4 14 15.5 44t37 57.5t67.5 49t108 21.5q84 0 131 -37t69 -82q25 -53 31 -117v-442q0 -80 15.5 -122t35.5 -62q23 -23 53 -27q0 -49 -23.5 -76.5t-57 -39t-68.5 -11.5t-59 6q-57 14 -85 66.5t-40 111.5q-14 68 -15 150v463q2 18 -6 35q-8 14 -26.5 25 t-55.5 11q-35 0 -57.5 -19t-37.5 -46t-22.5 -54.5t-9.5 -41.5v-707h-231z" />
<glyph unicode="i" horiz-adv-x="333" d="M49 2v1028h236v-1028h-236zM49 1276q0 45 35 79t82 34q45 0 79 -34t34 -79q0 -47 -34 -82t-79 -35q-47 0 -82 35t-35 82z" />
<glyph unicode="j" horiz-adv-x="374" d="M-209 -303q2 -51 31 -88q25 -35 81 -61.5t165 -26.5q51 0 94 20.5t74.5 66.5t50 120.5t18.5 181.5v1114h-239v-1114q-4 -61 -13 -111q-8 -41 -20.5 -74.5t-32.5 -33.5q-31 0 -49 14q-20 15 -20 44q0 26 26 71q-13 1 -25 1q-31 0 -57 -7q-31 -10 -57.5 -36t-26.5 -81z M49 1276q0 45 35 79t82 34q45 0 79 -34t34 -79q0 -47 -34 -82t-79 -35q-47 0 -82 35t-35 82z" />
<glyph unicode="k" horiz-adv-x="856" d="M43 2v1561h238v-947l204 420h263l-279 -458q47 0 90 -11q37 -10 77 -31.5t64 -64.5l18.5 -47.5t12.5 -38.5q6 -20 6 -35q0 -84 16.5 -127t37.5 -63q23 -23 55 -25q0 -53 -24.5 -80.5t-58.5 -39.5q-31 -10 -65 -10h-6q-37 1 -61 7q-57 14 -86 62.5t-41 103.5t-12 105v63 q0 27 -4.5 43.5t-8.5 26.5q-6 10 -10 16q-18 16 -45 27q-23 10 -59 13q-9 1 -18 1q-30 0 -66 -8v-459v-4h-238z" />
<glyph unicode="l" horiz-adv-x="368" d="M61 0v1542h230v-1542h-230z" />
<glyph unicode="m" horiz-adv-x="1288" d="M86 2v1022h233v-90q25 35 77.5 62.5t127.5 27.5q49 0 84 -12.5t60.5 -33t42 -46t26.5 -51.5q8 20 23.5 45.5t42 47t63.5 36t90 14.5q88 0 135.5 -38t69.5 -83q25 -53 29 -119v-446q0 -84 16.5 -126t36.5 -62q23 -23 53 -25q0 -53 -23.5 -81t-55.5 -39q-30 -10 -62 -10h-6 q-35 1 -59 7q-59 14 -88 66.5t-41 111.5q-14 68 -15 152v469q0 20 -8 37q-8 14 -26.5 25t-55.5 11t-60.5 -20t-35.5 -53v-795h-246v795q0 20 -8 37q-8 14 -26.5 25t-55.5 11q-33 0 -62.5 -16t-42.5 -37v-819h-233z" />
<glyph unicode="n" horiz-adv-x="868" d="M78 6v1012h231v-168q4 14 15.5 44t37 57.5t67.5 49t108 21.5q84 0 131 -37t69 -82q25 -53 31 -117v-442q0 -80 15.5 -122t35.5 -62q23 -23 53 -27q0 -49 -23.5 -76.5t-57 -39t-68.5 -11.5t-59 6q-57 14 -85 66.5t-40 111.5q-14 68 -15 150v463q2 18 -6 35q-8 14 -26.5 25 t-55.5 11q-35 0 -57.5 -19t-37.5 -46t-22.5 -54.5t-9.5 -41.5v-707h-231z" />
<glyph unicode="o" d="M45 508q0 98 16.5 174t44 132t61.5 95t71 64q84 57 192 65q109 -8 195 -65q37 -25 71.5 -64t62 -95t45 -132t17.5 -174q0 -96 -17.5 -168t-45 -125t-62 -89t-71.5 -60q-86 -55 -195 -64q-109 8 -192 64q-37 25 -71 60.5t-61.5 88.5t-44 125t-16.5 168zM301 504 q0 -137 19.5 -206t44.5 -97q26 -31 57 -31h8q41 4 74 41q29 33 51.5 103.5t22.5 205.5q0 150 -24 222.5t-50 101.5q-28 28 -61 27q-6 0 -13 -1q-2 0 -4 1q-35 0 -61 -35q-25 -33 -44.5 -109t-19.5 -223z" />
<glyph unicode="p" horiz-adv-x="845" d="M84 -483v1513h240v-88q25 33 47 51.5t41 26.5q23 8 41 10q78 0 143.5 -22.5t113.5 -84t74.5 -169t26.5 -279.5q0 -168 -35 -264t-89 -145.5t-116.5 -61.5t-117.5 -12q-20 2 -43 10q-18 8 -41 24.5t-45 47.5v-557h-240zM317 193q27 -27 48.5 -39.5t37.5 -18.5q15 -7 27 -6 h6q39 0 65.5 4t42 37t22.5 107.5t7 216.5q0 137 -9 221t-25.5 128t-39 58t-50.5 14q-35 0 -59.5 -10t-41.5 -22q-18 -14 -31 -31v-659z" />
<glyph unicode="q" horiz-adv-x="882" d="M66 475q0 170 26.5 276.5t73.5 167t111.5 83t138.5 22.5q23 -2 45 -10q20 -8 43.5 -22.5t46.5 -37.5v70h231v-1503h-231v522q-29 -20 -61.5 -34.5t-67.5 -14.5q-55 0 -117.5 12t-116 60.5t-88 144.5t-34.5 264zM297 489q0 -139 7 -212.5t23.5 -106.5t43 -37t67.5 -4 q35 0 66 11.5t51 27.5v694q-16 14 -37 25q-16 10 -39.5 17t-52.5 7q-4 0 -7 1q-25 0 -45 -13q-24 -14 -41.5 -59t-26.5 -129.5t-9 -221.5z" />
<glyph unicode="r" horiz-adv-x="735" d="M82 0v1018h233v-217q6 31 19.5 70.5t37 74.5t59.5 58.5t85 23.5q78 0 115 -23.5t51 -55.5q13 -30 13 -58q0 -42 1 -49q0 -51 7.5 -80t16.5 -42t17 -16.5t13 -3.5q-16 -8 -37 -14q-16 -4 -37 -6t-43 4q-51 14 -78 46t-44 64.5t-35.5 58.5t-53.5 26q-20 0 -36.5 -25 t-30 -59.5t-23.5 -75.5l-17 -72v-647h-233z" />
<glyph unicode="s" horiz-adv-x="770" d="M25 244q0 27 8 51q6 23 20.5 45t40.5 41q29 20 60.5 25.5t56.5 5.5q29 -2 57 -9q-6 -12 -12 -28q-4 -14 -8 -37t-4 -51q0 -59 19.5 -89t41.5 -42q23 -13 55 -13h9q33 0 59 15q23 12 42 40.5t19 82.5q0 43 -12 65.5t-31.5 33.5t-46 18.5t-57.5 19.5l-102 40 q-57 22 -104.5 62.5t-73.5 107.5q-14 37 -14 85q0 39 9 86q16 84 73.5 130t119.5 68q72 25 156 29q121 0 185 -29.5t93 -64.5q33 -41 35 -94q0 -35 -6 -68q-6 -29 -18.5 -55.5t-39.5 -42.5q-39 -27 -77.5 -27t-73.5 10q-39 12 -76 37q59 20 66 77q1 11 1 22q0 45 -20 88 q-10 23 -25.5 33t-31.5 14q-18 6 -37 6q-33 -8 -55 -29q-20 -16 -37 -46t-17 -79q0 -16 2 -38.5t18.5 -46t52.5 -45t104 -36.5q106 -23 163.5 -70.5t83.5 -95.5q31 -55 33 -118q0 -63 -15.5 -110.5t-41 -81.5t-58 -56.5t-65.5 -34.5q-75 -29 -168 -29h-12q-129 0 -199 35 t-102 78q-37 52 -43 115z" />
<glyph unicode="t" horiz-adv-x="610" d="M16 870v156h93v152l235 122v-274h227v-156h-227v-532v-18q0 -34 6 -62q4 -29 16.5 -53.5t34.5 -24.5q18 0 29.5 13.5t15.5 29.5q6 18 7 43q33 2 57 -8q23 -10 41 -36.5t18 -82.5q-2 -39 -18 -69q-14 -27 -45 -48.5t-90 -21.5q-51 0 -105.5 13.5t-99.5 51t-73.5 103 t-28.5 170.5v532h-93z" />
<glyph unicode="u" horiz-adv-x="784" d="M6 903q0 51 21.5 80t52.5 40q28 10 58 10h5q33 -1 56 -7q53 -14 82.5 -67.5t42.5 -112.5q14 -68 14 -152l-10 -469q0 -20 8 -35q8 -14 24.5 -24t51.5 -10q25 0 43 19.5t30.5 46t19.5 53t9 40.5v711h236v-1026h-236v176q-4 -16 -14.5 -46t-34 -58.5t-63.5 -50t-101 -21.5 q-82 0 -124 37t-60 84q-23 53 -25 121l10 448q0 80 -15 123t-34 64q-22 22 -47 26z" />
<glyph unicode="v" horiz-adv-x="778" d="M10 893q0 51 18.5 79.5t46.5 41.5q24 11 48 10h8q29 -2 51 -10q45 -20 76 -72.5t51 -107.5q23 -66 39 -144l55 -383q0 -25 -5 -38t-9 -19q-8 -8 -14 -10q16 0 22 10t11 22q4 14 2 35l118 717h209l-233 -1024h-209l-143 664q-29 92 -53.5 139t-45.5 67q-23 23 -43 23z" />
<glyph unicode="w" horiz-adv-x="1247" d="M-8 899q0 51 19.5 81t46.5 42q24 11 49 10h9q30 -2 52 -10q45 -20 76.5 -72.5t52.5 -105.5q23 -63 39 -137l59 -398q0 -25 -5 -39t-9 -20q-8 -8 -14 -10q14 0 20 10t10 24t2 35l97 557q0 18 -9.5 25.5t-19.5 9.5q-12 2 -29 -2q0 51 19.5 81t47.5 42q24 11 49 10h8 q30 -2 52 -10q41 -16 71 -62.5t46 -97.5q20 -59 33 -129l82 -424q0 -49 -14.5 -59t-18.5 -10q16 0 23.5 10t11.5 24t2 35l125 719h213l-242 -1036h-213l-162 708l33 -172l-108 -536h-213l-146 686q-31 96 -57.5 141t-46.5 64q-23 20 -41 16z" />
<glyph unicode="x" horiz-adv-x="1007" d="M63 0l312 522q-31 18 -60.5 50t-52.5 92q-35 92 -68.5 140t-62.5 70q-33 25 -63 27q0 51 26.5 79t63.5 37q28 7 55 7l18 -1q37 -3 60 -11q31 -14 61.5 -53t58 -93.5t49 -117t32.5 -121.5l204 401h219l-294 -522q33 -16 64.5 -50t53.5 -94q35 -92 69 -143t62 -74 q33 -27 64 -30q0 -53 -26.5 -80t-63.5 -36q-28 -7 -56 -7q-9 0 -19 1q-38 3 -58 11q-31 14 -60.5 61.5t-56.5 106.5t-48.5 119.5t-33.5 101.5l-193 -393h-256z" />
<glyph unicode="y" horiz-adv-x="854" d="M-20 -258q51 -9 92 -9q34 0 61 6q61 13 98 36q43 27 70 65l35 201l-211 623q-31 94 -56.5 141t-45.5 67q-23 23 -41 23q0 51 19 80t47 41q24 11 49 10h8q30 -2 53 -10q45 -20 75.5 -73.5t51.5 -111.5q23 -68 39 -143l118 -448v16q0 16 -6 45l199 723h209l-318 -991 l-34 -228q-8 -49 -34 -85.5t-63 -64.5t-83 -47.5t-91 -31.5q-109 -31 -241 -35v201z" />
<glyph unicode="z" horiz-adv-x="897" d="M59 962q39 36 84 49t83 13t36 0t56 0h148h194h196l-528 -877l84 5q68 2 108.5 9t64 19.5t36 27.5t20.5 32q10 16 9 39.5t-5 46.5l-12 49q57 -10 104 -35q39 -23 72 -62q31 -38 31 -104v-8q-2 -72 -41 -106.5t-84 -48t-83 -13.5t-36 0t-30 0h-83q-51 0 -115.5 1t-127.5 1 h-121h-94l557 879q-20 -2 -34 -3l-26 -3q-12 -1 -29.5 -2t-46.5 -1q-68 -2 -108.5 -9t-64 -19.5t-36 -27.5t-20.5 -32q-10 -18 -10 -40.5t4 -45.5q4 -25 14 -49q-59 8 -104 33q-41 23 -73 63q-30 38 -30 104q0 77 41 115z" />
<glyph unicode="{" horiz-adv-x="665" d="M59 696v92q72 0 111 29t57 64q23 41 25 94v467q0 47 20 84q16 31 52 57.5t106 26.5q53 0 93 -14.5t67 -30.5q31 -20 49 -45l2 -11l-39 -24q-8 -4 -15 -8t-12 -9q-8 -4 -12 -8l-3 6q-3 6 -11 13.5t-20.5 14.5t-32.5 7t-31.5 -10t-18.5 -21q-8 -12 -8 -28q-2 -57 -2 -129 q-2 -61 -2 -148v-190q0 -96 -50 -150.5t-114 -83.5q63 -29 113.5 -82t50.5 -149v-191q0 -86 2 -147q0 -72 2 -129q0 -18 8 -31q6 -10 17.5 -19t32.5 -9q20 0 32.5 7t20.5 14t11 13l3 7q0 -2 11.5 -8.5t27.5 -16.5l39 -25l-2 -10q-18 -25 -49 -45q-27 -16 -67 -30.5 t-93 -14.5q-70 0 -105.5 25.5t-52.5 58.5q-20 37 -20 84v467q-2 51 -25 92q-18 35 -57 64.5t-111 29.5z" />
<glyph unicode="|" horiz-adv-x="374" d="M61 -354v1863h230v-1863h-230z" />
<glyph unicode="}" horiz-adv-x="694" d="M59 -25q20 14 39 25q14 10 26.5 16.5t12.5 8.5l3 -7q3 -6 10.5 -13t20.5 -14t34 -7q20 0 31.5 9t17.5 19q8 12 8 31q0 57 2 129q0 61 1 147.5t1 190.5q0 96 50.5 149.5t113.5 81.5q-63 29 -113.5 83.5t-50.5 150.5q0 104 -1 190t-1 148q-2 72 -2 129q0 16 -8 28 q-6 10 -17.5 20.5t-31.5 10.5t-33.5 -7t-21 -14t-10.5 -14l-3 -6q-4 4 -12 8q-14 6 -27 17q-18 10 -39 24l2 11q18 25 50 45q27 16 65.5 30.5t93.5 14.5q70 0 106 -27t52 -57q18 -37 21 -84v-467q2 -53 24 -94q18 -35 57 -64t111 -29v-92q-72 0 -110.5 -29.5t-57.5 -64.5 q-23 -41 -24 -92v-467q-2 -47 -21 -84q-16 -33 -52 -58.5t-106 -25.5q-55 0 -94 14.5t-65 30.5q-31 20 -50 45z" />
<glyph unicode="&#xa1;" horiz-adv-x="360" d="M297.004 -1.9082h-229.986l32.998 1160.93h163.99zM290.004 1392.01q0 -44.9971 -34.498 -78.4951q-34.4971 -33.498 -81.4941 -33.498q-44.998 0 -78.9961 33.498q-33.9971 33.498 -33.9971 78.4951q0 46.9971 33.9971 81.9951q33.998 34.998 78.9961 34.998 q46.9971 0 81.4941 -34.998q34.498 -34.998 34.498 -81.9951z" />
<glyph unicode="&#xa2;" horiz-adv-x="819" d="M68 500q0 143 29.5 239.5t74.5 157.5t95 93t93 46v269h175v-261q37 -6 78.5 -21t77.5 -42t59.5 -68t23.5 -102q0 -45 -9 -74.5t-24.5 -47t-35 -26t-39.5 -8.5q-49 -2 -109 25q12 10 21 33q6 16 4 45.5t-19 72.5q-14 27 -28 43v-739q27 8 49 33t22 82l178 -17 q0 -66 -25.5 -110.5t-62.5 -73.5t-81 -44t-80 -21v-220h-175v226q-43 12 -93 42.5t-95 89t-74.5 151t-29.5 227.5zM301 489q0 -121 17.5 -188.5t41.5 -101.5v630q-25 -43 -42 -124t-17 -216z" />
<glyph unicode="&#xa3;" horiz-adv-x="1101" d="M27 0q2 98 24 178q10 33 25.5 64.5t39 57.5t55.5 41t75 15l-4 289h-195v209h195v313q2 76 18 146.5t57 125t113 87.5t186 33q115 0 180.5 -46.5t98.5 -101.5q37 -66 49 -145h-76q-29 0 -53 1t-27 3q-2 2 -4 22.5t-17 44t-52 43t-107 19.5q-63 0 -97 -30t-49.5 -66.5 t-18.5 -70.5t-3 -44v-334h351v-209h-351v-289q41 -8 73 -21t54.5 -26.5t34.5 -24t16 -10.5q4 -2 15.5 -15t31 -28.5t49 -28t70.5 -12.5q45 0 70 13.5t37 29.5q14 20 16 46l166 -3q-2 -78 -26 -139q-23 -53 -71 -95t-145 -42q-72 0 -131 18.5t-101 40t-65.5 40t-25.5 18.5 t-11.5 8t-28.5 17.5t-50 17.5t-76 8q-68 0 -99.5 -26.5t-42 -57.5t-7.5 -57v-27h-166z" />
<glyph unicode="&#xa4;" horiz-adv-x="1327" d="M74 238l213 223q-41 57 -63.5 124.5t-22.5 141.5t23.5 141.5t64.5 124.5l-215 226l145 141l219 -230q53 33 115.5 50.5t134.5 17.5q66 0 125 -16.5t113 -44.5l213 223l145 -141l-205 -213q45 -59 70 -130t25 -149t-25 -147.5t-70 -128.5l205 -213l-145 -140l-211 221 q-53 -29 -113.5 -45t-126.5 -16q-72 0 -134 17.5t-118 50.5l-217 -228zM434 727q0 -66 19.5 -124t52.5 -101t78 -68.5t96 -25.5t96 25.5t79 68.5t53.5 101.5t19.5 123.5q0 66 -19.5 124t-53.5 101t-79 69t-96 26t-96 -26t-78 -69t-52.5 -101t-19.5 -124z" />
<glyph unicode="&#xa5;" horiz-adv-x="1275" d="M45 1509h254l281 -600h112l283 600h256l-336 -600h178v-209h-295l-51 -92v-129h346v-209h-346v-268h-229v268h-297v209h297v129l-47 92h-250v209h145z" />
<glyph unicode="&#xa6;" horiz-adv-x="346" d="M61 690v819h230v-819h-230zM70 -354v819h229v-819h-229z" />
<glyph unicode="&#xa7;" horiz-adv-x="1036" d="M43 1169q6 100 59 181q23 33 58 65.5t86 58t119.5 41t160.5 15.5q115 0 196 -17.5t135 -45t86 -61.5t47.5 -67.5t19.5 -63.5t2 -48q-4 -66 -37 -103t-74 -53q-47 -20 -104 -24q0 2 6 28.5t6 66.5t-10.5 85t-42 85t-88 65.5t-148.5 25.5q-90 0 -140 -25.5t-73 -54.5 q-29 -35 -33 -78q4 -61 31 -110q23 -41 73 -75t144 -34q133 0 214 -36t128 -77q53 -49 78 -110q18 -49 18.5 -94t-10 -84t-26 -68t-25.5 -45q43 -41 66.5 -86t33.5 -82q12 -45 15 -86q-6 -100 -60 -180q-23 -35 -57.5 -66.5t-85.5 -57.5t-119.5 -41t-161.5 -15 q-172 0 -270 36.5t-146 87t-59.5 100.5t-9.5 79q4 66 37 102.5t74 52.5q47 20 104 25q-2 -2 -7 -28.5t-5 -66.5t10 -85t42 -85t88 -65.5t149 -25.5q90 0 138 24.5t73 52.5q27 35 34 80q-4 59 -30 109q-23 41 -74 75.5t-143 34.5q-135 0 -215 35t-127 76q-53 49 -78 113 q-18 49 -18.5 94t10 83t24.5 66.5t25 44.5q-43 41 -65.5 85t-33.5 83q-12 45 -14 88zM240 856q2 -35 17 -76t53 -76.5t103.5 -60.5t172.5 -25q72 0 129 -12t100 -35q-4 33 -18.5 75t-51 78t-102 60.5t-172.5 24.5q-74 0 -130 12t-101 35z" />
<glyph unicode="&#xa8;" horiz-adv-x="763" d="M35 1348q0 45 34.5 78.5t82.5 33.5q45 0 78.5 -33.5t33.5 -78.5q0 -47 -33.5 -82t-78.5 -35q-47 0 -82 35t-35 82zM485 1339q0 45 35 79t82 34q45 0 79 -34t34 -79q0 -47 -34 -81.5t-79 -34.5q-47 0 -82 34.5t-35 81.5z" />
<glyph unicode="&#xaa;" horiz-adv-x="747" d="M61 244v32q0 104 24 173t62.5 111t86 61.5t93.5 24.5q23 3 44.5 3t42.5 -3q41 -5 65 -9v137q0 6 1 25.5t-4 41t-21.5 38t-48.5 16.5q-33 0 -51.5 -24.5t-28.5 -53.5q-12 -35 -17 -76q-59 -23 -104 -22h-7q-35 0 -64 18q-32 20 -32 80q0 76 51.5 117t112.5 59 q72 23 166 25q55 0 96 -10.5t71 -27.5t50.5 -39.5t32.5 -45.5q29 -53 31 -121v-774h-234v180q-4 -18 -14 -48t-33.5 -59.5t-62.5 -51t-101 -21.5q-80 0 -123 37t-61 84q-23 53 -23 123zM293 227q0 -20 8 -34q8 -12 25.5 -22.5t52.5 -10.5q25 0 41 18.5t28.5 45t19.5 52 t11 41.5v271q-43 0 -73.5 -15.5t-51 -41t-34 -58.5t-19.5 -65q-11 -53 -11 -116q0 -32 3 -65z" />
<glyph unicode="&#xab;" horiz-adv-x="1103" d="M63 549l326 475h215l-235 -483l221 -541h-209zM500 549l325 475h215l-235 -483l221 -541h-209z" />
<glyph unicode="&#xad;" horiz-adv-x="1019" d="M72 518v209h872v-209h-872z" />
<glyph unicode="&#xb0;" horiz-adv-x="618" d="M49 1231q0 55 20.5 104t55.5 85t83 57.5t101 21.5t100.5 -21.5t83 -57.5t56 -85t20.5 -104t-20.5 -103.5t-56 -85t-83 -57t-100.5 -20.5t-101 20.5t-83 57t-55.5 85t-20.5 103.5zM215 1245q0 -72 28.5 -123t67.5 -51q41 0 69 51.5t28 122.5q0 74 -28 125t-69 51 q-39 0 -67.5 -51t-28.5 -125z" />
<glyph unicode="&#xb1;" horiz-adv-x="1013" d="M111 779v215h305v334h215v-334h319v-215h-319v-340h-215v340h-305zM43 156v209h965v-209h-965z" />
<glyph unicode="&#xb2;" horiz-adv-x="1028" d="M37 180q-4 80 18.5 180.5t100.5 202.5q51 66 128.5 115t150.5 82t125 50t52 21q45 35 76 87q27 43 41 109.5t-8 160.5q-20 92 -57 141t-74 72q-43 27 -92 31q-51 -4 -97 -15q-39 -10 -77.5 -30.5t-57.5 -59.5q-29 -59 -41 -142t0 -163q-74 8 -118 63.5t-54 128 t17.5 146.5t97.5 119t150.5 61t149.5 18.5t115 -4.5l46 -6q94 -16 168 -65q63 -43 113.5 -125t47.5 -221q-2 -104 -31.5 -184.5t-72.5 -138.5t-93 -98t-92 -64.5t-70 -35t-28 -12.5t-27.5 -13t-67.5 -35t-88 -58.5t-88 -85t-67.5 -113.5t-27.5 -143q14 6 49 16t83 20.5 t107.5 20.5t124.5 16q51 4 105.5 3t105.5 -1t94.5 5.5t71.5 19.5q23 14 23 51q20 -86 2 -153q-8 -29 -25.5 -56.5t-49.5 -49t-79 -35t-115 -13.5h-127h-169h-180h-154q-31 86 -35 180z" />
<glyph unicode="&#xb3;" horiz-adv-x="1019" d="M39 418l252 8q12 -80 43 -143q27 -53 72 -97.5t118 -44.5q68 0 113 26t70.5 66.5t36 92t10.5 104.5q0 94 -41 145.5t-88 73.5q-55 27 -127 31h-199l14 170q80 0 147.5 14.5t117 48t77 87t27.5 133.5q0 90 -20.5 138t-50 69.5t-64.5 25.5t-64 6q-8 0 -40.5 -2t-67.5 -13 t-62.5 -37t-25.5 -71q2 -43 16 -65.5t33 -32.5q20 -12 47 -14q2 -31 -6 -54q-8 -20 -30.5 -37.5t-70.5 -21.5q-39 -4 -79.5 4t-74.5 32.5t-54.5 71t-20.5 117.5q0 86 38 138.5t99.5 79t142.5 34.5t169 8q115 0 206 -34q39 -16 76 -40t65.5 -61t47 -88t18.5 -121 q0 -145 -41 -223t-90 -115q-57 -43 -131 -49h24q24 0 59.5 -10t77.5 -31.5t78 -61.5t59.5 -101.5t23.5 -151.5q0 -115 -21.5 -197t-75 -133t-144.5 -74.5t-230 -23.5q-86 0 -150.5 18.5t-113 47t-82 66.5t-54.5 79q-51 94 -59 213z" />
<glyph unicode="&#xb4;" horiz-adv-x="284" d="M29 1100l80 342q6 20 18 37q10 14 28.5 23t51.5 7q31 -4 43 -16t14 -29q2 -18 -4 -39l-151 -327z" />
<glyph unicode="&#xb7;" horiz-adv-x="325" d="M49 629q0 45 35 78.5t82 33.5q45 0 79 -33.5t34 -78.5q0 -47 -34 -82t-79 -35q-47 0 -82 35t-35 82z" />
<glyph unicode="&#xb8;" horiz-adv-x="321" d="M31 -313l2 90l114 -23q18 -6 35 0q14 4 26.5 19.5t16.5 50.5q2 18 -11 26.5t-30 12.5q-20 4 -45 2h-94q6 41 10 74q4 29 6 50t-2 19t11 -2h32q23 0 50 2l-7 -74q45 16 80 11q29 -4 53.5 -33t22.5 -100q-2 -35 -16.5 -63t-38 -46t-51 -27.5t-54.5 -7.5q-23 2 -42 4t-36 6z " />
<glyph unicode="&#xb9;" horiz-adv-x="630" d="M41 1395q121 -4 186.5 12t96.5 39q37 25 43 61h229v-1507h-229v1296q-20 -29 -53 -55.5t-87 -26.5q-61 0 -98 28t-57 63q-23 39 -31 90z" />
<glyph unicode="&#xba;" d="M45 508q0 98 16.5 174t44 132t61.5 95t71 64q84 57 192 65q109 -8 195 -65q37 -25 71.5 -64t62 -95t45 -132t17.5 -174q0 -96 -17.5 -168t-45 -125t-62 -89t-71.5 -60q-86 -55 -195 -64q-109 8 -192 64q-37 25 -71 60.5t-61.5 88.5t-44 125t-16.5 168zM301 504 q0 -137 19.5 -206t44.5 -97q26 -31 57 -31h8q41 4 74 41q29 33 51.5 103.5t22.5 205.5q0 150 -24 222.5t-50 101.5q-28 28 -61 27q-6 0 -13 -1q-2 0 -4 1q-35 0 -61 -35q-25 -33 -44.5 -109t-19.5 -223z" />
<glyph unicode="&#xbb;" horiz-adv-x="1089" d="M63 1024h216l325 -475l-317 -549h-209l221 541zM500 1024h215l325 -475l-317 -549h-209l221 541z" />
<glyph unicode="&#xbc;" horiz-adv-x="2611" d="M1624 571l504 936l244 2v-854q117 0 161 -40t44 -126l2 -51h-207v-438h-229v438h-517zM1860 600l283 35v584l-181 -385q-51 -168 -102 -234zM717 -8l565 1509h230l-566 -1509h-229zM41 1395q121 -4 186.5 12t96.5 39q37 25 43 61h229v-1507h-229v1296q-20 -29 -53 -55.5 t-87 -26.5q-61 0 -98 28t-57 63q-23 39 -31 90z" />
<glyph unicode="&#xbd;" horiz-adv-x="2590" d="M1600 180q-4 80 18.5 180.5t100.5 202.5q51 66 128.5 115t150.5 82t125 50t52 21q45 35 76 87q27 43 41 109.5t-8 160.5q-20 92 -57 141t-74 72q-43 27 -92 31q-51 -4 -97 -15q-39 -10 -77.5 -30.5t-57.5 -59.5q-29 -59 -41 -142t0 -163q-74 8 -118 63.5t-54 128 t17.5 146.5t97.5 119t150.5 61t149.5 18.5t115 -4.5l46 -6q94 -16 168 -65q63 -43 113.5 -125t47.5 -221q-2 -104 -31.5 -184.5t-72.5 -138.5t-93 -98t-92 -64.5t-70 -35t-28 -12.5t-27.5 -13t-67.5 -35t-88 -58.5t-88 -85t-67.5 -113.5t-27.5 -143q14 6 49 16t83 20.5 t107.5 20.5t124.5 16q51 4 105.5 3t105.5 -1t94.5 5.5t71.5 19.5q23 14 23 51q20 -86 2 -153q-8 -29 -25.5 -56.5t-49.5 -49t-79 -35t-115 -13.5h-127h-169h-180h-154q-31 86 -35 180zM717 -8l565 1509h230l-566 -1509h-229zM41 1395q121 -4 186.5 12t96.5 39q37 25 43 61 h229v-1507h-229v1296q-20 -29 -53 -55.5t-87 -26.5q-61 0 -98 28t-57 63q-23 39 -31 90z" />
<glyph unicode="&#xbe;" horiz-adv-x="3000" d="M2013 571l504 936l244 2v-854q117 0 161 -40t44 -126l2 -51h-207v-438h-229v438h-517zM2249 600l283 35v584l-181 -385q-51 -168 -102 -234zM1106 -8l565 1509h230l-566 -1509h-229zM39 418l252 8q12 -80 43 -143q27 -53 72 -97.5t118 -44.5q68 0 113 26t70.5 66.5t36 92 t10.5 104.5q0 94 -41 145.5t-88 73.5q-55 27 -127 31h-199l14 170q80 0 147.5 14.5t117 48t77 87t27.5 133.5q0 90 -20.5 138t-50 69.5t-64.5 25.5t-64 6q-8 0 -40.5 -2t-67.5 -13t-62.5 -37t-25.5 -71q2 -43 16 -65.5t33 -32.5q20 -12 47 -14q2 -31 -6 -54 q-8 -20 -30.5 -37.5t-70.5 -21.5q-39 -4 -79.5 4t-74.5 32.5t-54.5 71t-20.5 117.5q0 86 38 138.5t99.5 79t142.5 34.5t169 8q115 0 206 -34q39 -16 76 -40t65.5 -61t47 -88t18.5 -121q0 -145 -41 -223t-90 -115q-57 -43 -131 -49h24q24 0 59.5 -10t77.5 -31.5t78 -61.5 t59.5 -101.5t23.5 -151.5q0 -115 -21.5 -197t-75 -133t-144.5 -74.5t-230 -23.5q-86 0 -150.5 18.5t-113 47t-82 66.5t-54.5 79q-51 94 -59 213z" />
<glyph unicode="&#xbf;" horiz-adv-x="835" d="M25 270q0 90 20.5 158t55 119t81.5 90t103 76q53 35 82.5 94t42.5 115q14 66 16 137l172 -2q4 -80 -12 -156q-14 -66 -48 -134.5t-100 -115.5q-68 -47 -110.5 -94t-67 -94t-34 -96.5t-9.5 -100.5q0 -102 27.5 -156.5t62.5 -78.5q39 -29 92 -31q29 0 61 12.5t59.5 38 t46 63.5t20.5 89q2 37 16 57.5t33 26.5q33 10 60.5 6t48 -13.5t30.5 -19.5t10 -12q0 -88 -27.5 -148.5t-69.5 -99.5t-91 -60.5t-92 -30.5t-73 -10t-32 1t-30.5 4t-70.5 11t-90 31.5t-89 62.5t-67.5 103.5t-26.5 157.5zM393 1288q0 47 33 79t80 32t78.5 -32t31.5 -79 t-31.5 -79.5t-78.5 -32.5t-80 32.5t-33 79.5z" />
<glyph unicode="&#xc0;" horiz-adv-x="1312" d="M47 0l481 1509h220l536 -1509h-256l-160 438q-16 -25 -39.5 -38t-60.5 -17q-25 -3 -56 -3q-15 0 -32 1q-51 2 -121 6l-129 10l-139 -397h-244zM473 520h358l-194 674zM551 1949q2 16 13 28.5t44 16.5q31 2 50.5 -7t29.5 -23q12 -16 18 -37l80 -342l-80 -2l-151 327 q-6 21 -4 39zM551 1949q2 16 13 28.5t44 16.5q31 2 50.5 -7t29.5 -23q12 -16 18 -37l80 -342l-80 -2l-151 327q-6 21 -4 39z" />
<glyph unicode="&#xc1;" horiz-adv-x="1312" d="M47 0l481 1509h220l536 -1509h-256l-160 438q-16 -25 -39.5 -38t-60.5 -17q-25 -3 -56 -3q-15 0 -32 1q-51 2 -121 6l-129 10l-139 -397h-244zM473 520h358l-194 674zM525 1585l80 342q6 20 18 37q10 14 28.5 23t51.5 7q31 -4 43 -16t14 -29q2 -18 -4 -39l-151 -327z" />
<glyph unicode="&#xc2;" horiz-adv-x="1312" d="M47 0l481 1509h220l536 -1509h-256l-160 438q-16 -25 -39.5 -38t-60.5 -17q-25 -3 -56 -3q-15 0 -32 1q-51 2 -121 6l-129 10l-139 -397h-244zM473 520h358l-194 674zM416 1585l149 342q6 20 19 37q10 14 28.5 23t51.5 7q27 -2 43 -12t26 -22q10 -14 15 -33l147 -342 l-80 -2l-157 252l-162 -252z" />
<glyph unicode="&#xc3;" horiz-adv-x="1312" d="M47 0l481 1509h220l536 -1509h-256l-160 438q-16 -25 -39.5 -38t-60.5 -17q-25 -3 -56 -3q-15 0 -32 1q-51 2 -121 6l-129 10l-139 -397h-244zM473 520h358l-194 674zM333 1683.5q-7 24.5 1 49t35 42.5q23 14 50.5 21.5t53.5 11.5q31 4 62 4q25 0 61.5 -8t75.5 -18.5 t79 -19.5t70 -9q31 0 54.5 8t40.5 18q18 12 32 29q25 -47 35 -72.5t9 -41t-12 -27.5t-30 -31q-31 -16 -70.5 -18t-74.5 4q-41 6 -84 20q-39 18 -78 27q-35 8 -73.5 10t-71.5 -10q-49 -20 -68 -39q-10 -10 -16 -21q-31 6 -52.5 26t-28.5 44.5z" />
<glyph unicode="&#xc4;" horiz-adv-x="1312" d="M47 0l481 1509h220l536 -1509h-256l-160 438q-16 -25 -39.5 -38t-60.5 -17q-25 -3 -56 -3q-15 0 -32 1q-51 2 -121 6l-129 10l-139 -397h-244zM473 520h358l-194 674zM316 1833q0 45 34.5 78.5t82.5 33.5q45 0 78.5 -33.5t33.5 -78.5q0 -47 -33.5 -82t-78.5 -35 q-47 0 -82 35t-35 82zM766 1824q0 45 35 79t82 34q45 0 79 -34t34 -79q0 -47 -34 -81.5t-79 -34.5q-47 0 -82 34.5t-35 81.5z" />
<glyph unicode="&#xc5;" horiz-adv-x="1312" d="M47 0l481 1509h220l536 -1509h-256l-160 438q-16 -25 -39.5 -38t-60.5 -17q-25 -3 -56 -3q-15 0 -32 1q-51 2 -121 6l-129 10l-139 -397h-244zM473 520h358l-194 674zM445 1785q0 43 16.5 82t45 68t67.5 45t82 16t82 -16t67.5 -45t45 -68t16.5 -82t-16.5 -81.5t-45 -67.5 t-67.5 -45t-82 -16t-82 16t-67.5 45t-45 67.5t-16.5 81.5zM576 1790q0 -55 23.5 -93t58.5 -38t59.5 37.5t24.5 93.5q0 55 -24.5 94t-59.5 39t-58.5 -39t-23.5 -94z" />
<glyph unicode="&#xc6;" horiz-adv-x="1966" d="M39 0l762 1507l1087 2l-2 -51q0 -55 -16.5 -91t-58.5 -54.5t-111.5 -20.5t-175.5 13l-330 41v-682h418l-2 -52q0 -51 -18.5 -79.5t-54.5 -41t-89 -11.5t-121 9l-133 15v-344l360 45q106 14 176 12t112 -20.5t58.5 -54.5t16.5 -91l2 -51h-954v506h-420l-256 -506h-250z M625 664h340v673z" />
<glyph unicode="&#xc7;" horiz-adv-x="1226" d="M43 750q0 162 52 305t141.5 249.5t210 168t255.5 61.5q51 0 119 -11.5t131.5 -36t116.5 -63.5t78 -92q23 -54 23 -97q0 -19 -5 -35q-14 -54 -47 -89q-37 -41 -98 -68q0 82 -24.5 137.5t-60.5 92.5t-78 56.5t-78 28.5t-60.5 10t-22.5 1q-117 -10 -209 -78 q-39 -29 -75.5 -74t-66.5 -109.5t-47 -152.5t-17 -202q0 -111 18 -196t47 -147.5t67 -105.5t79 -70q92 -66 210 -73q49 2 101 18q43 14 95 44t99 85l207 -67q-92 -127 -222 -201t-280 -74q-135 0 -255.5 61.5t-210 168t-141.5 250t-52 305.5zM475 -313l2 90l114 -23 q18 -6 35 0q14 4 26.5 19.5t16.5 50.5q2 18 -11 26.5t-30 12.5q-20 4 -45 2h-94q6 41 10 74q4 29 6 50t-2 19t11 -2h32q23 0 50 2l-7 -74q45 16 80 11q29 -4 53.5 -33t22.5 -100q-2 -35 -16.5 -63t-38 -46t-51 -27.5t-54.5 -7.5q-23 2 -42 4t-36 6z" />
<glyph unicode="&#xc8;" horiz-adv-x="1062" d="M61 0v1509h924l-2 -51q0 -55 -16.5 -91t-58.5 -54.5t-111 -20.5h-18q-65 0 -158 13l-330 41v-463h418l-2 -52q0 -51 -18.5 -79.5t-54.5 -40.5q-33 -11 -81 -12h-8q-53 1 -121 10l-133 14v-563l360 45q93 13 158 12h18q70 -2 112 -20.5t58.5 -54.5t16.5 -91l2 -51h-955z M426 1949q2 16 13 28.5t44 16.5q31 2 50.5 -7t29.5 -23q12 -16 18 -37l80 -342l-80 -2l-151 327q-6 21 -4 39zM426 1949q2 16 13 28.5t44 16.5q31 2 50.5 -7t29.5 -23q12 -16 18 -37l80 -342l-80 -2l-151 327q-6 21 -4 39z" />
<glyph unicode="&#xc9;" horiz-adv-x="1062" d="M61 0v1509h924l-2 -51q0 -55 -16.5 -91t-58.5 -54.5t-111 -20.5h-18q-65 0 -158 13l-330 41v-463h418l-2 -52q0 -51 -18.5 -79.5t-54.5 -40.5q-33 -11 -81 -12h-8q-53 1 -121 10l-133 14v-563l360 45q93 13 158 12h18q70 -2 112 -20.5t58.5 -54.5t16.5 -91l2 -51h-955z M400 1585l80 342q6 20 18 37q10 14 28.5 23t51.5 7q31 -4 43 -16t14 -29q2 -18 -4 -39l-151 -327z" />
<glyph unicode="&#xca;" horiz-adv-x="1062" d="M61 0v1509h924l-2 -51q0 -55 -16.5 -91t-58.5 -54.5t-111 -20.5h-18q-65 0 -158 13l-330 41v-463h418l-2 -52q0 -51 -18.5 -79.5t-54.5 -40.5q-33 -11 -81 -12h-8q-53 1 -121 10l-133 14v-563l360 45q93 13 158 12h18q70 -2 112 -20.5t58.5 -54.5t16.5 -91l2 -51h-955z M291 1585l149 342q6 20 19 37q10 14 28.5 23t51.5 7q27 -2 43 -12t26 -22q10 -14 15 -33l147 -342l-80 -2l-157 252l-162 -252z" />
<glyph unicode="&#xcb;" horiz-adv-x="1062" d="M61 0v1509h924l-2 -51q0 -55 -16.5 -91t-58.5 -54.5t-111 -20.5h-18q-65 0 -158 13l-330 41v-463h418l-2 -52q0 -51 -18.5 -79.5t-54.5 -40.5q-33 -11 -81 -12h-8q-53 1 -121 10l-133 14v-563l360 45q93 13 158 12h18q70 -2 112 -20.5t58.5 -54.5t16.5 -91l2 -51h-955z M191 1833q0 45 34.5 78.5t82.5 33.5q45 0 78.5 -33.5t33.5 -78.5q0 -47 -33.5 -82t-78.5 -35q-47 0 -82 35t-35 82zM641 1824q0 45 35 79t82 34q45 0 79 -34t34 -79q0 -47 -34 -81.5t-79 -34.5q-47 0 -82 34.5t-35 81.5z" />
<glyph unicode="&#xcc;" horiz-adv-x="354" d="M61 0v1509h230v-1509h-230zM-2 1949q2 16 13 28.5t44 16.5q31 2 50.5 -7t29.5 -23q12 -16 18 -37l80 -342l-80 -2l-151 327q-6 21 -4 39zM-2 1949q2 16 13 28.5t44 16.5q31 2 50.5 -7t29.5 -23q12 -16 18 -37l80 -342l-80 -2l-151 327q-6 21 -4 39z" />
<glyph unicode="&#xcd;" horiz-adv-x="354" d="M61 0v1509h230v-1509h-230zM135 1585l80 342q6 20 18 37q10 14 28.5 23t51.5 7q31 -4 43 -16t14 -29q2 -18 -4 -39l-151 -327z" />
<glyph unicode="&#xce;" horiz-adv-x="354" d="M61 0v1509h230v-1509h-230zM-59 1585l149 342q6 20 19 37q10 14 28.5 23t51.5 7q27 -2 43 -12t26 -22q10 -14 15 -33l147 -342l-80 -2l-157 252l-162 -252z" />
<glyph unicode="&#xcf;" horiz-adv-x="354" d="M61 0v1509h230v-1509h-230zM-160 1833q0 45 34.5 78.5t82.5 33.5q45 0 78.5 -33.5t33.5 -78.5q0 -47 -33.5 -82t-78.5 -35q-47 0 -82 35t-35 82zM290 1824q0 45 35 79t82 34q45 0 79 -34t34 -79q0 -47 -34 -81.5t-79 -34.5q-47 0 -82 34.5t-35 81.5z" />
<glyph unicode="&#xd0;" horiz-adv-x="1415" d="M57 625v209h226v675l342 -2q-20 0 -1 -1t67 -10t114.5 -27.5t140.5 -54.5t146.5 -91t131 -135t94.5 -188.5t36 -249.5q0 -188 -54.5 -315.5t-135.5 -210.5t-175 -128t-175 -65.5t-135 -24.5t-54 -6h-342v625h-226zM512 174q39 6 98.5 8t126 14.5t133 42t119.5 92t87 163 t34 256.5q0 152 -35 253t-89 164.5t-121.5 95t-134 46t-125 16.5t-93.5 8v-499h418v-209h-418v-451z" />
<glyph unicode="&#xd1;" horiz-adv-x="1179" d="M61 0v1509h287l518 -1169v1169h203v-1509h-233l-572 1241v-1241h-203zM267 1683.5q-7 24.5 1 49t35 42.5q23 14 50.5 21.5t53.5 11.5q31 4 62 4q25 0 61.5 -8t75.5 -18.5t79 -19.5t70 -9q31 0 54.5 8t40.5 18q18 12 32 29q25 -47 35 -72.5t9 -41t-12 -27.5t-30 -31 q-31 -16 -70.5 -18t-74.5 4q-41 6 -84 20q-39 18 -78 27q-35 8 -73.5 10t-71.5 -10q-49 -20 -68 -39q-10 -10 -16 -21q-31 6 -52.5 26t-28.5 44.5z" />
<glyph unicode="&#xd2;" horiz-adv-x="1404" d="M43 750q0 162 52 305t141.5 249.5t210 168t255.5 61.5t256 -61.5t212.5 -168t143.5 -250t52 -304.5q0 -162 -52 -305.5t-143.5 -250t-212 -168t-256.5 -61.5q-135 0 -255.5 61.5t-210 168t-141.5 250t-52 305.5zM281 752q0 -111 18 -196t47 -147.5t67 -105.5t79 -70 q92 -66 210 -73q119 8 216 73q39 27 77.5 70t69.5 105.5t49.5 147.5t18.5 196t-19.5 194.5t-50.5 146t-70 105.5t-80 72q-96 68 -217 78q-117 -10 -209 -78q-39 -29 -75.5 -72t-66.5 -105.5t-47 -146t-17 -194.5zM496 1949q2 16 13 28.5t44 16.5q31 2 50.5 -7t29.5 -23 q12 -16 18 -37l80 -342l-80 -2l-151 327q-6 21 -4 39zM496 1949q2 16 13 28.5t44 16.5q31 2 50.5 -7t29.5 -23q12 -16 18 -37l80 -342l-80 -2l-151 327q-6 21 -4 39z" />
<glyph unicode="&#xd3;" horiz-adv-x="1404" d="M43 750q0 162 52 305t141.5 249.5t210 168t255.5 61.5t256 -61.5t212.5 -168t143.5 -250t52 -304.5q0 -162 -52 -305.5t-143.5 -250t-212 -168t-256.5 -61.5q-135 0 -255.5 61.5t-210 168t-141.5 250t-52 305.5zM281 752q0 -111 18 -196t47 -147.5t67 -105.5t79 -70 q92 -66 210 -73q119 8 216 73q39 27 77.5 70t69.5 105.5t49.5 147.5t18.5 196t-19.5 194.5t-50.5 146t-70 105.5t-80 72q-96 68 -217 78q-117 -10 -209 -78q-39 -29 -75.5 -72t-66.5 -105.5t-47 -146t-17 -194.5zM572 1585l80 342q6 20 18 37q10 14 28.5 23t51.5 7 q31 -4 43 -16t14 -29q2 -18 -4 -39l-151 -327z" />
<glyph unicode="&#xd4;" horiz-adv-x="1404" d="M43 750q0 162 52 305t141.5 249.5t210 168t255.5 61.5t256 -61.5t212.5 -168t143.5 -250t52 -304.5q0 -162 -52 -305.5t-143.5 -250t-212 -168t-256.5 -61.5q-135 0 -255.5 61.5t-210 168t-141.5 250t-52 305.5zM281 752q0 -111 18 -196t47 -147.5t67 -105.5t79 -70 q92 -66 210 -73q119 8 216 73q39 27 77.5 70t69.5 105.5t49.5 147.5t18.5 196t-19.5 194.5t-50.5 146t-70 105.5t-80 72q-96 68 -217 78q-117 -10 -209 -78q-39 -29 -75.5 -72t-66.5 -105.5t-47 -146t-17 -194.5zM463 1585l149 342q6 20 19 37q10 14 28.5 23t51.5 7 q27 -2 43 -12t26 -22q10 -14 15 -33l147 -342l-80 -2l-157 252l-162 -252z" />
<glyph unicode="&#xd5;" horiz-adv-x="1404" d="M43 750q0 162 52 305t141.5 249.5t210 168t255.5 61.5t256 -61.5t212.5 -168t143.5 -250t52 -304.5q0 -162 -52 -305.5t-143.5 -250t-212 -168t-256.5 -61.5q-135 0 -255.5 61.5t-210 168t-141.5 250t-52 305.5zM281 752q0 -111 18 -196t47 -147.5t67 -105.5t79 -70 q92 -66 210 -73q119 8 216 73q39 27 77.5 70t69.5 105.5t49.5 147.5t18.5 196t-19.5 194.5t-50.5 146t-70 105.5t-80 72q-96 68 -217 78q-117 -10 -209 -78q-39 -29 -75.5 -72t-66.5 -105.5t-47 -146t-17 -194.5zM380 1683.5q-7 24.5 1 49t35 42.5q23 14 50.5 21.5 t53.5 11.5q31 4 62 4q25 0 61.5 -8t75.5 -18.5t79 -19.5t70 -9q31 0 54.5 8t40.5 18q18 12 32 29q25 -47 35 -72.5t9 -41t-12 -27.5t-30 -31q-31 -16 -70.5 -18t-74.5 4q-41 6 -84 20q-39 18 -78 27q-35 8 -73.5 10t-71.5 -10q-49 -20 -68 -39q-10 -10 -16 -21 q-31 6 -52.5 26t-28.5 44.5z" />
<glyph unicode="&#xd6;" horiz-adv-x="1404" d="M43 750q0 162 52 305t141.5 249.5t210 168t255.5 61.5t256 -61.5t212.5 -168t143.5 -250t52 -304.5q0 -162 -52 -305.5t-143.5 -250t-212 -168t-256.5 -61.5q-135 0 -255.5 61.5t-210 168t-141.5 250t-52 305.5zM281 752q0 -111 18 -196t47 -147.5t67 -105.5t79 -70 q92 -66 210 -73q119 8 216 73q39 27 77.5 70t69.5 105.5t49.5 147.5t18.5 196t-19.5 194.5t-50.5 146t-70 105.5t-80 72q-96 68 -217 78q-117 -10 -209 -78q-39 -29 -75.5 -72t-66.5 -105.5t-47 -146t-17 -194.5zM363 1833q0 45 34.5 78.5t82.5 33.5q45 0 78.5 -33.5 t33.5 -78.5q0 -47 -33.5 -82t-78.5 -35q-47 0 -82 35t-35 82zM813 1824q0 45 35 79t82 34q45 0 79 -34t34 -79q0 -47 -34 -81.5t-79 -34.5q-47 0 -82 34.5t-35 81.5z" />
<glyph unicode="&#xd7;" horiz-adv-x="956" d="M68 377l264 276l-264 277l161 155l258 -270l256 270l162 -155l-264 -277l264 -276l-162 -154l-256 269l-258 -269z" />
<glyph unicode="&#xd8;" horiz-adv-x="1404" d="M43 750q0 162 52 305t141.5 249.5t210 168t255.5 61.5q96 0 183 -31l59 150h230l-101 -256q133 -106 213 -275.5t80 -371.5q0 -162 -52 -305.5t-143.5 -250t-212 -168t-256.5 -61.5q-88 0 -174 29l-69 -182h-230l111 282q-68 53 -122 124t-93 155t-60.5 179.5 t-21.5 197.5zM281 752q0 -172 39.5 -279.5t97.5 -173.5l397 1022q-27 10 -47 14t-37 8q-18 4 -35 5q-117 -10 -209 -78q-39 -29 -75.5 -72t-66.5 -105.5t-47 -146t-17 -194.5zM602 178q23 -8 40 -11t32 -5q16 -2 28 -2q119 8 216 73q39 27 77.5 70t69.5 105.5t49.5 147.5 t18.5 196q0 164 -40 271t-98 173z" />
<glyph unicode="&#xd9;" horiz-adv-x="1165" d="M51 678v831h230v-829q0 -98 13 -173t34.5 -131.5t48 -94t55.5 -62.5q68 -57 152 -65q82 6 147 63q27 25 54.5 62.5t48 93t34 131.5t13.5 176v829h229v-831q2 -324 -126 -501t-400 -177t-402.5 177t-130.5 501zM478 1949q2 16 13 28.5t44 16.5q31 2 50.5 -7t29.5 -23 q12 -16 18 -37l80 -342l-80 -2l-151 327q-6 21 -4 39zM478 1949q2 16 13 28.5t44 16.5q31 2 50.5 -7t29.5 -23q12 -16 18 -37l80 -342l-80 -2l-151 327q-6 21 -4 39z" />
<glyph unicode="&#xda;" horiz-adv-x="1165" d="M51 678v831h230v-829q0 -98 13 -173t34.5 -131.5t48 -94t55.5 -62.5q68 -57 152 -65q82 6 147 63q27 25 54.5 62.5t48 93t34 131.5t13.5 176v829h229v-831q2 -324 -126 -501t-400 -177t-402.5 177t-130.5 501zM451 1585l80 342q6 20 18 37q10 14 28.5 23t51.5 7 q31 -4 43 -16t14 -29q2 -18 -4 -39l-151 -327z" />
<glyph unicode="&#xdb;" horiz-adv-x="1165" d="M51 678v831h230v-829q0 -98 13 -173t34.5 -131.5t48 -94t55.5 -62.5q68 -57 152 -65q82 6 147 63q27 25 54.5 62.5t48 93t34 131.5t13.5 176v829h229v-831q2 -324 -126 -501t-400 -177t-402.5 177t-130.5 501zM342 1585l149 342q6 20 19 37q10 14 28.5 23t51.5 7 q27 -2 43 -12t26 -22q10 -14 15 -33l147 -342l-80 -2l-157 252l-162 -252z" />
<glyph unicode="&#xdc;" horiz-adv-x="1165" d="M51 678v831h230v-829q0 -98 13 -173t34.5 -131.5t48 -94t55.5 -62.5q68 -57 152 -65q82 6 147 63q27 25 54.5 62.5t48 93t34 131.5t13.5 176v829h229v-831q2 -324 -126 -501t-400 -177t-402.5 177t-130.5 501zM242 1833q0 45 34.5 78.5t82.5 33.5q45 0 78.5 -33.5 t33.5 -78.5q0 -47 -33.5 -82t-78.5 -35q-47 0 -82 35t-35 82zM692 1824q0 45 35 79t82 34q45 0 79 -34t34 -79q0 -47 -34 -81.5t-79 -34.5q-47 0 -82 34.5t-35 81.5z" />
<glyph unicode="&#xdd;" horiz-adv-x="1275" d="M45 1509h254l338 -718l338 718h256l-504 -901v-606h-229v606zM506 1585l80 342q6 20 18 37q10 14 28.5 23t51.5 7q31 -4 43 -16t14 -29q2 -18 -4 -39l-151 -327z" />
<glyph unicode="&#xde;" horiz-adv-x="999" d="M61 0v1554h226v-256h4q2 0 51 -3t122 -16t157 -43t156.5 -84t120.5 -137t48 -202q0 -96 -28.5 -170t-74.5 -129t-104.5 -93t-120.5 -63q-143 -57 -327 -65v-293h-230zM287 1167l4 -737l75 5q46 3 96 14.5t100 33t90 63.5t65.5 106.5t25.5 160.5q0 90 -26.5 151.5 t-68.5 100.5t-94 59.5t-102.5 29.5t-94 10t-70.5 3z" />
<glyph unicode="&#xdf;" horiz-adv-x="1124" d="M92 0v1212q0 106 36 173t94.5 105t132 52t149.5 14q2 0 35.5 -1t82 -9t105.5 -25.5t106.5 -49t82 -81t36.5 -122.5q4 -113 -34.5 -179.5t-86.5 -103.5q-57 -43 -131 -59q72 0 126.5 -21.5t94.5 -56.5t66.5 -80t44.5 -90q41 -109 47 -246q-4 -82 -20.5 -143.5t-41 -107.5 t-54 -76.5t-60.5 -51.5q-74 -47 -164 -53q-133 0 -203.5 27.5t-101.5 62.5q-37 39 -39 92q-2 57 15.5 96t46.5 66q27 25 61.5 34t67 9t55.5 -3t25 -3q-2 -2 -9.5 -7t-14.5 -20.5t-12 -44t-5 -78.5q0 -35 16 -51t39 -24t55 -9q27 4 49 33q18 25 34 76t16 150q0 119 -26 202.5 t-66 139t-86 86t-87 46t-68.5 19.5t-31.5 4v35l34 6q34 6 76 35t75.5 89t33.5 173q0 76 -29.5 116t-64.5 60q-41 23 -94 27q-66 0 -99.5 -19.5t-50.5 -42.5q-18 -27 -18 -59v-1323h-240z" />
<glyph unicode="&#xe0;" horiz-adv-x="747" d="M61 244v32q0 104 24 173t62.5 111t86 61.5t93.5 24.5q23 3 44.5 3t42.5 -3q41 -5 65 -9v137q0 6 1 25.5t-4 41t-21.5 38t-48.5 16.5q-33 0 -51.5 -24.5t-28.5 -53.5q-12 -35 -17 -76q-59 -23 -104 -22h-7q-35 0 -64 18q-32 20 -32 80q0 76 51.5 117t112.5 59 q72 23 166 25q55 0 96 -10.5t71 -27.5t50.5 -39.5t32.5 -45.5q29 -53 31 -121v-774h-234v180q-4 -18 -14 -48t-33.5 -59.5t-62.5 -51t-101 -21.5q-80 0 -123 37t-61 84q-23 53 -23 123zM293 227q0 -20 8 -34q8 -12 25.5 -22.5t52.5 -10.5q25 0 41 18.5t28.5 45t19.5 52 t11 41.5v271q-43 0 -73.5 -15.5t-51 -41t-34 -58.5t-19.5 -65q-11 -53 -11 -116q0 -32 3 -65zM269 1464q2 16 13 28.5t44 16.5q31 2 50.5 -7t29.5 -23q12 -16 18 -37l80 -342l-80 -2l-151 327q-6 21 -4 39zM269 1464q2 16 13 28.5t44 16.5q31 2 50.5 -7t29.5 -23 q12 -16 18 -37l80 -342l-80 -2l-151 327q-6 21 -4 39z" />
<glyph unicode="&#xe1;" horiz-adv-x="747" d="M61 244v32q0 104 24 173t62.5 111t86 61.5t93.5 24.5q23 3 44.5 3t42.5 -3q41 -5 65 -9v137q0 6 1 25.5t-4 41t-21.5 38t-48.5 16.5q-33 0 -51.5 -24.5t-28.5 -53.5q-12 -35 -17 -76q-59 -23 -104 -22h-7q-35 0 -64 18q-32 20 -32 80q0 76 51.5 117t112.5 59 q72 23 166 25q55 0 96 -10.5t71 -27.5t50.5 -39.5t32.5 -45.5q29 -53 31 -121v-774h-234v180q-4 -18 -14 -48t-33.5 -59.5t-62.5 -51t-101 -21.5q-80 0 -123 37t-61 84q-23 53 -23 123zM293 227q0 -20 8 -34q8 -12 25.5 -22.5t52.5 -10.5q25 0 41 18.5t28.5 45t19.5 52 t11 41.5v271q-43 0 -73.5 -15.5t-51 -41t-34 -58.5t-19.5 -65q-11 -53 -11 -116q0 -32 3 -65zM381 1100l80 342q6 20 18 37q10 14 28.5 23t51.5 7q31 -4 43 -16t14 -29q2 -18 -4 -39l-151 -327z" />
<glyph unicode="&#xe2;" horiz-adv-x="747" d="M61 244v32q0 104 24 173t62.5 111t86 61.5t93.5 24.5q23 3 44.5 3t42.5 -3q41 -5 65 -9v137q0 6 1 25.5t-4 41t-21.5 38t-48.5 16.5q-33 0 -51.5 -24.5t-28.5 -53.5q-12 -35 -17 -76q-59 -23 -104 -22h-7q-35 0 -64 18q-32 20 -32 80q0 76 51.5 117t112.5 59 q72 23 166 25q55 0 96 -10.5t71 -27.5t50.5 -39.5t32.5 -45.5q29 -53 31 -121v-774h-234v180q-4 -18 -14 -48t-33.5 -59.5t-62.5 -51t-101 -21.5q-80 0 -123 37t-61 84q-23 53 -23 123zM293 227q0 -20 8 -34q8 -12 25.5 -22.5t52.5 -10.5q25 0 41 18.5t28.5 45t19.5 52 t11 41.5v271q-43 0 -73.5 -15.5t-51 -41t-34 -58.5t-19.5 -65q-11 -53 -11 -116q0 -32 3 -65zM209 1100l149 342q6 20 19 37q10 14 28.5 23t51.5 7q27 -2 43 -12t26 -22q10 -14 15 -33l147 -342l-80 -2l-157 252l-162 -252z" />
<glyph unicode="&#xe3;" horiz-adv-x="747" d="M61 244v32q0 104 24 173t62.5 111t86 61.5t93.5 24.5q23 3 44.5 3t42.5 -3q41 -5 65 -9v137q0 6 1 25.5t-4 41t-21.5 38t-48.5 16.5q-33 0 -51.5 -24.5t-28.5 -53.5q-12 -35 -17 -76q-59 -23 -104 -22h-7q-35 0 -64 18q-32 20 -32 80q0 76 51.5 117t112.5 59 q72 23 166 25q55 0 96 -10.5t71 -27.5t50.5 -39.5t32.5 -45.5q29 -53 31 -121v-774h-234v180q-4 -18 -14 -48t-33.5 -59.5t-62.5 -51t-101 -21.5q-80 0 -123 37t-61 84q-23 53 -23 123zM293 227q0 -20 8 -34q8 -12 25.5 -22.5t52.5 -10.5q25 0 41 18.5t28.5 45t19.5 52 t11 41.5v271q-43 0 -73.5 -15.5t-51 -41t-34 -58.5t-19.5 -65q-11 -53 -11 -116q0 -32 3 -65zM50 1198.5q-7 24.5 1 49t35 42.5q23 14 50.5 21.5t53.5 11.5q31 4 62 4q25 0 61.5 -8t75.5 -18.5t79 -19.5t70 -9q31 0 54.5 8t40.5 18q18 12 32 29q25 -47 35 -72.5t9 -41 t-12 -27.5t-30 -31q-31 -16 -70.5 -18t-74.5 4q-41 6 -84 20q-39 18 -78 27q-35 8 -73.5 10t-71.5 -10q-49 -20 -68 -39q-10 -10 -16 -21q-31 6 -52.5 26t-28.5 44.5z" />
<glyph unicode="&#xe4;" horiz-adv-x="747" d="M61 244v32q0 104 24 173t62.5 111t86 61.5t93.5 24.5q23 3 44.5 3t42.5 -3q41 -5 65 -9v137q0 6 1 25.5t-4 41t-21.5 38t-48.5 16.5q-33 0 -51.5 -24.5t-28.5 -53.5q-12 -35 -17 -76q-59 -23 -104 -22h-7q-35 0 -64 18q-32 20 -32 80q0 76 51.5 117t112.5 59 q72 23 166 25q55 0 96 -10.5t71 -27.5t50.5 -39.5t32.5 -45.5q29 -53 31 -121v-774h-234v180q-4 -18 -14 -48t-33.5 -59.5t-62.5 -51t-101 -21.5q-80 0 -123 37t-61 84q-23 53 -23 123zM293 227q0 -20 8 -34q8 -12 25.5 -22.5t52.5 -10.5q25 0 41 18.5t28.5 45t19.5 52 t11 41.5v271q-43 0 -73.5 -15.5t-51 -41t-34 -58.5t-19.5 -65q-11 -53 -11 -116q0 -32 3 -65zM35 1348q0 45 34.5 78.5t82.5 33.5q45 0 78.5 -33.5t33.5 -78.5q0 -47 -33.5 -82t-78.5 -35q-47 0 -82 35t-35 82zM485 1339q0 45 35 79t82 34q45 0 79 -34t34 -79 q0 -47 -34 -81.5t-79 -34.5q-47 0 -82 34.5t-35 81.5z" />
<glyph unicode="&#xe5;" horiz-adv-x="747" d="M61 244v32q0 104 24 173t62.5 111t86 61.5t93.5 24.5q23 3 44.5 3t42.5 -3q41 -5 65 -9v137q0 6 1 25.5t-4 41t-21.5 38t-48.5 16.5q-33 0 -51.5 -24.5t-28.5 -53.5q-12 -35 -17 -76q-59 -23 -104 -22h-7q-35 0 -64 18q-32 20 -32 80q0 76 51.5 117t112.5 59 q72 23 166 25q55 0 96 -10.5t71 -27.5t50.5 -39.5t32.5 -45.5q29 -53 31 -121v-774h-234v180q-4 -18 -14 -48t-33.5 -59.5t-62.5 -51t-101 -21.5q-80 0 -123 37t-61 84q-23 53 -23 123zM293 227q0 -20 8 -34q8 -12 25.5 -22.5t52.5 -10.5q25 0 41 18.5t28.5 45t19.5 52 t11 41.5v271q-43 0 -73.5 -15.5t-51 -41t-34 -58.5t-19.5 -65q-11 -53 -11 -116q0 -32 3 -65zM162 1300q0 43 16.5 82t45 68t67.5 45t82 16t82 -16t67.5 -45t45 -68t16.5 -82t-16.5 -81.5t-45 -67.5t-67.5 -45t-82 -16t-82 16t-67.5 45t-45 67.5t-16.5 81.5zM293 1305 q0 -55 23.5 -93t58.5 -38t59.5 37.5t24.5 93.5q0 55 -24.5 94t-59.5 39t-58.5 -39t-23.5 -94z" />
<glyph unicode="&#xe6;" horiz-adv-x="1206" d="M35 244v32q0 104 23.5 173t62.5 111t86 61.5t93 24.5t87 0t66 -9v137q0 6 1 25.5t-4.5 41t-21.5 38t-49 16.5t-51.5 -24.5t-28.5 -53.5q-12 -35 -16 -76q-59 -23 -105 -22q-39 -2 -70.5 18.5t-31.5 79.5q0 76 51 117t113 59q72 23 166 25q78 0 128 -20.5t80 -51.5 q39 35 79 53.5t73 28.5q37 10 72 12q84 -2 151 -36q57 -29 105.5 -94.5t48.5 -184.5q0 -115 -51.5 -173t-124 -85t-149.5 -31t-128 -10q8 -111 31.5 -167t50.5 -85q31 -33 66 -37q41 -4 75 6q29 10 52.5 37t23.5 82l164 -14q0 -47 -13.5 -84t-36 -63.5t-51 -45t-57.5 -30.5 q-70 -29 -157 -31q-66 2 -127 29q-53 23 -108.5 70.5t-94.5 137.5q-10 -25 -31.5 -64.5t-55.5 -76.5t-79 -63.5t-100 -26.5q-80 0 -123 37t-62 84q-22 53 -22 123zM266 227q0 -20 8 -34q8 -12 25.5 -22.5t52.5 -10.5q25 0 41.5 18.5t28.5 45t19.5 52t11.5 41.5v271 q-43 0 -74 -15.5t-51.5 -41t-33.5 -58.5t-20 -65q-16 -81 -8 -181zM690 510q45 14 91 31.5t83 44t60.5 65.5t23.5 97q0 66 -17.5 98.5t-37.5 44.5q-25 14 -55 8q-41 -6 -74 -49q-29 -37 -51.5 -116t-22.5 -224z" />
<glyph unicode="&#xe7;" horiz-adv-x="772" d="M68 500q0 104 16 183t43 137.5t60.5 98t70.5 66.5q82 61 191 70q90 -4 161 -31q61 -23 112.5 -73t51.5 -140q0 -45 -9 -74.5t-24.5 -47t-35 -26t-39.5 -8.5h-7q-46 0 -102 25q12 10 21 33q6 16 4 45.5t-19 72.5q-23 39 -42 56.5t-36 21.5q-20 6 -36 -2q-41 -6 -74 -53 q-29 -41 -51.5 -125t-22.5 -240q0 -139 24.5 -210.5t53.5 -104.5q35 -37 80 -39q20 -4 38.5 -4t34.5 4q29 8 51.5 33t22.5 82l178 -17q0 -49 -14 -85.5t-37.5 -64.5t-54.5 -46.5t-62 -30.5q-74 -29 -167 -33q-109 8 -191 66q-37 25 -70.5 62.5t-60.5 93t-43 131.5t-16 174z M248 -313l2 90l114 -23q18 -6 35 0q14 4 26.5 19.5t16.5 50.5q2 18 -11 26.5t-30 12.5q-20 4 -45 2h-94q6 41 10 74q4 29 6 50t-2 19t11 -2h32q23 0 50 2l-7 -74q45 16 80 11q29 -4 53.5 -33t22.5 -100q-2 -35 -16.5 -63t-38 -46t-51 -27.5t-54.5 -7.5q-23 2 -42 4t-36 6z " />
<glyph unicode="&#xe8;" horiz-adv-x="763" d="M35 500q0 100 16.5 177t43 133t60 95t68.5 64q82 59 191 67q84 -2 151 -37q57 -29 105.5 -94t48.5 -184q0 -115 -51.5 -173.5t-124 -85t-149.5 -30.5t-128 -10q8 -111 32 -167t50 -85q31 -33 66 -37q12 -1 23 -1q28 0 52 7q29 10 52.5 37t23.5 82l164 -14 q0 -47 -13.5 -84t-36 -63.5t-51 -45t-57.5 -31.5q-70 -29 -157 -30q-109 8 -191 63q-35 25 -68.5 61t-60 90t-43 127t-16.5 169zM266 506q45 14 91 31.5t83 44t60.5 65.5t23.5 96q0 66 -17.5 98.5t-37.5 45.5q-17 10 -37 10q-9 0 -18 -2q-41 -6 -74 -49q-29 -37 -51.5 -116 t-22.5 -224zM256 1464q2 16 13 28.5t44 16.5q31 2 50.5 -7t29.5 -23q12 -16 18 -37l80 -342l-80 -2l-151 327q-6 21 -4 39zM256 1464q2 16 13 28.5t44 16.5q31 2 50.5 -7t29.5 -23q12 -16 18 -37l80 -342l-80 -2l-151 327q-6 21 -4 39z" />
<glyph unicode="&#xe9;" horiz-adv-x="763" d="M35 500q0 100 16.5 177t43 133t60 95t68.5 64q82 59 191 67q84 -2 151 -37q57 -29 105.5 -94t48.5 -184q0 -115 -51.5 -173.5t-124 -85t-149.5 -30.5t-128 -10q8 -111 32 -167t50 -85q31 -33 66 -37q12 -1 23 -1q28 0 52 7q29 10 52.5 37t23.5 82l164 -14 q0 -47 -13.5 -84t-36 -63.5t-51 -45t-57.5 -31.5q-70 -29 -157 -30q-109 8 -191 63q-35 25 -68.5 61t-60 90t-43 127t-16.5 169zM266 506q45 14 91 31.5t83 44t60.5 65.5t23.5 96q0 66 -17.5 98.5t-37.5 45.5q-17 10 -37 10q-9 0 -18 -2q-41 -6 -74 -49q-29 -37 -51.5 -116 t-22.5 -224zM355 1100l80 342q6 20 18 37q10 14 28.5 23t51.5 7q31 -4 43 -16t14 -29q2 -18 -4 -39l-151 -327z" />
<glyph unicode="&#xea;" horiz-adv-x="763" d="M35 500q0 100 16.5 177t43 133t60 95t68.5 64q82 59 191 67q84 -2 151 -37q57 -29 105.5 -94t48.5 -184q0 -115 -51.5 -173.5t-124 -85t-149.5 -30.5t-128 -10q8 -111 32 -167t50 -85q31 -33 66 -37q12 -1 23 -1q28 0 52 7q29 10 52.5 37t23.5 82l164 -14 q0 -47 -13.5 -84t-36 -63.5t-51 -45t-57.5 -31.5q-70 -29 -157 -30q-109 8 -191 63q-35 25 -68.5 61t-60 90t-43 127t-16.5 169zM266 506q45 14 91 31.5t83 44t60.5 65.5t23.5 96q0 66 -17.5 98.5t-37.5 45.5q-17 10 -37 10q-9 0 -18 -2q-41 -6 -74 -49q-29 -37 -51.5 -116 t-22.5 -224zM141 1100l149 342q6 20 19 37q10 14 28.5 23t51.5 7q27 -2 43 -12t26 -22q10 -14 15 -33l147 -342l-80 -2l-157 252l-162 -252z" />
<glyph unicode="&#xeb;" horiz-adv-x="763" d="M35 500q0 100 16.5 177t43 133t60 95t68.5 64q82 59 191 67q84 -2 151 -37q57 -29 105.5 -94t48.5 -184q0 -115 -51.5 -173.5t-124 -85t-149.5 -30.5t-128 -10q8 -111 32 -167t50 -85q31 -33 66 -37q12 -1 23 -1q28 0 52 7q29 10 52.5 37t23.5 82l164 -14 q0 -47 -13.5 -84t-36 -63.5t-51 -45t-57.5 -31.5q-70 -29 -157 -30q-109 8 -191 63q-35 25 -68.5 61t-60 90t-43 127t-16.5 169zM266 506q45 14 91 31.5t83 44t60.5 65.5t23.5 96q0 66 -17.5 98.5t-37.5 45.5q-17 10 -37 10q-9 0 -18 -2q-41 -6 -74 -49q-29 -37 -51.5 -116 t-22.5 -224zM41 1348q0 45 34.5 78.5t82.5 33.5q45 0 78.5 -33.5t33.5 -78.5q0 -47 -33.5 -82t-78.5 -35q-47 0 -82 35t-35 82zM491 1339q0 45 35 79t82 34q45 0 79 -34t34 -79q0 -47 -34 -81.5t-79 -34.5q-47 0 -82 34.5t-35 81.5z" />
<glyph unicode="&#xec;" horiz-adv-x="333" d="M49 2v1028h236v-1028h-236zM62 1464q2 16 13 28.5t44 16.5q31 2 50.5 -7t29.5 -23q12 -16 18 -37l80 -342l-80 -2l-151 327q-6 21 -4 39zM62 1464q2 16 13 28.5t44 16.5q31 2 50.5 -7t29.5 -23q12 -16 18 -37l80 -342l-80 -2l-151 327q-6 21 -4 39z" />
<glyph unicode="&#xed;" horiz-adv-x="333" d="M49 2v1028h236v-1028h-236zM35 1100l80 342q6 20 18 37q10 14 28.5 23t51.5 7q31 -4 43 -16t14 -29q2 -18 -4 -39l-151 -327z" />
<glyph unicode="&#xee;" horiz-adv-x="333" d="M49 2v1028h236v-1028h-236zM-69 1100l149 342q6 20 19 37q10 14 28.5 23t51.5 7q27 -2 43 -12t26 -22q10 -14 15 -33l147 -342l-80 -2l-157 252l-162 -252z" />
<glyph unicode="&#xef;" horiz-adv-x="333" d="M49 2v1028h236v-1028h-236zM-170 1348q0 45 34.5 78.5t82.5 33.5q45 0 78.5 -33.5t33.5 -78.5q0 -47 -33.5 -82t-78.5 -35q-47 0 -82 35t-35 82zM280 1339q0 45 35 79t82 34q45 0 79 -34t34 -79q0 -47 -34 -81.5t-79 -34.5q-47 0 -82 34.5t-35 81.5z" />
<glyph unicode="&#xf0;" d="M45 508q0 147 35 243.5t86 155t106.5 86t96.5 37.5l-127 133h-176v142h112q-14 43 -13 73.5t19 57.5q25 35 69 46t97 13q-25 -29 -25.5 -60.5t7.5 -59t20.5 -47t16.5 -23.5h258v-142h-142l193 -233q14 -14 25 -30l24 -32l18 -20h-6q35 -59 58.5 -141t23.5 -199 q0 -96 -17.5 -168t-45 -125t-62 -89t-71.5 -60q-86 -55 -195 -64q-109 8 -192 64q-37 25 -71 60.5t-61.5 88.5t-44 125t-16.5 168zM301 504q0 -137 19.5 -206t44.5 -97q29 -35 65 -31q41 4 74 41q29 33 51.5 103.5t22.5 205.5q0 150 -24 222.5t-50 101.5q-33 33 -74 26 q-37 2 -65 -34q-25 -33 -44.5 -109t-19.5 -223z" />
<glyph unicode="&#xf1;" horiz-adv-x="868" d="M78 6v1012h231v-168q4 14 15.5 44t37 57.5t67.5 49t108 21.5q84 0 131 -37t69 -82q25 -53 31 -117v-442q0 -80 15.5 -122t35.5 -62q23 -23 53 -27q0 -49 -23.5 -76.5t-57 -39t-68.5 -11.5t-59 6q-57 14 -85 66.5t-40 111.5q-14 68 -15 150v463q2 18 -6 35q-8 14 -26.5 25 t-55.5 11q-35 0 -57.5 -19t-37.5 -46t-22.5 -54.5t-9.5 -41.5v-707h-231zM112 1198.5q-7 24.5 1 49t35 42.5q23 14 50.5 21.5t53.5 11.5q31 4 62 4q25 0 61.5 -8t75.5 -18.5t79 -19.5t70 -9q31 0 54.5 8t40.5 18q18 12 32 29q25 -47 35 -72.5t9 -41t-12 -27.5t-30 -31 q-31 -16 -70.5 -18t-74.5 4q-41 6 -84 20q-39 18 -78 27q-35 8 -73.5 10t-71.5 -10q-49 -20 -68 -39q-10 -10 -16 -21q-31 6 -52.5 26t-28.5 44.5z" />
<glyph unicode="&#xf2;" d="M45 508q0 98 16.5 174t44 132t61.5 95t71 64q84 57 192 65q109 -8 195 -65q37 -25 71.5 -64t62 -95t45 -132t17.5 -174q0 -96 -17.5 -168t-45 -125t-62 -89t-71.5 -60q-86 -55 -195 -64q-109 8 -192 64q-37 25 -71 60.5t-61.5 88.5t-44 125t-16.5 168zM301 504 q0 -137 19.5 -206t44.5 -97q26 -31 57 -31h8q41 4 74 41q29 33 51.5 103.5t22.5 205.5q0 150 -24 222.5t-50 101.5q-28 28 -61 27q-6 0 -13 -1q-2 0 -4 1q-35 0 -61 -35q-25 -33 -44.5 -109t-19.5 -223zM332 1464q2 16 13 28.5t44 16.5q31 2 50.5 -7t29.5 -23q12 -16 18 -37 l80 -342l-80 -2l-151 327q-6 21 -4 39zM332 1464q2 16 13 28.5t44 16.5q31 2 50.5 -7t29.5 -23q12 -16 18 -37l80 -342l-80 -2l-151 327q-6 21 -4 39z" />
<glyph unicode="&#xf3;" d="M45 508q0 98 16.5 174t44 132t61.5 95t71 64q84 57 192 65q109 -8 195 -65q37 -25 71.5 -64t62 -95t45 -132t17.5 -174q0 -96 -17.5 -168t-45 -125t-62 -89t-71.5 -60q-86 -55 -195 -64q-109 8 -192 64q-37 25 -71 60.5t-61.5 88.5t-44 125t-16.5 168zM301 504 q0 -137 19.5 -206t44.5 -97q26 -31 57 -31h8q41 4 74 41q29 33 51.5 103.5t22.5 205.5q0 150 -24 222.5t-50 101.5q-28 28 -61 27q-6 0 -13 -1q-2 0 -4 1q-35 0 -61 -35q-25 -33 -44.5 -109t-19.5 -223zM305 1100l80 342q6 20 18 37q10 14 28.5 23t51.5 7q31 -4 43 -16 t14 -29q2 -18 -4 -39l-151 -327z" />
<glyph unicode="&#xf4;" d="M45 508q0 98 16.5 174t44 132t61.5 95t71 64q84 57 192 65q109 -8 195 -65q37 -25 71.5 -64t62 -95t45 -132t17.5 -174q0 -96 -17.5 -168t-45 -125t-62 -89t-71.5 -60q-86 -55 -195 -64q-109 8 -192 64q-37 25 -71 60.5t-61.5 88.5t-44 125t-16.5 168zM301 504 q0 -137 19.5 -206t44.5 -97q26 -31 57 -31h8q41 4 74 41q29 33 51.5 103.5t22.5 205.5q0 150 -24 222.5t-50 101.5q-28 28 -61 27q-6 0 -13 -1q-2 0 -4 1q-35 0 -61 -35q-25 -33 -44.5 -109t-19.5 -223zM197 1100l149 342q6 20 19 37q10 14 28.5 23t51.5 7q27 -2 43 -12 t26 -22q10 -14 15 -33l147 -342l-80 -2l-157 252l-162 -252z" />
<glyph unicode="&#xf5;" d="M45 508q0 98 16.5 174t44 132t61.5 95t71 64q84 57 192 65q109 -8 195 -65q37 -25 71.5 -64t62 -95t45 -132t17.5 -174q0 -96 -17.5 -168t-45 -125t-62 -89t-71.5 -60q-86 -55 -195 -64q-109 8 -192 64q-37 25 -71 60.5t-61.5 88.5t-44 125t-16.5 168zM301 504 q0 -137 19.5 -206t44.5 -97q26 -31 57 -31h8q41 4 74 41q29 33 51.5 103.5t22.5 205.5q0 150 -24 222.5t-50 101.5q-28 28 -61 27q-6 0 -13 -1q-2 0 -4 1q-35 0 -61 -35q-25 -33 -44.5 -109t-19.5 -223zM114 1198.5q-7 24.5 1 49t35 42.5q23 14 50.5 21.5t53.5 11.5 q31 4 62 4q25 0 61.5 -8t75.5 -18.5t79 -19.5t70 -9q31 0 54.5 8t40.5 18q18 12 32 29q25 -47 35 -72.5t9 -41t-12 -27.5t-30 -31q-31 -16 -70.5 -18t-74.5 4q-41 6 -84 20q-39 18 -78 27q-35 8 -73.5 10t-71.5 -10q-49 -20 -68 -39q-10 -10 -16 -21q-31 6 -52.5 26 t-28.5 44.5z" />
<glyph unicode="&#xf6;" d="M45 508q0 98 16.5 174t44 132t61.5 95t71 64q84 57 192 65q109 -8 195 -65q37 -25 71.5 -64t62 -95t45 -132t17.5 -174q0 -96 -17.5 -168t-45 -125t-62 -89t-71.5 -60q-86 -55 -195 -64q-109 8 -192 64q-37 25 -71 60.5t-61.5 88.5t-44 125t-16.5 168zM301 504 q0 -137 19.5 -206t44.5 -97q26 -31 57 -31h8q41 4 74 41q29 33 51.5 103.5t22.5 205.5q0 150 -24 222.5t-50 101.5q-28 28 -61 27q-6 0 -13 -1q-2 0 -4 1q-35 0 -61 -35q-25 -33 -44.5 -109t-19.5 -223zM96 1348q0 45 34.5 78.5t82.5 33.5q45 0 78.5 -33.5t33.5 -78.5 q0 -47 -33.5 -82t-78.5 -35q-47 0 -82 35t-35 82zM546 1339q0 45 35 79t82 34q45 0 79 -34t34 -79q0 -47 -34 -81.5t-79 -34.5q-47 0 -82 34.5t-35 81.5z" />
<glyph unicode="&#xf7;" horiz-adv-x="1040" d="M422 362q0 45 35 79t82 34q45 0 79 -33.5t34 -79.5q0 -47 -34 -81.5t-79 -34.5q-47 0 -82 34.5t-35 81.5zM422 1135q0 45 35 78.5t82 33.5q45 0 79 -33.5t34 -78.5q0 -47 -34 -82t-79 -35q-47 0 -82 35t-35 82zM49 682v209h965v-209h-965z" />
<glyph unicode="&#xf8;" d="M45 508q0 98 16.5 174t44 132t61.5 95t71 64q84 57 192 65q14 0 35 -4q16 -4 37.5 -8t48.5 -14l53 141h160l-84 -227q59 -57 100 -156.5t41 -261.5q0 -96 -17.5 -168t-45 -125t-62 -89t-71.5 -60q-86 -55 -195 -64q-12 0 -24 2t-28 4t-34 8l-45 -127h-160l72 195 q-33 25 -62.5 62.5t-53 89t-37 119t-13.5 153.5zM301 504q0 -47 2 -83t6 -67l185 498q-12 10 -23.5 13t-21.5 5t-19 0q-37 2 -65 -34q-25 -33 -44.5 -109t-19.5 -223zM401 172q6 -2 21 -2h8q41 4 74 41q29 33 51.5 103.5t22.5 205.5q0 61 -7 115z" />
<glyph unicode="&#xf9;" horiz-adv-x="784" d="M6 903q0 51 21.5 80t52.5 40q28 10 58 10h5q33 -1 56 -7q53 -14 82.5 -67.5t42.5 -112.5q14 -68 14 -152l-10 -469q0 -20 8 -35q8 -14 24.5 -24t51.5 -10q25 0 43 19.5t30.5 46t19.5 53t9 40.5v711h236v-1026h-236v176q-4 -16 -14.5 -46t-34 -58.5t-63.5 -50t-101 -21.5 q-82 0 -124 37t-60 84q-23 53 -25 121l10 448q0 80 -15 123t-34 64q-22 22 -47 26zM287 1464q2 16 13 28.5t44 16.5q31 2 50.5 -7t29.5 -23q12 -16 18 -37l80 -342l-80 -2l-151 327q-6 21 -4 39zM287 1464q2 16 13 28.5t44 16.5q31 2 50.5 -7t29.5 -23q12 -16 18 -37 l80 -342l-80 -2l-151 327q-6 21 -4 39z" />
<glyph unicode="&#xfa;" horiz-adv-x="784" d="M6 903q0 51 21.5 80t52.5 40q28 10 58 10h5q33 -1 56 -7q53 -14 82.5 -67.5t42.5 -112.5q14 -68 14 -152l-10 -469q0 -20 8 -35q8 -14 24.5 -24t51.5 -10q25 0 43 19.5t30.5 46t19.5 53t9 40.5v711h236v-1026h-236v176q-4 -16 -14.5 -46t-34 -58.5t-63.5 -50t-101 -21.5 q-82 0 -124 37t-60 84q-23 53 -25 121l10 448q0 80 -15 123t-34 64q-22 22 -47 26zM260 1100l80 342q6 20 18 37q10 14 28.5 23t51.5 7q31 -4 43 -16t14 -29q2 -18 -4 -39l-151 -327z" />
<glyph unicode="&#xfb;" horiz-adv-x="784" d="M6 903q0 51 21.5 80t52.5 40q28 10 58 10h5q33 -1 56 -7q53 -14 82.5 -67.5t42.5 -112.5q14 -68 14 -152l-10 -469q0 -20 8 -35q8 -14 24.5 -24t51.5 -10q25 0 43 19.5t30.5 46t19.5 53t9 40.5v711h236v-1026h-236v176q-4 -16 -14.5 -46t-34 -58.5t-63.5 -50t-101 -21.5 q-82 0 -124 37t-60 84q-23 53 -25 121l10 448q0 80 -15 123t-34 64q-22 22 -47 26zM152 1100l149 342q6 20 19 37q10 14 28.5 23t51.5 7q27 -2 43 -12t26 -22q10 -14 15 -33l147 -342l-80 -2l-157 252l-162 -252z" />
<glyph unicode="&#xfc;" horiz-adv-x="784" d="M6 903q0 51 21.5 80t52.5 40q28 10 58 10h5q33 -1 56 -7q53 -14 82.5 -67.5t42.5 -112.5q14 -68 14 -152l-10 -469q0 -20 8 -35q8 -14 24.5 -24t51.5 -10q25 0 43 19.5t30.5 46t19.5 53t9 40.5v711h236v-1026h-236v176q-4 -16 -14.5 -46t-34 -58.5t-63.5 -50t-101 -21.5 q-82 0 -124 37t-60 84q-23 53 -25 121l10 448q0 80 -15 123t-34 64q-22 22 -47 26zM51 1348q0 45 34.5 78.5t82.5 33.5q45 0 78.5 -33.5t33.5 -78.5q0 -47 -33.5 -82t-78.5 -35q-47 0 -82 35t-35 82zM501 1339q0 45 35 79t82 34q45 0 79 -34t34 -79q0 -47 -34 -81.5 t-79 -34.5q-47 0 -82 34.5t-35 81.5z" />
<glyph unicode="&#xfd;" horiz-adv-x="854" d="M-20 -258q51 -9 92 -9q34 0 61 6q61 13 98 36q43 27 70 65l35 201l-211 623q-31 94 -56.5 141t-45.5 67q-23 23 -41 23q0 51 19 80t47 41q24 11 49 10h8q30 -2 53 -10q45 -20 75.5 -73.5t51.5 -111.5q23 -68 39 -143l118 -448v16q0 16 -6 45l199 723h209l-318 -991 l-34 -228q-8 -49 -34 -85.5t-63 -64.5t-83 -47.5t-91 -31.5q-109 -31 -241 -35v201zM295 1100l80 342q6 20 18 37q10 14 28.5 23t51.5 7q31 -4 43 -16t14 -29q2 -18 -4 -39l-151 -327z" />
<glyph unicode="&#xfe;" horiz-adv-x="825" d="M20 -514v2073h246v-601q14 16 35 31q16 12 41 22.5t57 10.5q12 0 44 -1t73 -13.5t86 -42t82 -86t60.5 -144.5t23.5 -219q0 -96 -15.5 -170t-40 -128t-56 -91t-64.5 -61q-78 -55 -176 -64q-27 -2 -56 6q-25 4 -53 16.5t-57 34.5v-573h-230zM256 186q20 -23 58 -37t98 -14 q39 0 64.5 36t38.5 95.5t18.5 135t5.5 155.5q0 78 -7.5 144.5t-22.5 114.5t-39 75t-58 27q-43 0 -74 -11.5t-50.5 -24t-27.5 -23.5t-4 -11v-662z" />
<glyph unicode="&#xff;" horiz-adv-x="854" d="M-20 -258q51 -9 92 -9q34 0 61 6q61 13 98 36q43 27 70 65l35 201l-211 623q-31 94 -56.5 141t-45.5 67q-23 23 -41 23q0 51 19 80t47 41q24 11 49 10h8q30 -2 53 -10q45 -20 75.5 -73.5t51.5 -111.5q23 -68 39 -143l118 -448v16q0 16 -6 45l199 723h209l-318 -991 l-34 -228q-8 -49 -34 -85.5t-63 -64.5t-83 -47.5t-91 -31.5q-109 -31 -241 -35v201zM86 1348q0 45 34.5 78.5t82.5 33.5q45 0 78.5 -33.5t33.5 -78.5q0 -47 -33.5 -82t-78.5 -35q-47 0 -82 35t-35 82zM536 1339q0 45 35 79t82 34q45 0 79 -34t34 -79q0 -47 -34 -81.5 t-79 -34.5q-47 0 -82 34.5t-35 81.5z" />
<glyph unicode="&#x131;" horiz-adv-x="333" d="M49 2v1028h236v-1028h-236z" />
<glyph unicode="&#x152;" horiz-adv-x="2148" d="M43 750q0 162 52 301t141.5 240.5t210 159.5t255.5 58q94 0 159 -18t112 -50t85 -74t83 -87v229h923l-2 -51q0 -55 -16 -91t-58 -54.5t-112 -20.5t-176 13l-330 41v-463h418l-2 -52q0 -51 -18.5 -79.5t-54.5 -41t-89 -11.5t-121 10l-133 14v-563l361 45q106 14 175.5 12 t111.5 -20.5t58.5 -54.5t16.5 -91l2 -51h-954v250q-45 -72 -111 -125q-55 -47 -137 -86t-191 -39q-135 0 -255.5 56.5t-210 156.5t-141.5 237.5t-52 299.5zM281 752q0 -111 18 -196t47 -147.5t67 -105.5t79 -70q92 -66 210 -73q119 8 216 73q39 27 77.5 70t69.5 105.5 t49.5 147.5t18.5 196t-19.5 194.5t-50.5 146t-70 105.5t-80 72q-96 68 -217 78q-117 -10 -209 -78q-39 -29 -75.5 -72t-66.5 -105.5t-47 -146t-17 -194.5z" />
<glyph unicode="&#x153;" horiz-adv-x="1318" d="M45 508q0 98 16.5 174t44 132t61.5 95t71 64q84 57 192 65q45 -2 94 -18q41 -14 89.5 -42t93.5 -81q41 51 87 79t87 42q45 16 90 18q84 -2 151 -37q57 -29 105.5 -94t48.5 -184q0 -115 -51 -173.5t-124 -85t-150 -30.5t-128 -10q8 -111 32 -167t50 -85q31 -33 66 -37 q41 -4 76 6q29 10 52 37t23 82l164 -14q0 -47 -13 -84t-36 -63.5t-51.5 -45t-57.5 -31.5q-70 -29 -157 -30q-47 0 -94 16q-41 12 -89.5 41t-89.5 82q-43 -47 -90 -72.5t-88 -38.5q-47 -14 -90 -16q-109 8 -192 64q-37 25 -71 60.5t-61.5 88.5t-44 125t-16.5 168zM301 504 q0 -137 19.5 -206t44.5 -97q29 -35 65 -31q41 4 74 41q29 33 51.5 103.5t22.5 205.5q0 150 -24 222.5t-50 101.5q-33 33 -74 26q-37 2 -65 -34q-25 -33 -44.5 -109t-19.5 -223zM823 506q45 14 91.5 31.5t83 44t60 65.5t23.5 96q0 66 -17 98.5t-38 45.5q-25 14 -55 8 q-41 -6 -74 -49q-29 -37 -51.5 -116t-22.5 -224z" />
<glyph unicode="&#x178;" horiz-adv-x="1275" d="M45 1509h254l338 -718l338 718h256l-504 -901v-606h-229v606zM297 1833q0 45 34.5 78.5t82.5 33.5q45 0 78.5 -33.5t33.5 -78.5q0 -47 -33.5 -82t-78.5 -35q-47 0 -82 35t-35 82zM747 1824q0 45 35 79t82 34q45 0 79 -34t34 -79q0 -47 -34 -81.5t-79 -34.5 q-47 0 -82 34.5t-35 81.5z" />
<glyph unicode="&#x2c6;" horiz-adv-x="509" d="M-6 1100l149 342q6 20 19 37q10 14 28.5 23t51.5 7q27 -2 43 -12t26 -22q10 -14 15 -33l147 -342l-80 -2l-157 252l-162 -252z" />
<glyph unicode="&#x2da;" horiz-adv-x="489" d="M37 1300q0 43 16.5 82t45 68t67.5 45t82 16t82 -16t67.5 -45t45 -68t16.5 -82t-16.5 -81.5t-45 -67.5t-67.5 -45t-82 -16t-82 16t-67.5 45t-45 67.5t-16.5 81.5zM168 1305q0 -55 23.5 -93t58.5 -38t59.5 37.5t24.5 93.5q0 55 -24.5 94t-59.5 39t-58.5 -39t-23.5 -94z" />
<glyph unicode="&#x2dc;" horiz-adv-x="727" d="M42 1198.5q-7 24.5 1 49t35 42.5q23 14 50.5 21.5t53.5 11.5q31 4 62 4q25 0 61.5 -8t75.5 -18.5t79 -19.5t70 -9q31 0 54.5 8t40.5 18q18 12 32 29q25 -47 35 -72.5t9 -41t-12 -27.5t-30 -31q-31 -16 -70.5 -18t-74.5 4q-41 6 -84 20q-39 18 -78 27q-35 8 -73.5 10 t-71.5 -10q-49 -20 -68 -39q-10 -10 -16 -21q-31 6 -52.5 26t-28.5 44.5z" />
<glyph unicode="&#x2013;" d="M72 518v209h727v-209h-727z" />
<glyph unicode="&#x2014;" horiz-adv-x="1208" d="M76 518v209h1075v-209h-1075z" />
<glyph unicode="&#x2018;" horiz-adv-x="339" d="M35 1241q-2 72 29.5 125t70.5 88q45 39 101 68q18 -14 32 -23q12 -10 23.5 -16t13.5 -6t-10 -4.5t-27.5 -19.5t-31 -43t-21.5 -77q23 -16 36 -41.5t13 -54.5q0 -45 -34.5 -79t-82.5 -34q-45 0 -78.5 35t-33.5 82z" />
<glyph unicode="&#x2019;" horiz-adv-x="360" d="M37 1169q-2 0 10 4.5t27.5 19.5t31 43t21.5 77q-23 16 -36 41.5t-13 54.5q0 45 34.5 79t82.5 34q45 0 78.5 -35t33.5 -82q0 -74 -30.5 -126t-69.5 -87q-45 -39 -101 -68l-32 23l-24 15q-11 7 -13 7z" />
<glyph unicode="&#x201a;" horiz-adv-x="325" d="M8 -127q-2 0 10.5 4t27.5 19.5t30.5 43t21.5 76.5q-23 16 -36 42t-13 55q0 45 35 78.5t82 33.5q45 0 79 -34.5t34 -81.5q0 -74 -31 -126.5t-70 -86.5q-45 -39 -100 -68l-33 22l-23 16q-12 7 -14 7z" />
<glyph unicode="&#x201c;" horiz-adv-x="714" d="M35 1241q-2 72 29.5 125t70.5 88q45 39 101 68q18 -14 32 -23q12 -10 23.5 -16t13.5 -6t-10 -4.5t-27.5 -19.5t-31 -43t-21.5 -77q23 -16 36 -41.5t13 -54.5q0 -45 -34.5 -79t-82.5 -34q-45 0 -78.5 35t-33.5 82zM397 1241q-2 72 30 125t71 88q45 39 100 68 q18 -14 33 -23q12 -10 23.5 -16t13.5 -6t-10.5 -4.5t-28 -19.5t-30.5 -43t-21 -77q23 -16 36 -41.5t13 -54.5q0 -45 -35 -79t-82 -34q-45 0 -79 35t-34 82z" />
<glyph unicode="&#x201d;" horiz-adv-x="722" d="M37 1169q-2 0 10 4.5t27.5 19.5t31 43t21.5 77q-23 16 -36 41.5t-13 54.5q0 45 34.5 79t82.5 34q45 0 78.5 -35t33.5 -82q0 -74 -30.5 -126t-69.5 -87q-45 -39 -101 -68l-32 23l-24 15q-11 7 -13 7zM399 1169q-2 0 10.5 4.5t28 19.5t30.5 43t21 77q-23 16 -36 41.5 t-13 54.5q0 45 35 79t82 34q45 0 79 -35t34 -82q0 -74 -31 -126t-70 -87q-45 -39 -100 -68l-33 23l-23 15q-12 7 -14 7z" />
<glyph unicode="&#x201e;" horiz-adv-x="673" d="M8 -127q-2 0 10.5 4t27.5 19.5t30.5 43t21.5 76.5q-23 16 -36 42t-13 55q0 45 35 78.5t82 33.5q45 0 79 -34.5t34 -81.5q0 -74 -31 -126.5t-70 -86.5q-45 -39 -100 -68l-33 22l-23 16q-12 7 -14 7zM319 -127q-2 0 10.5 4t28 19.5t30.5 43t22 76.5q-23 16 -36.5 42 t-13.5 55q0 45 35 78.5t82 33.5q45 0 79 -34.5t34 -81.5q0 -74 -31 -126.5t-70 -86.5q-45 -39 -100 -68l-33 22l-23 16q-12 7 -14 7z" />
<glyph unicode="&#x2022;" horiz-adv-x="528" d="M63 799q0 84 58.5 142t142.5 58t142.5 -58t58.5 -142t-58.5 -142.5t-142.5 -58.5t-142.5 58.5t-58.5 142.5z" />
<glyph unicode="&#x2026;" horiz-adv-x="976" d="M49 115q0 45 35 78.5t82 33.5q45 0 79 -33.5t34 -78.5q0 -47 -34 -82t-79 -35q-47 0 -82 35t-35 82zM375 115q0 45 34.5 78.5t82.5 33.5q45 0 78.5 -33.5t33.5 -78.5q0 -47 -33.5 -82t-78.5 -35q-47 0 -82 35t-35 82zM700 115q0 45 35 78.5t82 33.5q45 0 79 -33.5 t34 -78.5q0 -47 -34 -82t-79 -35q-47 0 -82 35t-35 82z" />
<glyph unicode="&#x2039;" horiz-adv-x="645" d="M63 549l326 475h215l-235 -483l221 -541h-209z" />
<glyph unicode="&#x203a;" horiz-adv-x="665" d="M63 1024h216l325 -475l-317 -549h-209l221 541z" />
<glyph unicode="&#x2044;" horiz-adv-x="931" d="M86 -8l565 1509h230l-566 -1509h-229z" />
<glyph unicode="&#x20ac;" horiz-adv-x="1370" d="M57 401v209h193q-4 35 -6 69t-2 71q0 20 1 40.5t3 40.5h-189v209h232q37 109 97 199t140 155.5t175.5 102.5t199.5 37q51 0 103.5 -6t97.5 -23.5t81 -48.5t58 -82q33 -78 17.5 -129t-46.5 -82q-37 -37 -92 -57q0 98 -35.5 151.5t-78.5 78t-78 28.5t-33 4q-78 -4 -150 -41 q-61 -31 -124.5 -97.5t-102.5 -189.5h555v-209h-592q-2 -20 -2 -39v-40q0 -39 2 -74t6 -68h586v-209h-524q45 -92 105.5 -140t115.5 -71q66 -27 131 -30q47 0 88 16q35 14 70 44t51 87l207 -10q0 -61 -18.5 -106.5t-49 -79t-69.5 -56t-78 -37.5q-96 -35 -215 -38 q-219 0 -368.5 115.5t-219.5 305.5h-242z" />
<glyph unicode="&#x2122;" horiz-adv-x="3004" d="M1415 0l166 1509h230l346 -1138l309 1138h233l213 -1509h-229l-125 1012l-280 -1012h-238l-324 1059l-65 -1059h-236zM49 1509h1284l-2 -51q0 -55 -16.5 -91t-58.5 -54.5t-111 -20.5h-18q-65 0 -158 13l-156 30v-1335h-229v1339l-170 -34q-93 -13 -158 -13h-18 q-70 2 -112 20.5t-58.5 54.5t-16.5 91z" />
<glyph unicode="&#x2212;" horiz-adv-x="1054" d="M47 682v209h965v-209h-965z" />
<glyph unicode="&#xe000;" horiz-adv-x="1030" d="M0 1030h1030v-1030h-1030v1030z" />
<glyph unicode="&#xfb01;" horiz-adv-x="897" d="M55 0v1212q0 106 48.5 174t117 106t142 51t124.5 13q121 0 185.5 -16t95.5 -35q37 -23 41 -49q23 -76 1 -109.5t-56 -43.5q-41 -12 -103 -5q0 66 -22.5 103t-50.5 53q-33 20 -72 21q-78 0 -120 -24t-62 -52q-23 -35 -29 -76v-299h539v-1022h-236v872h-303v-874h-240z" />
<glyph unicode="&#xfb02;" horiz-adv-x="985" d="M84 0v1212q0 106 48 174t116.5 106t142.5 51t125 13q59 0 101 -4t77 -10h213v-1542h-229v1335q-8 53 -31.5 80t-48.5 41q-29 14 -63 19q-78 0 -120 -24t-63 -52q-23 -35 -28 -76v-299h290v-150h-290v-874h-240z" />
<glyph unicode="&#xfb03;" horiz-adv-x="1566" d="M1282 2v1028h236v-1028h-236zM1282 1276q0 45 35 79t82 34q45 0 79 -34t34 -79q0 -47 -34 -82t-79 -35q-47 0 -82 35t-35 82zM686 0v1212q0 106 30.5 174t78.5 106t104.5 51t107.5 13q90 0 142.5 -16t80.5 -35q33 -23 48 -49q8 -37 8 -64q0 -35 -14 -55q-24 -35 -56 -43 q-16 -4 -36 -4q-27 0 -60 8q0 66 -15.5 103t-31.5 53q-23 20 -47 21q-37 0 -57.5 -24t-30.5 -52q-10 -35 -13 -76v-299h273v-150h-273v-874h-239zM70 0v1212q0 106 30.5 174t78.5 106t104.5 51t107.5 13q90 0 142.5 -16t80.5 -35q33 -23 48 -49q8 -37 8 -64q0 -35 -14 -55 q-24 -35 -56 -43q-16 -4 -36 -4q-27 0 -60 8q0 66 -15.5 103t-31.5 53q-23 20 -47 21q-37 0 -57.5 -24t-30.5 -52q-10 -35 -13 -76v-299h273v-150h-273v-874h-239z" />
<glyph unicode="&#xfb04;" horiz-adv-x="1601" d="M1294 0v1542h230v-1542h-230zM686 0v1212q0 106 30.5 174t78.5 106t104.5 51t107.5 13q90 0 142.5 -16t80.5 -35q33 -23 48 -49q8 -37 8 -64q0 -35 -14 -55q-24 -35 -56 -43q-16 -4 -36 -4q-27 0 -60 8q0 66 -15.5 103t-31.5 53q-23 20 -47 21q-37 0 -57.5 -24t-30.5 -52 q-10 -35 -13 -76v-299h273v-150h-273v-874h-239zM70 0v1212q0 106 30.5 174t78.5 106t104.5 51t107.5 13q90 0 142.5 -16t80.5 -35q33 -23 48 -49q8 -37 8 -64q0 -35 -14 -55q-24 -35 -56 -43q-16 -4 -36 -4q-27 0 -60 8q0 66 -15.5 103t-31.5 53q-23 20 -47 21 q-37 0 -57.5 -24t-30.5 -52q-10 -35 -13 -76v-299h273v-150h-273v-874h-239z" />
</font>
</defs>
</svg>
